<svg width="74" height="74" viewBox="0 0 74 74" fill="none" xmlns="http://www.w3.org/2000/svg">
<path d="M40.4688 17.3438V19.6562H37C36.6933 19.6563 36.3993 19.7781 36.1824 19.9949C35.9656 20.2117 35.8438 20.5058 35.8438 20.8125V24.2812H32.375C32.0683 24.2813 31.7742 24.4031 31.5574 24.6199C31.3406 24.8368 31.2188 25.1308 31.2188 25.4375V27.75H27.75C27.4433 27.75 27.1492 27.8718 26.9324 28.0887C26.7156 28.3055 26.5938 28.5996 26.5938 28.9062V34.6875C26.5938 34.9942 26.7156 35.2882 26.9324 35.5051C27.1492 35.7219 27.4433 35.8437 27.75 35.8438H46.25C46.5567 35.8437 46.8507 35.7219 47.0676 35.5051C47.2844 35.2882 47.4062 34.9942 47.4062 34.6875V17.3438C47.4062 17.0371 47.2844 16.743 47.0676 16.5262C46.8507 16.3093 46.5567 16.1875 46.25 16.1875H41.625C41.3183 16.1875 41.0243 16.3093 40.8074 16.5262C40.5906 16.743 40.4688 17.0371 40.4688 17.3438ZM28.9062 30.0625H31.2188V33.5312H28.9062V30.0625ZM33.5312 26.5938H35.8438V33.5312H33.5312V26.5938ZM38.1562 21.9688H40.4688V33.5312H38.1562V21.9688ZM42.7812 18.5H45.0938V33.5312H42.7812V18.5Z" fill="url(#paint0_linear_422_23448)"/>
<path d="M33.5312 37H35.8438V39.3125H33.5312V37Z" fill="url(#paint1_linear_422_23448)"/>
<path d="M28.9062 37H31.2188V39.3125H28.9062V37Z" fill="url(#paint2_linear_422_23448)"/>
<path d="M38.1562 37H40.4688V39.3125H38.1562V37Z" fill="url(#paint3_linear_422_23448)"/>
<path d="M42.7812 37H45.0938V39.3125H42.7812V37Z" fill="url(#paint4_linear_422_23448)"/>
<path d="M8.09376 34.6874V46.3806C8.09129 48.6653 8.65417 50.9151 9.73222 52.9294C10.8103 54.9437 12.37 56.66 14.2723 57.9253L15.0313 58.4313V69.375C15.0313 69.6817 15.1531 69.9758 15.3699 70.1926C15.5868 70.4094 15.8809 70.5312 16.1875 70.5312H30.0625C30.3692 70.5312 30.6633 70.4094 30.8801 70.1926C31.0969 69.9758 31.2188 69.6817 31.2188 69.375V54.863C35.0261 55.7124 38.9739 55.7123 42.7813 54.8627V69.375C42.7813 69.6817 42.9031 69.9758 43.1199 70.1926C43.3368 70.4094 43.6309 70.5312 43.9375 70.5312H57.8125C58.1192 70.5312 58.4133 70.4094 58.6301 70.1926C58.8469 69.9758 58.9688 69.6817 58.9688 69.375V58.4313L59.7277 57.9253C61.63 56.66 63.1897 54.9437 64.2678 52.9294C65.3458 50.9151 65.9087 48.6653 65.9063 46.3806V34.6874C65.9053 33.9493 65.6694 33.2307 65.2326 32.6357C64.7958 32.0406 64.1809 31.6002 63.477 31.3781C63.5526 30.5578 63.5938 29.7307 63.5938 28.9062C63.5938 28.5996 63.4719 28.3055 63.2551 28.0887C63.0383 27.8718 62.7442 27.75 62.4375 27.75H53.1875C52.8809 27.75 52.5868 27.8718 52.3699 28.0887C52.1531 28.3055 52.0313 28.5996 52.0313 28.9062C52.0313 31.8792 51.1497 34.7853 49.498 37.2572C47.8464 39.729 45.4988 41.6556 42.7522 42.7933C40.0056 43.931 36.9833 44.2287 34.0676 43.6487C31.1518 43.0687 28.4735 41.6371 26.3713 39.5349C24.2691 37.4328 22.8376 34.7545 22.2576 31.8387C21.6776 28.9229 21.9753 25.9006 23.1129 23.154C24.2506 20.4074 26.1772 18.0599 28.6491 16.4082C31.121 14.7566 34.0271 13.875 37 13.875C37.3067 13.875 37.6008 13.7532 37.8176 13.5363C38.0344 13.3195 38.1563 13.0254 38.1563 12.7188V3.46875C38.1563 3.16209 38.0344 2.868 37.8176 2.65116C37.6008 2.43432 37.3067 2.3125 37 2.3125C22.3362 2.3125 10.4063 14.2424 10.4063 28.9062C10.4063 29.7307 10.4474 30.5578 10.523 31.3781C9.81908 31.6002 9.20418 32.0406 8.76741 32.6357C8.33064 33.2307 8.09469 33.9493 8.09376 34.6874ZM28.9063 68.2188H17.3438V58.9688H28.9063V68.2188ZM56.6563 68.2188H45.0938V58.9688H56.6563V68.2188ZM63.5938 46.3806C63.5958 48.2845 63.1267 50.1593 62.2284 51.838C61.33 53.5166 60.0302 54.9468 58.445 56.0012L57.4625 56.6562H45.0938V54.2362C47.1502 53.5793 49.119 52.6747 50.957 51.5423C50.9034 51.9367 50.876 52.3343 50.875 52.7323V54.3438H53.1875V52.7323C53.1863 51.6398 53.4555 50.564 53.9711 49.6008C54.4866 48.6375 55.2325 47.8169 56.1422 47.2119C56.3007 47.1063 56.4306 46.9632 56.5204 46.7953C56.6103 46.6275 56.6573 46.44 56.6572 46.2496L56.6563 41.6252C56.6562 41.3186 56.7779 41.0244 56.9947 40.8075C57.2115 40.5906 57.5056 40.4688 57.8122 40.4687C58.1189 40.4686 58.413 40.5904 58.6299 40.8071C58.8468 41.0239 58.9687 41.318 58.9688 41.6246V47.4062H61.2813L61.2814 34.6874C61.2812 34.5354 61.3109 34.3849 61.3689 34.2444C61.4269 34.1039 61.512 33.9763 61.6194 33.8687C61.7268 33.7612 61.8543 33.6758 61.9947 33.6176C62.1351 33.5594 62.2856 33.5294 62.4376 33.5294C62.5896 33.5294 62.7401 33.5594 62.8805 33.6176C63.0208 33.6758 63.1484 33.7612 63.2558 33.8687C63.3632 33.9763 63.4483 34.1039 63.5063 34.2444C63.5643 34.3849 63.594 34.5354 63.5938 34.6874V46.3806ZM35.8438 4.65217V11.6006C32.5194 11.8228 29.3293 12.9978 26.6551 14.9851C23.9809 16.9724 21.9356 19.688 20.764 22.807C19.5924 25.926 19.3439 29.3165 20.0483 32.5729C20.7528 35.8294 22.3803 38.8141 24.7362 41.1701C27.0921 43.526 30.0768 45.1535 33.3333 45.8579C36.5898 46.5624 39.9803 46.3139 43.0993 45.1423C46.2183 43.9706 48.9338 41.9254 50.9212 39.2512C52.9085 36.5769 54.0835 33.3869 54.3056 30.0625H61.254C61.2319 30.5323 61.195 31.001 61.1463 31.4668C60.5035 31.7253 59.9527 32.1701 59.5647 32.744C59.1767 33.318 58.9692 33.9948 58.9689 34.6876L58.9691 38.3552C58.4458 38.1701 57.8858 38.1132 57.3361 38.1894C56.7863 38.2655 56.2629 38.4725 55.8097 38.7929C55.3565 39.1134 54.9869 39.5379 54.7318 40.0308C54.4767 40.5237 54.3436 41.0706 54.3438 41.6256L54.3446 45.6578C53.6331 46.2088 53.0089 46.8642 52.4931 47.6017C48.1372 51.2119 42.6572 53.1876 36.9997 53.1875C31.3421 53.1874 25.8623 51.2115 21.5065 47.6011C20.9908 46.8638 20.3668 46.2086 19.6554 45.6578L19.6563 41.6255C19.6565 41.0704 19.5236 40.5234 19.2685 40.0304C19.0135 39.5375 18.6438 39.1129 18.1906 38.7925C17.7374 38.472 17.2139 38.2651 16.664 38.189C16.1142 38.1129 15.5542 38.1699 15.031 38.3552L15.0311 34.6877C15.0308 33.9948 14.8233 33.3179 14.4352 32.7439C14.0471 32.1699 13.4962 31.7251 12.8533 31.4667C12.7641 30.6161 12.7192 29.7615 12.7188 28.9062C12.7188 15.9049 22.9895 5.2574 35.8438 4.65217ZM10.4063 34.6874C10.406 34.5354 10.4358 34.3849 10.4938 34.2444C10.5518 34.1039 10.6369 33.9763 10.7443 33.8687C10.8517 33.7612 10.9792 33.6758 11.1196 33.6176C11.26 33.5594 11.4105 33.5295 11.5625 33.5295C11.7145 33.5295 11.8649 33.5594 12.0053 33.6177C12.1457 33.6759 12.2733 33.7612 12.3806 33.8688C12.488 33.9763 12.5732 34.104 12.6311 34.2445C12.6891 34.385 12.7189 34.5355 12.7186 34.6875L12.7188 47.4062H15.0313V41.6248C15.0313 41.4729 15.0612 41.3226 15.1193 41.1823C15.1775 41.042 15.2627 40.9146 15.37 40.8072C15.4774 40.6999 15.6049 40.6147 15.7452 40.5567C15.8855 40.4986 16.0358 40.4687 16.1877 40.4687C16.3395 40.4687 16.4899 40.4987 16.6301 40.5568C16.7704 40.6149 16.8979 40.7001 17.0052 40.8075C17.1126 40.9149 17.1977 41.0424 17.2558 41.1827C17.3139 41.3229 17.3438 41.4733 17.3438 41.6251L17.3428 46.2496C17.3427 46.44 17.3897 46.6275 17.4796 46.7953C17.5694 46.9632 17.6993 47.1063 17.8578 47.2119C18.7675 47.8169 19.5134 48.6375 20.029 49.6008C20.5445 50.564 20.8137 51.6398 20.8125 52.7323V54.3438H23.125V52.7323C23.124 52.3343 23.0967 51.9369 23.043 51.5425C24.881 52.675 26.8498 53.5797 28.9063 54.2366V56.6562H16.5375L15.555 56.0012C13.9698 54.9468 12.67 53.5166 11.7717 51.838C10.8733 50.1593 10.4042 48.2845 10.4063 46.3806V34.6874Z" fill="url(#paint5_linear_422_23448)"/>
<path d="M55.5 21.9688H60.125V24.2812H55.5V21.9688Z" fill="url(#paint6_linear_422_23448)"/>
<path d="M43.9375 4.625V6.9375H41.625V9.25H43.9375V11.5625H46.25V9.25H48.5625V6.9375H46.25V4.625H43.9375Z" fill="url(#paint7_linear_422_23448)"/>
<defs>
<linearGradient id="paint0_linear_422_23448" x1="37" y1="16.1875" x2="37" y2="35.8438" gradientUnits="userSpaceOnUse">
<stop stop-color="#79CBC8"/>
<stop offset="1" stop-color="#109BE6"/>
</linearGradient>
<linearGradient id="paint1_linear_422_23448" x1="34.6875" y1="37" x2="34.6875" y2="39.3125" gradientUnits="userSpaceOnUse">
<stop stop-color="#79CBC8"/>
<stop offset="1" stop-color="#109BE6"/>
</linearGradient>
<linearGradient id="paint2_linear_422_23448" x1="30.0625" y1="37" x2="30.0625" y2="39.3125" gradientUnits="userSpaceOnUse">
<stop stop-color="#79CBC8"/>
<stop offset="1" stop-color="#109BE6"/>
</linearGradient>
<linearGradient id="paint3_linear_422_23448" x1="39.3125" y1="37" x2="39.3125" y2="39.3125" gradientUnits="userSpaceOnUse">
<stop stop-color="#79CBC8"/>
<stop offset="1" stop-color="#109BE6"/>
</linearGradient>
<linearGradient id="paint4_linear_422_23448" x1="43.9375" y1="37" x2="43.9375" y2="39.3125" gradientUnits="userSpaceOnUse">
<stop stop-color="#79CBC8"/>
<stop offset="1" stop-color="#109BE6"/>
</linearGradient>
<linearGradient id="paint5_linear_422_23448" x1="37" y1="2.3125" x2="37" y2="70.5312" gradientUnits="userSpaceOnUse">
<stop stop-color="#79CBC8"/>
<stop offset="1" stop-color="#109BE6"/>
</linearGradient>
<linearGradient id="paint6_linear_422_23448" x1="57.8125" y1="21.9688" x2="57.8125" y2="24.2812" gradientUnits="userSpaceOnUse">
<stop stop-color="#79CBC8"/>
<stop offset="1" stop-color="#109BE6"/>
</linearGradient>
<linearGradient id="paint7_linear_422_23448" x1="45.0938" y1="4.625" x2="45.0938" y2="11.5625" gradientUnits="userSpaceOnUse">
<stop stop-color="#79CBC8"/>
<stop offset="1" stop-color="#109BE6"/>
</linearGradient>
</defs>
</svg>
