<svg width="88" height="88" viewBox="0 0 88 88" fill="none" xmlns="http://www.w3.org/2000/svg">
<path d="M87.5 44C87.5 68.0244 68.0244 87.5 44 87.5C19.9756 87.5 0.5 68.0244 0.5 44C0.5 19.9756 19.9756 0.5 44 0.5C68.0244 0.5 87.5 19.9756 87.5 44Z" stroke="url(#paint0_linear_422_1940)"/>
<path d="M39.132 62.1362L36.2504 71.26C36.1644 71.533 35.9118 71.7188 35.625 71.7188H23.8125C23.6038 71.7188 23.4069 71.619 23.2829 71.4504C23.1589 71.2817 23.1234 71.0645 23.1871 70.865L27.8425 56.123C28.0007 56.4918 28.1451 56.9052 28.2875 57.3141C28.7698 58.7014 29.3165 60.2731 30.6998 61.0737C32.0642 61.8632 33.6871 61.5554 35.1171 61.2857C36.0207 61.1144 36.9546 60.9385 37.5537 61.0987C38.0111 61.2201 38.5696 61.6578 39.132 62.1362ZM59.1575 56.1223C58.9993 56.4911 58.8543 56.9052 58.7119 57.3147C58.2295 58.7014 57.6829 60.2738 56.3002 61.0737C54.9358 61.8632 53.3129 61.5567 51.8829 61.2857C50.978 61.1144 50.0441 60.9398 49.4463 61.098C48.9889 61.2207 48.4304 61.6578 47.868 62.1362L50.7489 71.26C50.8356 71.533 51.0882 71.7188 51.375 71.7188H63.1875C63.3962 71.7188 63.5931 71.619 63.7171 71.4504C63.8411 71.2817 63.8766 71.0645 63.8129 70.865L59.1575 56.1223ZM57.2813 38.9063C57.2813 46.505 51.0987 52.6875 43.5 52.6875C35.9013 52.6875 29.7188 46.505 29.7188 38.9063C29.7188 31.3075 35.9013 25.125 43.5 25.125C51.0987 25.125 57.2813 31.3075 57.2813 38.9063ZM51.9971 36.1828C51.919 35.9498 51.7169 35.7799 51.4741 35.7425L46.3783 34.9635L44.0939 30.0961C43.9856 29.8664 43.7546 29.7188 43.5 29.7188C43.2454 29.7188 43.0144 29.8664 42.9061 30.0961L40.6217 34.9635L35.5259 35.7425C35.2831 35.7799 35.081 35.9492 35.0029 36.1828C34.9248 36.4164 34.9838 36.673 35.1551 36.8496L38.8426 40.6289L37.6102 45.978C37.5531 46.2267 37.6456 46.4859 37.8464 46.6434C38.0472 46.8003 38.3222 46.8265 38.5486 46.7097L43.5 44.172L48.4508 46.7084C48.5446 46.7576 48.6483 46.7813 48.75 46.7813C48.8937 46.7813 49.0361 46.7347 49.1529 46.6428C49.3544 46.4859 49.4463 46.2261 49.3892 45.9773L48.1568 40.6283L51.8442 36.8489C52.0168 36.673 52.0752 36.4158 51.9971 36.1828ZM63.1553 44.1766C62.841 45.3513 63.074 46.5844 63.2997 47.7774C63.4854 48.7585 63.6961 49.8715 63.3949 50.3919C63.0832 50.9301 62.001 51.3074 61.0455 51.6388C59.9102 52.0339 58.7348 52.4421 57.887 53.2899C57.0365 54.1411 56.6283 55.3158 56.2332 56.4518C55.9005 57.4073 55.5245 58.4888 54.987 58.8005C54.9214 58.8379 54.7252 58.9514 54.2153 58.9514C53.6738 58.9514 53.0123 58.8267 52.3725 58.7053C51.6388 58.5662 50.8087 58.4093 50.0107 58.4093C49.5592 58.4093 49.1543 58.4586 48.7749 58.559C47.635 58.8648 46.7071 59.6667 45.8093 60.4431C44.9949 61.1479 44.1543 61.875 43.5 61.875C42.8444 61.875 42.0038 61.1479 41.19 60.4431C40.2923 59.6667 39.3637 58.8641 38.229 58.5616C37.8484 58.4599 37.4408 58.4107 36.9854 58.4107C36.19 58.4107 35.3599 58.5675 34.6275 58.7066C33.9844 58.828 33.3229 58.9527 32.7821 58.9527C32.2742 58.9527 32.0773 58.8385 32.013 58.8018C31.4742 58.4894 31.0969 57.4073 30.7655 56.4518C30.3704 55.3164 29.9622 54.1411 29.1143 53.2932C28.2632 52.4427 27.0885 52.0345 25.9525 51.6395C24.997 51.3068 23.9155 50.9307 23.6038 50.3933C23.3032 49.8728 23.5133 48.7612 23.699 47.7794C23.9254 46.5798 24.157 45.35 23.844 44.1773C23.5402 43.0426 22.7376 42.114 21.9619 41.2169C21.2584 40.4012 20.5312 39.5605 20.5312 38.9063C20.5312 38.2507 21.2584 37.41 21.9632 36.5963C22.7395 35.6985 23.5421 34.7699 23.8447 33.6353C24.159 32.4606 23.926 31.2275 23.7003 30.0344C23.5146 29.0533 23.3039 27.9403 23.6051 27.4199C23.9168 26.8818 24.999 26.5044 25.9545 26.173C27.0898 25.778 28.2652 25.3698 29.113 24.5219C29.9635 23.6708 30.3717 22.4961 30.7668 21.3601C31.0995 20.4046 31.4755 19.3231 32.013 19.0114C32.0786 18.974 32.2755 18.8598 32.7854 18.8598C33.3281 18.8598 33.9883 18.9851 34.6268 19.1065C35.3592 19.245 36.1874 19.4018 36.9893 19.4018C37.4395 19.4018 37.8412 19.3539 38.2192 19.2542C39.365 18.9471 40.2929 18.1451 41.19 17.3688C42.0051 16.6646 42.8457 15.9375 43.5 15.9375C44.1556 15.9375 44.9963 16.6646 45.81 17.3694C46.7078 18.1458 47.6363 18.9484 48.771 19.2509C49.151 19.352 49.5572 19.4018 50.0126 19.4018C50.8047 19.4018 51.6368 19.245 52.3705 19.1065C53.013 18.9845 53.6758 18.8598 54.2166 18.8598C54.7245 18.8598 54.922 18.974 54.9863 19.0107C55.5251 19.3231 55.9025 20.4053 56.2339 21.3608C56.6289 22.4961 57.0371 23.6714 57.885 24.5193C58.7362 25.3698 59.9108 25.778 61.0468 26.173C62.0023 26.5058 63.0838 26.8818 63.3955 27.4193C63.6961 27.9397 63.4861 29.0513 63.3004 30.0331C63.074 31.2327 62.8423 32.4625 63.1553 33.6353C63.4592 34.7699 64.2618 35.6985 65.0375 36.5956C65.7416 37.4113 66.4688 38.252 66.4688 38.9063C66.4688 39.5618 65.7416 40.4025 65.0368 41.2163C64.2611 42.114 63.4579 43.0426 63.1553 44.1766ZM59.9063 38.9063C59.9063 29.8598 52.5464 22.5 43.5 22.5C34.4536 22.5 27.0938 29.8598 27.0938 38.9063C27.0938 47.9527 34.4536 55.3125 43.5 55.3125C52.5464 55.3125 59.9063 47.9527 59.9063 38.9063Z" fill="url(#paint1_linear_422_1940)"/>
<defs>
<linearGradient id="paint0_linear_422_1940" x1="44" y1="0" x2="44" y2="88" gradientUnits="userSpaceOnUse">
<stop stop-color="#25A6E0"/>
<stop offset="1" stop-color="#43B2E3" stop-opacity="0"/>
</linearGradient>
<linearGradient id="paint1_linear_422_1940" x1="43.5" y1="15.9375" x2="43.5" y2="71.7188" gradientUnits="userSpaceOnUse">
<stop stop-color="#80D0C8"/>
<stop offset="1" stop-color="#0596E8"/>
</linearGradient>
</defs>
</svg>
