<svg width="70" height="70" viewBox="0 0 70 70" fill="none" xmlns="http://www.w3.org/2000/svg">
<path fill-rule="evenodd" clip-rule="evenodd" d="M70 35C70 54.33 54.33 70 35 70C15.67 70 0 54.33 0 35C0 15.67 15.67 0 35 0C54.33 0 70 15.67 70 35ZM43.4087 21.9964C48.2773 23.6683 51.8387 26.1717 51.14 30.8306C50.6325 34.2422 48.7343 35.8922 46.2121 36.4699C49.6724 38.2644 50.8517 41.6699 49.7559 45.7878C47.6753 51.7138 42.7298 52.2127 36.1519 50.9741L34.5546 57.3443L30.6988 56.3859L32.2741 50.101C31.2744 49.8537 30.2528 49.5889 29.2004 49.3066L27.6186 55.6221L23.7672 54.6636L25.3622 48.2803L17.5957 46.3283L19.5115 41.9298C19.5115 41.9298 22.3545 42.6804 22.3149 42.6257C23.4069 42.8949 23.8924 42.1858 24.0835 41.7153L28.4117 24.4254C28.46 23.6092 28.1766 22.5807 26.6145 22.1911C26.6738 22.1496 23.8133 21.4974 23.8133 21.4974L24.8393 17.3943L32.6168 19.3135L34.1987 13.0024L38.0523 13.9609L36.5034 20.1472C37.5404 20.3814 38.5818 20.6199 39.5946 20.8716L41.1325 14.7246L44.9883 15.6831L43.4087 21.9964ZM34.1816 32.5242C36.8082 33.2206 42.5235 34.7358 43.5197 30.7629C44.536 26.6981 38.9833 25.4704 36.2646 24.8693C35.9565 24.8012 35.6848 24.7412 35.4632 24.6859L33.543 32.3582C33.7256 32.4033 33.9402 32.4602 34.1807 32.524L34.1814 32.5241L34.1816 32.5242ZM31.2076 44.8768C34.3535 45.7055 41.2338 47.5177 42.3286 43.14C43.4491 38.6638 36.7783 37.1729 33.5234 36.4454L33.523 36.4453C33.1595 36.3641 32.8386 36.2923 32.576 36.2271L30.458 44.6827C30.6732 44.736 30.9254 44.8025 31.2076 44.8768Z" fill="#F7931A"/>
</svg>
