<svg width="68" height="68" viewBox="0 0 68 68" fill="none" xmlns="http://www.w3.org/2000/svg">
<g clip-path="url(#clip0_422_15522)">
<path d="M5.97762 68.0001C4.39296 67.9984 2.87367 67.3683 1.75304 66.2478C0.632418 65.1274 0.00196868 63.6082 0 62.0236L0 25.5001C0.00229622 24.0712 0.515649 22.6903 1.44728 21.6068C2.37892 20.5234 3.66738 19.809 5.07981 19.5926C5.68602 19.5237 6.29662 19.5013 6.90625 19.5257C7.0147 19.5256 7.12169 19.5007 7.21909 19.4531C7.31649 19.4054 7.40173 19.3361 7.46831 19.2505L22.0012 0.56218C22.2362 0.260762 22.5801 0.0635436 22.9589 0.0128846C23.3378 -0.0377745 23.7214 0.062167 24.0274 0.291243L31.5371 5.92249C31.6504 6.00751 31.7864 6.05677 31.9278 6.06396C32.0692 6.07115 32.2095 6.03595 32.3308 5.96287L41.9273 0.212618C42.248 0.0194159 42.6306 -0.0431111 42.9961 0.0379758C43.3616 0.119063 43.6819 0.337557 43.8908 0.648243L56.3763 19.378C56.4782 19.5306 56.6349 19.6383 56.814 19.6787C58.1359 19.9794 59.3172 20.7181 60.1663 21.7749C61.0154 22.8317 61.4822 24.1445 61.4911 25.5001V34.0001C61.4911 34.1889 61.5661 34.37 61.6996 34.5035C61.8331 34.637 62.0142 34.712 62.203 34.712H66.5423C66.9288 34.7123 67.2994 34.866 67.5727 35.1393C67.846 35.4126 67.9997 35.7832 68 36.1697V49.1864C67.9994 49.5729 67.8457 49.9433 67.5724 50.2166C67.2992 50.4899 66.9287 50.6436 66.5423 50.6442H51.3559C49.2788 50.5905 47.3048 49.7277 45.8546 48.2396C44.4045 46.7515 43.5929 44.7559 43.5929 42.6781C43.5929 40.6003 44.4045 38.6046 45.8546 37.1165C47.3048 35.6285 49.2788 34.7656 51.3559 34.712H57.8648C58.0536 34.712 58.2347 34.637 58.3682 34.5035C58.5017 34.37 58.5767 34.1889 58.5767 34.0001V25.5001C58.5756 24.6882 58.2524 23.9098 57.6782 23.3357C57.1039 22.7617 56.3255 22.4388 55.5135 22.438H5.97762C5.16576 22.4388 4.38738 22.7617 3.81331 23.3358C3.23923 23.9099 2.91634 24.6882 2.9155 25.5001V62.0236C2.91662 62.8352 3.23964 63.6133 3.81368 64.1872C4.38773 64.761 5.16594 65.0838 5.97762 65.0846H55.5135C56.3254 65.0841 57.1039 64.7614 57.6781 64.1876C58.2524 63.6137 58.5756 62.8354 58.5767 62.0236V55.6953C58.5714 55.5006 58.6052 55.3069 58.6761 55.1255C58.747 54.9441 58.8535 54.7787 58.9893 54.6392C59.1251 54.4996 59.2876 54.3887 59.467 54.313C59.6464 54.2372 59.8392 54.1982 60.0339 54.1982C60.2287 54.1982 60.4214 54.2372 60.6008 54.313C60.7803 54.3887 60.9427 54.4996 61.0785 54.6392C61.2143 54.7787 61.3208 54.9441 61.3917 55.1255C61.4626 55.3069 61.4964 55.5006 61.4911 55.6953V62.0236C61.4894 63.6083 60.8591 65.1276 59.7384 66.2481C58.6177 67.3686 57.0983 67.9987 55.5135 68.0001H5.97762ZM51.3559 37.6264C50.0163 37.6264 48.7315 38.1586 47.7843 39.1059C46.837 40.0531 46.3048 41.3379 46.3048 42.6776C46.3048 44.0172 46.837 45.302 47.7843 46.2492C48.7315 47.1965 50.0163 47.7287 51.3559 47.7287H64.3726C64.5614 47.7287 64.7425 47.6537 64.876 47.5202C65.0095 47.3867 65.0845 47.2056 65.0845 47.0168V38.3394C65.0846 38.2458 65.0663 38.1531 65.0306 38.0666C64.9949 37.9801 64.9425 37.9015 64.8764 37.8353C64.8103 37.7691 64.7317 37.7166 64.6453 37.6807C64.5589 37.6449 64.4662 37.6264 64.3726 37.6264H51.3559ZM41.65 3.76987L35.3462 7.55556C35.2462 7.61578 35.1626 7.69963 35.1026 7.79973C35.0426 7.89983 35.0081 8.01313 35.0021 8.12968C34.9962 8.24622 35.0189 8.36245 35.0683 8.46817C35.1177 8.57388 35.1924 8.66585 35.2856 8.73599C50.2456 19.8922 49.4594 19.5257 49.9099 19.5257H51.6375C51.7664 19.5256 51.8928 19.4906 52.0033 19.4243C52.1138 19.3581 52.2043 19.263 52.2651 19.1494C52.3258 19.0358 52.3546 18.9077 52.3483 18.779C52.342 18.6503 52.3009 18.5257 52.2293 18.4186L42.6126 3.98556C42.5107 3.83265 42.3538 3.72491 42.1746 3.68474C41.9953 3.64456 41.8074 3.67506 41.65 3.76987ZM26.1301 11.0926C39.3571 19.8582 38.5868 19.5257 38.9959 19.5257H42.6785C42.8277 19.5249 42.9729 19.4773 43.0936 19.3896C43.2143 19.302 43.3044 19.1786 43.3514 19.037C43.3983 18.8954 43.3996 18.7427 43.3552 18.6003C43.3107 18.4579 43.2227 18.333 43.1035 18.2432L23.9785 3.89949C23.8293 3.78739 23.642 3.73838 23.457 3.76302C23.2719 3.78767 23.104 3.88399 22.9893 4.03124L11.8331 18.375C11.7515 18.4803 11.701 18.6064 11.6874 18.7389C11.6738 18.8714 11.6976 19.0051 11.7561 19.1248C11.8146 19.2445 11.9055 19.3454 12.0185 19.4161C12.1314 19.4867 12.2619 19.5243 12.3951 19.5246H17.7225C17.833 19.5244 17.9419 19.4985 18.0407 19.4491C18.1395 19.3997 18.2255 19.3281 18.292 19.2399L24.1485 11.4305C24.3715 11.1295 24.7021 10.9263 25.0714 10.8634C25.4406 10.8004 25.8199 10.8826 26.1301 11.0926ZM25.2567 14.8199L22.5824 18.3814C22.5032 18.4872 22.4549 18.613 22.4431 18.7447C22.4313 18.8764 22.4563 19.0088 22.5154 19.1271C22.5745 19.2454 22.6653 19.3449 22.7777 19.4145C22.8901 19.4842 23.0197 19.5212 23.1519 19.5214H31.1737C31.3264 19.5209 31.4748 19.4715 31.5972 19.3804C31.7196 19.2892 31.8095 19.1612 31.8538 19.0152C31.898 18.8691 31.8942 18.7127 31.843 18.569C31.7917 18.4253 31.6957 18.3018 31.569 18.2167L26.2214 14.6509C26.0695 14.5505 25.8849 14.5121 25.7055 14.5435C25.5261 14.5749 25.3655 14.6738 25.2567 14.8199Z" fill="url(#paint0_linear_422_15522)"/>
<path d="M53.5256 44.455C54.5073 44.455 55.3032 43.6592 55.3032 42.6775C55.3032 41.6957 54.5073 40.8999 53.5256 40.8999C52.5439 40.8999 51.748 41.6957 51.748 42.6775C51.748 43.6592 52.5439 44.455 53.5256 44.455Z" fill="url(#paint1_linear_422_15522)"/>
<path d="M27.4906 59.3215C27.1039 59.3218 26.7329 59.1685 26.4592 58.8953C26.1854 58.6222 26.0313 58.2515 26.0308 57.8648V55.6952C26.0308 55.5064 25.9558 55.3253 25.8223 55.1918C25.6888 55.0583 25.5077 54.9833 25.3189 54.9833H23.1525C22.9636 54.9833 22.7824 55.0583 22.6487 55.1917C22.515 55.3252 22.4398 55.5063 22.4395 55.6952V57.8648C22.4293 58.2445 22.2712 58.6051 21.9991 58.87C21.7269 59.135 21.3621 59.2832 20.9823 59.2832C20.6025 59.2832 20.2377 59.135 19.9655 58.87C19.6934 58.6051 19.5353 58.2445 19.5251 57.8648V55.6952C19.5251 55.5064 19.4501 55.3253 19.3166 55.1918C19.1831 55.0583 19.002 54.9833 18.8132 54.9833H16.6436C16.257 54.9833 15.8862 54.8297 15.6128 54.5563C15.3394 54.2829 15.1858 53.9122 15.1858 53.5255C15.1858 53.1389 15.3394 52.7681 15.6128 52.4948C15.8862 52.2214 16.257 52.0678 16.6436 52.0678H18.8132C18.9067 52.0678 18.9993 52.0494 19.0856 52.0136C19.172 51.9778 19.2505 51.9254 19.3166 51.8593C19.3827 51.7932 19.4351 51.7147 19.4709 51.6283C19.5067 51.542 19.5251 51.4494 19.5251 51.3559V38.3392C19.5252 38.2457 19.5069 38.153 19.4712 38.0665C19.4355 37.98 19.3831 37.9014 19.317 37.8352C19.2508 37.769 19.1723 37.7164 19.0859 37.6806C18.9994 37.6447 18.9068 37.6263 18.8132 37.6263H16.6436C16.4489 37.6315 16.2552 37.5977 16.0738 37.5269C15.8924 37.456 15.727 37.3495 15.5875 37.2137C15.4479 37.0778 15.337 36.9154 15.2612 36.736C15.1855 36.5566 15.1465 36.3638 15.1465 36.1691C15.1465 35.9743 15.1855 35.7816 15.2612 35.6021C15.337 35.4227 15.4479 35.2603 15.5875 35.1245C15.727 34.9886 15.8924 34.8821 16.0738 34.8113C16.2552 34.7404 16.4489 34.7066 16.6436 34.7119H18.8132C19.002 34.7119 19.1831 34.6369 19.3166 34.5034C19.4501 34.3698 19.5251 34.1888 19.5251 34V31.8304C19.5198 31.6357 19.5536 31.4419 19.6245 31.2605C19.6954 31.0791 19.8019 30.9138 19.9377 30.7742C20.0735 30.6347 20.236 30.5238 20.4154 30.448C20.5948 30.3723 20.7876 30.3333 20.9823 30.3333C21.1771 30.3333 21.3698 30.3723 21.5492 30.448C21.7287 30.5238 21.8911 30.6347 22.0269 30.7742C22.1627 30.9138 22.2692 31.0791 22.3401 31.2605C22.411 31.4419 22.4448 31.6357 22.4395 31.8304V34C22.4398 34.1889 22.515 34.3699 22.6487 34.5034C22.7824 34.6369 22.9636 34.7119 23.1525 34.7119H25.3221C25.5103 34.711 25.6906 34.6356 25.8234 34.5022C25.9562 34.3688 26.0308 34.1882 26.0308 34V31.8304C26.0255 31.6357 26.0593 31.4419 26.1302 31.2605C26.2011 31.0791 26.3076 30.9138 26.4434 30.7742C26.5792 30.6347 26.7416 30.5238 26.9211 30.448C27.1005 30.3723 27.2932 30.3333 27.488 30.3333C27.6827 30.3333 27.8755 30.3723 28.0549 30.448C28.2343 30.5238 28.3968 30.6347 28.5326 30.7742C28.6684 30.9138 28.7749 31.0791 28.8458 31.2605C28.9167 31.4419 28.9505 31.6357 28.9452 31.8304V34.3995C28.9452 34.5464 28.9907 34.6896 29.0753 34.8097C29.16 34.9297 29.2797 35.0206 29.418 35.0699C30.2157 35.3466 30.9424 35.7959 31.5464 36.3857C32.1504 36.9756 32.6168 37.6915 32.9123 38.4823C33.2079 39.2731 33.3252 40.1194 33.256 40.9609C33.1868 41.8023 32.9328 42.618 32.512 43.35C32.4207 43.5093 32.3945 43.6977 32.4388 43.8759C32.4832 44.0541 32.5947 44.2083 32.75 44.3062C33.8081 44.9774 34.62 45.9737 35.0639 47.1455C35.5077 48.3172 35.5595 49.6014 35.2116 50.8051C34.8637 52.0089 34.1347 53.0673 33.1342 53.8216C32.1336 54.5759 30.9154 54.9854 29.6624 54.9886C29.4736 54.9886 29.2925 55.0636 29.159 55.1971C29.0255 55.3306 28.9505 55.5117 28.9505 55.7005V57.8701C28.9486 58.2559 28.7938 58.6252 28.5202 58.8972C28.2467 59.1692 27.8764 59.3218 27.4906 59.3215ZM23.1525 46.3048C22.9636 46.3048 22.7824 46.3798 22.6487 46.5132C22.515 46.6467 22.4398 46.8278 22.4395 47.0167V51.3559C22.4398 51.5448 22.515 51.7259 22.6487 51.8594C22.7824 51.9928 22.9636 52.0678 23.1525 52.0678H29.6603C33.4746 52.0678 33.4704 46.3048 29.6603 46.3048H23.1525ZM23.1525 37.6263C22.9634 37.6263 22.782 37.7014 22.6483 37.8351C22.5146 37.9688 22.4395 38.1501 22.4395 38.3392V42.6774C22.4398 42.8664 22.515 43.0476 22.6486 43.1812C22.7823 43.3149 22.9635 43.3901 23.1525 43.3904H27.4906C31.305 43.3904 31.3008 37.6263 27.4906 37.6263H23.1525Z" fill="url(#paint2_linear_422_15522)"/>
</g>
<defs>
<linearGradient id="paint0_linear_422_15522" x1="34" y1="0" x2="34" y2="68.0001" gradientUnits="userSpaceOnUse">
<stop stop-color="#77CCCB"/>
<stop offset="1" stop-color="#139DE5"/>
</linearGradient>
<linearGradient id="paint1_linear_422_15522" x1="53.5256" y1="40.8999" x2="53.5256" y2="44.455" gradientUnits="userSpaceOnUse">
<stop stop-color="#77CCCB"/>
<stop offset="1" stop-color="#139DE5"/>
</linearGradient>
<linearGradient id="paint2_linear_422_15522" x1="25.2929" y1="30.3333" x2="25.2929" y2="59.3215" gradientUnits="userSpaceOnUse">
<stop stop-color="#77CCCB"/>
<stop offset="1" stop-color="#139DE5"/>
</linearGradient>
<clipPath id="clip0_422_15522">
<rect width="68" height="68" fill="white"/>
</clipPath>
</defs>
</svg>
