<svg width="25" height="24" viewBox="0 0 25 24" fill="none" xmlns="http://www.w3.org/2000/svg">
<path fill-rule="evenodd" clip-rule="evenodd" d="M2.27181 0.0620515C1.57076 0.184079 0.845737 0.694782 0.459832 1.33817C0.0219183 2.06831 -0.0345662 2.6745 0.0147776 6.10598C0.0511194 8.62966 0.0651874 8.78472 0.301569 9.2658C0.619799 9.91334 1.28354 10.4803 1.95826 10.6807C2.63053 10.8803 9.94589 10.9143 10.3728 10.7198C10.5156 10.6547 10.6857 10.4846 10.7508 10.3418C10.9453 9.91484 10.9113 2.59948 10.7117 1.92721C10.5114 1.2528 9.94472 0.588954 9.29686 0.269977C8.80555 0.0279474 8.70356 0.0202745 5.75358 0.00268979C4.08303 -0.00722161 2.51629 0.0195284 2.27181 0.0620515ZM15.415 0.0745204C14.4618 0.243227 13.657 0.979868 13.3647 1.95129C13.171 2.59447 13.1426 9.92592 13.3321 10.3418C13.3972 10.4846 13.5673 10.6547 13.7101 10.7198C14.137 10.9143 21.4524 10.8803 22.1247 10.6807C22.7991 10.4803 23.4629 9.91366 23.7819 9.2658C24.0271 8.76799 24.0311 8.70628 24.0311 5.4028C24.0311 2.32888 24.0142 2.01428 23.832 1.67271C23.4671 0.989034 23.1558 0.657588 22.5785 0.337759L22.0061 0.0208072L18.9688 0.00194337C17.2982 -0.0085009 15.699 0.0242174 15.415 0.0745204ZM8.74352 1.78248C9.23749 2.04678 9.27053 2.30352 9.27053 5.87706V9.23948H5.90812C2.33458 9.23948 2.07784 9.20644 1.81354 8.71246C1.74533 8.58521 1.70377 7.31837 1.70377 5.37105V2.23467L1.9847 1.95364L2.26573 1.67271H5.4021C7.34943 1.67271 8.61627 1.71427 8.74352 1.78248ZM22.0982 1.95364L22.3792 2.23467V5.37105C22.3792 7.31837 22.3376 8.58521 22.2694 8.71246C22.0051 9.20644 21.7483 9.23948 18.1748 9.23948H14.8124V5.87706C14.8124 2.3308 14.8455 2.06341 15.3186 1.78781C15.4335 1.72088 16.7164 1.67793 18.6612 1.6759L21.8172 1.67271L22.0982 1.95364ZM1.91361 13.3464C1.27939 13.5419 0.610847 14.1259 0.301036 14.755C0.0558084 15.2528 0.0518654 15.3145 0.0518654 18.618C0.0518654 21.6919 0.0687037 22.0065 0.250946 22.3481C0.615856 23.0318 0.927159 23.3632 1.50447 23.683L2.07678 24H5.43386C8.73734 24 8.79905 23.9961 9.29686 23.7508C9.94472 23.4319 10.5114 22.768 10.7117 22.0936C10.9113 21.4213 10.9453 14.106 10.7508 13.679C10.6857 13.5362 10.5156 13.3661 10.3728 13.301C9.96231 13.114 2.53835 13.1538 1.91361 13.3464ZM13.6789 13.3074C13.2399 13.5199 13.2138 13.7693 13.2138 17.7511C13.2138 22.0162 13.2505 22.2989 13.9044 23.0628C14.111 23.3042 14.5078 23.6138 14.7861 23.7508C15.2839 23.9961 15.3456 24 18.6491 24H22.0061L22.5785 23.683C23.1558 23.3632 23.4671 23.0318 23.832 22.3481C24.0142 22.0065 24.0311 21.6919 24.0311 18.618C24.0311 15.3145 24.0271 15.2528 23.7819 14.755C23.6448 14.4767 23.3352 14.08 23.0938 13.8733C22.327 13.2169 22.0525 13.1819 17.7504 13.19C15.336 13.1944 13.8219 13.2381 13.6789 13.3074ZM9.27053 18.1437C9.27053 21.7173 9.23749 21.974 8.74352 22.2383C8.61627 22.3065 7.34943 22.3481 5.4021 22.3481H2.26573L1.9847 22.0672L1.70377 21.7861V18.6498C1.70377 16.7113 1.74554 15.4354 1.813 15.3092C2.0755 14.8187 2.29856 14.7901 5.8868 14.7856L9.27053 14.7813V18.1437ZM21.8484 14.9423C22.0196 15.0308 22.2091 15.1955 22.2694 15.3083C22.3376 15.4356 22.3792 16.7024 22.3792 18.6498V21.7861L22.0982 22.0672L21.8172 22.3481H18.6808C16.7335 22.3481 15.4667 22.3065 15.3394 22.2383C14.8454 21.974 14.8124 21.7173 14.8124 18.1437V14.7813H18.1748C20.9653 14.7813 21.5901 14.8087 21.8484 14.9423Z" fill="url(#paint0_linear_422_37489)"/>
<defs>
<linearGradient id="paint0_linear_422_37489" x1="12.0155" y1="0" x2="12.0155" y2="24" gradientUnits="userSpaceOnUse">
<stop stop-color="#80D0C8"/>
<stop offset="1" stop-color="#0596E8"/>
</linearGradient>
</defs>
</svg>
