<svg width="14" height="14" viewBox="0 0 14 14" fill="none" xmlns="http://www.w3.org/2000/svg">
<g clip-path="url(#clip0_422_10732)">
<path d="M7 14C10.866 14 14 10.866 14 7C14 3.13401 10.866 0 7 0C3.13401 0 0 3.13401 0 7C0 10.866 3.13401 14 7 14Z" fill="#32BA7C"/>
<path d="M5.21094 10.1577L8.81031 13.7571C11.7914 12.9621 13.9996 10.246 13.9996 6.99997C13.9996 6.93373 13.9996 6.86748 13.9996 6.80123L11.1731 4.19556L5.21094 10.1577Z" fill="#0AA06E"/>
<path d="M7.17648 8.56784C7.48563 8.87698 7.48563 9.40695 7.17648 9.7161L6.53611 10.3565C6.22696 10.6656 5.69699 10.6656 5.38784 10.3565L2.58342 7.52998C2.27428 7.22083 2.27428 6.69086 2.58342 6.38172L3.2238 5.74134C3.53295 5.43219 4.06292 5.43219 4.37207 5.74134L7.17648 8.56784Z" fill="white"/>
<path d="M9.62799 3.6877C9.93714 3.37855 10.4671 3.37855 10.7763 3.6877L11.4166 4.32808C11.7258 4.63723 11.7258 5.1672 11.4166 5.47635L6.55859 10.3123C6.24944 10.6215 5.71947 10.6215 5.41033 10.3123L4.76995 9.67193C4.4608 9.36278 4.4608 8.83281 4.76995 8.52366L9.62799 3.6877Z" fill="white"/>
</g>
<defs>
<clipPath id="clip0_422_10732">
<rect width="14" height="14" fill="white"/>
</clipPath>
</defs>
</svg>
