<svg width="67" height="61" viewBox="0 0 67 61" fill="none" xmlns="http://www.w3.org/2000/svg">
<path d="M47.2468 40.3041H55.2227C61.7167 40.3041 67 35.0208 67 28.5267C67 22.6237 62.6341 17.721 56.962 16.8775C56.0975 7.9432 48.5461 0.935547 39.3887 0.935547C33.5707 0.935547 28.2241 3.75818 24.9427 8.43484C18.3724 4.33737 9.79299 9.10431 9.88054 16.902C4.28538 17.8118 0 22.6782 0 28.5267C0 35.0208 5.28332 40.3041 11.7773 40.3041H19.7532V45.3797L16.3252 48.8077C15.5791 48.4656 14.7506 48.2734 13.8776 48.2734C10.6271 48.2734 7.98242 50.9179 7.98242 54.1686C7.98242 57.4193 10.627 60.0638 13.8776 60.0638C17.1283 60.0638 19.7729 57.4193 19.7729 54.1686C19.7729 53.2224 19.5475 52.3283 19.1496 51.5351L23.104 47.5806C23.4721 47.2125 23.679 46.7133 23.679 46.1927V40.3041H31.5371V48.6108C29.2488 49.4213 27.6048 51.6061 27.6048 54.1686C27.6048 57.4193 30.2493 60.0638 33.5 60.0638C36.7507 60.0638 39.3952 57.4193 39.3952 54.1686C39.3952 51.606 37.7512 49.4213 35.4629 48.6108V40.3041H43.321V46.1927C43.321 46.7134 43.5279 47.2127 43.896 47.5806L47.8504 51.5351C47.4526 52.3283 47.2271 53.2224 47.2271 54.1686C47.2271 57.4193 49.8717 60.0638 53.1224 60.0638C56.3729 60.0638 59.0176 57.4193 59.0176 54.1686C59.0176 50.9179 56.373 48.2734 53.1224 48.2734C52.2493 48.2734 51.4208 48.4656 50.6748 48.8077L47.2468 45.3797V40.3041ZM13.8776 56.1381C12.7918 56.1381 11.9082 55.2546 11.9082 54.1686C11.9082 53.0826 12.7916 52.1992 13.8776 52.1992C14.9636 52.1992 15.8471 53.0826 15.8471 54.1686C15.8471 55.2546 14.9636 56.1381 13.8776 56.1381ZM33.5 56.1381C32.4141 56.1381 31.5306 55.2546 31.5306 54.1686C31.5306 53.0826 32.414 52.1992 33.5 52.1992C34.586 52.1992 35.4694 53.0826 35.4694 54.1686C35.4694 55.2546 34.5859 56.1381 33.5 56.1381ZM3.92578 28.5267C3.92578 24.1974 7.44799 20.6752 11.7773 20.6752H12.0817C13.3583 20.6752 14.2972 19.4727 13.9852 18.2332C13.0395 14.4748 15.896 10.8607 19.7271 10.8607C21.3695 10.8607 22.8973 11.5196 24.0285 12.7159C24.954 13.6946 26.5736 13.4708 27.1965 12.272C29.5713 7.70098 34.243 4.86133 39.3887 4.86133C46.9594 4.86133 53.1188 11.0206 53.1188 18.5915L53.1174 18.6997C53.1105 19.7883 53.9917 20.6752 55.0803 20.6752H55.2227C59.552 20.6752 63.0742 24.1974 63.0742 28.5267C63.0742 32.8561 59.552 36.3783 55.2227 36.3783H11.7773C7.44799 36.3783 3.92578 32.8561 3.92578 28.5267ZM55.0918 54.1686C55.0918 55.2546 54.2084 56.1381 53.1224 56.1381C52.0364 56.1381 51.1529 55.2546 51.1529 54.1686C51.1529 53.0826 52.0364 52.1992 53.1224 52.1992C54.2084 52.1992 55.0918 53.0826 55.0918 54.1686Z" fill="url(#paint0_linear_422_25034)"/>
<defs>
<linearGradient id="paint0_linear_422_25034" x1="33.5" y1="0.935547" x2="33.5" y2="60.0638" gradientUnits="userSpaceOnUse">
<stop stop-color="#77CAC9"/>
<stop offset="1" stop-color="#0D9AE7"/>
</linearGradient>
</defs>
</svg>
