<svg width="30" height="30" viewBox="0 0 30 30" fill="none" xmlns="http://www.w3.org/2000/svg">
<path d="M3.57422 18.5156H1.81641V11.4844H3.57422C4.545 11.4844 5.33203 12.2714 5.33203 13.2422V16.7578C5.33203 17.7286 4.545 18.5156 3.57422 18.5156Z" stroke="white" stroke-width="1.75781" stroke-miterlimit="10"/>
<path d="M12.3633 11.4844H8.84766V18.5156H12.3633" stroke="white" stroke-width="1.75781" stroke-miterlimit="10" stroke-linecap="square"/>
<path d="M10.6055 15H8.84766" stroke="white" stroke-width="1.75781" stroke-miterlimit="10" stroke-linecap="square"/>
<path d="M15.8789 18.5156V11.4844H16.7578L18.5156 15L20.2734 11.4844H21.1523V18.5156" stroke="white" stroke-width="1.75781" stroke-miterlimit="10" stroke-linecap="square"/>
<path d="M26.4258 18.5156C25.455 18.5156 24.668 17.7286 24.668 16.7578V13.2422C24.668 12.2714 25.455 11.4844 26.4258 11.4844C27.3966 11.4844 28.1836 12.2714 28.1836 13.2422V16.7578C28.1836 17.7286 27.3966 18.5156 26.4258 18.5156Z" stroke="white" stroke-width="1.75781" stroke-miterlimit="10"/>
<path d="M26.7981 22.1943C26.4947 22.7924 26.0213 23.3017 25.4206 23.6486L16.7577 28.6501C15.67 29.2781 14.3298 29.2781 13.2421 28.6501L4.5792 23.6486C3.97844 23.3017 3.50506 22.7924 3.20166 22.1943" stroke="white" stroke-width="1.75781" stroke-miterlimit="10"/>
<path d="M3.20166 7.80571C3.50506 7.20758 3.97844 6.69829 4.5792 6.35141L13.2421 1.34991C14.3298 0.721902 15.6699 0.721902 16.7577 1.34991L25.4206 6.35141C26.0213 6.69829 26.4947 7.20758 26.7981 7.80571" stroke="white" stroke-width="1.75781" stroke-miterlimit="10"/>
<path d="M20.2734 7.43973L15 4.39397L9.72656 7.43897" stroke="white" stroke-width="1.75781" stroke-miterlimit="10"/>
</svg>
