<svg width="70" height="70" viewBox="0 0 70 70" fill="none" xmlns="http://www.w3.org/2000/svg">
<g clip-path="url(#clip0_422_13911)">
<path d="M23.4934 44.2597C24.8782 43.1577 25.1019 41.1273 23.9988 39.7478C22.8917 38.3646 20.8591 38.141 19.4783 39.243L14.3833 43.3158C12.9985 44.4177 12.7749 46.4522 13.8779 47.8315C14.981 49.2109 17.0175 49.4383 18.3984 48.3325" stroke="url(#paint0_linear_422_13911)" stroke-width="2.7453" stroke-miterlimit="10" stroke-linecap="round" stroke-linejoin="round"/>
<path d="M22.4184 53.3492C21.0337 54.455 20.81 56.4857 21.9131 57.865C23.0162 59.2483 25.0526 59.4717 26.4336 58.3697L31.5286 54.297C32.9133 53.195 33.137 51.1607 32.0339 49.7812C30.9269 48.4019 28.8944 48.1745 27.5134 49.2803" stroke="url(#paint1_linear_422_13911)" stroke-width="2.7453" stroke-miterlimit="10" stroke-linecap="round" stroke-linejoin="round"/>
<path d="M26.434 58.3697C25.0532 59.4717 24.8257 61.5062 25.9325 62.8855C27.0357 64.2649 29.0683 64.4922 30.4529 63.3864L33.3033 61.1054C34.6841 60.0035 34.9117 57.9728 33.8085 56.5935C32.7017 55.2102 30.669 54.9868 29.2882 56.0887" stroke="url(#paint2_linear_422_13911)" stroke-width="2.7453" stroke-miterlimit="10" stroke-linecap="round" stroke-linejoin="round"/>
<path d="M47.6284 45.4233L51.2694 48.3324C52.6501 49.4383 52.8777 51.4689 51.7746 52.8483C50.6676 54.2276 48.6349 54.455 47.2542 53.3491L43.3047 50.1974" stroke="url(#paint3_linear_422_13911)" stroke-width="2.7453" stroke-miterlimit="10" stroke-linecap="round" stroke-linejoin="round"/>
<path d="M43.3043 50.1974L47.2538 53.3491C48.6346 54.455 48.8622 56.4856 47.7552 57.8651C46.6521 59.2482 44.6157 59.4716 43.2348 58.3698L39.2891 55.2141" stroke="url(#paint4_linear_422_13911)" stroke-width="2.7453" stroke-miterlimit="10" stroke-linecap="round" stroke-linejoin="round"/>
<path d="M39.2888 55.2141L41.2598 56.7899C42.6406 57.8957 42.8682 59.9264 41.765 61.3059C40.6581 62.6891 38.6255 62.9126 37.2447 61.8105L34.375 59.5179" stroke="url(#paint5_linear_422_13911)" stroke-width="2.7453" stroke-miterlimit="10" stroke-linecap="round" stroke-linejoin="round"/>
<path d="M65.6828 32.7467L68.0471 36.9235C68.5948 37.8945 68.2515 39.1467 67.2758 39.6862L63.6309 41.7052C62.655 42.2447 61.413 41.9056 60.8655 40.9384L50.3589 22.3551C49.8074 21.384 50.1507 20.1356 51.1264 19.5963L54.7752 17.5772C55.751 17.0379 56.989 17.3731 57.5369 18.344L59.6697 22.1124" stroke="url(#paint6_linear_422_13911)" stroke-width="2.7453" stroke-miterlimit="10" stroke-linecap="round" stroke-linejoin="round"/>
<path d="M55.0293 43.1077C55.8894 41.2506 57.764 39.875 59.9162 39.2585" stroke="url(#paint7_linear_422_13911)" stroke-width="2.7453" stroke-miterlimit="10" stroke-linecap="round" stroke-linejoin="round"/>
<path d="M51.2689 48.3325C52.6496 49.4383 54.6861 49.2109 55.7894 47.8315C56.8961 46.4523 56.6688 44.4177 55.2878 43.3158L50.8716 39.7863C48.727 38.0756 46.3049 36.1799 44.0062 34.5307C39.8482 31.5523 37.8003 29.5719 32.5894 30.6199C28.6513 31.4137 25.4654 30.2114 24.6362 26.8015C24.1039 24.6091 25.9707 23.588 29.6697 23.2605L35.5709 22.7326C36.7357 22.6286 37.4299 22.5208 39.3159 23.1797L42.876 24.4242C45.2828 25.2641 44.9588 25.4875 47.4619 24.7632L51.1186 23.7037" stroke="url(#paint8_linear_422_13911)" stroke-width="2.7453" stroke-miterlimit="10" stroke-linecap="round" stroke-linejoin="round"/>
<path d="M18.5413 19.5962L14.8965 17.5771C13.9207 17.0378 12.6787 17.373 12.131 18.344L1.62457 36.9235C1.07295 37.8945 1.41638 39.1467 2.39199 39.6861L6.03697 41.7051C7.01271 42.2446 8.25474 41.9055 8.80241 40.9385L19.309 22.355C19.8604 21.384 19.5172 20.1356 18.5413 19.5962Z" stroke="url(#paint9_linear_422_13911)" stroke-width="2.7453" stroke-miterlimit="10" stroke-linecap="round" stroke-linejoin="round"/>
<path d="M24.6469 25.4491L18.5566 23.6844" stroke="url(#paint10_linear_422_13911)" stroke-width="2.7453" stroke-miterlimit="10" stroke-linecap="round" stroke-linejoin="round"/>
<path d="M14.6426 43.1077C13.7786 41.2506 11.9041 39.875 9.75195 39.2584" stroke="url(#paint11_linear_422_13911)" stroke-width="2.7453" stroke-miterlimit="10" stroke-linecap="round" stroke-linejoin="round"/>
<path d="M34.834 12.5104V5.57881" stroke="url(#paint12_linear_422_13911)" stroke-width="2.7453" stroke-miterlimit="10" stroke-linecap="round" stroke-linejoin="round"/>
<path d="M25.7546 15.381L22.1289 9.62842" stroke="url(#paint13_linear_422_13911)" stroke-width="2.7453" stroke-miterlimit="10" stroke-linecap="round" stroke-linejoin="round"/>
<path d="M43.916 15.381L47.5377 9.62842" stroke="url(#paint14_linear_422_13911)" stroke-width="2.7453" stroke-miterlimit="10" stroke-linecap="round" stroke-linejoin="round"/>
<path d="M18.3988 48.3325L25.7387 42.4681C27.1195 41.3662 29.1561 41.5935 30.2592 42.9728C31.3623 44.3522 31.1386 46.3829 29.754 47.4887L22.4179 53.3492C21.0332 54.455 19.0007 54.2276 17.8974 52.8483C16.7905 51.469 17.0181 49.4383 18.3988 48.3325Z" stroke="url(#paint15_linear_422_13911)" stroke-width="2.7453" stroke-miterlimit="10" stroke-linecap="round" stroke-linejoin="round"/>
<path d="M62.6699 27.4335V27.4295" stroke="url(#paint16_linear_422_13911)" stroke-width="2.7453" stroke-miterlimit="10" stroke-linecap="round" stroke-linejoin="round"/>
</g>
<defs>
<linearGradient id="paint0_linear_422_13911" x1="18.9384" y1="49.0339" x2="18.9384" y2="38.5435" gradientUnits="userSpaceOnUse">
<stop stop-color="#139DE5"/>
<stop offset="1" stop-color="#7ECFC9"/>
</linearGradient>
<linearGradient id="paint1_linear_422_13911" x1="26.9735" y1="59.0692" x2="26.9735" y2="48.5789" gradientUnits="userSpaceOnUse">
<stop stop-color="#139DE5"/>
<stop offset="1" stop-color="#7ECFC9"/>
</linearGradient>
<linearGradient id="paint2_linear_422_13911" x1="29.869" y1="64.0878" x2="29.869" y2="55.3892" gradientUnits="userSpaceOnUse">
<stop stop-color="#139DE5"/>
<stop offset="1" stop-color="#7ECFC9"/>
</linearGradient>
<linearGradient id="paint3_linear_422_13911" x1="47.8892" y1="54.0506" x2="47.8892" y2="45.4233" gradientUnits="userSpaceOnUse">
<stop stop-color="#139DE5"/>
<stop offset="1" stop-color="#7ECFC9"/>
</linearGradient>
<linearGradient id="paint4_linear_422_13911" x1="43.8732" y1="59.0692" x2="43.8732" y2="50.1974" gradientUnits="userSpaceOnUse">
<stop stop-color="#139DE5"/>
<stop offset="1" stop-color="#7ECFC9"/>
</linearGradient>
<linearGradient id="paint5_linear_422_13911" x1="38.4195" y1="62.5101" x2="38.4195" y2="55.2141" gradientUnits="userSpaceOnUse">
<stop stop-color="#139DE5"/>
<stop offset="1" stop-color="#7ECFC9"/>
</linearGradient>
<linearGradient id="paint6_linear_422_13911" x1="59.2017" y1="41.9614" x2="59.2017" y2="17.3203" gradientUnits="userSpaceOnUse">
<stop stop-color="#139DE5"/>
<stop offset="1" stop-color="#7ECFC9"/>
</linearGradient>
<linearGradient id="paint7_linear_422_13911" x1="57.4727" y1="43.1077" x2="57.4727" y2="39.2585" gradientUnits="userSpaceOnUse">
<stop stop-color="#139DE5"/>
<stop offset="1" stop-color="#7ECFC9"/>
</linearGradient>
<linearGradient id="paint8_linear_422_13911" x1="40.5192" y1="49.0339" x2="40.5192" y2="22.6546" gradientUnits="userSpaceOnUse">
<stop stop-color="#139DE5"/>
<stop offset="1" stop-color="#7ECFC9"/>
</linearGradient>
<linearGradient id="paint9_linear_422_13911" x1="10.4667" y1="41.9613" x2="10.4667" y2="17.3202" gradientUnits="userSpaceOnUse">
<stop stop-color="#139DE5"/>
<stop offset="1" stop-color="#7ECFC9"/>
</linearGradient>
<linearGradient id="paint10_linear_422_13911" x1="21.6018" y1="25.4491" x2="21.6018" y2="23.6844" gradientUnits="userSpaceOnUse">
<stop stop-color="#139DE5"/>
<stop offset="1" stop-color="#7ECFC9"/>
</linearGradient>
<linearGradient id="paint11_linear_422_13911" x1="12.1973" y1="43.1077" x2="12.1973" y2="39.2584" gradientUnits="userSpaceOnUse">
<stop stop-color="#139DE5"/>
<stop offset="1" stop-color="#7ECFC9"/>
</linearGradient>
<linearGradient id="paint12_linear_422_13911" x1="35.334" y1="12.5104" x2="35.334" y2="5.57881" gradientUnits="userSpaceOnUse">
<stop stop-color="#139DE5"/>
<stop offset="1" stop-color="#7ECFC9"/>
</linearGradient>
<linearGradient id="paint13_linear_422_13911" x1="23.9417" y1="15.381" x2="23.9417" y2="9.62842" gradientUnits="userSpaceOnUse">
<stop stop-color="#139DE5"/>
<stop offset="1" stop-color="#7ECFC9"/>
</linearGradient>
<linearGradient id="paint14_linear_422_13911" x1="45.7269" y1="15.381" x2="45.7269" y2="9.62842" gradientUnits="userSpaceOnUse">
<stop stop-color="#139DE5"/>
<stop offset="1" stop-color="#7ECFC9"/>
</linearGradient>
<linearGradient id="paint15_linear_422_13911" x1="24.0774" y1="54.0506" x2="24.0774" y2="41.7698" gradientUnits="userSpaceOnUse">
<stop stop-color="#139DE5"/>
<stop offset="1" stop-color="#7ECFC9"/>
</linearGradient>
<linearGradient id="paint16_linear_422_13911" x1="63.1699" y1="27.4335" x2="63.1699" y2="27.4295" gradientUnits="userSpaceOnUse">
<stop stop-color="#139DE5"/>
<stop offset="1" stop-color="#7ECFC9"/>
</linearGradient>
<clipPath id="clip0_422_13911">
<rect width="69.6667" height="69.6667" fill="white"/>
</clipPath>
</defs>
</svg>
