<svg width="68" height="68" viewBox="0 0 68 68" fill="none" xmlns="http://www.w3.org/2000/svg">
<g clip-path="url(#clip0_422_23465)">
<path fill-rule="evenodd" clip-rule="evenodd" d="M18.3281 43.9609V46.0195C18.3281 50.5119 14.6525 54.1875 10.1602 54.1875C5.66777 54.1875 1.99219 50.5119 1.99219 46.0195V43.9609H18.3281Z" stroke="url(#paint0_linear_422_23465)" stroke-width="3" stroke-miterlimit="22.9256" stroke-linecap="round" stroke-linejoin="round"/>
<path fill-rule="evenodd" clip-rule="evenodd" d="M10.1606 25.7656L17.7519 43.9609C12.6911 43.9609 7.63029 43.9609 2.56934 43.9609L10.1606 25.7656Z" stroke="url(#paint1_linear_422_23465)" stroke-width="3" stroke-miterlimit="22.9256" stroke-linecap="round" stroke-linejoin="round"/>
<path d="M37.9843 22.8438V56.9766H30.0156V22.9766" stroke="url(#paint2_linear_422_23465)" stroke-width="3" stroke-miterlimit="22.9256" stroke-linecap="round" stroke-linejoin="round"/>
<path d="M30.0156 13.6798V5.97656L34 1.99219L37.9844 5.97656V12.6173" stroke="url(#paint3_linear_422_23465)" stroke-width="3" stroke-miterlimit="22.9256" stroke-linecap="round" stroke-linejoin="round"/>
<path fill-rule="evenodd" clip-rule="evenodd" d="M20.1875 60.9609L28.4219 56.9766H34H39.5781L47.8125 60.9609V66.0078H20.1875V60.9609Z" stroke="url(#paint4_linear_422_23465)" stroke-width="3" stroke-miterlimit="22.9256" stroke-linecap="round" stroke-linejoin="round"/>
<path d="M28.0234 18.1953H13.9453V20.8516C13.9453 22.9728 12.215 24.7031 10.0938 24.7031H9.82812C7.70684 24.7031 5.97656 22.973 5.97656 20.8516" stroke="url(#paint5_linear_422_23465)" stroke-width="3" stroke-miterlimit="22.9256" stroke-linecap="round" stroke-linejoin="round"/>
<path fill-rule="evenodd" clip-rule="evenodd" d="M49.6719 43.9609V46.0195C49.6719 50.5119 53.3475 54.1875 57.8398 54.1875C62.3322 54.1875 66.0078 50.5119 66.0078 46.0195V43.9609H49.6719Z" stroke="url(#paint6_linear_422_23465)" stroke-width="3" stroke-miterlimit="22.9256" stroke-linecap="round" stroke-linejoin="round"/>
<path fill-rule="evenodd" clip-rule="evenodd" d="M57.8398 25.7656L50.2485 43.9609C55.3094 43.9609 60.3702 43.9609 65.4311 43.9609L57.8398 25.7656Z" stroke="url(#paint7_linear_422_23465)" stroke-width="3" stroke-miterlimit="22.9256" stroke-linecap="round" stroke-linejoin="round"/>
<path d="M40.1094 18.1953H54.0547V20.8516C54.0547 22.9728 55.785 24.7031 57.9062 24.7031H58.1719C60.2932 24.7031 62.0234 22.973 62.0234 20.8516" stroke="url(#paint8_linear_422_23465)" stroke-width="3" stroke-miterlimit="22.9256" stroke-linecap="round" stroke-linejoin="round"/>
<path d="M35.8933 23.6781C38.9204 22.6692 40.5564 19.3974 39.5475 16.3703C38.5386 13.3433 35.2668 11.7073 32.2398 12.7162C29.2127 13.7251 27.5767 16.9969 28.5856 20.0239C29.5945 23.051 32.8663 24.687 35.8933 23.6781Z" stroke="url(#paint9_linear_422_23465)" stroke-width="3" stroke-miterlimit="22.9256" stroke-linecap="round" stroke-linejoin="round"/>
</g>
<defs>
<linearGradient id="paint0_linear_422_23465" x1="10.1602" y1="43.9609" x2="10.1602" y2="54.1875" gradientUnits="userSpaceOnUse">
<stop stop-color="#76CAC9"/>
<stop offset="1" stop-color="#0E9BE6"/>
</linearGradient>
<linearGradient id="paint1_linear_422_23465" x1="10.1606" y1="25.7656" x2="10.1606" y2="43.9609" gradientUnits="userSpaceOnUse">
<stop stop-color="#76CAC9"/>
<stop offset="1" stop-color="#0E9BE6"/>
</linearGradient>
<linearGradient id="paint2_linear_422_23465" x1="34" y1="22.8437" x2="34" y2="56.9766" gradientUnits="userSpaceOnUse">
<stop stop-color="#76CAC9"/>
<stop offset="1" stop-color="#0E9BE6"/>
</linearGradient>
<linearGradient id="paint3_linear_422_23465" x1="34" y1="1.99219" x2="34" y2="13.6798" gradientUnits="userSpaceOnUse">
<stop stop-color="#76CAC9"/>
<stop offset="1" stop-color="#0E9BE6"/>
</linearGradient>
<linearGradient id="paint4_linear_422_23465" x1="34" y1="56.9766" x2="34" y2="66.0078" gradientUnits="userSpaceOnUse">
<stop stop-color="#76CAC9"/>
<stop offset="1" stop-color="#0E9BE6"/>
</linearGradient>
<linearGradient id="paint5_linear_422_23465" x1="17" y1="18.1953" x2="17" y2="24.7031" gradientUnits="userSpaceOnUse">
<stop stop-color="#76CAC9"/>
<stop offset="1" stop-color="#0E9BE6"/>
</linearGradient>
<linearGradient id="paint6_linear_422_23465" x1="57.8398" y1="43.9609" x2="57.8398" y2="54.1875" gradientUnits="userSpaceOnUse">
<stop stop-color="#76CAC9"/>
<stop offset="1" stop-color="#0E9BE6"/>
</linearGradient>
<linearGradient id="paint7_linear_422_23465" x1="57.8398" y1="25.7656" x2="57.8398" y2="43.9609" gradientUnits="userSpaceOnUse">
<stop stop-color="#76CAC9"/>
<stop offset="1" stop-color="#0E9BE6"/>
</linearGradient>
<linearGradient id="paint8_linear_422_23465" x1="51.0664" y1="18.1953" x2="51.0664" y2="24.7031" gradientUnits="userSpaceOnUse">
<stop stop-color="#76CAC9"/>
<stop offset="1" stop-color="#0E9BE6"/>
</linearGradient>
<linearGradient id="paint9_linear_422_23465" x1="32.2398" y1="12.7162" x2="35.8933" y2="23.6781" gradientUnits="userSpaceOnUse">
<stop stop-color="#76CAC9"/>
<stop offset="1" stop-color="#0E9BE6"/>
</linearGradient>
<clipPath id="clip0_422_23465">
<rect width="68" height="68" fill="white"/>
</clipPath>
</defs>
</svg>
