<svg width="72" height="72" viewBox="0 0 72 72" fill="none" xmlns="http://www.w3.org/2000/svg">
<path d="M55.2744 21.7654H56.9553V28.3996C56.9553 28.9762 57.4224 29.4433 57.999 29.4433C58.5755 29.4433 59.0427 28.9762 59.0427 28.3996V21.7654H60.7234C61.2999 21.7654 61.7671 21.2982 61.7671 20.7217C61.7671 20.1452 61.2999 19.678 60.7234 19.678H59.0427V16.6458C59.0427 16.063 59.5166 15.589 60.0994 15.589H62.5726C63.1491 15.589 63.6162 15.1218 63.6162 14.5453C63.6162 13.9688 63.1491 13.5016 62.5726 13.5016H60.0994C58.3658 13.5016 56.9553 14.9121 56.9553 16.6458V19.678H55.2744C54.6978 19.678 54.2307 20.1452 54.2307 20.7217C54.2307 21.2982 54.698 21.7654 55.2744 21.7654ZM36.3754 6.04743C36.9518 6.04743 37.4191 5.58013 37.4191 5.00374C37.4191 4.42734 36.9518 3.96005 36.3754 3.96005C35.799 3.96005 35.3317 4.42734 35.3317 5.00374C35.3317 5.58013 35.7988 6.04743 36.3754 6.04743ZM13.8271 24.1817C15.5535 24.1817 16.9582 22.7771 16.9582 21.0507C16.9582 19.3243 15.5535 17.9196 13.8271 17.9196C12.1007 17.9196 10.696 19.3243 10.696 21.0507C10.696 22.7771 12.1007 24.1817 13.8271 24.1817ZM13.8271 20.007C14.4026 20.007 14.8708 20.4751 14.8708 21.0507C14.8708 21.6262 14.4026 22.0944 13.8271 22.0944C13.2515 22.0944 12.7834 21.6262 12.7834 21.0507C12.7834 20.4751 13.2517 20.007 13.8271 20.007ZM18.0018 28.3565C19.7282 28.3565 21.1329 26.9518 21.1329 25.2254V16.8759C21.1329 15.1495 19.7282 13.7448 18.0018 13.7448H9.65232C7.92592 13.7448 6.52125 15.1495 6.52125 16.8759V25.2254C6.52125 26.9518 7.92592 28.3565 9.65232 28.3565H18.0018ZM8.60863 25.2254V16.8759C8.60863 16.3004 9.07676 15.8322 9.65232 15.8322H18.0018C18.5774 15.8322 19.0455 16.3004 19.0455 16.8759V25.2254C19.0455 25.801 18.5774 26.2691 18.0018 26.2691H9.65232C9.0769 26.2691 8.60863 25.8009 8.60863 25.2254ZM20.1524 43.8168C19.6457 43.4356 18.9751 43.3716 18.4019 43.6492C18.2614 43.7173 18.1137 43.7687 17.963 43.8026C17.779 43.8436 17.5917 43.8589 17.403 43.8474C16.788 43.2821 16.0053 42.9438 15.1597 42.885C14.174 42.8152 13.2188 43.1357 12.4724 43.7848C11.7838 44.3837 11.3466 45.2067 11.2307 46.0984C10.0162 45.9026 8.90365 45.2879 8.08317 44.3386C7.74655 43.9488 7.22498 43.7746 6.72331 43.8833C6.22415 43.9913 5.82463 44.3631 5.6806 44.8532C5.3295 46.0459 4.58848 49.6998 7.67279 52.1359C7.08415 52.3155 6.41285 52.302 6.06954 52.8981C5.76006 53.4355 5.92552 54.0686 6.05173 54.3982C6.29832 55.042 6.94179 55.5054 7.96391 55.7755C8.5218 55.923 9.25099 56.0183 10.0727 56.0183C11.9786 56.0182 14.3804 55.5051 16.2837 53.9399C18.1805 52.3797 18.9562 50.2528 19.269 48.639C19.7559 48.0841 20.1417 47.4577 20.4176 46.7728C20.5902 46.3442 20.7172 45.8955 20.7956 45.4389C20.9021 44.8166 20.6557 44.195 20.1524 43.8168ZM17.5461 47.4292C17.3983 47.5818 17.3003 47.7758 17.2658 47.9855C17.0528 49.2757 16.4794 51.0762 14.9577 52.3277C13.1179 53.8406 10.5283 54.0531 9.03905 53.8614C9.53599 53.6551 10.0123 53.3991 10.4557 53.0981C10.7692 52.8853 10.9429 52.5193 10.9092 52.1418C10.8755 51.7644 10.6398 51.4349 10.2934 51.2808C7.69464 50.1257 7.28523 48.1593 7.44666 46.6171C8.79761 47.7114 10.4983 48.3004 12.2706 48.2506C12.8363 48.236 13.2873 47.7732 13.2873 47.2074V46.6138C13.2873 46.6093 13.2873 46.6045 13.2871 46.5998C13.2807 46.1239 13.4831 45.6717 13.8423 45.3595C14.1677 45.0763 14.584 44.9374 15.0145 44.9669C15.4449 44.997 15.8379 45.1928 16.121 45.5183C16.2728 45.6928 16.4779 45.8117 16.7047 45.857C17.3225 45.9798 17.9477 45.964 18.5514 45.8074C18.3383 46.4142 17.9966 46.9642 17.5461 47.4292ZM58.9235 36.3714C58.8988 36.3714 58.8743 36.3723 58.8495 36.3725V34.1262C58.8743 34.1263 58.8988 34.1271 58.9235 34.1271C66.1339 34.1271 72 28.2612 72 21.0507C72 13.8109 66.0866 7.93414 58.8495 7.97519V6.98549C58.8495 3.34079 55.8842 0.375458 52.2395 0.375458H20.5113C16.8666 0.375458 13.9013 3.34079 13.9013 6.98549V7.97519C11.3444 7.9603 8.86343 8.68406 6.72651 10.0683C6.24266 10.3817 6.10447 11.0279 6.41786 11.5116C6.73138 11.9955 7.3775 12.1337 7.86121 11.8203C9.63729 10.6697 11.7003 10.0616 13.8271 10.0616C19.8865 10.0616 24.8162 14.9913 24.8162 21.0507C24.8162 27.1101 19.8865 32.0398 13.8271 32.0398C7.7677 32.0398 2.838 27.1101 2.838 21.0507C2.838 18.8539 3.48384 16.734 4.70537 14.9202C5.02725 14.442 4.90075 13.7936 4.42274 13.4715C3.94459 13.1498 3.29611 13.2762 2.9741 13.7542C1.51961 15.9139 0.750622 18.4369 0.750622 21.0507C0.750622 28.261 6.61658 34.1271 13.8271 34.1271C13.8519 34.1271 13.8763 34.1263 13.9011 34.1262V36.3982C13.6282 36.3811 13.3534 36.3715 13.0763 36.3715C5.86596 36.3714 0 42.2374 0 49.4478C0 56.6582 5.86596 62.5244 13.0765 62.5244C13.3535 62.5244 13.6284 62.5147 13.9013 62.4977V65.0147C13.9013 68.6594 16.8666 71.6247 20.5113 71.6247H52.2395C55.8842 71.6247 58.8495 68.6594 58.8495 65.0147V62.5236C58.8743 62.5237 58.8988 62.5246 58.9235 62.5246C66.1339 62.5246 72 56.6585 72 49.448C72 42.2374 66.1339 36.3714 58.9235 36.3714ZM58.9235 10.0616C64.9829 10.0616 69.9126 14.9913 69.9126 21.0507C69.9126 27.1101 64.9829 32.0398 58.9235 32.0398C52.8642 32.0398 47.9345 27.1101 47.9345 21.0507C47.9345 14.9913 52.8642 10.0616 58.9235 10.0616ZM56.7621 33.9473V36.5486C56.0485 36.6664 55.3509 36.8424 54.6747 37.0733V33.4178C55.3474 33.6497 56.045 33.8277 56.7621 33.9473ZM18.076 7.68115V8.68323C17.4032 8.45139 16.7057 8.27355 15.9886 8.15373V6.98536C15.9886 4.49149 18.0174 2.4627 20.5113 2.4627H52.2395C54.7333 2.4627 56.7621 4.49149 56.7621 6.98536V8.15373C56.045 8.27355 55.3476 8.45139 54.6747 8.68323V7.68115C54.6747 5.95475 53.2701 4.55008 51.5437 4.55008H47.7099C46.5205 4.55008 45.5529 5.51765 45.5529 6.70704C45.5529 7.16891 45.177 7.54477 44.715 7.54477H28.0356C27.5737 7.54477 27.1977 7.16904 27.1977 6.70704C27.1977 6.13023 26.9735 5.58848 26.5636 5.17866C26.1551 4.77343 25.6145 4.55008 25.0408 4.55008H21.2069C19.4805 4.55008 18.076 5.95475 18.076 7.68115ZM15.9886 33.9473C16.7057 33.8275 17.4032 33.6497 18.076 33.4178V37.3655C17.4062 37.0873 16.7088 36.863 15.9886 36.6987V33.9473ZM13.0765 60.437C7.01708 60.437 2.08738 55.5073 2.08738 49.4478C2.08738 43.3884 7.01708 38.4587 13.0765 38.4587C19.1358 38.4587 24.0655 43.3884 24.0655 49.4478C24.0655 55.8526 19.0098 60.437 13.0765 60.437ZM56.7621 65.0145C56.7621 67.5084 54.7333 69.5372 52.2395 69.5372H20.5113C18.0174 69.5372 15.9886 67.5084 15.9886 65.0145V62.1971C16.7088 62.0328 17.4062 61.8083 18.076 61.5301V64.3187C18.076 66.0451 19.4807 67.4498 21.2071 67.4498H51.5437C53.2701 67.4498 54.6747 66.0451 54.6747 64.3187V61.8153C55.3476 62.0471 56.045 62.2249 56.7621 62.3448V65.0145ZM58.9235 60.437C52.8642 60.437 47.9345 55.5073 47.9345 49.4478C47.9345 48.5061 48.0534 47.5714 48.2885 46.6695C48.4338 46.1116 48.0994 45.5418 47.5416 45.3965C46.9837 45.2509 46.4139 45.5856 46.2686 46.1434C45.9889 47.217 45.8472 48.3287 45.8472 49.4478C45.8472 54.3608 48.5711 58.6488 52.5875 60.8832V64.3187C52.5875 64.8943 52.1194 65.3624 51.5438 65.3624H21.2072C20.6317 65.3624 20.1635 64.8943 20.1635 64.3187V60.4324C23.765 58.1008 26.1531 54.0481 26.1531 49.4478C26.1531 44.8475 23.765 40.7948 20.1635 38.4632V32.4858C24.1799 30.2514 26.9038 25.9634 26.9038 21.0505C26.9038 16.1377 24.1799 11.8496 20.1635 9.61532V7.68115C20.1635 7.10559 20.6317 6.63746 21.2072 6.63746H25.041C25.0607 6.63746 25.0783 6.64511 25.0906 6.6575C25.1085 6.67531 25.1106 6.69437 25.1106 6.70704C25.1106 8.31989 26.4229 9.63215 28.0359 9.63215H44.7153C46.3283 9.63215 47.6405 8.31989 47.6405 6.70704C47.6405 6.66877 47.6719 6.63746 47.7101 6.63746H51.544C52.1195 6.63746 52.5876 7.10559 52.5876 7.68115V9.61532C48.5712 11.8496 45.8474 16.1377 45.8474 21.0505C45.8474 25.9665 48.5746 30.2567 52.595 32.4899C52.5906 32.5293 52.5876 32.5693 52.5876 32.6099V37.9994C51.0485 38.8527 49.6777 40.023 48.5622 41.4698C48.2103 41.9263 48.295 42.5816 48.7515 42.9337C49.2082 43.2857 49.8632 43.2011 50.2153 42.7444C52.315 40.0197 55.4441 38.4587 58.9238 38.4587C64.9832 38.4587 69.9129 43.3884 69.9129 49.4478C69.9126 55.5073 64.9829 60.437 58.9235 60.437ZM40.2 35.6548C39.7073 35.3561 39.0655 35.5127 38.7661 36.0054C38.5727 36.3239 38.3001 36.5968 37.9871 36.7993C37.6856 36.9944 37.2929 36.9999 36.9861 36.8137L35.4241 35.8655C35.1127 35.6764 34.9423 35.3133 34.9775 34.9453C35.0123 34.5821 35.1309 34.2251 35.3203 33.9133C35.6195 33.4205 35.4626 32.7787 34.97 32.4794C34.4775 32.1802 33.8355 32.3369 33.5361 32.8296C33.1843 33.4089 32.9642 34.0718 32.8992 34.7503L32.8972 34.7713C32.787 35.9205 33.3535 37.0502 34.3405 37.6498L35.9025 38.598C36.3829 38.8898 36.9288 39.0353 37.4745 39.0353C38.0497 39.0353 38.6247 38.8736 39.1218 38.5514C39.6978 38.1782 40.1945 37.6754 40.5504 37.0889C40.8496 36.5958 40.6926 35.954 40.2 35.6548ZM64.4154 48.3287L57.0974 44.1015C56.1508 43.5443 54.9173 44.2686 54.9255 45.3553V53.8099C54.9158 54.8941 56.1583 55.6176 57.0972 55.0637L64.4153 50.8366C65.3616 50.3003 65.3581 48.8625 64.4154 48.3287ZM57.0128 52.7019V46.4633L62.4129 49.5827L57.0128 52.7019ZM36.122 26.549C31.2716 26.6762 27.2381 30.5673 26.9394 35.4075C26.8632 36.6402 27.0234 37.8544 27.4151 39.0169L26.3038 42.1784C26.0977 42.7646 26.2427 43.4015 26.6819 43.8408C27.121 44.28 27.7581 44.4249 28.3441 44.2189L30.5482 43.4442C32.2776 44.7999 34.4398 45.5103 36.6371 45.4508C41.689 45.3138 45.8128 41.0886 45.8297 36.0322C45.8383 33.4536 44.8275 31.0409 42.9833 29.2385C41.1396 27.4364 38.7016 26.4798 36.122 26.549ZM36.5805 43.3641C34.857 43.4079 33.1682 42.8514 31.8204 41.7891C31.4522 41.4987 31.0089 41.3477 30.5599 41.3477C30.336 41.3477 30.1106 41.3852 29.8927 41.4619L28.6095 41.9129L29.3925 39.6854C29.5417 39.2611 29.5449 38.7955 29.4012 38.3744C29.09 37.4615 28.9627 36.5066 29.0225 35.5361C29.2553 31.7656 32.3977 28.7346 36.1764 28.6354C38.1882 28.5808 40.0873 29.327 41.524 30.7311C42.9609 32.1356 43.7486 34.0158 43.7419 36.025C43.7289 39.9651 40.5162 43.2573 36.5805 43.3641Z" fill="white"/>
</svg>
