<svg width="68" height="68" viewBox="0 0 68 68" fill="none" xmlns="http://www.w3.org/2000/svg">
<g clip-path="url(#clip0_422_23401)">
<path d="M41.9683 34.5312C41.2351 34.5312 40.6401 35.1263 40.6401 35.8594C40.6401 36.5925 41.2351 37.1875 41.9683 37.1875C42.7014 37.1875 43.2964 36.5925 43.2964 35.8594C43.2964 35.1263 42.7014 34.5312 41.9683 34.5312Z" fill="url(#paint0_linear_422_23401)"/>
<path d="M0.330991 31.4232C0.334576 31.4273 0.337764 31.4319 0.341483 31.4359C0.342014 31.4365 0.342412 31.4371 0.342944 31.4378L33.0148 67.5628C33.2583 67.832 33.6272 68 33.9999 68C34.3714 68 34.7397 67.8339 34.985 67.5628L67.6568 31.4378C67.6574 31.4372 67.6578 31.4366 67.6583 31.4359C67.662 31.4318 67.6651 31.4273 67.6688 31.4232C68.0945 30.9389 68.1056 30.2277 67.7193 29.7322C67.7155 29.7274 67.7128 29.722 67.7089 29.7172L57.0839 16.4359C56.832 16.1209 56.4503 15.9375 56.0468 15.9375C50.6324 15.9375 16.3585 15.9375 11.953 15.9375C11.5495 15.9375 11.168 16.1209 10.9159 16.4359L0.290881 29.7172C0.28703 29.722 0.284373 29.7273 0.280522 29.7322C-0.109814 30.2329 -0.0898923 30.9444 0.330991 31.4232ZM26.783 18.5938H41.2167L47.5917 29.2188H20.408L26.783 18.5938ZM20.0999 31.875H47.8997L33.9998 63.3816L20.0999 31.875ZM50.8031 31.875H63.6799L38.5394 59.6724L50.8031 31.875ZM17.1966 31.875L29.4601 59.6724L4.31975 31.875H17.1966ZM63.9083 29.2188H50.6892L44.3142 18.5938H55.4083L63.9083 29.2188ZM12.5912 18.5938H23.6853L17.3103 29.2188H4.09118L12.5912 18.5938Z" fill="url(#paint1_linear_422_23401)"/>
<path d="M36.6562 34.5312H26.7988C26.0653 34.5312 25.4707 35.1259 25.4707 35.8594C25.4707 36.5929 26.0653 37.1875 26.7988 37.1875H36.6562C37.3897 37.1875 37.9843 36.5929 37.9843 35.8594C37.9843 35.1259 37.3897 34.5312 36.6562 34.5312Z" fill="url(#paint2_linear_422_23401)"/>
<path d="M33.9995 10.625C34.733 10.625 35.3276 10.0304 35.3276 9.29688V1.32812C35.3276 0.594602 34.733 0 33.9995 0C33.266 0 32.6714 0.594602 32.6714 1.32812V9.29688C32.6714 10.0304 33.266 10.625 33.9995 10.625Z" fill="url(#paint3_linear_422_23401)"/>
<path d="M42.908 10.2361L48.2205 4.92364C48.7391 4.40501 48.7391 3.56404 48.2205 3.04527C47.7018 2.52651 46.8609 2.52664 46.3421 3.04527L41.0296 8.35777C40.511 8.87641 40.511 9.71738 41.0296 10.2361C41.5482 10.7548 42.3892 10.7549 42.908 10.2361Z" fill="url(#paint4_linear_422_23401)"/>
<path d="M25.0917 10.2361C25.6103 10.7547 26.4513 10.7547 26.97 10.2361C27.4887 9.71746 27.4887 8.87649 26.97 8.35773L21.6575 3.04522C21.1389 2.52659 20.2979 2.52659 19.7792 3.04522C19.2604 3.56386 19.2605 4.40483 19.7792 4.92359L25.0917 10.2361Z" fill="url(#paint5_linear_422_23401)"/>
</g>
<defs>
<linearGradient id="paint0_linear_422_23401" x1="41.9683" y1="34.5312" x2="41.9683" y2="37.1875" gradientUnits="userSpaceOnUse">
<stop stop-color="#7ACCC8"/>
<stop offset="1" stop-color="#0E9BE6"/>
</linearGradient>
<linearGradient id="paint1_linear_422_23401" x1="34" y1="15.9375" x2="34" y2="68" gradientUnits="userSpaceOnUse">
<stop stop-color="#7ACCC8"/>
<stop offset="1" stop-color="#0E9BE6"/>
</linearGradient>
<linearGradient id="paint2_linear_422_23401" x1="31.7275" y1="34.5312" x2="31.7275" y2="37.1875" gradientUnits="userSpaceOnUse">
<stop stop-color="#7ACCC8"/>
<stop offset="1" stop-color="#0E9BE6"/>
</linearGradient>
<linearGradient id="paint3_linear_422_23401" x1="33.9995" y1="0" x2="33.9995" y2="10.625" gradientUnits="userSpaceOnUse">
<stop stop-color="#7ACCC8"/>
<stop offset="1" stop-color="#0E9BE6"/>
</linearGradient>
<linearGradient id="paint4_linear_422_23401" x1="44.625" y1="2.65625" x2="44.625" y2="10.6252" gradientUnits="userSpaceOnUse">
<stop stop-color="#7ACCC8"/>
<stop offset="1" stop-color="#0E9BE6"/>
</linearGradient>
<linearGradient id="paint5_linear_422_23401" x1="23.3746" y1="2.65625" x2="23.3746" y2="10.6251" gradientUnits="userSpaceOnUse">
<stop stop-color="#7ACCC8"/>
<stop offset="1" stop-color="#0E9BE6"/>
</linearGradient>
<clipPath id="clip0_422_23401">
<rect width="68" height="68" fill="white"/>
</clipPath>
</defs>
</svg>
