<svg width="70" height="70" viewBox="0 0 70 70" fill="none" xmlns="http://www.w3.org/2000/svg">
<circle cx="35" cy="35" r="35" fill="#F1FAFA"/>
<path d="M35.7633 19.5569C33.4972 20.8884 32.1553 23.2925 32.1553 25.8279C32.1553 27.1594 32.6902 28.5013 33.3592 29.6977C33.8941 30.7674 34.1559 32.6329 32.2895 33.5675C30.958 34.3641 29.2154 33.833 28.4188 32.4977C27.6221 31.428 26.6875 30.3592 25.4826 29.5626C23.2165 28.231 20.5431 28.231 18.2761 29.5626C16.01 30.8941 14.6709 33.3048 14.6709 35.8402C14.6709 38.3766 16.0024 40.7797 18.2751 42.115C20.5412 43.4465 23.2146 43.4465 25.4817 42.115C26.6856 41.4459 27.6202 40.3837 28.2827 39.1798C28.8175 38.2452 30.287 37.0413 32.1534 38.1101C33.4849 38.9067 33.8846 40.6493 33.2231 41.9799C32.5541 43.1838 32.1534 44.5191 32.1534 45.8496C32.1534 48.3888 33.4849 50.7891 35.7614 52.1207C38.0275 53.4522 40.7009 53.4522 42.968 52.1207C45.2341 50.7891 46.5769 48.3851 46.5769 45.8496C46.5769 43.3142 45.2417 40.9101 42.9689 39.5748C41.765 38.9058 40.4297 38.6402 38.964 38.6402C37.7601 38.6402 36.163 37.8436 36.163 35.8392C36.163 34.2356 37.367 33.0383 38.964 33.0383C40.2955 33.0383 41.765 32.7727 42.9689 32.1037C45.235 30.7722 46.5769 28.3681 46.5769 25.8326C46.5769 23.2972 45.2417 20.8931 42.9689 19.5616C41.8992 18.8926 40.5677 18.627 39.3647 18.627C38.1683 18.6223 36.8264 18.8944 35.7633 19.5569Z" fill="url(#paint0_linear_422_20302)"/>
<defs>
<linearGradient id="paint0_linear_422_20302" x1="14.6715" y1="35.8752" x2="46.5771" y2="35.8752" gradientUnits="userSpaceOnUse">
<stop stop-color="#11AAE2"/>
<stop offset="0.59" stop-color="#0880B7"/>
<stop offset="1" stop-color="#016197"/>
</linearGradient>
</defs>
</svg>
