<svg width="68" height="68" viewBox="0 0 68 68" fill="none" xmlns="http://www.w3.org/2000/svg">
<g clip-path="url(#clip0_422_23369)">
<path d="M51.5531 33.4595C51.1214 32.7526 50.5468 32.1438 49.866 31.6721C49.1852 31.2004 48.4134 30.8761 47.6 30.7202V11.3334C47.5982 9.83105 47.0006 8.39075 45.9383 7.32844C44.876 6.26612 43.4357 5.66852 41.9333 5.66672H32.5516C32.3542 5.32328 32.07 5.03777 31.7275 4.83885C31.3849 4.63993 30.9961 4.53458 30.6 4.53339H29.0802C28.6125 3.20593 27.7444 2.05631 26.5956 1.2431C25.4469 0.429889 24.0741 -0.00683594 22.6667 -0.00683594C21.2592 -0.00683594 19.8864 0.429889 18.7377 1.2431C17.589 2.05631 16.7209 3.20593 16.2531 4.53339H14.7333C14.3372 4.53458 13.9484 4.63993 13.6058 4.83885C13.2633 5.03777 12.9791 5.32328 12.7817 5.66672H5.66667C4.16433 5.66852 2.72403 6.26612 1.66172 7.32844C0.5994 8.39075 0.00179957 9.83105 0 11.3334L0 58.9334C0.00179957 60.4357 0.5994 61.876 1.66172 62.9383C2.72403 64.0007 4.16433 64.5983 5.66667 64.6001H25.5669C25.619 64.7066 25.6609 64.8165 25.7199 64.9208C26.2312 65.8573 26.9864 66.638 27.9054 67.1801C28.8244 67.7223 29.873 68.0056 30.94 68.0001H62.0047C63.0706 68.0041 64.1178 67.72 65.0355 67.1777C65.9532 66.6355 66.7073 65.8553 67.218 64.9197C67.7575 63.97 68.0301 62.8922 68.0072 61.8003C67.9842 60.7084 67.6665 59.643 67.0877 58.7169L51.5531 33.4595ZM45.3333 11.3334V30.7202C44.5188 30.8751 43.7463 31.2007 43.0667 31.6756V12.4667C43.0667 11.8656 42.8279 11.289 42.4028 10.8639C41.9777 10.4389 41.4012 10.2001 40.8 10.2001H32.8667V7.93339H41.9333C42.8351 7.93339 43.6999 8.2916 44.3375 8.92923C44.9751 9.56685 45.3333 10.4317 45.3333 11.3334ZM14.7333 6.80006H17.1133C17.3748 6.80037 17.6283 6.71027 17.831 6.54503C18.0336 6.37979 18.1728 6.14957 18.2251 5.89339C18.4343 4.86981 18.9906 3.94989 19.7999 3.28924C20.6093 2.62858 21.6219 2.26774 22.6667 2.26774C23.7114 2.26774 24.7241 2.62858 25.5334 3.28924C26.3427 3.94989 26.899 4.86981 27.1082 5.89339C27.1605 6.14957 27.2998 6.37979 27.5024 6.54503C27.705 6.71027 27.9585 6.80037 28.22 6.80006H30.6V11.3334H14.7333V6.80006ZM30.6 13.6001C30.9961 13.5989 31.3849 13.4935 31.7275 13.2946C32.07 13.0957 32.3542 12.8102 32.5516 12.4667H40.8V34.4047L26.4067 57.8001H6.8V12.4667H12.7817C12.9791 12.8102 13.2633 13.0957 13.6058 13.2946C13.9484 13.4935 14.3372 13.5989 14.7333 13.6001H30.6ZM5.66667 62.3334C4.76493 62.3334 3.90013 61.9752 3.2625 61.3376C2.62488 60.6999 2.26667 59.8351 2.26667 58.9334V11.3334C2.26667 10.4317 2.62488 9.56685 3.2625 8.92923C3.90013 8.2916 4.76493 7.93339 5.66667 7.93339H12.4667V10.2001H6.8C6.19884 10.2001 5.62231 10.4389 5.19723 10.8639C4.77214 11.289 4.53333 11.8656 4.53333 12.4667V57.8001C4.53333 58.4012 4.77214 58.9778 5.19723 59.4028C5.62231 59.8279 6.19884 60.0667 6.8 60.0667H25.2314C24.9948 60.7976 24.9005 61.567 24.9537 62.3334H5.66667ZM65.2358 63.8147C64.9192 64.3965 64.4513 64.8819 63.8816 65.2197C63.3118 65.5574 62.6614 65.7349 61.999 65.7334H30.94C30.2779 65.7351 29.6277 65.5577 29.0581 65.2202C28.4885 64.8826 28.0208 64.3974 27.7043 63.8158C27.3636 63.2169 27.1912 62.5369 27.2053 61.848C27.2195 61.1591 27.4197 60.4868 27.7848 59.9024L43.3115 34.6483C43.6398 34.105 44.1029 33.6556 44.6558 33.3436C45.2088 33.0317 45.8329 32.8678 46.4678 32.8678C47.1027 32.8678 47.7268 33.0317 48.2798 33.3436C48.8327 33.6556 49.2958 34.105 49.6241 34.6483L65.1508 59.9047C65.5162 60.4882 65.717 61.1596 65.7319 61.8479C65.7469 62.5363 65.5755 63.2158 65.2358 63.8147Z" fill="url(#paint0_linear_422_23369)"/>
<path d="M46.4669 37.4004C45.5652 37.4004 44.7004 37.7586 44.0627 38.3962C43.4251 39.0339 43.0669 39.8987 43.0669 40.8004V51.0004C43.0669 51.9021 43.4251 52.7669 44.0627 53.4046C44.7004 54.0422 45.5652 54.4004 46.4669 54.4004C47.3686 54.4004 48.2334 54.0422 48.8711 53.4046C49.5087 52.7669 49.8669 51.9021 49.8669 51.0004V40.8004C49.8669 39.8987 49.5087 39.0339 48.8711 38.3962C48.2334 37.7586 47.3686 37.4004 46.4669 37.4004ZM47.6002 51.0004C47.6002 51.301 47.4808 51.5892 47.2683 51.8018C47.0557 52.0143 46.7675 52.1337 46.4669 52.1337C46.1663 52.1337 45.878 52.0143 45.6655 51.8018C45.453 51.5892 45.3336 51.301 45.3336 51.0004V40.8004C45.3336 40.4998 45.453 40.2115 45.6655 39.999C45.878 39.7865 46.1663 39.6671 46.4669 39.6671C46.7675 39.6671 47.0557 39.7865 47.2683 39.999C47.4808 40.2115 47.6002 40.4998 47.6002 40.8004V51.0004Z" fill="url(#paint1_linear_422_23369)"/>
<path d="M46.4669 56.667C45.7944 56.667 45.1371 56.8664 44.578 57.24C44.0188 57.6136 43.583 58.1446 43.3257 58.7659C43.0684 59.3871 43.001 60.0708 43.1322 60.7303C43.2634 61.3898 43.5872 61.9957 44.0627 62.4712C44.5382 62.9467 45.1441 63.2705 45.8036 63.4017C46.4631 63.5329 47.1467 63.4655 47.768 63.2082C48.3893 62.9508 48.9203 62.5151 49.2939 61.9559C49.6675 61.3968 49.8669 60.7394 49.8669 60.067C49.8669 59.1653 49.5087 58.3005 48.8711 57.6628C48.2334 57.0252 47.3686 56.667 46.4669 56.667ZM46.4669 61.2003C46.2427 61.2003 46.0236 61.1339 45.8373 61.0093C45.6509 60.8848 45.5056 60.7078 45.4198 60.5007C45.3341 60.2936 45.3116 60.0657 45.3553 59.8459C45.3991 59.626 45.507 59.4241 45.6655 59.2656C45.824 59.1071 46.0259 58.9992 46.2458 58.9554C46.4656 58.9117 46.6935 58.9342 46.9006 59.0199C47.1077 59.1057 47.2847 59.251 47.4092 59.4373C47.5338 59.6237 47.6002 59.8428 47.6002 60.067C47.6002 60.3676 47.4808 60.6558 47.2683 60.8684C47.0557 61.0809 46.7675 61.2003 46.4669 61.2003Z" fill="url(#paint2_linear_422_23369)"/>
<path d="M22.6665 21.5333H37.3999C37.7004 21.5333 37.9887 21.4139 38.2013 21.2013C38.4138 20.9888 38.5332 20.7005 38.5332 20.3999C38.5332 20.0994 38.4138 19.8111 38.2013 19.5985C37.9887 19.386 37.7004 19.2666 37.3999 19.2666H22.6665C22.366 19.2666 22.0777 19.386 21.8651 19.5985C21.6526 19.8111 21.5332 20.0994 21.5332 20.3999C21.5332 20.7005 21.6526 20.9888 21.8651 21.2013C22.0777 21.4139 22.366 21.5333 22.6665 21.5333Z" fill="url(#paint3_linear_422_23369)"/>
<path d="M22.6665 26.0665H29.4665C29.7671 26.0665 30.0554 25.9471 30.2679 25.7345C30.4805 25.522 30.5999 25.2337 30.5999 24.9331C30.5999 24.6326 30.4805 24.3443 30.2679 24.1317C30.0554 23.9192 29.7671 23.7998 29.4665 23.7998H22.6665C22.366 23.7998 22.0777 23.9192 21.8651 24.1317C21.6526 24.3443 21.5332 24.6326 21.5332 24.9331C21.5332 25.2337 21.6526 25.522 21.8651 25.7345C22.0777 25.9471 22.366 26.0665 22.6665 26.0665Z" fill="url(#paint4_linear_422_23369)"/>
<path d="M22.6665 34.0001H37.3999C37.7004 34.0001 37.9887 33.8807 38.2013 33.6681C38.4138 33.4556 38.5332 33.1673 38.5332 32.8667C38.5332 32.5662 38.4138 32.2779 38.2013 32.0653C37.9887 31.8528 37.7004 31.7334 37.3999 31.7334H22.6665C22.366 31.7334 22.0777 31.8528 21.8651 32.0653C21.6526 32.2779 21.5332 32.5662 21.5332 32.8667C21.5332 33.1673 21.6526 33.4556 21.8651 33.6681C22.0777 33.8807 22.366 34.0001 22.6665 34.0001Z" fill="url(#paint5_linear_422_23369)"/>
<path d="M22.6665 38.5333H29.4665C29.7671 38.5333 30.0554 38.4139 30.2679 38.2013C30.4805 37.9888 30.5999 37.7005 30.5999 37.3999C30.5999 37.0994 30.4805 36.8111 30.2679 36.5985C30.0554 36.386 29.7671 36.2666 29.4665 36.2666H22.6665C22.366 36.2666 22.0777 36.386 21.8651 36.5985C21.6526 36.8111 21.5332 37.0994 21.5332 37.3999C21.5332 37.7005 21.6526 37.9888 21.8651 38.2013C22.0777 38.4139 22.366 38.5333 22.6665 38.5333Z" fill="url(#paint6_linear_422_23369)"/>
<path d="M22.6665 46.4669H30.5999C30.9004 46.4669 31.1887 46.3475 31.4013 46.1349C31.6138 45.9224 31.7332 45.6341 31.7332 45.3335C31.7332 45.033 31.6138 44.7447 31.4013 44.5321C31.1887 44.3196 30.9004 44.2002 30.5999 44.2002H22.6665C22.366 44.2002 22.0777 44.3196 21.8651 44.5321C21.6526 44.7447 21.5332 45.033 21.5332 45.3335C21.5332 45.6341 21.6526 45.9224 21.8651 46.1349C22.0777 46.3475 22.366 46.4669 22.6665 46.4669Z" fill="url(#paint7_linear_422_23369)"/>
<path d="M22.6665 51.0001H27.1999C27.5004 51.0001 27.7887 50.8807 28.0013 50.6681C28.2138 50.4556 28.3332 50.1673 28.3332 49.8667C28.3332 49.5662 28.2138 49.2779 28.0013 49.0653C27.7887 48.8528 27.5004 48.7334 27.1999 48.7334H22.6665C22.366 48.7334 22.0777 48.8528 21.8651 49.0653C21.6526 49.2779 21.5332 49.5662 21.5332 49.8667C21.5332 50.1673 21.6526 50.4556 21.8651 50.6681C22.0777 50.8807 22.366 51.0001 22.6665 51.0001Z" fill="url(#paint8_linear_422_23369)"/>
<path d="M10.532 24.1325C10.3196 24.3451 10.2002 24.6333 10.2002 24.9338C10.2002 25.2343 10.3196 25.5225 10.532 25.7351L12.7987 28.0017C13.0112 28.2143 13.2994 28.3337 13.6 28.3338C13.6607 28.334 13.7214 28.329 13.7813 28.3191C13.9587 28.2904 14.1268 28.22 14.2716 28.1136C14.4165 28.0072 14.5339 27.8678 14.6143 27.7071L19.1476 18.6404C19.2141 18.5072 19.2538 18.3622 19.2643 18.2137C19.2748 18.0652 19.2559 17.916 19.2087 17.7748C19.1616 17.6336 19.0871 17.503 18.9895 17.3906C18.8919 17.2781 18.7731 17.186 18.6399 17.1195C18.5067 17.0529 18.3617 17.0133 18.2132 17.0028C18.0646 16.9923 17.9155 17.0112 17.7743 17.0583C17.633 17.1055 17.5025 17.18 17.39 17.2776C17.2776 17.3752 17.1855 17.494 17.119 17.6272L13.2894 25.2874L12.1346 24.1325C11.922 23.9201 11.6338 23.8007 11.3333 23.8007C11.0328 23.8007 10.7446 23.9201 10.532 24.1325Z" fill="url(#paint9_linear_422_23369)"/>
<path d="M18.6399 29.5855C18.5067 29.5189 18.3617 29.4792 18.2131 29.4687C18.0646 29.4581 17.9154 29.477 17.7742 29.5241C17.6329 29.5713 17.5024 29.6458 17.3899 29.7435C17.2775 29.8411 17.1854 29.9599 17.1189 30.0932L13.2894 37.7534L12.1345 36.5985C11.9208 36.3921 11.6345 36.2778 11.3374 36.2804C11.0402 36.283 10.7559 36.4022 10.5458 36.6123C10.3357 36.8225 10.2165 37.1067 10.2139 37.4039C10.2113 37.701 10.3256 37.9873 10.532 38.2011L12.7987 40.4677C13.0112 40.6803 13.2994 40.7997 13.5999 40.7998C13.6607 40.8 13.7213 40.795 13.7813 40.7851C13.9587 40.7564 14.1268 40.686 14.2716 40.5795C14.4164 40.4731 14.5339 40.3338 14.6143 40.1731L19.1476 31.1064C19.2142 30.9732 19.2539 30.8282 19.2644 30.6796C19.2749 30.5311 19.2561 30.382 19.2089 30.2407C19.1618 30.0995 19.0872 29.9689 18.9896 29.8565C18.892 29.744 18.7731 29.6519 18.6399 29.5855Z" fill="url(#paint10_linear_422_23369)"/>
<path d="M18.6399 42.0464C18.5067 41.9798 18.3617 41.9401 18.2131 41.9296C18.0646 41.9191 17.9154 41.9379 17.7742 41.9851C17.6329 42.0322 17.5024 42.1068 17.3899 42.2044C17.2775 42.302 17.1854 42.4209 17.1189 42.5541L13.2894 50.2143L12.1345 49.0595C11.9208 48.853 11.6345 48.7388 11.3374 48.7414C11.0402 48.7439 10.7559 48.8631 10.5458 49.0733C10.3357 49.2834 10.2165 49.5676 10.2139 49.8648C10.2113 50.162 10.3256 50.4482 10.532 50.662L12.7987 52.9287C12.9034 53.0349 13.0281 53.1195 13.1656 53.1774C13.3031 53.2354 13.4507 53.2656 13.5999 53.2664C13.6607 53.2666 13.7213 53.2616 13.7813 53.2517C13.9587 53.223 14.1268 53.1526 14.2716 53.0462C14.4164 52.9397 14.5339 52.8004 14.6143 52.6397L19.1476 43.573C19.2151 43.4395 19.2555 43.294 19.2665 43.1449C19.2774 42.9957 19.2588 42.8459 19.2116 42.704C19.1644 42.5621 19.0896 42.4309 18.9915 42.318C18.8933 42.2052 18.7738 42.1129 18.6399 42.0464Z" fill="url(#paint11_linear_422_23369)"/>
</g>
<defs>
<linearGradient id="paint0_linear_422_23369" x1="34.0043" y1="-0.00683594" x2="34.0043" y2="68.0001" gradientUnits="userSpaceOnUse">
<stop stop-color="#79CCC8"/>
<stop offset="1" stop-color="#0F9BE6"/>
</linearGradient>
<linearGradient id="paint1_linear_422_23369" x1="46.4669" y1="37.4004" x2="46.4669" y2="54.4004" gradientUnits="userSpaceOnUse">
<stop stop-color="#79CCC8"/>
<stop offset="1" stop-color="#0F9BE6"/>
</linearGradient>
<linearGradient id="paint2_linear_422_23369" x1="46.4669" y1="56.667" x2="46.4669" y2="63.467" gradientUnits="userSpaceOnUse">
<stop stop-color="#79CCC8"/>
<stop offset="1" stop-color="#0F9BE6"/>
</linearGradient>
<linearGradient id="paint3_linear_422_23369" x1="30.0332" y1="19.2666" x2="30.0332" y2="21.5333" gradientUnits="userSpaceOnUse">
<stop stop-color="#79CCC8"/>
<stop offset="1" stop-color="#0F9BE6"/>
</linearGradient>
<linearGradient id="paint4_linear_422_23369" x1="26.0665" y1="23.7998" x2="26.0665" y2="26.0665" gradientUnits="userSpaceOnUse">
<stop stop-color="#79CCC8"/>
<stop offset="1" stop-color="#0F9BE6"/>
</linearGradient>
<linearGradient id="paint5_linear_422_23369" x1="30.0332" y1="31.7334" x2="30.0332" y2="34.0001" gradientUnits="userSpaceOnUse">
<stop stop-color="#79CCC8"/>
<stop offset="1" stop-color="#0F9BE6"/>
</linearGradient>
<linearGradient id="paint6_linear_422_23369" x1="26.0665" y1="36.2666" x2="26.0665" y2="38.5333" gradientUnits="userSpaceOnUse">
<stop stop-color="#79CCC8"/>
<stop offset="1" stop-color="#0F9BE6"/>
</linearGradient>
<linearGradient id="paint7_linear_422_23369" x1="26.6332" y1="44.2002" x2="26.6332" y2="46.4669" gradientUnits="userSpaceOnUse">
<stop stop-color="#79CCC8"/>
<stop offset="1" stop-color="#0F9BE6"/>
</linearGradient>
<linearGradient id="paint8_linear_422_23369" x1="24.9332" y1="48.7334" x2="24.9332" y2="51.0001" gradientUnits="userSpaceOnUse">
<stop stop-color="#79CCC8"/>
<stop offset="1" stop-color="#0F9BE6"/>
</linearGradient>
<linearGradient id="paint9_linear_422_23369" x1="14.7336" y1="17" x2="14.7336" y2="28.3338" gradientUnits="userSpaceOnUse">
<stop stop-color="#79CCC8"/>
<stop offset="1" stop-color="#0F9BE6"/>
</linearGradient>
<linearGradient id="paint10_linear_422_23369" x1="14.7406" y1="29.4658" x2="14.7406" y2="40.7998" gradientUnits="userSpaceOnUse">
<stop stop-color="#79CCC8"/>
<stop offset="1" stop-color="#0F9BE6"/>
</linearGradient>
<linearGradient id="paint11_linear_422_23369" x1="14.7417" y1="41.9268" x2="14.7417" y2="53.2664" gradientUnits="userSpaceOnUse">
<stop stop-color="#79CCC8"/>
<stop offset="1" stop-color="#0F9BE6"/>
</linearGradient>
<clipPath id="clip0_422_23369">
<rect width="68" height="68" fill="white"/>
</clipPath>
</defs>
</svg>
