<svg width="88" height="88" viewBox="0 0 88 88" fill="none" xmlns="http://www.w3.org/2000/svg">
<path d="M87.5 44C87.5 68.0244 68.0244 87.5 44 87.5C19.9756 87.5 0.5 68.0244 0.5 44C0.5 19.9756 19.9756 0.5 44 0.5C68.0244 0.5 87.5 19.9756 87.5 44Z" stroke="url(#paint0_linear_422_1934)"/>
<path d="M68.3454 29.9291C68.2761 28.4033 68.2761 26.9468 68.2761 25.4903C68.2761 24.3112 67.3744 23.4096 66.1954 23.4096C57.5257 23.4096 50.9368 20.9127 45.4576 15.5722C44.6253 14.8093 43.3768 14.8093 42.5445 15.5722C37.0653 20.9127 30.4764 23.4096 21.8067 23.4096C20.6277 23.4096 19.726 24.3112 19.726 25.4903C19.726 26.9468 19.726 28.4033 19.6567 29.9291C19.3792 44.4942 18.9631 64.4691 43.3075 72.8613L44.0011 73L44.6946 72.8613C68.9697 64.4691 68.6229 44.5635 68.3454 29.9291ZM42.3365 50.1121C41.9203 50.4589 41.4348 50.667 40.88 50.667H40.8106C40.2558 50.667 39.7009 50.3895 39.3541 49.9734L32.9039 42.8296L36.025 40.0553L41.088 45.6732L52.3239 34.9922L55.1676 38.0439L42.3365 50.1121Z" fill="url(#paint1_linear_422_1934)"/>
<defs>
<linearGradient id="paint0_linear_422_1934" x1="44" y1="0" x2="44" y2="88" gradientUnits="userSpaceOnUse">
<stop stop-color="#25A6E0"/>
<stop offset="1" stop-color="#43B2E3" stop-opacity="0"/>
</linearGradient>
<linearGradient id="paint1_linear_422_1934" x1="43.9999" y1="15" x2="43.9999" y2="73" gradientUnits="userSpaceOnUse">
<stop stop-color="#80D0C8"/>
<stop offset="1" stop-color="#0596E8"/>
</linearGradient>
</defs>
</svg>
