<svg width="68" height="68" viewBox="0 0 68 68" fill="none" xmlns="http://www.w3.org/2000/svg">
<g clip-path="url(#clip0_422_13899)">
<path d="M63.3106 68H4.68938C2.10364 68 0 65.8964 0 63.3106V54.7406C0 53.7777 0.780692 52.997 1.74359 52.997H23.6646C24.376 52.997 25.0159 53.4291 25.2818 54.0888L26.6079 57.3794H41.3609L42.687 54.0889C42.9529 53.4291 43.5928 52.997 44.3042 52.997H66.2564C67.2193 52.997 68 53.7777 68 54.7406V63.3106C68 65.8964 65.8964 68 63.3106 68ZM3.48718 56.4842V63.3106C3.48718 63.9735 4.02638 64.5128 4.68938 64.5128H63.3106C63.9736 64.5128 64.5128 63.9735 64.5128 63.3106V56.4842H45.4813L44.1551 59.7746C43.8892 60.4344 43.2493 60.8665 42.5379 60.8665H25.4307C24.7193 60.8665 24.0794 60.4344 23.8135 59.7748L22.4874 56.4842H3.48718Z" fill="url(#paint0_linear_422_13899)"/>
<path d="M58.6929 20.4436H53.7186V16.5831C53.7186 15.7775 53.1665 15.0765 52.383 14.8879L49.1792 14.1167C49.0006 13.6221 48.7966 13.1356 48.5683 12.6598L50.2752 9.89153C50.7019 9.19947 50.5937 8.30457 50.0143 7.73413L45.88 3.66299C45.3144 3.10591 44.4436 3.00144 43.762 3.40872L40.9332 5.1C40.4388 4.86709 39.9331 4.65945 39.4183 4.47797L38.6351 1.32353C38.4421 0.545889 37.7441 0 36.9429 0H31.096C30.2948 0 29.5968 0.545889 29.4038 1.32338L28.6243 4.46301C28.1092 4.64303 27.6025 4.8495 27.1075 5.08111L24.2657 3.38213C23.5841 2.97456 22.7134 3.07918 22.1477 3.6364L18.0132 7.70754C17.4339 8.27798 17.3258 9.17288 17.7524 9.86494L19.4513 12.6202C19.2218 13.0954 19.0165 13.5813 18.8365 14.0754L15.6175 14.8503C14.8341 15.0389 14.2821 15.7397 14.2821 16.5455V20.4436H9.30778C6.74397 20.4436 4.6582 22.5294 4.6582 25.0932V42.9639C4.6582 43.9268 5.4389 44.7075 6.40179 44.7075C7.36469 44.7075 8.14538 43.9268 8.14538 42.9639V25.0932C8.14538 24.4522 8.66686 23.9308 9.30778 23.9308H58.6931C59.334 23.9308 59.8555 24.4522 59.8555 25.0932V42.9639C59.8555 43.9268 60.6362 44.7075 61.5991 44.7075C62.5619 44.7075 63.3426 43.9268 63.3426 42.9639V25.0932C63.3425 22.5294 61.2567 20.4436 58.6929 20.4436ZM29.5756 19.4429C29.5756 16.9983 31.5605 15.0095 34.0003 15.0095C36.4402 15.0095 38.4251 16.9984 38.4251 19.4429C38.4251 19.7841 38.3871 20.1184 38.312 20.4436H29.6886C29.6136 20.1184 29.5756 19.7842 29.5756 19.4429ZM50.2314 20.4436H41.8482C41.8897 20.1141 41.9123 19.7806 41.9123 19.4429C41.9123 15.0755 38.363 11.5224 34.0003 11.5224C29.6377 11.5224 26.0884 15.0755 26.0884 19.4429C26.0884 19.7806 26.1112 20.1141 26.1525 20.4436H17.7693V17.9192L20.5981 17.2381C21.2065 17.0917 21.6896 16.6305 21.8642 16.0298C22.1281 15.122 22.5009 14.2409 22.9723 13.411C23.2867 12.8574 23.2744 12.1767 22.9403 11.6348L21.45 9.21749L23.6337 7.06721L26.1426 8.56713C26.6731 8.88417 27.3318 8.89696 27.874 8.6004C28.7219 8.13661 29.6221 7.77045 30.5491 7.51211C31.1542 7.34342 31.6218 6.86233 31.7732 6.25266L32.4596 3.48718H35.5792L36.2686 6.26428C36.4196 6.87221 36.8848 7.35228 37.4877 7.52228C38.4142 7.78353 39.3132 8.1523 40.1596 8.61827C40.7026 8.91715 41.3635 8.90553 41.8953 8.58747L44.394 7.09379L46.5777 9.24393L45.0812 11.6714C44.7481 12.2117 44.7348 12.8902 45.0466 13.4431C45.5156 14.2748 45.8858 15.1569 46.1469 16.0653C46.3203 16.6684 46.8044 17.1319 47.4147 17.2788L50.2314 17.9568V20.4436Z" fill="url(#paint1_linear_422_13899)"/>
<path d="M17.2637 40.6737L27.8621 46.1326V42.7887L21.5241 39.6117L27.8621 36.4348V33.0909L17.2637 38.5498V40.6737Z" fill="url(#paint2_linear_422_13899)"/>
<path d="M29.7129 46.3137H32.9146L38.9186 30.7678H35.6959L29.7129 46.3137Z" fill="url(#paint3_linear_422_13899)"/>
<path d="M40.1387 33.0938V36.4367L46.5211 39.6117L40.1387 42.7868V46.1297L50.7371 40.6939V38.5296L40.1387 33.0938Z" fill="url(#paint4_linear_422_13899)"/>
<path d="M61.6213 50.5234C62.6645 50.5234 63.5102 49.6777 63.5102 48.6345C63.5102 47.5913 62.6645 46.7456 61.6213 46.7456C60.5781 46.7456 59.7324 47.5913 59.7324 48.6345C59.7324 49.6777 60.5781 50.5234 61.6213 50.5234Z" fill="url(#paint5_linear_422_13899)"/>
<path d="M6.40647 50.5234C7.44967 50.5234 8.29536 49.6777 8.29536 48.6345C8.29536 47.5913 7.44967 46.7456 6.40647 46.7456C5.36326 46.7456 4.51758 47.5913 4.51758 48.6345C4.51758 49.6777 5.36326 50.5234 6.40647 50.5234Z" fill="url(#paint6_linear_422_13899)"/>
</g>
<defs>
<linearGradient id="paint0_linear_422_13899" x1="34" y1="52.997" x2="34" y2="68" gradientUnits="userSpaceOnUse">
<stop stop-color="#72CACC"/>
<stop offset="1" stop-color="#109BE6"/>
</linearGradient>
<linearGradient id="paint1_linear_422_13899" x1="34.0004" y1="0" x2="34.0004" y2="44.7075" gradientUnits="userSpaceOnUse">
<stop stop-color="#72CACC"/>
<stop offset="1" stop-color="#109BE6"/>
</linearGradient>
<linearGradient id="paint2_linear_422_13899" x1="22.5629" y1="33.0909" x2="22.5629" y2="46.1326" gradientUnits="userSpaceOnUse">
<stop stop-color="#72CACC"/>
<stop offset="1" stop-color="#109BE6"/>
</linearGradient>
<linearGradient id="paint3_linear_422_13899" x1="34.3157" y1="30.7678" x2="34.3157" y2="46.3137" gradientUnits="userSpaceOnUse">
<stop stop-color="#72CACC"/>
<stop offset="1" stop-color="#109BE6"/>
</linearGradient>
<linearGradient id="paint4_linear_422_13899" x1="45.4379" y1="33.0938" x2="45.4379" y2="46.1297" gradientUnits="userSpaceOnUse">
<stop stop-color="#72CACC"/>
<stop offset="1" stop-color="#109BE6"/>
</linearGradient>
<linearGradient id="paint5_linear_422_13899" x1="61.6213" y1="46.7456" x2="61.6213" y2="50.5234" gradientUnits="userSpaceOnUse">
<stop stop-color="#72CACC"/>
<stop offset="1" stop-color="#109BE6"/>
</linearGradient>
<linearGradient id="paint6_linear_422_13899" x1="6.40647" y1="46.7456" x2="6.40647" y2="50.5234" gradientUnits="userSpaceOnUse">
<stop stop-color="#72CACC"/>
<stop offset="1" stop-color="#109BE6"/>
</linearGradient>
<clipPath id="clip0_422_13899">
<rect width="68" height="68" fill="white"/>
</clipPath>
</defs>
</svg>
