<svg width="64" height="64" viewBox="0 0 64 64" fill="none" xmlns="http://www.w3.org/2000/svg">
<path d="M49 34.125H46.875V36.25H49C51.5217 36.25 53.9868 36.9978 56.0835 38.3988C58.1802 39.7998 59.8144 41.791 60.7795 44.1208C61.7445 46.4505 61.997 49.0141 61.505 51.4874C61.0131 53.9607 59.7987 56.2325 58.0156 58.0156C56.2325 59.7987 53.9607 61.0131 51.4874 61.505C49.0141 61.997 46.4505 61.7445 44.1208 60.7795C41.791 59.8144 39.7998 58.1802 38.3988 56.0835C36.9978 53.9868 36.25 51.5217 36.25 49V41.5625H34.125V49C34.125 51.942 34.9974 54.8179 36.6319 57.2641C38.2664 59.7103 40.5895 61.6169 43.3076 62.7427C46.0256 63.8686 49.0165 64.1631 51.902 63.5892C54.7874 63.0152 57.4379 61.5985 59.5182 59.5182C61.5985 57.4379 63.0152 54.7874 63.5892 51.902C64.1631 49.0165 63.8686 46.0256 62.7427 43.3076C61.6169 40.5895 59.7103 38.2664 57.2641 36.6319C54.8179 34.9974 51.942 34.125 49 34.125Z" fill="url(#paint0_linear_422_23483)"/>
<path d="M27.75 49C27.75 51.5217 27.0022 53.9868 25.6012 56.0835C24.2003 58.1802 22.209 59.8144 19.8792 60.7795C17.5495 61.7445 14.9859 61.997 12.5126 61.505C10.0393 61.0131 7.76751 59.7987 5.9844 58.0156C4.20128 56.2325 2.98696 53.9607 2.49499 51.4874C2.00303 49.0141 2.25553 46.4505 3.22054 44.1208C4.18556 41.791 5.81976 39.7998 7.91649 38.3988C10.0132 36.9978 12.4783 36.25 15 36.25H17.125V34.125H15C12.058 34.125 9.18208 34.9974 6.7359 36.6319C4.28972 38.2664 2.38315 40.5895 1.2573 43.3076C0.131445 46.0256 -0.16313 49.0165 0.410826 51.902C0.984781 54.7874 2.40149 57.4379 4.48179 59.5182C6.5621 61.5985 9.21257 63.0152 12.098 63.5892C14.9835 64.1631 17.9744 63.8686 20.6924 62.7427C23.4105 61.6169 25.7336 59.7103 27.3681 57.2641C29.0026 54.8179 29.875 51.942 29.875 49V41.5625H27.75V49Z" fill="url(#paint1_linear_422_23483)"/>
<path d="M15 29.875H17.125V27.75H15C12.4783 27.75 10.0132 27.0022 7.91649 25.6012C5.81976 24.2003 4.18556 22.209 3.22054 19.8792C2.25553 17.5495 2.00303 14.9859 2.49499 12.5126C2.98696 10.0393 4.20128 7.76751 5.9844 5.9844C7.76751 4.20128 10.0393 2.98696 12.5126 2.49499C14.9859 2.00303 17.5495 2.25553 19.8792 3.22054C22.209 4.18556 24.2003 5.81976 25.6012 7.91649C27.0022 10.0132 27.75 12.4783 27.75 15V22.4375H29.875V15C29.875 12.058 29.0026 9.18208 27.3681 6.7359C25.7336 4.28972 23.4105 2.38315 20.6924 1.2573C17.9744 0.131445 14.9835 -0.16313 12.098 0.410826C9.21257 0.984781 6.5621 2.40149 4.48179 4.48179C2.40149 6.5621 0.984781 9.21257 0.410826 12.098C-0.16313 14.9835 0.131445 17.9744 1.2573 20.6924C2.38315 23.4105 4.28972 25.7336 6.7359 27.3681C9.18208 29.0026 12.058 29.875 15 29.875Z" fill="url(#paint2_linear_422_23483)"/>
<path d="M36.25 15C36.25 12.4783 36.9978 10.0132 38.3988 7.91649C39.7998 5.81976 41.791 4.18556 44.1208 3.22054C46.4505 2.25553 49.0141 2.00303 51.4874 2.49499C53.9607 2.98696 56.2325 4.20128 58.0156 5.9844C59.7987 7.76751 61.0131 10.0393 61.505 12.5126C61.997 14.9859 61.7445 17.5495 60.7795 19.8792C59.8144 22.209 58.1802 24.2003 56.0835 25.6012C53.9868 27.0022 51.5217 27.75 49 27.75H46.875V29.875H49C51.942 29.875 54.8179 29.0026 57.2641 27.3681C59.7103 25.7336 61.6169 23.4105 62.7427 20.6924C63.8686 17.9744 64.1631 14.9835 63.5892 12.098C63.0152 9.21257 61.5985 6.5621 59.5182 4.48179C57.4379 2.40149 54.7874 0.984781 51.902 0.410826C49.0165 -0.16313 46.0256 0.131445 43.3076 1.2573C40.5895 2.38315 38.2664 4.28972 36.6319 6.7359C34.9974 9.18208 34.125 12.058 34.125 15V22.4375H36.25V15Z" fill="url(#paint3_linear_422_23483)"/>
<path d="M44.75 36.25V27.75C44.749 26.9049 44.4129 26.0947 43.8153 25.4972C43.2178 24.8996 42.4076 24.5635 41.5625 24.5625H22.4375C21.5924 24.5635 20.7822 24.8996 20.1847 25.4972C19.5871 26.0947 19.251 26.9049 19.25 27.75V36.25C19.251 37.0951 19.5871 37.9053 20.1847 38.5028C20.7822 39.1004 21.5924 39.4365 22.4375 39.4375H41.5625C42.4076 39.4365 43.2178 39.1004 43.8153 38.5028C44.4129 37.9053 44.749 37.0951 44.75 36.25ZM21.375 36.25V27.75C21.3753 27.4683 21.4874 27.1982 21.6866 26.9991C21.8857 26.7999 22.1558 26.6878 22.4375 26.6875H41.5625C41.8442 26.6878 42.1143 26.7999 42.3134 26.9991C42.5126 27.1982 42.6247 27.4683 42.625 27.75V36.25C42.6247 36.5317 42.5126 36.8018 42.3134 37.0009C42.1143 37.2001 41.8442 37.3122 41.5625 37.3125H22.4375C22.1558 37.3122 21.8857 37.2001 21.6866 37.0009C21.4874 36.8018 21.3753 36.5317 21.375 36.25Z" fill="url(#paint4_linear_422_23483)"/>
<path d="M32 28.8125C31.3696 28.8125 30.7533 28.9994 30.2291 29.3497C29.7049 29.6999 29.2964 30.1978 29.0551 30.7802C28.8139 31.3626 28.7508 32.0035 28.8737 32.6218C28.9967 33.2402 29.3003 33.8081 29.7461 34.2539C30.1919 34.6997 30.7598 35.0033 31.3782 35.1263C31.9965 35.2492 32.6374 35.1861 33.2198 34.9449C33.8022 34.7036 34.3001 34.2951 34.6503 33.7709C35.0006 33.2467 35.1875 32.6304 35.1875 32C35.1865 31.1549 34.8504 30.3447 34.2528 29.7472C33.6553 29.1496 32.8451 28.8135 32 28.8125ZM32 33.0625C31.7899 33.0625 31.5844 33.0002 31.4097 32.8834C31.235 32.7667 31.0988 32.6007 31.0184 32.4066C30.938 32.2125 30.9169 31.9988 30.9579 31.7927C30.9989 31.5866 31.1001 31.3973 31.2487 31.2487C31.3973 31.1001 31.5866 30.9989 31.7927 30.9579C31.9988 30.9169 32.2125 30.938 32.4066 31.0184C32.6007 31.0988 32.7667 31.235 32.8834 31.4097C33.0002 31.5844 33.0625 31.7899 33.0625 32C33.0622 32.2817 32.9501 32.5518 32.7509 32.7509C32.5518 32.9501 32.2817 33.0622 32 33.0625Z" fill="url(#paint5_linear_422_23483)"/>
<path d="M23.5 35.1875H26.6875V33.0625H25.625V30.9375H26.6875V28.8125H23.5V35.1875Z" fill="url(#paint6_linear_422_23483)"/>
<path d="M37.3125 30.9376H38.375V33.0626H37.3125V35.1876H40.5V28.8125L37.3125 28.8126V30.9376Z" fill="url(#paint7_linear_422_23483)"/>
<path d="M11.8125 10.75H18.1875V12.875H11.8125V10.75Z" fill="url(#paint8_linear_422_23483)"/>
<path d="M11.8125 15H18.1875V17.125H11.8125V15Z" fill="url(#paint9_linear_422_23483)"/>
<path d="M22.4375 6.5H7.5625V21.375H22.4375V6.5ZM20.3125 19.25H9.6875V8.625H20.3125V19.25Z" fill="url(#paint10_linear_422_23483)"/>
<path d="M7.5625 53.25H5.4375V55.375H24.5625V53.25H22.4375V43.6875H20.3125V53.25H18.1875V46.875H16.0625V53.25H13.9375V49H11.8125V53.25H9.6875V50.0625H7.5625V53.25Z" fill="url(#paint11_linear_422_23483)"/>
<path d="M7.5625 45.8122V47.9372H8.19673C10.4798 47.9426 12.7346 47.4317 14.7924 46.4426C16.8502 45.4536 18.6577 44.0121 20.0797 42.2259L18.4203 40.8984C17.1969 42.4352 15.6418 43.6754 13.8714 44.5263C12.1009 45.3773 10.161 45.8168 8.19673 45.8122H7.5625Z" fill="url(#paint12_linear_422_23483)"/>
<path d="M49 59.625H50.0625V58.5021C51.852 58.3021 53.5486 57.6009 54.9572 56.4792C56.3658 55.3575 57.429 53.8609 58.0245 52.1616C58.62 50.4623 58.7235 48.6294 58.3232 46.8738C57.923 45.1182 57.0351 43.5113 55.7619 42.2381C54.4887 40.9649 52.8818 40.077 51.1262 39.6767C49.3706 39.2765 47.5377 39.38 45.8384 39.9755C44.1391 40.571 42.6425 41.6342 41.5208 43.0428C40.3991 44.4514 39.6979 46.148 39.4979 47.9375H38.375V49C38.3782 51.817 39.4986 54.5176 41.4905 56.5095C43.4824 58.5014 46.1831 59.6218 49 59.625ZM50.0625 56.3604V50.8308L54.8598 53.5721C53.6802 55.0855 51.9614 56.0846 50.0625 56.3604ZM56.4375 49C56.4378 49.9343 56.2611 50.8602 55.9167 51.7287L50.7349 48.7677L54.9544 44.5483C55.9187 45.8319 56.4392 47.3945 56.4375 49ZM49 41.5625C50.6055 41.5608 52.1681 42.0813 53.4517 43.0456L48.5599 47.9375H41.6396C41.8972 46.1684 42.7824 44.551 44.1337 43.3806C45.4851 42.2102 47.2123 41.5649 49 41.5625ZM47.9375 50.0625V57.4339C46.0659 57.195 44.3267 56.3416 42.9925 55.0075C41.6584 53.6733 40.8049 51.9341 40.566 50.0625H47.9375Z" fill="url(#paint13_linear_422_23483)"/>
<path d="M53.25 21.0095V22.4376H55.375V19.7466C56.1967 19.0134 56.8139 18.0793 57.1661 17.0358C57.5183 15.9924 57.5934 14.8753 57.3841 13.7941C58.033 13.5913 58.6003 13.1868 59.0033 12.6393C59.4064 12.0918 59.6242 11.4299 59.625 10.7501V9.68756H57.5V10.7501C57.4996 10.998 57.4126 11.238 57.2541 11.4286C57.0955 11.6192 56.8754 11.7484 56.6317 11.794C55.8672 10.4856 54.6636 9.49048 53.2349 8.98546C53.2449 8.86599 53.25 8.74584 53.25 8.625C53.25 7.49783 52.8022 6.41683 52.0052 5.6198C51.2082 4.82277 50.1272 4.375 49 4.375C47.8728 4.375 46.7918 4.82277 45.9948 5.6198C45.1978 6.41683 44.75 7.49783 44.75 8.625C44.75 8.67205 44.7514 8.71894 44.753 8.76581C44.3588 8.85771 43.9765 8.9945 43.6136 9.17351L42.3139 7.87378L40.8111 9.37635L41.9227 10.4879C41.7859 10.6479 41.6587 10.8158 41.5417 10.9908L40.9916 11.816C40.8889 11.9699 40.7479 12.0944 40.5825 12.1772L38.375 13.2809V16.5026L41.3803 19.5079C41.4398 19.5674 41.5011 19.6246 41.5625 19.6815V22.4376H43.6875V20.9857C44.3924 21.244 45.1373 21.3758 45.888 21.3751H51.125C51.849 21.3754 52.5677 21.2517 53.25 21.0095ZM46.875 8.625C46.875 8.06141 47.0989 7.52091 47.4974 7.1224C47.8959 6.72388 48.4364 6.5 49 6.5C49.5636 6.5 50.1041 6.72388 50.5026 7.1224C50.9011 7.52091 51.125 8.06141 51.125 8.625V8.62506H46.875V8.625ZM42.8828 18.0053L40.5 15.6225V14.5942L41.5329 14.0778C41.9304 13.8782 42.2817 13.5979 42.5644 13.2546L43.9987 14.6889L45.5014 13.1863L43.8585 11.5434C44.4397 11.0316 45.1877 10.7495 45.962 10.7501H51.125C52.2522 10.7501 53.3332 11.1978 54.1302 11.9949C54.9272 12.7919 55.375 13.8729 55.375 15.0001C55.375 16.1272 54.9272 17.2082 54.1302 18.0053C53.3332 18.8023 52.2522 19.2501 51.125 19.2501H45.888C45.3297 19.2516 44.7766 19.1423 44.2607 18.9287C43.7449 18.715 43.2766 18.4011 42.8828 18.0053Z" fill="url(#paint14_linear_422_23483)"/>
<defs>
<linearGradient id="paint0_linear_422_23483" x1="49" y1="34.125" x2="49" y2="63.875" gradientUnits="userSpaceOnUse">
<stop stop-color="#79CBC8"/>
<stop offset="1" stop-color="#139DE5"/>
</linearGradient>
<linearGradient id="paint1_linear_422_23483" x1="15" y1="34.125" x2="15" y2="63.875" gradientUnits="userSpaceOnUse">
<stop stop-color="#79CBC8"/>
<stop offset="1" stop-color="#139DE5"/>
</linearGradient>
<linearGradient id="paint2_linear_422_23483" x1="15" y1="0.125" x2="15" y2="29.875" gradientUnits="userSpaceOnUse">
<stop stop-color="#79CBC8"/>
<stop offset="1" stop-color="#139DE5"/>
</linearGradient>
<linearGradient id="paint3_linear_422_23483" x1="49" y1="0.125" x2="49" y2="29.875" gradientUnits="userSpaceOnUse">
<stop stop-color="#79CBC8"/>
<stop offset="1" stop-color="#139DE5"/>
</linearGradient>
<linearGradient id="paint4_linear_422_23483" x1="32" y1="24.5625" x2="32" y2="39.4375" gradientUnits="userSpaceOnUse">
<stop stop-color="#79CBC8"/>
<stop offset="1" stop-color="#139DE5"/>
</linearGradient>
<linearGradient id="paint5_linear_422_23483" x1="32" y1="28.8125" x2="32" y2="35.1875" gradientUnits="userSpaceOnUse">
<stop stop-color="#79CBC8"/>
<stop offset="1" stop-color="#139DE5"/>
</linearGradient>
<linearGradient id="paint6_linear_422_23483" x1="25.0938" y1="28.8125" x2="25.0938" y2="35.1875" gradientUnits="userSpaceOnUse">
<stop stop-color="#79CBC8"/>
<stop offset="1" stop-color="#139DE5"/>
</linearGradient>
<linearGradient id="paint7_linear_422_23483" x1="38.9062" y1="28.8125" x2="38.9062" y2="35.1876" gradientUnits="userSpaceOnUse">
<stop stop-color="#79CBC8"/>
<stop offset="1" stop-color="#139DE5"/>
</linearGradient>
<linearGradient id="paint8_linear_422_23483" x1="15" y1="10.75" x2="15" y2="12.875" gradientUnits="userSpaceOnUse">
<stop stop-color="#79CBC8"/>
<stop offset="1" stop-color="#139DE5"/>
</linearGradient>
<linearGradient id="paint9_linear_422_23483" x1="15" y1="15" x2="15" y2="17.125" gradientUnits="userSpaceOnUse">
<stop stop-color="#79CBC8"/>
<stop offset="1" stop-color="#139DE5"/>
</linearGradient>
<linearGradient id="paint10_linear_422_23483" x1="15" y1="6.5" x2="15" y2="21.375" gradientUnits="userSpaceOnUse">
<stop stop-color="#79CBC8"/>
<stop offset="1" stop-color="#139DE5"/>
</linearGradient>
<linearGradient id="paint11_linear_422_23483" x1="15" y1="43.6875" x2="15" y2="55.375" gradientUnits="userSpaceOnUse">
<stop stop-color="#79CBC8"/>
<stop offset="1" stop-color="#139DE5"/>
</linearGradient>
<linearGradient id="paint12_linear_422_23483" x1="13.8211" y1="40.8984" x2="13.8211" y2="47.9372" gradientUnits="userSpaceOnUse">
<stop stop-color="#79CBC8"/>
<stop offset="1" stop-color="#139DE5"/>
</linearGradient>
<linearGradient id="paint13_linear_422_23483" x1="48.4687" y1="39.4375" x2="48.4687" y2="59.625" gradientUnits="userSpaceOnUse">
<stop stop-color="#79CBC8"/>
<stop offset="1" stop-color="#139DE5"/>
</linearGradient>
<linearGradient id="paint14_linear_422_23483" x1="49" y1="4.375" x2="49" y2="22.4376" gradientUnits="userSpaceOnUse">
<stop stop-color="#79CBC8"/>
<stop offset="1" stop-color="#139DE5"/>
</linearGradient>
</defs>
</svg>
