<svg width="16" height="16" viewBox="0 0 16 16" fill="none" xmlns="http://www.w3.org/2000/svg">
<g clip-path="url(#clip0_422_5819)">
<path d="M15.3875 4.81997C14.6375 4.12747 13.6 3.06997 12.755 2.31997L12.705 2.28497C12.6218 2.21816 12.528 2.16577 12.4275 2.12997C10.39 1.74997 0.907512 -0.0225318 0.722512 -3.18242e-05C0.670674 0.00722819 0.621125 0.0260228 0.577512 0.0549682L0.530012 0.0924682C0.471523 0.151868 0.4271 0.223629 0.400012 0.302468L0.387512 0.334968V0.512468V0.539968C1.45501 3.51247 5.67001 13.25 6.50001 15.535C6.55001 15.69 6.64501 15.985 6.82251 16H6.86251C6.95751 16 7.36251 15.465 7.36251 15.465C7.36251 15.465 14.6025 6.68497 15.335 5.74997C15.4298 5.6348 15.5135 5.51091 15.585 5.37997C15.6033 5.27752 15.5947 5.17209 15.56 5.07395C15.5254 4.97581 15.466 4.88831 15.3875 4.81997ZM9.22001 5.84247L12.31 3.27997L14.1225 4.94997L9.22001 5.84247ZM8.02001 5.67497L2.70001 1.31497L11.3075 2.90247L8.02001 5.67497ZM8.50001 6.81747L13.945 5.93997L7.72001 13.44L8.50001 6.81747ZM1.97751 1.74997L7.57501 6.49997L6.76501 13.445L1.97751 1.74997Z" fill="#FF060A"/>
</g>
<defs>
<clipPath id="clip0_422_5819">
<rect width="16" height="16" fill="white"/>
</clipPath>
</defs>
</svg>
