<svg width="16" height="16" viewBox="0 0 16 16" fill="none" xmlns="http://www.w3.org/2000/svg">
<g clip-path="url(#clip0_422_5964)">
<path d="M8 16C12.4334 16 16 12.4334 16 8C16 3.56664 12.4334 0 8 0C3.56664 0 0 3.56664 0 8C0 12.4334 3.56664 16 8 16Z" fill="#2775CA"/>
<path d="M10.2 9.26665C10.2 8.10001 9.49998 7.70001 8.09998 7.53337C7.09998 7.40001 6.89998 7.13337 6.89998 6.66665C6.89998 6.19993 7.23334 5.90001 7.89998 5.90001C8.49998 5.90001 8.83334 6.10001 8.99998 6.60001C9.03334 6.70001 9.13334 6.76665 9.23334 6.76665H9.76662C9.89998 6.76665 9.99998 6.66665 9.99998 6.53337V6.50001C9.86662 5.76665 9.26662 5.20001 8.49998 5.13337V4.33337C8.49998 4.20001 8.39998 4.10001 8.23334 4.06665H7.73334C7.59998 4.06665 7.49998 4.16665 7.46662 4.33337V5.10001C6.46662 5.23337 5.83334 5.90001 5.83334 6.73337C5.83334 7.83337 6.49998 8.26665 7.89998 8.43337C8.83334 8.60001 9.13334 8.80001 9.13334 9.33337C9.13334 9.86673 8.66662 10.2334 8.03334 10.2334C7.16662 10.2334 6.86662 9.86665 6.76662 9.36665C6.73334 9.23337 6.63334 9.16665 6.53334 9.16665H5.96662C5.83334 9.16665 5.73334 9.26665 5.73334 9.40001V9.43337C5.86662 10.2667 6.39998 10.8667 7.49998 11.0334V11.8334C7.49998 11.9667 7.59998 12.0667 7.76662 12.1H8.26662C8.39998 12.1 8.49998 12 8.53334 11.8334V11.0334C9.53334 10.8667 10.2 10.1667 10.2 9.26665Z" fill="white"/>
<path d="M6.29998 12.7665C3.69998 11.8333 2.36662 8.93325 3.33334 6.36653C3.83334 4.96653 4.93334 3.89989 6.29998 3.39989C6.43334 3.33325 6.49998 3.23325 6.49998 3.06653V2.59989C6.49998 2.46653 6.43334 2.36653 6.29998 2.33325C6.26662 2.33325 6.19998 2.33325 6.16662 2.36653C2.99998 3.36653 1.26662 6.73325 2.26662 9.89989C2.86662 11.7665 4.29998 13.1999 6.16662 13.7999C6.29998 13.8665 6.43334 13.7999 6.46662 13.6665C6.49998 13.6333 6.49998 13.5999 6.49998 13.5333V13.0665C6.49998 12.9665 6.39998 12.8333 6.29998 12.7665ZM9.83334 2.36653C9.69998 2.29989 9.56662 2.36653 9.53334 2.49989C9.49998 2.53325 9.49998 2.56653 9.49998 2.63325V3.09989C9.49998 3.23325 9.59998 3.36653 9.69998 3.43325C12.3 4.36653 13.6333 7.26653 12.6666 9.83325C12.1666 11.2333 11.0666 12.2999 9.69998 12.7999C9.56662 12.8665 9.49998 12.9665 9.49998 13.1333V13.5999C9.49998 13.7333 9.56662 13.8333 9.69998 13.8665C9.73334 13.8665 9.79998 13.8665 9.83334 13.8333C13 12.8333 14.7333 9.46653 13.7333 6.29989C13.1333 4.39989 11.6666 2.96653 9.83334 2.36653Z" fill="white"/>
</g>
<defs>
<clipPath id="clip0_422_5964">
<rect width="16" height="16" fill="white"/>
</clipPath>
</defs>
</svg>
