<svg width="83" height="70" viewBox="0 0 83 70" fill="none" xmlns="http://www.w3.org/2000/svg">
<path d="M68.0863 34.4521C68.0863 53.3114 53.0373 68.5983 34.4727 68.5983C15.9088 68.5983 0.859375 53.3114 0.859375 34.4521C0.859375 15.5934 15.9088 0.305664 34.4727 0.305664C53.0373 0.305664 68.0863 15.5934 68.0863 34.4521Z" fill="#1BA27A"/>
<path d="M50.4201 18.7805H20.168V26.3845H31.6423V37.561H38.9457V26.3845H50.4201V18.7805Z" fill="white"/>
<path d="M35.2942 37.8307C25.3747 37.8307 17.3326 36.3336 17.3326 34.4864C17.3326 32.6396 25.3744 31.1421 35.2942 31.1421C45.2137 31.1421 53.2555 32.6396 53.2555 34.4864C53.2555 36.3336 45.2137 37.8307 35.2942 37.8307ZM55.4621 35.044C55.4621 32.6622 46.4327 30.7317 35.2942 30.7317C24.156 30.7317 15.126 32.6622 15.126 35.044C15.126 37.1414 22.1277 38.8888 31.4059 39.276V54.6341H39.0377V39.2821C48.3873 38.907 55.4621 37.1522 55.4621 35.044Z" fill="white"/>
<path d="M62.8052 51.6634C71.6253 51.6634 78.7754 44.4017 78.7754 35.4439C78.7754 26.4861 71.6253 19.2244 62.8052 19.2244C53.9851 19.2244 46.835 26.4861 46.835 35.4439C46.835 44.4017 53.9851 51.6634 62.8052 51.6634Z" fill="#5364F6"/>
<g clip-path="url(#clip0_422_20105)">
<g opacity="0.6">
<path opacity="0.6" d="M62.9157 32.583L56.5186 35.4998L62.9157 39.2888L69.3104 35.4998L62.9157 32.583Z" fill="#010101"/>
</g>
<g opacity="0.45">
<path opacity="0.45" d="M56.5186 35.4996L62.9157 39.2886V24.8586L56.5186 35.4996Z" fill="#010101"/>
</g>
<g opacity="0.8">
<path opacity="0.8" d="M62.915 24.8586V39.2886L69.3097 35.4996L62.915 24.8586Z" fill="#010101"/>
</g>
<g opacity="0.45">
<path opacity="0.45" d="M56.5186 36.7146L62.9157 45.7497V40.5036L56.5186 36.7146Z" fill="#010101"/>
</g>
<g opacity="0.8">
<path opacity="0.8" d="M62.915 40.5036V45.7497L69.3147 36.7146L62.915 40.5036Z" fill="#010101"/>
</g>
</g>
<defs>
<clipPath id="clip0_422_20105">
<rect width="13.7815" height="21.4098" fill="white" transform="translate(56.0225 24.8586)"/>
</clipPath>
</defs>
</svg>
