<svg width="160" height="37" fill="none" xmlns="http://www.w3.org/2000/svg"><path fill="#fff" d="M55.192 10.529h-4.828v11.704h-3.65V10.529h-4.828V7.324h13.306v3.205ZM70.754 22.233h-4.428l-4.495-5.118h-1.068v5.118h-3.671V7.324h7.543c1.617 0 2.915.453 3.894 1.358.98.89 1.469 2.062 1.469 3.515 0 1.217-.349 2.248-1.046 3.093-.697.831-1.654 1.38-2.87 1.647l4.672 5.296Zm-9.99-8.189h3.47c.653 0 1.172-.163 1.558-.49.4-.326.6-.763.6-1.312 0-.534-.2-.964-.6-1.29-.386-.327-.905-.49-1.558-.49h-3.47v3.582ZM85.476 7.324v8.189c0 2.136-.608 3.85-1.824 5.14-1.202 1.276-2.796 1.914-4.784 1.914-2.033 0-3.672-.638-4.918-1.914-1.231-1.29-1.847-3.004-1.847-5.14V7.324h3.672v8.189c0 1.127.282 2.025.845 2.692.564.653 1.313.98 2.248.98.89 0 1.602-.327 2.136-.98.534-.667.8-1.565.8-2.692V7.324h3.672ZM94.034 6.99c1.631 0 2.996.386 4.094 1.158 1.098.756 1.787 1.81 2.069 3.16l-3.605.734c-.133-.668-.445-1.18-.934-1.536a2.691 2.691 0 0 0-1.669-.556c-.593 0-1.075.149-1.446.445-.371.282-.556.638-.556 1.068 0 .653.4 1.068 1.201 1.246l3.093.69c2.73.608 4.094 2.055 4.094 4.339 0 1.528-.586 2.715-1.758 3.56-1.172.846-2.633 1.269-4.383 1.269-1.736 0-3.212-.394-4.428-1.18-1.202-.8-1.899-1.913-2.092-3.338l3.783-.734c.356 1.469 1.335 2.203 2.937 2.203.683 0 1.217-.14 1.602-.423.4-.281.601-.652.601-1.112 0-.356-.104-.638-.311-.846-.193-.207-.55-.363-1.069-.467l-3.115-.668c-2.67-.608-4.005-2.047-4.005-4.316 0-1.44.542-2.581 1.624-3.427 1.083-.846 2.507-1.268 4.273-1.268ZM114.851 10.529h-4.829v11.704h-3.649V10.529h-4.828V7.324h13.306v3.205ZM136.451 10.55v3.138h6.986v3.204h-6.986v5.34h-3.672V7.325h11.526v3.227h-7.854ZM155.661 22.233l-3.115-5.073-3.093 5.073h-4.339l4.673-7.477-4.629-7.432h4.339l3.049 5.03 3.07-5.03h4.339l-4.628 7.432L160 22.233h-4.339Z"/><path fill="url('#a')" d="M121.494 10.173v8.963l5.975-4.98-5.975-3.983Z"/><path fill="#fff" d="M48.622 28.94H46.5v5.126h-.685v-5.127h-2.13v-.607h4.937v.607ZM51.645 29.804c.12 0 .22.011.3.034l-.051.625a2.522 2.522 0 0 0-.248-.009c-.543 0-.962.183-1.258.548-.291.365-.437.844-.437 1.438v1.626h-.659v-4.22h.659v1.036c.394-.719.959-1.078 1.694-1.078ZM54.499 29.744c.536 0 .961.14 1.275.42.314.273.47.661.47 1.163v2.739h-.633v-.642c-.376.502-.904.753-1.583.753-.462 0-.833-.12-1.112-.36-.28-.24-.42-.55-.42-.932 0-.394.149-.71.445-.95.297-.245.713-.368 1.25-.368h1.42v-.197c0-.325-.096-.582-.29-.77-.194-.189-.457-.283-.788-.283-.32 0-.585.077-.796.231a.914.914 0 0 0-.385.617l-.625-.137c.069-.383.266-.69.59-.925.326-.24.72-.36 1.182-.36Zm-.377 3.894c.417 0 .768-.128 1.053-.385.291-.257.437-.574.437-.95v-.223h-1.43c-.336 0-.599.074-.787.223a.69.69 0 0 0-.274.573c0 .223.091.405.274.548.182.142.425.214.727.214ZM61.764 27.476v6.59h-.65v-.702c-.388.542-.947.813-1.678.813a2.047 2.047 0 0 1-1.489-.616c-.41-.417-.616-.95-.616-1.6 0-.651.205-1.182.616-1.592a2.033 2.033 0 0 1 1.49-.625c.73 0 1.289.27 1.677.813v-3.081h.65Zm-2.225 6.12a1.53 1.53 0 0 0 1.095-.454c.32-.309.48-.702.48-1.182 0-.485-.16-.878-.48-1.18a1.516 1.516 0 0 0-1.095-.463c-.45 0-.827.151-1.13.454-.296.302-.445.699-.445 1.19 0 .49.151.887.454 1.189.302.297.676.445 1.121.445ZM67.313 31.85v.239h-3.62c.029.456.191.824.488 1.104.297.274.636.41 1.018.41.69 0 1.17-.302 1.438-.907l.582.137a2.027 2.027 0 0 1-.779 1.002c-.348.228-.761.342-1.24.342a2.086 2.086 0 0 1-1.507-.616c-.422-.411-.633-.942-.633-1.592 0-.656.214-1.19.642-1.6a2.13 2.13 0 0 1 1.54-.625c.576 0 1.059.197 1.447.59.393.388.601.893.624 1.515Zm-2.07-1.533c-.366 0-.697.117-.993.351-.291.228-.468.54-.531.933h2.935c-.057-.405-.216-.719-.479-.941a1.375 1.375 0 0 0-.933-.343ZM70.96 29.804c.119 0 .219.011.299.034l-.052.625a2.522 2.522 0 0 0-.248-.009c-.542 0-.961.183-1.258.548-.29.365-.436.844-.436 1.438v1.626h-.66v-4.22h.66v1.036c.393-.719.958-1.078 1.694-1.078ZM71.877 32.928l.65-.146a.82.82 0 0 0 .386.633c.228.149.513.223.856.223.302 0 .545-.066.727-.197a.608.608 0 0 0 .282-.522c0-.302-.23-.505-.693-.608l-.967-.214c-.73-.154-1.095-.513-1.095-1.078 0-.382.145-.69.436-.924.291-.234.68-.351 1.164-.351.462 0 .845.108 1.147.325.302.211.493.494.573.847l-.624.137a.89.89 0 0 0-.36-.565c-.194-.142-.445-.213-.753-.213-.29 0-.52.065-.685.196a.593.593 0 0 0-.248.497c0 .16.052.285.154.376.109.086.271.154.488.206l1.019.222c.724.16 1.086.528 1.086 1.104 0 .411-.157.73-.47.959-.308.228-.72.342-1.233.342-.502 0-.921-.108-1.258-.325a1.238 1.238 0 0 1-.582-.924ZM83.797 28.332v3.226c0 .782-.22 1.415-.659 1.9-.433.48-1.01.719-1.729.719-.724 0-1.309-.24-1.754-.719-.44-.485-.659-1.118-.659-1.9v-3.226h.676v3.226c0 .594.157 1.07.47 1.43.32.359.743.539 1.267.539.514 0 .928-.18 1.241-.54.314-.359.471-.835.471-1.429v-3.226h.676ZM87.587 29.744c.508 0 .916.165 1.224.496.314.331.47.765.47 1.301v2.525h-.65V31.66c0-.394-.108-.71-.325-.95a1.077 1.077 0 0 0-.847-.368c-.45 0-.807.148-1.07.445-.262.297-.393.713-.393 1.25v2.028h-.65v-4.22h.65v.702c.359-.536.89-.804 1.591-.804ZM90.934 28.263a.43.43 0 0 1 .316-.128.43.43 0 0 1 .317.128.407.407 0 0 1 .137.308.43.43 0 0 1-.128.317.458.458 0 0 1-.326.12.446.446 0 0 1-.316-.12.43.43 0 0 1-.129-.317.42.42 0 0 1 .129-.308Zm.65 5.803h-.659v-4.22h.66v4.22ZM95.645 33.304l.214.54c-.32.222-.644.333-.975.333-.428 0-.768-.123-1.019-.368-.25-.251-.376-.605-.376-1.061v-2.354h-.916v-.547h.916v-1.515h.659v1.515h1.506v.547h-1.506v2.311c0 .268.068.48.205.633.143.149.334.223.574.223.24 0 .479-.086.718-.257ZM100.608 31.85v.239h-3.62c.029.456.191.824.488 1.104.297.274.636.41 1.019.41.69 0 1.17-.302 1.437-.907l.582.137a2.025 2.025 0 0 1-.779 1.002c-.348.228-.761.342-1.24.342a2.086 2.086 0 0 1-1.507-.616c-.422-.411-.633-.942-.633-1.592 0-.656.214-1.19.642-1.6a2.13 2.13 0 0 1 1.54-.625c.576 0 1.059.197 1.447.59.393.388.602.893.624 1.515Zm-2.07-1.533c-.366 0-.697.117-.993.351-.291.228-.468.54-.531.933h2.935c-.057-.405-.216-.719-.479-.941a1.375 1.375 0 0 0-.933-.343ZM105.949 27.476v6.59h-.651v-.702c-.388.542-.947.813-1.677.813a2.046 2.046 0 0 1-1.489-.616c-.411-.417-.616-.95-.616-1.6 0-.651.205-1.182.616-1.592a2.032 2.032 0 0 1 1.489-.625c.73 0 1.289.27 1.677.813v-3.081h.651Zm-2.225 6.12a1.53 1.53 0 0 0 1.095-.454c.319-.309.479-.702.479-1.182 0-.485-.16-.878-.479-1.18a1.516 1.516 0 0 0-1.095-.463c-.451 0-.828.151-1.13.454-.297.302-.445.699-.445 1.19 0 .49.151.887.453 1.189.303.297.677.445 1.122.445ZM111.865 28.22c.565 0 1.039.143 1.421.428.388.286.631.668.728 1.147l-.677.154a1.294 1.294 0 0 0-.496-.83c-.268-.205-.599-.308-.993-.308-.388 0-.701.097-.941.291a.9.9 0 0 0-.36.745c0 .245.072.436.214.573.149.131.366.225.651.282l1.249.283c.965.205 1.447.702 1.447 1.489 0 .52-.194.933-.582 1.24-.388.309-.905.463-1.549.463-.622 0-1.15-.151-1.584-.454a1.765 1.765 0 0 1-.744-1.258l.71-.145c.063.4.246.71.548.933.302.216.679.325 1.13.325.433 0 .773-.097 1.018-.291a.95.95 0 0 0 .377-.779c0-.262-.075-.46-.223-.59-.143-.132-.379-.234-.71-.308l-1.293-.283c-.918-.205-1.377-.693-1.377-1.463 0-.49.185-.887.556-1.19.376-.302.87-.453 1.48-.453ZM119.279 29.847l-2.858 6.273h-.727l.967-2.114-1.892-4.16h.736l1.506 3.372 1.541-3.371h.727ZM119.894 32.928l.65-.146a.822.822 0 0 0 .385.633c.228.149.514.223.856.223.302 0 .545-.066.727-.197a.607.607 0 0 0 .283-.522c0-.302-.231-.505-.693-.608l-.967-.214c-.731-.154-1.096-.513-1.096-1.078 0-.382.146-.69.437-.924.291-.234.679-.351 1.164-.351.462 0 .844.108 1.146.325.303.211.494.494.574.847l-.625.137a.891.891 0 0 0-.359-.565c-.194-.142-.445-.213-.754-.213-.291 0-.519.065-.684.196a.592.592 0 0 0-.248.497c0 .16.051.285.154.376.108.086.271.154.487.206l1.019.222c.724.16 1.087.528 1.087 1.104 0 .411-.157.73-.471.959-.308.228-.719.342-1.232.342-.502 0-.922-.108-1.258-.325a1.236 1.236 0 0 1-.582-.924ZM127.073 33.304l.214.54c-.32.222-.645.333-.976.333-.428 0-.767-.123-1.018-.368-.251-.251-.377-.605-.377-1.061v-2.354H124v-.547h.916v-1.515h.659v1.515h1.506v.547h-1.506v2.311c0 .268.069.48.205.633.143.149.334.223.574.223.239 0 .479-.086.719-.257ZM132.036 31.85v.239h-3.62c.028.456.191.824.487 1.104.297.274.637.41 1.019.41.69 0 1.169-.302 1.438-.907l.581.137a2.027 2.027 0 0 1-.778 1.002c-.348.228-.762.342-1.241.342a2.085 2.085 0 0 1-1.506-.616c-.423-.411-.634-.942-.634-1.592 0-.656.214-1.19.642-1.6a2.132 2.132 0 0 1 1.541-.625c.576 0 1.058.197 1.446.59.394.388.602.893.625 1.515Zm-2.071-1.533c-.366 0-.696.117-.993.351-.291.228-.468.54-.531.933h2.936c-.057-.405-.217-.719-.48-.941a1.373 1.373 0 0 0-.932-.343ZM138.446 29.744c.45 0 .824.148 1.121.445.302.29.453.673.453 1.147v2.73h-.65v-2.619c0-.33-.103-.596-.308-.796-.2-.205-.459-.308-.779-.308-.394 0-.707.14-.941.42-.234.273-.351.655-.351 1.146v2.157h-.651v-2.619c0-.33-.102-.596-.308-.796a1.025 1.025 0 0 0-.77-.308c-.394 0-.707.14-.941.42-.229.273-.343.655-.343 1.146v2.157h-.65v-4.22h.65v.642c.32-.496.799-.744 1.438-.744.325 0 .613.077.865.231.256.148.447.357.573.625.354-.57.884-.856 1.592-.856ZM147.887 33.45v.616h-3.962v-5.734h.676v5.118h3.286ZM152.682 28.94h-2.122v5.126h-.685v-5.127h-2.131v-.607h4.938v.607ZM153.82 28.332h1.9c.981 0 1.754.268 2.319.804.571.537.856 1.224.856 2.063 0 .833-.285 1.52-.856 2.062-.565.537-1.338.805-2.319.805h-1.9v-5.734Zm.676 5.118h1.215c.782 0 1.392-.212 1.832-.634.445-.422.667-.961.667-1.617 0-.662-.222-1.204-.667-1.626-.44-.422-1.05-.634-1.832-.634h-1.215v4.51Z"/><g clip-path="url('#b')"><path fill="url('#c')" d="M0 .06v11.085h11.593v14.557l3.679 3.514V7.63H3.679V3.574L0 .06Zm19.584 7.57v25.704l3.678 3.513V11.145h5.725l-3.679-3.514h-5.724ZM6.037 0l3.68 3.513h21.459v3.9l3.68 3.513V0H6.036Z"/></g><defs><linearGradient id="prefix__a" x1="124.482" x2="124.482" y1="10.173" y2="19.136" gradientUnits="userSpaceOnUse"><stop stop-color="#80D0C8"/><stop offset="1" stop-color="#0596E8"/></linearGradient><linearGradient id="prefix__c" x1="17.427" x2="17.427" y1="0" y2="36.847" gradientUnits="userSpaceOnUse"><stop stop-color="#80D0C8"/><stop offset="1" stop-color="#0596E8"/></linearGradient><clipPath id="prefix__b"><path fill="#fff" d="M0 0h34.855v36.847H0z"/></clipPath></defs></svg>