<svg width="70" height="33" viewBox="0 0 70 33" fill="none" xmlns="http://www.w3.org/2000/svg">
<g clip-path="url(#clip0_422_1758)">
<path d="M69.5 54.5V32.5L53 16.5L43.5 25L26.5 10.5L16.5 17L0 0L-1 54.5H69.5Z" fill="url(#paint0_linear_422_1758)"/>
<path d="M69.6542 32.9546L70 32.5827L52.5538 16.3958L43.3349 24.4207L26.1497 10.4064L16.4349 16.4153L0.365364 0L0 0.358841L16.3566 17.0612L26.1105 11.0327L43.3479 25.0862L52.5408 17.0808L69.6542 32.9546Z" fill="#E20403"/>
<path d="M52.5473 18.4314C51.7041 18.4314 51.0206 17.7478 51.0206 16.9046C51.0206 16.0615 51.7041 15.3779 52.5473 15.3779C53.3905 15.3779 54.074 16.0615 54.074 16.9046C54.074 17.7478 53.3905 18.4314 52.5473 18.4314Z" fill="#E20403"/>
<path d="M43.3414 26.1693C42.4982 26.1693 41.8147 25.4857 41.8147 24.6426C41.8147 23.7994 42.4982 23.1159 43.3414 23.1159C44.1846 23.1159 44.8681 23.7994 44.8681 24.6426C44.8681 25.4857 44.1846 26.1693 43.3414 26.1693Z" fill="#E20403"/>
<path d="M26.1301 12.3572C25.2869 12.3572 24.6034 11.6736 24.6034 10.8305C24.6034 9.98729 25.2869 9.30376 26.1301 9.30376C26.9733 9.30376 27.6568 9.98729 27.6568 10.8305C27.6568 11.6736 26.9733 12.3572 26.1301 12.3572Z" fill="#E20403"/>
<path d="M16.3892 18.0007C15.546 18.0007 14.8625 17.3172 14.8625 16.474C14.8625 15.6309 15.546 14.9473 16.3892 14.9473C17.2324 14.9473 17.9159 15.6309 17.9159 16.474C17.9159 17.3172 17.2324 18.0007 16.3892 18.0007Z" fill="#E20403"/>
</g>
<defs>
<linearGradient id="paint0_linear_422_1758" x1="35.5" y1="1.5" x2="35" y2="35" gradientUnits="userSpaceOnUse">
<stop stop-color="#F45349"/>
<stop offset="1" stop-opacity="0"/>
</linearGradient>
<clipPath id="clip0_422_1758">
<rect width="70" height="32.9546" fill="white" transform="matrix(-1 0 0 1 70 0)"/>
</clipPath>
</defs>
</svg>
