<svg width="70" height="33" viewBox="0 0 70 33" fill="none" xmlns="http://www.w3.org/2000/svg">
<g clip-path="url(#clip0_422_1797)">
<path d="M0.5 54.5V32.5L17 16.5L26.5 25L43.5 10.5L53.5 17L70 0L71 54.5H0.5Z" fill="url(#paint0_linear_422_1797)"/>
<path d="M0.345792 32.9546L0 32.5827L17.4462 16.3958L26.6651 24.4207L43.8503 10.4064L53.5651 16.4153L69.6346 0L70 0.358841L53.6434 17.0612L43.8895 11.0327L26.6521 25.0862L17.4592 17.0808L0.345792 32.9546Z" fill="#378352"/>
<path d="M17.4527 18.4314C18.2959 18.4314 18.9794 17.7478 18.9794 16.9046C18.9794 16.0615 18.2959 15.3779 17.4527 15.3779C16.6096 15.3779 15.926 16.0615 15.926 16.9046C15.926 17.7478 16.6096 18.4314 17.4527 18.4314Z" fill="#378352"/>
<path d="M26.6586 26.1693C27.5018 26.1693 28.1853 25.4857 28.1853 24.6426C28.1853 23.7994 27.5018 23.1159 26.6586 23.1159C25.8154 23.1159 25.1319 23.7994 25.1319 24.6426C25.1319 25.4857 25.8154 26.1693 26.6586 26.1693Z" fill="#378352"/>
<path d="M43.8699 12.3572C44.7131 12.3572 45.3966 11.6736 45.3966 10.8305C45.3966 9.98729 44.7131 9.30376 43.8699 9.30376C43.0267 9.30376 42.3432 9.98729 42.3432 10.8305C42.3432 11.6736 43.0267 12.3572 43.8699 12.3572Z" fill="#378352"/>
<path d="M53.6107 18.0007C54.4539 18.0007 55.1375 17.3172 55.1375 16.474C55.1375 15.6309 54.4539 14.9473 53.6107 14.9473C52.7676 14.9473 52.084 15.6309 52.084 16.474C52.084 17.3172 52.7676 18.0007 53.6107 18.0007Z" fill="#378352"/>
</g>
<defs>
<linearGradient id="paint0_linear_422_1797" x1="34.5" y1="1.5" x2="35" y2="35" gradientUnits="userSpaceOnUse">
<stop stop-color="#378352"/>
<stop offset="1" stop-opacity="0"/>
</linearGradient>
<clipPath id="clip0_422_1797">
<rect width="70" height="32.9546" fill="white"/>
</clipPath>
</defs>
</svg>
