<svg width="30" height="30" viewBox="0 0 30 30" fill="none" xmlns="http://www.w3.org/2000/svg">
<path d="M29.9414 15C29.9414 17.9608 29.0625 20.8402 27.3999 23.327C27.174 23.665 26.8028 23.8477 26.4246 23.8477C26.2008 23.8477 25.9744 23.7838 25.7744 23.6499C25.2363 23.2903 25.0919 22.5625 25.4514 22.0244C26.8556 19.9244 27.5977 17.4955 27.5977 15C27.5977 13.9277 27.4635 12.8627 27.199 11.835C27.0376 11.2083 27.415 10.5693 28.0417 10.4079C28.6688 10.2468 29.3074 10.624 29.4688 11.2507C29.7823 12.4693 29.9414 13.7306 29.9414 15ZM21.4883 25.8337C19.52 27.0259 17.2561 27.6563 14.9414 27.6563C7.9628 27.6563 2.28516 21.9786 2.28516 15C2.28516 8.02139 7.9628 2.34375 14.9414 2.34375C17.5253 2.34375 20.0098 3.11691 22.1267 4.57969C22.6591 4.94751 23.389 4.81407 23.757 4.28169C24.1248 3.74931 23.9916 3.01941 23.459 2.65136C20.9486 0.916897 18.0034 -3.8147e-06 14.9414 -3.8147e-06C10.9348 -3.8147e-06 7.16789 1.56028 4.33479 4.39338C1.50169 7.22649 -0.0585938 10.9934 -0.0585938 15C-0.0585938 19.0066 1.50169 22.7735 4.33479 25.6066C7.16789 28.4397 10.9348 30 14.9414 30C17.6843 30 20.3682 29.2525 22.7028 27.8382C23.2565 27.5029 23.4334 26.7824 23.0981 26.2287C22.7625 25.6751 22.042 25.4984 21.4883 25.8337ZM15.0545 18.398C14.8689 18.4053 14.6956 18.3394 14.561 18.2112L8.42354 12.3919C7.95388 11.9465 7.21207 11.9662 6.76689 12.4358C6.32149 12.9055 6.34117 13.6473 6.81084 14.0925L12.9472 19.9109C13.5139 20.4497 14.247 20.7422 15.0238 20.7422C15.0655 20.7422 15.1071 20.7413 15.1488 20.7397C15.9716 20.7065 16.7274 20.3503 17.2767 19.7367C17.2907 19.7214 17.3039 19.7056 17.317 19.6893L29.6828 4.30847C30.0884 3.80401 30.0082 3.06633 29.5038 2.66098C28.9996 2.2554 28.2617 2.33551 27.8561 2.83996L15.5145 18.1908C15.3932 18.3174 15.2307 18.3909 15.0545 18.398Z" fill="white"/>
</svg>
