<svg width="16" height="16" viewBox="0 0 16 16" fill="none" xmlns="http://www.w3.org/2000/svg">
<g clip-path="url(#clip0_422_5824)">
<path d="M8 16C12.4183 16 16 12.4183 16 8C16 3.58172 12.4183 0 8 0C3.58172 0 0 3.58172 0 8C0 12.4183 3.58172 16 8 16Z" fill="#988430"/>
<path d="M7.99997 15.7438C12.2767 15.7438 15.7437 12.2768 15.7437 8.00009C15.7437 3.72334 12.2767 0.256348 7.99997 0.256348C3.72322 0.256348 0.256226 3.72334 0.256226 8.00009C0.256226 12.2768 3.72322 15.7438 7.99997 15.7438Z" fill="#7A6A2A"/>
<path d="M8.00002 15.5806C12.1867 15.5806 15.5806 12.1867 15.5806 8.00002C15.5806 3.81338 12.1867 0.419434 8.00002 0.419434C3.81338 0.419434 0.419434 3.81338 0.419434 8.00002C0.419434 12.1867 3.81338 15.5806 8.00002 15.5806Z" fill="#BA9F33"/>
<path fill-rule="evenodd" clip-rule="evenodd" d="M3.49774 7.14557C3.45243 7.10418 3.40456 7.06271 3.36053 7.02132C3.3165 6.97993 3.27127 6.93846 3.22596 6.89707L3.0913 6.76907C3.06929 6.74706 3.04599 6.72769 3.02397 6.70559C3.00196 6.68622 2.9761 6.6642 2.95408 6.64474C2.7754 6.47519 2.59569 6.30563 2.41947 6.13599C2.602 6.30298 2.78069 6.46879 2.96322 6.63826L3.02662 6.70175C3.04863 6.72368 3.07193 6.74313 3.09395 6.76515L3.22852 6.88939C3.27383 6.93078 3.31786 6.97225 3.36317 7.01739C3.40848 7.06254 3.45252 7.10409 3.49783 7.14539L3.49774 7.14557ZM1.12624 7.11996C1.12624 7.11996 1.77606 7.18721 2.09324 7.23252C2.38705 7.27399 3.30617 7.41505 3.30617 7.41505L1.12624 7.11996ZM1.12624 7.11996C1.30877 7.1355 1.4913 7.15487 1.67383 7.17432C1.76701 7.18337 1.85636 7.19369 1.9457 7.20274L2.08283 7.21835C2.12814 7.22475 2.17218 7.23124 2.21749 7.23772L2.76123 7.32442L3.03302 7.36974C3.12236 7.38527 3.21171 7.40216 3.30489 7.41769C3.21555 7.40865 3.12236 7.39568 3.03302 7.38271L2.76123 7.34388L2.21749 7.26367C2.17218 7.25718 2.12814 7.24805 2.08283 7.24165L1.94562 7.22586C1.85627 7.21682 1.76309 7.20385 1.67374 7.19344C1.49122 7.17151 1.30869 7.14812 1.12616 7.11971L1.12624 7.11996ZM3.24149 7.58435C3.24149 7.58435 2.54764 7.76048 2.31332 7.82781C2.08292 7.89121 1.38515 8.10352 1.38515 8.10352L3.2414 7.58443L3.24149 7.58435Z" fill="#CFB66C"/>
<path fill-rule="evenodd" clip-rule="evenodd" d="M3.24137 7.58447C3.08734 7.62978 2.93417 7.67382 2.77793 7.71529L2.31448 7.83953C2.16045 7.88485 2.00728 7.92888 1.85368 7.97419L1.62328 8.03759C1.54691 8.05961 1.46925 8.07898 1.39032 8.10108C1.46661 8.07548 1.54435 8.04928 1.62072 8.02727L1.85112 7.95354C2.00515 7.90558 2.15832 7.86027 2.31192 7.8124C2.46851 7.77357 2.62262 7.7321 2.77921 7.69455C2.92803 7.65701 3.0847 7.61954 3.24137 7.58456V7.58447ZM1.48222 8.53082C1.55851 8.50232 2.43881 8.09204 2.64335 7.99621C2.74575 7.94825 3.0434 7.84261 3.0434 7.84261L1.48222 8.53082Z" fill="#CFB66C"/>
<path fill-rule="evenodd" clip-rule="evenodd" d="M1.48226 8.53073C1.54951 8.50513 1.61299 8.47381 1.67768 8.44403L1.86925 8.35469L2.25376 8.1696C2.38176 8.10876 2.50618 8.0416 2.63819 7.98442C2.70552 7.95601 2.77284 7.93271 2.84009 7.9107L2.94249 7.87836C2.97739 7.86931 3.00982 7.8589 3.04489 7.84985C2.91689 7.9107 2.78215 7.96249 2.65398 8.02197C2.52598 8.08546 2.39507 8.13726 2.26298 8.19417L1.87207 8.36629C1.74082 8.41945 1.61282 8.47637 1.48218 8.53073H1.48226ZM1.5676 8.88913C1.5676 8.88913 2.36495 8.42184 2.63938 8.27166C2.78308 8.19144 3.24781 7.96096 3.24781 7.96096L1.5676 8.88913Z" fill="#CFB66C"/>
<path fill-rule="evenodd" clip-rule="evenodd" d="M1.56769 8.88923C1.70226 8.80637 1.83947 8.72223 1.97669 8.63681L2.18149 8.51248C2.25138 8.47109 2.31871 8.43227 2.38996 8.39088C2.45985 8.34941 2.52718 8.30802 2.59834 8.26919C2.63222 8.24828 2.66772 8.2301 2.7045 8.21484L2.81321 8.16048C2.95691 8.09059 3.10062 8.01934 3.25208 7.9585C3.11487 8.04528 2.97373 8.11909 2.83267 8.19538C2.76278 8.23421 2.69153 8.26919 2.62164 8.30802C2.55175 8.34685 2.48442 8.38832 2.41317 8.42587C2.34328 8.46725 2.27595 8.50608 2.20479 8.54363L1.99376 8.65883L1.56786 8.88923H1.56769ZM3.24142 8.06329C3.24142 8.06329 2.74563 8.44387 2.58512 8.56556C2.42461 8.68724 1.95211 9.029 1.95211 9.029L3.24142 8.06329Z" fill="#CFB66C"/>
<path fill-rule="evenodd" clip-rule="evenodd" d="M6.08676 11.1328L5.83307 10.6525L5.98061 10.0518L7.03303 9.6454L6.58511 8.72636L6.80647 7.79819L7.22204 6.96705L8.50622 6.76515L9.44984 5.86548L11.4874 6.01951L11.8874 8.19815L11.1172 10.9412L10.6784 12.3613L8.89969 12.4286L8.07384 11.8565L7.10684 11.4525L6.08676 11.1328Z" fill="#E2CC85"/>
<path fill-rule="evenodd" clip-rule="evenodd" d="M9.20651 11.1171C9.20651 11.1171 8.96049 11.2297 8.54091 11.2038C8.41948 11.0407 7.56904 10.9643 7.56904 10.9643C7.56904 10.9643 7.46289 10.932 7.27516 11.0096C7.08623 11.0864 6.90754 11.077 6.74054 11.1184C6.57355 11.1597 6.40774 10.9423 6.27974 10.897C6.15174 10.8491 5.98201 10.7339 5.98201 10.7339L5.62361 10.6989L4.90391 10.3947L3.76053 9.25562L3.44983 9.74202L3.354 10.344L3.69969 11.0573L4.63042 11.9051L6.44529 12.3659L7.521 12.049L8.86859 11.4794L9.20651 11.117V11.1171Z" fill="#F1D789"/>
<path fill-rule="evenodd" clip-rule="evenodd" d="M2.75859 7.0912L2.98899 6.39351L3.26351 5.94295L4.14756 5.86914L3.88218 6.64328L3.1431 7.95853L3.44988 9.13263L2.90622 9.40442L2.73914 9.14816L2.60457 8.56047L2.59552 7.90024L2.75859 7.0912Z" fill="#F4ECB4"/>
<path fill-rule="evenodd" clip-rule="evenodd" d="M3.75013 11.0692L3.58057 10.8323C3.58057 10.8323 3.53526 10.7196 3.5612 10.6212C3.5868 10.5216 3.58313 10.5151 3.57024 10.4775C3.55736 10.44 3.44856 10.3106 3.45504 10.1992C3.46144 10.0866 3.446 10.049 3.52877 9.95975C3.61547 9.87305 3.58961 9.72286 3.58961 9.72286L3.70225 9.79275L3.72785 9.75392C3.72785 9.75392 3.76924 9.78626 3.76924 9.83678C3.77829 9.76689 3.74074 9.44322 3.82616 9.3695C3.91158 9.29577 4.06304 9.7151 4.06304 9.7151L3.96986 9.10667L3.73033 8.4828L3.30443 7.9132L3.27883 7.28531V7.23096C3.27883 7.23096 3.08333 7.53133 3.02897 7.76856C2.99015 7.93163 3.08333 8.12969 3.06396 8.36401C3.04834 8.59706 3.02897 8.57888 3.08589 8.67121C3.14281 8.76354 3.28139 8.95341 3.22703 9.09063C3.17916 9.20847 3.016 9.12561 3.016 9.12561C3.016 9.12561 2.98366 9.22136 2.93963 9.25634C2.9241 9.19943 2.90729 9.16316 2.87623 9.12834C2.87358 9.15036 2.86718 9.18014 2.86718 9.18014C2.86718 9.18014 2.83868 9.0908 2.81018 8.97816C2.77144 8.82806 2.72997 8.63 2.69242 8.52384C2.67689 8.58469 2.63806 8.76977 2.63806 8.76977L2.66008 9.05462L2.76623 9.44553L2.86863 9.70153L2.9683 10.0148L3.05491 10.2252L3.1248 10.3857L3.18565 10.7469L3.47945 11.0576L3.63612 11.1275L3.74996 11.0692L3.75013 11.0692Z" fill="#F3E19D"/>
<path fill-rule="evenodd" clip-rule="evenodd" d="M2.91261 6.52169C2.91261 6.52169 2.70158 6.88009 2.64082 7.24139C2.58007 7.60269 2.52562 7.98447 2.56402 8.47633C2.60285 8.97221 2.67666 9.27634 2.73623 9.49385C2.83863 9.85507 3.10384 10.3573 3.10384 10.3573L3.11289 10.3379C3.06831 10.2534 3.03273 10.1644 3.00673 10.0725C2.97175 9.93528 2.95878 9.77221 2.92643 9.69839C2.89793 9.62467 2.85006 9.56118 2.82677 9.47055C2.80475 9.38385 2.80117 9.24664 2.73358 9.14441C2.70508 9.10294 2.67009 8.99422 2.65977 8.88551C2.6468 8.72235 2.66625 8.53982 2.65072 8.38972C2.62222 8.13987 2.60285 7.97031 2.62871 7.83949C2.65456 7.70868 2.7893 7.33731 2.87216 7.04214C2.92652 6.85312 2.89409 6.69389 2.99376 6.52946C3.09343 6.36638 3.15436 6.22268 3.17629 6.12301C3.20189 6.03239 2.91227 6.52169 2.91227 6.52169H2.91261Z" fill="#F2E8B0"/>
<path fill-rule="evenodd" clip-rule="evenodd" d="M3.91333 6.37793C3.91333 6.37793 3.80461 6.41036 3.75282 6.46727C3.70102 6.52163 3.679 6.56694 3.60912 6.65885C3.53923 6.75075 3.5353 6.82584 3.4783 6.94104C3.42138 7.05368 3.29577 7.22324 3.28024 7.28408C3.26471 7.34493 3.23885 7.62968 3.20651 7.76434C3.17801 7.899 3.23885 8.06471 3.23885 8.06471L3.31258 8.0491C3.31258 8.0491 3.31258 8.14493 3.3864 8.2097C3.46012 8.2731 3.47309 7.99474 3.47309 7.99474L3.74881 7.06401L4.16429 6.78181L4.20961 6.55397L3.91316 6.37793H3.91333Z" fill="#F5EEC0"/>
<path fill-rule="evenodd" clip-rule="evenodd" d="M4.11518 6.80001C4.11518 6.80001 3.91969 6.81289 3.82394 6.88287C3.78511 6.91128 3.76958 6.93458 3.7282 6.96956C3.65182 7.03297 3.57409 7.09125 3.53662 7.17436C3.49515 7.25714 3.44984 7.38275 3.41878 7.61963C3.40581 7.7193 3.40581 7.81121 3.39676 7.89151C3.38379 8.00022 3.36442 8.08692 3.37475 8.14751C3.38772 8.27175 3.51589 8.33652 3.52835 8.47758L3.79373 8.343L4.04359 7.35783L4.57436 7.02503L4.27399 6.68848L4.11484 6.79941L4.11518 6.80001Z" fill="#E6DB9D"/>
<path fill-rule="evenodd" clip-rule="evenodd" d="M2.71511 13.4338C2.71622 13.4241 2.71733 13.4144 2.71844 13.4044C2.75718 13.0716 2.76375 12.8194 2.79217 12.6614C2.83355 12.4375 2.86206 12.3542 2.85557 12.2704C2.84653 12.1358 2.8362 12.0374 2.84917 11.9339C2.86854 11.7966 3.0032 11.6336 2.99936 11.5209C2.99671 11.4316 2.9514 11.3734 2.91257 11.319C2.87375 11.2647 2.84269 11.2194 2.84269 11.2194C2.84269 11.2194 3.10807 11.0368 3.10551 10.3015C3.11093 10.303 3.11615 10.3052 3.12104 10.308L3.25177 10.6795L3.34112 10.7882L3.68416 11.4277L4.12559 11.8562L4.77796 12.295L5.18705 12.7402L5.22843 13.9272L4.69382 14.6211L4.60627 14.7796C3.91069 14.4304 3.27285 13.9765 2.71503 13.4338L2.71511 13.4338Z" fill="#E5CB7A"/>
<path fill-rule="evenodd" clip-rule="evenodd" d="M4.34827 14.5696C4.34827 14.5696 4.35731 14.4221 4.479 14.3262C4.49845 14.3586 4.51134 14.3897 4.5075 14.4129C4.52951 14.3742 4.68354 14.1256 5.03179 14.0609C5.38003 13.9975 5.46417 13.7438 5.46417 13.7438L6.20324 13.0719L7.04855 12.2939L8.07639 11.9327L8.55674 11.8149C8.55674 11.8149 8.56578 11.8499 8.54769 11.9275C8.63695 11.9211 8.83501 11.8758 9.04083 11.8033C9.12369 11.7709 9.20143 11.758 9.24282 11.8007C9.30366 11.8576 9.3127 11.9923 9.31654 12.0725C9.41621 12.0505 9.53141 11.9547 9.62374 11.9638C9.77137 11.9793 9.9021 12.1528 10.0523 12.1528C10.2503 12.1528 10.3396 12.0311 10.4782 11.9353C10.561 11.8784 10.6801 11.8073 10.7474 11.7592C10.9079 11.6414 12.6063 11.1223 12.6063 11.1223L13.2018 11.1611L13.2976 11.8006L13.2464 13.4723C13.2401 13.4784 13.2338 13.4847 13.2274 13.4907L10.5199 14.9048L6.76695 15.4801C5.92628 15.3428 5.11501 15.0637 4.36772 14.6549L4.34852 14.5695L4.34827 14.5696Z" fill="#D8C173"/>
<path fill-rule="evenodd" clip-rule="evenodd" d="M2.94275 13.6466C2.99608 13.5351 3.04404 13.4418 3.05249 13.4084C3.05914 13.4757 3.07135 13.6232 3.09592 13.7801C3.04432 13.7362 2.99327 13.6917 2.94275 13.6465V13.6466Z" fill="#F1D789"/>
<path fill-rule="evenodd" clip-rule="evenodd" d="M5.68425 15.2199L6.16963 15.0849L6.21101 15.0978C6.21101 15.0978 6.23303 15.1108 6.23303 15.1548C6.29387 15.1198 6.34567 15.1262 6.38322 15.103C6.40259 15.1444 6.42196 15.2816 6.50746 15.2985C6.59672 15.3179 6.69255 15.2596 6.78966 15.1859C6.8854 15.1095 6.99446 15.0137 7.07698 14.9749C7.10725 15.0305 7.13407 15.088 7.15728 15.147C7.26599 15.0603 7.455 14.7082 7.72423 14.7146C7.80205 14.5307 7.93205 14.3737 8.09816 14.2628C8.34802 14.0933 8.5046 14.0803 8.7001 14.0958C8.77775 13.995 8.87344 13.9094 8.9823 13.8434C9.01464 13.8564 9.10399 13.9108 9.21535 13.859C9.32799 13.8073 9.45479 13.6065 9.62179 13.5807C9.71178 13.5683 9.80328 13.5875 9.88069 13.635C9.88069 13.635 10.3671 13.1521 10.7027 12.9916C10.6897 12.9528 10.6639 12.8065 11.0574 12.4829C11.0794 12.5023 11.0638 12.5567 11.0794 12.5597C11.0858 12.5597 11.1818 12.5183 11.3033 12.425C11.4535 12.3125 11.6334 12.1946 11.7421 12.1623C11.9469 12.1014 12.1641 12.2257 12.1641 12.2257C12.1826 12.2127 12.2032 12.2031 12.225 12.1972C12.2767 12.1881 12.3142 12.1817 12.3427 12.1716C12.3402 12.2389 12.3777 12.3541 12.3427 12.4538C12.3833 12.4766 12.4262 12.4948 12.4707 12.5081C12.4488 12.556 12.4008 12.6777 12.3206 12.736C12.3879 12.7683 12.3969 12.8059 12.4927 12.8384C12.4539 12.8927 12.3903 12.986 12.362 13.0432C12.3335 13.104 12.2312 13.3564 12.1859 13.4522C12.138 13.548 12.0733 13.7241 12.0422 13.7594C12.011 13.7947 11.8985 13.9445 11.8118 14.0182C11.8886 13.9897 12.2028 13.894 12.3361 13.8577C12.2964 13.9159 12.0953 14.2143 11.9019 14.5013C10.9761 15.0562 9.94261 15.4074 8.87038 15.5315C7.79815 15.6557 6.71178 15.5499 5.68365 15.2211L5.68425 15.2199Z" fill="#E0CD81"/>
<path fill-rule="evenodd" clip-rule="evenodd" d="M4.14718 6.7651C4.14718 6.7651 4.03462 6.7651 4.01261 6.78063C3.99059 6.79616 4.12525 6.82859 4.16663 6.84412C4.20802 6.85965 4.29737 6.93082 4.32066 6.98782C4.34268 7.04218 5.12971 7.35927 5.12971 7.35927L5.68634 7.33077L5.87825 7.06564L5.51319 6.7459L5.76919 5.99121L5.43008 6.04557L4.61455 6.53197L4.20546 6.68864L4.14718 6.7651Z" fill="#DFC57C"/>
<path fill-rule="evenodd" clip-rule="evenodd" d="M5.36963 7.01495C5.37767 7.02798 5.38901 7.03866 5.40249 7.04593C5.41597 7.05319 5.43112 7.05678 5.44643 7.05634C5.56163 7.05634 5.6677 7.08484 5.71173 7.14304C5.78554 7.23631 5.99009 7.53404 5.99009 7.53404L6.47939 7.71008L6.51096 7.13391L5.97635 6.76245L5.36792 6.98637V7.01487H5.36929L5.36963 7.01495Z" fill="#E5CC7C"/>
<path fill-rule="evenodd" clip-rule="evenodd" d="M5.27357 7.22853C5.27357 7.22853 5.36283 7.23502 5.47547 7.19354C5.58811 7.15207 5.7732 7.06281 5.8535 7.0978C5.96605 7.14567 5.94276 7.29586 6.06453 7.4306C6.13826 7.51346 6.27291 7.5109 6.34929 7.60024C6.42566 7.68959 6.6884 7.64812 6.6884 7.64812L6.78807 8.18572L6.38811 8.6984L6.2573 9.33524H5.71645L5.22237 9.13923L4.979 8.55043L5.10069 7.95497L5.27357 7.22853Z" fill="#D2C281"/>
<path fill-rule="evenodd" clip-rule="evenodd" d="M6.31977 7.25436C6.33318 7.2585 6.34712 7.26068 6.36116 7.26085C6.34562 7.27382 6.3132 7.30224 6.32617 7.37605C6.33914 7.44986 6.38053 7.54305 6.34562 7.59996C6.37349 7.63043 6.39426 7.66668 6.40647 7.70612C6.42848 7.76961 6.43497 7.8278 6.57858 7.83693C6.55786 7.84969 6.53875 7.86491 6.52167 7.88225C6.52167 7.88225 6.62134 7.96895 6.67185 8.04916C6.72357 8.04694 6.86078 8.00427 6.86078 8.00427L6.88928 8.02373L6.95013 7.99813C6.95013 7.99813 6.89321 7.97611 6.9346 7.83762C6.97342 7.71593 7.00841 7.72242 7.0114 7.71337C7.01438 7.70433 7.0399 7.57616 7.0399 7.52436C7.05927 7.45712 7.0748 7.25257 7.0748 7.25257L7.03341 6.80082L6.80045 6.65968L6.61101 6.47681L6.43232 6.81336L6.31465 6.93069L6.3056 7.22194L6.31977 7.25436Z" fill="#E2C270"/>
<path fill-rule="evenodd" clip-rule="evenodd" d="M6.88025 6.87636C6.88025 6.87636 6.92164 6.99412 6.93725 7.08474C6.94275 7.06713 6.9458 7.04884 6.9463 7.03039C6.9463 7.03039 6.97864 7.20907 6.98504 7.28289C6.99801 7.28024 7.01064 7.2764 7.01354 7.28929C7.01644 7.30217 7.04597 7.44596 7.03914 7.52617C7.09304 7.43724 7.16764 7.36265 7.25657 7.30874C7.30837 7.27632 7.36921 7.24142 7.4327 7.23877C7.53237 7.23621 7.60481 7.30226 7.72394 7.30226C8.01126 7.30226 8.27152 7.09123 8.4631 7.02655C8.60415 6.97859 8.72584 6.94369 8.81126 6.86595C8.85273 6.83105 8.92654 6.75339 8.99378 6.63811C9.08313 6.48451 9.17631 6.35079 9.26958 6.33398C9.22738 6.34173 9.18445 6.34477 9.14158 6.34303C9.14158 6.34303 9.17008 6.31452 9.21838 6.2757C9.26668 6.23687 9.32454 6.189 9.40731 6.189C9.55494 6.189 9.62866 6.21093 9.71152 6.21093C9.79438 6.20837 9.84225 6.189 9.84225 6.189C9.84225 6.189 9.92904 6.24984 10.1245 6.24984C10.32 6.2524 10.4507 6.26921 10.553 6.27834C10.6553 6.28747 10.9983 6.24984 11.0967 6.25274C11.1608 6.25522 11.2238 6.27063 11.2818 6.29806L10.9646 5.37646L9.82527 4.38062L9.14696 4.86087L8.1035 5.90424L7.09384 6.27834L6.88281 6.51523V6.87636H6.88025Z" fill="#CCB360"/>
<path fill-rule="evenodd" clip-rule="evenodd" d="M9.14567 6.34829C9.14567 6.34829 9.17417 6.31987 9.22196 6.28104C9.26975 6.24222 9.3282 6.19426 9.41097 6.19426C9.55851 6.19426 9.63233 6.21628 9.71519 6.21628C9.79805 6.21372 9.84592 6.19426 9.84592 6.19426C9.84592 6.19426 9.93279 6.25502 10.1281 6.25502C10.3236 6.25758 10.4543 6.27439 10.5567 6.28343C10.659 6.29248 11.0019 6.25502 11.1003 6.25783C11.1644 6.26025 11.2274 6.27566 11.2854 6.30315L11.1417 5.88757L10.9748 5.57047L10.4984 5.04875C10.4984 5.04875 9.92664 4.71219 9.92229 4.70963C9.91973 4.70707 9.72423 4.65527 9.72423 4.65527L9.20643 4.96853L8.73658 6.18411L8.72754 6.44011L9.03167 6.58381C9.10804 6.45581 9.19226 6.35341 9.2712 6.34044C9.19994 6.3482 9.14559 6.3482 9.14559 6.3482L9.14567 6.34829Z" fill="#D5B457"/>
<path fill-rule="evenodd" clip-rule="evenodd" d="M9.13919 6.43509C9.09387 6.43765 9.05641 6.42861 9.046 6.39627C9.00717 6.28755 8.97611 6.27202 8.9436 6.27202C8.91109 6.27202 8.86723 6.34191 8.8412 6.34831C8.81517 6.35471 8.78428 6.2681 8.78428 6.2681L8.75578 6.25513C8.75578 6.25513 8.58879 6.36384 8.47103 6.49201C8.35327 6.62018 8.16033 6.8377 8.07363 6.87644C7.98693 6.91518 7.68912 6.92824 7.58723 6.95025C7.48534 6.97227 7.37236 7.04608 7.35683 7.06289C7.3413 7.0797 7.40223 7.09779 7.41127 7.1146C7.42032 7.13013 7.31152 7.12365 7.30247 7.1402C7.29607 7.15317 7.32807 7.2269 7.34394 7.26445C7.37172 7.25064 7.40219 7.24312 7.4332 7.24243C7.53287 7.23987 7.6054 7.30592 7.72444 7.30592C8.01185 7.30592 8.27203 7.09489 8.4636 7.03012C8.60474 6.98225 8.72643 6.94727 8.81185 6.86961C8.85323 6.83471 8.92705 6.75697 8.99437 6.64177C9.04353 6.56284 9.09148 6.48903 9.13944 6.43467L9.13919 6.43509Z" fill="#D2B257"/>
<path fill-rule="evenodd" clip-rule="evenodd" d="M5.0176 12.8416C5.0176 12.8416 4.992 12.7458 4.75478 12.4985C4.68745 12.4287 4.64606 12.3705 4.60075 12.329C4.48811 12.2227 4.42206 12.1943 4.34185 12.1335C4.1658 12.0028 3.97423 12.0028 3.82669 11.8422C3.67915 11.6817 3.5072 11.375 3.38774 11.0616C3.26998 10.7484 3.23755 10.6487 3.23755 10.6396C3.23755 10.6306 3.26998 10.5697 3.31136 10.5788C3.35275 10.5878 3.35275 10.6681 3.36316 10.6875C3.38378 10.7193 3.40717 10.7491 3.43305 10.7768C3.49389 10.8467 3.58059 10.9304 3.62462 11.0551C3.61558 10.949 3.57931 10.8312 3.57931 10.8312C3.57931 10.8312 3.80715 10.9749 4.00128 11.125C4.19678 11.2752 4.27699 11.327 4.33408 11.4227C4.39117 11.5185 4.52566 11.771 4.59008 11.8448C4.65451 11.9186 5.53728 12.1969 5.53728 12.1969L5.95721 12.51L6.16568 12.9669L6.00252 13.2229L5.68926 13.2903L5.1805 13.0624L5.0176 12.8415V12.8416Z" fill="#D2B159"/>
<path fill-rule="evenodd" clip-rule="evenodd" d="M3.88739 11.2674C3.88739 11.2674 3.99354 11.4369 4.25245 11.5974C4.48549 11.7386 4.85439 11.8667 5.18326 11.9431C5.37219 11.9884 5.5612 12.0233 5.73076 12.026C6.18772 12.0324 6.50226 11.9017 6.89198 11.859C7.10301 11.837 7.36191 11.8201 7.63113 11.7566C7.97673 11.6737 8.18128 11.5804 8.45964 11.4494C8.66153 11.3562 8.84671 11.2863 8.99681 11.197C9.20784 11.0727 9.36187 10.9342 9.54055 10.8928C9.51854 10.9537 9.49524 11.0624 9.3192 11.175C9.41238 11.1724 9.54055 11.166 9.54055 11.166C9.54055 11.166 9.41631 11.2397 9.19751 11.4054C9.06286 11.5078 8.88425 11.6811 8.70173 11.7963C8.58388 11.8701 8.45571 11.9243 8.37157 11.9685C8.16677 12.0812 8.08417 12.1381 7.9496 12.2757C7.99747 12.2732 8.0014 12.2757 8.0014 12.2757C8.0014 12.2757 7.83175 12.2977 7.71015 12.3624C7.68455 12.3624 7.64018 12.3534 7.56253 12.3754C7.50168 12.3948 7.42138 12.4389 7.33861 12.4621C7.22077 12.4971 7.18202 12.4816 7.18202 12.4816L7.2014 12.5204C7.2014 12.5204 7.0478 12.5177 6.9966 12.5229C7.00564 12.5255 7.00308 12.5294 7.00308 12.5294C6.99409 12.5309 6.98542 12.534 6.97748 12.5385C6.95284 12.5544 6.92574 12.5662 6.89727 12.5734C6.88174 12.5759 6.86877 12.5759 6.84931 12.5799C6.8558 12.5954 6.90631 12.6823 6.92961 12.7335C6.91024 12.7464 6.61891 12.9665 6.61891 12.9665C6.62795 12.9807 6.63533 12.9959 6.64093 13.0118C6.64997 13.0402 6.6539 13.0817 6.66294 13.1011C6.68487 13.1399 6.69784 13.1464 6.69784 13.1464C6.69784 13.1464 6.66294 13.1529 6.60201 13.1684C6.5503 13.1814 6.48681 13.2033 6.39721 13.2163C6.36972 13.2199 6.34207 13.222 6.31436 13.2228C6.32733 13.2513 6.38424 13.36 6.27937 13.4855C6.17449 13.611 6.14215 13.6293 6.10981 13.7095C6.09353 13.6972 6.0762 13.6863 6.05801 13.6771C6.02311 13.6615 5.97516 13.6383 5.95834 13.6072C5.94855 13.6487 5.93556 13.6894 5.91952 13.7289C5.88718 13.8156 5.8393 13.9011 5.83026 13.9658C5.79527 13.9269 5.73059 13.8506 5.64125 13.8661C5.5519 13.8816 5.48073 14.0033 5.4652 14.0383C5.4652 14.0163 5.44967 13.9995 5.44583 14.0253C5.44319 14.0538 5.39404 14.3515 5.1196 14.5923C5.11704 14.5314 5.11704 14.3968 5.11056 14.3528C5.08496 14.3784 5.05364 14.4162 4.86719 14.4965C4.68466 14.5767 4.71359 14.657 4.71359 14.657C4.71359 14.657 4.69806 14.529 4.79645 14.3942C4.89612 14.2596 4.95696 14.1962 4.95696 14.1858C4.95535 14.1753 4.95086 14.1655 4.94399 14.1573C4.93102 14.1444 4.90516 14.1288 4.90516 14.1185C4.92069 14.1121 5.07472 14.0383 5.06567 13.8855C5.05663 13.7483 4.99843 13.6771 4.95696 13.6266C4.95056 13.6202 5.01789 13.5723 5.00876 13.5568C5.00227 13.5477 4.9195 13.4868 4.90909 13.4544C4.91153 13.435 4.91588 13.4159 4.92206 13.3974C4.9311 13.3689 4.93759 13.3495 4.93503 13.3301C4.92854 13.2978 4.89356 13.2084 4.88323 13.1994C4.89228 13.2019 4.95696 13.1994 4.95696 13.1994C4.95696 13.1994 4.90525 13.1165 4.89612 13.0777C4.88699 13.0389 4.86761 12.9366 4.85729 12.9172C4.87931 12.9197 4.93366 12.9236 4.93366 12.9172C4.93631 12.8977 4.88579 12.8654 4.90806 12.8404C4.92359 12.8429 4.95337 12.8559 4.98179 12.8922C4.96626 12.8507 4.9404 12.7705 4.88596 12.7382C4.91156 12.7291 4.9986 12.7057 5.07497 12.751C5.15135 12.7964 5.17737 12.8598 5.17737 12.8598C5.17737 12.8598 5.22269 12.8947 5.29266 12.9465C5.37287 13.0099 5.4751 13.1001 5.63826 13.164C5.67325 13.1834 5.7625 13.1834 5.82727 13.1705C5.85547 13.1637 5.88251 13.1528 5.90749 13.1381C5.9165 13.1328 5.92606 13.1285 5.93599 13.1251C5.92207 13.0972 5.90607 13.0704 5.88812 13.0448C5.91013 13.0448 5.93599 13.0475 5.93599 13.0475C5.93599 13.0475 5.95152 13.0125 5.88163 12.9451C5.89716 12.9296 5.91662 12.9195 5.91662 12.8933C5.8946 12.8907 5.85577 12.8584 5.84673 12.8454C5.85961 12.8364 5.87907 12.8066 5.90109 12.7975C5.88163 12.782 5.83376 12.7172 5.81174 12.7108C5.83277 12.703 5.85312 12.6935 5.87258 12.6823C5.87258 12.6823 5.76387 12.6538 5.72888 12.6306C5.6939 12.605 5.64218 12.5607 5.61112 12.5477C5.5787 12.5347 5.52178 12.5283 5.49848 12.5024C5.52041 12.5089 5.5554 12.5024 5.58134 12.5024C5.60071 12.5024 5.60984 12.5049 5.61624 12.5049C5.61368 12.4959 5.61368 12.4764 5.6642 12.47C5.6885 12.4664 5.71208 12.4589 5.73409 12.448C5.73409 12.448 5.68613 12.4455 5.63169 12.3937C5.57725 12.3419 5.53202 12.3005 5.50096 12.294C5.46862 12.2875 5.40777 12.316 5.37023 12.3134C5.31843 12.307 5.29641 12.281 5.29641 12.281C5.29641 12.281 5.1243 12.2966 4.74243 12.0636C4.41228 11.8616 4.26857 11.683 4.26857 11.683C4.23768 11.6718 4.20781 11.6579 4.17932 11.6415C4.05507 11.5769 3.88287 11.4422 3.88807 11.2661L3.88739 11.2674Z" fill="#C2A44D"/>
<path fill-rule="evenodd" clip-rule="evenodd" d="M8.64981 3.49765C8.67975 3.50738 8.70637 3.52533 8.72661 3.54945C8.78745 3.61933 8.82628 3.75135 8.68778 3.89249C8.74214 3.91186 8.76458 3.91809 8.81202 3.91186C8.76415 3.96886 8.65544 4.09055 8.64895 4.1967C8.64247 4.2834 8.69682 4.30934 8.69682 4.30934C8.69682 4.30934 8.61397 4.40508 8.61013 4.56534C8.64926 4.52121 8.69208 4.4805 8.73813 4.44365C8.83396 4.36728 8.96597 4.28058 9.05531 4.22623C9.0541 4.24901 9.05716 4.27182 9.06436 4.29347C9.06436 4.29347 9.23127 4.15625 9.37156 4.21718C9.43496 4.24568 9.40646 4.33494 9.40646 4.33494C9.40646 4.33494 9.49324 4.3026 9.55408 4.36344C9.61493 4.42428 9.70094 4.58121 9.74506 4.64205C9.76443 4.67056 9.81495 4.72491 9.86666 4.80905C9.93731 4.92685 9.9963 5.05126 10.0428 5.18051C10.0453 5.11318 10.0622 5.00839 10.2538 5.07435C10.4454 5.14168 10.6628 5.28282 10.8453 5.56075C11.0279 5.83868 11.0731 6.15245 11.165 6.27192C11.2582 6.38712 11.354 6.57869 11.3605 6.65899C11.367 6.73929 11.332 6.99811 11.5236 7.69844C11.5779 7.48101 11.6608 6.99811 11.6608 6.99811L11.7061 6.57221L11.7579 5.25441L10.3818 4.1112L9.30611 3.33057L8.60577 3.39789L8.64972 3.49756L8.64981 3.49765Z" fill="#CAA13E"/>
<path fill-rule="evenodd" clip-rule="evenodd" d="M11.2065 5.45895C11.2065 5.45895 11.187 5.33095 10.8634 5.11335C10.5398 4.89848 10.2874 4.89848 10.0544 4.71595C9.87571 4.57225 9.68935 4.24209 9.568 4.13338C9.45016 4.02594 9.43079 3.71524 9.43079 3.71524L9.82818 3.38244L10.4192 2.52817L10.9188 1.97803L11.1583 2.31083L11.4911 2.70174L11.6762 3.48621L11.7435 4.63445L11.2059 5.45903L11.2065 5.45895Z" fill="#B59544"/>
<path fill-rule="evenodd" clip-rule="evenodd" d="M11.6065 6.8353C11.6163 6.66117 11.5948 6.48669 11.5431 6.32014C11.4577 6.05476 11.2713 5.58355 11.1847 5.40708C11.1497 5.21158 11.1756 5.19605 11.2132 5.17403C11.2507 5.15202 11.3918 5.07163 11.4692 4.78961C11.5465 4.50758 11.7863 4.49836 11.7863 4.49836L11.9339 4.38965L12.1579 4.95012L12.3533 5.45632L12.4141 5.84339L12.4595 6.17346L12.3533 6.87123L11.8291 7.345L11.6065 6.8353H11.6065Z" fill="#C89D3A"/>
<path fill-rule="evenodd" clip-rule="evenodd" d="M4.29132 14.6125V14.5982C4.30221 14.5914 4.31183 14.5827 4.31974 14.5726C4.32878 14.5596 4.33535 14.5441 4.34175 14.5402C4.35472 14.5337 4.41557 14.5146 4.44791 14.5208C4.48025 14.5269 4.56575 14.5622 4.61106 14.5596C4.70425 14.557 4.81296 14.4858 4.98517 14.5182C5.24407 14.5661 5.30491 14.7421 5.4551 14.8418C5.5575 14.9118 5.66348 14.8806 5.67901 14.8806H5.71391C5.7204 14.8806 5.76827 14.8263 5.79421 14.8289C5.84601 14.8315 5.85113 14.8742 5.88347 14.8768C5.95984 14.8858 6.10747 14.838 6.18128 14.8574C6.20317 14.8643 6.22308 14.8763 6.2393 14.8925C6.25553 14.9087 6.26759 14.9286 6.27447 14.9505C6.29 14.9984 6.27703 15.0592 6.23948 15.0942C6.15927 15.1679 6.08289 15.2379 6.06736 15.299C6.08712 15.3141 6.10609 15.3301 6.1242 15.3471C5.4837 15.1839 4.86745 14.9372 4.29132 14.6133V14.6125Z" fill="#CEB052"/>
<path fill-rule="evenodd" clip-rule="evenodd" d="M11.1844 12.026C11.1844 12.026 11.3863 11.7568 11.4563 11.6234C11.5262 11.4859 11.235 9.74512 11.235 9.74512L11.8201 7.82802L11.8045 7.20406C11.8045 7.20406 11.833 6.62797 11.9003 6.37812C11.9806 6.52182 12.2305 6.6953 12.2848 6.78721C12.3104 6.61108 12.3974 6.23962 12.3845 5.84351C12.4324 5.91723 12.5476 6.65904 12.5476 6.65904L12.6628 7.15866L12.8129 7.68944L12.9799 8.24999L13.0796 8.63706L13.1365 8.73025L13.1845 8.89332L13.2298 9.06945L13.3605 9.48237L13.4373 9.82149L13.4982 10.4364C13.5114 10.4835 13.5209 10.5315 13.5267 10.5801C13.5292 10.6474 13.5176 10.6863 13.5176 10.6979C13.5176 10.7096 13.5396 10.8455 13.5306 10.9478C13.5176 11.0502 13.5176 11.1303 13.4373 11.2038C13.357 11.2773 13.3066 11.7164 13.3066 11.7164L13.1629 11.6207C13.1629 11.6207 13.1914 11.4898 13.1241 11.3708C13.0567 11.2518 12.926 11.2271 12.8522 11.2466C12.7785 11.2621 12.6309 11.2853 12.583 11.3268C12.5377 11.3682 12.4264 11.4963 12.3241 11.5546C12.1961 11.6314 11.9875 11.6375 11.8762 11.6633C11.7636 11.6889 11.6394 11.7657 11.5085 11.8549C11.406 11.9213 11.2977 11.9784 11.185 12.0256L11.1844 12.026Z" fill="#CCA847"/>
<path fill-rule="evenodd" clip-rule="evenodd" d="M11.1844 14.8543C11.1844 14.8543 11.193 14.8598 11.2095 14.8689C12.1291 14.438 12.9532 13.8272 13.6329 13.0726C13.6255 12.8106 13.6159 12.5421 13.6053 12.4426C13.5833 12.2316 13.5989 12.0167 13.5924 11.8925C13.5859 11.7682 13.516 11.262 13.4837 11.1313C13.4487 11.0006 13.3813 10.9358 13.371 10.9358C13.362 10.9384 13.3075 11.1818 13.3075 11.243C13.3075 11.3042 13.2946 11.4515 13.2946 11.489C13.2855 11.4864 13.2817 11.4634 13.2817 11.454C13.2687 11.4864 13.2532 11.5434 13.2467 11.5498C13.2402 11.5563 13.2557 11.4955 13.2467 11.4825C13.2377 11.4696 13.2211 11.476 13.2247 11.4437C13.2262 11.4245 13.2292 11.4055 13.2337 11.3868C13.2337 11.3868 13.1949 11.4437 13.1665 11.5887C13.138 11.7324 13.138 11.7363 13.1277 11.7492C13.1186 11.7648 13.0668 11.8165 13.0642 11.836C13.0616 11.8709 13.1121 11.9059 13.116 11.9252C13.1185 11.9577 13.0707 12.1078 13.0551 12.1812C13.0396 12.2547 13.0461 12.3987 13.0295 12.4725C13.0166 12.5398 13.0039 12.5786 12.9596 12.607C12.992 12.6135 13.023 12.6226 13.023 12.6226C13.023 12.6226 13.0684 12.8141 12.9532 12.9773C12.9118 13.0342 12.9014 13.0602 12.8574 13.112C12.7706 13.2077 12.7033 13.3168 12.6968 13.3877C12.6923 13.3667 12.6893 13.3455 12.6878 13.3242C12.6878 13.3242 12.5532 13.4809 12.4962 13.5702C12.4225 13.6854 12.3201 13.6789 12.2914 13.7074C12.2626 13.7359 12.2564 13.7876 12.2658 13.8291C12.2402 13.8355 12.1921 13.8446 12.1596 13.9443C12.1441 13.996 12.1053 14.0467 12.0444 14.0815C11.9836 14.1163 11.9098 14.1268 11.8722 14.1359C11.9046 14.1449 11.9175 14.1449 11.9331 14.1552C11.9137 14.1876 11.8244 14.2381 11.7247 14.3029C11.625 14.3637 11.5771 14.453 11.5525 14.5113C11.5269 14.5656 11.4891 14.6006 11.4282 14.6071C11.4538 14.6226 11.4917 14.6588 11.5111 14.6705C11.4826 14.677 11.4343 14.677 11.348 14.7508C11.2574 14.8259 11.2263 14.8479 11.1849 14.8544L11.1844 14.8543Z" fill="#C39D3C"/>
<path fill-rule="evenodd" clip-rule="evenodd" d="M9.38324 15.4544C9.43281 15.4196 9.48649 15.3912 9.54307 15.3696C9.74497 15.2894 9.95856 15.2739 10.0427 15.248C10.123 15.2224 10.1864 15.1871 10.2861 15.1677C10.2834 15.1904 10.2812 15.2118 10.2788 15.2319C9.98497 15.3243 9.68574 15.3986 9.38281 15.4544H9.38324Z" fill="#D2BA6B"/>
<path fill-rule="evenodd" clip-rule="evenodd" d="M13.1072 10.1438C13.1072 10.1438 13.0658 10.3677 12.992 10.5088C12.9182 10.65 12.8384 10.8454 12.8384 10.8454C12.8389 10.8014 12.8441 10.7575 12.8539 10.7146C12.7608 10.7689 12.5342 10.8998 12.4699 10.958C12.4091 11.0123 12.3068 11.1081 12.2809 11.1535C12.3418 10.9748 12.4052 10.8143 12.4156 10.7405C12.3224 10.8079 11.8874 11.1664 11.6609 11.4033L10.9554 11.9742C10.8739 12.0181 10.7901 12.0574 10.7042 12.0918C10.5826 12.1435 10.4389 12.1875 10.3328 12.229C10.3613 12.1526 10.4065 12.0852 10.47 12.0205C10.5373 11.9571 10.7392 11.7383 10.7703 11.6365C10.7988 11.5304 10.8053 11.467 10.7677 11.3776C10.7327 11.3867 10.6525 11.3906 10.5982 11.4061C10.5438 11.4217 10.4855 11.4799 10.4855 11.4799C10.4855 11.4799 10.5269 11.243 10.6162 11.0191C10.5489 11.0216 10.4337 11.041 10.4337 11.041C10.4337 11.041 10.5942 10.7718 10.8689 10.5841C10.7848 10.602 10.7025 10.6275 10.623 10.6604C10.4625 10.7277 10.2864 10.8274 10.1557 10.8817C10.2294 10.7793 10.7472 10.0404 11.0554 9.35164C11.3626 8.66428 11.4773 8.48823 11.5447 8.11934C11.5796 7.93681 11.5703 7.66707 11.5796 7.42549C11.5886 7.18596 11.6184 6.97109 11.599 6.82739C11.6792 6.92706 11.9796 7.20798 11.9899 7.83586C11.999 8.46366 11.7026 9.31162 11.388 9.76849C11.4648 9.79051 11.6638 9.81645 11.8683 9.46129C12.0727 9.10613 12.0702 9.00698 12.1441 8.85935C12.1531 8.93316 12.1505 8.95902 12.1505 8.95902C12.1505 8.95902 12.4483 8.59789 12.5893 8.14349C12.6178 8.33899 12.702 8.51119 12.5699 8.86976C12.4521 9.19334 12.2981 9.27236 12.2981 9.27236C12.2981 9.27236 12.3745 9.25939 12.487 9.19206C12.5065 9.23994 12.5026 9.29446 12.535 9.31375C12.5673 9.33303 12.6113 9.36555 12.6178 9.39661C12.6527 9.34481 12.7071 9.27876 12.724 9.22961C12.711 9.33201 12.702 9.77976 12.7496 10.0076C12.8493 9.99855 12.9516 9.99206 13.0214 9.8121C12.9736 9.98822 12.9736 10.0943 13.0059 10.2445C13.059 10.2083 13.1069 10.1435 13.1069 10.1435L13.1072 10.1438Z" fill="#C0993A"/>
<path fill-rule="evenodd" clip-rule="evenodd" d="M9.74369 3.00845C9.74369 3.00845 9.64402 3.04984 9.47446 3.04984C9.32692 3.04984 9.36831 2.99292 9.13791 2.99292C8.78326 2.99292 7.5444 3.19772 7.32688 3.19482C7.18574 3.19226 7.80321 3.25566 7.80321 3.25566L9.38128 3.27768L9.69838 3.25208L9.81622 3.01229L9.74369 3.00845Z" fill="#A88F33"/>
<path fill-rule="evenodd" clip-rule="evenodd" d="M5.65178 6.09312C5.65178 6.09312 5.44979 6.24715 5.36438 6.36499C5.27896 6.48284 5.23364 6.5604 5.13654 6.65623C5.15933 6.6571 5.18211 6.65404 5.20386 6.64719C5.20386 6.64719 5.20386 6.67279 5.18833 6.67953C5.20175 6.67803 5.21534 6.67955 5.2281 6.68398C5.24085 6.68841 5.25246 6.69563 5.26206 6.70513C5.23356 6.72066 5.15591 6.7984 5.21675 6.8903C5.26206 6.96019 5.35789 6.96659 5.35789 6.96659C5.35789 6.96659 5.33587 7.03008 5.42778 7.02359C5.62584 7.01455 5.84719 6.92776 5.94942 6.94978C6.05182 6.97538 6.11002 6.98477 6.18247 7.11038C6.25927 7.23462 6.32617 7.25408 6.32617 7.25408C6.32617 7.25408 6.37148 7.13879 6.36115 6.96668C6.39831 6.8739 6.4189 6.77532 6.422 6.67543L6.35467 6.17965L6.06087 5.80811L5.68028 6.01913L5.65178 6.09286V6.09312Z" fill="#E3C571"/>
<path fill-rule="evenodd" clip-rule="evenodd" d="M6.01294 6.01953C6.01294 6.01953 6.04144 6.08685 6.16057 6.09325C6.1476 6.12175 6.1476 6.12568 6.15152 6.14761C6.15408 6.16963 6.15792 6.20197 6.15792 6.20197C6.17104 6.19562 6.18289 6.18695 6.19291 6.17637C6.19939 6.20487 6.18642 6.2501 6.19291 6.28252C6.19691 6.30224 6.20342 6.32137 6.21228 6.33944C6.21417 6.33501 6.21633 6.33071 6.21876 6.32655C6.22132 6.32007 6.24436 6.39644 6.30811 6.45455C6.30805 6.44562 6.31025 6.43681 6.31451 6.42895C6.31548 6.44519 6.32085 6.46085 6.33004 6.47427C6.32527 6.47199 6.32091 6.46894 6.31715 6.46522C6.31715 6.46522 6.32355 6.67002 6.35854 6.77592C6.36439 6.76908 6.36959 6.76171 6.37407 6.7539C6.37407 6.7475 6.37151 6.81091 6.36502 6.8563C6.35598 6.90162 6.36246 6.96502 6.36246 6.96502C6.3858 6.94664 6.41145 6.93141 6.43875 6.91971C6.47758 6.90409 6.54115 6.85622 6.57989 6.75006C6.60237 6.68995 6.6197 6.62803 6.63169 6.56498C6.64421 6.58907 6.65285 6.61499 6.65729 6.64178C6.65994 6.67412 6.72078 6.65731 6.72078 6.65731L6.73375 6.51617L6.81055 6.19642L6.88044 5.99836L7.21699 5.47416L7.82508 5.00585L8.35585 5.12754L8.80368 4.51911L8.03218 4.05566L7.30207 4.13204L6.63946 5.0498L6.10877 5.88222L6.01294 6.01944V6.01953Z" fill="#D8B65B"/>
<path fill-rule="evenodd" clip-rule="evenodd" d="M9.83689 4.69118C9.83689 4.69118 9.79158 4.70022 9.66085 4.76798C9.53012 4.83573 9.4395 4.85724 9.38898 4.95691C9.33846 5.05657 9.33462 5.13559 9.33462 5.13559C9.33462 5.13559 9.42396 5.09677 9.47576 5.0838C9.53012 5.07091 9.59096 5.07475 9.58448 5.09677C9.57825 5.11186 9.5696 5.12584 9.55888 5.13815C9.55888 5.13815 9.66128 5.13559 9.65855 5.18611C9.65581 5.23663 9.63917 5.29227 9.6198 5.31684C9.60035 5.34244 9.52013 5.38033 9.51109 5.41011C9.48907 5.47095 9.52014 5.47351 9.50844 5.52267C9.4994 5.57062 9.45673 5.66381 9.31687 5.82688C9.17317 5.99004 9.11207 6.10524 9.11207 6.10524C9.11207 6.10524 9.04218 5.9745 9.00592 5.86187C8.98032 5.87475 8.84284 5.95112 8.84284 5.95112L8.52438 4.84179L8.53078 4.76798C8.53078 4.76798 8.55928 4.73308 8.56577 4.66831C8.5179 4.65278 8.51141 4.63981 8.44792 4.57905C8.38443 4.51829 8.33272 4.44439 8.22665 4.39388C8.21112 4.36537 8.19167 4.32663 8.11401 4.31102C8.03636 4.2954 7.98977 4.2826 7.98977 4.2826C7.98977 4.2826 8.03115 4.26699 8.05061 4.23464C8.00265 4.24113 7.96391 4.25666 7.85904 4.2541C7.75288 4.25145 7.74119 4.24761 7.68299 4.25666C7.6248 4.2657 7.55499 4.29165 7.52897 4.2023C7.50047 4.18029 7.43962 4.19974 7.38783 4.27603C7.33603 4.35232 7.31794 4.41325 7.21827 4.44303C7.21126 4.48696 7.19588 4.52914 7.17296 4.56727C7.14446 4.61523 7.09914 4.6631 7.0383 4.73427C6.94247 4.84691 6.958 5.032 6.80526 5.17314C6.65123 5.3142 6.83086 4.78214 6.83086 4.78214L7.07679 4.19334L7.77712 3.50854L8.86452 3.43481L8.97067 3.99801L9.50145 4.18054L9.83672 4.69186L9.83689 4.69118Z" fill="#D3AE4D"/>
<path fill-rule="evenodd" clip-rule="evenodd" d="M10.0091 4.81557L9.55211 4.15671L9.23237 3.9107C9.23237 3.9107 9.00453 3.49137 8.989 3.4784C8.97603 3.46935 8.76116 3.44606 8.62394 3.43701L8.64954 3.50041C8.67949 3.51014 8.7061 3.52809 8.72634 3.55221C8.78719 3.6221 8.82601 3.75411 8.68752 3.89525C8.74187 3.91462 8.76432 3.92085 8.81176 3.91462C8.76389 3.97163 8.65518 4.09331 8.64869 4.19947C8.64221 4.28616 8.69656 4.31202 8.69656 4.31202C8.69656 4.31202 8.6137 4.40785 8.60986 4.56802C8.64899 4.52389 8.69181 4.48318 8.73786 4.44633C8.83369 4.36953 8.9657 4.28318 9.05505 4.22882C9.05383 4.25163 9.0569 4.27447 9.06409 4.29615C9.06409 4.29615 9.231 4.15893 9.37129 4.21977C9.4347 4.24828 9.40619 4.33762 9.40619 4.33762C9.40619 4.33762 9.49298 4.30528 9.55382 4.36612C9.61466 4.42696 9.70136 4.58355 9.74539 4.64448C9.76477 4.67298 9.81528 4.72734 9.86699 4.81139C9.93766 4.92921 9.99665 5.05365 10.0431 5.18293C10.0457 5.13113 10.0561 5.05869 10.1455 5.05869L10.0096 4.81532L10.0091 4.81557Z" fill="#CAA13E"/>
<path fill-rule="evenodd" clip-rule="evenodd" d="M3.1586 6.68738C3.1586 6.68738 3.12626 6.60708 3.1586 6.45049C3.19094 6.2939 3.24146 6.22009 3.25827 5.98969C3.27508 5.75929 3.42527 5.47189 3.42527 5.47189L3.84075 5.28296L4.13464 5.36317L4.22134 5.75673L3.8498 5.96153C3.8498 5.96153 3.83043 6.04823 3.72555 6.11812C3.62068 6.188 3.4757 6.24236 3.4408 6.31362C3.41993 6.35725 3.40471 6.40336 3.39549 6.45083C3.39549 6.45083 3.28933 6.42882 3.22593 6.4987C3.1586 6.56996 3.16116 6.63336 3.1586 6.68772V6.68738Z" fill="#F4EFC8"/>
<path fill-rule="evenodd" clip-rule="evenodd" d="M3.99745 6.58241C3.99745 6.58241 3.96247 6.60443 3.93661 6.65921C3.91101 6.61783 3.84983 6.37181 3.84727 6.15046C3.84471 5.9291 3.83148 5.87423 3.88268 5.79794C3.93388 5.72166 4.13467 5.64127 4.10617 5.50388C4.07767 5.37315 3.95854 5.3188 3.81228 5.35634C3.70988 5.38194 3.63368 5.59971 3.52752 5.70843C3.44722 5.79129 3.35148 5.77832 3.32562 5.82363C3.29064 5.88447 3.32298 5.94531 3.31265 5.98414C3.31001 5.99711 3.27767 6.067 3.21938 6.15114C3.10162 6.3207 2.90228 6.56023 2.87634 6.7751C2.88539 6.65341 2.87899 6.65085 2.91133 6.51619L2.89187 6.48385L3.01987 6.06444L3.10273 5.71884L3.28791 5.14011L3.61405 4.54858L3.93123 4.19385L4.2613 4.21586L4.30013 4.71165L4.48914 5.64247L4.88654 6.13177L4.24961 6.5604L3.9972 6.58241H3.99745Z" fill="#EBCC73"/>
<path fill-rule="evenodd" clip-rule="evenodd" d="M4.19549 6.75838C4.19549 6.75838 4.14113 6.77135 4.12167 6.76102C4.10222 6.7507 4.08293 6.73901 4.08933 6.72603C4.09573 6.71306 4.13072 6.69113 4.13072 6.68072C4.13144 6.67132 4.12846 6.662 4.12242 6.65475C4.11638 6.6475 4.10776 6.64289 4.09838 6.6419C4.0686 6.63806 4.05955 6.65743 4.05955 6.65743C4.05955 6.65743 4.03105 6.6355 4.00784 6.63183C4.02157 6.63015 4.03539 6.62926 4.04922 6.62918C4.01345 6.61298 3.9755 6.60208 3.93658 6.59684C3.96893 6.57747 4.03241 6.52047 4.0738 6.52047C4.11519 6.52047 4.14113 6.51407 4.13464 6.49205C4.12816 6.47003 4.09582 6.43769 4.06092 6.42472C4.0738 6.40919 4.08293 6.3859 4.05187 6.32232C4.01944 6.25892 4.03241 6.21617 4.04282 6.20072C4.05187 6.18127 4.08421 6.14637 4.09974 6.12435C4.11527 6.10233 4.12824 6.07255 4.1541 6.05702C4.16707 6.04798 4.20846 6.03142 4.24993 6.01563C4.29524 6.0001 4.33279 5.98065 4.35864 6.0001C4.38714 6.01947 4.37417 6.04542 4.37417 6.04542C4.37417 6.04542 4.46352 6.01299 4.54373 6.05446C4.62403 6.0932 4.81953 6.11786 4.81953 6.11786L4.88959 6.25901L4.42614 6.6564L4.23457 6.75223L4.19574 6.75863L4.19549 6.75838Z" fill="#E5C66B"/>
<path fill-rule="evenodd" clip-rule="evenodd" d="M4.83883 6.10874C4.83883 6.10874 4.69513 6.20457 4.66279 6.23947C4.68216 6.24212 4.7145 6.25509 4.70153 6.27446C4.686 6.29383 4.59281 6.36116 4.54102 6.42464C4.48666 6.48805 4.43486 6.56835 4.41677 6.60717C4.3974 6.64207 4.24977 6.74439 4.19934 6.75727C4.3055 6.75727 4.51908 6.62654 4.5993 6.62654C4.59674 6.66537 4.62131 6.7094 4.66663 6.71324C4.71194 6.71708 4.84267 6.74174 5.01871 6.63303C5.19475 6.52687 5.13656 6.44785 5.21029 6.39614C5.35143 6.30287 5.40834 6.22001 5.486 6.1683C5.56365 6.11659 5.60384 6.10481 5.60384 6.10481C5.60384 6.10481 5.6064 6.06599 5.62944 6.06991C5.63575 6.07064 5.64174 6.07307 5.64676 6.07695C5.65178 6.08083 5.65565 6.08601 5.65794 6.09193C5.65794 6.09193 5.7926 5.9961 5.96514 5.97024C5.96112 5.96844 5.9579 5.96522 5.9561 5.9612C5.9561 5.9612 5.96898 5.95471 5.97163 5.94823C5.97163 5.94823 5.98067 5.93526 5.98716 5.94174C5.99364 5.94823 6.00269 5.9961 6.01566 6.01556C6.04416 6.00259 6.09852 5.8809 6.09852 5.8809L6.22934 5.5068V5.16504L6.12694 5.18449L5.35894 5.51064L4.89284 5.99354L4.83849 6.10874H4.83883Z" fill="#E6BD62"/>
<path fill-rule="evenodd" clip-rule="evenodd" d="M7.04981 4.43241C7.09135 4.42233 7.13118 4.40617 7.168 4.38445C7.15247 4.42592 7.15247 4.47123 7.08514 4.56962C7.01781 4.66801 7.01525 4.68226 6.96089 4.78449C6.90653 4.89065 6.90005 5.04339 6.84825 5.11064C6.87147 5.09936 6.89637 5.09195 6.92198 5.08871C6.92198 5.08871 6.87027 5.13402 6.84825 5.18189C6.82624 5.22976 6.78741 5.32943 6.69167 5.39036C6.59592 5.45129 6.47415 5.49003 6.34342 5.63373C6.2126 5.77479 6.07803 5.95347 6.01062 6.01773C6.04561 5.95689 6.09348 5.8352 6.10645 5.75499C6.11942 5.67478 6.1038 5.57886 6.12582 5.47279C6.14784 5.36672 6.14784 5.29026 6.25382 5.10509C6.3598 4.91992 6.54122 4.27659 6.54122 4.27659L6.93213 4.15234L7.04998 4.43198L7.04981 4.43241Z" fill="#B6933F"/>
<path fill-rule="evenodd" clip-rule="evenodd" d="M6.7676 4.19547C6.7676 4.19547 6.64984 4.36503 6.6175 4.51521C6.58516 4.6654 6.61485 4.65243 6.59548 4.72624C6.5839 4.77125 6.5839 4.81845 6.59548 4.86346C6.63627 4.79776 6.69211 4.74271 6.75838 4.70286C6.86974 4.63562 6.96037 4.58766 7.01438 4.53074C7.06874 4.4699 7.11405 4.37023 7.23181 4.29386C7.18394 4.28737 7.11661 4.26536 7.10381 4.26826C7.15177 4.2139 7.29539 4.13104 7.44037 4.03137C7.58407 3.92897 7.57502 3.88767 7.80807 3.78544C7.73169 3.79841 7.69543 3.77896 7.63194 3.78544C7.65754 3.73109 7.74714 3.70514 7.83674 3.61589C7.92634 3.52663 7.77982 3.39453 7.77982 3.39453L7.09716 3.80746L6.76709 4.19581L6.7676 4.19547Z" fill="#C49937"/>
<path fill-rule="evenodd" clip-rule="evenodd" d="M4.91522 3.88733L4.93075 3.76309L5.12625 3.44983L5.3308 2.89969V2.14756L5.31526 1.71261L5.34761 1.42777L5.37218 1.33723L5.39812 1.30225L5.56504 1.38894L5.79552 1.7022L5.81754 2.30679L5.59354 3.26082L4.95405 3.95859L4.91522 3.88733Z" fill="#DFC068"/>
<path fill-rule="evenodd" clip-rule="evenodd" d="M5.42398 1.26737C5.42398 1.26737 5.32158 1.27001 5.29973 1.69591C5.27789 2.12181 5.26731 2.34573 5.25178 2.55676C5.23624 2.76778 5.20006 2.89587 5.18189 3.0202C5.16371 3.14453 5.15339 3.314 5.09519 3.4176C5.06959 3.46547 5.01489 3.61566 4.88672 3.7283C4.74302 3.85254 4.52832 3.93933 4.49581 3.94581C4.4388 3.9587 4.15012 3.9872 4.03236 4.05197C3.99098 4.07398 3.91972 4.09984 3.84079 4.17365C3.68412 4.31471 3.47573 4.56712 3.32555 4.87134C3.09515 5.32574 2.86475 6.60855 2.86475 6.60855L2.91654 6.52185C2.91654 6.52185 2.92303 6.40665 3.03823 6.20467C3.15087 6.00277 3.11853 5.77621 3.27511 5.38914C3.33596 5.2416 3.41233 5.05002 3.50551 4.88687C3.65314 4.62148 3.83174 4.39364 4.01171 4.2694C4.30551 4.0675 4.62918 4.02346 4.62918 4.02346L4.97743 3.79306C4.97743 3.79306 5.03827 3.6753 5.11857 3.54065C5.23113 3.35172 5.37457 3.14069 5.40589 2.83392C5.45384 2.37952 5.33856 2.08179 5.34504 1.81256C5.35153 1.54334 5.35409 1.34528 5.40853 1.29732C5.46298 1.24936 5.42406 1.26754 5.42406 1.26754L5.42398 1.26737Z" fill="#A88F33"/>
<path fill-rule="evenodd" clip-rule="evenodd" d="M5.42394 3.29956C5.42394 3.29956 5.57754 2.92153 5.64785 2.58625C5.66082 2.51893 5.68668 2.45168 5.69316 2.39733C5.7255 2.08014 5.73455 1.94941 5.69316 1.77593C5.66082 1.64793 5.53658 1.53256 5.47181 1.44313C5.40841 1.34986 5.37862 1.31513 5.39159 1.2955C5.40457 1.27588 5.455 1.24379 5.50415 1.24763C5.5564 1.24915 5.60779 1.26128 5.6552 1.28329C5.70262 1.30529 5.74506 1.33671 5.77995 1.37563C5.87962 1.49083 5.95855 1.88183 5.95855 1.88183L6.04158 2.39775L6.25261 3.04757L5.42411 3.30007L5.42394 3.29956Z" fill="#C99E3D"/>
<path fill-rule="evenodd" clip-rule="evenodd" d="M6.86726 2.90624C6.86726 2.90624 6.83876 2.91912 6.78705 2.90624C6.78926 2.92737 6.78559 2.9487 6.77645 2.96788C6.76731 2.98706 6.75305 3.00335 6.73525 3.01495C6.68089 2.99294 6.17205 3.03697 6.17205 3.03697C6.17205 3.03697 5.93517 2.9955 5.86135 2.68224C5.80964 2.47377 5.90018 2.18645 5.8704 1.99744C5.82509 1.71908 5.76168 1.66464 5.7552 1.57802C5.74871 1.49141 5.74223 1.46931 5.74223 1.41495C5.71373 1.40847 5.69692 1.39942 5.6685 1.39942C5.66202 1.37382 5.6749 1.35146 5.64648 1.30615C5.66202 1.31264 5.76817 1.32561 5.89242 1.44337C5.99482 1.5392 5.99482 1.5741 6.01026 1.59356C6.02963 1.61293 6.1863 1.74716 6.25363 1.88096C6.32096 2.01476 6.45169 2.44143 6.48147 2.51132C6.49052 2.53982 6.50997 2.56832 6.55827 2.633C6.63336 2.72627 6.74336 2.88047 6.8676 2.90607L6.86726 2.90624Z" fill="#B58634"/>
<path fill-rule="evenodd" clip-rule="evenodd" d="M6.02856 1.6001C6.10698 1.72678 6.17743 1.85822 6.23951 1.99365C6.31588 2.16577 6.36119 2.30691 6.45702 2.42211C6.40523 2.27201 6.31332 1.97684 6.25896 1.87197C6.19812 1.76104 6.07388 1.64157 6.02856 1.60018V1.6001Z" fill="#A88F33"/>
<path fill-rule="evenodd" clip-rule="evenodd" d="M5.14827 3.72811C5.14827 3.72811 5.01754 3.76045 4.77417 3.88862C4.69387 3.93001 4.61758 3.96491 4.54377 3.99734C4.35202 4.08404 4.14637 4.16417 3.98321 4.20837C3.99618 4.2239 4.00258 4.2303 4.00258 4.2303C4.00258 4.2303 4.00258 4.29379 4.03757 4.32997C4.0182 4.34942 3.75921 4.52547 3.83567 5.11444C3.88738 5.09507 3.94823 5.06913 3.95727 5.06913C3.97289 5.07177 3.97673 5.11444 3.9961 5.11444C4.01547 5.11444 4.07896 5.08884 4.14629 5.0018C4.14373 5.03678 4.1049 5.38887 4.31328 5.62576C4.35211 5.58044 4.4505 5.43026 4.4505 5.43026L4.45306 5.38238C4.45306 5.38238 4.4621 5.21539 4.51655 5.06264C4.57099 4.90989 4.67706 4.79725 4.67706 4.79725L5.23096 4.0063L5.1481 3.72803L5.14827 3.72811Z" fill="#E6C367"/>
<path fill-rule="evenodd" clip-rule="evenodd" d="M4.63045 4.8895C4.60509 4.90742 4.57715 4.92137 4.54759 4.93088C4.53855 4.89854 4.52558 4.78718 4.60195 4.67847C4.6913 4.54765 4.88671 4.37809 4.94107 4.24327C4.97605 4.15648 4.96052 3.93905 5.27122 3.6607C5.58192 3.38234 5.70352 3.2866 5.70352 3.2866L6.20579 3.03418L6.82326 3.27755L6.51649 4.4799L6.27832 5.0431L5.33112 4.86449L4.63037 4.8895H4.63045Z" fill="#DCBA5A"/>
<path fill-rule="evenodd" clip-rule="evenodd" d="M4.992 4.5632L5.10985 4.41566V4.31079C5.10985 4.31079 5.24058 4.2758 5.38164 4.1321C5.52269 3.9884 5.71819 3.71268 5.89039 3.72949C6.0626 3.74895 6.07941 4.1036 6.08589 4.20335C6.09238 4.30311 6.11439 4.52949 6.1493 4.65127C6.18812 4.77295 5.72988 5.23375 5.72988 5.23375L5.41867 5.47064L4.992 4.5632Z" fill="#E9CE77"/>
<path fill-rule="evenodd" clip-rule="evenodd" d="M5.35663 5.79161C5.35663 5.79161 5.45246 5.64142 5.38223 5.60908C5.42362 5.51589 5.49999 5.4175 5.49999 5.4175C5.49999 5.4175 5.55435 5.28293 5.73039 5.11722C5.90643 4.9515 6.01523 4.84142 6.04373 4.73014C6.0613 4.65762 6.07086 4.58339 6.07223 4.50879C6.09127 4.52434 6.11162 4.53819 6.13308 4.55018C6.16158 4.56315 6.29615 4.67442 6.27678 4.89842C6.25741 5.12242 6.17438 5.21561 6.17438 5.21561C6.17438 5.21561 6.09416 5.29582 6.03725 5.33729C5.97632 5.37868 5.95439 5.42655 5.85207 5.43047C5.86259 5.42211 5.87441 5.41554 5.88706 5.41102C5.88706 5.41102 5.78091 5.39813 5.7239 5.44985C5.6669 5.50156 5.54573 5.66087 5.48488 5.70883C5.42404 5.74766 5.35688 5.79169 5.35688 5.79169L5.35663 5.79161Z" fill="#CDAE50"/>
<path fill-rule="evenodd" clip-rule="evenodd" d="M9.66086 3.27376C9.50792 3.21802 9.3472 3.18658 9.18453 3.18058C8.91266 3.17153 8.51526 3.18706 8.12563 3.18962C7.70622 3.19218 7.32563 3.04592 6.7975 3.02006C6.7108 2.96827 6.4903 2.74171 5.802 3.22196C5.84339 3.2194 6.30171 3.11581 6.46086 3.31523C6.62137 3.51329 6.57606 3.84984 6.55413 3.93006C6.51266 4.10875 6.378 4.36893 6.32373 4.55146C6.26946 4.73398 6.28226 4.8299 6.24343 4.9579C6.2046 5.0859 6.11919 5.14947 6.16962 5.29701C6.23695 5.25563 6.27202 5.25563 6.38449 5.00321C6.49696 4.75079 6.47383 4.57083 6.66028 4.35724C6.84281 4.14237 7.14668 3.84848 7.26223 3.77467C7.37777 3.70085 8.29519 3.22452 9.25578 3.67892C9.48746 3.65435 9.66095 3.27367 9.66095 3.27367L9.66086 3.27376Z" fill="#D2A83E"/>
<path fill-rule="evenodd" clip-rule="evenodd" d="M6.18895 3.09761C6.188 3.08789 6.18585 3.07831 6.18255 3.06911C6.17356 3.05018 6.16177 3.03272 6.14756 3.01732C6.14756 3.01732 5.91972 2.97593 5.80452 2.98881C5.60254 3.01083 5.42001 3.26069 5.33459 3.38886C5.24917 3.51703 5.14302 3.715 5.02782 3.81732C5.02908 3.80735 5.02678 3.79726 5.02133 3.78881C5.02133 3.78881 5.02782 3.79786 5.01493 3.81083C5.00205 3.8238 5.00196 3.8302 5.00845 3.83643L5.0279 3.8558C5.0343 3.8558 5.21299 3.7755 5.45636 3.5486C5.71526 3.31172 5.91332 3.1902 6.01691 3.14856C6.07216 3.12508 6.12991 3.10799 6.18903 3.09761H6.18895Z" fill="#C29637"/>
<path fill-rule="evenodd" clip-rule="evenodd" d="M10.6085 2.12427C10.6085 2.12427 10.567 2.17598 10.5152 2.23298C10.4 2.35467 10.2498 2.4918 10.1217 2.63294C10.0001 2.7676 9.86285 2.87247 9.70873 3.04851C9.55462 3.22456 9.37593 3.41997 9.33071 3.47697C9.28932 3.53397 9.25698 3.62716 9.25698 3.67503C9.23496 3.6595 9.20911 3.64269 9.20911 3.64269C9.21999 3.66301 9.23301 3.68212 9.24793 3.69969C9.28027 3.745 9.33071 3.80209 9.35665 3.83691C9.38847 3.88123 9.41132 3.93135 9.42389 3.98445C9.43942 3.98701 9.53909 4.00646 9.66342 3.80192C9.78775 3.59738 9.95074 3.37346 9.95074 3.37346L10.2096 2.98895L10.3728 2.66281L10.5776 2.29775L10.6087 2.12427H10.6085Z" fill="#AC8132"/>
<path fill-rule="evenodd" clip-rule="evenodd" d="M10.8739 1.86279C10.8739 1.86279 10.7172 1.99079 10.6563 2.06759C10.5955 2.14439 10.4515 2.34595 10.4515 2.34595L10.5033 2.33947L10.7662 2.1065L10.8686 1.92398L10.8738 1.86313L10.8739 1.86279Z" fill="#A88F33"/>
<path fill-rule="evenodd" clip-rule="evenodd" d="M10.8259 12.1501C10.8259 12.1501 10.8233 12.0439 10.8829 11.9805C10.9437 11.917 11.0978 11.8239 11.2479 11.4743C11.3981 11.1248 11.4148 11.0459 11.4148 11.0459C11.4148 11.0459 11.1456 11.2763 10.9796 11.3306C11.0185 11.2503 11.0405 11.1934 11.0599 11.152C11.0379 11.1326 10.9447 11.1106 10.9357 11.1002C10.9874 11.0484 11.0159 10.9216 11.1208 10.8374C11.2554 10.735 11.5014 10.5591 11.6925 10.4022C11.8837 10.2454 12.2595 9.88057 12.3074 9.77441C12.3359 9.8158 12.3423 9.84166 12.3423 9.84166C12.3423 9.84166 12.1534 10.0877 12.055 10.2443C11.9682 10.3789 11.9747 10.4553 11.9747 10.4553L12.1534 10.3785C12.1534 10.3785 12.2051 10.5701 11.9709 10.8614C12.0733 10.8226 12.1146 10.8459 12.1728 10.8134C12.077 10.8744 11.9449 10.9572 11.8207 11.185C11.699 11.4128 11.5333 11.6782 11.2537 11.8438C10.9819 12.0186 10.8252 12.1493 10.8252 12.1493L10.8259 12.1501Z" fill="#A67A2E"/>
<path fill-rule="evenodd" clip-rule="evenodd" d="M10.1243 3.40844C10.1243 3.40844 10.0181 3.62971 10.0026 3.80191C10 3.84338 9.98961 3.87572 9.98961 3.9236C9.98705 4.07762 9.99866 4.24983 9.96401 4.33004C9.95104 4.2977 9.94455 4.27568 9.93158 4.2628C9.91221 4.31715 9.87723 4.48671 9.84873 4.55011C9.83584 4.50873 9.80734 4.36503 9.80998 4.19547C9.81263 4.02591 9.81638 3.99348 9.81638 3.95858C9.80998 4.0103 9.775 4.08027 9.76203 4.12166C9.74266 4.08675 9.72064 4.04144 9.6947 4.0039C9.67917 4.0295 9.6598 4.0673 9.64299 4.08675C9.64034 4.07122 9.63394 4.02975 9.63002 3.97155C9.62746 3.90423 9.62353 3.81753 9.62746 3.79935C9.63386 3.76445 9.6883 3.62723 9.8035 3.50162C9.94071 3.35144 10.0819 3.06284 10.1232 2.9735C10.1646 2.88415 10.3407 2.5127 10.3407 2.5127H10.4753L10.2798 2.95796C10.2798 2.95796 10.1621 3.20134 10.1012 3.29076C10.0404 3.38019 9.91221 3.63645 9.85521 3.73612C9.8966 3.68176 9.93158 3.65326 9.97306 3.60146C10.0132 3.5652 10.1244 3.40861 10.1244 3.40861L10.1243 3.40844Z" fill="#8C6228"/>
<path fill-rule="evenodd" clip-rule="evenodd" d="M10.8764 1.84595C10.8544 1.91364 10.8197 1.9765 10.774 2.03112C10.6937 2.12695 10.5215 2.25504 10.4375 2.35726C10.3607 2.45693 10.2071 2.72881 10.2769 3.05111C10.3025 2.98122 10.3507 2.84273 10.4789 2.68605C10.607 2.52938 10.7443 2.3495 10.8117 2.20972C10.8789 2.06858 10.888 1.95731 10.888 1.95731L10.9136 1.92497L10.898 1.85115L10.876 1.84595H10.8764Z" fill="#CBA94C"/>
<path fill-rule="evenodd" clip-rule="evenodd" d="M13.4977 10.4323C13.4977 10.4323 13.446 10.2913 13.4304 10.1631C13.4149 10.0349 13.456 10.0095 13.4084 9.86281C13.3799 9.77346 13.3282 9.78601 13.3152 9.77346C13.3022 9.76092 13.2932 9.62592 13.2958 9.55211C13.2983 9.47829 13.2932 9.38255 13.2802 9.34108C13.2609 9.32555 13.2479 9.31258 13.2194 9.21683C13.187 9.121 13.1715 9.07313 13.156 9.04471C13.1405 9.0163 13.0951 8.99036 13.0951 8.96186C13.0951 8.90485 13.1469 8.87516 13.1469 8.85946C13.1443 8.82711 13.1055 8.85306 13.0951 8.84393C13.0822 8.82839 13.1275 8.73521 13.1107 8.72224C13.1042 8.71584 13.0589 8.7702 13.0472 8.75467C13.0342 8.73905 13.0187 8.58502 12.9954 8.48279C12.9735 8.38313 12.9501 8.31068 12.9475 8.2809C12.945 8.25239 12.7688 7.75012 12.7262 7.62844C12.6918 7.52561 12.6628 7.42105 12.6395 7.31518C12.6265 7.25434 12.6174 7.13001 12.611 7.14298C12.6045 7.15595 12.6084 7.21935 12.598 7.21679C12.5889 7.21414 12.5566 6.99287 12.5463 6.95789C12.5372 6.9229 12.4828 6.80429 12.4695 6.71844C12.4565 6.63166 12.4281 6.4051 12.4086 6.25107C12.3892 6.09704 12.3801 6.03364 12.3801 5.99507C12.3833 5.90073 12.3781 5.8063 12.3646 5.71287C12.339 5.54972 12.2878 5.35166 12.2429 5.23654C12.1562 5.01903 11.9257 4.4624 11.8845 4.3239C11.8845 4.28892 11.9298 4.30837 11.9298 4.30837C11.9298 4.30837 12.0424 4.59057 12.1252 4.808C12.2055 5.02551 12.2819 5.21709 12.3014 5.23654C12.3169 5.25591 12.4386 5.4695 12.4929 5.81903C12.5473 6.16855 12.5667 6.49086 12.5991 6.70573C12.6146 6.80813 12.6276 6.91676 12.6599 7.02547C12.6948 7.14332 12.7492 7.265 12.8205 7.45137C12.8813 7.60804 12.9266 7.73877 12.9512 7.85141C12.9797 7.99511 12.9797 8.10383 12.9965 8.17508C13.0121 8.23593 13.0353 8.35753 13.0898 8.53348C13.1442 8.70944 13.2243 8.93609 13.2787 9.07714C13.3849 9.35934 13.4323 9.59494 13.4483 9.72055C13.4625 9.85001 13.5105 10.2979 13.4975 10.4325L13.4977 10.4323Z" fill="#A88F33"/>
<path fill-rule="evenodd" clip-rule="evenodd" d="M10.8829 1.83043L10.8764 1.84596C10.8764 1.84596 10.8958 1.85244 10.8919 1.87838C10.8922 1.91388 10.89 1.94934 10.8855 1.98454C10.8791 2.02985 10.8661 2.06475 10.8635 2.09325C10.8635 2.1541 10.8726 2.22398 10.7867 2.39747C10.7611 2.44534 10.7453 2.48673 10.7324 2.51523C10.7 2.58511 10.6935 2.59553 10.665 2.62787C10.7104 2.60227 10.8735 2.49987 10.9563 2.51523C10.8994 2.54757 10.8126 2.61106 10.7582 2.69392C10.7712 2.69647 10.8256 2.70689 10.9118 2.69392C11.0555 2.6719 11.216 2.6201 11.3571 2.63043C11.5112 2.63947 11.4504 2.44534 11.4504 2.44534L11.2725 2.05443L10.936 1.81763L10.8829 1.83051V1.83043Z" fill="#BE9C44"/>
<path fill-rule="evenodd" clip-rule="evenodd" d="M11.7605 4.7585C11.7605 4.7585 11.6103 4.60831 11.5495 4.0929C11.4887 3.57509 11.5016 2.8129 11.5016 2.8129L11.3799 2.51517C11.3799 2.51517 11.3543 2.31711 11.2906 2.24338C11.2269 2.16965 11.1017 2.04532 11.0447 1.98448C10.9877 1.92364 10.923 1.84078 10.8842 1.82781C10.9035 1.79547 10.9903 1.61294 11.3229 1.61038C11.6556 1.60782 11.7581 1.79291 11.7929 1.86023C11.8276 1.92756 11.9844 2.21863 12.0426 2.7733C12.097 3.32728 12.0996 3.36876 12.0906 3.56033C12.0841 3.66648 12.0491 3.91242 11.9882 4.17516C11.9326 4.39788 11.8717 4.64645 11.7604 4.75901L11.7605 4.7585Z" fill="#A17C34"/>
<path fill-rule="evenodd" clip-rule="evenodd" d="M11.2896 5.20011C11.3397 5.20372 11.3897 5.19244 11.4333 5.16768C11.4812 5.16512 11.6547 5.18714 11.788 5.01758C11.797 5.05632 11.8204 5.16128 11.7595 5.25446C11.7919 5.22204 11.8398 5.20915 11.8462 5.20011C11.8488 5.24798 11.8941 5.39552 11.7025 5.75409C11.7543 5.69717 11.8151 5.69973 11.8695 5.69325C11.8721 5.76058 11.9083 5.98705 11.8125 6.10882C11.7491 6.19168 11.6455 6.16574 11.6455 6.16574C11.6471 6.14765 11.6471 6.12947 11.6455 6.11138C11.643 6.07639 11.63 6.04149 11.6391 6.0182C11.5891 5.99533 11.5435 5.96375 11.5045 5.92493C11.3918 5.81877 11.2456 5.63761 11.2353 5.50295C11.2223 5.35277 11.3569 5.32043 11.3569 5.32043C11.3457 5.31033 11.336 5.29853 11.3284 5.28544C11.322 5.26351 11.3155 5.22852 11.2896 5.20011Z" fill="#8C6228"/>
<path fill-rule="evenodd" clip-rule="evenodd" d="M10.2912 3.57155C10.2912 3.57155 10.2847 3.5625 10.2498 3.60389C10.2563 3.5625 10.2628 3.52359 10.2653 3.48605C10.2819 3.45128 10.3032 3.41905 10.3288 3.3903C10.3094 3.42904 10.2964 3.46403 10.2964 3.46403C10.2964 3.46403 10.3444 3.37469 10.4143 3.32033C10.4621 3.2815 10.523 3.26341 10.5488 3.22714C10.5773 3.18832 10.5708 3.18183 10.5773 3.17535C10.5773 3.17535 10.6408 3.13396 10.7379 3.01219C10.7508 2.99666 10.7703 2.97985 10.7832 2.96432C10.8052 2.95527 10.857 2.93198 10.9178 2.90083C10.9813 2.86593 11.0525 2.81806 11.0965 2.79843C11.1832 2.7596 11.2752 2.76353 11.3178 2.7026C11.3502 2.69355 11.3851 2.59645 11.3787 2.51367C11.4266 2.53304 11.6725 2.68579 11.7567 3.01978C11.8176 3.25667 11.7088 3.62173 11.6634 3.79785C11.6181 3.97398 11.6117 4.10463 11.5482 4.18484C11.468 4.29108 11.2091 4.44084 11.1456 4.51499C11.0913 4.57584 10.9282 4.72986 10.9346 4.84114C10.9411 4.924 11.0433 4.96914 11.0654 4.98484C11.0875 5.00054 11.0874 5.01983 11.1288 5.01044C11.1703 5.00105 11.1858 4.98194 11.2026 4.98194C11.222 4.9845 11.222 4.98842 11.2311 4.98842C11.2376 4.98823 11.2441 4.98734 11.2505 4.98578C11.2505 4.98578 11.244 5.10362 10.9683 5.13938C10.9489 5.14202 10.9295 5.14842 10.9048 5.15235C10.9373 5.13682 10.9566 5.13682 10.9916 5.08895C10.9528 5.08246 10.8414 5.07598 10.8129 5.06693C10.822 5.0514 10.8518 5.00993 10.8763 4.99056C10.8983 4.97119 10.8738 4.96496 10.8544 4.97503C10.8211 4.99772 10.7891 5.02233 10.7586 5.04875C10.7262 5.07726 10.6977 5.11608 10.6459 5.15115C10.6304 5.09936 10.633 5.00097 10.6939 4.9298C10.6783 4.93236 10.6485 4.97767 10.6201 4.96863C10.6149 4.92141 10.618 4.87366 10.6291 4.82748C10.6447 4.7692 10.7288 4.66697 10.7288 4.66697L11.1352 3.9407L11.2219 3.39056L10.2912 3.57138V3.57155Z" fill="#92723A"/>
<path fill-rule="evenodd" clip-rule="evenodd" d="M10.2693 3.60256C10.2693 3.60256 10.2473 3.61809 10.2913 3.64788C10.2848 3.65692 10.2693 3.68926 10.2498 3.71128C10.2279 3.73688 10.2045 3.75275 10.1955 3.77477C10.1761 3.82008 10.1606 3.85114 10.1606 3.8706C10.1606 3.89005 10.1541 4.0143 10.0997 4.09451C10.0803 4.12301 10.0583 4.17088 10.0427 4.20323C10.0104 4.26014 9.98189 4.30563 9.97541 4.33123C9.96252 4.37654 9.95348 4.50078 9.95348 4.50078C9.95348 4.50078 9.98198 4.4658 9.9923 4.45291C9.97669 4.48525 9.95988 4.52015 9.9353 4.54609C9.95083 4.53312 9.99615 4.50078 10.0725 4.43345C10.1787 4.3442 10.3444 4.19401 10.5464 4.07505C10.4854 4.09707 10.4337 4.09707 10.3923 4.10356C10.4247 4.07121 10.7159 3.72945 10.8687 3.69711C10.878 3.68535 10.8826 3.67059 10.8816 3.65564L10.7508 3.64276L10.4854 3.69967L10.4467 3.49487L10.2693 3.60231V3.60256Z" fill="#B18E3E"/>
<path fill-rule="evenodd" clip-rule="evenodd" d="M10.6913 4.76778C10.6913 4.76778 10.6563 4.80268 10.624 4.88946C10.5991 4.86346 10.5777 4.83428 10.5605 4.80268C10.5126 4.72247 10.4389 4.62015 10.2667 4.67843C10.2641 4.62408 10.2602 4.59558 10.2667 4.55675C10.2952 4.55035 10.3819 4.48046 10.4686 4.37815C10.5295 4.30826 10.5864 4.22796 10.6253 4.12573C10.6509 4.10627 10.6952 4.07393 10.7533 4.03639C10.8361 3.97947 10.9358 3.90173 10.9513 3.81503C10.9125 3.83056 10.8296 3.86939 10.7053 3.86299C10.7533 3.84097 10.827 3.81768 10.818 3.72185C10.8374 3.70888 10.8529 3.69983 10.8529 3.69983C10.8383 3.69496 10.823 3.69277 10.8076 3.69335C10.805 3.6843 10.8011 3.67142 10.7791 3.67782C10.7571 3.68422 10.7535 3.6843 10.7506 3.69335C10.7416 3.69599 10.7118 3.69335 10.6898 3.70896C10.6678 3.72458 10.6069 3.7762 10.5836 3.78525C10.5927 3.76972 10.6056 3.74651 10.6056 3.74651C10.6056 3.74651 10.5422 3.75291 10.4968 3.77211C10.414 3.80061 10.3182 3.85241 10.2211 3.90284C10.2302 3.88731 10.2341 3.87724 10.2405 3.87434C10.2469 3.87144 10.2625 3.86794 10.2625 3.86529C10.2625 3.86265 10.2561 3.83969 10.26 3.83039C10.289 3.76889 10.3232 3.70999 10.3624 3.65435C10.4077 3.59342 10.4167 3.50672 10.4167 3.50672L10.6148 3.40705L11.1714 3.27905L11.5326 3.30107L11.4873 3.55092L11.274 3.98715L11.0914 4.38455L10.883 4.628L10.6914 4.76778H10.6913Z" fill="#543E26"/>
<path fill-rule="evenodd" clip-rule="evenodd" d="M11.5936 3.68643C11.5936 3.68643 11.3761 3.95566 11.3152 3.99713C11.3541 3.91427 11.5936 3.42105 11.6803 3.28383C11.6609 3.2683 11.635 3.2683 11.6958 3.02783C11.6441 3.14943 11.6259 3.21292 11.5833 3.24526C11.5406 3.2776 11.5353 3.26728 11.5065 3.26728C11.5119 3.25743 11.5141 3.24612 11.5129 3.23494C11.5129 3.23494 11.3303 3.21292 11.2057 3.21292C11.081 3.21292 10.8342 3.28025 10.6969 3.33461C10.5882 3.37992 10.5273 3.37992 10.4885 3.40833C10.4497 3.44067 10.4277 3.47566 10.4082 3.48471C10.3927 3.49375 10.319 3.51705 10.3021 3.54162C10.2865 3.56722 10.2607 3.59598 10.2607 3.60247C10.2607 3.60895 10.2542 3.61808 10.2737 3.61151C10.2801 3.60895 10.328 3.58301 10.3824 3.55067C10.4561 3.50928 10.5454 3.46141 10.6102 3.43291C10.7953 3.3591 10.8536 3.37207 10.9364 3.35654C11.023 3.34101 11.1474 3.30474 11.2302 3.30474C11.313 3.30218 11.4697 3.30474 11.506 3.31122C11.4904 3.32419 11.4774 3.33973 11.4839 3.39408C11.4839 3.40961 11.471 3.42642 11.4583 3.46397C11.4196 3.57013 11.3458 3.74617 11.3047 3.83551C11.2478 3.95711 11.1831 4.05943 11.1511 4.12283C11.1191 4.18623 11.0487 4.35323 10.979 4.44257C10.9093 4.53192 10.8729 4.58627 10.851 4.60573C10.8292 4.62519 10.6723 4.7403 10.684 4.78177C10.7125 4.77273 10.8925 4.70497 11.0231 4.55786C11.1538 4.41074 11.1798 4.32097 11.282 4.24067C11.3843 4.16038 11.4646 4.02581 11.5124 3.91453C11.5525 3.81094 11.5435 3.77859 11.5939 3.68669L11.5936 3.68643Z" fill="#806031"/>
<path fill-rule="evenodd" clip-rule="evenodd" d="M6.90618 5.69574C6.90618 5.69574 6.87768 5.8135 6.81291 5.87179C6.74951 5.92879 6.63687 5.97794 6.62399 6.07377C6.60846 6.16952 6.73663 6.21747 6.73663 6.21747C6.73663 6.21747 6.66665 6.33267 6.66665 6.41937C6.66665 6.50872 6.66409 6.52553 6.67314 6.61094C6.66287 6.61755 6.65414 6.62628 6.64754 6.63654C6.64754 6.63654 6.65394 6.7194 6.71743 6.77112C6.78091 6.82283 6.83519 6.85397 6.86753 6.841C6.87247 6.85156 6.8768 6.86238 6.8805 6.87343C6.8805 6.87343 6.92846 6.75174 6.9608 6.64559C6.99314 6.53688 7.02164 6.55232 7.03452 6.40606C7.04741 6.2598 7.18812 6.00866 7.18812 6.00866L7.28412 5.79405L7.12754 5.67236L6.90618 5.69566V5.69574Z" fill="#B6903C"/>
<path fill-rule="evenodd" clip-rule="evenodd" d="M7.19746 5.90674C7.16517 5.93989 7.13536 5.97537 7.10829 6.01289C7.0669 6.0699 7.03456 6.12161 6.97371 6.14371C6.91287 6.16581 6.87405 6.16564 6.87789 6.22657C6.88173 6.2875 6.93873 6.31327 6.97107 6.34433C7.00606 6.37667 7.03456 6.43103 7.01903 6.49195C7.0384 6.48291 7.07338 6.4725 7.10573 6.40261C7.13807 6.33272 7.36429 5.90682 7.36429 5.90682H7.19746V5.90674Z" fill="#685026"/>
<path fill-rule="evenodd" clip-rule="evenodd" d="M8.08958 4.92426C8.08958 4.92426 8.10895 4.87255 8.08958 4.835C8.07013 4.79617 7.95237 4.7832 7.89408 4.73917C7.83324 4.69386 7.75943 4.66237 7.69859 4.68225C7.70763 4.66024 7.7439 4.61228 7.71412 4.60195C7.68562 4.59291 7.57955 4.64078 7.55104 4.6628C7.52254 4.68481 7.45778 4.71067 7.44489 4.72628C7.432 4.7419 7.4099 4.7716 7.39693 4.75863C7.38396 4.74958 7.37756 4.72628 7.35555 4.73917C7.33353 4.75206 7.22755 4.83884 7.208 4.88936C7.18846 4.93987 7.14452 5.05251 7.01251 5.1806C6.8805 5.30868 6.82349 5.39163 6.86232 5.4395C6.90115 5.48737 6.91932 5.45247 6.92581 5.49386C6.9308 5.53449 6.9286 5.57568 6.91932 5.61554C6.90379 5.68287 6.87794 5.74627 6.91284 5.75924C7.00218 5.78775 7.08896 5.73364 7.10834 5.7502C7.14716 5.7851 7.08632 5.91071 7.17822 5.93529C7.27149 5.96089 7.3634 5.91327 7.3634 5.91327L7.70251 5.73074L8.02874 5.55863L8.19565 5.22847L8.10614 4.95276L8.08907 4.92426H8.08958Z" fill="#D4B968"/>
<path fill-rule="evenodd" clip-rule="evenodd" d="M7.76963 5.71252C7.76963 5.71252 7.71263 5.62582 7.7826 5.54937C7.85257 5.47291 7.95216 5.44065 7.99098 5.39278C7.98359 5.38366 7.97368 5.37693 7.96248 5.37341C7.98826 5.32729 8.02758 5.2902 8.07512 5.26717C8.05575 5.2478 8.02981 5.23227 8.00139 5.23227C7.93791 5.23227 7.899 5.27109 7.8408 5.27109C7.78388 5.27109 7.77739 5.24259 7.77739 5.24259C7.77739 5.24259 7.87322 5.23355 7.86409 5.1908C7.85505 5.14548 7.83849 5.14548 7.83849 5.14548C7.83849 5.14548 8.02358 5.06868 8.05592 5.02772C8.08826 4.98676 8.08442 4.93838 8.09091 4.91901C8.11284 4.91901 8.24101 4.85168 8.29281 4.88018C8.34461 4.90868 8.30834 4.98634 8.30834 4.98634C8.30834 4.98634 8.4651 4.86849 8.54497 4.75295C8.61486 4.75944 8.64737 4.70508 8.69857 4.70508C8.76206 4.70508 8.86173 4.79178 8.8811 4.97686C8.89407 5.08302 8.91344 5.14386 8.89407 5.3316C8.88502 5.43775 8.88758 5.6644 8.91967 5.77686C8.9416 5.86621 8.9934 5.85716 8.9934 5.85716C8.98545 5.88439 8.96969 5.90869 8.94808 5.92705C8.9131 5.95939 8.90926 6.0449 8.9131 6.07724C8.91826 6.10088 8.92475 6.12422 8.93255 6.14713C8.93255 6.14713 8.89117 6.195 8.88075 6.22742C8.87171 6.25977 8.82904 6.28178 8.7979 6.28178C8.76675 6.28178 8.78237 6.27914 8.74098 6.28178C8.69959 6.28443 8.68662 6.29083 8.66068 6.28178C8.63474 6.27274 8.61537 6.26233 8.62578 6.17938C8.63482 6.09652 8.30604 5.90367 8.30604 5.90367L7.76844 5.7121L7.76963 5.71252Z" fill="#CCA849"/>
<path fill-rule="evenodd" clip-rule="evenodd" d="M7.1521 6.53083C7.1521 6.53083 7.26986 6.6875 7.75404 6.6875C7.98444 6.6875 8.06474 6.66549 8.11244 6.65252C8.16424 6.63954 8.35837 6.56326 8.55387 6.33277C8.72991 6.12439 8.69109 6.03897 8.69109 6.03897L8.58869 6.02344L8.25589 6.06875L7.27114 6.48816L7.15167 6.53083H7.1521Z" fill="#585136"/>
<path fill-rule="evenodd" clip-rule="evenodd" d="M7.51329 6.56947C7.51329 6.56947 7.09387 6.66274 7.09387 6.39735C7.09387 6.13845 7.35277 5.86658 7.41754 5.81871C7.48487 5.77075 7.64538 5.71631 7.64538 5.71631H8.03245L8.10618 5.91181L8.07384 6.33378L7.51329 6.56939V6.56947Z" fill="#252211"/>
<path fill-rule="evenodd" clip-rule="evenodd" d="M7.90031 5.7954C7.90031 5.7954 7.8201 5.72159 7.63757 5.821C7.45504 5.92042 7.30742 6.1282 7.29837 6.31687C7.28933 6.48379 7.43559 6.60812 7.66343 6.6146C7.83298 6.621 7.9353 6.60163 7.9871 6.589C7.97412 6.57347 7.9068 6.48933 7.9068 6.48933L7.9004 5.79549L7.90031 5.7954Z" fill="#C3B378"/>
<path fill-rule="evenodd" clip-rule="evenodd" d="M7.82139 5.83689C7.82139 5.83689 7.80202 5.82136 7.74459 5.85242C7.69672 5.87802 7.62683 5.94569 7.57247 5.99356C7.53748 6.02206 7.51547 6.03495 7.49567 6.05696C7.41537 6.15279 7.34804 6.30947 7.38696 6.38712C7.42587 6.46477 7.55395 6.55412 7.88018 6.49327L7.82045 5.83698L7.82139 5.83689Z" fill="#E6D89C"/>
<path fill-rule="evenodd" clip-rule="evenodd" d="M7.71523 5.99733C7.71523 5.99733 7.66343 6.07763 7.66343 6.2058C7.66343 6.33653 7.73724 6.54491 8.00912 6.56044C8.2175 6.57341 8.35728 6.26015 8.50874 6.13847C8.62394 6.04528 8.69383 6.04264 8.69383 6.04264C8.69383 6.04264 8.57607 5.91464 8.26153 5.74884C7.95083 5.58184 7.60259 5.55982 7.41357 5.81616C7.50292 5.80968 7.7916 5.73587 7.7916 5.73587L7.93274 5.78118L7.71523 5.99741V5.99733Z" fill="#252211"/>
<path fill-rule="evenodd" clip-rule="evenodd" d="M8.1217 6.16701C8.11265 6.14764 8.10616 6.1217 8.14371 6.1153C8.18126 6.1089 8.19807 6.11265 8.21104 6.1409C8.22401 6.16915 8.23664 6.1927 8.21744 6.20439C8.19807 6.21471 8.14755 6.20439 8.12161 6.16684L8.1217 6.16701ZM8.06085 5.98448C8.06085 5.98448 8.04788 5.99353 8.05437 5.97544C8.05693 5.95351 8.07382 5.9146 8.11521 5.92373C8.1566 5.93286 8.14764 5.97808 8.14081 5.99105C8.13398 6.00403 8.09942 6.02596 8.07348 6.01665C8.07019 6.01581 8.06715 6.01421 8.0646 6.01197C8.06204 6.00973 8.06006 6.00693 8.05879 6.00377C8.05753 6.00062 8.05703 5.99722 8.05732 5.99384C8.05762 5.99046 8.05872 5.98719 8.06051 5.98431L8.06085 5.98448Z" fill="#6F674D"/>
<path fill-rule="evenodd" clip-rule="evenodd" d="M4.55682 6.0673C4.55682 6.0673 4.65922 6.1441 4.77818 6.14112C4.89594 6.13847 5.04741 6.01687 5.11729 5.93913C5.15868 5.89382 5.19409 5.84595 5.23249 5.8084C5.26492 5.77606 5.28685 5.76053 5.30238 5.73851C5.3244 5.71291 5.34769 5.66479 5.35938 5.64917C5.33088 5.67119 5.2895 5.7101 5.24674 5.73595C5.20536 5.76155 5.11601 5.80968 5.07975 5.82265C5.04485 5.83562 4.68235 6.02745 4.68235 6.02745L4.55682 6.0673Z" fill="#AC924C"/>
<path fill-rule="evenodd" clip-rule="evenodd" d="M4.71332 5.11075C4.71332 5.11075 4.77023 5.07193 4.88031 5.04727C4.98647 5.02167 5.20006 5.00195 5.20006 5.00195L5.3761 5.07875L5.44599 5.34414L5.31799 5.61994L5.15492 5.72234L4.96974 5.42461L4.71374 5.11127L4.71332 5.11075Z" fill="#9F8E57"/>
<path fill-rule="evenodd" clip-rule="evenodd" d="M4.48293 5.3475L4.422 5.39299C4.422 5.39299 4.43761 5.36449 4.4505 5.27779C4.46338 5.19109 4.5308 4.98006 4.62919 4.85837C4.72758 4.73669 4.72502 4.74317 4.72502 4.74317C4.71596 4.74152 4.70666 4.74181 4.69773 4.74403C4.6888 4.74625 4.68044 4.75035 4.67322 4.75606C4.68619 4.72739 4.76905 4.62499 4.85191 4.57379C4.93477 4.52259 4.96711 4.50646 5.0538 4.54819C5.1405 4.58992 5.16252 4.61159 5.22601 4.60903C5.2895 4.60647 5.34377 4.53914 5.34377 4.53914C5.34377 4.53914 5.35674 4.58053 5.30887 4.67636C5.26099 4.77219 5.07198 4.9676 5.07198 4.9676L4.67842 5.23683L4.48293 5.34776V5.3475Z" fill="#EAC970"/>
<path fill-rule="evenodd" clip-rule="evenodd" d="M4.77408 5.07824C4.77408 5.07824 5.05893 5.11707 5.14563 5.03686C5.14819 5.0459 5.1586 5.0459 5.1586 5.05239C5.1579 5.05728 5.15562 5.0618 5.15211 5.06527C5.16154 5.06377 5.17106 5.06291 5.18061 5.06271C5.19201 5.06611 5.20374 5.06828 5.2156 5.0692C5.22515 5.06899 5.23467 5.06811 5.2441 5.06655C5.2432 5.07299 5.24101 5.07917 5.23767 5.08475C5.23433 5.09032 5.2299 5.09516 5.22464 5.09898C5.23761 5.09898 5.25024 5.10154 5.25024 5.11186C5.25024 5.12219 5.2528 5.15334 5.23727 5.15982C5.22441 5.16338 5.21071 5.16245 5.19845 5.15718C5.19947 5.18169 5.20613 5.20563 5.2179 5.22715C5.2435 5.27502 5.29812 5.32955 5.3715 5.31385C5.3715 5.31385 5.41024 5.40703 5.24717 5.61414C5.22524 5.64264 5.20186 5.68146 5.17344 5.71381C5.16222 5.73828 5.15363 5.76388 5.14784 5.79018C5.14784 5.79018 5.42364 5.68402 5.50257 5.44193C5.58287 5.19856 5.5984 4.95912 5.58287 4.7352C5.58023 4.67172 5.5699 4.62649 5.55437 4.59406C5.51555 4.51376 5.40675 4.52673 5.3628 4.57205C5.29931 4.63553 5.19316 4.7934 5.04562 4.90212C4.89543 5.01083 4.88903 5.03012 4.77374 5.07824H4.77408Z" fill="#D7BC6B"/>
<path fill-rule="evenodd" clip-rule="evenodd" d="M4.43238 5.42779C4.43238 5.42779 4.37803 5.46013 4.34952 5.58139C4.32102 5.70563 4.37512 5.8571 4.40644 5.90497C4.43776 5.95284 4.50884 6.08366 4.6563 6.09014C4.6928 6.08995 4.72889 6.08246 4.76245 6.06813C4.81393 6.04452 4.86221 6.0145 4.90615 5.97878C4.96964 5.93091 5.02135 5.88952 5.01487 5.8856C4.99934 5.87911 4.62396 5.56841 4.62396 5.56841L4.48282 5.41089L4.4323 5.42796L4.43238 5.42779Z" fill="#585136"/>
<path fill-rule="evenodd" clip-rule="evenodd" d="M4.7872 5.94299C4.7872 5.94299 4.86357 5.93659 4.90888 5.90809C4.95419 5.87959 4.64349 5.57153 4.64349 5.57153L4.66551 5.90433L4.7872 5.94299Z" fill="#453A25"/>
<path fill-rule="evenodd" clip-rule="evenodd" d="M4.45698 5.40453C4.45698 5.40453 4.41815 5.47834 4.41815 5.49779C4.41167 5.5612 4.43112 5.76054 4.44665 5.82394C4.46218 5.89127 4.54632 5.9935 4.65512 5.9935C4.72237 5.9935 4.81563 5.95211 4.81563 5.94178C4.81563 5.92881 4.71981 5.91618 4.69395 5.86797C4.67842 5.84237 4.67193 5.77871 4.66835 5.71437C4.66579 5.67298 4.66579 5.62767 4.68132 5.61197C4.71631 5.57314 4.72271 5.46178 4.72271 5.46178L4.84695 5.23096H4.68354L4.48804 5.35264L4.45698 5.40453Z" fill="#84754B"/>
<path fill-rule="evenodd" clip-rule="evenodd" d="M4.40906 5.47583C4.40906 5.47583 4.53706 5.30627 4.65243 5.26736C4.7678 5.22844 4.81943 5.25183 4.81943 5.25183L4.7521 5.42403L4.65627 5.53018L4.66275 5.58454C4.66275 5.58454 4.64714 5.72824 4.74297 5.82791C4.8388 5.92758 4.90996 5.92374 4.95144 5.92374C4.99291 5.92374 5.11195 5.88875 5.17279 5.74505C5.22715 5.61048 5.27246 5.43785 5.16375 5.2648C5.05751 5.09259 4.86986 5.08594 4.83359 5.08594C4.79732 5.08594 4.51257 5.10019 4.40906 5.47557V5.47583Z" fill="#252211"/>
<path fill-rule="evenodd" clip-rule="evenodd" d="M7.69579 6.05164C7.64792 6.02962 7.69323 5.89505 7.7411 5.85358C7.78897 5.81211 7.84981 5.76432 7.95605 5.75775C7.9948 5.75519 8.03234 5.77977 8.02594 5.80571C8.0169 5.85358 7.94957 5.92091 7.88873 5.96878C7.80459 6.03483 7.75014 6.07622 7.69579 6.05164Z" fill="#F7F7E7"/>
<path fill-rule="evenodd" clip-rule="evenodd" d="M5.10678 5.31779C5.14177 5.31523 5.18708 5.34339 5.19613 5.38128C5.20517 5.42266 5.17411 5.50552 5.10678 5.50552C5.05243 5.50552 5.02393 5.43819 5.02393 5.41882C5.02454 5.4029 5.02899 5.38735 5.0369 5.37351C5.03946 5.36959 5.04594 5.32427 5.10678 5.31779Z" fill="#F8F6DE"/>
<path fill-rule="evenodd" clip-rule="evenodd" d="M4.60197 5.34766C4.60197 5.34766 4.51262 5.38904 4.47124 5.47566C4.44167 5.53961 4.43272 5.61119 4.44564 5.68046C4.45212 5.7128 4.48446 5.79301 4.50648 5.82151C4.5285 5.85001 4.55828 5.86947 4.58029 5.86682C4.60231 5.86418 4.64754 5.80598 4.64754 5.77108C4.64754 5.73618 4.65018 5.58855 4.69285 5.50825C4.73039 5.42804 4.60222 5.34774 4.60222 5.34774L4.60197 5.34766Z" fill="#D4C38B"/>
<path fill-rule="evenodd" clip-rule="evenodd" d="M4.6149 5.34104C4.59937 5.35009 4.57352 5.36306 4.57992 5.37987C4.5864 5.3954 4.64076 5.40547 4.66022 5.44336C4.68223 5.48219 4.68223 5.52357 4.67575 5.54303C4.69266 5.535 4.708 5.52402 4.72106 5.5106C4.74956 5.47826 4.78446 5.43431 4.81424 5.43431C4.8337 5.43431 4.85307 5.44336 4.87124 5.44336C4.89975 5.44336 4.92816 5.43431 4.93209 5.40453C4.93849 5.36571 4.87773 5.33072 4.84274 5.33721C4.84923 5.31161 4.85827 5.2738 4.82977 5.24786C4.80127 5.22192 4.71201 5.26732 4.69256 5.28029C4.6731 5.29326 4.6149 5.34113 4.6149 5.34113V5.34104Z" fill="#E2D59D"/>
<path fill-rule="evenodd" clip-rule="evenodd" d="M6.67185 8.06073L6.86342 8.00415L6.91778 8.04298C6.91778 8.04298 6.95652 8.12584 7.01745 8.13616C6.99799 8.17755 6.94747 8.21296 6.95012 8.24232C6.95277 8.27167 6.97862 8.29411 6.97862 8.29411C6.97862 8.29411 6.80642 8.57887 7.14562 8.86585C7.06532 8.89819 6.96309 8.94265 6.90873 8.96825C6.94747 8.97729 7.03033 8.99385 7.06532 9.02525C7.10031 9.05665 7.10031 9.06664 7.13265 9.08609C7.16499 9.10555 7.18436 9.1314 7.17796 9.14301C7.15594 9.13004 7.08213 9.0913 7.06925 9.12748C7.05636 9.16366 6.7495 9.14949 6.7495 9.14949L6.2317 9.24916C6.2317 9.24916 6.25107 9.19737 6.19671 9.14949C6.13331 9.09258 6.05566 9.15205 5.9728 9.08865C5.86408 9.00579 5.86016 8.90996 5.82526 8.87378C5.86016 8.85177 5.93141 8.81943 6.10097 8.79698C6.09448 8.78401 6.07247 8.74518 6.08544 8.71028C6.10097 8.66497 6.16565 8.63647 6.14628 8.58228C6.17478 8.5758 6.18767 8.5758 6.25892 8.48645C6.32625 8.39711 6.36764 8.37774 6.41943 8.37125C6.47123 8.36477 6.50229 8.37125 6.59812 8.28191C6.66536 8.21851 6.64343 8.16415 6.64343 8.16415C6.64343 8.16415 6.68738 8.1499 6.67193 8.06056L6.67185 8.06073Z" fill="#CBAC5A"/>
<path fill-rule="evenodd" clip-rule="evenodd" d="M6.1062 8.08953C6.10876 8.07656 6.11917 8.07007 6.18905 8.07656C6.25894 8.08305 6.70165 8.03517 6.82206 8.02869C6.94374 8.01964 7.3722 8.02604 7.58067 8.07007C7.78914 8.11411 8.00008 8.1659 8.10231 8.19176C8.20471 8.22026 8.23697 8.2305 8.23304 8.24347C8.23048 8.25644 8.20744 8.26907 8.19422 8.26549C8.18133 8.26293 7.84213 8.15933 7.73734 8.13749C7.63255 8.11564 7.26997 8.05719 7.07174 8.06069C6.88665 8.06333 6.81284 8.05813 6.65625 8.07622C6.49958 8.09567 6.24068 8.12153 6.16303 8.11121C6.08623 8.10216 6.1021 8.10216 6.10602 8.08919L6.1062 8.08953Z" fill="#D6BC6F"/>
<path fill-rule="evenodd" clip-rule="evenodd" d="M7.1482 9.10421C7.1482 9.10421 7.41358 9.24791 7.50941 9.42395C7.5793 9.55468 7.46802 9.61945 7.46802 9.61945C7.46802 9.61945 7.61821 9.61945 7.59876 9.70231C7.58971 9.75402 7.33985 9.8938 7.17286 9.96761C7.0033 10.0414 7.00978 10.0376 6.92693 10.0505C6.84663 10.0634 6.62655 10.0249 6.58124 10.0893C6.53593 10.1537 6.55564 10.2201 6.56827 10.2304C6.58124 10.2395 6.68612 10.2525 6.68612 10.2525C6.68612 10.2525 6.6641 10.3133 6.44667 10.3198C6.22924 10.3263 6.1748 10.3417 6.16183 10.3651C6.14886 10.387 6.20321 10.3741 6.30297 10.3907C6.40264 10.4062 6.54241 10.4163 6.54241 10.4163C6.54241 10.4163 6.4971 10.4551 6.37934 10.4862C6.24469 10.5211 6.03366 10.5535 5.97025 10.5923C6.0026 10.6144 6.05055 10.6467 6.07265 10.6493C6.0183 10.6622 5.94184 10.6907 5.92895 10.701C5.94832 10.714 5.97426 10.7296 5.97426 10.7296C5.97426 10.7296 5.86546 10.8603 5.80206 10.8927C5.73866 10.9251 5.3736 11.0946 5.24799 11.0623C4.93473 10.9794 4.89591 10.6364 4.81953 10.6105C4.70433 10.5717 4.64998 10.6493 4.54766 10.5949C4.59297 10.5626 4.61764 10.5432 4.66551 10.5212C4.61371 10.4956 4.34576 10.3257 4.34576 10.3257C4.31774 10.2646 4.28664 10.205 4.25258 10.1471C4.20078 10.0577 4.12458 9.9386 4.06741 9.83372C3.94316 9.60332 3.93668 9.49717 3.82404 9.36644C3.84349 9.34084 3.91073 9.34442 3.91073 9.34442L4.85452 9.65512L6.52799 9.70359L6.96319 9.08228L7.14828 9.10429L7.1482 9.10421Z" fill="#DFC677"/>
<path fill-rule="evenodd" clip-rule="evenodd" d="M4.66925 10.0517C4.67935 10.063 4.69112 10.0726 4.70415 10.0802C4.73658 10.1023 4.78445 10.1282 4.81679 10.1669C4.82976 10.1476 4.8621 10.1126 4.91919 10.1669C4.97628 10.2213 5.04719 10.1826 5.09131 10.1954C5.13662 10.2111 5.13918 10.2175 5.13918 10.2175C5.13918 10.2175 5.16478 10.1954 5.22204 10.1721C5.25703 10.1592 5.29841 10.1501 5.34372 10.1372C5.38511 10.1282 5.43042 10.1152 5.46157 10.1152C5.49007 10.1346 5.5923 10.2432 6.00267 10.0829C6.38974 9.93269 6.479 9.91588 6.54377 9.93909C6.55025 9.92356 6.55674 9.89378 6.65641 9.89771C6.65641 9.85632 6.57355 9.71518 6.57355 9.71518L6.11659 9.55859H5.86665L5.11717 9.69581L4.70185 9.93278L4.66951 10.0522L4.66925 10.0517Z" fill="#C4A859"/>
<path fill-rule="evenodd" clip-rule="evenodd" d="M4.41943 9.78905C4.41943 9.78905 4.42848 9.85893 4.53207 9.93275C4.63447 10.0065 4.66664 10.0505 4.66664 10.0505C4.66664 10.0505 4.6861 10.0249 4.70163 9.99879C4.71716 9.97029 4.73013 9.93795 4.75599 9.92891C4.80779 9.90689 4.92555 9.94828 4.95149 9.94179C4.9735 9.93539 4.96702 9.89008 4.99031 9.89008C5.04467 9.88743 5.07957 9.92498 5.09903 9.92498C5.11848 9.92498 5.16627 9.92242 5.17276 9.9121C5.17924 9.90177 5.1818 9.79425 5.25561 9.74245C5.33591 9.68554 5.4343 9.71011 5.46041 9.72308C5.46041 9.74245 5.46297 9.79041 5.51477 9.79297C5.56657 9.79553 5.57169 9.78649 5.61717 9.80202C5.66265 9.81755 5.71684 9.79946 5.74142 9.87574C5.76343 9.86934 5.81523 9.86286 5.80226 9.78905C5.82786 9.76967 5.85022 9.7567 5.90466 9.68033C5.91763 9.66096 5.93956 9.63894 5.95646 9.61044C6.00177 9.61044 6.05613 9.6014 6.12857 9.6648C6.10656 9.68033 6.09359 9.6904 6.08719 9.70619C6.10614 9.72495 6.12344 9.7453 6.1389 9.76703C6.15836 9.79263 6.17133 9.82403 6.1959 9.83052C6.25026 9.84605 6.3396 9.82403 6.43927 9.83052C6.5351 9.837 6.61532 9.8719 6.6503 9.89392C6.66327 9.88752 6.66327 9.88487 6.69561 9.89136C6.72796 9.89785 6.75253 9.90041 6.71763 9.85902C6.737 9.86806 6.75902 9.88752 6.77847 9.86806C6.79793 9.84861 6.81337 9.82019 6.86773 9.81371C6.92209 9.80722 6.94155 9.81627 6.96356 9.75935C6.99206 9.68946 6.89367 9.68946 6.89367 9.68946C6.89367 9.68946 6.93899 9.64799 6.9895 9.59363C7.05035 9.53671 7.12023 9.4629 7.13704 9.37228C7.16555 9.20528 7.00247 9.18335 7.00247 9.18335L6.21152 9.42672L5.24452 9.37876L4.41995 9.78913L4.41943 9.78905Z" fill="#927D49"/>
<path fill-rule="evenodd" clip-rule="evenodd" d="M3.70878 7.50427C3.70878 7.50427 3.68318 7.53661 3.66739 7.61298C3.6516 7.68936 3.65835 7.68031 3.64538 7.73467C3.6324 7.78903 3.47309 8.33012 3.53282 8.51265C3.59255 8.69518 3.69598 8.76251 3.76066 8.91005C3.77363 8.94239 3.78626 8.96185 3.793 8.99035C3.81502 9.08609 3.79565 9.15991 3.8215 9.25574C3.83055 9.28808 3.85393 9.32562 3.88883 9.36445C3.96563 9.44466 4.09082 9.52104 4.14483 9.57539C4.22112 9.65569 4.32992 9.81885 4.46842 9.83429C4.54223 9.84334 4.6471 9.81228 4.7338 9.76057C4.8106 9.71261 4.85805 9.64537 4.9386 9.60697C4.99552 9.57847 5.05636 9.56814 5.11072 9.55517C5.22336 9.53315 5.32567 9.52957 5.38652 9.5422C5.4797 9.56165 5.69977 9.62898 5.82172 9.62898C5.917 9.62745 6.01175 9.61441 6.10391 9.59016C6.289 9.5358 6.51292 9.44253 6.66054 9.40114C6.74724 9.37554 6.81713 9.3688 6.88838 9.35327C7.01007 9.32477 7.1123 9.28594 7.17058 9.21213C7.13175 9.16682 7.08388 9.09693 6.82489 9.09949C6.53109 9.10597 6.19189 9.26905 6.02489 9.29499C5.8579 9.32093 5.78545 9.34286 5.599 9.27553C5.41621 9.20752 5.41015 9.16255 5.41015 9.16255C5.41015 9.16255 5.21824 9.02832 5.13794 8.68614C5.05764 8.34395 5.13794 8.0946 5.34641 7.85763C5.40077 7.79679 5.3878 7.74243 5.3878 7.74243C5.3878 7.74243 5.52501 7.55735 5.48747 7.38403C5.44608 7.21183 5.18069 7.24682 5.18069 7.24682L3.70886 7.50427H3.70878Z" fill="#6E6342"/>
<path fill-rule="evenodd" clip-rule="evenodd" d="M3.93014 8.08032C3.91872 8.10178 3.91336 8.12594 3.91461 8.15021C3.91717 8.18511 3.92758 8.23042 4.03237 8.33274C4.12171 8.422 4.10225 8.52167 4.10225 8.52167C4.10225 8.52167 4.14722 8.53071 4.26925 8.47362C4.36508 8.42831 4.39725 8.50861 4.39725 8.50861C4.42515 8.49398 4.45538 8.48434 4.4866 8.48011C4.51488 8.4775 4.54225 8.46877 4.56681 8.45451C4.56681 8.45451 4.67945 8.56971 4.77784 8.62407C4.86718 8.67202 4.91898 8.70437 4.96301 8.67202C5.0044 8.64352 5.0044 8.58524 5.00175 8.55938C4.99148 8.53552 4.97848 8.51293 4.96301 8.49206C4.93451 8.45067 4.8892 8.40271 4.88621 8.36406C4.87973 8.2748 4.95354 8.16856 4.93792 8.1427C4.92231 8.11684 4.8642 8.11036 4.72049 8.16216C4.57167 8.21131 3.92954 8.08058 3.92954 8.08058L3.93014 8.08032Z" fill="#39331F"/>
<path fill-rule="evenodd" clip-rule="evenodd" d="M4.26925 8.65889C4.26925 8.65889 4.19552 8.589 4.22138 8.2498C4.25268 8.24934 4.28393 8.25238 4.31456 8.25885C4.31456 8.25885 4.35476 8.52167 4.26925 8.65889Z" fill="#292311"/>
<path fill-rule="evenodd" clip-rule="evenodd" d="M3.74372 7.24535C3.75401 7.23773 3.76356 7.22916 3.77223 7.21975C3.74663 7.26762 3.62844 7.45919 3.72427 7.76085C3.8201 8.06114 4.06082 8.28505 4.35727 8.29546C4.65372 8.30587 4.80954 8.1608 4.98771 7.94338C5.0576 7.85668 5.1379 7.74788 5.20907 7.67415C5.31522 7.55886 5.39808 7.52652 5.39808 7.41525C5.39808 7.18741 5.16504 7.08509 4.822 6.98286C4.47896 6.88063 4.16954 6.89326 4.00903 6.96324C3.85244 7.03952 3.78511 7.11982 3.74364 7.24543L3.74372 7.24535Z" fill="#252211"/>
<path fill-rule="evenodd" clip-rule="evenodd" d="M4.84529 8.76113L4.87089 8.74816C4.87089 8.74816 4.87729 8.64576 4.91876 8.64849C4.96015 8.65498 4.9796 8.70942 4.97568 8.72879C4.97312 8.74816 4.96279 8.78059 4.92132 8.77666C4.86696 8.77794 4.84503 8.76113 4.84503 8.76113H4.84529Z" fill="#3F3824"/>
<path fill-rule="evenodd" clip-rule="evenodd" d="M4.7301 8.32618C4.7301 8.32618 4.7557 8.31713 4.78702 8.34819C4.81262 8.34819 4.92424 8.33522 4.95922 8.35724C4.99421 8.37925 5.00453 8.39862 5.00453 8.39862C5.00453 8.39862 4.8738 8.42713 4.80255 8.39862C4.7301 8.37405 4.7301 8.32618 4.7301 8.32618Z" fill="#2D2815"/>
<path fill-rule="evenodd" clip-rule="evenodd" d="M5.30618 8.34551C5.30618 8.33903 5.23629 8.29116 5.16248 8.27554C5.14951 8.27298 5.14687 8.28203 5.13688 8.28203C5.1304 8.27947 5.12784 8.26001 5.12784 8.26001L5.08585 8.28211C5.08585 8.28211 5.07937 8.29116 5.10138 8.30771C5.12075 8.32324 5.15318 8.33621 5.16223 8.36207C5.17127 8.38792 5.17127 8.39697 5.1752 8.4009C5.17776 8.40346 5.22307 8.4009 5.24508 8.38792C5.2671 8.37495 5.30857 8.35379 5.30593 8.34526L5.30618 8.34551Z" fill="#82764F"/>
<path fill-rule="evenodd" clip-rule="evenodd" d="M4.65247 8.60842C4.65247 8.60842 4.66535 8.51916 4.75214 8.51524C4.84139 8.50875 4.85829 8.59545 4.85829 8.59545L4.80649 8.64725C4.80649 8.64597 4.76767 8.59161 4.65289 8.60842H4.65247Z" fill="#2D2816"/>
<path fill-rule="evenodd" clip-rule="evenodd" d="M5.21558 8.22393C5.21558 8.22393 5.16763 8.27573 5.06156 8.29126C5.05251 8.27829 5.03306 8.25243 5.06156 8.21104C5.09006 8.16966 5.1224 8.15669 5.15474 8.16957C5.16901 8.17189 5.18232 8.17823 5.1931 8.18786C5.20388 8.19749 5.21168 8.21001 5.21558 8.22393Z" fill="#574F35"/>
<path fill-rule="evenodd" clip-rule="evenodd" d="M5.41097 8.28741C5.41361 8.27443 5.40457 8.27187 5.41097 8.26539C5.41737 8.2589 5.45244 8.24602 5.45893 8.25242C5.46149 8.25506 5.45893 8.26539 5.45893 8.27802C5.45893 8.29065 5.45893 8.30362 5.45244 8.31292C5.4434 8.32589 5.41754 8.33238 5.40457 8.32854C5.3916 8.3247 5.38904 8.30652 5.38904 8.30294C5.39544 8.30038 5.41097 8.29389 5.41097 8.28741ZM5.63198 8.14763C5.63198 8.14114 5.654 8.12817 5.66697 8.12817C5.68634 8.12817 5.68634 8.1437 5.68898 8.14763C5.69538 8.15019 5.69538 8.14498 5.70187 8.15667C5.70836 8.16837 5.71749 8.18902 5.71092 8.20199C5.70434 8.21496 5.67857 8.22392 5.67217 8.22136C5.66313 8.21487 5.63463 8.15667 5.63198 8.14763Z" fill="#82764F"/>
<path fill-rule="evenodd" clip-rule="evenodd" d="M5.18707 8.31722C5.18707 8.31722 5.21557 8.32362 5.2544 8.35605C5.24143 8.3651 5.22197 8.37542 5.22197 8.37542C5.22197 8.37542 5.21941 8.34564 5.18707 8.31714V8.31722Z" fill="#6E6342"/>
<path fill-rule="evenodd" clip-rule="evenodd" d="M5.12364 8.03234C5.11716 8.02594 5.14301 8.01041 5.15854 8.01297C5.17408 8.01553 5.18056 8.02594 5.19737 8.0285C5.21418 8.03106 5.21683 8.02202 5.22297 8.01553C5.22912 8.00905 5.25147 8.01297 5.25531 8.01553C5.2577 8.01837 5.25987 8.0214 5.2618 8.02458C5.26207 8.01965 5.26335 8.01484 5.26557 8.01043C5.26779 8.00603 5.27089 8.00213 5.27468 7.99898C5.27965 7.99533 5.28537 7.99285 5.29143 7.99173C5.29749 7.9906 5.30373 7.99086 5.30967 7.99249C5.31223 8.00154 5.3252 8.03388 5.32264 8.04036C5.32008 8.04685 5.28125 8.05598 5.27468 8.04941C5.28117 8.06502 5.30967 8.09737 5.31351 8.10377C5.31735 8.11017 5.28501 8.12578 5.27212 8.12322C5.25403 8.12194 5.14267 8.05717 5.1233 8.0326L5.12364 8.03234ZM5.2932 7.81747C5.2908 7.81095 5.28622 7.80546 5.28023 7.80194C5.27118 7.79938 5.2414 7.80194 5.2414 7.81747C5.2414 7.833 5.267 7.91987 5.29576 7.9651C5.32819 8.01041 5.35012 8.04787 5.37213 8.05828C5.37905 8.06143 5.38689 8.06184 5.3941 8.05944C5.4013 8.05703 5.40733 8.05198 5.41096 8.04531C5.41352 8.03883 5.42001 7.99095 5.41745 7.87831C5.41489 7.76567 5.41096 7.65696 5.40448 7.65047C5.39799 7.64399 5.37213 7.64407 5.36309 7.65696C5.35404 7.66985 5.29576 7.7981 5.29311 7.81747H5.2932Z" fill="#585136"/>
<path fill-rule="evenodd" clip-rule="evenodd" d="M5.17801 8.4802C5.17801 8.4802 5.13269 8.4517 5.08866 8.47115C5.04728 8.49061 5.04984 8.56698 5.04984 8.56698C5.05915 8.57063 5.06921 8.57194 5.07914 8.57081C5.08908 8.56968 5.09858 8.56614 5.10684 8.5605C5.13534 8.54113 5.17152 8.50878 5.17801 8.48028V8.4802Z" fill="#574F35"/>
<path fill-rule="evenodd" clip-rule="evenodd" d="M5.26345 8.58256C5.26089 8.55696 5.23785 8.55696 5.23785 8.54373C5.23944 8.53741 5.2431 8.5318 5.24826 8.52781C5.25341 8.52382 5.25975 8.52167 5.26627 8.52171C5.27924 8.52171 5.29187 8.53724 5.30774 8.54731C5.32327 8.55636 5.34657 8.57291 5.34913 8.59263C5.35169 8.61234 5.32353 8.66635 5.29221 8.66635C5.26089 8.66635 5.2702 8.60807 5.26371 8.58221L5.26345 8.58256ZM5.51331 8.54757C5.51331 8.54757 5.46151 8.5631 5.46535 8.54757C5.46919 8.53204 5.48097 8.5282 5.49778 8.5282C5.50632 8.51926 5.51781 8.51371 5.53012 8.51258C5.53716 8.51224 5.54408 8.51455 5.54949 8.51907C5.54949 8.51907 5.58448 8.50354 5.5948 8.51258C5.60513 8.52163 5.59745 8.52163 5.60385 8.53204C5.612 8.54359 5.61734 8.55689 5.61946 8.57087C5.61946 8.58119 5.58064 8.60321 5.54949 8.59937C5.51331 8.5916 5.51971 8.55405 5.51331 8.54757ZM5.81488 8.48929C5.81488 8.48929 5.83041 8.49833 5.81752 8.50874C5.80848 8.51779 5.76317 8.53434 5.72425 8.53724C5.68543 8.53724 5.65053 8.54364 5.65053 8.53076C5.65053 8.51787 5.68287 8.49193 5.70224 8.48545C5.70612 8.48058 5.71106 8.47666 5.71667 8.47397C5.72229 8.47128 5.72844 8.46989 5.73466 8.46992C5.7502 8.46992 5.81095 8.46343 5.82785 8.46087C5.84338 8.45823 5.85635 8.46727 5.84722 8.48024C5.84338 8.48929 5.81488 8.48929 5.81488 8.48929ZM5.90422 8.08959C5.90422 8.08959 5.88477 8.13097 5.86284 8.13097C5.84082 8.12841 5.84082 8.12193 5.84082 8.11544C5.84082 8.1064 5.86284 8.0831 5.86019 8.07661C5.85379 8.07661 5.83817 8.07661 5.84082 8.06108C5.84082 8.04811 5.86284 8.03258 5.88221 8.03548C5.89684 8.02346 5.91507 8.01664 5.934 8.01611C5.95602 8.01611 5.97539 8.02251 5.97539 8.03548C5.97539 8.04845 5.94979 8.07687 5.9404 8.08344C5.93008 8.09377 5.91711 8.10051 5.90422 8.08984V8.08959ZM5.60905 8.8546C5.60905 8.8546 5.58345 8.85724 5.58345 8.87013C5.58345 8.87661 5.58985 8.87661 5.59898 8.87277C5.60424 8.87248 5.60945 8.87159 5.61452 8.87013C5.61708 8.87277 5.61708 8.88566 5.63653 8.88566C5.65251 8.8835 5.6679 8.87823 5.68184 8.87013C5.69737 8.86373 5.71034 8.85716 5.71034 8.84453C5.70386 8.82251 5.69089 8.8121 5.67152 8.8121C5.66159 8.81147 5.65169 8.81373 5.64302 8.81859C5.64302 8.81859 5.63653 8.80562 5.61452 8.81859C5.5925 8.83156 5.59506 8.83156 5.60154 8.83804C5.61315 8.84837 5.60931 8.85511 5.60931 8.85511L5.60905 8.8546ZM5.46279 8.98925C5.46279 8.98277 5.49513 8.9698 5.50418 8.97372C5.51322 8.97628 5.53908 9.02544 5.53908 9.03064C5.53908 9.03713 5.50674 9.05266 5.49377 9.05266C5.4808 9.05266 5.45887 9.03064 5.45887 9.02706C5.45887 9.0245 5.4744 9.02066 5.4744 9.01801C5.47824 9.01161 5.46279 8.996 5.46279 8.98951V8.98925ZM5.36039 8.80024C5.36688 8.79768 5.36688 8.7912 5.37592 8.78471C5.37876 8.78283 5.38198 8.78162 5.38535 8.78117C5.38873 8.78073 5.39216 8.78106 5.39538 8.78215C5.39766 8.77808 5.40082 8.77457 5.40463 8.77186C5.40844 8.76916 5.4128 8.76734 5.4174 8.76653C5.43293 8.76397 5.4459 8.76653 5.443 8.77302C5.443 8.79248 5.45597 8.80536 5.45597 8.82089C5.45597 8.83642 5.44692 8.85588 5.41458 8.86885C5.38224 8.87789 5.33821 8.87789 5.33172 8.87533C5.32524 8.87277 5.31875 8.84683 5.32524 8.83386C5.33172 8.82089 5.34981 8.80673 5.36022 8.80024H5.36039Z" fill="#82764F"/>
<path fill-rule="evenodd" clip-rule="evenodd" d="M5.40157 8.80908C5.40157 8.80908 5.37956 8.82205 5.37956 8.82854C5.37761 8.8348 5.37674 8.84135 5.377 8.84791C5.377 8.85175 5.4055 8.84535 5.40934 8.84142C5.41062 8.83886 5.40157 8.81582 5.40157 8.80908Z" fill="#6E6342"/>
<path fill-rule="evenodd" clip-rule="evenodd" d="M5.20912 8.74822C5.222 8.75087 5.24402 8.74822 5.26083 8.75471C5.2738 8.76119 5.28284 8.77416 5.26987 8.7897C5.2569 8.80523 5.24427 8.82852 5.21552 8.8246C5.18317 8.82204 5.15211 8.80523 5.15211 8.79225C5.15157 8.78405 5.15266 8.77582 5.15533 8.76804C5.158 8.76026 5.16218 8.75309 5.16764 8.74694C5.18061 8.73662 5.18701 8.7431 5.20903 8.74822H5.20912Z" fill="#585136"/>
<path fill-rule="evenodd" clip-rule="evenodd" d="M5.19357 8.76123C5.19357 8.76123 5.15219 8.79357 5.14178 8.80919C5.12881 8.82472 5.0654 8.90493 5.04603 8.92174C5.05247 8.91039 5.0598 8.89958 5.06796 8.8894C5.04236 8.90577 5.02317 8.93045 5.01361 8.95929C4.99808 9.00725 5.10039 9.0331 5.16763 9.05256C5.23488 9.07201 5.2609 9.07816 5.2609 9.07816C5.23614 9.04095 5.21489 9.00153 5.19741 8.9604C5.17181 8.89956 5.15859 8.89307 5.1754 8.86457C5.18837 8.83607 5.20782 8.8167 5.20782 8.79468C5.20006 8.7742 5.19357 8.76123 5.19357 8.76123Z" fill="#574F35"/>
<path fill-rule="evenodd" clip-rule="evenodd" d="M3.71782 8.86343C3.72724 8.86516 3.7369 8.86516 3.74632 8.86343C3.76569 8.86078 3.96768 8.78663 4.17871 8.79994C4.33669 8.80948 4.49327 8.83522 4.64599 8.87674C4.91138 8.94663 5.24145 9.08512 5.45504 9.16414C5.51196 9.18607 5.56768 9.22498 5.60864 9.24043C5.7718 9.30392 5.7782 9.30392 5.87402 9.32073C5.98666 9.33626 6.10186 9.29871 6.22227 9.27286C6.36981 9.24043 6.62223 9.2249 6.84358 9.19256C6.91516 9.18264 6.98576 9.16662 7.05461 9.14468C7.05461 9.14468 6.87857 9.32073 6.45651 9.38413C6.28591 9.41003 6.11255 9.41222 5.94135 9.39061C5.8067 9.37764 5.71744 9.35819 5.65011 9.33882C5.57374 9.3168 5.41706 9.25852 5.22421 9.21082C5.08956 9.17583 4.93937 9.14998 4.76725 9.11763C4.34263 9.0399 3.88183 8.95064 3.71765 8.86394L3.71782 8.86343Z" fill="#252211"/>
<path fill-rule="evenodd" clip-rule="evenodd" d="M3.24137 8.06348C3.13897 8.15018 3.03034 8.23303 2.92427 8.31325L2.60453 8.55892C2.49581 8.63914 2.38966 8.72199 2.28086 8.80229C2.17206 8.88259 2.06343 8.95888 1.94806 9.03269C2.05046 8.94599 2.15909 8.86569 2.2678 8.78676C2.37652 8.70783 2.48924 8.63043 2.59412 8.55039L2.91386 8.30437C3.02386 8.22416 3.13001 8.1413 3.24137 8.06365V8.06348ZM2.6757 8.96963C2.6757 8.96963 2.7909 8.8738 2.9346 8.73923C3.1132 8.57232 3.332 8.35864 3.40188 8.3199L2.67561 8.96972L2.6757 8.96963Z" fill="#CFB66C"/>
<path fill-rule="evenodd" clip-rule="evenodd" d="M2.67572 8.9696C2.73272 8.91268 2.79357 8.85704 2.85441 8.8026L2.94759 8.72239C2.97609 8.69679 3.00852 8.66803 3.03694 8.63953C3.09385 8.58261 3.14958 8.52168 3.20649 8.46349C3.2347 8.43422 3.26453 8.40656 3.29584 8.38063C3.31149 8.36678 3.32887 8.35502 3.34755 8.34564C3.36317 8.33659 3.37998 8.32004 3.40191 8.31714C3.38902 8.33659 3.37349 8.34564 3.36052 8.36245C3.34499 8.37542 3.33202 8.39095 3.31913 8.40384C3.29063 8.43234 3.25829 8.45819 3.22979 8.48414C3.16895 8.53593 3.10554 8.58654 3.0447 8.64072C2.98386 8.69491 2.92694 8.75336 2.86601 8.80772C2.80005 8.86344 2.73921 8.9178 2.67572 8.96985V8.9696ZM3.44986 8.45179C3.44986 8.45179 3.02789 8.86481 2.94111 8.93205L3.44986 8.45179Z" fill="#CFB66C"/>
<path fill-rule="evenodd" clip-rule="evenodd" d="M3.44986 8.45166C3.4119 8.4956 3.3712 8.5371 3.328 8.57591L3.2 8.69759C3.15862 8.73898 3.1197 8.78045 3.07576 8.82184C3.03045 8.86066 2.98906 8.89864 2.9411 8.93448L3.06535 8.81279C3.10682 8.7714 3.15213 8.7365 3.19616 8.69503L3.32041 8.57335C3.36307 8.53068 3.40455 8.48921 3.44986 8.45166ZM3.46923 8.67557C3.43033 8.78413 3.3845 8.89008 3.33201 8.99276C3.2233 9.21027 3.06023 9.48206 2.98897 9.62064L3.46923 8.67557Z" fill="#CFB66C"/>
<path fill-rule="evenodd" clip-rule="evenodd" d="M3.46921 8.67578C3.46921 8.72365 3.45624 8.76513 3.44071 8.80651C3.42557 8.84793 3.40831 8.88855 3.389 8.9282C3.36954 8.96702 3.34752 9.0085 3.32551 9.04604C3.30349 9.08359 3.27764 9.12233 3.25818 9.16124L3.12745 9.39164C3.08214 9.46844 3.03811 9.54567 2.99023 9.61948C3.02258 9.53662 3.06661 9.45897 3.10808 9.3826C3.15339 9.3058 3.19478 9.229 3.23608 9.14955C3.25624 9.10996 3.27439 9.06938 3.29044 9.02795C3.30981 8.98648 3.32918 8.94765 3.34479 8.91011C3.36416 8.86872 3.3797 8.82981 3.39915 8.79235C3.42108 8.75215 3.43926 8.71333 3.46904 8.67578H3.46921Z" fill="#CFB66C"/>
<path fill-rule="evenodd" clip-rule="evenodd" d="M3.93013 9.7373C3.93013 9.7373 3.80213 9.90686 3.81493 10.1217C3.84983 10.0092 3.89386 9.83697 3.93013 9.7373ZM4.05181 9.90729C4.05181 9.90729 4.0065 10.3681 3.96895 10.5946C4.02203 10.3328 4.03236 10.3548 4.05181 9.90729ZM4.89968 10.6219C4.89968 10.6219 4.70811 11.1851 4.70418 11.3416C4.74566 11.1806 4.82587 10.8518 4.89968 10.6214V10.6219Z" fill="#DEC270"/>
<path fill-rule="evenodd" clip-rule="evenodd" d="M5.3476 9.70239C5.3476 9.70239 5.65829 10.215 5.89134 10.6525C5.82828 10.4323 5.68321 10.0285 5.3476 9.70239Z" fill="#CBAF59"/>
<path fill-rule="evenodd" clip-rule="evenodd" d="M6.18256 10.457C6.35314 10.7586 6.50698 11.0693 6.64336 11.3878C6.6175 11.1677 6.54753 10.791 6.18256 10.457Z" fill="#E3C677"/>
<path fill-rule="evenodd" clip-rule="evenodd" d="M8.63695 11.2127C8.68866 11.1804 8.79098 11.0042 8.88032 10.9603C8.96958 10.915 9.03691 10.9059 9.11721 10.8166C9.19742 10.7233 9.21961 10.6664 9.39548 10.5927C9.6415 10.4864 9.47228 10.3492 9.47228 10.3492C9.49938 10.3226 9.52835 10.298 9.55898 10.2755C9.62247 10.2276 9.69619 10.1693 9.68979 10.067C9.68075 9.8949 9.64841 9.64504 9.50727 9.50006C9.64448 9.47156 9.90722 9.45219 10.0705 9.4108C10.2594 9.36284 10.3462 9.29551 10.3462 9.29551C10.3462 9.29551 10.2375 9.11043 10.4135 8.92406C10.5895 8.73769 10.7332 8.62633 10.8394 8.41786C10.7177 8.40233 10.5322 8.33765 10.0588 8.51753C10.0843 8.52955 10.109 8.54338 10.1326 8.55892C10.1326 8.55892 9.84135 8.63922 9.73519 8.72856C9.55002 8.88515 9.52672 9.01332 9.3261 9.10915C9.12548 9.20498 8.9235 9.17903 8.75659 9.25669C8.58968 9.33434 8.56502 9.40039 8.50409 9.42889C8.51706 9.44442 8.50153 9.47028 8.5261 9.49229C8.51057 9.51431 8.41995 9.66185 8.32804 9.66185C8.33709 9.69684 8.41474 9.72269 8.41474 9.72269C8.41474 9.72269 8.35783 9.76416 8.21284 9.77449C8.28657 9.85129 8.35655 9.935 8.5494 10.0567C8.53387 10.089 8.4691 10.137 8.49504 10.1978C8.52354 10.2587 8.59744 10.3415 8.89244 10.4089C8.74225 10.4153 8.5663 10.4502 8.32924 10.4179C8.09235 10.3894 8.05353 10.3726 7.90727 10.4089C7.9228 10.4244 7.96418 10.4244 8.00045 10.4658C7.96162 10.4683 7.71825 10.4373 7.63539 10.5461C7.5487 10.6586 7.51115 10.8438 7.51763 10.968C7.47232 10.9901 7.42829 11.0289 7.45031 11.1092C7.47232 11.1895 7.58752 11.2153 7.66134 11.2658C7.73506 11.3201 7.74155 11.3395 7.81152 11.3266C7.88525 11.3111 7.99396 11.2374 8.05745 11.2374C8.12094 11.2374 8.16617 11.2852 8.16617 11.2852C8.16617 11.2852 8.33837 11.2024 8.35518 11.2179C8.37071 11.2334 8.35774 11.3331 8.37455 11.3486C8.39162 11.3603 8.58558 11.2451 8.63738 11.2127H8.63695Z" fill="#ECD592"/>
<path fill-rule="evenodd" clip-rule="evenodd" d="M12.4 6.03228C11.591 3.94298 9.59094 3.55591 9.59094 3.55591H3.88479L3.90681 5.68404H5.04319V10.4362H3.8847V12.5605H9.43299C10.7702 12.5605 11.842 11.2167 11.842 11.2167C13.5585 8.78053 12.3999 6.03228 12.3999 6.03228H12.4ZM9.46277 9.78499C9.46277 9.78499 9.02757 10.4129 8.55406 10.4129H7.60686L7.58442 5.68924H8.79999C8.79999 5.68924 9.36319 5.807 9.75666 6.92154C9.75666 6.92154 10.2783 8.51727 9.46277 9.78499Z" fill="white" fill-opacity="0.8"/>
</g>
<defs>
<clipPath id="clip0_422_5824">
<rect width="16" height="16" fill="white"/>
</clipPath>
</defs>
</svg>
