<svg width="160" height="37" viewBox="0 0 160 37" fill="none" xmlns="http://www.w3.org/2000/svg">
<path d="M55.192 10.5286H50.3635V22.2327H46.7143V10.5286H41.8858V7.32449H55.192V10.5286Z" fill="white"/>
<path d="M70.7541 22.2327H66.3262L61.8314 17.115H60.7634V22.2327H57.0919V7.32449H64.6351C66.252 7.32449 67.55 7.77693 68.529 8.68181C69.5081 9.57185 69.9976 10.7437 69.9976 12.1975C69.9976 13.4139 69.649 14.4448 68.9518 15.2904C68.2546 16.1211 67.2978 16.6699 66.0814 16.937L70.7541 22.2327ZM60.7634 14.0443H64.2345C64.8872 14.0443 65.4064 13.8811 65.7921 13.5548C66.1926 13.2284 66.3929 12.7908 66.3929 12.242C66.3929 11.708 66.1926 11.2778 65.7921 10.9514C65.4064 10.6251 64.8872 10.4619 64.2345 10.4619H60.7634V14.0443Z" fill="white"/>
<path d="M85.4763 7.32449V15.5129C85.4763 17.649 84.8681 19.3623 83.6517 20.6529C82.4501 21.9286 80.8555 22.5665 78.8677 22.5665C76.8354 22.5665 75.1963 21.9286 73.9502 20.6529C72.719 19.3623 72.1034 17.649 72.1034 15.5129V7.32449H75.7748V15.5129C75.7748 16.6403 76.0566 17.5377 76.6203 18.2053C77.184 18.858 77.9332 19.1843 78.8677 19.1843C79.7577 19.1843 80.4698 18.858 81.0038 18.2053C81.5378 17.5377 81.8048 16.6403 81.8048 15.5129V7.32449H85.4763Z" fill="white"/>
<path d="M94.0337 6.99072C95.6654 6.99072 97.0301 7.37641 98.1279 8.14778C99.2256 8.90432 99.9154 9.95753 100.197 11.3074L96.5925 12.0417C96.459 11.3742 96.1475 10.8624 95.658 10.5064C95.1685 10.1355 94.6122 9.95012 93.9892 9.95012C93.3958 9.95012 92.9137 10.0985 92.5428 10.3951C92.172 10.677 91.9866 11.033 91.9866 11.4632C91.9866 12.1159 92.3871 12.5312 93.1881 12.7093L96.281 13.399C99.0105 14.0072 100.375 15.4536 100.375 17.738C100.375 19.2659 99.7893 20.4526 98.6174 21.2982C97.4455 22.1437 95.9843 22.5665 94.2339 22.5665C92.4983 22.5665 91.0223 22.1734 89.806 21.3872C88.6044 20.5861 87.9072 19.4736 87.7143 18.0495L91.497 17.3152C91.8531 18.7838 92.8321 19.5181 94.4342 19.5181C95.1165 19.5181 95.6506 19.3772 96.0363 19.0953C96.4368 18.8135 96.637 18.4426 96.637 17.9828C96.637 17.6267 96.5332 17.3449 96.3255 17.1372C96.1327 16.9295 95.7767 16.7738 95.2575 16.6699L92.1423 16.0024C89.4722 15.3942 88.1371 13.9553 88.1371 11.6857C88.1371 10.2468 88.6786 9.10458 89.7615 8.25903C90.8443 7.41349 92.2684 6.99072 94.0337 6.99072Z" fill="white"/>
<path d="M114.851 10.5286H110.022V22.2327H106.373V10.5286H101.545V7.32449H114.851V10.5286Z" fill="white"/>
<path d="M136.451 10.5509V13.6883H143.437V16.8925H136.451V22.2327H132.779V7.32449H144.305V10.5509H136.451Z" fill="white"/>
<path d="M155.661 22.2327L152.546 17.1595L149.453 22.2327H145.114L149.787 14.7564L145.158 7.32449H149.497L152.546 12.3532L155.616 7.32449H159.955L155.327 14.7564L160 22.2327H155.661Z" fill="white"/>
<path d="M121.494 10.1732V19.1358L127.469 14.1566L121.494 10.1732Z" fill="url(#paint0_linear_422_6035)"/>
<path d="M48.6222 28.9395H46.4998V34.0658H45.8152V28.9395H43.6842V28.3318H48.6222V28.9395Z" fill="white"/>
<path d="M51.6455 29.8038C51.7653 29.8038 51.8652 29.8152 51.945 29.8381L51.8937 30.4628C51.8423 30.4571 51.7596 30.4542 51.6455 30.4542C51.1035 30.4542 50.6841 30.6368 50.3875 31.002C50.0965 31.3671 49.951 31.8464 49.951 32.4397V34.0658H49.292V29.8466H49.951V30.8821C50.3447 30.1633 50.9095 29.8038 51.6455 29.8038Z" fill="white"/>
<path d="M54.4989 29.7439C55.0352 29.7439 55.4603 29.8837 55.7741 30.1633C56.0879 30.4371 56.2448 30.8251 56.2448 31.3272V34.0658H55.6115V33.4239C55.2349 33.926 54.7071 34.177 54.0282 34.177C53.5661 34.177 53.1952 34.0572 52.9156 33.8176C52.6361 33.5779 52.4963 33.267 52.4963 32.8847C52.4963 32.4911 52.6446 32.1744 52.9413 31.9348C53.238 31.6895 53.6545 31.5668 54.1908 31.5668H55.6115V31.37C55.6115 31.0447 55.5145 30.788 55.3205 30.5997C55.1265 30.4114 54.864 30.3173 54.5331 30.3173C54.2136 30.3173 53.9483 30.3943 53.7372 30.5484C53.5261 30.6967 53.3978 30.9021 53.3521 31.1646L52.7274 31.0276C52.7958 30.6454 52.9927 30.3373 53.3179 30.1034C53.6431 29.8637 54.0368 29.7439 54.4989 29.7439ZM54.1223 33.6379C54.5388 33.6379 54.8897 33.5095 55.175 33.2527C55.466 32.996 55.6115 32.6793 55.6115 32.3028V32.0803H54.1822C53.8456 32.0803 53.5832 32.1544 53.3949 32.3028C53.2123 32.4454 53.121 32.6366 53.121 32.8762C53.121 33.0987 53.2123 33.2813 53.3949 33.4239C53.5775 33.5665 53.82 33.6379 54.1223 33.6379Z" fill="white"/>
<path d="M61.7641 27.476V34.0658H61.1136V33.364C60.7257 33.906 60.1665 34.177 59.4363 34.177C58.86 34.177 58.3636 33.9716 57.9471 33.5608C57.5364 33.1443 57.331 32.6109 57.331 31.9605C57.331 31.31 57.5364 30.7794 57.9471 30.3687C58.3636 29.9522 58.86 29.7439 59.4363 29.7439C60.1665 29.7439 60.7257 30.0149 61.1136 30.5569V27.476H61.7641ZM59.539 33.5951C59.9555 33.5951 60.3206 33.4439 60.6344 33.1415C60.9539 32.8334 61.1136 32.4397 61.1136 31.9605C61.1136 31.4755 60.9539 31.0818 60.6344 30.7794C60.3206 30.4714 59.9555 30.3173 59.539 30.3173C59.0882 30.3173 58.7117 30.4685 58.4093 30.7709C58.1126 31.0733 57.9643 31.4698 57.9643 31.9605C57.9643 32.4511 58.1155 32.8477 58.4178 33.15C58.7202 33.4467 59.0939 33.5951 59.539 33.5951Z" fill="white"/>
<path d="M67.3133 31.8492V32.0888H63.6932C63.7217 32.5453 63.8843 32.9133 64.181 33.1928C64.4777 33.4667 64.8171 33.6036 65.1994 33.6036C65.8898 33.6036 66.369 33.3012 66.6372 32.6965L67.2191 32.8334C67.0537 33.267 66.7941 33.6008 66.4403 33.8347C66.0923 34.0629 65.6787 34.177 65.1994 34.177C64.6175 34.177 64.1154 33.9716 63.6932 33.5608C63.271 33.15 63.0599 32.6194 63.0599 31.969C63.0599 31.3129 63.2738 30.7794 63.7017 30.3687C64.1296 29.9522 64.6431 29.7439 65.2422 29.7439C65.8184 29.7439 66.3006 29.9407 66.6885 30.3344C67.0822 30.7224 67.2904 31.2273 67.3133 31.8492ZM65.2422 30.3173C64.8771 30.3173 64.5461 30.4343 64.2495 30.6682C63.9585 30.8964 63.7816 31.2073 63.7189 31.601H66.6543C66.5972 31.1959 66.4375 30.8821 66.175 30.6596C65.9126 30.4314 65.6016 30.3173 65.2422 30.3173Z" fill="white"/>
<path d="M70.9591 29.8038C71.0789 29.8038 71.1787 29.8152 71.2586 29.8381L71.2073 30.4628C71.1559 30.4571 71.0732 30.4542 70.9591 30.4542C70.4171 30.4542 69.9977 30.6368 69.701 31.002C69.4101 31.3671 69.2646 31.8464 69.2646 32.4397V34.0658H68.6056V29.8466H69.2646V30.8821C69.6583 30.1633 70.2231 29.8038 70.9591 29.8038Z" fill="white"/>
<path d="M71.8773 32.9275L72.5278 32.782C72.5563 33.0559 72.6847 33.267 72.9129 33.4153C73.1411 33.5637 73.4264 33.6379 73.7687 33.6379C74.0711 33.6379 74.3136 33.5722 74.4961 33.441C74.6844 33.3098 74.7785 33.1358 74.7785 32.919C74.7785 32.6166 74.5475 32.414 74.0853 32.3113L73.1183 32.0974C72.388 31.9433 72.0228 31.5839 72.0228 31.0191C72.0228 30.6368 72.1683 30.3287 72.4593 30.0948C72.7503 29.8609 73.1382 29.7439 73.6232 29.7439C74.0853 29.7439 74.4676 29.8523 74.77 30.0691C75.0724 30.2802 75.2635 30.5626 75.3434 30.9164L74.7186 31.0533C74.673 30.8194 74.5532 30.6311 74.3592 30.4885C74.1652 30.3458 73.9142 30.2745 73.6061 30.2745C73.3151 30.2745 73.0869 30.3401 72.9214 30.4714C72.756 30.5969 72.6732 30.7623 72.6732 30.9677C72.6732 31.1275 72.7246 31.253 72.8273 31.3443C72.9357 31.4299 73.0983 31.4983 73.3151 31.5497L74.3335 31.7722C75.0581 31.9319 75.4204 32.2999 75.4204 32.8762C75.4204 33.287 75.2635 33.6065 74.9497 33.8347C74.6416 34.0629 74.2308 34.177 73.7173 34.177C73.2153 34.177 72.7959 34.0686 72.4593 33.8518C72.1227 33.635 71.9287 33.3269 71.8773 32.9275Z" fill="white"/>
<path d="M83.7972 28.3318V31.5582C83.7972 32.3399 83.5775 32.9732 83.1382 33.4581C82.7046 33.9374 82.1284 34.177 81.4095 34.177C80.6849 34.177 80.1001 33.9374 79.6551 33.4581C79.2157 32.9732 78.9961 32.3399 78.9961 31.5582V28.3318H79.6722V31.5582C79.6722 32.1516 79.8291 32.628 80.1429 32.9874C80.4624 33.3469 80.8846 33.5266 81.4095 33.5266C81.923 33.5266 82.3366 33.3469 82.6504 32.9874C82.9642 32.628 83.1211 32.1516 83.1211 31.5582V28.3318H83.7972Z" fill="white"/>
<path d="M87.5873 29.7439C88.0951 29.7439 88.503 29.9094 88.8111 30.2403C89.1249 30.5712 89.2818 31.0048 89.2818 31.5411V34.0658H88.6314V31.6609C88.6314 31.2673 88.523 30.9506 88.3062 30.711C88.0894 30.4656 87.807 30.343 87.4589 30.343C87.0082 30.343 86.6516 30.4913 86.3892 30.788C86.1267 31.0847 85.9955 31.5012 85.9955 32.0375V34.0658H85.3451V29.8466H85.9955V30.5484C86.3549 30.0121 86.8855 29.7439 87.5873 29.7439Z" fill="white"/>
<path d="M90.9337 28.2634C91.0193 28.1778 91.1248 28.135 91.2504 28.135C91.3759 28.135 91.4814 28.1778 91.567 28.2634C91.6583 28.3489 91.7039 28.4516 91.7039 28.5715C91.7039 28.697 91.6611 28.8025 91.5756 28.8881C91.49 28.968 91.3816 29.0079 91.2504 29.0079C91.1248 29.0079 91.0193 28.968 90.9337 28.8881C90.8481 28.8025 90.8053 28.697 90.8053 28.5715C90.8053 28.4516 90.8481 28.3489 90.9337 28.2634ZM91.5841 34.0658H90.9252V29.8466H91.5841V34.0658Z" fill="white"/>
<path d="M95.6454 33.3041L95.8594 33.8432C95.5399 34.0658 95.2147 34.177 94.8837 34.177C94.4558 34.177 94.1164 34.0543 93.8653 33.809C93.6143 33.558 93.4888 33.2042 93.4888 32.7478V30.3943H92.5731V29.8466H93.4888V28.3318H94.1477V29.8466H95.654V30.3943H94.1477V32.705C94.1477 32.9732 94.2162 33.1843 94.3531 33.3383C94.4958 33.4867 94.6869 33.5608 94.9265 33.5608C95.1662 33.5608 95.4058 33.4752 95.6454 33.3041Z" fill="white"/>
<path d="M100.608 31.8492V32.0888H96.9882C97.0168 32.5453 97.1794 32.9133 97.4761 33.1928C97.7727 33.4667 98.1122 33.6036 98.4945 33.6036C99.1848 33.6036 99.6641 33.3012 99.9322 32.6965L100.514 32.8334C100.349 33.267 100.089 33.6008 99.7354 33.8347C99.3874 34.0629 98.9737 34.177 98.4945 34.177C97.9125 34.177 97.4104 33.9716 96.9882 33.5608C96.566 33.15 96.3549 32.6194 96.3549 31.969C96.3549 31.3129 96.5689 30.7794 96.9968 30.3687C97.4247 29.9522 97.9382 29.7439 98.5373 29.7439C99.1135 29.7439 99.5956 29.9407 99.9836 30.3344C100.377 30.7224 100.586 31.2273 100.608 31.8492ZM98.5373 30.3173C98.1721 30.3173 97.8412 30.4343 97.5445 30.6682C97.2535 30.8964 97.0767 31.2073 97.0139 31.601H99.9494C99.8923 31.1959 99.7325 30.8821 99.4701 30.6596C99.2076 30.4314 98.8967 30.3173 98.5373 30.3173Z" fill="white"/>
<path d="M105.949 27.476V34.0658H105.298V33.364C104.91 33.906 104.351 34.177 103.621 34.177C103.045 34.177 102.548 33.9716 102.132 33.5608C101.721 33.1443 101.516 32.6109 101.516 31.9605C101.516 31.31 101.721 30.7794 102.132 30.3687C102.548 29.9522 103.045 29.7439 103.621 29.7439C104.351 29.7439 104.91 30.0149 105.298 30.5569V27.476H105.949ZM103.724 33.5951C104.14 33.5951 104.505 33.4439 104.819 33.1415C105.138 32.8334 105.298 32.4397 105.298 31.9605C105.298 31.4755 105.138 31.0818 104.819 30.7794C104.505 30.4714 104.14 30.3173 103.724 30.3173C103.273 30.3173 102.896 30.4685 102.594 30.7709C102.297 31.0733 102.149 31.4698 102.149 31.9605C102.149 32.4511 102.3 32.8477 102.602 33.15C102.905 33.4467 103.279 33.5951 103.724 33.5951Z" fill="white"/>
<path d="M111.865 28.2206C112.43 28.2206 112.904 28.3632 113.286 28.6485C113.674 28.9337 113.917 29.316 114.014 29.7953L113.337 29.9493C113.275 29.6013 113.109 29.3246 112.841 29.1192C112.573 28.9138 112.242 28.8111 111.848 28.8111C111.46 28.8111 111.147 28.9081 110.907 29.1021C110.667 29.2903 110.547 29.5385 110.547 29.8466C110.547 30.0919 110.619 30.2831 110.761 30.42C110.91 30.5512 111.127 30.6454 111.412 30.7024L112.661 30.9848C113.626 31.1902 114.108 31.6866 114.108 32.4739C114.108 32.9931 113.914 33.4068 113.526 33.7149C113.138 34.023 112.621 34.177 111.977 34.177C111.355 34.177 110.827 34.0258 110.393 33.7234C109.966 33.4153 109.717 32.996 109.649 32.4654L110.359 32.3199C110.422 32.7193 110.605 33.0302 110.907 33.2527C111.209 33.4695 111.586 33.5779 112.037 33.5779C112.47 33.5779 112.81 33.481 113.055 33.287C113.306 33.0873 113.432 32.8277 113.432 32.5082C113.432 32.2457 113.357 32.0489 113.209 31.9177C113.066 31.7864 112.83 31.6838 112.499 31.6096L111.206 31.3272C110.288 31.1218 109.829 30.634 109.829 29.8637C109.829 29.3731 110.014 28.9765 110.385 28.6741C110.761 28.3718 111.255 28.2206 111.865 28.2206Z" fill="white"/>
<path d="M119.279 29.8466L116.421 36.1197H115.694L116.661 34.0059L114.769 29.8466H115.505L117.011 33.2185L118.552 29.8466H119.279Z" fill="white"/>
<path d="M119.894 32.9275L120.544 32.782C120.573 33.0559 120.701 33.267 120.929 33.4153C121.157 33.5637 121.443 33.6379 121.785 33.6379C122.087 33.6379 122.33 33.5722 122.512 33.441C122.701 33.3098 122.795 33.1358 122.795 32.919C122.795 32.6166 122.564 32.414 122.102 32.3113L121.135 32.0974C120.404 31.9433 120.039 31.5839 120.039 31.0191C120.039 30.6368 120.185 30.3287 120.476 30.0948C120.767 29.8609 121.155 29.7439 121.64 29.7439C122.102 29.7439 122.484 29.8523 122.786 30.0691C123.089 30.2802 123.28 30.5626 123.36 30.9164L122.735 31.0533C122.689 30.8194 122.57 30.6311 122.376 30.4885C122.182 30.3458 121.931 30.2745 121.622 30.2745C121.331 30.2745 121.103 30.3401 120.938 30.4714C120.772 30.5969 120.69 30.7623 120.69 30.9677C120.69 31.1275 120.741 31.253 120.844 31.3443C120.952 31.4299 121.115 31.4983 121.331 31.5497L122.35 31.7722C123.074 31.9319 123.437 32.2999 123.437 32.8762C123.437 33.287 123.28 33.6065 122.966 33.8347C122.658 34.0629 122.247 34.177 121.734 34.177C121.232 34.177 120.812 34.0686 120.476 33.8518C120.139 33.635 119.945 33.3269 119.894 32.9275Z" fill="white"/>
<path d="M127.073 33.3041L127.287 33.8432C126.967 34.0658 126.642 34.177 126.311 34.177C125.883 34.177 125.544 34.0543 125.293 33.809C125.042 33.558 124.916 33.2042 124.916 32.7478V30.3943H124V29.8466H124.916V28.3318H125.575V29.8466H127.081V30.3943H125.575V32.705C125.575 32.9732 125.644 33.1843 125.78 33.3383C125.923 33.4867 126.114 33.5608 126.354 33.5608C126.593 33.5608 126.833 33.4752 127.073 33.3041Z" fill="white"/>
<path d="M132.036 31.8492V32.0888H128.416C128.444 32.5453 128.607 32.9133 128.903 33.1928C129.2 33.4667 129.54 33.6036 129.922 33.6036C130.612 33.6036 131.091 33.3012 131.36 32.6965L131.941 32.8334C131.776 33.267 131.516 33.6008 131.163 33.8347C130.815 34.0629 130.401 34.177 129.922 34.177C129.34 34.177 128.838 33.9716 128.416 33.5608C127.993 33.15 127.782 32.6194 127.782 31.969C127.782 31.3129 127.996 30.7794 128.424 30.3687C128.852 29.9522 129.366 29.7439 129.965 29.7439C130.541 29.7439 131.023 29.9407 131.411 30.3344C131.805 30.7224 132.013 31.2273 132.036 31.8492ZM129.965 30.3173C129.599 30.3173 129.269 30.4343 128.972 30.6682C128.681 30.8964 128.504 31.2073 128.441 31.601H131.377C131.32 31.1959 131.16 30.8821 130.897 30.6596C130.635 30.4314 130.324 30.3173 129.965 30.3173Z" fill="white"/>
<path d="M138.446 29.7439C138.896 29.7439 139.27 29.8923 139.567 30.1889C139.869 30.4799 140.02 30.8622 140.02 31.3357V34.0658H139.37V31.447C139.37 31.1161 139.267 30.8508 139.062 30.6511C138.862 30.4457 138.603 30.343 138.283 30.343C137.889 30.343 137.576 30.4828 137.342 30.7623C137.108 31.0362 136.991 31.4184 136.991 31.9091V34.0658H136.34V31.447C136.34 31.1161 136.238 30.8508 136.032 30.6511C135.833 30.4457 135.576 30.343 135.262 30.343C134.868 30.343 134.555 30.4828 134.321 30.7623C134.092 31.0362 133.978 31.4184 133.978 31.9091V34.0658H133.328V29.8466H133.978V30.4885C134.298 29.9921 134.777 29.7439 135.416 29.7439C135.741 29.7439 136.029 29.8209 136.281 29.975C136.537 30.1233 136.728 30.3316 136.854 30.5997C137.208 30.0292 137.738 29.7439 138.446 29.7439Z" fill="white"/>
<path d="M147.887 33.4496V34.0658H143.925V28.3318H144.601V33.4496H147.887Z" fill="white"/>
<path d="M152.682 28.9395H150.56V34.0658H149.875V28.9395H147.744V28.3318H152.682V28.9395Z" fill="white"/>
<path d="M153.82 28.3318H155.72C156.701 28.3318 157.474 28.6 158.039 29.1363C158.61 29.6726 158.895 30.3601 158.895 31.1988C158.895 32.0318 158.61 32.7193 158.039 33.2613C157.474 33.7976 156.701 34.0658 155.72 34.0658H153.82V28.3318ZM154.496 33.4496H155.711C156.493 33.4496 157.103 33.2385 157.543 32.8163C157.988 32.3941 158.21 31.8549 158.21 31.1988C158.21 30.537 157.988 29.995 157.543 29.5728C157.103 29.1506 156.493 28.9395 155.711 28.9395H154.496V33.4496Z" fill="white"/>
<g clip-path="url(#clip0_422_6035)">
<path d="M0 0.0602385V11.1454H11.5927V25.7021L15.2716 29.2157V7.63091H3.67913V3.57369L0 0.0602385ZM19.5835 7.63091V33.3335L23.2624 36.8469V11.1454H28.987L25.3081 7.63091H19.5835ZM6.03742 -0.000488281L9.71632 3.51317H31.176V7.4125L34.8551 10.9262V0.000364864L6.03742 -0.000488281Z" fill="url(#paint1_linear_422_6035)"/>
</g>
<defs>
<linearGradient id="paint0_linear_422_6035" x1="124.482" y1="10.1732" x2="124.482" y2="19.1358" gradientUnits="userSpaceOnUse">
<stop stop-color="#80D0C8"/>
<stop offset="1" stop-color="#0596E8"/>
</linearGradient>
<linearGradient id="paint1_linear_422_6035" x1="17.4275" y1="-0.000488281" x2="17.4275" y2="36.8469" gradientUnits="userSpaceOnUse">
<stop stop-color="#80D0C8"/>
<stop offset="1" stop-color="#0596E8"/>
</linearGradient>
<clipPath id="clip0_422_6035">
<rect width="34.8549" height="36.8466" fill="white"/>
</clipPath>
</defs>
</svg>
