<svg width="154" height="51" fill="none" xmlns="http://www.w3.org/2000/svg"><g clip-path="url('#clip0_422_5744')"><path d="M154 44.106c0 1.827-.717 3.58-1.994 4.873a6.764 6.764 0 0 1-4.813 2.018H6.807a6.768 6.768 0 0 1-4.812-2.02A6.938 6.938 0 0 1 0 44.107V6.89c0-1.827.717-3.58 1.994-4.873A6.765 6.765 0 0 1 6.807 0h140.386a6.73 6.73 0 0 1 2.605.524 6.799 6.799 0 0 1 2.209 1.494 6.9 6.9 0 0 1 1.476 2.236c.342.836.517 1.732.517 2.637v37.215Z" fill="#000"/><path d="M51.03 13.39c.587 0 1.093-.147 1.52-.44.433-.3.737-.723.91-1.27l.76.18a3.021 3.021 0 0 1-1.17 1.66c-.573.407-1.247.61-2.02.61-.973 0-1.797-.337-2.47-1.01-.673-.673-1.01-1.497-1.01-2.47 0-.973.337-1.797 1.01-2.47.673-.673 1.497-1.01 2.47-1.01.767 0 1.437.203 2.01.61.58.4.973.937 1.18 1.61l-.76.22a2.308 2.308 0 0 0-.9-1.25c-.433-.3-.943-.45-1.53-.45-.753 0-1.39.263-1.91.79-.513.527-.77 1.177-.77 1.95 0 .767.257 1.417.77 1.95.52.527 1.157.79 1.91.79Zm6.793-4.43c.734 0 1.35.243 1.85.73.507.48.76 1.093.76 1.84 0 .747-.253 1.367-.76 1.86-.5.487-1.116.73-1.85.73-.74 0-1.363-.243-1.87-.73-.5-.493-.75-1.113-.75-1.86 0-.747.25-1.36.75-1.84.507-.487 1.13-.73 1.87-.73Zm0 4.49c.514 0 .95-.18 1.31-.54.367-.36.55-.82.55-1.38 0-.553-.183-1.007-.55-1.36-.36-.36-.796-.54-1.31-.54-.52 0-.963.18-1.33.54-.366.353-.55.807-.55 1.36 0 .56.184 1.02.55 1.38.367.36.81.54 1.33.54Zm9.894-4.5c.527 0 .964.173 1.31.52.354.34.53.787.53 1.34V14h-.76v-3.06c0-.387-.12-.697-.36-.93-.233-.24-.536-.36-.91-.36-.46 0-.826.163-1.1.49-.273.32-.41.767-.41 1.34V14h-.76v-3.06c0-.387-.12-.697-.36-.93-.233-.24-.533-.36-.9-.36-.46 0-.826.163-1.1.49-.266.32-.4.767-.4 1.34V14h-.76V9.07h.76v.75c.374-.58.934-.87 1.68-.87.38 0 .717.09 1.01.27.3.173.524.417.67.73.414-.667 1.034-1 1.86-1Zm3.573-1.73c.1-.1.224-.15.37-.15.147 0 .27.05.37.15.107.1.16.22.16.36 0 .147-.05.27-.15.37a.535.535 0 0 1-.38.14.522.522 0 0 1-.37-.14.503.503 0 0 1-.15-.37c0-.14.05-.26.15-.36Zm.76 6.78h-.77V9.07h.77V14Zm4.456-5.05c.593 0 1.07.193 1.43.58.366.387.55.893.55 1.52V14h-.76v-2.81c0-.46-.127-.83-.38-1.11-.254-.287-.584-.43-.99-.43-.527 0-.944.173-1.25.52-.307.347-.46.833-.46 1.46V14h-.76V9.07h.76v.82c.42-.627 1.04-.94 1.86-.94Zm8.35.12v5.14c0 .68-.25 1.23-.75 1.65-.493.427-1.107.64-1.84.64-1.207 0-2.013-.427-2.42-1.28l.65-.49c.18.347.407.603.68.77.28.173.643.26 1.09.26.513 0 .943-.153 1.29-.46.353-.3.533-.697.54-1.19v-.93c-.453.633-1.107.95-1.96.95-.673 0-1.253-.24-1.74-.72-.48-.487-.72-1.11-.72-1.87s.24-1.38.72-1.86a2.376 2.376 0 0 1 1.74-.73c.853 0 1.507.317 1.96.95v-.83h.76Zm-2.6 4.38c.487 0 .913-.177 1.28-.53.373-.36.56-.82.56-1.38 0-.567-.187-1.027-.56-1.38-.367-.36-.793-.54-1.28-.54-.527 0-.967.177-1.32.53-.347.353-.52.817-.52 1.39s.177 1.037.53 1.39c.353.347.79.52 1.31.52Zm6.464-.78.76-.17c.033.32.183.567.45.74.266.173.6.26 1 .26.353 0 .636-.077.85-.23a.71.71 0 0 0 .33-.61c0-.353-.27-.59-.81-.71l-1.13-.25c-.854-.18-1.28-.6-1.28-1.26 0-.447.17-.807.51-1.08.34-.273.793-.41 1.36-.41.54 0 .986.127 1.34.38.353.247.576.577.67.99l-.73.16a1.041 1.041 0 0 0-.42-.66c-.227-.167-.52-.25-.88-.25-.34 0-.607.077-.8.23a.693.693 0 0 0-.29.58c0 .187.06.333.18.44.126.1.316.18.57.24l1.19.26c.846.187 1.27.617 1.27 1.29 0 .48-.184.853-.55 1.12-.36.267-.84.4-1.44.4-.587 0-1.077-.127-1.47-.38a1.446 1.446 0 0 1-.68-1.08Zm7.648-3.71c.734 0 1.35.243 1.85.73.507.48.76 1.093.76 1.84 0 .747-.253 1.367-.76 1.86-.5.487-1.116.73-1.85.73-.74 0-1.363-.243-1.87-.73-.5-.493-.75-1.113-.75-1.86 0-.747.25-1.36.75-1.84.507-.487 1.13-.73 1.87-.73Zm0 4.49c.514 0 .95-.18 1.31-.54.367-.36.55-.82.55-1.38 0-.553-.183-1.007-.55-1.36-.36-.36-.796-.54-1.31-.54-.52 0-.963.18-1.33.54-.366.353-.55.807-.55 1.36 0 .56.184 1.02.55 1.38.367.36.81.54 1.33.54Zm6.084-4.49c.734 0 1.35.243 1.85.73.507.48.76 1.093.76 1.84 0 .747-.253 1.367-.76 1.86-.5.487-1.116.73-1.85.73-.74 0-1.363-.243-1.87-.73-.5-.493-.75-1.113-.75-1.86 0-.747.25-1.36.75-1.84.507-.487 1.13-.73 1.87-.73Zm0 4.49c.514 0 .95-.18 1.31-.54.367-.36.55-.82.55-1.38 0-.553-.183-1.007-.55-1.36-.36-.36-.796-.54-1.31-.54-.52 0-.963.18-1.33.54-.366.353-.55.807-.55 1.36 0 .56.184 1.02.55 1.38.367.36.81.54 1.33.54Zm6.534-4.5c.594 0 1.07.193 1.43.58.367.387.55.893.55 1.52V14h-.76v-2.81c0-.46-.126-.83-.38-1.11-.253-.287-.583-.43-.99-.43-.526 0-.943.173-1.25.52-.306.347-.46.833-.46 1.46V14h-.76V9.07h.76v.82c.42-.627 1.04-.94 1.86-.94Zm8.31.01c.733 0 1.35.243 1.85.73.507.48.76 1.093.76 1.84 0 .747-.253 1.367-.76 1.86-.5.487-1.117.73-1.85.73-.74 0-1.363-.243-1.87-.73-.5-.493-.75-1.113-.75-1.86 0-.747.25-1.36.75-1.84.507-.487 1.13-.73 1.87-.73Zm0 4.49c.513 0 .95-.18 1.31-.54.367-.36.55-.82.55-1.38 0-.553-.183-1.007-.55-1.36-.36-.36-.797-.54-1.31-.54-.52 0-.963.18-1.33.54-.367.353-.55.807-.55 1.36 0 .56.183 1.02.55 1.38.367.36.81.54 1.33.54Zm6.534-4.5c.593 0 1.07.193 1.43.58.367.387.55.893.55 1.52V14h-.76v-2.81c0-.46-.127-.83-.38-1.11-.253-.287-.583-.43-.99-.43-.527 0-.943.173-1.25.52-.307.347-.46.833-.46 1.46V14h-.76V9.07h.76v.82c.42-.627 1.04-.94 1.86-.94ZM40.16 33.71a25.431 25.431 0 0 1-2.255 4.26c-1.476 2.26-3.543 5.081-6.087 5.081-2.273.02-2.858-1.494-5.942-1.494-3.085 0-3.728 1.494-6.001 1.494-2.557-.024-4.514-2.561-5.978-4.82C9.8 31.919 9.372 24.514 11.9 20.575c1.795-2.8 4.625-4.438 7.288-4.438 2.713 0 4.428 1.495 6.656 1.495 2.176 0 3.501-1.495 6.636-1.495 2.361 0 4.88 1.306 6.668 3.566-5.862 3.266-4.909 11.741 1.013 14.006Z" fill="#fff"/><path d="M30.1 13.633c1.14-1.494 2.004-3.586 1.691-5.705-1.86.129-4.038 1.327-5.313 2.89-1.154 1.417-2.105 3.52-1.736 5.564 2.037.063 4.139-1.165 5.358-2.749ZM52.649 20.497 46.78 37.98h2.686l1.753-5.38h5.68l1.8 5.38h2.763l-5.904-17.483h-2.91Zm1.39 2.875c.198.78.413 1.59.688 2.466l1.582 4.635h-4.513l1.558-4.665c.24-.756.476-1.572.673-2.448l.012.012ZM69.043 25.03c-1.77 0-3.205.694-4.156 2.018l-.103-1.74H62.39l.015.222c.07 1.085.1 2.277.1 3.99v13.474h2.612v-6.276c.448.507 1 .91 1.616 1.177a4.544 4.544 0 0 0 1.956.374c.74.008 1.474-.14 2.155-.433a5.374 5.374 0 0 0 1.803-1.27c1.146-1.225 1.75-2.988 1.75-5.08 0-1.86-.525-3.467-1.52-4.647a4.968 4.968 0 0 0-1.716-1.339 4.91 4.91 0 0 0-2.118-.47Zm-.652 2.188c2.329 0 3.371 2.185 3.371 4.351 0 2.792-1.328 4.525-3.471 4.525-.71 0-1.4-.242-1.958-.687a3.208 3.208 0 0 1-1.118-1.767c-.069-.28-.1-.568-.095-.857v-2.125c.011-.22.039-.439.083-.655.015-.071.027-.143.038-.215.17-.72.572-1.364 1.142-1.829a3.285 3.285 0 0 1 2.008-.74ZM82.498 25.03c-1.771 0-3.206.694-4.156 2.018l-.104-1.74H75.85v.222c.071 1.085.1 2.277.1 3.99v13.474h2.613v-6.276c.447.507.999.91 1.616 1.177a4.545 4.545 0 0 0 1.956.374 5.332 5.332 0 0 0 2.156-.434 5.39 5.39 0 0 0 1.805-1.269c1.142-1.225 1.748-2.988 1.748-5.08 0-1.86-.526-3.467-1.52-4.647a4.968 4.968 0 0 0-1.714-1.337 4.909 4.909 0 0 0-2.112-.471Zm-.653 2.188c2.33 0 3.371 2.185 3.371 4.351 0 2.792-1.33 4.525-3.471 4.525-.71 0-1.4-.242-1.958-.687a3.208 3.208 0 0 1-1.118-1.767c-.068-.28-.1-.569-.094-.857v-2.125c.01-.221.039-.441.085-.658l.036-.212c.17-.72.572-1.364 1.142-1.829a3.285 3.285 0 0 1 2.007-.74ZM99.353 27.906c-2.438-.957-3.22-1.71-3.22-3.096 0-1.172.917-2.352 2.969-2.352a5.888 5.888 0 0 1 3.067.78l.221.14.738-2.208-.145-.087c-.439-.26-1.685-.863-3.805-.863-3.332 0-5.661 1.99-5.661 4.84 0 2.299 1.458 3.907 4.587 5.057 2.217.84 3.043 1.7 3.043 3.174 0 1.667-1.275 2.69-3.32 2.69a7.087 7.087 0 0 1-3.767-1.083l-.227-.146-.7 2.26.127.086c.986.666 2.843 1.148 4.428 1.148 4.49 0 6.084-2.77 6.084-5.147-.012-2.432-1.29-3.944-4.42-5.193ZM108.462 22.296l-2.562.813v2.2h-1.889v2.113h1.877v6.475c0 1.566.295 2.663.903 3.356a3.344 3.344 0 0 0 2.53 1.004 6.128 6.128 0 0 0 2.019-.298l.148-.054-.127-2.116-.251.078c-.395.11-.804.157-1.213.14-1.013 0-1.447-.648-1.447-2.17v-6.4h3.153v-2.113h-3.141v-3.028ZM118.091 25.03c-3.657 0-6.199 2.762-6.199 6.716 0 3.834 2.471 6.511 6.01 6.511h.024c2.99 0 6.198-2.091 6.198-6.738 0-1.883-.59-3.503-1.664-4.68a5.817 5.817 0 0 0-1.995-1.374 5.748 5.748 0 0 0-2.374-.434Zm-.077 2.093c2.362 0 3.421 2.322 3.421 4.482 0 2.654-1.461 4.579-3.471 4.579h-.024c-1.983 0-3.421-1.895-3.421-4.501 0-2.277 1.081-4.566 3.495-4.566v.006ZM132.124 25.153l-.156-.041a2.532 2.532 0 0 0-.65-.081 3.693 3.693 0 0 0-1.934.596 3.756 3.756 0 0 0-1.342 1.532l-.077-1.85h-2.344v.22c.071 1.05.1 2.224.1 3.811l-.026 8.64h2.615v-6.74a6.932 6.932 0 0 1 .071-1.027c.295-1.617 1.373-2.666 2.748-2.666.269 0 .478.024.703.045l.277.03.015-2.469ZM137.998 25.004c-3.477 0-5.904 2.815-5.904 6.843 0 3.885 2.418 6.386 6.158 6.386a9.907 9.907 0 0 0 4.133-.803l.156-.072-.502-1.97-.218.087a7.954 7.954 0 0 1-3.274.598c-1.136 0-3.755-.38-3.914-3.837l8.433.027.036-.17c.059-.365.085-.734.077-1.103.003-2.762-1.352-5.986-5.181-5.986Zm-.174 2.014a2.55 2.55 0 0 1 1.919.738c.752.777.885 1.916.9 2.466h-5.96c.245-1.53 1.187-3.204 3.141-3.204Z" fill="#fff"/></g><defs><clipPath id="clip0_422_5744"><path fill="#fff" d="M0 0h154v51H0z"/></clipPath></defs></svg>