<svg width="154" height="51" viewBox="0 0 154 51" fill="none" xmlns="http://www.w3.org/2000/svg">
<g clip-path="url('#clip0_422_5744')">
<path d="M154 44.1058C154 45.9334 153.283 47.6862 152.006 48.9786C150.73 50.2709 148.998 50.997 147.193 50.997H6.80692C5.00185 50.9962 3.27094 50.2699 1.99456 48.9777C0.718189 47.6855 0.000782262 45.9332 0 44.1058V6.89124C0 5.06357 0.717157 3.31075 1.9937 2.01839C3.27025 0.726032 5.00161 6.48623e-07 6.80692 6.48623e-07H147.193C148.087 -0.000392097 148.972 0.177576 149.798 0.523755C150.624 0.869933 151.375 1.37753 152.007 2.01752C152.639 2.65751 153.141 3.41735 153.483 4.25362C153.825 5.08988 154 5.98616 154 6.89124V44.1058Z" fill="black"></path>
<path d="M51.03 13.39C51.6167 13.39 52.1233 13.2433 52.55 12.95C52.9833 12.65 53.2867 12.2267 53.46 11.68L54.22 11.86C54.0133 12.56 53.6233 13.1133 53.05 13.52C52.4767 13.9267 51.8033 14.13 51.03 14.13C50.0567 14.13 49.2333 13.7933 48.56 13.12C47.8867 12.4467 47.55 11.6233 47.55 10.65C47.55 9.67667 47.8867 8.85333 48.56 8.18C49.2333 7.50667 50.0567 7.17 51.03 7.17C51.7967 7.17 52.4667 7.37333 53.04 7.78C53.62 8.18 54.0133 8.71667 54.22 9.39L53.46 9.61C53.2933 9.07667 52.9933 8.66 52.56 8.36C52.1267 8.06 51.6167 7.91 51.03 7.91C50.2767 7.91 49.64 8.17333 49.12 8.7C48.6067 9.22667 48.35 9.87667 48.35 10.65C48.35 11.4167 48.6067 12.0667 49.12 12.6C49.64 13.1267 50.2767 13.39 51.03 13.39ZM57.8234 8.96C58.5568 8.96 59.1734 9.20333 59.6734 9.69C60.1801 10.17 60.4334 10.7833 60.4334 11.53C60.4334 12.2767 60.1801 12.8967 59.6734 13.39C59.1734 13.8767 58.5568 14.12 57.8234 14.12C57.0834 14.12 56.4601 13.8767 55.9534 13.39C55.4534 12.8967 55.2034 12.2767 55.2034 11.53C55.2034 10.7833 55.4534 10.17 55.9534 9.69C56.4601 9.20333 57.0834 8.96 57.8234 8.96ZM57.8234 13.45C58.3368 13.45 58.7734 13.27 59.1334 12.91C59.5001 12.55 59.6834 12.09 59.6834 11.53C59.6834 10.9767 59.5001 10.5233 59.1334 10.17C58.7734 9.81 58.3368 9.63 57.8234 9.63C57.3034 9.63 56.8601 9.81 56.4934 10.17C56.1268 10.5233 55.9434 10.9767 55.9434 11.53C55.9434 12.09 56.1268 12.55 56.4934 12.91C56.8601 13.27 57.3034 13.45 57.8234 13.45ZM67.7174 8.95C68.2441 8.95 68.6808 9.12333 69.0274 9.47C69.3808 9.81 69.5574 10.2567 69.5574 10.81V14H68.7974V10.94C68.7974 10.5533 68.6774 10.2433 68.4374 10.01C68.2041 9.77 67.9008 9.65 67.5274 9.65C67.0674 9.65 66.7008 9.81333 66.4274 10.14C66.1541 10.46 66.0174 10.9067 66.0174 11.48V14H65.2574V10.94C65.2574 10.5533 65.1374 10.2433 64.8974 10.01C64.6641 9.77 64.3641 9.65 63.9974 9.65C63.5374 9.65 63.1708 9.81333 62.8974 10.14C62.6308 10.46 62.4974 10.9067 62.4974 11.48V14H61.7374V9.07H62.4974V9.82C62.8708 9.24 63.4308 8.95 64.1774 8.95C64.5574 8.95 64.8941 9.04 65.1874 9.22C65.4874 9.39333 65.7108 9.63667 65.8574 9.95C66.2708 9.28333 66.8908 8.95 67.7174 8.95ZM71.2903 7.22C71.3903 7.12 71.5136 7.07 71.6603 7.07C71.807 7.07 71.9303 7.12 72.0303 7.22C72.137 7.32 72.1903 7.44 72.1903 7.58C72.1903 7.72667 72.1403 7.85 72.0403 7.95C71.9403 8.04333 71.8136 8.09 71.6603 8.09C71.5136 8.09 71.3903 8.04333 71.2903 7.95C71.1903 7.85 71.1403 7.72667 71.1403 7.58C71.1403 7.44 71.1903 7.32 71.2903 7.22ZM72.0503 14H71.2803V9.07H72.0503V14ZM76.5059 8.95C77.0992 8.95 77.5759 9.14333 77.9359 9.53C78.3025 9.91667 78.4859 10.4233 78.4859 11.05V14H77.7259V11.19C77.7259 10.73 77.5992 10.36 77.3459 10.08C77.0925 9.79333 76.7625 9.65 76.3559 9.65C75.8292 9.65 75.4125 9.82333 75.1059 10.17C74.7992 10.5167 74.6459 11.0033 74.6459 11.63V14H73.8859V9.07H74.6459V9.89C75.0659 9.26333 75.6859 8.95 76.5059 8.95ZM84.8561 9.07V14.21C84.8561 14.89 84.6061 15.44 84.1061 15.86C83.6128 16.2867 82.9994 16.5 82.2661 16.5C81.0594 16.5 80.2528 16.0733 79.8461 15.22L80.4961 14.73C80.6761 15.0767 80.9028 15.3333 81.1761 15.5C81.4561 15.6733 81.8194 15.76 82.2661 15.76C82.7794 15.76 83.2094 15.6067 83.5561 15.3C83.9094 15 84.0894 14.6033 84.0961 14.11V13.18C83.6428 13.8133 82.9894 14.13 82.1361 14.13C81.4628 14.13 80.8828 13.89 80.3961 13.41C79.9161 12.9233 79.6761 12.3 79.6761 11.54C79.6761 10.78 79.9161 10.16 80.3961 9.68C80.8828 9.19333 81.4628 8.95 82.1361 8.95C82.9894 8.95 83.6428 9.26667 84.0961 9.9V9.07H84.8561ZM82.2561 13.45C82.7428 13.45 83.1694 13.2733 83.5361 12.92C83.9094 12.56 84.0961 12.1 84.0961 11.54C84.0961 10.9733 83.9094 10.5133 83.5361 10.16C83.1694 9.8 82.7428 9.62 82.2561 9.62C81.7294 9.62 81.2894 9.79667 80.9361 10.15C80.5894 10.5033 80.4161 10.9667 80.4161 11.54C80.4161 12.1133 80.5928 12.5767 80.9461 12.93C81.2994 13.2767 81.7361 13.45 82.2561 13.45ZM88.7198 12.67L89.4798 12.5C89.5131 12.82 89.6631 13.0667 89.9298 13.24C90.1964 13.4133 90.5298 13.5 90.9298 13.5C91.2831 13.5 91.5664 13.4233 91.7798 13.27C91.9998 13.1167 92.1098 12.9133 92.1098 12.66C92.1098 12.3067 91.8398 12.07 91.2998 11.95L90.1698 11.7C89.3164 11.52 88.8898 11.1 88.8898 10.44C88.8898 9.99333 89.0598 9.63333 89.3998 9.36C89.7398 9.08667 90.1931 8.95 90.7598 8.95C91.2998 8.95 91.7464 9.07667 92.0998 9.33C92.4531 9.57667 92.6764 9.90667 92.7698 10.32L92.0398 10.48C91.9864 10.2067 91.8464 9.98667 91.6198 9.82C91.3931 9.65333 91.0998 9.57 90.7398 9.57C90.3998 9.57 90.1331 9.64667 89.9398 9.8C89.7464 9.94667 89.6498 10.14 89.6498 10.38C89.6498 10.5667 89.7098 10.7133 89.8298 10.82C89.9564 10.92 90.1464 11 90.3998 11.06L91.5898 11.32C92.4364 11.5067 92.8598 11.9367 92.8598 12.61C92.8598 13.09 92.6764 13.4633 92.3098 13.73C91.9498 13.9967 91.4698 14.13 90.8698 14.13C90.2831 14.13 89.7931 14.0033 89.3998 13.75C89.0064 13.4967 88.7798 13.1367 88.7198 12.67ZM96.3684 8.96C97.1017 8.96 97.7184 9.20333 98.2184 9.69C98.725 10.17 98.9784 10.7833 98.9784 11.53C98.9784 12.2767 98.725 12.8967 98.2184 13.39C97.7184 13.8767 97.1017 14.12 96.3684 14.12C95.6284 14.12 95.005 13.8767 94.4984 13.39C93.9984 12.8967 93.7484 12.2767 93.7484 11.53C93.7484 10.7833 93.9984 10.17 94.4984 9.69C95.005 9.20333 95.6284 8.96 96.3684 8.96ZM96.3684 13.45C96.8817 13.45 97.3184 13.27 97.6784 12.91C98.045 12.55 98.2284 12.09 98.2284 11.53C98.2284 10.9767 98.045 10.5233 97.6784 10.17C97.3184 9.81 96.8817 9.63 96.3684 9.63C95.8484 9.63 95.405 9.81 95.0384 10.17C94.6717 10.5233 94.4884 10.9767 94.4884 11.53C94.4884 12.09 94.6717 12.55 95.0384 12.91C95.405 13.27 95.8484 13.45 96.3684 13.45ZM102.452 8.96C103.186 8.96 103.802 9.20333 104.302 9.69C104.809 10.17 105.062 10.7833 105.062 11.53C105.062 12.2767 104.809 12.8967 104.302 13.39C103.802 13.8767 103.186 14.12 102.452 14.12C101.712 14.12 101.089 13.8767 100.582 13.39C100.082 12.8967 99.8323 12.2767 99.8323 11.53C99.8323 10.7833 100.082 10.17 100.582 9.69C101.089 9.20333 101.712 8.96 102.452 8.96ZM102.452 13.45C102.966 13.45 103.402 13.27 103.762 12.91C104.129 12.55 104.312 12.09 104.312 11.53C104.312 10.9767 104.129 10.5233 103.762 10.17C103.402 9.81 102.966 9.63 102.452 9.63C101.932 9.63 101.489 9.81 101.122 10.17C100.756 10.5233 100.572 10.9767 100.572 11.53C100.572 12.09 100.756 12.55 101.122 12.91C101.489 13.27 101.932 13.45 102.452 13.45ZM108.986 8.95C109.58 8.95 110.056 9.14333 110.416 9.53C110.783 9.91667 110.966 10.4233 110.966 11.05V14H110.206V11.19C110.206 10.73 110.08 10.36 109.826 10.08C109.573 9.79333 109.243 9.65 108.836 9.65C108.31 9.65 107.893 9.82333 107.586 10.17C107.28 10.5167 107.126 11.0033 107.126 11.63V14H106.366V9.07H107.126V9.89C107.546 9.26333 108.166 8.95 108.986 8.95ZM117.296 8.96C118.029 8.96 118.646 9.20333 119.146 9.69C119.653 10.17 119.906 10.7833 119.906 11.53C119.906 12.2767 119.653 12.8967 119.146 13.39C118.646 13.8767 118.029 14.12 117.296 14.12C116.556 14.12 115.933 13.8767 115.426 13.39C114.926 12.8967 114.676 12.2767 114.676 11.53C114.676 10.7833 114.926 10.17 115.426 9.69C115.933 9.20333 116.556 8.96 117.296 8.96ZM117.296 13.45C117.809 13.45 118.246 13.27 118.606 12.91C118.973 12.55 119.156 12.09 119.156 11.53C119.156 10.9767 118.973 10.5233 118.606 10.17C118.246 9.81 117.809 9.63 117.296 9.63C116.776 9.63 116.333 9.81 115.966 10.17C115.599 10.5233 115.416 10.9767 115.416 11.53C115.416 12.09 115.599 12.55 115.966 12.91C116.333 13.27 116.776 13.45 117.296 13.45ZM123.83 8.95C124.423 8.95 124.9 9.14333 125.26 9.53C125.627 9.91667 125.81 10.4233 125.81 11.05V14H125.05V11.19C125.05 10.73 124.923 10.36 124.67 10.08C124.417 9.79333 124.087 9.65 123.68 9.65C123.153 9.65 122.737 9.82333 122.43 10.17C122.123 10.5167 121.97 11.0033 121.97 11.63V14H121.21V9.07H121.97V9.89C122.39 9.26333 123.01 8.95 123.83 8.95Z" fill="white"></path>
<path d="M40.1597 33.7092C39.5439 35.1993 38.7887 36.6263 37.9045 37.9707C36.4286 40.2299 34.3623 43.051 31.8178 43.051C29.5449 43.0719 28.9604 41.5568 25.8758 41.5568C22.7911 41.5568 22.1476 43.051 19.8747 43.051C17.3184 43.0271 15.3614 40.4899 13.8972 38.2307C9.8001 31.9192 9.37209 24.5139 11.8989 20.5752C13.6936 17.7751 16.5244 16.1375 19.1869 16.1375C21.8997 16.1375 23.6147 17.6317 25.8433 17.6317C28.0188 17.6317 29.3442 16.1375 32.479 16.1375C34.8405 16.1375 37.3584 17.4434 39.1472 19.7026C33.2849 22.9689 34.2383 31.444 40.1597 33.7092Z" fill="white"></path>
<path d="M30.0998 13.6331C31.2392 12.1389 32.1041 10.047 31.7912 7.92822C29.9316 8.05672 27.7531 9.25508 26.4779 10.818C25.3238 12.2345 24.3733 14.3383 24.7422 16.3824C26.779 16.4452 28.8807 15.2169 30.0998 13.6331Z" fill="white"></path>
<path d="M52.6489 20.4973L46.7806 37.9795H49.4668L51.2202 32.6003H56.8995L58.7001 37.9795H61.463L55.5594 20.4973H52.6489ZM54.0392 23.3722C54.237 24.1521 54.4525 24.962 54.727 25.8376L56.3092 30.4726H51.7958L53.3544 25.8077C53.5935 25.0516 53.8296 24.2358 54.0274 23.3602L54.0392 23.3722Z" fill="white"></path>
<path d="M69.0433 25.0308C67.2722 25.0308 65.8376 25.7241 64.8871 27.048L64.7838 25.3087H62.3899L62.4046 25.5299C62.4755 26.6147 62.505 27.807 62.505 29.5194V42.9941H65.1174V36.7184C65.5646 37.2255 66.1161 37.6272 66.7332 37.8952C67.3503 38.1632 68.018 38.2909 68.6891 38.2694C69.4292 38.2767 70.1628 38.1291 70.8439 37.836C71.5251 37.5429 72.1391 37.1105 72.6475 36.566C73.7928 35.3408 74.3979 33.5776 74.3979 31.4857C74.3979 29.6269 73.8725 28.0192 72.8777 26.8388C72.4098 26.2699 71.8234 25.8127 71.1605 25.5001C70.4976 25.1876 69.7746 25.0273 69.0433 25.0308ZM68.391 27.2183C70.72 27.2183 71.762 29.4028 71.762 31.5694C71.762 34.3606 70.4336 36.0939 68.2906 36.0939C67.5803 36.0937 66.8907 35.8517 66.3328 35.4066C65.7749 34.9616 65.3811 34.3395 65.2148 33.6404C65.1465 33.3599 65.1148 33.0716 65.1203 32.7827V30.658C65.131 30.438 65.1586 30.2191 65.203 30.0035C65.2177 29.9318 65.2296 29.8601 65.2414 29.7883C65.4116 29.0676 65.8132 28.4244 66.3831 27.9593C66.953 27.4943 67.6591 27.2337 68.391 27.2183Z" fill="white"></path>
<path d="M82.4977 25.0308C80.7266 25.0308 79.2921 25.7241 78.3416 27.0479L78.2383 25.3087H75.8502V25.5298C75.9211 26.6146 75.9506 27.807 75.9506 29.5193V42.994H78.563V36.7184C79.0101 37.2255 79.5617 37.6272 80.1788 37.8952C80.7959 38.1631 81.4635 38.2909 82.1347 38.2694C82.8751 38.2762 83.609 38.1284 84.2906 37.8353C84.9721 37.5423 85.5867 37.1101 86.096 36.566C87.2384 35.3407 87.8435 33.5776 87.8435 31.4857C87.8435 29.6269 87.3181 28.0192 86.3233 26.8388C85.8563 26.271 85.2713 25.8145 84.6101 25.502C83.9488 25.1895 83.2275 25.0286 82.4977 25.0308ZM81.8454 27.2183C84.1744 27.2183 85.2164 29.4028 85.2164 31.5694C85.2164 34.3605 83.8851 36.0938 81.745 36.0938C81.0347 36.0937 80.3452 35.8516 79.7872 35.4066C79.2293 34.9616 78.8355 34.3395 78.6692 33.6404C78.6009 33.3599 78.5692 33.0715 78.5748 32.7827V30.6579C78.585 30.4367 78.6136 30.2168 78.6604 30.0005L78.6958 29.7883C78.8661 29.0676 79.2676 28.4243 79.8375 27.9593C80.4074 27.4943 81.1136 27.2337 81.8454 27.2183Z" fill="white"></path>
<path d="M99.3527 27.9056C96.9145 26.9493 96.1322 26.1963 96.1322 24.8097C96.1322 23.6382 97.0503 22.4578 99.1018 22.4578C100.175 22.4327 101.235 22.7022 102.169 23.2378L102.39 23.3782L103.128 21.1698L102.983 21.0831C102.544 20.8231 101.298 20.2195 99.1785 20.2195C95.8459 20.2195 93.5169 22.2098 93.5169 25.0607C93.5169 27.3588 94.9751 28.9665 98.1041 30.1171C100.321 30.9568 101.147 31.8175 101.147 33.2907C101.147 34.9583 99.8722 35.9803 97.8266 35.9803C96.4961 35.9814 95.1917 35.6067 94.0601 34.8985L93.8328 34.7521L93.1332 37.0113L93.2601 37.0979C94.246 37.7644 96.1027 38.2455 97.6879 38.2455C102.178 38.2455 103.772 35.4752 103.772 33.0995C103.76 30.6669 102.482 29.1548 99.3527 27.9056Z" fill="white"></path>
<path d="M108.462 22.2964L105.9 23.1092V25.3087H104.011V27.4215H105.888V33.8973C105.888 35.4633 106.183 36.56 106.791 37.2533C107.12 37.5903 107.515 37.8537 107.951 38.0266C108.387 38.1996 108.854 38.2782 109.321 38.2574C110.006 38.2714 110.688 38.1704 111.34 37.9586L111.488 37.9048L111.361 35.789L111.11 35.8667C110.715 35.9767 110.306 36.024 109.897 36.0071C108.884 36.0071 108.45 35.3587 108.45 33.8376V27.4364H111.603V25.3236H108.462V22.2964Z" fill="white"></path>
<path d="M118.091 25.0308C114.434 25.0308 111.892 27.7921 111.892 31.7457C111.892 35.5798 114.363 38.2574 117.902 38.2574H117.926C120.916 38.2574 124.124 36.1655 124.124 31.5186C124.124 29.6359 123.534 28.0162 122.46 26.8387C121.897 26.2447 121.217 25.7768 120.465 25.4653C119.712 25.1539 118.904 25.0059 118.091 25.0308ZM118.014 27.1226C120.376 27.1226 121.435 29.4446 121.435 31.6052C121.435 34.2589 119.974 36.1835 117.964 36.1835H117.94C115.957 36.1835 114.519 34.2888 114.519 31.6829C114.519 29.4058 115.6 27.1166 118.014 27.1166V27.1226Z" fill="white"></path>
<path d="M132.124 25.1533L131.968 25.1115C131.755 25.0565 131.537 25.0294 131.318 25.0308C130.631 25.0455 129.962 25.2519 129.384 25.6274C128.806 26.0028 128.341 26.5327 128.042 27.1585L127.965 25.3087H125.621V25.5299C125.692 26.5788 125.721 27.7532 125.721 29.3401L125.695 37.9795H128.31V31.2407C128.308 30.8967 128.332 30.5531 128.381 30.2127C128.676 28.596 129.754 27.547 131.129 27.547C131.398 27.547 131.607 27.571 131.832 27.5919L132.109 27.6217L132.124 25.1533Z" fill="white"></path>
<path d="M137.998 25.0039C134.521 25.0039 132.094 27.819 132.094 31.8473C132.094 35.7323 134.512 38.2335 138.252 38.2335C139.67 38.2651 141.079 37.991 142.385 37.4297L142.541 37.3579L142.039 35.3886L141.821 35.4753C140.783 35.9033 139.668 36.1069 138.547 36.0729C137.411 36.0729 134.792 35.6934 134.633 32.2358L143.066 32.2627L143.102 32.0924C143.161 31.728 143.187 31.3589 143.179 30.9897C143.182 28.2284 141.827 25.0039 137.998 25.0039ZM137.824 27.0181C138.177 27.0017 138.529 27.0587 138.859 27.1857C139.189 27.3126 139.49 27.5068 139.743 27.7562C140.495 28.5332 140.628 29.6718 140.643 30.2216H134.683C134.928 28.6916 135.87 27.0181 137.824 27.0181Z" fill="white"></path>
</g>
<defs>
<clipPath id="clip0_422_5744">
<rect width="154" height="51" fill="white"></rect>
</clipPath>
</defs>
</svg>
