<svg width="74" height="74" fill="none" xmlns="http://www.w3.org/2000/svg"><path d="M40.469 17.344v2.312H37a1.157 1.157 0 0 0-1.156 1.157v3.468h-3.469a1.157 1.157 0 0 0-1.156 1.157v2.312H27.75a1.156 1.156 0 0 0-1.156 1.156v5.782a1.156 1.156 0 0 0 1.156 1.156h18.5a1.157 1.157 0 0 0 1.156-1.157V17.345a1.156 1.156 0 0 0-1.156-1.157h-4.625a1.156 1.156 0 0 0-1.156 1.157ZM28.906 30.062h2.313v3.47h-2.313v-3.47Zm4.625-3.468h2.313v6.937H33.53v-6.937Zm4.625-4.625h2.313V33.53h-2.313V21.97Zm4.625-3.469h2.313v15.031H42.78V18.5Z" fill="url('#paint0_linear_422_23448')"/><path d="M33.531 37h2.313v2.313H33.53V37Z" fill="url('#paint1_linear_422_23448')"/><path d="M28.906 37h2.313v2.313h-2.313V37Z" fill="url('#paint2_linear_422_23448')"/><path d="M38.156 37h2.313v2.313h-2.313V37Z" fill="url('#paint3_linear_422_23448')"/><path d="M42.781 37h2.313v2.313H42.78V37Z" fill="url('#paint4_linear_422_23448')"/><path d="M8.094 34.687v11.694a13.847 13.847 0 0 0 6.178 11.544l.76.506v10.944a1.156 1.156 0 0 0 1.155 1.156h13.875a1.156 1.156 0 0 0 1.157-1.156V54.863c3.807.85 7.755.85 11.562 0v14.512a1.156 1.156 0 0 0 1.157 1.156h13.874a1.156 1.156 0 0 0 1.157-1.156V58.431l.759-.506a13.849 13.849 0 0 0 6.178-11.544V34.687a3.475 3.475 0 0 0-2.429-3.309c.076-.82.117-1.647.117-2.472a1.156 1.156 0 0 0-1.157-1.156h-9.25a1.156 1.156 0 0 0-1.156 1.156A15.031 15.031 0 1 1 37 13.875a1.156 1.156 0 0 0 1.156-1.156v-9.25A1.156 1.156 0 0 0 37 2.313c-14.664 0-26.594 11.93-26.594 26.593 0 .825.041 1.652.117 2.472a3.474 3.474 0 0 0-2.43 3.31ZM28.906 68.22H17.344v-9.25h11.562v9.25Zm27.75 0H45.094v-9.25h11.562v9.25Zm6.938-21.838A11.541 11.541 0 0 1 58.445 56l-.983.655H45.094v-2.42a26.62 26.62 0 0 0 5.863-2.694 9.005 9.005 0 0 0-.082 1.19v1.612h2.313v-1.612a6.62 6.62 0 0 1 2.954-5.52 1.155 1.155 0 0 0 .515-.962v-4.625a1.156 1.156 0 1 1 2.312 0v5.781h2.312V34.687a1.157 1.157 0 1 1 2.313 0v11.694ZM35.844 4.652v6.949a17.344 17.344 0 1 0 18.462 18.462h6.948c-.022.47-.059.938-.108 1.404a3.474 3.474 0 0 0-2.177 3.22v3.668a3.469 3.469 0 0 0-4.625 3.27v4.033a8.937 8.937 0 0 0-1.85 1.944 24.279 24.279 0 0 1-30.988 0 8.932 8.932 0 0 0-1.85-1.944v-4.032a3.468 3.468 0 0 0-4.625-3.27v-3.668a3.473 3.473 0 0 0-2.178-3.221 24.66 24.66 0 0 1-.134-2.56c0-13.002 10.27-23.65 23.125-24.255ZM10.406 34.687a1.155 1.155 0 1 1 2.313 0v12.72h2.312v-5.782a1.156 1.156 0 1 1 2.313 0l-.001 4.625a1.154 1.154 0 0 0 .515.962 6.622 6.622 0 0 1 2.954 5.52v1.612h2.313v-1.612a8.985 8.985 0 0 0-.082-1.19 26.615 26.615 0 0 0 5.863 2.695v2.42H16.538L15.555 56a11.54 11.54 0 0 1-5.149-9.62V34.687Z" fill="url('#paint5_linear_422_23448')"/><path d="M55.5 21.969h4.625v2.312H55.5V21.97Z" fill="url('#paint6_linear_422_23448')"/><path d="M43.938 4.625v2.313h-2.313V9.25h2.313v2.313h2.312V9.25h2.313V6.937H46.25V4.626h-2.313Z" fill="url('#paint7_linear_422_23448')"/><defs><linearGradient id="paint0_linear_422_23448" x1="37" y1="16.188" x2="37" y2="35.844" gradientUnits="userSpaceOnUse"><stop stop-color="#79CBC8"/><stop offset="1" stop-color="#109BE6"/></linearGradient><linearGradient id="paint1_linear_422_23448" x1="34.688" y1="37" x2="34.688" y2="39.313" gradientUnits="userSpaceOnUse"><stop stop-color="#79CBC8"/><stop offset="1" stop-color="#109BE6"/></linearGradient><linearGradient id="paint2_linear_422_23448" x1="30.063" y1="37" x2="30.063" y2="39.313" gradientUnits="userSpaceOnUse"><stop stop-color="#79CBC8"/><stop offset="1" stop-color="#109BE6"/></linearGradient><linearGradient id="paint3_linear_422_23448" x1="39.313" y1="37" x2="39.313" y2="39.313" gradientUnits="userSpaceOnUse"><stop stop-color="#79CBC8"/><stop offset="1" stop-color="#109BE6"/></linearGradient><linearGradient id="paint4_linear_422_23448" x1="43.938" y1="37" x2="43.938" y2="39.313" gradientUnits="userSpaceOnUse"><stop stop-color="#79CBC8"/><stop offset="1" stop-color="#109BE6"/></linearGradient><linearGradient id="paint5_linear_422_23448" x1="37" y1="2.313" x2="37" y2="70.531" gradientUnits="userSpaceOnUse"><stop stop-color="#79CBC8"/><stop offset="1" stop-color="#109BE6"/></linearGradient><linearGradient id="paint6_linear_422_23448" x1="57.813" y1="21.969" x2="57.813" y2="24.281" gradientUnits="userSpaceOnUse"><stop stop-color="#79CBC8"/><stop offset="1" stop-color="#109BE6"/></linearGradient><linearGradient id="paint7_linear_422_23448" x1="45.094" y1="4.625" x2="45.094" y2="11.563" gradientUnits="userSpaceOnUse"><stop stop-color="#79CBC8"/><stop offset="1" stop-color="#109BE6"/></linearGradient></defs></svg>