<svg width="88" height="88" fill="none" xmlns="http://www.w3.org/2000/svg"><path d="M87.5 44c0 24.024-19.476 43.5-43.5 43.5S.5 68.024.5 44 19.976.5 44 .5 87.5 19.976 87.5 44Z" stroke="url('#paint0_linear_422_1940')"/><path d="M39.132 62.136 36.25 71.26a.655.655 0 0 1-.625.459H23.812a.658.658 0 0 1-.625-.854l4.655-14.742c.159.369.303.782.446 1.191.482 1.387 1.029 2.96 2.412 3.76 1.364.79 2.987.481 4.417.212.904-.172 1.838-.348 2.437-.187.457.121 1.016.559 1.578 1.037Zm20.026-6.014c-.159.37-.304.783-.446 1.193-.483 1.386-1.03 2.959-2.412 3.759-1.364.79-2.987.483-4.417.212-.905-.172-1.839-.346-2.437-.188-.457.123-1.016.56-1.578 1.038l2.88 9.124c.088.273.34.459.627.459h11.813a.658.658 0 0 0 .625-.854l-4.656-14.743ZM57.28 38.906c0 7.599-6.182 13.782-13.781 13.782s-13.781-6.183-13.781-13.782c0-7.598 6.182-13.781 13.781-13.781s13.781 6.183 13.781 13.781Zm-5.284-2.723a.657.657 0 0 0-.523-.44l-5.096-.78-2.284-4.867a.657.657 0 0 0-1.188 0l-2.284 4.868-5.096.779a.656.656 0 0 0-.37 1.107l3.687 3.779-1.233 5.349a.655.655 0 0 0 .938.732l4.952-2.538 4.95 2.536a.65.65 0 0 0 .702-.066.657.657 0 0 0 .237-.665l-1.232-5.349 3.687-3.78a.654.654 0 0 0 .153-.665Zm11.158 7.994c-.314 1.174-.081 2.407.145 3.6.185.981.396 2.094.095 2.615-.312.538-1.394.915-2.35 1.247-1.135.395-2.31.803-3.158 1.65-.85.852-1.259 2.027-1.654 3.163-.332.955-.708 2.037-1.246 2.349-.066.037-.262.15-.772.15-.541 0-1.203-.124-1.843-.246-.733-.139-1.563-.296-2.361-.296-.452 0-.857.05-1.236.15-1.14.306-2.068 1.108-2.966 1.884-.814.705-1.655 1.432-2.309 1.432-.656 0-1.496-.727-2.31-1.432-.898-.776-1.826-1.579-2.961-1.881a4.77 4.77 0 0 0-1.244-.151c-.795 0-1.625.157-2.358.296-.643.121-1.304.246-1.845.246-.508 0-.705-.114-.769-.151-.539-.313-.916-1.395-1.247-2.35-.396-1.136-.804-2.31-1.652-3.159-.85-.85-2.026-1.258-3.162-1.654-.955-.332-2.037-.708-2.348-1.246-.3-.52-.09-1.632.095-2.614.226-1.2.458-2.429.145-3.602-.304-1.134-1.106-2.063-1.882-2.96-.704-.816-1.43-1.657-1.43-2.31 0-.656.726-1.497 1.431-2.31.776-.898 1.58-1.827 1.882-2.962.314-1.174.081-2.407-.145-3.6-.185-.982-.396-2.095-.095-2.615.312-.538 1.394-.916 2.35-1.247 1.135-.395 2.31-.803 3.158-1.651.85-.851 1.259-2.026 1.654-3.162.332-.955.709-2.037 1.246-2.349.066-.037.263-.151.772-.151.543 0 1.203.125 1.842.247.732.138 1.56.295 2.362.295.45 0 .852-.048 1.23-.148 1.146-.307 2.074-1.109 2.971-1.885.815-.704 1.656-1.431 2.31-1.431.656 0 1.496.727 2.31 1.431.898.777 1.826 1.58 2.961 1.882.38.101.786.15 1.242.15.792 0 1.624-.156 2.358-.294.642-.122 1.305-.247 1.846-.247.508 0 .705.114.77.15.538.313.916 1.395 1.247 2.35.395 1.136.803 2.311 1.651 3.16.851.85 2.026 1.258 3.162 1.653.955.333 2.037.709 2.349 1.246.3.52.09 1.632-.096 2.614-.226 1.2-.458 2.43-.145 3.602.304 1.135 1.107 2.064 1.882 2.96.705.816 1.432 1.657 1.432 2.311 0 .656-.727 1.497-1.432 2.31-.776.898-1.58 1.827-1.882 2.96Zm-3.249-5.27c0-9.047-7.36-16.407-16.406-16.407s-16.406 7.36-16.406 16.406c0 9.047 7.36 16.407 16.406 16.407s16.406-7.36 16.406-16.407Z" fill="url('#paint1_linear_422_1940')"/><defs><linearGradient id="paint0_linear_422_1940" x1="44" y1="0" x2="44" y2="88" gradientUnits="userSpaceOnUse"><stop stop-color="#25A6E0"/><stop offset="1" stop-color="#43B2E3" stop-opacity="0"/></linearGradient><linearGradient id="paint1_linear_422_1940" x1="43.5" y1="15.938" x2="43.5" y2="71.719" gradientUnits="userSpaceOnUse"><stop stop-color="#80D0C8"/><stop offset="1" stop-color="#0596E8"/></linearGradient></defs></svg>