<svg width="16" height="16" fill="none" xmlns="http://www.w3.org/2000/svg"><path fill-rule="evenodd" clip-rule="evenodd" d="M15.87 7.935a7.935 7.935 0 1 1-15.87 0 7.935 7.935 0 0 1 15.87 0ZM9.841 4.987c1.104.379 1.912.946 1.753 2.003-.115.773-.545 1.147-1.117 1.278.784.407 1.052 1.18.803 2.113-.471 1.343-1.593 1.456-3.084 1.175l-.362 1.445-.874-.217.357-1.425a37.04 37.04 0 0 1-.697-.18l-.358 1.431-.874-.217.362-1.447-1.76-.443.434-.997s.644.17.635.158c.248.06.358-.1.401-.207l.981-3.92c.011-.184-.053-.418-.407-.506.013-.01-.635-.157-.635-.157l.232-.93 1.764.435.358-1.431.874.217-.351 1.403c.235.053.471.107.7.164l.35-1.394.873.218-.358 1.43ZM7.75 7.374c.595.158 1.89.501 2.117-.4.23-.921-1.029-1.2-1.645-1.336a7.53 7.53 0 0 1-.182-.041l-.435 1.739.145.038Zm-.675 2.8c.713.188 2.273.599 2.521-.394C9.85 8.766 8.338 8.428 7.6 8.263c-.082-.019-.155-.035-.215-.05l-.48 1.917.17.044Z" fill="#F7931A"/></svg>