<svg width="70" height="70" fill="none" xmlns="http://www.w3.org/2000/svg"><path fill-rule="evenodd" clip-rule="evenodd" d="M70 35c0 19.33-15.67 35-35 35S0 54.33 0 35 15.67 0 35 0s35 15.67 35 35ZM43.409 21.996c4.868 1.672 8.43 4.176 7.731 8.835-.508 3.411-2.406 5.061-4.928 5.639 3.46 1.794 4.64 5.2 3.544 9.318-2.08 5.926-7.026 6.425-13.604 5.186l-1.597 6.37-3.856-.958 1.575-6.285c-1-.247-2.021-.512-3.074-.794l-1.581 6.315-3.852-.958 1.595-6.384-7.766-1.952 1.916-4.398s2.843.75 2.803.696c1.092.269 1.577-.44 1.768-.91l4.329-17.29c.048-.817-.235-1.845-1.797-2.235.059-.041-2.802-.694-2.802-.694l1.026-4.103 7.778 1.92 1.582-6.312 3.853.959-1.549 6.186c1.037.234 2.079.473 3.092.725l1.538-6.147 3.855.958-1.58 6.313Zm-9.227 10.528c2.626.697 8.341 2.212 9.338-1.761 1.016-4.065-4.537-5.293-7.255-5.894-.309-.068-.58-.128-.802-.183l-1.92 7.672c.183.045.397.102.638.166Zm-2.974 12.353c3.145.828 10.026 2.64 11.12-1.737 1.121-4.476-5.55-5.967-8.805-6.695a44.294 44.294 0 0 1-.947-.218l-2.118 8.456c.215.053.467.12.75.194Z" fill="#F7931A"/></svg>