<svg width="68" height="68" fill="none" xmlns="http://www.w3.org/2000/svg"><g clip-path="url('#clip0_422_15522')"><path d="M5.978 68A5.984 5.984 0 0 1 0 62.024V25.5a5.986 5.986 0 0 1 5.08-5.907 11.944 11.944 0 0 1 1.826-.067.714.714 0 0 0 .562-.276L22.001.563a1.46 1.46 0 0 1 2.026-.27l7.51 5.63a.711.711 0 0 0 .794.04l9.596-5.75a1.459 1.459 0 0 1 1.964.436l12.485 18.73c.102.153.259.26.438.3a6.01 6.01 0 0 1 4.677 5.822V34a.712.712 0 0 0 .712.712h4.34A1.459 1.459 0 0 1 68 36.17v13.016a1.46 1.46 0 0 1-1.458 1.458H51.356a7.97 7.97 0 0 1 0-15.932h6.509a.712.712 0 0 0 .712-.712v-8.5a3.067 3.067 0 0 0-3.063-3.062H5.977A3.065 3.065 0 0 0 2.916 25.5v36.524a3.065 3.065 0 0 0 3.062 3.06h49.535a3.065 3.065 0 0 0 3.064-3.06v-6.329a1.456 1.456 0 0 1 2.502-1.056 1.458 1.458 0 0 1 .412 1.056v6.329A5.983 5.983 0 0 1 55.514 68H5.977Zm45.378-30.374a5.05 5.05 0 0 0 0 10.103h13.017a.712.712 0 0 0 .712-.712v-8.678a.713.713 0 0 0-.712-.713H51.356ZM41.65 3.77l-6.304 3.786a.713.713 0 0 0-.06 1.18c14.96 11.156 14.173 10.79 14.624 10.79h1.728a.712.712 0 0 0 .591-1.107L42.613 3.986a.714.714 0 0 0-.963-.216Zm-15.52 7.323c13.227 8.765 12.457 8.433 12.866 8.433h3.682a.713.713 0 0 0 .425-1.283L23.978 3.9a.712.712 0 0 0-.989.132L11.833 18.375a.713.713 0 0 0 .562 1.15h5.328a.714.714 0 0 0 .569-.285l5.856-7.81a1.452 1.452 0 0 1 1.982-.337Zm-.873 3.727-2.675 3.561a.712.712 0 0 0 .57 1.14h8.022a.713.713 0 0 0 .395-1.304l-5.348-3.566a.713.713 0 0 0-.964.169Z" fill="url('#paint0_linear_422_15522')"/><path d="M53.526 44.455a1.778 1.778 0 1 0 0-3.555 1.778 1.778 0 0 0 0 3.555Z" fill="url('#paint1_linear_422_15522')"/><path d="M27.49 59.322a1.458 1.458 0 0 1-1.46-1.457v-2.17a.712.712 0 0 0-.711-.712h-2.166a.713.713 0 0 0-.713.712v2.17a1.458 1.458 0 0 1-2.915 0v-2.17a.712.712 0 0 0-.712-.712h-2.17a1.458 1.458 0 0 1 0-2.915h2.17a.711.711 0 0 0 .712-.712V38.339a.713.713 0 0 0-.712-.713h-2.17a1.46 1.46 0 0 1-1.497-1.457 1.459 1.459 0 0 1 1.498-1.457h2.17a.712.712 0 0 0 .711-.712v-2.17a1.457 1.457 0 1 1 2.915 0V34a.713.713 0 0 0 .712.712h2.17a.712.712 0 0 0 .709-.712v-2.17a1.457 1.457 0 1 1 2.914 0v2.57a.712.712 0 0 0 .473.67 5.738 5.738 0 0 1 3.094 8.28.712.712 0 0 0 .238.956 5.792 5.792 0 0 1-3.088 10.683.712.712 0 0 0-.711.712v2.17a1.459 1.459 0 0 1-1.46 1.45Zm-4.337-13.017a.713.713 0 0 0-.713.712v4.339a.713.713 0 0 0 .712.712h6.508c3.815 0 3.81-5.763 0-5.763h-6.508Zm0-8.679a.713.713 0 0 0-.713.713v4.338a.714.714 0 0 0 .712.713h4.339c3.814 0 3.81-5.764 0-5.764h-4.338Z" fill="url('#paint2_linear_422_15522')"/></g><defs><linearGradient id="paint0_linear_422_15522" x1="34" y1="0" x2="34" y2="68" gradientUnits="userSpaceOnUse"><stop stop-color="#77CCCB"/><stop offset="1" stop-color="#139DE5"/></linearGradient><linearGradient id="paint1_linear_422_15522" x1="53.526" y1="40.9" x2="53.526" y2="44.455" gradientUnits="userSpaceOnUse"><stop stop-color="#77CCCB"/><stop offset="1" stop-color="#139DE5"/></linearGradient><linearGradient id="paint2_linear_422_15522" x1="25.293" y1="30.333" x2="25.293" y2="59.322" gradientUnits="userSpaceOnUse"><stop stop-color="#77CCCB"/><stop offset="1" stop-color="#139DE5"/></linearGradient><clipPath id="clip0_422_15522"><path fill="#fff" d="M0 0h68v68H0z"/></clipPath></defs></svg>