<svg width="70" height="70" fill="none" xmlns="http://www.w3.org/2000/svg"><g clip-path="url('#clip0_422_20289')"><path fill-rule="evenodd" clip-rule="evenodd" d="M35 0c19.331 0 35 15.669 35 35S54.331 70 35 70 0 54.331 0 35 15.669 0 35 0Z" fill="#F0B90B"/><path d="m19.236 35 .025 9.255 7.864 4.627v5.419l-12.466-7.312V32.294L19.236 35Zm0-9.255v5.393l-4.58-2.709v-5.393l4.58-2.71 4.602 2.71-4.602 2.71Zm11.173-2.709 4.58-2.71 4.602 2.71-4.602 2.71-4.58-2.71Z" fill="#fff"/><path d="M22.545 42.337v-5.419l4.58 2.71v5.392l-4.58-2.684Zm7.864 8.486 4.58 2.709 4.602-2.71v5.394l-4.603 2.71-4.58-2.71v-5.393Zm15.75-27.787 4.58-2.71 4.602 2.71v5.393l-4.603 2.71v-5.394l-4.58-2.709Zm4.58 21.219L50.763 35l4.58-2.71v14.696l-12.467 7.312v-5.419l7.861-4.624Z" fill="#fff"/><path d="m47.455 42.337-4.58 2.683v-5.393l4.58-2.709v5.419Z" fill="#fff"/><path d="m47.454 27.663.026 5.419-7.887 4.627v9.277l-4.58 2.684-4.58-2.684V37.71l-7.885-4.627v-5.419l4.6-2.709 7.838 4.65 7.886-4.65 4.602 2.71h-.02Zm-24.91-9.252 12.444-7.336 12.466 7.337-4.58 2.709-7.886-4.65-7.863 4.65-4.58-2.71Z" fill="#fff"/></g><defs><clipPath id="clip0_422_20289"><path fill="#fff" d="M0 0h70v70H0z"/></clipPath></defs></svg>