<svg width="25" height="24" fill="none" xmlns="http://www.w3.org/2000/svg"><path fill-rule="evenodd" clip-rule="evenodd" d="M2.272.062C1.57.184.846.695.46 1.338c-.438.73-.495 1.337-.445 4.768.036 2.524.05 2.679.287 3.16.318.647.982 1.214 1.656 1.415.673.2 7.988.233 8.415.039a.887.887 0 0 0 .378-.378c.194-.427.16-7.743-.04-8.415-.2-.674-.766-1.338-1.414-1.657C8.806.028 8.704.02 5.754.003c-1.671-.01-3.238.017-3.482.06Zm13.143.013c-.953.168-1.758.905-2.05 1.876-.194.643-.222 7.975-.033 8.39a.887.887 0 0 0 .378.379c.427.194 7.742.16 8.415-.04.674-.2 1.338-.766 1.657-1.414.245-.498.25-.56.25-3.863 0-3.074-.018-3.389-.2-3.73-.365-.684-.676-1.015-1.254-1.335L22.006.02 18.97 0c-1.67-.01-3.27.023-3.554.074ZM8.744 1.782c.493.265.527.522.527 4.095V9.24H5.908c-3.573 0-3.83-.033-4.094-.527-.069-.127-.11-1.394-.11-3.34V2.234l.28-.281.282-.281h3.136c1.947 0 3.214.041 3.342.11Zm13.354.172.281.28v3.137c0 1.947-.041 3.214-.11 3.341-.264.494-.52.527-4.094.527h-3.363V5.877c0-3.546.034-3.814.507-4.09.114-.066 1.397-.11 3.342-.111l3.156-.003.281.28ZM1.914 13.346c-.635.196-1.303.78-1.613 1.409-.245.498-.25.56-.25 3.863 0 3.074.018 3.389.2 3.73.365.684.676 1.015 1.253 1.335l.573.317h3.357c3.303 0 3.365-.004 3.863-.25.648-.318 1.214-.982 1.415-1.656.2-.673.233-7.988.039-8.415a.887.887 0 0 0-.378-.378c-.41-.187-7.835-.147-8.46.045Zm11.765-.039c-.44.213-.465.462-.465 4.444 0 4.265.037 4.548.69 5.312.207.241.604.55.882.688.498.245.56.249 3.863.249h3.357l.572-.317c.578-.32.89-.651 1.254-1.335.182-.341.2-.656.2-3.73 0-3.303-.005-3.365-.25-3.863a3.326 3.326 0 0 0-.688-.882c-.767-.656-1.042-.691-5.344-.683-2.414.004-3.928.048-4.071.117ZM9.27 18.144c0 3.573-.034 3.83-.527 4.094-.128.069-1.395.11-3.342.11H2.266l-.281-.28-.281-.282V18.65c0-1.939.042-3.215.109-3.34.262-.491.486-.52 4.074-.524l3.384-.005v3.363Zm12.577-3.202c.172.089.361.253.421.366.069.128.11 1.394.11 3.342v3.136l-.28.281-.282.281h-3.136c-1.948 0-3.214-.041-3.342-.11-.494-.264-.527-.52-.527-4.094V14.78h3.363c2.79 0 3.415.028 3.673.161Z" fill="url('#paint0_linear_422_37489')"/><defs><linearGradient id="paint0_linear_422_37489" x1="12.015" y1="0" x2="12.015" y2="24" gradientUnits="userSpaceOnUse"><stop stop-color="#80D0C8"/><stop offset="1" stop-color="#0596E8"/></linearGradient></defs></svg>