<svg width="70" height="33" fill="none" xmlns="http://www.w3.org/2000/svg"><g clip-path="url('#clip0_422_1758')"><path d="M69.5 54.5v-22L53 16.5 43.5 25l-17-14.5-10 6.5L0 0l-1 54.5h70.5Z" fill="url('#paint0_linear_422_1758')"/><path d="m69.654 32.955.346-.372-17.446-16.187-9.22 8.025L26.15 10.406l-9.715 6.01L.365 0 0 .359 16.357 17.06l9.753-6.028 17.238 14.053 9.193-8.005 17.113 15.874Z" fill="#E20403"/><path d="M52.547 18.431a1.527 1.527 0 1 1 0-3.053 1.527 1.527 0 0 1 0 3.053ZM43.341 26.17a1.527 1.527 0 1 1 0-3.054 1.527 1.527 0 0 1 0 3.053ZM26.13 12.357a1.527 1.527 0 1 1 0-3.053 1.527 1.527 0 0 1 0 3.053ZM16.39 18a1.527 1.527 0 1 1 0-3.053 1.527 1.527 0 0 1 0 3.054Z" fill="#E20403"/></g><defs><linearGradient id="paint0_linear_422_1758" x1="35.5" y1="1.5" x2="35" y2="35" gradientUnits="userSpaceOnUse"><stop stop-color="#F45349"/><stop offset="1" stop-opacity="0"/></linearGradient><clipPath id="clip0_422_1758"><path fill="#fff" transform="matrix(-1 0 0 1 70 0)" d="M0 0h70v32.955H0z"/></clipPath></defs></svg>