<svg width="70" height="33" fill="none" xmlns="http://www.w3.org/2000/svg"><g clip-path="url('#clip0_422_1797')"><path d="M.5 54.5v-22l16.5-16 9.5 8.5 17-14.5 10 6.5L70 0l1 54.5H.5Z" fill="url('#paint0_linear_422_1797')"/><path d="M.346 32.955 0 32.583l17.446-16.187 9.22 8.025L43.85 10.406l9.715 6.01L69.635 0 70 .359 53.643 17.06l-9.754-6.028-17.237 14.053-9.193-8.005L.346 32.955Z" fill="#378352"/><path d="M17.453 18.431a1.527 1.527 0 1 0 0-3.053 1.527 1.527 0 0 0 0 3.053ZM26.659 26.17a1.527 1.527 0 1 0 0-3.054 1.527 1.527 0 0 0 0 3.053ZM43.87 12.357a1.527 1.527 0 1 0 0-3.053 1.527 1.527 0 0 0 0 3.053ZM53.61 18a1.527 1.527 0 1 0 0-3.053 1.527 1.527 0 0 0 0 3.054Z" fill="#378352"/></g><defs><linearGradient id="paint0_linear_422_1797" x1="34.5" y1="1.5" x2="35" y2="35" gradientUnits="userSpaceOnUse"><stop stop-color="#378352"/><stop offset="1" stop-opacity="0"/></linearGradient><clipPath id="clip0_422_1797"><path fill="#fff" d="M0 0h70v32.955H0z"/></clipPath></defs></svg>