<svg width="30" height="30" fill="none" xmlns="http://www.w3.org/2000/svg"><g clip-path="url('#clip0_422_9245')"><path d="M29.941 15c0 2.96-.878 5.84-2.541 8.327a1.17 1.17 0 0 1-1.626.323 1.172 1.172 0 0 1-.323-1.626A12.603 12.603 0 0 0 27.2 11.835a1.172 1.172 0 0 1 2.27-.584c.313 1.218.472 2.48.472 3.749Zm-8.453 10.834a12.633 12.633 0 0 1-6.547 1.822C7.963 27.656 2.285 21.98 2.285 15c0-6.979 5.678-12.656 12.656-12.656 2.584 0 5.069.773 7.186 2.236a1.172 1.172 0 0 0 1.332-1.929A14.916 14.916 0 0 0 14.941 0C10.935 0 7.168 1.56 4.335 4.393A14.902 14.902 0 0 0-.06 15c0 4.007 1.56 7.773 4.394 10.607A14.902 14.902 0 0 0 14.94 30c2.743 0 5.427-.747 7.762-2.162a1.172 1.172 0 1 0-1.215-2.004Zm-6.433-7.436a.668.668 0 0 1-.494-.187l-6.137-5.82a1.172 1.172 0 1 0-1.613 1.701l6.136 5.819a2.992 2.992 0 0 0 2.202.829 2.995 2.995 0 0 0 2.168-1.05L29.683 4.307a1.172 1.172 0 1 0-1.827-1.468L15.514 18.19a.67.67 0 0 1-.46.208Z" fill="#fff"/></g><defs><clipPath id="clip0_422_9245"><path fill="#fff" d="M0 0h30v30H0z"/></clipPath></defs></svg>