<svg width="14" height="14" fill="none" xmlns="http://www.w3.org/2000/svg"><g clip-path="url('#clip0_422_10732')"><path d="M7 14A7 7 0 1 0 7 0a7 7 0 0 0 0 14Z" fill="#32BA7C"/><path d="m5.21 10.158 3.6 3.6A6.995 6.995 0 0 0 14 7v-.199l-2.827-2.605-5.962 5.962Z" fill="#0AA06E"/><path d="M7.176 8.568c.31.309.31.839 0 1.148l-.64.64c-.309.31-.839.31-1.148 0L2.583 7.53a.827.827 0 0 1 0-1.148l.64-.64c.31-.31.84-.31 1.15 0l2.803 2.826Z" fill="#fff"/><path d="M9.628 3.688c.31-.31.84-.31 1.148 0l.64.64c.31.31.31.84 0 1.148L6.56 10.312c-.31.31-.84.31-1.149 0l-.64-.64a.827.827 0 0 1 0-1.148l4.858-4.836Z" fill="#fff"/></g><defs><clipPath id="clip0_422_10732"><path fill="#fff" d="M0 0h14v14H0z"/></clipPath></defs></svg>