<svg width="68" height="68" fill="none" xmlns="http://www.w3.org/2000/svg"><g clip-path="url('#clip0_422_24998')"><path d="m16.564 16.565 2.817 2.817" stroke="url('#paint0_linear_422_24998')" stroke-width="2.656" stroke-miterlimit="10" stroke-linecap="round" stroke-linejoin="round"/><path d="M9.297 34h3.984" stroke="url('#paint1_linear_422_24998')" stroke-width="2.656" stroke-miterlimit="10" stroke-linecap="round" stroke-linejoin="round"/><path d="M54.719 34h3.984" stroke="url('#paint2_linear_422_24998')" stroke-width="2.656" stroke-miterlimit="10" stroke-linecap="round" stroke-linejoin="round"/><path d="m16.564 51.435 2.817-2.816" stroke="url('#paint3_linear_422_24998')" stroke-width="2.656" stroke-miterlimit="10" stroke-linecap="round" stroke-linejoin="round"/><path d="m48.619 19.382 2.817-2.817" stroke="url('#paint4_linear_422_24998')" stroke-width="2.656" stroke-miterlimit="10" stroke-linecap="round" stroke-linejoin="round"/><path d="M42.448 42.448 34 34V22.047" stroke="url('#paint5_linear_422_24998')" stroke-width="2.656" stroke-miterlimit="10" stroke-linecap="round" stroke-linejoin="round"/><path d="M34 9.297v3.984" stroke="url('#paint6_linear_422_24998')" stroke-width="2.656" stroke-miterlimit="10" stroke-linecap="round" stroke-linejoin="round"/><path d="M34 54.719v3.984" stroke="url('#paint7_linear_422_24998')" stroke-width="2.656" stroke-miterlimit="10" stroke-linecap="round" stroke-linejoin="round"/><path d="m48.619 48.619 2.817 2.816" stroke="url('#paint8_linear_422_24998')" stroke-width="2.656" stroke-miterlimit="10" stroke-linecap="round" stroke-linejoin="round"/><path d="M34 58.703C20.379 58.703 9.297 47.621 9.297 34 9.297 20.379 20.379 9.297 34 9.297c13.621 0 24.703 11.082 24.703 24.703 0 13.621-11.082 24.703-24.703 24.703Z" stroke="url('#paint9_linear_422_24998')" stroke-width="2.656" stroke-miterlimit="10" stroke-linecap="round" stroke-linejoin="round"/><path d="M58.438 57.11a1.328 1.328 0 1 1-2.657 0 1.328 1.328 0 0 1 2.657 0Z" fill="url('#paint10_linear_422_24998')"/><path d="M52.517 60.93A32.537 32.537 0 0 1 34 66.672C15.943 66.672 1.328 52.06 1.328 34 1.328 15.943 15.94 1.328 34 1.328 52.057 1.328 66.672 15.94 66.672 34c0 6.877-2.12 13.255-5.742 18.517" stroke="url('#paint11_linear_422_24998')" stroke-width="2.656" stroke-miterlimit="10" stroke-linecap="round" stroke-linejoin="round"/></g><defs><linearGradient id="paint0_linear_422_24998" x1="17.973" y1="19.382" x2="17.973" y2="16.565" gradientUnits="userSpaceOnUse"><stop stop-color="#0C9AE7"/><stop offset="1" stop-color="#75C9CA"/></linearGradient><linearGradient id="paint1_linear_422_24998" x1="11.289" y1="34" x2="11.289" y2="33" gradientUnits="userSpaceOnUse"><stop stop-color="#0C9AE7"/><stop offset="1" stop-color="#75C9CA"/></linearGradient><linearGradient id="paint2_linear_422_24998" x1="56.711" y1="34" x2="56.711" y2="33" gradientUnits="userSpaceOnUse"><stop stop-color="#0C9AE7"/><stop offset="1" stop-color="#75C9CA"/></linearGradient><linearGradient id="paint3_linear_422_24998" x1="17.973" y1="51.435" x2="17.973" y2="48.619" gradientUnits="userSpaceOnUse"><stop stop-color="#0C9AE7"/><stop offset="1" stop-color="#75C9CA"/></linearGradient><linearGradient id="paint4_linear_422_24998" x1="50.027" y1="19.382" x2="50.027" y2="16.565" gradientUnits="userSpaceOnUse"><stop stop-color="#0C9AE7"/><stop offset="1" stop-color="#75C9CA"/></linearGradient><linearGradient id="paint5_linear_422_24998" x1="38.224" y1="42.448" x2="38.224" y2="22.047" gradientUnits="userSpaceOnUse"><stop stop-color="#0C9AE7"/><stop offset="1" stop-color="#75C9CA"/></linearGradient><linearGradient id="paint6_linear_422_24998" x1="34.5" y1="13.281" x2="34.5" y2="9.297" gradientUnits="userSpaceOnUse"><stop stop-color="#0C9AE7"/><stop offset="1" stop-color="#75C9CA"/></linearGradient><linearGradient id="paint7_linear_422_24998" x1="34.5" y1="58.703" x2="34.5" y2="54.719" gradientUnits="userSpaceOnUse"><stop stop-color="#0C9AE7"/><stop offset="1" stop-color="#75C9CA"/></linearGradient><linearGradient id="paint8_linear_422_24998" x1="50.027" y1="51.435" x2="50.027" y2="48.619" gradientUnits="userSpaceOnUse"><stop stop-color="#0C9AE7"/><stop offset="1" stop-color="#75C9CA"/></linearGradient><linearGradient id="paint9_linear_422_24998" x1="34" y1="58.703" x2="34" y2="9.297" gradientUnits="userSpaceOnUse"><stop stop-color="#0C9AE7"/><stop offset="1" stop-color="#75C9CA"/></linearGradient><linearGradient id="paint10_linear_422_24998" x1="57.109" y1="58.438" x2="57.109" y2="55.781" gradientUnits="userSpaceOnUse"><stop stop-color="#0C9AE7"/><stop offset="1" stop-color="#75C9CA"/></linearGradient><linearGradient id="paint11_linear_422_24998" x1="34" y1="66.672" x2="34" y2="1.328" gradientUnits="userSpaceOnUse"><stop stop-color="#0C9AE7"/><stop offset="1" stop-color="#75C9CA"/></linearGradient><clipPath id="clip0_422_24998"><path fill="#fff" d="M0 0h68v68H0z"/></clipPath></defs></svg>