<svg width="68" height="68" fill="none" xmlns="http://www.w3.org/2000/svg"><g clip-path="url('#a')"><path stroke="url('#b')" stroke-linecap="round" stroke-linejoin="round" stroke-miterlimit="10" stroke-width="2.656" d="m16.564 16.565 2.817 2.817"/><path stroke="url('#c')" stroke-linecap="round" stroke-linejoin="round" stroke-miterlimit="10" stroke-width="2.656" d="M9.297 34h3.984"/><path stroke="url('#d')" stroke-linecap="round" stroke-linejoin="round" stroke-miterlimit="10" stroke-width="2.656" d="M54.719 34h3.984"/><path stroke="url('#e')" stroke-linecap="round" stroke-linejoin="round" stroke-miterlimit="10" stroke-width="2.656" d="m16.564 51.435 2.817-2.816"/><path stroke="url('#f')" stroke-linecap="round" stroke-linejoin="round" stroke-miterlimit="10" stroke-width="2.656" d="m48.619 19.382 2.817-2.817"/><path stroke="url('#g')" stroke-linecap="round" stroke-linejoin="round" stroke-miterlimit="10" stroke-width="2.656" d="M42.448 42.448 34 34V22.047"/><path stroke="url('#h')" stroke-linecap="round" stroke-linejoin="round" stroke-miterlimit="10" stroke-width="2.656" d="M34 9.297v3.984"/><path stroke="url('#i')" stroke-linecap="round" stroke-linejoin="round" stroke-miterlimit="10" stroke-width="2.656" d="M34 54.719v3.984"/><path stroke="url('#j')" stroke-linecap="round" stroke-linejoin="round" stroke-miterlimit="10" stroke-width="2.656" d="m48.619 48.619 2.817 2.816"/><path stroke="url('#k')" stroke-linecap="round" stroke-linejoin="round" stroke-miterlimit="10" stroke-width="2.656" d="M34 58.703C20.379 58.703 9.297 47.621 9.297 34 9.297 20.379 20.379 9.297 34 9.297c13.621 0 24.703 11.082 24.703 24.703 0 13.621-11.082 24.703-24.703 24.703Z"/><path fill="url('#l')" d="M58.438 57.11a1.328 1.328 0 1 1-2.657 0 1.328 1.328 0 0 1 2.657 0Z"/><path stroke="url('#m')" stroke-linecap="round" stroke-linejoin="round" stroke-miterlimit="10" stroke-width="2.656" d="M52.517 60.93A32.537 32.537 0 0 1 34 66.672C15.943 66.672 1.328 52.06 1.328 34 1.328 15.943 15.94 1.328 34 1.328 52.057 1.328 66.672 15.94 66.672 34c0 6.877-2.12 13.255-5.742 18.517"/></g><defs><linearGradient id="prefix__b" x1="17.973" x2="17.973" y1="19.382" y2="16.565" gradientUnits="userSpaceOnUse"><stop stop-color="#0C9AE7"/><stop offset="1" stop-color="#75C9CA"/></linearGradient><linearGradient id="prefix__c" x1="11.289" x2="11.289" y1="34" y2="33" gradientUnits="userSpaceOnUse"><stop stop-color="#0C9AE7"/><stop offset="1" stop-color="#75C9CA"/></linearGradient><linearGradient id="prefix__d" x1="56.711" x2="56.711" y1="34" y2="33" gradientUnits="userSpaceOnUse"><stop stop-color="#0C9AE7"/><stop offset="1" stop-color="#75C9CA"/></linearGradient><linearGradient id="prefix__e" x1="17.973" x2="17.973" y1="51.435" y2="48.619" gradientUnits="userSpaceOnUse"><stop stop-color="#0C9AE7"/><stop offset="1" stop-color="#75C9CA"/></linearGradient><linearGradient id="prefix__f" x1="50.027" x2="50.027" y1="19.382" y2="16.565" gradientUnits="userSpaceOnUse"><stop stop-color="#0C9AE7"/><stop offset="1" stop-color="#75C9CA"/></linearGradient><linearGradient id="prefix__g" x1="38.224" x2="38.224" y1="42.448" y2="22.047" gradientUnits="userSpaceOnUse"><stop stop-color="#0C9AE7"/><stop offset="1" stop-color="#75C9CA"/></linearGradient><linearGradient id="prefix__h" x1="34.5" x2="34.5" y1="13.281" y2="9.297" gradientUnits="userSpaceOnUse"><stop stop-color="#0C9AE7"/><stop offset="1" stop-color="#75C9CA"/></linearGradient><linearGradient id="prefix__i" x1="34.5" x2="34.5" y1="58.703" y2="54.719" gradientUnits="userSpaceOnUse"><stop stop-color="#0C9AE7"/><stop offset="1" stop-color="#75C9CA"/></linearGradient><linearGradient id="prefix__j" x1="50.027" x2="50.027" y1="51.435" y2="48.619" gradientUnits="userSpaceOnUse"><stop stop-color="#0C9AE7"/><stop offset="1" stop-color="#75C9CA"/></linearGradient><linearGradient id="prefix__k" x1="34" x2="34" y1="58.703" y2="9.297" gradientUnits="userSpaceOnUse"><stop stop-color="#0C9AE7"/><stop offset="1" stop-color="#75C9CA"/></linearGradient><linearGradient id="prefix__l" x1="57.109" x2="57.109" y1="58.438" y2="55.781" gradientUnits="userSpaceOnUse"><stop stop-color="#0C9AE7"/><stop offset="1" stop-color="#75C9CA"/></linearGradient><linearGradient id="prefix__m" x1="34" x2="34" y1="66.672" y2="1.328" gradientUnits="userSpaceOnUse"><stop stop-color="#0C9AE7"/><stop offset="1" stop-color="#75C9CA"/></linearGradient><clipPath id="prefix__a"><path fill="#fff" d="M0 0h68v68H0z"/></clipPath></defs></svg>