<svg width="67" height="61" fill="none" xmlns="http://www.w3.org/2000/svg"><path fill="url('#a')" d="M47.247 40.304h7.976C61.717 40.304 67 35.021 67 28.527c0-5.903-4.366-10.806-10.038-11.65C56.097 7.944 48.546.937 39.389.937a17.598 17.598 0 0 0-14.446 7.499c-6.57-4.098-15.15.67-15.062 8.467C4.285 17.812 0 22.678 0 28.527c0 6.494 5.283 11.777 11.777 11.777h7.976v5.076l-3.428 3.428a5.857 5.857 0 0 0-2.447-.535 5.902 5.902 0 0 0-5.896 5.896 5.902 5.902 0 0 0 5.896 5.895 5.902 5.902 0 0 0 5.895-5.895c0-.947-.226-1.84-.623-2.634l3.954-3.954c.368-.369.575-.868.575-1.388v-5.889h7.858v8.307a5.904 5.904 0 0 0-3.932 5.558 5.902 5.902 0 0 0 5.895 5.895 5.902 5.902 0 0 0 5.895-5.895 5.904 5.904 0 0 0-3.932-5.558v-8.307h7.858v5.889c0 .52.207 1.02.575 1.388l3.954 3.954a5.858 5.858 0 0 0-.623 2.634 5.902 5.902 0 0 0 5.895 5.895 5.902 5.902 0 0 0 5.896-5.895 5.902 5.902 0 0 0-5.896-5.896c-.873 0-1.701.193-2.447.535l-3.428-3.428v-5.076Zm-33.37 15.834a1.972 1.972 0 0 1-1.969-1.97c0-1.085.884-1.969 1.97-1.969 1.086 0 1.97.884 1.97 1.97 0 1.086-.884 1.97-1.97 1.97Zm19.623 0a1.972 1.972 0 0 1-1.97-1.97c0-1.085.884-1.969 1.97-1.969 1.086 0 1.97.884 1.97 1.97 0 1.086-.884 1.97-1.97 1.97ZM3.926 28.527c0-4.33 3.522-7.852 7.851-7.852h.305a1.964 1.964 0 0 0 1.903-2.442c-.945-3.758 1.911-7.372 5.742-7.372 1.642 0 3.17.659 4.302 1.855a1.964 1.964 0 0 0 3.168-.444 13.697 13.697 0 0 1 12.192-7.41c7.57 0 13.73 6.159 13.73 13.73l-.002.108a1.963 1.963 0 0 0 1.963 1.975h.143c4.329 0 7.851 3.522 7.851 7.852s-3.522 7.851-7.851 7.851H11.777c-4.329 0-7.851-3.522-7.851-7.851Zm51.166 25.642c0 1.086-.884 1.97-1.97 1.97a1.972 1.972 0 0 1-1.97-1.97c0-1.086.884-1.97 1.97-1.97 1.086 0 1.97.884 1.97 1.97Z"/><defs><linearGradient id="prefix__a" x1="33.5" x2="33.5" y1=".936" y2="60.064" gradientUnits="userSpaceOnUse"><stop stop-color="#77CAC9"/><stop offset="1" stop-color="#0D9AE7"/></linearGradient></defs></svg>