<svg width="30" height="30" fill="none" xmlns="http://www.w3.org/2000/svg"><path d="M3.574 18.516H1.816v-7.032h1.758c.971 0 1.758.787 1.758 1.758v3.516c0 .97-.787 1.758-1.758 1.758Z" stroke="#fff" stroke-width="1.758" stroke-miterlimit="10"/><path d="M12.363 11.484H8.848v7.032h3.515M10.605 15H8.848M15.879 18.516v-7.032h.879L18.516 15l1.757-3.516h.88v7.032" stroke="#fff" stroke-width="1.758" stroke-miterlimit="10" stroke-linecap="square"/><path d="M26.426 18.516c-.971 0-1.758-.787-1.758-1.758v-3.516a1.758 1.758 0 0 1 3.516 0v3.516c0 .97-.787 1.758-1.758 1.758ZM26.798 22.194a3.515 3.515 0 0 1-1.377 1.455l-8.663 5.001a3.516 3.516 0 0 1-3.516 0L4.58 23.65a3.514 3.514 0 0 1-1.377-1.455M3.202 7.806A3.514 3.514 0 0 1 4.579 6.35l8.663-5.001a3.516 3.516 0 0 1 3.516 0L25.42 6.35c.6.347 1.074.857 1.377 1.455" stroke="#fff" stroke-width="1.758" stroke-miterlimit="10"/><path d="M20.273 7.44 15 4.394 9.727 7.439" stroke="#fff" stroke-width="1.758" stroke-miterlimit="10"/></svg>