<svg width="16" height="16" fill="none" xmlns="http://www.w3.org/2000/svg"><g clip-path="url('#clip0_422_5824')"><path d="M8 16A8 8 0 1 0 8 0a8 8 0 0 0 0 16Z" fill="#988430"/><path d="M8 15.744A7.744 7.744 0 1 0 8 .256a7.744 7.744 0 0 0 0 15.488Z" fill="#7A6A2A"/><path d="M8 15.58A7.58 7.58 0 1 0 8 .42a7.58 7.58 0 0 0 0 15.16Z" fill="#BA9F33"/><path fill-rule="evenodd" clip-rule="evenodd" d="M3.498 7.146c-.046-.042-.093-.083-.137-.125l-.135-.124-.135-.128-.067-.063-.07-.061-.535-.509c.183.167.362.333.544.502l.064.064.067.063.135.124c.045.042.089.083.134.128.045.046.09.087.135.128ZM1.126 7.12s.65.067.967.113c.294.041 1.213.182 1.213.182l-2.18-.295Zm0 0c.183.016.365.035.548.054l.272.029.137.015.134.02.544.086.272.046.272.048a6.426 6.426 0 0 1-.272-.035l-.272-.04-.544-.08c-.045-.006-.089-.015-.134-.021l-.137-.016-.272-.033a15.85 15.85 0 0 1-.548-.073Zm2.115.464s-.693.176-.928.244c-.23.063-.928.276-.928.276l1.856-.52Z" fill="#CFB66C"/><path fill-rule="evenodd" clip-rule="evenodd" d="M3.241 7.584c-.154.046-.307.09-.463.131l-.464.125-.46.134-.23.064c-.077.022-.155.041-.234.063.077-.026.154-.052.23-.074l.231-.073.46-.142c.158-.038.312-.08.468-.117.149-.038.306-.075.462-.11Zm-1.759.947c.077-.029.957-.439 1.161-.535.103-.048.4-.153.4-.153l-1.56.688Z" fill="#CFB66C"/><path fill-rule="evenodd" clip-rule="evenodd" d="M1.482 8.53c.068-.025.131-.056.196-.086l.191-.09.385-.184c.128-.061.252-.128.384-.186.068-.028.135-.051.202-.073l.102-.033c.035-.009.068-.02.103-.028-.128.06-.263.112-.391.172-.128.063-.259.115-.391.172l-.39.172c-.132.053-.26.11-.39.165Zm.086.36s.797-.468 1.071-.618c.144-.08.609-.311.609-.311l-1.68.928Z" fill="#CFB66C"/><path fill-rule="evenodd" clip-rule="evenodd" d="m1.568 8.89.409-.253.204-.125.209-.121c.07-.042.137-.083.208-.122.034-.02.07-.039.107-.054l.108-.055c.144-.07.288-.14.44-.202-.138.087-.28.161-.42.237-.07.04-.141.074-.211.113-.07.039-.138.08-.209.118-.07.041-.137.08-.208.118l-.211.115-.426.23Zm1.673-.827-.656.503c-.16.121-.633.463-.633.463l1.29-.966Z" fill="#CFB66C"/><path fill-rule="evenodd" clip-rule="evenodd" d="m6.087 11.133-.254-.48.148-.601 1.052-.407-.448-.919.221-.928.416-.83 1.284-.203.944-.9 2.037.155.4 2.178-.77 2.743-.439 1.42-1.778.068-.826-.572-.967-.404-1.02-.32Z" fill="#E2CC85"/><path fill-rule="evenodd" clip-rule="evenodd" d="M9.207 11.117s-.247.113-.666.087c-.122-.163-.972-.24-.972-.24s-.106-.032-.294.046c-.189.076-.367.067-.534.108-.167.042-.333-.176-.461-.221-.128-.048-.298-.163-.298-.163l-.358-.035-.72-.304-1.143-1.14-.311.487-.096.602.346.713.93.848 1.815.46 1.076-.316 1.348-.57.338-.362Z" fill="#F1D789"/><path fill-rule="evenodd" clip-rule="evenodd" d="m2.759 7.091.23-.697.275-.451.884-.074-.266.774-.739 1.316.307 1.174-.544.271-.167-.256-.134-.588-.01-.66.164-.809Z" fill="#F4ECB4"/><path fill-rule="evenodd" clip-rule="evenodd" d="m3.75 11.07-.17-.238s-.045-.112-.019-.21c.026-.1.022-.107.01-.145-.014-.037-.122-.166-.116-.278.006-.112-.009-.15.074-.24.086-.086.06-.236.06-.236l.113.07.026-.04s.041.033.041.084c.01-.07-.028-.394.057-.467.086-.074.237.345.237.345l-.093-.608-.24-.624-.426-.57-.025-.628v-.054s-.196.3-.25.538c-.039.163.054.36.035.595-.016.233-.035.215.022.307.057.093.195.282.141.42-.048.117-.211.035-.211.035s-.032.095-.076.13a.29.29 0 0 0-.064-.128.704.704 0 0 1-.009.052s-.028-.09-.057-.202c-.039-.15-.08-.348-.118-.454-.015.06-.054.246-.054.246l.022.285.106.39.103.257.1.313.086.21.07.16.06.362.294.31.157.07.114-.058Z" fill="#F3E19D"/><path fill-rule="evenodd" clip-rule="evenodd" d="M2.913 6.522s-.211.358-.272.72a4.76 4.76 0 0 0-.077 1.234c.039.496.113.8.172 1.018.103.361.368.863.368.863l.009-.02a1.366 1.366 0 0 1-.106-.264c-.035-.138-.048-.3-.08-.375-.03-.073-.077-.137-.1-.227-.022-.087-.026-.224-.093-.327a.661.661 0 0 1-.074-.258c-.013-.164.006-.346-.01-.496-.028-.25-.047-.42-.021-.55.026-.131.16-.503.243-.798.055-.189.022-.348.122-.513.1-.163.16-.306.182-.406.026-.09-.264.399-.264.399Z" fill="#F2E8B0"/><path fill-rule="evenodd" clip-rule="evenodd" d="M3.913 6.378s-.108.032-.16.09c-.052.054-.074.099-.144.19-.07.093-.074.168-.13.283-.058.113-.183.282-.199.343-.015.06-.041.346-.073.48-.029.135.032.3.032.3l.074-.015s0 .096.073.16c.074.064.087-.214.087-.214l.276-.931.415-.282.046-.228-.297-.176Z" fill="#F5EEC0"/><path fill-rule="evenodd" clip-rule="evenodd" d="M4.115 6.8s-.195.013-.291.083c-.039.028-.054.052-.096.087-.076.063-.154.121-.191.204a1.358 1.358 0 0 0-.118.446c-.013.1-.013.191-.022.272-.013.108-.033.195-.022.256.013.124.14.189.153.33l.266-.135.25-.985.53-.333-.3-.337-.16.111.001.001Z" fill="#E6DB9D"/><path fill-rule="evenodd" clip-rule="evenodd" d="m2.715 13.434.003-.03c.04-.332.046-.585.074-.743.042-.223.07-.307.064-.39-.01-.135-.02-.234-.007-.337.02-.137.154-.3.15-.413-.002-.09-.048-.148-.086-.202-.04-.054-.07-.1-.07-.1s.265-.182.263-.917l.015.006.13.372.09.108.343.64.442.428.652.439.41.445.04 1.187-.534.694-.088.159a7.606 7.606 0 0 1-1.891-1.346Z" fill="#E5CB7A"/><path fill-rule="evenodd" clip-rule="evenodd" d="M4.348 14.57s.01-.148.131-.244c.02.033.032.064.029.087a.772.772 0 0 1 .524-.352c.348-.063.432-.317.432-.317l.74-.672.845-.778 1.027-.361.48-.118s.01.035-.008.113c.089-.007.287-.052.493-.125.083-.032.16-.045.202-.002.06.057.07.191.074.271.1-.021.214-.117.307-.108.147.015.278.189.428.189.198 0 .288-.122.426-.218.083-.057.202-.128.27-.176.16-.118 1.858-.637 1.858-.637l.596.04.096.639-.052 1.671-.019.019-2.707 1.414-3.753.575a7.527 7.527 0 0 1-2.4-.825l-.018-.085Z" fill="#D8C173"/><path fill-rule="evenodd" clip-rule="evenodd" d="M2.943 13.647c.053-.112.101-.205.11-.239.006.068.018.215.043.372a8.15 8.15 0 0 1-.153-.133Z" fill="#F1D789"/><path fill-rule="evenodd" clip-rule="evenodd" d="m5.684 15.22.486-.135.041.013s.022.013.022.057c.06-.035.113-.029.15-.052.02.041.039.179.124.196.09.019.186-.04.283-.113.095-.076.204-.172.287-.211.03.056.057.113.08.172.109-.087.298-.439.567-.432.078-.184.208-.341.374-.452.25-.17.407-.183.602-.167.078-.101.173-.187.282-.253.033.013.122.068.233.016.113-.052.24-.252.407-.278a.393.393 0 0 1 .259.054s.486-.483.822-.643c-.013-.04-.04-.186.354-.51.022.02.007.075.022.078a.914.914 0 0 0 .224-.135c.15-.113.33-.23.44-.263.204-.06.421.064.421.064a.194.194 0 0 1 .061-.029c.052-.009.09-.015.118-.025-.003.067.035.182 0 .282a.63.63 0 0 0 .128.054c-.022.048-.07.17-.15.228.067.032.076.07.172.102a1.892 1.892 0 0 0-.131.205c-.028.061-.13.313-.176.41-.048.095-.113.271-.144.306-.031.036-.143.185-.23.26.077-.03.39-.125.524-.161l-.434.643a7.595 7.595 0 0 1-6.218.72v-.001Z" fill="#E0CD81"/><path fill-rule="evenodd" clip-rule="evenodd" d="M4.147 6.765s-.112 0-.134.016c-.022.015.112.048.154.063.041.016.13.087.154.144.022.054.809.371.809.371l.556-.028.192-.265-.365-.32.256-.755-.339.055-.815.486-.41.157-.058.076Z" fill="#DFC57C"/><path fill-rule="evenodd" clip-rule="evenodd" d="M5.37 7.015a.087.087 0 0 0 .076.041c.116 0 .222.029.266.087.074.093.278.391.278.391l.49.176.031-.576-.535-.372-.608.224v.029h.001Z" fill="#E5CC7C"/><path fill-rule="evenodd" clip-rule="evenodd" d="M5.274 7.229s.089.006.201-.035c.113-.042.298-.131.379-.096.112.048.089.198.21.333.074.082.209.08.285.17.077.089.34.047.34.047l.1.538-.4.512-.132.637h-.54l-.495-.196-.243-.589.122-.595.173-.726Z" fill="#D2C281"/><path fill-rule="evenodd" clip-rule="evenodd" d="M6.32 7.254a.146.146 0 0 0 .041.007c-.015.013-.048.041-.035.115.013.074.055.167.02.224a.28.28 0 0 1 .06.106c.022.064.029.122.173.13a.303.303 0 0 0-.057.046s.1.087.15.167c.052-.002.189-.045.189-.045l.028.02.061-.026s-.057-.022-.015-.16c.038-.122.073-.116.076-.125.003-.009.029-.137.029-.189.02-.067.035-.271.035-.271L7.033 6.8 6.8 6.66l-.189-.183-.179.336-.117.118-.01.29.015.033Z" fill="#E2C270"/><path fill-rule="evenodd" clip-rule="evenodd" d="M6.88 6.876s.042.118.057.209a.2.2 0 0 0 .01-.055s.032.18.038.253c.013-.003.026-.007.029.006.002.013.032.157.025.237a.646.646 0 0 1 .218-.217.38.38 0 0 1 .176-.07c.1-.003.172.063.29.063.288 0 .549-.21.74-.275.141-.048.263-.083.348-.161a.91.91 0 0 0 .183-.228c.09-.153.182-.287.276-.304a.579.579 0 0 1-.128.009s.028-.028.076-.067c.049-.04.107-.087.19-.087.147 0 .22.022.304.022.082-.003.13-.022.13-.022s.087.06.282.06c.196.003.327.02.429.03.102.008.445-.03.544-.026a.476.476 0 0 1 .185.045l-.317-.922-1.14-.995-.678.48-1.043 1.043-1.01.374-.211.237v.361H6.88Z" fill="#CCB360"/><path fill-rule="evenodd" clip-rule="evenodd" d="M9.146 6.348s.028-.028.076-.067c.048-.039.106-.087.189-.087.148 0 .221.022.304.022.083-.002.13-.022.13-.022s.088.061.283.061c.196.003.326.02.429.028.102.01.445-.028.543-.025a.474.474 0 0 1 .185.045l-.143-.415-.167-.318-.477-.521-.576-.34c-.002-.002-.198-.054-.198-.054l-.518.314-.47 1.215-.008.256.304.144c.076-.128.16-.23.24-.244-.072.008-.126.008-.126.008Z" fill="#D5B457"/><path fill-rule="evenodd" clip-rule="evenodd" d="M9.14 6.435c-.046.003-.084-.006-.094-.039-.039-.108-.07-.124-.102-.124-.033 0-.077.07-.103.076-.026.007-.057-.08-.057-.08l-.028-.013s-.167.109-.285.237c-.118.128-.31.346-.397.384-.087.04-.385.052-.487.074a.63.63 0 0 0-.23.113c-.016.017.045.035.054.052.01.015-.1.009-.109.025-.006.013.026.087.042.124a.211.211 0 0 1 .09-.022c.099-.002.171.064.29.064.288 0 .548-.211.74-.276.14-.048.262-.083.348-.16a.915.915 0 0 0 .182-.228c.05-.08.097-.153.145-.207Z" fill="#D2B257"/><path fill-rule="evenodd" clip-rule="evenodd" d="M5.018 12.842s-.026-.096-.263-.344c-.068-.07-.109-.127-.154-.169-.113-.106-.179-.135-.26-.196-.175-.13-.367-.13-.514-.29-.148-.161-.32-.468-.44-.781a5.233 5.233 0 0 1-.15-.422c0-.01.033-.07.074-.061.042.009.042.09.052.108.02.032.044.062.07.09.06.07.148.153.192.278a1.258 1.258 0 0 0-.046-.224s.228.144.422.294c.196.15.276.202.333.298.057.095.192.348.256.422.065.074.947.352.947.352l.42.313.209.457-.163.256-.314.067-.508-.228-.163-.22Z" fill="#D2B159"/><path fill-rule="evenodd" clip-rule="evenodd" d="M3.887 11.267s.107.17.365.33c.233.142.602.27.931.346.19.045.378.08.548.083.457.006.771-.124 1.161-.167.211-.022.47-.039.74-.102.345-.083.55-.177.828-.308.202-.093.387-.163.537-.252.21-.124.365-.263.544-.304-.022.06-.046.17-.222.282l.222-.009s-.125.074-.343.24c-.135.102-.314.275-.496.39-.118.074-.246.128-.33.173-.205.112-.288.17-.422.307a.187.187 0 0 1 .051 0s-.17.022-.29.086c-.026 0-.07-.009-.148.013-.061.02-.142.064-.224.087-.118.035-.157.02-.157.02l.02.038s-.154-.002-.205.003c.009.002.006.006.006.006a.078.078 0 0 0-.026.01.27.27 0 0 1-.08.034c-.015.003-.028.003-.048.007.007.015.057.102.08.153-.019.013-.31.233-.31.233.009.015.016.03.022.046.009.028.013.07.022.09.022.038.035.044.035.044l-.096.022c-.052.013-.115.035-.205.048a.82.82 0 0 1-.083.007c.013.028.07.137-.035.262-.105.126-.137.144-.17.225a.342.342 0 0 0-.051-.033c-.035-.015-.083-.039-.1-.07a.83.83 0 0 1-.038.122c-.033.087-.08.172-.09.237-.035-.04-.1-.115-.189-.1-.09.016-.16.137-.176.172 0-.022-.015-.039-.02-.013a.984.984 0 0 1-.325.567c-.003-.06-.003-.195-.01-.24-.025.026-.056.064-.243.144-.182.08-.153.161-.153.161s-.016-.128.082-.263c.1-.134.161-.198.161-.208a.058.058 0 0 0-.013-.029c-.013-.013-.039-.028-.039-.039.016-.006.17-.08.16-.232a.413.413 0 0 0-.108-.26c-.006-.006.06-.054.052-.07-.007-.008-.09-.07-.1-.102a.297.297 0 0 1 .013-.057c.01-.028.016-.047.013-.067a.538.538 0 0 0-.052-.13c.01.002.074 0 .074 0s-.052-.083-.06-.122c-.01-.04-.03-.141-.04-.16.022.002.077.006.077 0 .002-.02-.048-.053-.026-.078.016.003.045.016.074.052-.016-.041-.042-.121-.096-.154a.235.235 0 0 1 .189.013c.076.045.102.109.102.109l.116.087c.08.063.182.153.345.217.035.02.125.02.19.007a.294.294 0 0 0 .08-.033.155.155 0 0 1 .028-.013.629.629 0 0 0-.048-.08l.048.002s.016-.035-.054-.102c.015-.015.035-.026.035-.052-.022-.002-.061-.035-.07-.048.013-.009.032-.038.054-.048-.02-.015-.067-.08-.09-.086a.402.402 0 0 0 .062-.029s-.11-.028-.144-.051c-.035-.026-.087-.07-.118-.083-.032-.013-.09-.02-.113-.046.022.007.057 0 .083 0 .02 0 .029.003.035.003-.002-.01-.002-.029.048-.035a.235.235 0 0 0 .07-.022s-.048-.003-.102-.054c-.055-.052-.1-.094-.131-.1-.032-.007-.093.022-.13.02-.053-.007-.075-.033-.075-.033s-.172.016-.554-.217c-.33-.202-.473-.381-.473-.381a.565.565 0 0 1-.09-.041c-.124-.065-.296-.2-.29-.376l-.002.001Z" fill="#C2A44D"/><path fill-rule="evenodd" clip-rule="evenodd" d="M8.65 3.498c.03.01.056.027.077.051.06.07.1.202-.04.343.055.02.078.026.125.02-.048.057-.157.179-.163.285-.007.086.048.112.048.112s-.083.096-.087.256c.04-.044.082-.085.128-.121a3.4 3.4 0 0 1 .317-.218.182.182 0 0 0 .01.067s.166-.137.307-.076c.063.029.034.118.034.118s.087-.032.148.028c.06.061.147.218.191.279.02.029.07.083.122.167.07.118.13.242.176.372.002-.068.02-.173.21-.107.192.068.41.209.592.487.183.278.228.591.32.71.093.116.189.308.196.388.006.08-.029.34.163 1.04.054-.218.137-.7.137-.7l.045-.427.052-1.318-1.376-1.143-1.076-.78-.7.067.044.1Z" fill="#CAA13E"/><path fill-rule="evenodd" clip-rule="evenodd" d="M11.207 5.459s-.02-.128-.344-.346c-.323-.215-.576-.215-.809-.397-.178-.144-.365-.474-.486-.583-.118-.107-.137-.418-.137-.418l.397-.333.591-.854.5-.55.24.333.332.39.185.785.067 1.148-.537.825Z" fill="#B59544"/><path fill-rule="evenodd" clip-rule="evenodd" d="M11.607 6.835a1.46 1.46 0 0 0-.064-.515 9.512 9.512 0 0 0-.358-.913c-.035-.195-.01-.211.028-.233.038-.022.179-.102.256-.384.078-.282.317-.292.317-.292l.148-.108.224.56.195.506.061.387.046.33-.107.698-.524.474-.223-.51Z" fill="#C89D3A"/><path fill-rule="evenodd" clip-rule="evenodd" d="M4.291 14.613v-.015a.11.11 0 0 0 .029-.025c.009-.013.015-.029.022-.033a.243.243 0 0 1 .106-.02c.032.007.118.042.163.04.093-.003.202-.074.374-.042.26.048.32.224.47.324.103.07.208.039.224.039h.035c.006 0 .054-.055.08-.052.052.002.057.045.09.048.076.009.223-.039.297-.02a.143.143 0 0 1 .058.237c-.08.074-.156.144-.172.205.02.015.04.031.057.048a7.538 7.538 0 0 1-1.833-.734Z" fill="#CEB052"/><path fill-rule="evenodd" clip-rule="evenodd" d="M11.184 12.026s.202-.27.272-.403c.07-.137-.221-1.878-.221-1.878l.585-1.917-.015-.624s.028-.576.095-.826c.08.144.33.317.385.41.025-.177.112-.548.1-.944.047.073.163.815.163.815l.115.5.15.53.167.561.1.387.056.093.049.163.045.176.13.413.077.34.061.614a.949.949 0 0 1 .029.144c.002.067-.01.106-.01.118 0 .012.023.147.014.25-.013.102-.013.182-.094.256-.08.073-.13.512-.13.512l-.144-.095s.028-.131-.039-.25a.253.253 0 0 0-.272-.124c-.074.015-.221.038-.269.08-.045.041-.157.17-.259.228-.128.076-.336.082-.448.108-.112.026-.237.103-.367.192-.103.066-.211.123-.324.17v.001Z" fill="#CCA847"/><path fill-rule="evenodd" clip-rule="evenodd" d="m11.184 14.854.026.015a7.604 7.604 0 0 0 2.423-1.796c-.007-.262-.017-.53-.028-.63-.022-.211-.006-.426-.013-.55a8.004 8.004 0 0 0-.108-.762c-.035-.13-.103-.195-.113-.195a1.562 1.562 0 0 0-.064.307c0 .061-.012.208-.012.246-.01-.003-.013-.026-.013-.035-.013.032-.029.09-.035.096-.007.006.009-.055 0-.068-.01-.012-.026-.006-.022-.038a.364.364 0 0 1 .009-.057s-.04.057-.068.202c-.028.143-.028.147-.038.16-.01.016-.061.067-.064.087-.002.035.048.07.052.09.002.032-.045.182-.06.255-.016.074-.01.218-.026.292-.013.067-.026.106-.07.134a.851.851 0 0 1 .063.016s.045.191-.07.354c-.041.057-.052.083-.096.135-.086.096-.154.205-.16.276a.456.456 0 0 1-.01-.064s-.134.157-.19.246c-.075.115-.177.109-.206.137-.028.029-.035.08-.025.122-.026.006-.074.016-.106.115a.242.242 0 0 1-.116.137c-.06.035-.134.046-.172.055.033.009.046.009.061.02-.02.032-.109.082-.208.147-.1.06-.148.15-.172.208-.026.055-.064.09-.125.096.026.016.064.052.083.064-.028.006-.077.006-.163.08-.09.075-.122.097-.163.103Z" fill="#C39D3C"/><path fill-rule="evenodd" clip-rule="evenodd" d="M9.383 15.454a.733.733 0 0 1 .16-.084c.202-.08.416-.096.5-.122.08-.026.143-.06.243-.08l-.007.064a7.54 7.54 0 0 1-.896.222Z" fill="#D2BA6B"/><path fill-rule="evenodd" clip-rule="evenodd" d="M13.107 10.144s-.041.224-.115.365c-.074.141-.154.336-.154.336a.62.62 0 0 1 .016-.13c-.093.054-.32.185-.384.243-.06.054-.163.15-.19.195.062-.178.125-.339.136-.412a8.33 8.33 0 0 0-.755.662l-.706.571a2.451 2.451 0 0 1-.25.118c-.122.051-.266.095-.372.137a.588.588 0 0 1 .137-.208c.067-.064.27-.283.3-.385.029-.106.035-.169-.002-.258-.035.009-.116.013-.17.028-.054.016-.113.074-.113.074s.042-.237.131-.46c-.067.002-.182.021-.182.021s.16-.27.435-.457a1.411 1.411 0 0 0-.246.076c-.16.068-.337.167-.467.222.073-.103.591-.842.9-1.53.307-.688.421-.864.489-1.233.035-.182.025-.452.035-.694.009-.239.038-.454.019-.598.08.1.38.381.39 1.009.01.628-.286 1.476-.601 1.932.077.023.276.048.48-.307.205-.355.202-.454.276-.602.01.074.006.1.006.1s.298-.361.44-.816c.028.196.112.368-.02.727-.118.323-.272.402-.272.402s.076-.013.189-.08c.02.048.016.102.048.122.032.019.076.052.083.083.035-.052.09-.118.106-.167-.013.102-.022.55.026.778.1-.01.202-.016.271-.196a.802.802 0 0 0-.015.433.51.51 0 0 0 .1-.101h.001Z" fill="#C0993A"/><path fill-rule="evenodd" clip-rule="evenodd" d="M9.744 3.008s-.1.042-.27.042c-.147 0-.106-.057-.336-.057-.355 0-1.594.205-1.811.202-.141-.003.476.06.476.06l1.578.023.317-.026.118-.24-.072-.004Z" fill="#A88F33"/><path fill-rule="evenodd" clip-rule="evenodd" d="M5.652 6.093s-.202.154-.288.272c-.085.118-.13.195-.227.291a.199.199 0 0 0 .067-.009s0 .026-.016.033a.09.09 0 0 1 .074.025c-.028.016-.106.093-.045.185.045.07.14.077.14.077s-.021.063.07.057c.199-.01.42-.096.522-.074.103.025.161.035.233.16.077.125.144.144.144.144s.045-.115.035-.287a.855.855 0 0 0 .061-.292l-.067-.495-.294-.372-.38.211-.03.074Z" fill="#E3C571"/><path fill-rule="evenodd" clip-rule="evenodd" d="M6.013 6.02s.028.067.148.073c-.013.029-.013.033-.01.055l.007.054a.12.12 0 0 0 .035-.026c.006.029-.007.074 0 .107.004.02.01.038.02.056a.115.115 0 0 1 .006-.012c.002-.007.025.07.09.128-.001-.01.001-.018.006-.026a.09.09 0 0 0 .015.045.047.047 0 0 1-.013-.009s.007.205.042.31a.144.144 0 0 0 .015-.021c0-.006-.002.057-.009.102-.009.046-.003.109-.003.109a.34.34 0 0 1 .077-.045c.039-.016.102-.064.14-.17.023-.06.04-.122.053-.185.012.024.02.05.025.077.003.032.064.015.064.015l.013-.14.077-.32.07-.199.336-.524.608-.468.53.122.449-.609-.772-.463-.73.076-.663.918-.53.832-.096.137Z" fill="#D8B65B"/><path fill-rule="evenodd" clip-rule="evenodd" d="M9.837 4.691s-.045.01-.176.077c-.13.068-.221.09-.272.189a.49.49 0 0 0-.054.179s.089-.04.14-.052c.055-.013.116-.01.11.013a.15.15 0 0 1-.026.041s.102-.002.1.048a.267.267 0 0 1-.04.13c-.019.026-.099.064-.108.094-.022.061.01.064-.003.113-.009.048-.051.14-.191.304-.144.163-.205.278-.205.278s-.07-.13-.106-.243c-.026.013-.163.09-.163.09l-.319-1.11.007-.074s.028-.035.035-.1c-.048-.015-.055-.028-.118-.089-.064-.06-.115-.135-.221-.185-.016-.029-.035-.067-.113-.083a2.03 2.03 0 0 1-.124-.028s.041-.016.06-.048c-.047.006-.086.022-.191.02-.106-.004-.118-.007-.176.002-.058.009-.128.035-.154-.055-.029-.022-.09-.002-.141.074-.052.076-.07.137-.17.167a.347.347 0 0 1-.045.124c-.029.048-.074.096-.135.167-.096.113-.08.298-.233.44-.154.14.026-.392.026-.392l.246-.589.7-.684 1.088-.074.106.563.53.183.336.51Z" fill="#D3AE4D"/><path fill-rule="evenodd" clip-rule="evenodd" d="m10.01 4.816-.458-.66-.32-.245s-.227-.42-.243-.433a3.013 3.013 0 0 0-.365-.041l.026.063c.03.01.056.028.076.052.061.07.1.202-.038.343.054.02.076.026.124.02-.048.057-.157.178-.163.284-.007.087.048.113.048.113s-.083.096-.087.256c.039-.044.082-.085.128-.122a3.32 3.32 0 0 1 .317-.217.183.183 0 0 0 .01.067s.166-.137.306-.076c.064.028.035.118.035.118s.087-.033.148.028c.06.061.147.218.191.278.02.029.07.083.122.167.07.118.13.243.176.372.003-.052.013-.124.103-.124l-.136-.244Z" fill="#CAA13E"/><path fill-rule="evenodd" clip-rule="evenodd" d="M3.159 6.687s-.033-.08 0-.237c.032-.156.082-.23.1-.46.016-.23.166-.518.166-.518l.416-.189.294.08.086.394-.371.205s-.02.086-.124.156c-.105.07-.25.124-.285.196a.57.57 0 0 0-.046.137s-.106-.022-.17.048c-.066.071-.064.134-.066.189Z" fill="#F4EFC8"/><path fill-rule="evenodd" clip-rule="evenodd" d="M3.997 6.582s-.035.022-.06.077c-.026-.041-.087-.287-.09-.509-.002-.22-.016-.276.036-.352.05-.076.252-.157.223-.294-.028-.13-.147-.185-.294-.148-.102.026-.178.244-.284.352-.08.083-.177.07-.202.116-.035.06-.003.121-.013.16a.774.774 0 0 1-.094.167c-.117.17-.317.41-.343.624.01-.122.003-.124.035-.259l-.02-.032.129-.42.083-.345.185-.579.326-.591.317-.355.33.022.04.496.188.93.398.49-.637.428-.253.022Z" fill="#EBCC73"/><path fill-rule="evenodd" clip-rule="evenodd" d="M4.195 6.758s-.054.013-.073.003c-.02-.01-.04-.022-.033-.035.007-.013.042-.035.042-.045a.036.036 0 0 0-.033-.04c-.03-.003-.038.016-.038.016s-.029-.021-.052-.025a.358.358 0 0 1 .041-.003.404.404 0 0 0-.112-.032c.032-.02.095-.077.137-.077.041 0 .067-.006.06-.028-.006-.022-.038-.054-.073-.067.013-.016.022-.04-.01-.103s-.019-.106-.008-.121c.009-.02.041-.055.057-.077.015-.022.028-.051.054-.067a.682.682 0 0 1 .096-.041C4.295 6 4.333 5.98 4.359 6c.028.02.015.045.015.045s.09-.032.17.01c.08.038.276.063.276.063l.07.141-.464.397-.191.096-.04.007Z" fill="#E5C66B"/><path fill-rule="evenodd" clip-rule="evenodd" d="M4.839 6.109s-.144.096-.176.13c.02.003.051.016.039.035-.016.02-.11.087-.161.15a.99.99 0 0 0-.124.183.656.656 0 0 1-.218.15c.107 0 .32-.13.4-.13-.002.038.022.082.068.086.045.004.176.029.352-.08.176-.106.118-.185.191-.237.141-.093.198-.176.276-.228.078-.051.118-.063.118-.063s.002-.039.025-.035a.035.035 0 0 1 .029.022s.135-.096.307-.122a.018.018 0 0 1-.009-.009s.013-.006.016-.013c0 0 .009-.013.015-.006.007.006.016.054.029.074.028-.013.083-.135.083-.135l.13-.374v-.342l-.102.02-.768.326-.466.483-.055.115Z" fill="#E6BD62"/><path fill-rule="evenodd" clip-rule="evenodd" d="M7.05 4.432a.434.434 0 0 0 .118-.048c-.016.042-.016.087-.083.186-.067.098-.07.112-.124.214-.054.107-.061.26-.113.327a.237.237 0 0 1 .074-.022s-.052.045-.074.093-.06.147-.156.208-.218.1-.349.244c-.13.14-.265.32-.332.384a.959.959 0 0 0 .095-.263c.013-.08-.002-.176.02-.282.022-.106.022-.183.128-.368.106-.185.287-.828.287-.828l.391-.125.118.28Z" fill="#B6933F"/><path fill-rule="evenodd" clip-rule="evenodd" d="M6.768 4.195s-.118.17-.15.32c-.033.15-.003.137-.023.211a.275.275 0 0 0 0 .137.487.487 0 0 1 .163-.16c.112-.067.202-.115.256-.172.055-.061.1-.16.218-.237-.048-.007-.115-.029-.128-.026.048-.054.191-.137.336-.237.144-.102.135-.143.368-.246-.076.013-.113-.006-.176 0 .026-.054.115-.08.205-.17.09-.088-.057-.22-.057-.22l-.683.412-.33.389Z" fill="#C49937"/><path fill-rule="evenodd" clip-rule="evenodd" d="m4.915 3.887.016-.124.195-.313.205-.55v-.752l-.016-.435.033-.285.024-.09.026-.036.167.087.23.313.023.605-.224.954-.64.698-.039-.072Z" fill="#DFC068"/><path fill-rule="evenodd" clip-rule="evenodd" d="M5.424 1.267s-.102.003-.124.429c-.022.426-.033.65-.048.86-.016.212-.052.34-.07.464-.018.125-.029.294-.087.398-.025.047-.08.198-.208.31a1.285 1.285 0 0 1-.391.218c-.057.013-.346.041-.464.106-.041.022-.112.048-.191.122a2.445 2.445 0 0 0-.515.697c-.23.455-.461 1.738-.461 1.738l.052-.087s.006-.115.121-.317c.113-.202.08-.429.237-.816.061-.147.137-.339.23-.502.148-.266.327-.493.507-.618.294-.202.617-.246.617-.246l.348-.23s.061-.118.142-.252c.112-.19.256-.4.287-.707.048-.454-.067-.752-.061-1.021.007-.27.01-.468.064-.516.054-.048.015-.03.015-.03Z" fill="#A88F33"/><path fill-rule="evenodd" clip-rule="evenodd" d="M5.424 3.3s.154-.378.224-.714c.013-.067.039-.134.045-.189.033-.317.042-.448 0-.621-.032-.128-.156-.243-.221-.333-.064-.093-.093-.128-.08-.147a.143.143 0 0 1 .112-.048.385.385 0 0 1 .276.128c.1.115.179.506.179.506l.083.516.21.65-.828.252Z" fill="#C99E3D"/><path fill-rule="evenodd" clip-rule="evenodd" d="M6.867 2.906s-.028.013-.08 0a.115.115 0 0 1-.052.109c-.054-.022-.563.022-.563.022s-.237-.042-.31-.355c-.052-.208.038-.496.008-.685-.045-.278-.108-.332-.115-.419-.006-.087-.013-.109-.013-.163-.028-.007-.045-.016-.074-.016-.006-.025.007-.048-.022-.093.016.007.122.02.246.137.103.096.103.131.118.15.02.02.176.154.244.288.067.134.198.56.227.63.01.029.029.057.077.122.075.093.185.247.31.273Z" fill="#B58634"/><path fill-rule="evenodd" clip-rule="evenodd" d="M6.029 1.6c.078.127.148.258.21.394.077.172.122.313.218.428-.052-.15-.144-.445-.198-.55-.06-.111-.185-.23-.23-.272Z" fill="#A88F33"/><path fill-rule="evenodd" clip-rule="evenodd" d="M5.148 3.728s-.13.032-.374.16c-.08.042-.156.077-.23.11a4.02 4.02 0 0 1-.56.21c.012.016.019.022.019.022s0 .064.035.1c-.02.02-.279.195-.202.784.051-.019.112-.045.121-.045.016.003.02.045.04.045.018 0 .082-.025.15-.112-.003.035-.042.387.166.624.04-.046.138-.196.138-.196l.002-.048s.01-.167.064-.32c.054-.152.16-.265.16-.265l.554-.79-.083-.279Z" fill="#E6C367"/><path fill-rule="evenodd" clip-rule="evenodd" d="M4.63 4.89a.306.306 0 0 1-.082.04.32.32 0 0 1 .054-.252c.09-.13.285-.3.34-.435.034-.087.019-.304.33-.582.31-.279.432-.374.432-.374l.502-.253.617.244-.307 1.202-.238.563-.947-.179-.7.026Z" fill="#DCBA5A"/><path fill-rule="evenodd" clip-rule="evenodd" d="m4.992 4.563.118-.147V4.31s.13-.035.272-.179c.14-.144.336-.42.508-.403.173.02.19.375.196.474.006.1.028.326.063.448.04.122-.42.583-.42.583l-.31.237-.427-.908Z" fill="#E9CE77"/><path fill-rule="evenodd" clip-rule="evenodd" d="M5.357 5.792s.095-.15.025-.183c.042-.093.118-.191.118-.191s.054-.135.23-.3c.176-.167.285-.277.314-.388a1.02 1.02 0 0 0 .028-.221.42.42 0 0 0 .061.041c.029.013.163.124.144.348-.02.224-.103.318-.103.318s-.08.08-.137.121c-.06.042-.083.09-.185.093a.122.122 0 0 1 .035-.019s-.106-.013-.163.039c-.057.052-.178.21-.24.259l-.127.083Z" fill="#CDAE50"/><path fill-rule="evenodd" clip-rule="evenodd" d="M9.66 3.274a1.559 1.559 0 0 0-.475-.093c-.272-.01-.67.006-1.06.009-.419.002-.8-.144-1.327-.17-.087-.052-.308-.278-.996.202.041-.003.5-.106.659.093.16.198.115.535.093.615-.041.179-.176.439-.23.621-.055.183-.042.279-.08.407-.04.128-.125.191-.074.339.067-.041.102-.041.214-.294.113-.252.09-.432.276-.646.183-.215.487-.509.602-.582.116-.074 1.033-.55 1.994-.096.231-.025.405-.405.405-.405Z" fill="#D2A83E"/><path fill-rule="evenodd" clip-rule="evenodd" d="M6.189 3.098a.119.119 0 0 0-.006-.029.208.208 0 0 0-.035-.052s-.228-.041-.343-.028c-.202.022-.385.272-.47.4-.086.128-.192.326-.307.428a.043.043 0 0 0-.007-.028s.007.009-.006.022c-.013.013-.013.02-.007.025l.02.02c.006 0 .185-.08.428-.307.26-.237.457-.359.56-.4a.789.789 0 0 1 .173-.051Z" fill="#C29637"/><path fill-rule="evenodd" clip-rule="evenodd" d="M10.608 2.124s-.041.052-.093.109c-.115.122-.265.259-.393.4-.122.135-.26.24-.413.416-.154.176-.333.371-.378.428a.422.422 0 0 0-.074.198 1.803 1.803 0 0 0-.048-.032c.011.02.024.04.039.057.032.045.083.102.109.137a.418.418 0 0 1 .067.147c.015.003.115.022.24-.182.124-.205.287-.429.287-.429l.259-.384.163-.326.205-.365.03-.174Z" fill="#AC8132"/><path fill-rule="evenodd" clip-rule="evenodd" d="M10.874 1.863s-.157.128-.218.205c-.06.076-.205.278-.205.278l.052-.007.263-.232.103-.183.005-.06v-.001Z" fill="#A88F33"/><path fill-rule="evenodd" clip-rule="evenodd" d="M10.826 12.15s-.003-.106.057-.17c.06-.063.215-.156.365-.506s.167-.428.167-.428-.27.23-.435.285c.038-.08.06-.138.08-.179-.022-.02-.115-.041-.124-.052.051-.052.08-.178.185-.263.134-.102.38-.278.572-.435.19-.157.566-.521.614-.628.029.042.035.068.035.068s-.189.246-.287.402c-.087.135-.08.211-.08.211l.178-.076s.052.191-.182.482c.102-.038.144-.015.202-.048-.096.061-.228.144-.352.372-.122.228-.288.493-.567.659a4.714 4.714 0 0 0-.429.305v.001Z" fill="#A67A2E"/><path fill-rule="evenodd" clip-rule="evenodd" d="M10.124 3.408s-.106.222-.121.394c-.003.041-.013.074-.013.122-.003.154.009.326-.026.406-.013-.032-.02-.054-.032-.067-.02.054-.055.224-.083.287a1.35 1.35 0 0 1-.039-.355c.003-.17.006-.202.006-.236-.006.051-.041.121-.054.163-.02-.035-.041-.08-.067-.118-.016.026-.035.063-.052.083a1.18 1.18 0 0 1-.013-.115c-.003-.068-.006-.154-.003-.173a.78.78 0 0 1 .176-.297c.138-.15.279-.44.32-.528l.218-.461h.134l-.195.445s-.118.243-.179.333c-.06.09-.189.345-.246.445.042-.054.077-.083.118-.135.04-.036.151-.192.151-.192Z" fill="#8C6228"/><path fill-rule="evenodd" clip-rule="evenodd" d="M10.876 1.846a.557.557 0 0 1-.102.185c-.08.096-.252.224-.336.326a.882.882 0 0 0-.161.694c.026-.07.074-.208.202-.365s.265-.337.333-.476c.067-.141.076-.253.076-.253l.026-.032-.016-.074-.022-.005Z" fill="#CBA94C"/><path fill-rule="evenodd" clip-rule="evenodd" d="M13.498 10.432s-.052-.14-.068-.269c-.015-.128.026-.154-.022-.3-.028-.09-.08-.077-.093-.09a.76.76 0 0 1-.02-.22.83.83 0 0 0-.015-.212c-.02-.015-.032-.028-.06-.124-.033-.096-.049-.144-.064-.172-.016-.029-.06-.055-.06-.083 0-.057.05-.087.05-.103-.002-.032-.04-.006-.05-.015-.014-.016.031-.109.015-.122-.007-.006-.052.048-.064.033-.013-.016-.028-.17-.052-.272-.021-.1-.045-.172-.047-.202-.003-.029-.18-.53-.222-.653a3.062 3.062 0 0 1-.087-.313c-.012-.06-.022-.185-.028-.172-.007.013-.003.076-.013.074-.01-.003-.041-.224-.052-.26-.009-.034-.063-.153-.076-.239-.014-.086-.042-.313-.061-.467-.02-.154-.029-.217-.029-.256a1.595 1.595 0 0 0-.015-.282 2.629 2.629 0 0 0-.122-.476c-.087-.218-.317-.775-.359-.913 0-.035.046-.016.046-.016s.112.283.195.5c.08.218.157.41.176.429.016.019.138.232.192.582.054.35.074.672.106.887.016.102.029.21.06.32.036.117.09.239.161.425.061.157.107.288.131.4.029.144.029.253.045.324.016.06.04.183.094.358.054.176.134.403.189.544.106.282.153.518.17.644.014.129.062.577.049.711Z" fill="#A88F33"/><path fill-rule="evenodd" clip-rule="evenodd" d="m10.883 1.83-.007.016s.02.006.016.032a.785.785 0 0 1-.006.107c-.007.045-.02.08-.022.108 0 .061.009.131-.077.304-.026.048-.042.09-.055.118a.35.35 0 0 1-.067.113c.045-.026.209-.128.291-.113a.608.608 0 0 0-.198.179.446.446 0 0 0 .154 0c.143-.022.304-.074.445-.064.154.01.093-.185.093-.185l-.177-.39-.337-.237-.053.013Z" fill="#BE9C44"/><path fill-rule="evenodd" clip-rule="evenodd" d="M11.76 4.758s-.15-.15-.21-.665c-.061-.518-.048-1.28-.048-1.28l-.122-.298s-.026-.198-.09-.272c-.063-.073-.188-.198-.245-.259-.057-.06-.122-.143-.16-.156.018-.033.105-.215.438-.218.333-.002.435.183.47.25.035.068.191.359.25.913.054.554.057.596.048.787a4.462 4.462 0 0 1-.103.615c-.055.223-.116.471-.228.584Z" fill="#A17C34"/><path fill-rule="evenodd" clip-rule="evenodd" d="M11.29 5.2c.05.004.1-.008.143-.032.048-.003.222.02.355-.15.009.038.032.143-.029.236.033-.032.08-.045.087-.054.003.048.048.196-.143.554.051-.057.112-.054.167-.06.002.067.038.293-.057.415-.064.083-.168.057-.168.057a.308.308 0 0 0 0-.055c-.002-.035-.015-.07-.006-.093a.465.465 0 0 1-.134-.093c-.113-.106-.26-.287-.27-.422-.013-.15.122-.183.122-.183a.146.146 0 0 1-.029-.035c-.006-.021-.012-.056-.038-.085Z" fill="#8C6228"/><path fill-rule="evenodd" clip-rule="evenodd" d="M10.291 3.572s-.006-.01-.041.032c.006-.042.013-.08.015-.118a.408.408 0 0 1 .064-.096c-.02.039-.033.074-.033.074s.048-.09.118-.144c.048-.038.109-.057.135-.093.028-.039.022-.045.028-.052 0 0 .064-.041.16-.163.014-.015.033-.032.046-.048.022-.009.074-.032.135-.063.063-.035.135-.083.179-.103.086-.038.178-.034.22-.095.033-.01.068-.107.062-.19.048.02.293.173.378.507.06.237-.048.602-.094.778-.045.176-.051.307-.115.387-.08.106-.339.256-.402.33-.055.06-.218.215-.211.326.006.083.108.128.13.144.023.016.022.035.064.025.041-.009.057-.028.074-.028.019.002.019.006.028.006a.093.093 0 0 0 .02-.002s-.007.118-.283.153c-.02.003-.038.01-.063.013.032-.015.052-.015.087-.063-.04-.007-.15-.013-.18-.022a.348.348 0 0 1 .064-.076c.022-.02-.002-.026-.022-.016a1.045 1.045 0 0 0-.095.074c-.033.028-.061.067-.113.102a.253.253 0 0 1 .048-.221c-.016.002-.046.048-.074.039a.411.411 0 0 1 .01-.142c.015-.058.099-.16.099-.16l.406-.726.087-.55-.93.18Z" fill="#92723A"/><path fill-rule="evenodd" clip-rule="evenodd" d="M10.27 3.603s-.023.015.021.045c-.006.009-.022.041-.041.063-.022.026-.046.042-.055.064-.019.045-.034.076-.034.096 0 .02-.007.143-.061.224-.02.028-.042.076-.057.108-.033.057-.061.103-.068.128a1.34 1.34 0 0 0-.022.17l.04-.048c-.016.032-.033.067-.058.093.016-.013.061-.045.137-.113.107-.089.272-.239.474-.358-.06.022-.112.022-.154.029.033-.033.324-.375.477-.407a.06.06 0 0 0 .013-.041l-.131-.013-.266.057-.038-.205-.178.107Z" fill="#B18E3E"/><path fill-rule="evenodd" clip-rule="evenodd" d="M10.691 4.768s-.035.035-.067.121a.407.407 0 0 1-.064-.086c-.047-.08-.121-.183-.293-.125-.003-.054-.007-.082 0-.121.028-.007.115-.077.202-.179.06-.07.117-.15.156-.252.026-.02.07-.052.128-.09.083-.057.183-.134.198-.221-.039.016-.121.054-.246.048.048-.022.122-.045.113-.141l.035-.022a.128.128 0 0 0-.045-.007c-.003-.009-.007-.022-.029-.015-.022.006-.025.006-.028.015-.01.003-.04 0-.061.016-.022.016-.083.067-.106.076l.022-.038s-.064.006-.11.025c-.082.029-.178.08-.275.13.01-.015.013-.025.02-.028.006-.003.021-.006.021-.009 0-.002-.006-.025-.002-.035.029-.061.063-.12.102-.176.046-.06.055-.147.055-.147l.198-.1.556-.128.362.022-.046.25-.213.436-.183.398-.208.243-.192.14Z" fill="#543E26"/><path fill-rule="evenodd" clip-rule="evenodd" d="M11.594 3.686s-.218.27-.279.311c.04-.083.279-.576.365-.713-.02-.016-.045-.016.016-.256-.052.121-.07.185-.113.217-.042.033-.048.022-.076.022a.055.055 0 0 0 .006-.032s-.183-.022-.307-.022c-.125 0-.372.067-.51.122-.108.045-.169.045-.207.073-.04.033-.061.068-.08.077-.016.009-.09.032-.107.057-.015.025-.041.054-.041.06 0 .007-.007.016.013.01a1.8 1.8 0 0 0 .108-.061c.074-.042.163-.09.228-.118.185-.074.244-.06.326-.076.087-.016.211-.052.294-.052.083-.003.24 0 .276.006-.016.013-.029.029-.022.083 0 .016-.013.032-.026.07a6.23 6.23 0 0 1-.153.372c-.057.121-.122.223-.154.287-.032.063-.102.23-.172.32-.07.089-.106.143-.128.163-.022.02-.179.134-.167.176a.864.864 0 0 0 .34-.224c.13-.147.156-.237.258-.317a.863.863 0 0 0 .23-.326c.04-.104.031-.136.082-.228Z" fill="#806031"/><path fill-rule="evenodd" clip-rule="evenodd" d="M6.906 5.696s-.028.118-.093.176c-.063.057-.176.106-.189.202-.016.096.113.143.113.143s-.07.116-.07.202c0 .09-.003.107.006.192a.085.085 0 0 0-.025.026s.006.082.07.134c.063.052.117.083.15.07.004.01.009.021.012.032 0 0 .048-.121.08-.227.033-.11.062-.094.075-.24.012-.146.153-.397.153-.397l.096-.215-.156-.122-.222.024Z" fill="#B6903C"/><path fill-rule="evenodd" clip-rule="evenodd" d="M7.197 5.907a.942.942 0 0 0-.089.106c-.041.057-.073.109-.134.13-.061.023-.1.023-.096.084.004.06.06.086.093.117a.151.151 0 0 1 .048.148c.02-.01.054-.02.087-.09.032-.07.258-.495.258-.495h-.167Z" fill="#685026"/><path fill-rule="evenodd" clip-rule="evenodd" d="M8.09 4.924s.019-.051 0-.089c-.02-.039-.138-.052-.196-.096-.06-.045-.135-.077-.195-.057.009-.022.045-.07.015-.08-.028-.01-.134.039-.163.06-.028.023-.093.049-.106.064-.013.016-.035.046-.048.033-.013-.01-.02-.033-.041-.02a.526.526 0 0 0-.148.15.768.768 0 0 1-.195.292c-.133.128-.19.21-.15.258.038.048.056.013.063.055a.349.349 0 0 1-.007.122c-.015.067-.041.13-.006.143.09.029.176-.025.195-.009.04.035-.022.16.07.185.093.026.185-.022.185-.022l.34-.182.326-.172.167-.33-.09-.276-.017-.029Z" fill="#D4B968"/><path fill-rule="evenodd" clip-rule="evenodd" d="M7.77 5.713s-.057-.087.013-.164c.07-.076.17-.108.208-.156a.06.06 0 0 0-.029-.02.258.258 0 0 1 .113-.106.108.108 0 0 0-.074-.035c-.063 0-.102.04-.16.04-.057 0-.064-.03-.064-.03s.096-.008.087-.051c-.009-.046-.026-.046-.026-.046s.186-.076.218-.117c.032-.041.028-.09.035-.109.022 0 .15-.067.202-.039.052.029.015.106.015.106s.157-.118.237-.233c.07.006.102-.048.154-.048.063 0 .163.087.182.272.013.106.032.167.013.355-.009.106-.006.332.026.445.022.09.073.08.073.08a.145.145 0 0 1-.045.07c-.035.032-.039.118-.035.15a.641.641 0 0 0 .02.07s-.042.048-.052.08c-.01.033-.052.055-.083.055-.031 0-.016-.003-.057 0-.041.002-.054.009-.08 0-.026-.01-.046-.02-.035-.103.009-.082-.32-.275-.32-.275l-.538-.192h.002Z" fill="#CCA849"/><path fill-rule="evenodd" clip-rule="evenodd" d="M7.152 6.53s.118.157.602.157c.23 0 .31-.022.358-.034.052-.013.246-.09.442-.32.176-.209.137-.294.137-.294l-.102-.016-.333.046-.985.42-.12.042h.001Z" fill="#585136"/><path fill-rule="evenodd" clip-rule="evenodd" d="M7.513 6.57s-.42.093-.42-.173c0-.259.26-.53.325-.578.067-.048.227-.103.227-.103h.387l.074.196-.032.422-.56.235Z" fill="#252211"/><path fill-rule="evenodd" clip-rule="evenodd" d="M7.9 5.795s-.08-.073-.262.026c-.183.1-.33.307-.34.496-.009.167.138.291.365.298.17.006.272-.013.324-.026l-.08-.1-.007-.694Z" fill="#C3B378"/><path fill-rule="evenodd" clip-rule="evenodd" d="M7.821 5.837s-.019-.016-.076.015c-.048.026-.118.094-.173.142-.035.028-.057.041-.076.063-.08.096-.148.252-.109.33.039.078.167.167.493.106l-.06-.656h.001Z" fill="#E6D89C"/><path fill-rule="evenodd" clip-rule="evenodd" d="M7.715 5.997s-.052.08-.052.209c0 .13.074.339.346.354.208.013.348-.3.5-.422.115-.093.185-.095.185-.095s-.118-.128-.432-.294c-.311-.167-.66-.19-.848.067.089-.006.378-.08.378-.08l.14.045-.217.216Z" fill="#252211"/><path fill-rule="evenodd" clip-rule="evenodd" d="M8.122 6.167c-.01-.02-.016-.045.022-.052.037-.006.054-.002.067.026.013.028.026.052.006.063-.019.01-.07 0-.095-.037Zm-.061-.183s-.013.01-.007-.009c.003-.021.02-.06.061-.051.042.009.033.054.026.067-.007.013-.042.035-.068.026a.022.022 0 0 1-.012-.033Z" fill="#6F674D"/><path fill-rule="evenodd" clip-rule="evenodd" d="M4.557 6.067a.4.4 0 0 0 .221.074c.118-.003.27-.124.34-.202.04-.045.076-.093.114-.13.033-.033.055-.048.07-.07.022-.026.046-.074.057-.09-.028.022-.07.061-.112.087-.042.026-.131.074-.167.087-.035.013-.398.204-.398.204l-.125.04Z" fill="#AC924C"/><path fill-rule="evenodd" clip-rule="evenodd" d="M4.713 5.11s.057-.038.167-.063c.106-.025.32-.045.32-.045l.176.077.07.265-.128.276-.163.102-.185-.297-.256-.314Z" fill="#9F8E57"/><path fill-rule="evenodd" clip-rule="evenodd" d="m4.483 5.348-.061.045s.016-.029.029-.115c.012-.087.08-.298.178-.42.099-.121.096-.115.096-.115a.065.065 0 0 0-.052.013.62.62 0 0 1 .179-.182c.083-.051.115-.068.202-.026.087.042.109.064.172.061.064-.003.118-.07.118-.07s.013.042-.035.137c-.048.096-.237.292-.237.292l-.394.269-.195.11Z" fill="#EAC970"/><path fill-rule="evenodd" clip-rule="evenodd" d="M4.774 5.078s.285.04.372-.041c.002.009.013.009.013.015-.001.005-.003.01-.007.013a.21.21 0 0 1 .029-.002.168.168 0 0 0 .035.006c.01 0 .019 0 .028-.002a.048.048 0 0 1-.02.032c.014 0 .026.003.026.013 0 .01.003.041-.013.048a.059.059 0 0 1-.039-.003.16.16 0 0 0 .02.07c.026.048.08.103.154.087 0 0 .038.093-.125.3-.022.029-.045.067-.074.1a.378.378 0 0 0-.025.076s.276-.106.355-.348c.08-.243.095-.483.08-.707a.364.364 0 0 0-.029-.14c-.038-.081-.147-.068-.191-.023-.064.064-.17.221-.317.33-.15.109-.157.128-.272.176Z" fill="#D7BC6B"/><path fill-rule="evenodd" clip-rule="evenodd" d="M4.432 5.428s-.054.032-.082.153a.502.502 0 0 0 .056.324c.032.048.103.179.25.185a.274.274 0 0 0 .106-.022.672.672 0 0 0 .144-.09.462.462 0 0 0 .109-.092c-.016-.007-.391-.318-.391-.318l-.141-.157-.05.017Z" fill="#585136"/><path fill-rule="evenodd" clip-rule="evenodd" d="M4.787 5.943s.077-.006.122-.035c.045-.028-.266-.336-.266-.336l.023.332.121.039Z" fill="#453A25"/><path fill-rule="evenodd" clip-rule="evenodd" d="M4.457 5.405s-.039.073-.039.093c-.006.063.013.263.029.326.015.067.1.17.208.17.067 0 .16-.042.16-.052 0-.013-.095-.026-.121-.074a.435.435 0 0 1-.026-.154c-.002-.041-.002-.086.013-.102.035-.039.042-.15.042-.15l.124-.231h-.163l-.196.122-.031.052Z" fill="#84754B"/><path fill-rule="evenodd" clip-rule="evenodd" d="M4.41 5.476s.127-.17.242-.209c.116-.039.167-.015.167-.015l-.067.172-.096.106.007.055s-.016.143.08.243.167.096.208.096c.042 0 .161-.035.222-.179.054-.135.1-.307-.01-.48a.391.391 0 0 0-.33-.18c-.036 0-.32.015-.424.39Z" fill="#252211"/><path fill-rule="evenodd" clip-rule="evenodd" d="M7.696 6.052c-.048-.022-.003-.157.045-.198a.337.337 0 0 1 .215-.096c.039-.003.076.022.07.048-.01.048-.076.115-.137.163-.084.066-.139.107-.193.083Z" fill="#F7F7E7"/><path fill-rule="evenodd" clip-rule="evenodd" d="M5.107 5.318c.035-.003.08.025.09.063.008.042-.023.125-.09.125-.055 0-.083-.068-.083-.087 0-.016.005-.032.013-.045.002-.004.009-.05.07-.056Z" fill="#F8F6DE"/><path fill-rule="evenodd" clip-rule="evenodd" d="M4.602 5.348s-.09.041-.13.128a.34.34 0 0 0-.026.204.501.501 0 0 0 .06.142c.022.028.052.047.074.045.022-.003.068-.061.068-.096s.002-.182.045-.263c.037-.08-.09-.16-.09-.16h-.001Z" fill="#D4C38B"/><path fill-rule="evenodd" clip-rule="evenodd" d="M4.615 5.341c-.016.01-.041.022-.035.039.006.015.06.025.08.063.022.04.022.08.016.1a.157.157 0 0 0 .045-.032c.029-.033.063-.077.093-.077.02 0 .04.01.057.01.029 0 .057-.01.061-.04.006-.038-.054-.073-.09-.067.007-.025.016-.063-.012-.09-.029-.025-.118.02-.137.033-.02.013-.078.061-.078.061Z" fill="#E2D59D"/><path fill-rule="evenodd" clip-rule="evenodd" d="m6.672 8.06.191-.056.055.039s.039.083.1.093c-.02.042-.07.077-.068.106a.09.09 0 0 0 .029.052s-.173.285.167.572c-.08.032-.183.077-.237.102.038.01.121.026.156.057.035.032.035.042.068.061.032.02.051.045.045.057-.022-.013-.096-.052-.109-.016-.013.037-.32.022-.32.022l-.517.1s.02-.052-.035-.1c-.064-.056-.141.003-.224-.06-.109-.083-.113-.179-.148-.215.035-.022.106-.055.276-.077-.007-.013-.029-.052-.016-.087.016-.045.08-.074.061-.128.029-.006.042-.006.113-.096.067-.089.109-.108.16-.115.052-.006.083 0 .18-.09.066-.062.044-.117.044-.117s.044-.014.029-.103Z" fill="#CBAC5A"/><path fill-rule="evenodd" clip-rule="evenodd" d="M6.106 8.09c.003-.013.013-.02.083-.013.07.006.513-.042.633-.048.122-.01.55-.003.759.041.208.044.42.096.521.122.103.028.135.038.131.051-.003.013-.026.026-.039.022-.013-.002-.352-.106-.457-.128a4.134 4.134 0 0 0-.665-.076c-.185.002-.26-.003-.416.015-.156.02-.415.046-.493.035-.077-.009-.06-.009-.057-.022Z" fill="#D6BC6F"/><path fill-rule="evenodd" clip-rule="evenodd" d="M7.148 9.104s.266.144.361.32c.07.13-.041.195-.041.195s.15 0 .13.083c-.008.052-.258.192-.425.266-.17.073-.163.07-.246.082-.08.013-.3-.025-.346.04-.045.064-.025.13-.013.14.013.01.118.022.118.022s-.022.061-.24.068c-.217.006-.271.022-.284.045-.013.022.041.01.141.026.1.015.24.025.24.025s-.046.04-.164.07c-.134.035-.345.067-.409.106.033.022.08.055.103.057a.647.647 0 0 0-.144.052l.045.029s-.109.13-.172.163c-.063.032-.428.202-.554.17-.313-.084-.352-.427-.428-.453-.116-.038-.17.04-.272-.015.045-.032.07-.052.118-.074-.052-.025-.32-.195-.32-.195a1.98 1.98 0 0 0-.093-.179c-.052-.09-.128-.208-.186-.313-.124-.23-.13-.337-.243-.468.02-.025.087-.022.087-.022l.944.311 1.673.049.435-.622.185.022Z" fill="#DFC677"/><path fill-rule="evenodd" clip-rule="evenodd" d="M4.67 10.052c.01.011.021.02.034.028.033.022.08.048.113.087.013-.02.045-.054.102 0 .057.054.128.016.172.028.046.016.048.022.048.022s.026-.022.083-.045c.035-.013.076-.022.122-.035.041-.009.086-.022.118-.022.028.02.13.128.54-.032.388-.15.477-.167.542-.144.006-.015.013-.045.112-.041 0-.042-.082-.183-.082-.183l-.457-.156h-.25l-.75.137-.415.237-.032.12v-.001Z" fill="#C4A859"/><path fill-rule="evenodd" clip-rule="evenodd" d="M4.42 9.79s.008.069.112.143c.102.074.135.117.135.117s.02-.025.035-.051c.015-.029.028-.061.054-.07.052-.022.17.02.195.013.022-.007.016-.052.04-.052.054-.003.089.035.108.035.02 0 .067-.003.074-.013.006-.01.009-.118.083-.17a.221.221 0 0 1 .204-.019c0 .02.003.067.055.07.052.003.057-.007.102.009.046.016.1-.003.124.074.022-.007.074-.013.061-.087.026-.02.048-.032.103-.109.013-.019.035-.041.051-.07.046 0 .1-.009.173.055-.022.015-.035.025-.042.041.02.019.036.04.052.061.02.026.032.057.057.064.054.015.144-.007.243 0a.49.49 0 0 1 .211.063c.013-.006.013-.01.046-.003.032.007.057.01.022-.032.019.01.041.029.06.01.02-.02.035-.049.09-.055.054-.007.074.002.096-.055.028-.07-.07-.07-.07-.07s.045-.041.095-.095c.061-.057.131-.131.148-.222.029-.167-.135-.189-.135-.189l-.79.244-.967-.048-.825.41Z" fill="#927D49"/><path fill-rule="evenodd" clip-rule="evenodd" d="M3.709 7.504s-.026.033-.042.109c-.015.076-.009.067-.022.122-.013.054-.172.595-.112.778.06.182.163.25.228.397.013.032.025.052.032.08.022.096.003.17.028.266.01.032.033.07.068.108.077.08.202.157.256.211.076.08.185.244.323.26a.467.467 0 0 0 .266-.074c.077-.048.124-.116.205-.154.057-.029.117-.039.172-.052a.78.78 0 0 1 .276-.013c.093.02.313.087.435.087.095-.002.19-.015.282-.039.185-.054.409-.147.557-.189.086-.025.156-.032.227-.048.122-.028.224-.067.283-.14-.04-.046-.087-.116-.346-.114-.294.007-.633.17-.8.196-.167.026-.24.048-.426-.02-.183-.067-.189-.112-.189-.112s-.192-.135-.272-.477a.853.853 0 0 1 .208-.828c.055-.061.042-.116.042-.116s.137-.185.1-.358c-.042-.172-.307-.137-.307-.137l-1.472.257Z" fill="#6E6342"/><path fill-rule="evenodd" clip-rule="evenodd" d="M3.93 8.08a.134.134 0 0 0-.015.07c.002.035.013.08.117.183.09.089.07.189.07.189s.045.009.167-.048c.096-.046.128.035.128.035a.27.27 0 0 1 .09-.029.196.196 0 0 0 .08-.025s.112.115.21.17c.09.047.142.08.186.047.041-.028.041-.087.039-.113a.336.336 0 0 0-.039-.067c-.028-.041-.074-.09-.077-.128-.006-.09.068-.195.052-.221-.016-.026-.074-.033-.218.02-.148.048-.79-.082-.79-.082Z" fill="#39331F"/><path fill-rule="evenodd" clip-rule="evenodd" d="M4.27 8.659s-.074-.07-.049-.41a.42.42 0 0 1 .094.01s.04.263-.046.4Z" fill="#292311"/><path fill-rule="evenodd" clip-rule="evenodd" d="M3.744 7.245a.203.203 0 0 0 .028-.025c-.025.048-.144.24-.048.54.096.301.337.525.633.535.297.01.453-.134.63-.352.07-.086.15-.195.222-.269.106-.115.19-.147.19-.259 0-.228-.234-.33-.577-.432-.343-.102-.652-.09-.813-.02-.157.077-.224.157-.265.282Z" fill="#252211"/><path fill-rule="evenodd" clip-rule="evenodd" d="m4.845 8.761.026-.013s.006-.102.048-.1c.041.007.06.061.057.08-.003.02-.013.053-.055.049-.054 0-.076-.016-.076-.016Z" fill="#3F3824"/><path fill-rule="evenodd" clip-rule="evenodd" d="M4.73 8.326s.026-.009.057.022c.026 0 .137-.013.172.01.035.021.046.04.046.04s-.131.03-.202 0c-.073-.024-.073-.072-.073-.072Z" fill="#2D2815"/><path fill-rule="evenodd" clip-rule="evenodd" d="M5.306 8.346a.32.32 0 0 0-.144-.07c-.012-.003-.015.006-.025.006-.007-.003-.01-.022-.01-.022l-.041.022s-.007.01.015.026c.02.015.052.028.061.054.01.026.01.035.013.039.003.002.048 0 .07-.013.022-.013.064-.034.06-.043h.001Z" fill="#82764F"/><path fill-rule="evenodd" clip-rule="evenodd" d="M4.652 8.608s.013-.089.1-.093c.09-.006.106.08.106.08l-.052.052c0-.001-.038-.055-.153-.039Z" fill="#2D2816"/><path fill-rule="evenodd" clip-rule="evenodd" d="M5.216 8.224s-.048.052-.154.067c-.01-.013-.029-.039 0-.08.028-.041.06-.054.093-.041a.076.076 0 0 1 .06.054Z" fill="#574F35"/><path fill-rule="evenodd" clip-rule="evenodd" d="M5.411 8.287c.003-.013-.006-.015 0-.022.006-.006.041-.019.048-.013.002.003 0 .013 0 .026s0 .026-.007.035c-.009.013-.034.02-.047.016-.013-.004-.016-.022-.016-.026.006-.003.022-.01.022-.016Zm.221-.14c0-.006.022-.019.035-.019.02 0 .02.016.022.02.006.002.006-.003.013.009.006.011.015.032.009.045-.007.013-.032.022-.039.02a.345.345 0 0 1-.04-.074Z" fill="#82764F"/><path fill-rule="evenodd" clip-rule="evenodd" d="M5.187 8.317s.029.007.067.039c-.013.01-.032.02-.032.02s-.003-.03-.035-.059Z" fill="#6E6342"/><path fill-rule="evenodd" clip-rule="evenodd" d="M5.124 8.032c-.007-.006.019-.022.035-.019.015.003.022.013.038.015.017.003.02-.006.026-.012.006-.007.028-.003.032 0a.072.072 0 0 1 .007.009.036.036 0 0 1 .013-.026.04.04 0 0 1 .035-.007c.002.01.015.042.013.048-.003.007-.042.016-.048.01.006.015.035.047.039.054.003.006-.029.022-.042.02a.528.528 0 0 1-.149-.091Zm.17-.215a.03.03 0 0 0-.014-.015c-.009-.003-.039 0-.039.015a.48.48 0 0 0 .055.148c.032.045.054.083.076.093a.03.03 0 0 0 .039-.013.783.783 0 0 0 .006-.167 1.537 1.537 0 0 0-.013-.228c-.006-.006-.032-.006-.04.007a1.21 1.21 0 0 0-.07.16Z" fill="#585136"/><path fill-rule="evenodd" clip-rule="evenodd" d="M5.178 8.48s-.045-.028-.09-.009c-.04.02-.038.096-.038.096a.061.061 0 0 0 .057-.007c.028-.019.065-.051.071-.08Z" fill="#574F35"/><path fill-rule="evenodd" clip-rule="evenodd" d="M5.263 8.583c-.002-.026-.025-.026-.025-.04a.03.03 0 0 1 .028-.021c.013 0 .026.015.042.025.015.01.039.026.041.046.003.02-.025.073-.057.073-.031 0-.022-.058-.028-.084Zm.25-.035s-.051.015-.048 0c.004-.016.016-.02.033-.02a.051.051 0 0 1 .032-.015c.007 0 .014.002.02.006 0 0 .034-.015.045-.006.01.009.002.009.009.019a.091.091 0 0 1 .015.039c0 .01-.038.032-.07.028-.036-.007-.03-.045-.036-.051Zm.302-.059s.015.01.003.02a.21.21 0 0 1-.094.028c-.039 0-.073.007-.073-.006 0-.013.032-.04.051-.046a.041.041 0 0 1 .033-.015c.015 0 .076-.007.093-.01.015-.002.028.007.02.02-.005.01-.033.01-.033.01Zm.09-.4s-.02.042-.042.042c-.022-.003-.022-.01-.022-.016 0-.009.022-.032.02-.038-.007 0-.023 0-.02-.016 0-.013.022-.028.041-.026a.085.085 0 0 1 .052-.019c.022 0 .041.007.041.02 0 .012-.025.04-.035.047-.01.01-.023.018-.036.007Zm-.296.766s-.026.002-.026.015c0 .007.007.007.016.003a.07.07 0 0 0 .016-.003c.002.003.002.016.022.016a.123.123 0 0 0 .045-.016c.015-.006.028-.013.028-.025-.006-.022-.02-.033-.038-.033-.01 0-.02.002-.029.007 0 0-.006-.013-.028 0s-.02.013-.013.019c.011.01.007.017.007.017Zm-.146.134c0-.006.032-.02.041-.015.01.002.035.051.035.057 0 .006-.032.022-.045.022-.013 0-.035-.022-.035-.026 0-.002.015-.006.015-.009.004-.006-.011-.022-.011-.028ZM5.36 8.8c.007-.002.007-.009.016-.015a.022.022 0 0 1 .02-.003.032.032 0 0 1 .021-.015c.016-.003.029 0 .026.006 0 .02.013.032.013.048 0 .015-.01.035-.041.048a.23.23 0 0 1-.083.006c-.007-.002-.013-.028-.007-.041A.107.107 0 0 1 5.36 8.8Z" fill="#82764F"/><path fill-rule="evenodd" clip-rule="evenodd" d="M5.402 8.81s-.022.012-.022.019a.057.057 0 0 0-.003.019c0 .004.029-.003.032-.007.002-.002-.007-.025-.007-.032Z" fill="#6E6342"/><path fill-rule="evenodd" clip-rule="evenodd" d="M5.21 8.748c.012.003.034 0 .05.007.014.006.023.02.01.035-.013.015-.026.039-.054.035-.033-.003-.064-.02-.064-.033a.062.062 0 0 1 .016-.045c.013-.01.019-.004.041.001Z" fill="#585136"/><path fill-rule="evenodd" clip-rule="evenodd" d="M5.194 8.761s-.042.033-.052.048c-.013.016-.077.096-.096.113a.245.245 0 0 1 .022-.033.132.132 0 0 0-.054.07c-.016.048.086.074.154.094a2.3 2.3 0 0 0 .093.025.723.723 0 0 1-.064-.118c-.025-.06-.038-.067-.022-.095.013-.029.033-.048.033-.07l-.014-.034Z" fill="#574F35"/><path fill-rule="evenodd" clip-rule="evenodd" d="M3.718 8.863c.01.002.019.002.028 0 .02-.002.222-.076.433-.063.158.01.314.035.467.077.265.07.595.208.809.287.057.022.113.061.154.076.163.064.17.064.265.08.113.016.228-.021.348-.047.148-.033.4-.048.622-.08.071-.01.142-.026.21-.048 0 0-.175.176-.597.24-.171.025-.344.027-.516.006a1.572 1.572 0 0 1-.29-.052c-.077-.022-.234-.08-.427-.128-.134-.035-.285-.061-.457-.093-.424-.078-.885-.167-1.05-.254Z" fill="#252211"/><path fill-rule="evenodd" clip-rule="evenodd" d="M3.241 8.063a7.38 7.38 0 0 1-.317.25l-.32.246c-.108.08-.214.163-.323.243a6.02 6.02 0 0 1-.333.23c.102-.086.211-.166.32-.245.109-.08.221-.157.326-.237l.32-.246c.11-.08.216-.163.327-.24Zm-.565.907s.115-.096.259-.23c.178-.168.397-.381.467-.42l-.726.65Z" fill="#CFB66C"/><path fill-rule="evenodd" clip-rule="evenodd" d="M2.676 8.97c.057-.057.118-.113.178-.167l.094-.08.089-.083c.057-.057.113-.118.17-.177.028-.029.058-.056.089-.082a.242.242 0 0 1 .052-.035c.015-.01.032-.026.054-.029-.013.02-.029.029-.041.045-.016.013-.029.029-.042.042-.028.028-.06.054-.09.08-.06.052-.123.103-.184.157-.061.054-.118.112-.179.167-.066.055-.127.11-.19.162Zm.774-.518s-.422.413-.509.48l.509-.48Z" fill="#CFB66C"/><path fill-rule="evenodd" clip-rule="evenodd" d="M3.45 8.452a1.378 1.378 0 0 1-.122.124l-.128.122c-.041.041-.08.082-.124.124-.046.039-.087.077-.135.112l.124-.121c.042-.042.087-.077.131-.118l.124-.122c.043-.042.085-.084.13-.121Zm.02.224a2.691 2.691 0 0 1-.138.317c-.109.217-.272.49-.343.628l.48-.945Z" fill="#CFB66C"/><path fill-rule="evenodd" clip-rule="evenodd" d="M3.47 8.676c0 .048-.014.09-.03.13a1.287 1.287 0 0 1-.114.24c-.023.038-.048.076-.068.115l-.13.23c-.046.077-.09.155-.138.228.033-.082.077-.16.118-.236a4.92 4.92 0 0 0 .128-.233c.02-.04.038-.08.054-.122.02-.042.04-.08.055-.118.02-.041.035-.08.054-.118.022-.04.04-.079.07-.116Z" fill="#CFB66C"/><path fill-rule="evenodd" clip-rule="evenodd" d="M3.93 9.737s-.128.17-.115.385c.035-.113.079-.285.115-.385Zm.122.17s-.045.461-.083.688c.053-.262.063-.24.083-.688Zm.848.715s-.192.563-.196.72c.042-.161.122-.49.196-.72Z" fill="#DEC270"/><path fill-rule="evenodd" clip-rule="evenodd" d="M5.348 9.702s.31.513.543.95c-.063-.22-.208-.623-.543-.95Z" fill="#CBAF59"/><path fill-rule="evenodd" clip-rule="evenodd" d="M6.183 10.457c.17.302.324.612.46.93a1.423 1.423 0 0 0-.46-.93Z" fill="#E3C677"/><path fill-rule="evenodd" clip-rule="evenodd" d="M8.637 11.213c.052-.033.154-.209.243-.253.09-.045.157-.054.237-.143.08-.094.103-.15.278-.224.247-.107.077-.244.077-.244a.799.799 0 0 1 .087-.074c.063-.047.137-.106.13-.208-.008-.172-.04-.422-.182-.567.137-.028.4-.048.563-.09.19-.047.276-.114.276-.114s-.108-.186.068-.372c.175-.186.32-.298.425-.506-.121-.016-.307-.08-.78.1.025.012.05.025.074.04 0 0-.292.081-.398.17-.185.157-.208.285-.409.381-.2.096-.402.07-.57.148-.166.077-.191.143-.252.172.013.015-.002.041.022.063-.015.022-.106.17-.198.17.01.035.087.06.087.06s-.057.042-.202.052c.074.077.144.161.336.283-.015.032-.08.08-.054.14.029.062.102.145.397.212-.15.006-.326.041-.563.009-.237-.029-.275-.045-.422-.01.016.016.057.016.093.058-.038.002-.282-.029-.365.08a.706.706 0 0 0-.117.422c-.046.022-.09.06-.068.141.022.08.138.106.211.157.074.054.08.073.15.06.074-.015.183-.089.246-.089.064 0 .11.048.11.048s.171-.083.188-.067c.016.015.003.115.02.13.017.012.21-.103.262-.135Z" fill="#ECD592"/><path fill-rule="evenodd" clip-rule="evenodd" d="M12.4 6.032c-.809-2.089-2.81-2.476-2.81-2.476H3.886l.022 2.128h1.136v4.752H3.885v2.124h5.548c1.337 0 2.409-1.343 2.409-1.343 1.716-2.436.558-5.185.558-5.185ZM9.463 9.785s-.435.628-.909.628h-.947l-.023-4.724H8.8s.563.118.957 1.233c0 0 .521 1.595-.294 2.863Z" fill="#fff" fill-opacity=".8"/></g><defs><clipPath id="clip0_422_5824"><path fill="#fff" d="M0 0h16v16H0z"/></clipPath></defs></svg>