<svg width="70" height="70" viewBox="0 0 70 70" fill="none" xmlns="http://www.w3.org/2000/svg">
<path d="M35 70C54.33 70 70 54.33 70 35C70 15.67 54.33 0 35 0C15.67 0 0 15.67 0 35C0 54.33 15.67 70 35 70Z" fill="#988430"></path>
<path d="M35 68.8789C53.7108 68.8789 68.8789 53.7108 68.8789 35C68.8789 16.2892 53.7108 1.12109 35 1.12109C16.2892 1.12109 1.12109 16.2892 1.12109 35C1.12109 53.7108 16.2892 68.8789 35 68.8789Z" fill="#7A6A2A"></path>
<path d="M35 68.1651C53.3166 68.1651 68.1651 53.3166 68.1651 35C68.1651 16.6835 53.3166 1.83496 35 1.83496C16.6835 1.83496 1.83496 16.6835 1.83496 35C1.83496 53.3166 16.6835 68.1651 35 68.1651Z" fill="#BA9F33"></path>
<path fill-rule="evenodd" clip-rule="evenodd" d="M15.3024 31.2621C15.1042 31.0811 14.8948 30.8996 14.7021 30.7185C14.5095 30.5375 14.3116 30.356 14.1134 30.175L13.5243 29.615C13.4279 29.5187 13.326 29.4339 13.2297 29.3372C13.1334 29.2525 13.0203 29.1561 12.9239 29.071C12.1422 28.3292 11.3559 27.5874 10.585 26.8452C11.3836 27.5758 12.1653 28.3012 12.9639 29.0427L13.2413 29.3204C13.3376 29.4164 13.4395 29.5015 13.5358 29.5978L14.1246 30.1414C14.3228 30.3224 14.5155 30.5039 14.7137 30.7014C14.9119 30.8989 15.1046 31.0807 15.3028 31.2614L15.3024 31.2621ZM4.92713 31.1501C4.92713 31.1501 7.77006 31.4443 9.15774 31.6425C10.4431 31.824 14.4643 32.4411 14.4643 32.4411L4.92713 31.1501ZM4.92713 31.1501C5.72569 31.2181 6.52425 31.3028 7.32281 31.3879C7.73049 31.4275 8.12137 31.4727 8.51225 31.5123L9.1122 31.5806C9.31044 31.6086 9.50308 31.6369 9.70132 31.6653L12.0802 32.0446L13.2693 32.2429C13.6601 32.3108 14.051 32.3847 14.4587 32.4527C14.0678 32.4131 13.6601 32.3564 13.2693 32.2996L12.0802 32.1297L9.70132 31.7788C9.50308 31.7504 9.31044 31.7105 9.1122 31.6825L8.51188 31.6134C8.121 31.5739 7.71332 31.5171 7.32244 31.4716C6.52388 31.3756 5.72532 31.2733 4.92676 31.149L4.92713 31.1501ZM14.1813 33.1818C14.1813 33.1818 11.1457 33.9524 10.1206 34.2469C9.11257 34.5243 6.05982 35.4532 6.05982 35.4532L14.1809 33.1822L14.1813 33.1818Z" fill="#CFB66C"></path>
<path fill-rule="evenodd" clip-rule="evenodd" d="M14.1814 33.1816C13.5075 33.3799 12.8374 33.5725 12.1538 33.754L10.1262 34.2975C9.45234 34.4958 8.78221 34.6884 8.11021 34.8867L7.10221 35.164C6.76807 35.2604 6.42834 35.3451 6.08301 35.4418C6.41677 35.3298 6.75687 35.2152 7.09101 35.1189L8.09901 34.7963C8.77287 34.5865 9.44301 34.3883 10.115 34.1788C10.8001 34.0089 11.4743 33.8275 12.1594 33.6632C12.8105 33.499 13.4959 33.3351 14.1814 33.182V33.1816ZM6.48509 37.3219C6.81885 37.1972 10.6702 35.4022 11.565 34.983C12.013 34.7732 13.3152 34.311 13.3152 34.311L6.48509 37.3219Z" fill="#CFB66C"></path>
<path fill-rule="evenodd" clip-rule="evenodd" d="M6.48475 37.3221C6.77893 37.2101 7.0567 37.0731 7.33968 36.9428L8.17782 36.5519L9.86005 35.7421C10.4201 35.476 10.9644 35.1821 11.5419 34.932C11.8365 34.8077 12.131 34.7058 12.4252 34.6094L12.8732 34.468C13.0259 34.4284 13.1678 34.3828 13.3212 34.3433C12.7612 34.6094 12.1717 34.8361 11.611 35.0963C11.051 35.374 10.4783 35.6006 9.90038 35.8497L8.19014 36.6027C7.61595 36.8353 7.05595 37.0843 6.48438 37.3221H6.48475ZM6.85808 38.8901C6.85808 38.8901 10.3465 36.8457 11.5471 36.1887C12.1758 35.8377 14.209 34.8293 14.209 34.8293L6.85808 38.8901Z" fill="#CFB66C"></path>
<path fill-rule="evenodd" clip-rule="evenodd" d="M6.8584 38.8908C7.44715 38.5283 8.04746 38.1602 8.64778 37.7865L9.54378 37.2425C9.84954 37.0615 10.1441 36.8916 10.4558 36.7105C10.7616 36.5291 11.0562 36.348 11.3675 36.1782C11.5157 36.0866 11.671 36.0071 11.8319 35.9403L12.3076 35.7025C12.9363 35.3968 13.565 35.085 14.2276 34.8188C13.6273 35.1985 13.0098 35.5215 12.3927 35.8552C12.0869 36.0251 11.7752 36.1782 11.4694 36.348C11.1637 36.5179 10.8691 36.6993 10.5574 36.8636C10.2516 37.0447 9.95706 37.2145 9.6457 37.3788L8.72245 37.8828L6.85914 38.8908H6.8584ZM14.181 35.2773C14.181 35.2773 12.0119 36.9424 11.3097 37.4747C10.6074 38.0071 8.54026 39.5023 8.54026 39.5023L14.181 35.2773Z" fill="#CFB66C"></path>
<path fill-rule="evenodd" clip-rule="evenodd" d="M26.6295 48.7055L25.5195 46.6044L26.165 43.9765L30.7693 42.1983L28.8097 38.1775L29.7781 34.1168L31.5963 30.4805L37.2146 29.5972L41.3429 25.6611L50.2573 26.335L52.0072 35.8666L48.6375 47.8674L46.7178 54.0804L38.936 54.3749L35.3229 51.8717L31.0923 50.1044L26.6295 48.7055Z" fill="#E2CC85"></path>
<path fill-rule="evenodd" clip-rule="evenodd" d="M40.2785 48.6375C40.2785 48.6375 39.2022 49.1303 37.3665 49.0168C36.8353 48.3034 33.1146 47.9693 33.1146 47.9693C33.1146 47.9693 32.6502 47.8278 31.8289 48.1675C31.0023 48.5035 30.2205 48.4621 29.4899 48.6431C28.7593 48.8242 28.0339 47.873 27.4739 47.6747C26.9139 47.4653 26.1714 46.9613 26.1714 46.9613L24.6034 46.8082L21.4547 45.4773L16.4524 40.4937L15.0931 42.6217L14.6738 45.2551L16.1862 48.3758L20.2581 52.0853L28.1982 54.1013L32.9044 52.7147L38.8001 50.2227L40.2785 48.6372V48.6375Z" fill="#F1D789"></path>
<path fill-rule="evenodd" clip-rule="evenodd" d="M12.0689 31.0242L13.0769 27.9719L14.2779 26.0007L18.1457 25.6777L16.9846 29.0646L13.7511 34.8188L15.0933 39.9555L12.7148 41.1446L11.9838 40.0234L11.395 37.4523L11.3555 34.5638L12.0689 31.0242Z" fill="#F4ECB4"></path>
<path fill-rule="evenodd" clip-rule="evenodd" d="M16.4073 48.4279L15.6655 47.3915C15.6655 47.3915 15.4672 46.8987 15.5807 46.4683C15.6927 46.0322 15.6767 46.0038 15.6203 45.8396C15.5639 45.6753 15.0879 45.109 15.1163 44.6218C15.1443 44.129 15.0767 43.9647 15.4388 43.5742C15.8182 43.1949 15.705 42.5378 15.705 42.5378L16.1978 42.8436L16.3098 42.6737C16.3098 42.6737 16.4909 42.8152 16.4909 43.0362C16.5305 42.7305 16.3662 41.3144 16.7399 40.9918C17.1136 40.6693 17.7763 42.5038 17.7763 42.5038L17.3686 39.842L16.3207 37.1125L14.4574 34.6205L14.3454 31.8736V31.6357C14.3454 31.6357 13.49 32.9499 13.2522 33.9877C13.0824 34.7012 13.49 35.5677 13.4053 36.5929C13.337 37.6124 13.2522 37.5329 13.5012 37.9369C13.7503 38.3408 14.3566 39.1715 14.1187 39.7718C13.9093 40.2874 13.1955 39.9249 13.1955 39.9249C13.1955 39.9249 13.054 40.3437 12.8614 40.4968C12.7934 40.2478 12.7199 40.0891 12.584 39.9368C12.5724 40.0331 12.5444 40.1634 12.5444 40.1634C12.5444 40.1634 12.4197 39.7725 12.295 39.2797C12.1255 38.623 11.9441 37.7565 11.7798 37.2921C11.7119 37.5583 11.542 38.3681 11.542 38.3681L11.6383 39.6142L12.1027 41.3245L12.5507 42.4445L12.9868 43.815L13.3657 44.7356L13.6715 45.4379L13.9377 47.0182L15.2231 48.3771L15.9085 48.6833L16.4065 48.4283L16.4073 48.4279Z" fill="#F3E19D"></path>
<path fill-rule="evenodd" clip-rule="evenodd" d="M12.7423 28.5325C12.7423 28.5325 11.819 30.1005 11.5532 31.6811C11.2874 33.2618 11.0492 34.9321 11.2172 37.084C11.3871 39.2535 11.71 40.584 11.9706 41.5357C12.4186 43.116 13.5789 45.3134 13.5789 45.3134L13.6185 45.2283C13.4234 44.8586 13.2678 44.4694 13.1541 44.0672C13.001 43.4669 12.9442 42.7535 12.8027 42.4305C12.6781 42.108 12.4686 41.8302 12.3667 41.4337C12.2704 41.0544 12.2547 40.4541 11.959 40.0069C11.8343 39.8254 11.6813 39.3498 11.6361 38.8742C11.5793 38.1603 11.6645 37.3618 11.5965 36.7051C11.4718 35.612 11.3871 34.8702 11.5002 34.2978C11.6133 33.7255 12.2028 32.1008 12.5653 30.8094C12.8031 29.9825 12.6613 29.2858 13.0973 28.5664C13.5334 27.853 13.7999 27.2243 13.8959 26.7882C14.0079 26.3918 12.7408 28.5325 12.7408 28.5325H12.7423Z" fill="#F2E8B0"></path>
<path fill-rule="evenodd" clip-rule="evenodd" d="M17.1207 27.9038C17.1207 27.9038 16.6451 28.0457 16.4184 28.2947C16.1918 28.5325 16.0955 28.7307 15.7898 29.1328C15.484 29.5349 15.4668 29.8634 15.2174 30.3674C14.9684 30.8602 14.4189 31.602 14.3509 31.8682C14.283 32.1344 14.1699 33.3802 14.0284 33.9694C13.9037 34.5585 14.1699 35.2835 14.1699 35.2835L14.4924 35.2152C14.4924 35.2152 14.4924 35.6344 14.8154 35.9178C15.1379 36.1952 15.1947 34.9774 15.1947 34.9774L16.4009 30.9054L18.2187 29.6708L18.4169 28.674L17.1199 27.9038H17.1207Z" fill="#F5EEC0"></path>
<path fill-rule="evenodd" clip-rule="evenodd" d="M18.0041 29.7502C18.0041 29.7502 17.1488 29.8065 16.73 30.1127C16.5601 30.237 16.4921 30.3389 16.3111 30.492C15.9769 30.7694 15.6368 31.0243 15.4729 31.388C15.2915 31.7501 15.0933 32.2996 14.9574 33.336C14.9006 33.7721 14.9006 34.1742 14.8611 34.5255C14.8043 35.0011 14.7196 35.3804 14.7647 35.6455C14.8215 36.189 15.3822 36.4724 15.4367 37.0895L16.5978 36.5008L17.6909 32.1906L20.0131 30.7346L18.6989 29.2622L18.0027 29.7475L18.0041 29.7502Z" fill="#E6DB9D"></path>
<path fill-rule="evenodd" clip-rule="evenodd" d="M11.8783 58.7733C11.8832 58.7307 11.888 58.6882 11.8929 58.6445C12.0624 57.1885 12.0911 56.0849 12.2154 55.3939C12.3965 54.4142 12.5212 54.0499 12.4928 53.6833C12.4532 53.0945 12.4081 52.6641 12.4648 52.2108C12.5496 51.6105 13.1387 50.8971 13.1219 50.4043C13.1103 50.0134 12.9121 49.7588 12.7422 49.521C12.5723 49.2831 12.4364 49.0849 12.4364 49.0849C12.4364 49.0849 13.5975 48.2863 13.5863 45.0693C13.61 45.076 13.6328 45.0855 13.6542 45.0977L14.2262 46.7228L14.6171 47.1985L16.1179 49.9962L18.0491 51.8711L20.9033 53.7908L22.693 55.7385L22.8741 60.9319L20.5352 63.9675L20.1521 64.6611C17.109 63.1334 14.3184 61.1475 11.8779 58.7729L11.8783 58.7733Z" fill="#E5CB7A"></path>
<path fill-rule="evenodd" clip-rule="evenodd" d="M19.0234 63.7416C19.0234 63.7416 19.063 63.0961 19.5954 62.6768C19.6805 62.8183 19.7369 62.9546 19.7201 63.0561C19.8164 62.8867 20.4903 61.7991 22.0138 61.5158C23.5374 61.2384 23.9055 60.1285 23.9055 60.1285L27.139 57.1892L30.8372 53.7855L35.334 52.2052L37.4355 51.6896C37.4355 51.6896 37.4751 51.8427 37.3959 52.1824C37.7864 52.1544 38.6529 51.9562 39.5534 51.6389C39.9159 51.4974 40.256 51.4406 40.4371 51.6277C40.7033 51.8767 40.7429 52.4658 40.7597 52.8167C41.1957 52.7204 41.6997 52.3015 42.1037 52.3411C42.7495 52.4091 43.3215 53.168 43.9785 53.168C44.845 53.168 45.2355 52.6357 45.8418 52.2164C46.2043 51.9674 46.7251 51.6564 47.0197 51.4462C47.7219 50.9307 55.1524 48.6597 55.1524 48.6597L57.7575 48.8295L58.1768 51.6273L57.9528 58.9409C57.9251 58.9674 57.8975 58.995 57.8695 59.0215L46.0244 65.208L29.6052 67.7251C25.9272 67.1241 22.3779 65.9033 19.1086 64.1145L19.0246 63.7412L19.0234 63.7416Z" fill="#D8C173"></path>
<path fill-rule="evenodd" clip-rule="evenodd" d="M12.874 59.7041C13.1074 59.2161 13.3172 58.8081 13.3541 58.6621C13.3832 58.9563 13.4366 59.6018 13.5442 60.288C13.3184 60.0961 13.095 59.9013 12.874 59.7037V59.7041Z" fill="#F1D789"></path>
<path fill-rule="evenodd" clip-rule="evenodd" d="M24.8688 66.5865L26.9923 65.9959L27.1734 66.0527C27.1734 66.0527 27.2697 66.1094 27.2697 66.3017C27.5359 66.149 27.7625 66.177 27.9268 66.0754C28.0115 66.2565 28.0963 66.8568 28.4704 66.9304C28.8609 67.0155 29.2801 66.7605 29.705 66.4379C30.1239 66.1038 30.601 65.6845 30.962 65.5147C31.0945 65.7582 31.2118 66.0097 31.3133 66.2677C31.7889 65.8884 32.6159 64.348 33.7937 64.376C34.1342 63.5715 34.7029 62.8844 35.4297 62.3996C36.5228 61.6578 37.2079 61.601 38.0632 61.669C38.4029 61.2277 38.8215 60.8533 39.2978 60.5647C39.4393 60.6214 39.8302 60.8592 40.3174 60.6326C40.8102 60.4064 41.3649 59.5283 42.0955 59.4152C42.4893 59.361 42.8896 59.445 43.2282 59.653C43.2282 59.653 45.3562 57.5403 46.8246 56.838C46.7678 56.6682 46.6547 56.0283 48.3761 54.6122C48.4725 54.6973 48.4045 54.9352 48.4725 54.9482C48.5005 54.9482 48.9205 54.7672 49.4521 54.3591C50.1091 53.8667 50.8961 53.3511 51.3718 53.2096C52.2678 52.9434 53.2183 53.487 53.2183 53.487C53.2991 53.4303 53.3892 53.3881 53.4845 53.3623C53.7107 53.3227 53.875 53.2944 53.9997 53.2503C53.9885 53.5449 54.1527 54.0489 53.9997 54.4849C54.177 54.5846 54.3648 54.6644 54.5597 54.7227C54.4637 54.9322 54.2539 55.4645 53.903 55.7195C54.1971 55.861 54.2367 56.0253 54.656 56.1675C54.4861 56.4053 54.208 56.8134 54.084 57.0635C53.9593 57.3297 53.5117 58.434 53.3135 58.8529C53.104 59.2722 52.821 60.0424 52.6848 60.1969C52.5485 60.3515 52.0561 61.0067 51.6768 61.3292C52.0128 61.2045 53.3874 60.7857 53.9705 60.627C53.7969 60.8816 52.917 62.1872 52.071 63.4427C48.0205 65.8704 43.4991 67.407 38.8081 67.9501C34.1171 68.4932 29.3642 68.0302 24.8662 66.5921L24.8688 66.5865Z" fill="#E0CD81"></path>
<path fill-rule="evenodd" clip-rule="evenodd" d="M18.1442 29.5972C18.1442 29.5972 17.6518 29.5972 17.5555 29.6651C17.4592 29.7331 18.0483 29.8749 18.2294 29.9429C18.4104 30.0108 18.8013 30.3222 18.9032 30.5716C18.9995 30.8094 22.4428 32.1967 22.4428 32.1967L24.878 32.072L25.7177 30.9121L24.1206 29.5132L25.2406 26.2114L23.7569 26.4492L20.189 28.5772L18.3992 29.2627L18.1442 29.5972Z" fill="#DFC57C"></path>
<path fill-rule="evenodd" clip-rule="evenodd" d="M23.4918 30.6901C23.527 30.7471 23.5766 30.7939 23.6356 30.8257C23.6946 30.8574 23.7609 30.8731 23.8278 30.8712C24.3318 30.8712 24.7959 30.9959 24.9885 31.2505C25.3115 31.6586 26.2063 32.9611 26.2063 32.9611L28.347 33.7313L28.4852 31.2106L26.1462 29.5854L23.4844 30.5651V30.6898H23.4903L23.4918 30.6901Z" fill="#E5CC7C"></path>
<path fill-rule="evenodd" clip-rule="evenodd" d="M23.072 31.6248C23.072 31.6248 23.4625 31.6532 23.9553 31.4718C24.4481 31.2903 25.2578 30.8998 25.6091 31.0529C26.1016 31.2623 25.9996 31.9194 26.5324 32.5089C26.8549 32.8714 27.4441 32.8602 27.7782 33.2511C28.1123 33.6419 29.2618 33.4605 29.2618 33.4605L29.6979 35.8125L27.9481 38.0555L27.3757 40.8417H25.0096L22.848 39.9841L21.7832 37.4081L22.3156 34.803L23.072 31.6248Z" fill="#D2C281"></path>
<path fill-rule="evenodd" clip-rule="evenodd" d="M27.6489 31.7378C27.7076 31.7558 27.7686 31.7654 27.83 31.7661C27.762 31.8229 27.6201 31.9472 27.6769 32.2701C27.7336 32.5931 27.9147 33.0007 27.762 33.2498C27.8839 33.383 27.9748 33.5416 28.0282 33.7142C28.1245 33.9919 28.1529 34.2466 28.7812 34.2865C28.6905 34.3423 28.6069 34.4089 28.5322 34.4847C28.5322 34.4847 28.9682 34.864 29.1893 35.215C29.4155 35.2053 30.0158 35.0186 30.0158 35.0186L30.1405 35.1037L30.4067 34.9917C30.4067 34.9917 30.1577 34.8954 30.3388 34.2895C30.5086 33.7571 30.6617 33.7855 30.6748 33.7459C30.6878 33.7063 30.7994 33.1456 30.7994 32.919C30.8842 32.6248 30.9521 31.7299 30.9521 31.7299L30.7711 29.7535L29.7519 29.136L28.9231 28.3359L28.1413 29.8084L27.6265 30.3217L27.5869 31.5959L27.6489 31.7378Z" fill="#E2C270"></path>
<path fill-rule="evenodd" clip-rule="evenodd" d="M30.1016 30.0844C30.1016 30.0844 30.2826 30.5996 30.3509 30.9961C30.375 30.919 30.3883 30.839 30.3905 30.7583C30.3905 30.7583 30.532 31.54 30.56 31.863C30.6168 31.8514 30.672 31.8346 30.6847 31.891C30.6974 31.9473 30.8266 32.5764 30.7967 32.9273C31.0325 32.5383 31.3589 32.2119 31.748 31.9761C31.9746 31.8342 32.2408 31.6815 32.5185 31.67C32.9546 31.6588 33.2715 31.9477 33.7927 31.9477C35.0497 31.9477 36.1884 31.0245 37.0265 30.7415C37.6436 30.5317 38.176 30.379 38.5497 30.0389C38.7312 29.8862 39.0541 29.5464 39.3483 29.0421C39.7392 28.3701 40.1468 27.785 40.5549 27.7115C40.3703 27.7454 40.1825 27.7587 39.9949 27.7511C39.9949 27.7511 40.1196 27.6264 40.3309 27.4565C40.5422 27.2866 40.7953 27.0772 41.1575 27.0772C41.8033 27.0772 42.1259 27.1732 42.4884 27.1732C42.8509 27.162 43.0603 27.0772 43.0603 27.0772C43.0603 27.0772 43.44 27.3434 44.2949 27.3434C45.1503 27.3546 45.7222 27.4281 46.1698 27.4681C46.6175 27.508 48.1179 27.3434 48.5483 27.3561C48.829 27.3669 49.1045 27.4343 49.3585 27.5543L47.9708 23.5223L42.986 19.1655L40.0184 21.2666L35.4533 25.8314L31.036 27.4681L30.1128 28.5045V30.0844H30.1016Z" fill="#CCB360"></path>
<path fill-rule="evenodd" clip-rule="evenodd" d="M40.012 27.7731C40.012 27.7731 40.1366 27.6488 40.3457 27.479C40.5548 27.3091 40.8105 27.0993 41.1726 27.0993C41.8181 27.0993 42.1411 27.1956 42.5036 27.1956C42.8661 27.1844 43.0755 27.0993 43.0755 27.0993C43.0755 27.0993 43.4556 27.3651 44.3101 27.3651C45.1654 27.3763 45.7374 27.4498 46.185 27.4894C46.6326 27.529 48.1331 27.3651 48.5635 27.3774C48.8441 27.388 49.1196 27.4554 49.3733 27.5757L48.7446 25.7575L48.0143 24.3702L45.93 22.0877C45.93 22.0877 43.4287 20.6152 43.4097 20.604C43.3985 20.5928 42.5432 20.3662 42.5432 20.3662L40.2778 21.7367L38.2222 27.0548L38.1826 28.1748L39.5132 28.8035C39.8473 28.2435 40.2158 27.7955 40.5611 27.7388C40.2494 27.7728 40.0116 27.7728 40.0116 27.7728L40.012 27.7731Z" fill="#D5B457"></path>
<path fill-rule="evenodd" clip-rule="evenodd" d="M39.9836 28.1531C39.7854 28.1643 39.6215 28.1247 39.5759 27.9832C39.4061 27.5076 39.2702 27.4396 39.1279 27.4396C38.9857 27.4396 38.7938 27.7454 38.6799 27.7734C38.5661 27.8014 38.4309 27.4225 38.4309 27.4225L38.3062 27.3657C38.3062 27.3657 37.5756 27.8413 37.0604 28.4021C36.5452 28.9628 35.7011 29.9145 35.3218 30.084C34.9425 30.2535 33.6396 30.3106 33.1938 30.4069C32.748 30.5032 32.2537 30.8261 32.1858 30.8997C32.1179 30.9732 32.3844 31.0524 32.424 31.1259C32.4636 31.1939 31.9876 31.1655 31.948 31.2379C31.92 31.2947 32.06 31.6172 32.1294 31.7815C32.2509 31.7211 32.3843 31.6882 32.5199 31.6852C32.956 31.674 33.2733 31.9629 33.7941 31.9629C35.0515 31.9629 36.1898 31.0397 37.0279 30.7563C37.6454 30.5469 38.1778 30.3938 38.5515 30.0541C38.7326 29.9014 39.0555 29.5613 39.3501 29.0573C39.5651 28.712 39.7749 28.389 39.9847 28.1512L39.9836 28.1531Z" fill="#D2B257"></path>
<path fill-rule="evenodd" clip-rule="evenodd" d="M21.9518 56.1815C21.9518 56.1815 21.8398 55.7623 20.8019 54.6807C20.5074 54.375 20.3263 54.1207 20.1281 53.9389C19.6353 53.4741 19.3463 53.3498 18.9954 53.0836C18.2252 52.5116 17.387 52.5116 16.7416 51.8094C16.0961 51.1072 15.3438 49.7654 14.8211 48.3942C14.3059 47.0236 14.1641 46.5876 14.1641 46.548C14.1641 46.5084 14.3059 46.2423 14.487 46.2818C14.6681 46.3214 14.6681 46.6723 14.7136 46.7575C14.8038 46.8964 14.9061 47.0271 15.0194 47.148C15.2856 47.4541 15.6649 47.82 15.8575 48.3658C15.8179 47.9014 15.6593 47.3862 15.6593 47.3862C15.6593 47.3862 16.6561 48.0148 17.5054 48.6715C18.3607 49.3286 18.7116 49.5552 18.9614 49.9741C19.2112 50.393 19.7995 51.4977 20.0814 51.8206C20.3633 52.1435 24.2254 53.361 24.2254 53.361L26.0626 54.7307L26.9746 56.7299L26.2608 57.8499L24.8903 58.1445L22.6645 57.1477L21.9518 56.1811V56.1815Z" fill="#D2B159"></path>
<path fill-rule="evenodd" clip-rule="evenodd" d="M17.0068 49.2948C17.0068 49.2948 17.4713 50.0366 18.604 50.7389C19.6235 51.3564 21.2374 51.9171 22.6763 52.2512C23.5028 52.4495 24.3298 52.6022 25.0716 52.6137C27.0708 52.6417 28.4469 52.0702 30.1519 51.8831C31.0752 51.7868 32.2079 51.7133 33.3857 51.4351C34.8977 51.0726 35.7926 50.6646 37.0104 50.0911C37.8937 49.6834 38.7039 49.3777 39.3605 48.9868C40.2838 48.4432 40.9577 47.8373 41.7394 47.6562C41.6431 47.9224 41.5412 48.3981 40.771 48.8909C41.1787 48.8793 41.7394 48.8513 41.7394 48.8513C41.7394 48.8513 41.1959 49.1738 40.2386 49.8989C39.6495 50.3469 38.8681 51.1051 38.0696 51.6091C37.554 51.932 36.9932 52.1691 36.6251 52.3625C35.7291 52.8553 35.3677 53.1043 34.779 53.7065C34.9884 53.6953 35.0056 53.7065 35.0056 53.7065C35.0056 53.7065 34.2634 53.8028 33.7314 54.0858C33.6194 54.0858 33.4253 54.0462 33.0856 54.1425C32.8194 54.2273 32.4681 54.4203 32.1059 54.5219C31.5904 54.6749 31.4209 54.607 31.4209 54.607L31.5056 54.7768C31.5056 54.7768 30.8336 54.7653 30.6096 54.788C30.6492 54.7992 30.638 54.8164 30.638 54.8164C30.5986 54.823 30.5607 54.8364 30.526 54.856C30.4182 54.9258 30.2996 54.9774 30.1751 55.0087C30.1071 55.0199 30.0504 55.0199 29.9652 55.037C29.9936 55.105 30.2146 55.485 30.3165 55.709C30.2318 55.7658 28.9572 56.7286 28.9572 56.7286C28.9968 56.7908 29.0291 56.8573 29.0536 56.9269C29.0931 57.0512 29.1103 57.2326 29.1499 57.3174C29.2458 57.4872 29.3026 57.5156 29.3026 57.5156C29.3026 57.5156 29.1499 57.544 28.8833 57.6119C28.6571 57.6687 28.3793 57.7646 27.9873 57.8214C27.867 57.837 27.7461 57.8465 27.6248 57.8497C27.6816 57.9744 27.9306 58.4501 27.4717 58.9992C27.0129 59.5484 26.8714 59.6283 26.7299 59.9792C26.6587 59.9254 26.5829 59.8779 26.5033 59.8374C26.3506 59.7694 26.1408 59.6679 26.0673 59.5316C26.0244 59.7132 25.9676 59.8911 25.8974 60.064C25.7559 60.4433 25.5465 60.8174 25.5069 61.1004C25.3538 60.9305 25.0708 60.5964 24.68 60.6643C24.2891 60.7323 23.9777 61.2646 23.9098 61.4177C23.9098 61.3214 23.8418 61.2478 23.825 61.3609C23.8134 61.4856 23.5984 62.7878 22.3978 63.8414C22.3866 63.5752 22.3866 62.9861 22.3582 62.7938C22.2462 62.9058 22.1092 63.0712 21.2934 63.4225C20.4949 63.7734 20.6214 64.1247 20.6214 64.1247C20.6214 64.1247 20.5535 63.5647 20.984 62.9749C21.42 62.3861 21.6862 62.1084 21.6862 62.0632C21.6792 62.0172 21.6595 61.974 21.6294 61.9385C21.5727 61.8817 21.4596 61.8138 21.4596 61.7686C21.5275 61.7406 22.2014 61.4177 22.1618 60.749C22.1223 60.1491 21.8676 59.8374 21.6862 59.6167C21.6582 59.5884 21.9528 59.3789 21.9128 59.311C21.8844 59.2714 21.5223 59.0048 21.4768 58.863C21.4875 58.7783 21.5065 58.6949 21.5335 58.614C21.5731 58.4893 21.6015 58.4041 21.5903 58.3194C21.5619 58.1779 21.4088 57.787 21.3636 57.7475C21.4032 57.7587 21.6862 57.7475 21.6862 57.7475C21.6862 57.7475 21.46 57.3849 21.42 57.2151C21.3801 57.0452 21.2953 56.5976 21.2501 56.5128C21.3465 56.524 21.5843 56.5408 21.5843 56.5128C21.5958 56.4277 21.3748 56.2862 21.4723 56.1768C21.5402 56.188 21.6705 56.2448 21.7948 56.4035C21.7269 56.222 21.6138 55.8711 21.3756 55.7296C21.4876 55.69 21.8684 55.5877 22.2025 55.786C22.5366 55.9842 22.6505 56.2616 22.6505 56.2616C22.6505 56.2616 22.8488 56.4147 23.1549 56.6413C23.5058 56.9187 23.9531 57.3133 24.6669 57.5925C24.82 57.6776 25.2105 57.6776 25.4938 57.6209C25.6172 57.5915 25.7355 57.5438 25.8448 57.4794C25.8842 57.4561 25.926 57.4371 25.9694 57.4226C25.9086 57.3004 25.8386 57.183 25.76 57.0713C25.8563 57.0713 25.9694 57.0829 25.9694 57.0829C25.9694 57.0829 26.0374 56.9299 25.7316 56.6349C25.7996 56.567 25.8847 56.5229 25.8847 56.4083C25.7884 56.3971 25.6185 56.2556 25.5789 56.1989C25.6353 56.1593 25.7204 56.029 25.8168 55.9894C25.7316 55.9215 25.5222 55.6381 25.4259 55.6101C25.5179 55.576 25.6069 55.5343 25.6921 55.4854C25.6921 55.4854 25.2164 55.3607 25.0634 55.2588C24.9103 55.1468 24.6841 54.9531 24.5482 54.8963C24.4063 54.8396 24.1573 54.8116 24.0554 54.6981C24.1513 54.7264 24.3044 54.6981 24.4179 54.6981C24.5026 54.6981 24.5426 54.7093 24.5706 54.7093C24.5594 54.6697 24.5594 54.5846 24.7804 54.5566C24.8867 54.5405 24.9898 54.508 25.0861 54.4603C25.0861 54.4603 24.8763 54.4491 24.6381 54.2224C24.4 53.9958 24.2021 53.8148 24.0662 53.7864C23.9247 53.758 23.6585 53.8827 23.4943 53.8711C23.2676 53.8431 23.1713 53.7296 23.1713 53.7296C23.1713 53.7296 22.4183 53.7976 20.7476 52.7784C19.3032 51.8947 18.6745 51.1133 18.6745 51.1133C18.5393 51.0643 18.4087 51.0035 18.284 50.9319C17.7404 50.6489 16.987 50.0598 17.0098 49.2892L17.0068 49.2948Z" fill="#C2A44D"></path>
<path fill-rule="evenodd" clip-rule="evenodd" d="M37.843 15.3028C37.9741 15.3453 38.0905 15.4238 38.179 15.5294C38.4452 15.8351 38.6151 16.4127 38.0092 17.0302C38.247 17.1149 38.3452 17.1422 38.5527 17.1149C38.3433 17.3643 37.8677 17.8967 37.8393 18.3611C37.8109 18.7404 38.0487 18.8539 38.0487 18.8539C38.0487 18.8539 37.6862 19.2728 37.6694 19.9739C37.8406 19.7809 38.028 19.6028 38.2294 19.4415C38.6487 19.1074 39.2262 18.7281 39.6171 18.4903C39.6118 18.59 39.6252 18.6897 39.6567 18.7845C39.6567 18.7845 40.3869 18.1842 41.0007 18.4507C41.2781 18.5754 41.1534 18.9659 41.1534 18.9659C41.1534 18.9659 41.5331 18.8244 41.7992 19.0906C42.0654 19.3568 42.4418 20.0434 42.6348 20.3095C42.7195 20.4342 42.9405 20.672 43.1668 21.0402C43.4758 21.5555 43.7339 22.0998 43.9373 22.6653C43.9485 22.3707 44.0221 21.9123 44.8606 22.2008C45.6987 22.4954 46.65 23.1129 47.4485 24.3288C48.2471 25.5448 48.445 26.9175 48.847 27.4402C49.2547 27.9442 49.674 28.7823 49.7023 29.1336C49.7307 29.485 49.5776 30.6173 50.4158 33.6812C50.6536 32.73 51.0161 30.6173 51.0161 30.6173L51.2143 28.754L51.441 22.9886L45.4206 17.987L40.7143 14.5718L37.6504 14.8663L37.8427 15.3024L37.843 15.3028Z" fill="#CAA13E"></path>
<path fill-rule="evenodd" clip-rule="evenodd" d="M49.0285 23.8823C49.0285 23.8823 48.9433 23.3223 47.5277 22.3703C46.1116 21.4303 45.0073 21.4303 43.9881 20.6317C43.2063 20.003 42.391 18.5586 41.8601 18.083C41.3445 17.6129 41.2598 16.2536 41.2598 16.2536L42.9984 14.7976L45.5841 11.0602L47.77 8.65332L48.8175 10.1093L50.2735 11.8196L51.0833 15.2516L51.3778 20.2752L49.0258 23.8827L49.0285 23.8823Z" fill="#B59544"></path>
<path fill-rule="evenodd" clip-rule="evenodd" d="M50.7783 29.9038C50.8212 29.142 50.7271 28.3787 50.5006 27.65C50.1272 26.489 49.3115 24.4274 48.9326 23.6554C48.7795 22.8 48.893 22.7321 49.0573 22.6358C49.2215 22.5395 49.839 22.1878 50.1773 20.9539C50.5155 19.72 51.5649 19.6797 51.5649 19.6797L52.2104 19.2041L53.1904 21.6562L54.0454 23.8708L54.3115 25.5642L54.5098 27.0083L54.0454 30.061L51.752 32.1338L50.7779 29.9038H50.7783Z" fill="#C89D3A"></path>
<path fill-rule="evenodd" clip-rule="evenodd" d="M18.7744 63.9295V63.8667C18.8221 63.8369 18.8641 63.799 18.8987 63.7547C18.9383 63.698 18.9671 63.63 18.9951 63.6132C19.0518 63.5849 19.318 63.5012 19.4595 63.5281C19.601 63.555 19.9751 63.7092 20.1733 63.698C20.581 63.6868 21.0566 63.3751 21.81 63.5169C22.9427 63.7264 23.2089 64.4965 23.8659 64.9326C24.3139 65.2387 24.7776 65.1025 24.8456 65.1025H24.9983C25.0266 65.1025 25.2361 64.8647 25.3496 64.8762C25.5762 64.8874 25.5986 65.0745 25.7401 65.0857C26.0742 65.1252 26.7201 64.9158 27.043 65.0009C27.1388 65.0309 27.2258 65.0836 27.2968 65.1545C27.3678 65.2255 27.4206 65.3125 27.4507 65.4082C27.5186 65.6177 27.4619 65.8839 27.2976 66.0369C26.9467 66.3595 26.6125 66.6656 26.5446 66.9329C26.631 66.9988 26.714 67.0691 26.7932 67.1435C23.9911 66.4295 21.295 65.35 18.7744 63.9328V63.9295Z" fill="#CEB052"></path>
<path fill-rule="evenodd" clip-rule="evenodd" d="M48.9316 52.6138C48.9316 52.6138 49.8149 51.4359 50.1211 50.8524C50.4268 50.251 49.1527 42.635 49.1527 42.635L51.7126 34.2477L51.6443 31.5179C51.6443 31.5179 51.769 28.9975 52.0635 27.9044C52.4148 28.5331 53.508 29.292 53.7458 29.6941C53.8578 28.9236 54.2382 27.2984 54.1818 25.5654C54.3913 25.888 54.8953 29.1334 54.8953 29.1334L55.3993 31.3192L56.0563 33.6414L56.7869 36.0938L57.223 37.7872L57.472 38.1949L57.6818 38.9084L57.8801 39.6789L58.452 41.4855L58.788 42.9691L59.0542 45.6593C59.1121 45.8653 59.1538 46.0755 59.1789 46.288C59.1901 46.5826 59.1393 46.7525 59.1393 46.8036C59.1393 46.8548 59.2356 47.4491 59.1961 47.8967C59.1393 48.3447 59.1393 48.6953 58.788 49.0167C58.4367 49.3382 58.2161 51.2593 58.2161 51.2593L57.5874 50.8405C57.5874 50.8405 57.7121 50.2682 57.4175 49.7474C57.1229 49.2266 56.551 49.1187 56.2281 49.2038C55.9055 49.2717 55.26 49.3733 55.0502 49.5547C54.852 49.7358 54.3651 50.2965 53.9175 50.5515C53.3575 50.8875 52.4451 50.914 51.9583 51.0271C51.4655 51.1391 50.9219 51.4751 50.3496 51.8653C49.9008 52.1558 49.4271 52.4057 48.9339 52.6119L48.9316 52.6138Z" fill="#CCA847"></path>
<path fill-rule="evenodd" clip-rule="evenodd" d="M48.9316 64.9882C48.9316 64.9882 48.969 65.0125 49.041 65.052C53.0646 63.1669 56.6698 60.4948 59.6437 57.1934C59.6112 56.0472 59.569 54.8724 59.5227 54.437C59.4268 53.5138 59.4947 52.5737 59.4664 52.0302C59.438 51.4866 59.1322 49.272 58.9907 48.7C58.8377 48.1281 58.5427 47.8447 58.4979 47.8447C58.4584 47.8563 58.2202 48.921 58.2202 49.1887C58.2202 49.4564 58.1634 50.1008 58.1634 50.265C58.1239 50.2535 58.1071 50.153 58.1071 50.112C58.0503 50.2535 57.9824 50.5029 57.954 50.5312C57.9256 50.5596 57.9936 50.2934 57.954 50.2367C57.9144 50.1799 57.842 50.2083 57.8577 50.0668C57.8644 49.9829 57.8776 49.8996 57.8972 49.8178C57.8972 49.8178 57.7274 50.0668 57.6031 50.7011C57.4784 51.3298 57.4784 51.347 57.4332 51.4033C57.3936 51.4717 57.167 51.6979 57.1554 51.783C57.1442 51.9357 57.3652 52.0888 57.382 52.1735C57.3932 52.3154 57.1838 52.9721 57.1159 53.2935C57.0479 53.615 57.0763 54.2448 57.0039 54.5677C56.9471 54.8623 56.8919 55.0321 56.6981 55.1565C56.8396 55.1848 56.9755 55.2244 56.9755 55.2244C56.9755 55.2244 57.1737 56.0625 56.6697 56.7764C56.4887 57.0254 56.4435 57.1389 56.2508 57.3655C55.8712 57.7844 55.5766 58.2615 55.5482 58.5717C55.5286 58.4802 55.5154 58.3873 55.5087 58.294C55.5087 58.294 54.9199 58.9794 54.6705 59.3703C54.348 59.8743 53.9003 59.8459 53.7745 59.9706C53.6487 60.0953 53.6215 60.3215 53.6625 60.503C53.5505 60.531 53.34 60.5709 53.1981 61.007C53.1301 61.2332 52.9603 61.455 52.6941 61.6073C52.4279 61.7596 52.105 61.8055 51.9407 61.8451C52.0822 61.8847 52.1389 61.8847 52.2069 61.9298C52.1221 62.0713 51.7313 62.2924 51.2952 62.5757C50.8592 62.8419 50.6493 63.2324 50.5418 63.4874C50.4298 63.7252 50.2644 63.8783 49.9983 63.9066C50.1103 63.9746 50.276 64.1329 50.3608 64.184C50.2361 64.2124 50.0248 64.2124 49.6473 64.5353C49.2508 64.8639 49.1149 64.9602 48.9335 64.9886L48.9316 64.9882Z" fill="#C39D3C"></path>
<path fill-rule="evenodd" clip-rule="evenodd" d="M41.0517 67.6124C41.2685 67.4604 41.5034 67.3359 41.7509 67.2417C42.6342 66.8908 43.5687 66.8228 43.9368 66.7097C44.2881 66.5977 44.5655 66.4431 45.0015 66.3584C44.99 66.4577 44.9803 66.551 44.9698 66.6391C43.6842 67.0433 42.3751 67.3683 41.0498 67.6124H41.0517Z" fill="#D2BA6B"></path>
<path fill-rule="evenodd" clip-rule="evenodd" d="M57.3445 44.3789C57.3445 44.3789 57.1634 45.3585 56.8405 45.976C56.5176 46.5935 56.1685 47.4484 56.1685 47.4484C56.1706 47.2557 56.1934 47.0639 56.2364 46.8761C55.8288 47.1139 54.8376 47.6862 54.5564 47.9408C54.2903 48.1786 53.8426 48.5979 53.7295 48.7961C53.9957 48.0148 54.2731 47.3125 54.3186 46.9896C53.9109 47.2841 52.0077 48.8529 51.0169 49.8893L47.9301 52.3869C47.5739 52.579 47.2071 52.7508 46.8314 52.9013C46.2994 53.1276 45.6707 53.3202 45.2063 53.5016C45.331 53.1675 45.5289 52.8726 45.8066 52.5896C46.1012 52.3122 46.9845 51.355 47.1204 50.9096C47.2451 50.4452 47.2735 50.1678 47.1092 49.7769C46.9561 49.8165 46.6052 49.8336 46.3674 49.9016C46.1296 49.9695 45.8746 50.2241 45.8746 50.2241C45.8746 50.2241 46.0556 49.1878 46.4465 48.2081C46.152 48.2193 45.648 48.3041 45.648 48.3041C45.648 48.3041 46.3502 47.1262 47.552 46.3053C47.1839 46.3836 46.8238 46.4953 46.476 46.639C45.7738 46.9336 45.0036 47.3696 44.4316 47.6074C44.7542 47.1594 47.0196 43.9264 48.3677 40.9132C49.7117 37.906 50.2138 37.1358 50.5084 35.5219C50.6611 34.7233 50.6204 33.5432 50.6611 32.4863C50.7007 31.4384 50.8309 30.4983 50.7462 29.8696C51.0971 30.3057 52.4113 31.5347 52.4564 34.2817C52.496 37.0283 51.1994 40.7381 49.8229 42.7369C50.1589 42.8333 51.0296 42.9467 51.9241 41.3929C52.8186 39.8391 52.8077 39.4053 53.1307 38.7594C53.1703 39.0824 53.1587 39.1955 53.1587 39.1955C53.1587 39.1955 54.4616 37.6155 55.0787 35.6275C55.2034 36.4829 55.5715 37.2362 54.9936 38.805C54.4784 40.2207 53.8046 40.5664 53.8046 40.5664C53.8046 40.5664 54.1387 40.5096 54.6311 40.2151C54.7162 40.4245 54.6994 40.6631 54.8409 40.7474C54.9824 40.8318 55.1751 40.9741 55.2034 41.11C55.3561 40.8833 55.5939 40.5944 55.6679 40.3793C55.6111 40.8273 55.5715 42.7862 55.7799 43.783C56.2163 43.7434 56.6635 43.7151 56.9693 42.9277C56.7599 43.6983 56.7599 44.1623 56.9013 44.8194C57.1336 44.6611 57.343 44.3777 57.343 44.3777L57.3445 44.3789Z" fill="#C0993A"></path>
<path fill-rule="evenodd" clip-rule="evenodd" d="M42.6292 13.1617C42.6292 13.1617 42.1931 13.3428 41.4513 13.3428C40.8058 13.3428 40.9869 13.0938 39.9789 13.0938C38.4273 13.0938 33.0072 13.9898 32.0556 13.9771C31.4381 13.9659 34.1396 14.2432 34.1396 14.2432L41.0436 14.3396L42.4309 14.2276L42.9465 13.1785L42.6292 13.1617Z" fill="#A88F33"></path>
<path fill-rule="evenodd" clip-rule="evenodd" d="M24.7268 26.6581C24.7268 26.6581 23.8432 27.3319 23.4695 27.8475C23.0958 28.3631 22.8975 28.7024 22.4727 29.1217C22.5724 29.1255 22.672 29.1121 22.7672 29.0821C22.7672 29.0821 22.7672 29.1941 22.6993 29.2236C22.758 29.217 22.8174 29.2237 22.8732 29.2431C22.929 29.2625 22.9798 29.2941 23.0218 29.3356C22.8971 29.4036 22.5574 29.7437 22.8236 30.1457C23.0218 30.4515 23.4411 30.4795 23.4411 30.4795C23.4411 30.4795 23.3448 30.7573 23.7468 30.7289C24.6133 30.6893 25.5818 30.3096 26.029 30.406C26.477 30.518 26.7316 30.559 27.0486 31.1086C27.3846 31.6521 27.6773 31.7373 27.6773 31.7373C27.6773 31.7373 27.8755 31.2329 27.8304 30.4799C27.9929 30.074 28.083 29.6427 28.0965 29.2057L27.802 27.0366L26.5166 25.4111L24.8515 26.3344L24.7268 26.6569V26.6581Z" fill="#E3C571"></path>
<path fill-rule="evenodd" clip-rule="evenodd" d="M26.3066 26.3351C26.3066 26.3351 26.4313 26.6296 26.9525 26.6576C26.8958 26.7823 26.8958 26.7995 26.9129 26.8954C26.9241 26.9917 26.9409 27.1332 26.9409 27.1332C26.9983 27.1055 27.0502 27.0675 27.094 27.0212C27.1224 27.1459 27.0656 27.3438 27.094 27.4857C27.1115 27.5719 27.14 27.6556 27.1787 27.7347C27.187 27.7153 27.1965 27.6965 27.2071 27.6783C27.2183 27.6499 27.3191 27.9841 27.598 28.2383C27.5978 28.1992 27.6074 28.1607 27.626 28.1263C27.6303 28.1973 27.6538 28.2658 27.6939 28.3245C27.6731 28.3146 27.654 28.3012 27.6376 28.285C27.6376 28.285 27.6656 29.181 27.8186 29.6443C27.8442 29.6143 27.867 29.5821 27.8866 29.548C27.8866 29.52 27.8754 29.7974 27.847 29.996C27.8074 30.1942 27.8358 30.4716 27.8358 30.4716C27.9379 30.3912 28.0501 30.3246 28.1696 30.2734C28.3394 30.205 28.6176 29.9956 28.7871 29.5312C28.8854 29.2681 28.9612 28.9973 29.0137 28.7214C29.0684 28.8268 29.1062 28.9402 29.1257 29.0574C29.1373 29.1989 29.4034 29.1254 29.4034 29.1254L29.4602 28.5079L29.7962 27.109L30.1019 26.2425L31.5744 23.9491L34.2347 21.9002L36.5569 22.4326L38.5161 19.7707L35.1408 17.7432L31.9466 18.0773L29.0477 22.0925L26.7259 25.7344L26.3066 26.3347V26.3351Z" fill="#D8B65B"></path>
<path fill-rule="evenodd" clip-rule="evenodd" d="M43.0364 20.5244C43.0364 20.5244 42.8382 20.564 42.2662 20.8604C41.6943 21.1568 41.2978 21.2509 41.0768 21.687C40.8558 22.123 40.839 22.4687 40.839 22.4687C40.839 22.4687 41.2298 22.2989 41.4564 22.2421C41.6943 22.1858 41.9605 22.2026 41.9321 22.2989C41.9048 22.3649 41.867 22.4261 41.8201 22.4799C41.8201 22.4799 42.2681 22.4687 42.2561 22.6898C42.2442 22.9108 42.1714 23.1542 42.0866 23.2617C42.0015 23.3737 41.6506 23.5395 41.611 23.6698C41.5147 23.9359 41.6506 23.9471 41.5994 24.1622C41.5599 24.372 41.3732 24.7797 40.7613 25.4931C40.1326 26.2069 39.8653 26.7109 39.8653 26.7109C39.8653 26.7109 39.5595 26.139 39.4009 25.6462C39.2889 25.7026 38.6874 26.0367 38.6874 26.0367L37.2942 21.1834L37.3222 20.8604C37.3222 20.8604 37.4468 20.7077 37.4752 20.4244C37.2658 20.3564 37.2374 20.2997 36.9597 20.0339C36.6819 19.768 36.4557 19.4447 35.9916 19.2237C35.9237 19.099 35.8385 18.9295 35.4988 18.8612C35.1591 18.7929 34.9552 18.7369 34.9552 18.7369C34.9552 18.7369 35.1363 18.6686 35.2214 18.5271C35.0116 18.5555 34.8421 18.6234 34.3833 18.6122C33.9188 18.6006 33.8677 18.5838 33.6131 18.6234C33.3585 18.663 33.0531 18.7765 32.9392 18.3856C32.8145 18.2893 32.5483 18.3744 32.3217 18.7082C32.0951 19.0419 32.016 19.3085 31.5799 19.4388C31.5493 19.631 31.482 19.8155 31.3817 19.9823C31.257 20.1922 31.0587 20.4016 30.7926 20.713C30.3733 21.2058 30.4412 22.0155 29.773 22.633C29.0991 23.2501 29.885 20.9224 29.885 20.9224L30.9609 18.3464L34.0249 15.3504L38.7823 15.0278L39.2467 17.4918L41.5688 18.2904L43.0356 20.5274L43.0364 20.5244Z" fill="#D3AE4D"></path>
<path fill-rule="evenodd" clip-rule="evenodd" d="M43.7895 21.0683L41.7903 18.1858L40.3914 17.1095C40.3914 17.1095 39.3946 15.2749 39.3267 15.2182C39.2699 15.1786 38.3299 15.0767 37.7296 15.0371L37.8416 15.3145C37.9726 15.3571 38.089 15.4356 38.1776 15.5411C38.4438 15.8469 38.6136 16.4244 38.0077 17.0419C38.2455 17.1267 38.3437 17.1539 38.5513 17.1267C38.3418 17.376 37.8662 17.9084 37.8378 18.3728C37.8095 18.7521 38.0473 18.8653 38.0473 18.8653C38.0473 18.8653 37.6848 19.2845 37.668 19.9853C37.8392 19.7922 38.0265 19.6141 38.228 19.4529C38.6472 19.1169 39.2248 18.7391 39.6157 18.5013C39.6103 18.6011 39.6237 18.701 39.6552 18.7958C39.6552 18.7958 40.3855 18.1955 40.9992 18.4617C41.2766 18.5864 41.1519 18.9773 41.1519 18.9773C41.1519 18.9773 41.5316 18.8358 41.7978 19.102C42.064 19.3681 42.4433 20.0532 42.6359 20.3198C42.7207 20.4445 42.9417 20.6823 43.1679 21.05C43.4771 21.5655 43.7351 22.1099 43.9385 22.6755C43.9497 22.4489 43.9952 22.1319 44.3865 22.1319L43.7918 21.0672L43.7895 21.0683Z" fill="#CAA13E"></path>
<path fill-rule="evenodd" clip-rule="evenodd" d="M13.8187 29.2576C13.8187 29.2576 13.6773 28.9063 13.8187 28.2212C13.9602 27.5362 14.1813 27.2132 14.2548 26.2052C14.3283 25.1972 14.9854 23.9398 14.9854 23.9398L16.8032 23.1133L18.0889 23.4642L18.4682 25.186L16.8427 26.082C16.8427 26.082 16.758 26.4613 16.2992 26.7671C15.8403 27.0729 15.2061 27.3107 15.0534 27.6224C14.9621 27.8133 14.8955 28.015 14.8551 28.2227C14.8551 28.2227 14.3907 28.1264 14.1133 28.4322C13.8187 28.7439 13.8299 29.0213 13.8187 29.2591V29.2576Z" fill="#F4EFC8"></path>
<path fill-rule="evenodd" clip-rule="evenodd" d="M17.4888 28.7986C17.4888 28.7986 17.3358 28.8949 17.2227 29.1346C17.1107 28.9535 16.843 27.8772 16.8318 26.9088C16.8206 25.9404 16.7627 25.7003 16.9867 25.3666C17.2107 25.0328 18.0892 24.6811 17.9645 24.08C17.8398 23.5081 17.3186 23.2703 16.6787 23.4346C16.2307 23.5466 15.8973 24.4993 15.4329 24.9749C15.0816 25.3374 14.6627 25.2807 14.5496 25.4789C14.3965 25.7451 14.538 26.0113 14.4928 26.1812C14.4813 26.2379 14.3398 26.5437 14.0848 26.9118C13.5696 27.6536 12.6975 28.7015 12.584 29.6416C12.6236 29.1092 12.5956 29.098 12.7371 28.5089L12.6519 28.3674L13.2119 26.5325L13.5744 25.0205L14.3846 22.4885L15.8115 19.9006L17.1991 18.3486L18.6432 18.445L18.8131 20.614L19.64 24.6863L21.3786 26.827L18.592 28.7023L17.4877 28.7986H17.4888Z" fill="#EBCC73"></path>
<path fill-rule="evenodd" clip-rule="evenodd" d="M18.3553 29.568C18.3553 29.568 18.1175 29.6247 18.0324 29.5796C17.9473 29.5344 17.8629 29.4832 17.8909 29.4265C17.9189 29.3697 18.072 29.2738 18.072 29.2283C18.0751 29.1871 18.0621 29.1463 18.0357 29.1146C18.0093 29.0829 17.9715 29.0627 17.9305 29.0584C17.8002 29.0416 17.7606 29.1263 17.7606 29.1263C17.7606 29.1263 17.6359 29.0304 17.5344 29.0143C17.5945 29.007 17.6549 29.0031 17.7155 29.0028C17.5589 28.9319 17.3929 28.8842 17.2227 28.8613C17.3641 28.7765 17.6419 28.5271 17.823 28.5271C18.004 28.5271 18.1175 28.4991 18.0892 28.4028C18.0608 28.3065 17.9193 28.165 17.7666 28.1083C17.823 28.0403 17.8629 27.9384 17.727 27.6603C17.5852 27.3829 17.6419 27.1958 17.6875 27.1283C17.727 27.0431 17.8685 26.8904 17.9365 26.7941C18.0044 26.6978 18.0612 26.5675 18.1743 26.4996C18.231 26.46 18.4121 26.3876 18.5935 26.3185C18.7918 26.2505 18.956 26.1654 19.0692 26.2505C19.1939 26.3353 19.1371 26.4488 19.1371 26.4488C19.1371 26.4488 19.528 26.3069 19.8789 26.4884C20.2302 26.6579 21.0855 26.7657 21.0855 26.7657L21.392 27.3832L19.3645 29.1219L18.5263 29.5411L18.3565 29.5691L18.3553 29.568Z" fill="#E5C66B"></path>
<path fill-rule="evenodd" clip-rule="evenodd" d="M21.1698 26.7259C21.1698 26.7259 20.5411 27.1451 20.3996 27.2978C20.4844 27.3094 20.6259 27.3661 20.5691 27.4509C20.5012 27.5356 20.0935 27.8302 19.8669 28.1079C19.6291 28.3853 19.4025 28.7366 19.3233 28.9065C19.2386 29.0592 18.5927 29.5068 18.3721 29.5632C18.8365 29.5632 19.771 28.9912 20.1219 28.9912C20.1107 29.1611 20.2182 29.3538 20.4164 29.3706C20.6147 29.3874 21.1866 29.4952 21.9568 29.0196C22.727 28.5552 22.4724 28.2095 22.795 27.9832C23.4124 27.5752 23.6615 27.2127 24.0012 26.9864C24.3409 26.7602 24.5168 26.7087 24.5168 26.7087C24.5168 26.7087 24.528 26.5388 24.6288 26.556C24.6564 26.5592 24.6826 26.5698 24.7045 26.5868C24.7265 26.6038 24.7434 26.6264 24.7535 26.6523C24.7535 26.6523 25.3426 26.2331 26.0975 26.1199C26.0798 26.1121 26.0658 26.098 26.0579 26.0804C26.0579 26.0804 26.1143 26.052 26.1258 26.0236C26.1258 26.0236 26.1654 25.9669 26.1938 25.9952C26.2222 26.0236 26.2617 26.2331 26.3185 26.3182C26.4432 26.2614 26.681 25.7291 26.681 25.7291L27.2533 24.0924V22.5972L26.8053 22.6823L23.4453 24.1092L21.4062 26.2219L21.1683 26.7259H21.1698Z" fill="#E6BD62"></path>
<path fill-rule="evenodd" clip-rule="evenodd" d="M30.8433 19.3918C31.0251 19.3477 31.1993 19.277 31.3604 19.182C31.2924 19.3634 31.2924 19.5617 30.9979 19.9921C30.7033 20.4226 30.6921 20.4849 30.4543 20.9322C30.2165 21.3966 30.1881 22.0649 29.9615 22.359C30.0631 22.3097 30.172 22.2773 30.2841 22.2631C30.2841 22.2631 30.0578 22.4613 29.9615 22.6708C29.8652 22.8802 29.6953 23.3163 29.2764 23.5828C28.8576 23.8494 28.3248 24.0189 27.7529 24.6476C27.1806 25.2647 26.5918 26.0465 26.2969 26.3276C26.4499 26.0614 26.6594 25.529 26.7161 25.1781C26.7729 24.8271 26.7046 24.4075 26.8009 23.9435C26.8972 23.4794 26.8972 23.1449 27.3609 22.3348C27.8246 21.5246 28.6183 18.7101 28.6183 18.7101L30.3285 18.1665L30.8441 19.3899L30.8433 19.3918Z" fill="#B6933F"></path>
<path fill-rule="evenodd" clip-rule="evenodd" d="M29.6084 18.3552C29.6084 18.3552 29.0932 19.097 28.9517 19.7541C28.8102 20.4111 28.9401 20.3544 28.8554 20.6773C28.8047 20.8742 28.8047 21.0807 28.8554 21.2776C29.0338 20.9902 29.2781 20.7493 29.5681 20.575C30.0553 20.2808 30.4518 20.071 30.6881 19.822C30.9259 19.5558 31.1241 19.1198 31.6393 18.7856C31.4299 18.7573 31.1353 18.6609 31.0793 18.6736C31.2892 18.4358 31.9175 18.0733 32.5518 17.6373C33.1805 17.1893 33.1409 17.0086 34.1605 16.5613C33.8263 16.6181 33.6677 16.5329 33.3899 16.5613C33.5019 16.3235 33.8939 16.21 34.2859 15.8195C34.6779 15.429 34.0369 14.8511 34.0369 14.8511L31.0502 16.6576L29.6062 18.3567L29.6084 18.3552Z" fill="#C49937"></path>
<path fill-rule="evenodd" clip-rule="evenodd" d="M21.5039 17.007L21.5719 16.4635L22.4272 15.0929L23.322 12.6861V9.39551L23.2541 7.49263L23.3956 6.24644L23.5031 5.85033L23.6166 5.69727L24.3468 6.07657L25.3552 7.44708L25.4515 10.0921L24.4715 14.266L21.6738 17.3188L21.5039 17.007Z" fill="#DFC068"></path>
<path fill-rule="evenodd" clip-rule="evenodd" d="M23.7298 5.54431C23.7298 5.54431 23.2818 5.55588 23.1863 7.41919C23.0907 9.2825 23.0444 10.2621 22.9765 11.1854C22.9085 12.1086 22.7502 12.669 22.6707 13.213C22.5912 13.7569 22.546 14.4983 22.2914 14.9516C22.1794 15.161 21.9401 15.8181 21.3793 16.3109C20.7506 16.8544 19.8113 17.2341 19.6691 17.2625C19.4197 17.3189 18.1567 17.4436 17.6415 17.7269C17.4605 17.8232 17.1487 17.9364 16.8034 18.2593C16.1179 18.8764 15.2063 19.9807 14.5492 21.3117C13.5412 23.2997 12.5332 28.912 12.5332 28.912L12.7598 28.5327C12.7598 28.5327 12.7882 28.0287 13.2922 27.145C13.785 26.2617 13.6435 25.2705 14.3286 23.5771C14.5947 22.9316 14.9289 22.0934 15.3366 21.3796C15.9824 20.2186 16.7638 19.2218 17.5512 18.6782C18.8366 17.7949 20.2526 17.6022 20.2526 17.6022L21.7762 16.5942C21.7762 16.5942 22.0424 16.079 22.3937 15.4899C22.8861 14.6634 23.5137 13.7401 23.6507 12.398C23.8605 10.41 23.3561 9.1074 23.3845 7.92954C23.4129 6.75167 23.4241 5.88516 23.6623 5.67535C23.9005 5.46554 23.7302 5.54506 23.7302 5.54506L23.7298 5.54431Z" fill="#A88F33"></path>
<path fill-rule="evenodd" clip-rule="evenodd" d="M23.7297 14.4361C23.7297 14.4361 24.4017 12.7822 24.7094 11.3154C24.7661 11.0208 24.8792 10.7266 24.9076 10.4888C25.0491 9.10114 25.0887 8.52919 24.9076 7.77021C24.7661 7.21021 24.2225 6.70546 23.9392 6.31421C23.6618 5.90615 23.5315 5.75421 23.5883 5.66834C23.645 5.58247 23.8656 5.4421 24.0807 5.4589C24.3093 5.46555 24.5341 5.51863 24.7415 5.6149C24.949 5.71117 25.1346 5.84862 25.2873 6.0189C25.7233 6.5229 26.0687 8.23351 26.0687 8.23351L26.4319 10.4907L27.3552 13.3336L23.7305 14.4383L23.7297 14.4361Z" fill="#C99E3D"></path>
<path fill-rule="evenodd" clip-rule="evenodd" d="M30.044 12.7147C30.044 12.7147 29.9193 12.7711 29.6931 12.7147C29.7027 12.8072 29.6867 12.9005 29.6467 12.9844C29.6067 13.0683 29.5444 13.1396 29.4665 13.1904C29.2287 13.094 27.0025 13.2867 27.0025 13.2867C27.0025 13.2867 25.9661 13.1052 25.6432 11.7347C25.4169 10.8227 25.813 9.56566 25.6828 8.73873C25.4845 7.52092 25.2071 7.28273 25.1788 6.9038C25.1504 6.52486 25.122 6.42817 25.122 6.19036C24.9973 6.16198 24.9238 6.12241 24.7994 6.12241C24.7711 6.01041 24.8274 5.9126 24.7031 5.71436C24.7711 5.74273 25.2355 5.79948 25.7791 6.31468C26.2271 6.73393 26.2271 6.88662 26.2946 6.97174C26.3794 7.05649 27.0648 7.64374 27.3594 8.22913C27.654 8.81452 28.2259 10.6812 28.3562 10.9869C28.3958 11.1116 28.4809 11.2363 28.6922 11.5193C29.0207 11.9274 29.502 12.602 30.0455 12.714L30.044 12.7147Z" fill="#B58634"></path>
<path fill-rule="evenodd" clip-rule="evenodd" d="M26.375 7C26.7181 7.55422 27.0263 8.12927 27.2979 8.72181C27.632 9.47483 27.8303 10.0923 28.2495 10.5963C28.0229 9.93963 27.6208 8.64827 27.383 8.18944C27.1168 7.70411 26.5732 7.18144 26.375 7.00037V7Z" fill="#A88F33"></path>
<path fill-rule="evenodd" clip-rule="evenodd" d="M22.5239 16.3109C22.5239 16.3109 21.952 16.4524 20.8872 17.0132C20.5359 17.1942 20.2022 17.3469 19.8792 17.4888C19.0404 17.8681 18.1406 18.2187 17.4268 18.412C17.4836 18.48 17.5116 18.508 17.5116 18.508C17.5116 18.508 17.5116 18.7857 17.6646 18.944C17.5799 19.0292 16.4468 19.7993 16.7813 22.3761C17.0076 22.2913 17.2737 22.1779 17.3133 22.1779C17.3816 22.1894 17.3984 22.3761 17.4832 22.3761C17.5679 22.3761 17.8457 22.2641 18.1403 21.8833C18.1291 22.0364 17.9592 23.5767 18.8709 24.6131C19.0407 24.4149 19.4712 23.7578 19.4712 23.7578L19.4824 23.5484C19.4824 23.5484 19.522 22.8177 19.7601 22.1495C19.9983 21.4812 20.4624 20.9884 20.4624 20.9884L22.8857 17.528L22.5232 16.3105L22.5239 16.3109Z" fill="#E6C367"></path>
<path fill-rule="evenodd" clip-rule="evenodd" d="M20.2581 21.3919C20.1472 21.4703 20.0249 21.5314 19.8956 21.573C19.856 21.4315 19.7993 20.9443 20.1334 20.4687C20.5243 19.8963 21.3792 19.1545 21.6171 18.5647C21.7701 18.185 21.7022 17.2337 23.0615 16.0159C24.4208 14.7981 24.9528 14.3792 24.9528 14.3792L27.1502 13.2749L29.8517 14.3396L28.5095 19.5999L27.4676 22.0639L23.3236 21.2825L20.2578 21.3919H20.2581Z" fill="#DCBA5A"></path>
<path fill-rule="evenodd" clip-rule="evenodd" d="M21.8398 19.9637L22.3554 19.3182V18.8594C22.3554 18.8594 22.9274 18.7063 23.5445 18.0776C24.1616 17.4489 25.0169 16.2427 25.7703 16.3162C26.5237 16.4013 26.5972 17.9529 26.6256 18.3893C26.654 18.8258 26.7503 19.8162 26.903 20.3489C27.0729 20.8813 25.0681 22.8973 25.0681 22.8973L23.7065 23.9337L21.8398 19.9637Z" fill="#E9CE77"></path>
<path fill-rule="evenodd" clip-rule="evenodd" d="M23.4355 25.3379C23.4355 25.3379 23.8548 24.6808 23.5475 24.5393C23.7286 24.1317 24.0627 23.7012 24.0627 23.7012C24.0627 23.7012 24.3006 23.1125 25.0707 22.3875C25.8409 21.6624 26.3169 21.1808 26.4416 20.694C26.5185 20.3767 26.5603 20.052 26.5663 19.7256C26.6496 19.7936 26.7387 19.8542 26.8325 19.9067C26.9572 19.9634 27.5459 20.4502 27.4612 21.4302C27.3765 22.4102 27.0132 22.8179 27.0132 22.8179C27.0132 22.8179 26.6623 23.1688 26.4133 23.3503C26.1467 23.5313 26.0507 23.7408 25.6031 23.758C25.6491 23.7214 25.7008 23.6926 25.7562 23.6728C25.7562 23.6728 25.2918 23.6165 25.0424 23.8427C24.793 24.0689 24.2629 24.766 23.9967 24.9758C23.7305 25.1456 23.4367 25.3383 23.4367 25.3383L23.4355 25.3379Z" fill="#CDAE50"></path>
<path fill-rule="evenodd" clip-rule="evenodd" d="M42.2663 14.3224C41.5972 14.0785 40.894 13.941 40.1824 13.9147C38.9929 13.8751 37.2543 13.9431 35.5497 13.9543C33.7147 13.9655 32.0497 13.3256 29.7391 13.2125C29.3598 12.9859 28.3951 11.9947 25.3838 14.0958C25.5649 14.0846 27.57 13.6314 28.2663 14.5038C28.9685 15.3703 28.7703 16.8428 28.6743 17.1937C28.4929 17.9755 27.9038 19.1138 27.6663 19.9123C27.4289 20.7109 27.4849 21.1305 27.315 21.6905C27.1452 22.2505 26.7715 22.5286 26.9921 23.1741C27.2867 22.9931 27.4401 22.9931 27.9322 21.8887C28.4242 20.7844 28.323 19.9971 29.1388 19.0626C29.9373 18.1226 31.2668 16.8368 31.7723 16.5139C32.2778 16.1909 36.2915 14.107 40.4941 16.095C41.5077 15.9875 42.2667 14.322 42.2667 14.322L42.2663 14.3224Z" fill="#D2A83E"></path>
<path fill-rule="evenodd" clip-rule="evenodd" d="M27.0768 13.5518C27.0726 13.5093 27.0632 13.4674 27.0488 13.4271C27.0095 13.3443 26.9579 13.2679 26.8957 13.2005C26.8957 13.2005 25.8989 13.0194 25.3949 13.0758C24.5112 13.1721 23.7127 14.2653 23.339 14.826C22.9653 15.3868 22.5008 16.2529 21.9968 16.7005C22.0023 16.6569 21.9923 16.6127 21.9685 16.5758C21.9685 16.5758 21.9968 16.6154 21.9405 16.6721C21.8841 16.7289 21.8837 16.7569 21.9121 16.7841L21.9972 16.8689C22.0252 16.8689 22.807 16.5176 23.8717 15.5249C25.0044 14.4885 25.8709 13.9569 26.3241 13.7747C26.5658 13.672 26.8185 13.5972 27.0771 13.5518H27.0768Z" fill="#C29637"></path>
<path fill-rule="evenodd" clip-rule="evenodd" d="M46.4123 9.29395C46.4123 9.29395 46.2309 9.52018 46.0043 9.76957C45.5003 10.3019 44.8432 10.9019 44.2825 11.5194C43.7505 12.1085 43.1501 12.5673 42.4759 13.3375C41.8017 14.1077 41.0199 14.9626 40.822 15.212C40.641 15.4614 40.4995 15.8691 40.4995 16.0785C40.4032 16.0106 40.29 15.937 40.29 15.937C40.3377 16.026 40.3946 16.1096 40.4599 16.1864C40.6014 16.3847 40.822 16.6344 40.9355 16.7867C41.0748 16.9807 41.1747 17.1999 41.2297 17.4322C41.2977 17.4434 41.7337 17.5286 42.2777 16.6337C42.8216 15.7388 43.5347 14.7592 43.5347 14.7592L44.6674 13.0769L45.3812 11.6501L46.2772 10.0529L46.4135 9.29395H46.4123Z" fill="#AC8132"></path>
<path fill-rule="evenodd" clip-rule="evenodd" d="M47.5732 8.1499C47.5732 8.1499 46.8878 8.7099 46.6216 9.0459C46.3554 9.3819 45.7256 10.2637 45.7256 10.2637L45.9522 10.2353L47.1021 9.21614L47.5501 8.41758L47.5728 8.1514L47.5732 8.1499Z" fill="#A88F33"></path>
<path fill-rule="evenodd" clip-rule="evenodd" d="M47.3633 53.1573C47.3633 53.1573 47.3521 52.6928 47.6127 52.4155C47.8789 52.1377 48.5528 51.73 49.2098 50.2008C49.8669 48.6717 49.9401 48.3263 49.9401 48.3263C49.9401 48.3263 48.7622 49.3343 48.0361 49.5722C48.206 49.2208 48.3023 48.9718 48.3874 48.7904C48.2911 48.7056 47.8834 48.6093 47.8438 48.5642C48.0701 48.3375 48.1948 47.7824 48.6536 47.4143C49.2427 46.9663 50.3186 46.1965 51.1549 45.5103C51.9912 44.8241 53.6353 43.2281 53.8452 42.7637C53.9698 42.9447 53.9978 43.0579 53.9978 43.0579C53.9978 43.0579 53.1713 44.1342 52.7408 44.8192C52.3612 45.4084 52.3895 45.7425 52.3895 45.7425L53.1713 45.4065C53.1713 45.4065 53.3975 46.2446 52.3727 47.5192C52.8207 47.3493 53.0014 47.4512 53.256 47.3094C52.8368 47.5759 52.2592 47.9384 51.7157 48.9349C51.1833 49.9317 50.4583 51.0927 49.2352 51.8174C48.0458 52.582 47.3604 53.1539 47.3604 53.1539L47.3633 53.1573Z" fill="#A67A2E"></path>
<path fill-rule="evenodd" clip-rule="evenodd" d="M44.2941 14.912C44.2941 14.912 43.8297 15.8801 43.7617 16.6335C43.7505 16.8149 43.705 16.9564 43.705 17.1659C43.6938 17.8397 43.7446 18.5931 43.593 18.944C43.5362 18.8026 43.5079 18.7062 43.4511 18.6499C43.3664 18.8877 43.2133 19.6295 43.0886 19.9069C43.0322 19.7258 42.9075 19.0971 42.9191 18.3553C42.9307 17.6135 42.9471 17.4716 42.9471 17.3189C42.9191 17.5452 42.766 17.8513 42.7093 18.0324C42.6246 17.8797 42.5282 17.6814 42.4147 17.5172C42.3468 17.6292 42.262 17.7946 42.1885 17.8797C42.1769 17.8117 42.1489 17.6303 42.1318 17.3757C42.1206 17.0811 42.1034 16.7018 42.1206 16.6223C42.1486 16.4696 42.3867 15.8693 42.8907 15.3197C43.4911 14.6627 44.1086 13.4 44.2896 13.0092C44.4707 12.6183 45.2409 10.9932 45.2409 10.9932H45.83L44.9747 12.9412C44.9747 12.9412 44.4595 14.006 44.1933 14.3972C43.9271 14.7885 43.3664 15.9096 43.117 16.3456C43.298 16.1078 43.4511 15.9831 43.6326 15.7565C43.808 15.5979 44.2948 14.9128 44.2948 14.9128L44.2941 14.912Z" fill="#8C6228"></path>
<path fill-rule="evenodd" clip-rule="evenodd" d="M47.5844 8.07617C47.4882 8.37235 47.3361 8.64735 47.1364 8.88631C46.7851 9.30556 46.0317 9.86593 45.664 10.3132C45.328 10.7492 44.656 11.9387 44.9614 13.3488C45.0734 13.043 45.2843 12.4371 45.8451 11.7516C46.4058 11.0662 47.0061 10.2792 47.3011 9.66769C47.5952 9.0502 47.6348 8.56337 47.6348 8.56337L47.7468 8.42188L47.6789 8.09894L47.5825 8.07617H47.5844Z" fill="#CBA94C"></path>
<path fill-rule="evenodd" clip-rule="evenodd" d="M59.053 45.6416C59.053 45.6416 58.8264 45.0244 58.7584 44.4637C58.6905 43.9029 58.8704 43.7917 58.6621 43.1499C58.5374 42.759 58.3112 42.8139 58.2544 42.759C58.1977 42.7042 58.1581 42.1136 58.1693 41.7906C58.1805 41.4677 58.1581 41.0488 58.1014 40.8674C58.0166 40.7994 57.9599 40.7427 57.8352 40.3238C57.6937 39.9045 57.6257 39.6951 57.5578 39.5708C57.4898 39.4465 57.2912 39.333 57.2912 39.2083C57.2912 38.9589 57.5178 38.829 57.5178 38.7603C57.5066 38.6188 57.3368 38.7323 57.2912 38.6923C57.2348 38.6244 57.4331 38.2167 57.3595 38.16C57.3312 38.132 57.1329 38.3698 57.0818 38.3018C57.025 38.2335 56.9571 37.5596 56.8552 37.1124C56.7592 36.6763 56.6569 36.3594 56.6457 36.2291C56.6345 36.1044 55.864 33.9069 55.6773 33.3746C55.5269 32.9247 55.4003 32.4672 55.298 32.0041C55.2412 31.7379 55.2017 31.1939 55.1733 31.2507C55.1449 31.3074 55.1621 31.5848 55.1166 31.5736C55.077 31.562 54.9355 30.594 54.8903 30.4409C54.8507 30.2878 54.6126 29.7689 54.5543 29.3933C54.4976 29.0137 54.3733 28.0225 54.2881 27.3486C54.203 26.6747 54.1634 26.3973 54.1634 26.2286C54.1774 25.8159 54.1546 25.4027 54.0955 24.994C53.9835 24.2802 53.7595 23.4137 53.5631 22.91C53.1838 21.9584 52.1754 19.5232 51.9951 18.9172C51.9951 18.7642 52.1934 18.8493 52.1934 18.8493C52.1934 18.8493 52.6858 20.0839 53.0483 21.0352C53.3996 21.9868 53.7337 22.8249 53.8188 22.91C53.8868 22.9948 54.4192 23.9292 54.657 25.4584C54.8948 26.9876 54.9795 28.3977 55.1214 29.3377C55.1894 29.7857 55.2461 30.261 55.3876 30.7366C55.5403 31.2522 55.7781 31.7845 56.0898 32.5999C56.356 33.2853 56.5543 33.8573 56.6618 34.3501C56.7865 34.9788 56.7865 35.4544 56.86 35.7661C56.9283 36.0323 57.0299 36.5643 57.2681 37.3341C57.5063 38.104 57.8568 39.0955 58.0946 39.7126C58.5594 40.9473 58.7666 41.978 58.8368 42.5276C58.8988 43.0939 59.1086 45.0536 59.0519 45.6423L59.053 45.6416Z" fill="#A88F33"></path>
<path fill-rule="evenodd" clip-rule="evenodd" d="M47.6123 8.00815L47.5839 8.0761C47.5839 8.0761 47.6687 8.10447 47.6519 8.21796C47.6531 8.37324 47.6436 8.52841 47.6235 8.68239C47.5955 8.88063 47.5387 9.03332 47.5275 9.15802C47.5275 9.4242 47.5671 9.72996 47.1915 10.4889C47.0795 10.6984 47.0105 10.8795 46.9537 11.0041C46.8122 11.3099 46.7839 11.3555 46.6592 11.4969C46.8574 11.3849 47.5712 10.9369 47.9334 11.0041C47.6843 11.1456 47.3047 11.4234 47.0669 11.7859C47.1236 11.7971 47.3614 11.8427 47.7389 11.7859C48.3676 11.6896 49.0698 11.463 49.6869 11.5081C50.3612 11.5477 50.095 10.6984 50.095 10.6984L49.3169 8.98815L47.8445 7.95215L47.6123 8.00852V8.00815Z" fill="#BE9C44"></path>
<path fill-rule="evenodd" clip-rule="evenodd" d="M51.4523 20.819C51.4523 20.819 50.7952 20.162 50.529 17.907C50.2629 15.6416 50.3196 12.307 50.3196 12.307L49.7872 11.0045C49.7872 11.0045 49.6752 10.138 49.3964 9.8154C49.1175 9.49284 48.5698 8.94889 48.3204 8.68271C48.071 8.41652 47.788 8.05401 47.6182 7.99727C47.7029 7.85577 48.0826 7.05721 49.5378 7.04601C50.9931 7.03481 51.4418 7.84457 51.5938 8.13913C51.7457 8.43369 52.4319 9.70713 52.6865 12.1338C52.9244 14.5575 52.9359 14.7389 52.8964 15.5771C52.868 16.0415 52.7149 17.1174 52.4484 18.2669C52.2049 19.2413 51.9388 20.3288 51.4516 20.8213L51.4523 20.819Z" fill="#A17C34"></path>
<path fill-rule="evenodd" clip-rule="evenodd" d="M49.3921 22.7502C49.611 22.766 49.8298 22.7167 50.0207 22.6084C50.2302 22.5972 50.9892 22.6935 51.5723 21.9517C51.6119 22.1212 51.7142 22.5804 51.4476 22.988C51.5895 22.8462 51.7989 22.7898 51.8273 22.7502C51.8385 22.9597 52.0367 23.6052 51.1986 25.1739C51.4249 24.9249 51.691 24.9361 51.9289 24.9077C51.9404 25.2023 52.0987 26.1931 51.6798 26.7258C51.4025 27.0884 50.9492 26.9749 50.9492 26.9749C50.9559 26.8957 50.9559 26.8162 50.9492 26.737C50.938 26.584 50.8813 26.4313 50.9212 26.3294C50.7022 26.2293 50.5028 26.0912 50.3321 25.9213C49.8393 25.4569 49.1994 24.6643 49.1542 24.0752C49.0975 23.4181 49.6866 23.2766 49.6866 23.2766C49.6373 23.2325 49.5952 23.1808 49.5619 23.1236C49.5336 23.0276 49.5052 22.8745 49.3921 22.7502Z" fill="#8C6228"></path>
<path fill-rule="evenodd" clip-rule="evenodd" d="M45.0238 15.6253C45.0238 15.6253 44.9955 15.5857 44.8428 15.7668C44.8711 15.5857 44.8995 15.4155 44.9107 15.2512C44.983 15.0991 45.0765 14.9581 45.1885 14.8323C45.1034 15.0018 45.0466 15.1549 45.0466 15.1549C45.0466 15.1549 45.2564 14.764 45.5622 14.5262C45.7716 14.3563 46.0378 14.2772 46.1509 14.1185C46.2756 13.9486 46.2473 13.9203 46.2756 13.8919C46.2756 13.8919 46.5534 13.7108 46.9782 13.1781C47.0346 13.1101 47.1197 13.0366 47.1765 12.9686C47.2724 12.9291 47.499 12.8272 47.7652 12.6909C48.043 12.5382 48.3543 12.3288 48.547 12.2429C48.9263 12.073 49.3287 12.0902 49.5154 11.8236C49.6569 11.7841 49.8096 11.3592 49.7816 10.9971C49.991 11.0818 51.067 11.7501 51.4355 13.2113C51.7017 14.2477 51.2257 15.8448 51.0274 16.6154C50.8292 17.3859 50.8012 17.9575 50.5234 18.3084C50.1721 18.7732 49.0398 19.4284 48.762 19.7529C48.5242 20.019 47.8108 20.6929 47.8388 21.1797C47.8671 21.5422 48.3144 21.7397 48.4111 21.8084C48.5078 21.8771 48.507 21.9615 48.6885 21.9204C48.8699 21.8794 48.9375 21.7957 49.0114 21.7957C49.0962 21.8069 49.0962 21.8241 49.1357 21.8241C49.1644 21.8233 49.193 21.8194 49.2209 21.8125C49.2209 21.8125 49.1925 22.3281 47.9862 22.4845C47.9011 22.4961 47.8164 22.5241 47.7085 22.5413C47.8503 22.4733 47.9351 22.4733 48.0882 22.2639C47.9183 22.2355 47.4311 22.2072 47.3064 22.1676C47.346 22.0996 47.4763 21.9182 47.5838 21.8334C47.6801 21.7487 47.5726 21.7214 47.4878 21.7655C47.3419 21.8648 47.2019 21.9725 47.0686 22.0881C46.9271 22.2128 46.8024 22.3826 46.5758 22.5361C46.5078 22.3094 46.519 21.879 46.7856 21.5676C46.7173 21.5788 46.587 21.7771 46.4627 21.7375C46.4402 21.5309 46.4536 21.322 46.5022 21.12C46.5702 20.865 46.9383 20.4178 46.9383 20.4178L48.7165 17.2403L49.0958 14.8334L45.0238 15.6245V15.6253Z" fill="#92723A"></path>
<path fill-rule="evenodd" clip-rule="evenodd" d="M44.928 15.7612C44.928 15.7612 44.8317 15.8291 45.0243 15.9594C44.996 15.999 44.928 16.1405 44.8429 16.2368C44.747 16.3488 44.6447 16.4183 44.6051 16.5146C44.5203 16.7128 44.4524 16.8487 44.4524 16.9338C44.4524 17.0189 44.424 17.5625 44.1862 17.9135C44.1011 18.0381 44.0048 18.2476 43.9368 18.3891C43.7953 18.6381 43.6706 18.8371 43.6423 18.9491C43.5859 19.1473 43.5463 19.6909 43.5463 19.6909C43.5463 19.6909 43.671 19.5378 43.7162 19.4815C43.6479 19.6229 43.5743 19.7756 43.4668 19.8891C43.5347 19.8324 43.733 19.6909 44.0671 19.3963C44.5315 19.0058 45.2566 18.3488 46.1402 17.8283C45.8737 17.9247 45.6474 17.9247 45.4664 17.953C45.6079 17.8115 46.8821 16.3163 47.5503 16.1748C47.5909 16.1234 47.6111 16.0588 47.6071 15.9934L47.0347 15.937L45.8737 16.186L45.7042 15.29L44.928 15.7601V15.7612Z" fill="#B18E3E"></path>
<path fill-rule="evenodd" clip-rule="evenodd" d="M46.7748 20.8584C46.7748 20.8584 46.6218 21.0111 46.4803 21.3908C46.3713 21.277 46.2779 21.1493 46.2025 21.0111C45.9931 20.6601 45.6705 20.2125 44.9171 20.4675C44.9059 20.2297 44.8888 20.105 44.9171 19.9351C45.0418 19.9071 45.4211 19.6014 45.8004 19.1537C46.067 18.848 46.316 18.4967 46.4859 18.0494C46.5979 17.9643 46.7916 17.8228 47.0459 17.6585C47.4084 17.4095 47.8444 17.0694 47.9124 16.6901C47.7425 16.7581 47.38 16.9279 46.8361 16.8999C47.0459 16.8036 47.3684 16.7017 47.3289 16.2824C47.414 16.2257 47.4819 16.1861 47.4819 16.1861C47.4181 16.1648 47.3509 16.1552 47.2837 16.1577C47.2721 16.1182 47.2553 16.0618 47.159 16.0898C47.0627 16.1178 47.047 16.1182 47.0343 16.1577C46.9947 16.1693 46.8644 16.1577 46.7681 16.2261C46.6718 16.2944 46.4056 16.5203 46.3037 16.5598C46.3433 16.4919 46.3996 16.3903 46.3996 16.3903C46.3996 16.3903 46.1223 16.4183 45.924 16.5023C45.5615 16.627 45.1426 16.8536 44.7178 17.0743C44.7573 17.0063 44.7745 16.9623 44.8025 16.9496C44.8305 16.9369 44.8988 16.9216 44.8988 16.91C44.8988 16.8984 44.8708 16.798 44.8876 16.7573C45.0146 16.4882 45.1645 16.2306 45.3356 15.9871C45.5339 15.7206 45.5735 15.3413 45.5735 15.3413L46.44 14.9052L48.8752 14.3452L50.4555 14.4415L50.2573 15.5347L49.324 17.4431L48.5254 19.1817L47.6133 20.2469L46.7752 20.8584H46.7748Z" fill="#543E26"></path>
<path fill-rule="evenodd" clip-rule="evenodd" d="M50.7217 16.128C50.7217 16.128 49.7701 17.3058 49.5039 17.4873C49.6738 17.1248 50.7218 14.9669 51.1011 14.3666C51.0163 14.2986 50.9028 14.2986 51.169 13.2466C50.9428 13.7786 50.8632 14.0563 50.6766 14.1978C50.4899 14.3393 50.4668 14.2942 50.3406 14.2942C50.3644 14.2511 50.3742 14.2016 50.3686 14.1527C50.3686 14.1527 49.57 14.0563 49.0246 14.0563C48.4791 14.0563 47.3995 14.3509 46.7988 14.5887C46.3231 14.787 46.0569 14.787 45.8871 14.9113C45.7172 15.0528 45.6209 15.2058 45.5358 15.2454C45.4678 15.285 45.1453 15.3869 45.0713 15.4944C45.0034 15.6064 44.8903 15.7322 44.8903 15.7606C44.8903 15.789 44.8619 15.8289 44.947 15.8002C44.975 15.789 45.1848 15.6755 45.4227 15.534C45.7452 15.3529 46.1361 15.1435 46.4195 15.0188C47.2292 14.6959 47.4842 14.7526 47.8463 14.6847C48.2256 14.6167 48.7696 14.458 49.1317 14.458C49.4942 14.4468 50.1797 14.458 50.3383 14.4864C50.2704 14.5432 50.2136 14.6111 50.242 14.8489C50.242 14.9169 50.1853 14.9904 50.13 15.1547C49.9605 15.6191 49.6376 16.3893 49.458 16.7802C49.209 17.3122 48.926 17.7598 48.786 18.0372C48.646 18.3146 48.338 19.0452 48.033 19.4361C47.728 19.827 47.5686 20.0648 47.473 20.1499C47.3774 20.235 46.6912 20.7386 46.7424 20.9201C46.8671 20.8805 47.6544 20.5841 48.226 19.9404C48.7976 19.2968 48.9115 18.9041 49.3587 18.5528C49.806 18.2015 50.1573 17.6127 50.3667 17.1259C50.5422 16.6727 50.5026 16.5312 50.7232 16.1291L50.7217 16.128Z" fill="#806031"></path>
<path fill-rule="evenodd" clip-rule="evenodd" d="M30.2149 24.9192C30.2149 24.9192 30.0902 25.4344 29.8069 25.6894C29.5295 25.9388 29.0367 26.1538 28.9803 26.5731C28.9124 26.9919 29.4731 27.2017 29.4731 27.2017C29.4731 27.2017 29.167 27.7057 29.167 28.0851C29.167 28.4759 29.1558 28.5495 29.1954 28.9232C29.1504 28.9521 29.1123 28.9903 29.0834 29.0352C29.0834 29.0352 29.1114 29.3977 29.3891 29.6239C29.6669 29.8502 29.9043 29.9864 30.0458 29.9297C30.0674 29.9759 30.0864 30.0232 30.1026 30.0716C30.1026 30.0716 30.3124 29.5392 30.4539 29.0748C30.5954 28.5991 30.7201 28.6667 30.7764 28.0268C30.8328 27.3869 31.4484 26.2882 31.4484 26.2882L31.8684 25.3493L31.1834 24.8169L30.2149 24.9188V24.9192Z" fill="#B6903C"></path>
<path fill-rule="evenodd" clip-rule="evenodd" d="M31.4891 25.8418C31.3478 25.9868 31.2175 26.142 31.099 26.3062C30.9179 26.5556 30.7764 26.7818 30.5102 26.8785C30.2441 26.9752 30.0742 26.9745 30.091 27.241C30.1078 27.5076 30.3572 27.6204 30.4987 27.7562C30.6517 27.8977 30.7764 28.1356 30.7085 28.4021C30.7932 28.3625 30.9463 28.317 31.0878 28.0112C31.2293 27.7055 32.219 25.8422 32.219 25.8422H31.4891V25.8418Z" fill="#685026"></path>
<path fill-rule="evenodd" clip-rule="evenodd" d="M35.3924 21.5439C35.3924 21.5439 35.4771 21.3177 35.3924 21.1534C35.3073 20.9835 34.7921 20.9268 34.5371 20.7341C34.2709 20.5359 33.948 20.3981 33.6818 20.4851C33.7213 20.3888 33.88 20.179 33.7497 20.1338C33.625 20.0942 33.161 20.3037 33.0363 20.4C32.9116 20.4963 32.6282 20.6094 32.5719 20.6778C32.5155 20.7461 32.4188 20.876 32.362 20.8193C32.3053 20.7797 32.2773 20.6778 32.181 20.7341C32.0847 20.7905 31.621 21.1702 31.5355 21.3912C31.45 21.6122 31.2577 22.105 30.6802 22.6654C30.1026 23.2258 29.8532 23.5886 30.0231 23.7981C30.193 24.0075 30.2725 23.8548 30.3009 24.0359C30.3227 24.2137 30.3131 24.3939 30.2725 24.5683C30.2045 24.8628 30.0914 25.1402 30.2441 25.197C30.635 25.3217 31.0147 25.085 31.0994 25.1574C31.2693 25.3101 31.0031 25.8596 31.4052 25.9672C31.8132 26.0792 32.2153 25.8708 32.2153 25.8708L33.6989 25.0723L35.1262 24.3193L35.8564 22.8748L35.4648 21.6686L35.3901 21.5439H35.3924Z" fill="#D4B968"></path>
<path fill-rule="evenodd" clip-rule="evenodd" d="M33.9922 24.9925C33.9922 24.9925 33.7429 24.6132 34.049 24.2787C34.3551 23.9442 34.7908 23.8031 34.9607 23.5937C34.9283 23.5538 34.885 23.5243 34.836 23.5089C34.9487 23.3071 35.1208 23.1449 35.3288 23.0441C35.244 22.9594 35.1305 22.8914 35.0062 22.8914C34.7285 22.8914 34.5582 23.0613 34.3036 23.0613C34.0546 23.0613 34.0262 22.9366 34.0262 22.9366C34.0262 22.9366 34.4455 22.897 34.4055 22.71C34.366 22.5117 34.2935 22.5117 34.2935 22.5117C34.2935 22.5117 35.1033 22.1757 35.2448 21.9965C35.3863 21.8173 35.3695 21.6057 35.3978 21.5209C35.4938 21.5209 36.0545 21.2263 36.2812 21.351C36.5078 21.4757 36.3491 21.8155 36.3491 21.8155C36.3491 21.8155 37.0349 21.2999 37.3844 20.7944C37.6901 20.8228 37.8324 20.585 38.0564 20.585C38.3341 20.585 38.7702 20.9643 38.8549 21.774C38.9117 22.2385 38.9964 22.5046 38.9117 23.326C38.8721 23.7904 38.8833 24.782 39.0237 25.274C39.1196 25.6649 39.3462 25.6253 39.3462 25.6253C39.3114 25.7444 39.2425 25.8507 39.148 25.9311C38.9949 26.0726 38.9781 26.4467 38.9949 26.5882C39.0175 26.6916 39.0459 26.7937 39.08 26.8939C39.08 26.8939 38.899 27.1034 38.8534 27.2452C38.8138 27.3867 38.6272 27.483 38.4909 27.483C38.3546 27.483 38.423 27.4715 38.2419 27.483C38.0608 27.4946 38.0041 27.5226 37.8906 27.483C37.7771 27.4435 37.6924 27.3979 37.7379 27.035C37.7775 26.6725 36.339 25.8288 36.339 25.8288L33.987 24.9907L33.9922 24.9925Z" fill="#CCA849"></path>
<path fill-rule="evenodd" clip-rule="evenodd" d="M31.2909 28.5719C31.2909 28.5719 31.8061 29.2573 33.9244 29.2573C34.9324 29.2573 35.2837 29.161 35.4924 29.1043C35.719 29.0475 36.5684 28.7138 37.4237 27.7054C38.1939 26.7937 38.024 26.42 38.024 26.42L37.576 26.3521L36.12 26.5503L31.8117 28.3852L31.2891 28.5719H31.2909Z" fill="#585136"></path>
<path fill-rule="evenodd" clip-rule="evenodd" d="M32.8701 28.7419C32.8701 28.7419 31.0352 29.1499 31.0352 27.9889C31.0352 26.8562 32.1678 25.6667 32.4512 25.4573C32.7458 25.2475 33.448 25.0093 33.448 25.0093H35.1414L35.464 25.8646L35.3225 27.7107L32.8701 28.7415V28.7419Z" fill="#252211"></path>
<path fill-rule="evenodd" clip-rule="evenodd" d="M34.5639 25.3551C34.5639 25.3551 34.213 25.0321 33.4144 25.4671C32.6159 25.902 31.97 26.8111 31.9304 27.6365C31.8909 28.3667 32.5308 28.9107 33.5276 28.9391C34.2694 28.9671 34.717 28.8823 34.9436 28.8271C34.8869 28.7591 34.5923 28.391 34.5923 28.391L34.5643 25.3554L34.5639 25.3551Z" fill="#C3B378"></path>
<path fill-rule="evenodd" clip-rule="evenodd" d="M34.2188 25.536C34.2188 25.536 34.1341 25.4681 33.8828 25.604C33.6734 25.716 33.3676 26.012 33.1298 26.2215C32.9767 26.3462 32.8804 26.4025 32.7938 26.4989C32.4425 26.9181 32.1479 27.6035 32.3182 27.9433C32.4884 28.283 33.0488 28.6739 34.4761 28.4077L34.2147 25.5364L34.2188 25.536Z" fill="#E6D89C"></path>
<path fill-rule="evenodd" clip-rule="evenodd" d="M33.7543 26.2385C33.7543 26.2385 33.5277 26.5898 33.5277 27.1505C33.5277 27.7225 33.8506 28.6341 35.0401 28.7021C35.9517 28.7588 36.5633 27.3883 37.2259 26.856C37.7299 26.4483 38.0357 26.4367 38.0357 26.4367C38.0357 26.4367 37.5205 25.8767 36.1444 25.1513C34.7851 24.4207 33.2615 24.3244 32.4346 25.4459C32.8255 25.4175 34.0884 25.0946 34.0884 25.0946L34.7059 25.2928L33.7543 26.2388V26.2385Z" fill="#252211"></path>
<path fill-rule="evenodd" clip-rule="evenodd" d="M35.532 26.9805C35.4924 26.8957 35.4641 26.7823 35.6283 26.7543C35.7926 26.7263 35.8661 26.7427 35.9229 26.8663C35.9796 26.9898 36.0349 27.0929 35.9509 27.144C35.8661 27.1892 35.6451 27.144 35.5316 26.9797L35.532 26.9805ZM35.2658 26.1819C35.2658 26.1819 35.2091 26.2215 35.2374 26.1424C35.2486 26.0464 35.3226 25.8762 35.5036 25.9161C35.6847 25.9561 35.6455 26.1539 35.6156 26.2107C35.5858 26.2674 35.4346 26.3634 35.3211 26.3227C35.3067 26.319 35.2934 26.312 35.2822 26.3022C35.271 26.2924 35.2623 26.2801 35.2568 26.2663C35.2513 26.2525 35.2491 26.2377 35.2504 26.2229C35.2517 26.2081 35.2565 26.1938 35.2643 26.1812L35.2658 26.1819Z" fill="#6F674D"></path>
<path fill-rule="evenodd" clip-rule="evenodd" d="M19.9355 26.5442C19.9355 26.5442 20.3835 26.8802 20.904 26.8671C21.4192 26.8555 22.0818 26.3235 22.3876 25.9834C22.5687 25.7852 22.7236 25.5757 22.8916 25.4115C23.0335 25.27 23.1294 25.202 23.1974 25.1057C23.2937 24.9937 23.3956 24.7832 23.4467 24.7148C23.3221 24.8112 23.141 24.9814 22.9539 25.0945C22.7729 25.2065 22.382 25.4171 22.2233 25.4738C22.0706 25.5306 20.4847 26.3698 20.4847 26.3698L19.9355 26.5442Z" fill="#AC924C"></path>
<path fill-rule="evenodd" clip-rule="evenodd" d="M20.6211 22.3593C20.6211 22.3593 20.8701 22.1894 21.3517 22.0815C21.8161 21.9695 22.7506 21.8833 22.7506 21.8833L23.5208 22.2193L23.8265 23.3804L23.2665 24.587L22.5531 25.035L21.743 23.7324L20.623 22.3615L20.6211 22.3593Z" fill="#9F8E57"></path>
<path fill-rule="evenodd" clip-rule="evenodd" d="M19.6123 23.3959L19.3457 23.5949C19.3457 23.5949 19.414 23.4702 19.4704 23.0909C19.5268 22.7116 19.8217 21.7884 20.2522 21.256C20.6826 20.7236 20.6714 20.752 20.6714 20.752C20.6318 20.7448 20.5911 20.746 20.552 20.7558C20.5129 20.7655 20.4764 20.7834 20.4448 20.8084C20.5015 20.6829 20.864 20.2349 21.2266 20.0109C21.5891 19.7869 21.7306 19.7164 22.1099 19.8989C22.4892 20.0815 22.5855 20.1763 22.8632 20.1651C23.141 20.1539 23.3784 19.8594 23.3784 19.8594C23.3784 19.8594 23.4352 20.0404 23.2258 20.4597C23.0163 20.8789 22.1894 21.7339 22.1894 21.7339L20.4676 22.9117L19.6123 23.3971V23.3959Z" fill="#EAC970"></path>
<path fill-rule="evenodd" clip-rule="evenodd" d="M20.8863 22.2175C20.8863 22.2175 22.1324 22.3874 22.5118 22.0365C22.523 22.076 22.5685 22.076 22.5685 22.1044C22.5655 22.1258 22.5555 22.1456 22.5401 22.1608C22.5814 22.1542 22.623 22.1505 22.6648 22.1496C22.7147 22.1644 22.766 22.1739 22.8179 22.178C22.8597 22.1771 22.9013 22.1732 22.9426 22.1664C22.9386 22.1945 22.9291 22.2216 22.9145 22.246C22.8998 22.2703 22.8804 22.2915 22.8575 22.3082C22.9142 22.3082 22.9695 22.3194 22.9695 22.3646C22.9695 22.4098 22.9807 22.5461 22.9127 22.5744C22.8564 22.59 22.7965 22.5859 22.7428 22.5629C22.7473 22.6701 22.7765 22.7748 22.828 22.869C22.94 23.0784 23.1789 23.317 23.5 23.2483C23.5 23.2483 23.6695 23.656 22.956 24.5621C22.8601 24.6868 22.7578 24.8566 22.6335 24.9981C22.5843 25.1052 22.5468 25.2172 22.5215 25.3322C22.5215 25.3322 23.7281 24.8678 24.0734 23.8087C24.4247 22.7439 24.4927 21.6964 24.4247 20.7167C24.4131 20.439 24.368 20.2411 24.3 20.0992C24.1302 19.7479 23.6542 19.8047 23.4619 20.0029C23.1841 20.2807 22.7197 20.9713 22.0742 21.447C21.4171 21.9226 21.3891 22.007 20.8848 22.2175H20.8863Z" fill="#D7BC6B"></path>
<path fill-rule="evenodd" clip-rule="evenodd" d="M19.3918 23.7468C19.3918 23.7468 19.154 23.8883 19.0293 24.4188C18.9046 24.9623 19.1413 25.625 19.2783 25.8345C19.4153 26.0439 19.7263 26.6162 20.3714 26.6446C20.5311 26.6437 20.689 26.611 20.8358 26.5483C21.0611 26.445 21.2723 26.3137 21.4645 26.1574C21.7423 25.9479 21.9685 25.7669 21.9402 25.7497C21.8722 25.7213 20.2299 24.362 20.2299 24.362L19.6124 23.6729L19.3914 23.7475L19.3918 23.7468Z" fill="#585136"></path>
<path fill-rule="evenodd" clip-rule="evenodd" d="M20.9441 26.0006C20.9441 26.0006 21.2783 25.9726 21.4765 25.8479C21.6747 25.7232 20.3154 24.3755 20.3154 24.3755L20.4118 25.8315L20.9441 26.0006Z" fill="#453A25"></path>
<path fill-rule="evenodd" clip-rule="evenodd" d="M19.4987 23.6446C19.4987 23.6446 19.3288 23.9675 19.3288 24.0527C19.3005 24.3301 19.3856 25.2022 19.4535 25.4795C19.5215 25.7741 19.8896 26.2214 20.3656 26.2214C20.6598 26.2214 21.0678 26.0403 21.0678 25.9951C21.0678 25.9384 20.6486 25.8831 20.5355 25.6722C20.4675 25.5602 20.4391 25.2817 20.4235 25.0002C20.4123 24.8191 20.4123 24.6209 20.4802 24.5522C20.6333 24.3823 20.6613 23.8951 20.6613 23.8951L21.2048 22.8853H20.4899L19.6346 23.4176L19.4987 23.6446Z" fill="#84754B"></path>
<path fill-rule="evenodd" clip-rule="evenodd" d="M19.29 23.9567C19.29 23.9567 19.85 23.2149 20.3548 23.0447C20.8595 22.8744 21.0854 22.9767 21.0854 22.9767L20.7908 23.7301L20.3716 24.1945L20.4 24.4324C20.4 24.4324 20.3316 25.0611 20.7509 25.4971C21.1701 25.9332 21.4815 25.9164 21.6629 25.9164C21.8444 25.9164 22.3652 25.7633 22.6314 25.1346C22.8692 24.5459 23.0674 23.7906 22.5918 23.0335C22.127 22.2801 21.306 22.251 21.1474 22.251C20.9887 22.251 19.7429 22.3133 19.29 23.9556V23.9567Z" fill="#252211"></path>
<path fill-rule="evenodd" clip-rule="evenodd" d="M33.6692 26.4765C33.4598 26.3802 33.658 25.7914 33.8674 25.61C34.0769 25.4286 34.3431 25.2195 34.8079 25.1907C34.9774 25.1795 35.1416 25.2871 35.1136 25.4006C35.0741 25.61 34.7795 25.9046 34.5133 26.114C34.1452 26.403 33.907 26.584 33.6692 26.4765Z" fill="#F7F7E7"></path>
<path fill-rule="evenodd" clip-rule="evenodd" d="M22.342 23.2654C22.4951 23.2542 22.6933 23.3774 22.7329 23.5431C22.7725 23.7242 22.6366 24.0867 22.342 24.0867C22.1042 24.0867 21.9795 23.7921 21.9795 23.7074C21.9822 23.6377 22.0016 23.5697 22.0362 23.5091C22.0474 23.492 22.0758 23.2937 22.342 23.2654Z" fill="#F8F6DE"></path>
<path fill-rule="evenodd" clip-rule="evenodd" d="M20.1339 23.3955C20.1339 23.3955 19.7431 23.5766 19.562 23.9555C19.4326 24.2353 19.3935 24.5485 19.45 24.8515C19.4784 24.993 19.6199 25.3439 19.7162 25.4686C19.8125 25.5933 19.9428 25.6784 20.0391 25.6669C20.1354 25.6553 20.3333 25.4007 20.3333 25.248C20.3333 25.0953 20.3449 24.4494 20.5315 24.0981C20.6958 23.7472 20.1351 23.3959 20.1351 23.3959L20.1339 23.3955Z" fill="#D4C38B"></path>
<path fill-rule="evenodd" clip-rule="evenodd" d="M20.1906 23.3674C20.1227 23.407 20.0096 23.4637 20.0376 23.5373C20.0659 23.6052 20.3038 23.6493 20.3889 23.815C20.4852 23.9849 20.4852 24.166 20.4568 24.2511C20.5308 24.2159 20.5979 24.1679 20.6551 24.1092C20.7798 23.9677 20.9325 23.7755 21.0627 23.7755C21.1479 23.7755 21.2326 23.815 21.3121 23.815C21.4368 23.815 21.5611 23.7755 21.5783 23.6452C21.6063 23.4753 21.3405 23.3222 21.1874 23.3506C21.2158 23.2386 21.2554 23.0732 21.1307 22.9597C21.006 22.8462 20.6155 23.0448 20.5304 23.1016C20.4453 23.1583 20.1906 23.3678 20.1906 23.3678V23.3674Z" fill="#E2D59D"></path>
<path fill-rule="evenodd" clip-rule="evenodd" d="M29.1892 35.2661L30.0273 35.0186L30.2651 35.1884C30.2651 35.1884 30.4346 35.5509 30.7012 35.5961C30.6161 35.7772 30.3951 35.9321 30.4066 36.0605C30.4182 36.189 30.5313 36.2871 30.5313 36.2871C30.5313 36.2871 29.7779 37.533 31.2619 38.7885C30.9106 38.93 30.4634 39.1245 30.2256 39.2365C30.3951 39.276 30.7576 39.3485 30.9106 39.4859C31.0637 39.6232 31.0637 39.6669 31.2052 39.752C31.3467 39.8372 31.4314 39.9503 31.4034 40.0011C31.3071 39.9443 30.9842 39.7748 30.9278 39.9331C30.8714 40.0914 29.5289 40.0294 29.5289 40.0294L27.2635 40.4655C27.2635 40.4655 27.3483 40.2389 27.1105 40.0294C26.8331 39.7804 26.4934 40.0406 26.1308 39.7632C25.6552 39.4007 25.638 38.9815 25.4854 38.8232C25.638 38.7269 25.9498 38.5854 26.6916 38.4872C26.6632 38.4304 26.5669 38.2606 26.6236 38.1079C26.6916 37.9096 26.9746 37.785 26.8898 37.5479C27.0145 37.5195 27.0709 37.5195 27.3826 37.1286C27.6772 36.7378 27.8583 36.653 28.0849 36.6246C28.3115 36.5963 28.4474 36.6246 28.8666 36.2338C29.1608 35.9564 29.0649 35.7186 29.0649 35.7186C29.0649 35.7186 29.2571 35.6562 29.1896 35.2653L29.1892 35.2661Z" fill="#CBAC5A"></path>
<path fill-rule="evenodd" clip-rule="evenodd" d="M26.7147 35.392C26.7259 35.3353 26.7714 35.3069 27.0772 35.3353C27.383 35.3637 29.3198 35.1542 29.8466 35.1258C30.379 35.0863 32.2535 35.1143 33.1655 35.3069C34.0776 35.4996 35.0004 35.7262 35.4477 35.8393C35.8957 35.964 36.0368 36.0088 36.0196 36.0655C36.0084 36.1223 35.9076 36.1775 35.8498 36.1618C35.7934 36.1506 34.3094 35.6974 33.851 35.6018C33.3925 35.5063 31.8062 35.2505 30.939 35.2658C30.1292 35.2774 29.8063 35.2546 29.1212 35.3338C28.4358 35.4189 27.3031 35.532 26.9633 35.4869C26.6273 35.4473 26.6968 35.4473 26.7139 35.3905L26.7147 35.392Z" fill="#D6BC6F"></path>
<path fill-rule="evenodd" clip-rule="evenodd" d="M31.2737 39.8313C31.2737 39.8313 32.4347 40.46 32.854 41.2302C33.1597 41.8021 32.6729 42.0855 32.6729 42.0855C32.6729 42.0855 33.33 42.0855 33.2449 42.448C33.2053 42.6742 32.1122 43.2858 31.3816 43.6087C30.6397 43.9316 30.6681 43.9148 30.3056 43.9712C29.9543 44.0279 28.9915 43.8592 28.7932 44.1411C28.595 44.4229 28.6812 44.7134 28.7365 44.7586C28.7932 44.7981 29.2521 44.8549 29.2521 44.8549C29.2521 44.8549 29.1557 45.1211 28.2045 45.1494C27.2532 45.1778 27.0151 45.2454 26.9583 45.3477C26.9016 45.4436 27.1394 45.3872 27.5758 45.4597C28.0119 45.5276 28.6234 45.5717 28.6234 45.5717C28.6234 45.5717 28.4251 45.7415 27.9099 45.8774C27.3208 46.0301 26.3976 46.172 26.1202 46.3419C26.2617 46.4382 26.4715 46.5797 26.5682 46.5909C26.3304 46.6476 25.9959 46.7723 25.9395 46.8175C26.0242 46.8742 26.1377 46.9422 26.1377 46.9422C26.1377 46.9422 25.6617 47.5141 25.3843 47.656C25.1069 47.7979 23.5098 48.5393 22.9603 48.3978C21.5898 48.0353 21.4199 46.5345 21.0858 46.4214C20.5818 46.2515 20.344 46.5909 19.8963 46.3531C20.0946 46.2116 20.2025 46.1268 20.4119 46.0305C20.1853 45.9185 19.013 45.1752 19.013 45.1752C18.8904 44.908 18.7544 44.6472 18.6053 44.3938C18.3787 44.0029 18.0453 43.4818 17.7952 43.0229C17.2516 42.0149 17.2233 41.5505 16.7305 40.9786C16.8156 40.8666 17.1098 40.8822 17.1098 40.8822L21.2388 42.2415L28.5603 42.4536L30.4643 39.7354L31.274 39.8317L31.2737 39.8313Z" fill="#DFC677"></path>
<path fill-rule="evenodd" clip-rule="evenodd" d="M20.4277 43.9763C20.4719 44.0255 20.5234 44.0676 20.5804 44.101C20.7223 44.1974 20.9317 44.3108 21.0732 44.4803C21.13 44.3956 21.2715 44.2425 21.5212 44.4803C21.771 44.7182 22.0812 44.5487 22.2742 44.605C22.4725 44.6734 22.4837 44.7014 22.4837 44.7014C22.4837 44.7014 22.5957 44.605 22.8462 44.5031C22.9993 44.4464 23.1803 44.4068 23.3786 44.3504C23.5596 44.3108 23.7579 44.2541 23.8941 44.2541C24.0188 44.3388 24.4661 44.8141 26.2614 44.1126C27.9549 43.4555 28.3454 43.382 28.6287 43.4835C28.6571 43.4156 28.6855 43.2853 29.1215 43.3025C29.1215 43.1214 28.759 42.5039 28.759 42.5039L26.7598 41.8188H25.6663L22.3874 42.4192L20.5703 43.4559L20.4289 43.9786L20.4277 43.9763Z" fill="#C4A859"></path>
<path fill-rule="evenodd" clip-rule="evenodd" d="M19.335 42.8272C19.335 42.8272 19.3745 43.1329 19.8278 43.4559C20.2758 43.7784 20.4165 43.9711 20.4165 43.9711C20.4165 43.9711 20.5016 43.8591 20.5696 43.7448C20.6375 43.6201 20.6943 43.4786 20.8074 43.4391C21.034 43.3427 21.5492 43.5238 21.6627 43.4954C21.759 43.4674 21.7306 43.2692 21.8326 43.2692C22.0704 43.2576 22.2231 43.4219 22.3082 43.4219C22.3933 43.4219 22.6024 43.4107 22.6307 43.3655C22.6591 43.3203 22.6703 42.8499 22.9933 42.6233C23.3446 42.3743 23.775 42.4818 23.8893 42.5386C23.8893 42.6233 23.9005 42.8331 24.1271 42.8443C24.3537 42.8555 24.3761 42.816 24.5751 42.8839C24.7741 42.9519 25.0111 42.8727 25.1186 43.2065C25.215 43.1785 25.4416 43.1501 25.3848 42.8272C25.4968 42.7424 25.5946 42.6857 25.8328 42.3515C25.8896 42.2668 25.9855 42.1705 26.0594 42.0458C26.2577 42.0458 26.4955 42.0062 26.8125 42.2836C26.7161 42.3515 26.6594 42.3956 26.6314 42.4647C26.7143 42.5467 26.79 42.6358 26.8576 42.7308C26.9427 42.8428 26.9995 42.9802 27.107 43.0086C27.3448 43.0766 27.7357 42.9802 28.1718 43.0086C28.591 43.037 28.9419 43.1897 29.095 43.286C29.1518 43.258 29.1518 43.2464 29.2933 43.2748C29.4347 43.3032 29.5423 43.3144 29.3896 43.1333C29.4743 43.1729 29.5706 43.258 29.6558 43.1729C29.7409 43.0878 29.8085 42.9634 30.0463 42.9351C30.2841 42.9067 30.3692 42.9463 30.4655 42.6972C30.5902 42.3915 30.1598 42.3915 30.1598 42.3915C30.1598 42.3915 30.358 42.21 30.579 41.9722C30.8452 41.7232 31.151 41.4003 31.2245 41.0038C31.3492 40.2732 30.6358 40.1772 30.6358 40.1772L27.1753 41.242L22.9447 41.0322L19.3372 42.8275L19.335 42.8272Z" fill="#927D49"></path>
<path fill-rule="evenodd" clip-rule="evenodd" d="M16.2257 32.831C16.2257 32.831 16.1137 32.9725 16.0446 33.3066C15.9755 33.6408 16.005 33.6012 15.9483 33.839C15.8915 34.0768 15.1945 36.4441 15.4559 37.2427C15.7172 38.0413 16.1697 38.3358 16.4527 38.9813C16.5094 39.1228 16.5647 39.2079 16.5942 39.3326C16.6905 39.7515 16.6057 40.0744 16.7189 40.4937C16.7584 40.6352 16.8607 40.7994 17.0134 40.9693C17.3494 41.3202 17.8971 41.6544 18.1334 41.8922C18.4672 42.2435 18.9432 42.9573 19.5491 43.0249C19.872 43.0645 20.3309 42.9286 20.7102 42.7023C21.0462 42.4925 21.2537 42.1983 21.6062 42.0303C21.8552 41.9056 22.1214 41.8605 22.3592 41.8037C22.852 41.7074 23.2996 41.6917 23.5658 41.747C23.9735 41.8321 24.9363 42.1266 25.4698 42.1266C25.8867 42.1199 26.3012 42.0629 26.7044 41.9568C27.5142 41.719 28.4938 41.3109 29.1397 41.1298C29.519 41.0178 29.8247 40.9884 30.1365 40.9204C30.6688 40.7957 31.1161 40.6258 31.3711 40.3029C31.2012 40.1047 30.9918 39.7989 29.8587 39.8101C28.5733 39.8385 27.0893 40.5519 26.3587 40.6654C25.6281 40.7789 25.3111 40.8749 24.4954 40.5803C23.6957 40.2828 23.6692 40.086 23.6692 40.086C23.6692 40.086 22.8296 39.4988 22.4783 38.0017C22.127 36.5046 22.4783 35.4137 23.3903 34.377C23.6281 34.1108 23.5714 33.873 23.5714 33.873C23.5714 33.873 24.1717 33.0632 24.0074 32.305C23.8264 31.5516 22.6653 31.7047 22.6653 31.7047L16.2261 32.831H16.2257Z" fill="#6E6342"></path>
<path fill-rule="evenodd" clip-rule="evenodd" d="M17.1947 35.3516C17.1448 35.4454 17.1213 35.5511 17.1268 35.6573C17.138 35.81 17.1835 36.0083 17.642 36.4559C18.0328 36.8464 17.9477 37.2824 17.9477 37.2824C17.9477 37.2824 18.1445 37.322 18.6783 37.0723C19.0976 36.874 19.2383 37.2253 19.2383 37.2253C19.3604 37.1613 19.4927 37.1191 19.6292 37.1006C19.7529 37.0892 19.8727 37.051 19.9801 36.9886C19.9801 36.9886 20.4729 37.4926 20.9034 37.7304C21.2943 37.9403 21.5209 38.0818 21.7135 37.9403C21.8946 37.8156 21.8946 37.5606 21.883 37.4475C21.8381 37.343 21.7812 37.2442 21.7135 37.1529C21.5888 36.9718 21.3906 36.762 21.3775 36.5929C21.3492 36.2024 21.6721 35.7376 21.6038 35.6245C21.5354 35.5113 21.2812 35.483 20.6525 35.7096C20.0014 35.9246 17.1921 35.3527 17.1921 35.3527L17.1947 35.3516Z" fill="#39331F"></path>
<path fill-rule="evenodd" clip-rule="evenodd" d="M18.6778 37.8827C18.6778 37.8827 18.3553 37.577 18.4684 36.093C18.6053 36.091 18.7421 36.1042 18.8761 36.1325C18.8761 36.1325 19.0519 37.2824 18.6778 37.8827Z" fill="#292311"></path>
<path fill-rule="evenodd" clip-rule="evenodd" d="M16.3793 31.6986C16.4243 31.6652 16.4661 31.6277 16.504 31.5866C16.392 31.796 15.875 32.6341 16.2942 33.9539C16.7135 35.2676 17.7666 36.2472 19.0636 36.2928C20.3606 36.3383 21.0423 35.7037 21.8218 34.7524C22.1275 34.3731 22.4788 33.8971 22.7902 33.5746C23.2546 33.0702 23.6171 32.9287 23.6171 32.4419C23.6171 31.4451 22.5976 30.9974 21.0968 30.5502C19.596 30.1029 18.2423 30.1582 17.54 30.4643C16.855 30.7981 16.5604 31.1494 16.379 31.6989L16.3793 31.6986Z" fill="#252211"></path>
<path fill-rule="evenodd" clip-rule="evenodd" d="M21.1984 38.3299L21.3104 38.2732C21.3104 38.2732 21.3384 37.8252 21.5198 37.8371C21.7009 37.8655 21.786 38.1037 21.7688 38.1885C21.7576 38.2732 21.7125 38.4151 21.531 38.3979C21.2932 38.4035 21.1973 38.3299 21.1973 38.3299H21.1984Z" fill="#3F3824"></path>
<path fill-rule="evenodd" clip-rule="evenodd" d="M20.6943 36.4272C20.6943 36.4272 20.8063 36.3877 20.9433 36.5236C21.0553 36.5236 21.5437 36.4668 21.6967 36.5631C21.8498 36.6594 21.895 36.7442 21.895 36.7442C21.895 36.7442 21.323 36.8689 21.0113 36.7442C20.6943 36.6367 20.6943 36.4272 20.6943 36.4272Z" fill="#2D2815"></path>
<path fill-rule="evenodd" clip-rule="evenodd" d="M23.2149 36.5118C23.2149 36.4834 22.9092 36.274 22.5862 36.2056C22.5295 36.1944 22.5179 36.234 22.4742 36.234C22.4458 36.2228 22.4346 36.1377 22.4346 36.1377L22.251 36.2344C22.251 36.2344 22.2226 36.274 22.3189 36.3464C22.4037 36.4143 22.5455 36.4711 22.5851 36.5842C22.6247 36.6973 22.6247 36.7369 22.6418 36.7541C22.653 36.7653 22.8513 36.7541 22.9476 36.6973C23.0439 36.6406 23.2254 36.548 23.2138 36.5107L23.2149 36.5118Z" fill="#82764F"></path>
<path fill-rule="evenodd" clip-rule="evenodd" d="M20.3545 37.6616C20.3545 37.6616 20.4109 37.2711 20.7905 37.254C21.1811 37.2256 21.255 37.6049 21.255 37.6049L21.0284 37.8315C21.0284 37.8259 20.8585 37.5881 20.3564 37.6616H20.3545Z" fill="#2D2816"></path>
<path fill-rule="evenodd" clip-rule="evenodd" d="M22.8183 35.9794C22.8183 35.9794 22.6085 36.206 22.1444 36.274C22.1048 36.2172 22.0197 36.1041 22.1444 35.923C22.2691 35.742 22.4106 35.6852 22.5521 35.7416C22.6145 35.7517 22.6727 35.7795 22.7199 35.8216C22.7671 35.8638 22.8012 35.9185 22.8183 35.9794Z" fill="#574F35"></path>
<path fill-rule="evenodd" clip-rule="evenodd" d="M23.6731 36.2572C23.6847 36.2004 23.6451 36.1892 23.6731 36.1609C23.7011 36.1325 23.8545 36.0761 23.8829 36.1041C23.8941 36.1157 23.8829 36.1609 23.8829 36.2161C23.8829 36.2714 23.8829 36.3281 23.8545 36.3688C23.815 36.4256 23.7018 36.4539 23.6451 36.4371C23.5883 36.4203 23.5771 36.3408 23.5771 36.3251C23.6051 36.3139 23.6731 36.2856 23.6731 36.2572ZM24.64 35.6457C24.64 35.6173 24.7363 35.5605 24.7931 35.5605C24.8778 35.5605 24.8778 35.6285 24.8894 35.6457C24.9174 35.6569 24.9174 35.6341 24.9458 35.6852C24.9742 35.7364 25.0141 35.8267 24.9854 35.8835C24.9566 35.9402 24.8439 35.9794 24.8159 35.9682C24.7763 35.9399 24.6516 35.6852 24.64 35.6457Z" fill="#82764F"></path>
<path fill-rule="evenodd" clip-rule="evenodd" d="M22.6934 36.3876C22.6934 36.3876 22.8181 36.4156 22.9879 36.5574C22.9312 36.597 22.8461 36.6422 22.8461 36.6422C22.8461 36.6422 22.8349 36.5119 22.6934 36.3872V36.3876Z" fill="#6E6342"></path>
<path fill-rule="evenodd" clip-rule="evenodd" d="M22.4156 35.1413C22.3872 35.1133 22.5004 35.0454 22.5683 35.0566C22.6363 35.0678 22.6646 35.1133 22.7382 35.1245C22.8117 35.1357 22.8233 35.0962 22.8502 35.0678C22.8771 35.0394 22.9749 35.0566 22.9917 35.0678C23.0021 35.0802 23.0116 35.0935 23.02 35.1074C23.0212 35.0858 23.0268 35.0648 23.0365 35.0455C23.0462 35.0262 23.0598 35.0092 23.0764 34.9954C23.0981 34.9794 23.1232 34.9686 23.1497 34.9637C23.1762 34.9587 23.2035 34.9599 23.2295 34.967C23.2407 35.0066 23.2974 35.1481 23.2862 35.1764C23.275 35.2048 23.1052 35.2448 23.0764 35.216C23.1048 35.2843 23.2295 35.4258 23.2463 35.4538C23.2631 35.4818 23.1216 35.5501 23.0652 35.5389C22.9861 35.5333 22.4989 35.25 22.4141 35.1425L22.4156 35.1413ZM23.1574 34.2013C23.1469 34.1728 23.1269 34.1487 23.1007 34.1333C23.0611 34.1221 22.9308 34.1333 22.9308 34.2013C22.9308 34.2692 23.0428 34.6493 23.1686 34.8472C23.3105 35.0454 23.4064 35.2093 23.5028 35.2548C23.533 35.2686 23.5673 35.2704 23.5989 35.2599C23.6304 35.2493 23.6567 35.2273 23.6726 35.1981C23.6838 35.1697 23.7122 34.9603 23.701 34.4675C23.6898 33.9747 23.6726 33.499 23.6443 33.4707C23.6159 33.4423 23.5028 33.4427 23.4632 33.499C23.4236 33.5554 23.1686 34.1165 23.157 34.2013H23.1574Z" fill="#585136"></path>
<path fill-rule="evenodd" clip-rule="evenodd" d="M22.6537 37.101C22.6537 37.101 22.4554 36.9764 22.2628 37.0615C22.0817 37.1466 22.0929 37.4807 22.0929 37.4807C22.1336 37.4967 22.1777 37.5024 22.2211 37.4975C22.2646 37.4925 22.3062 37.477 22.3423 37.4524C22.467 37.3676 22.6253 37.2261 22.6537 37.1014V37.101Z" fill="#574F35"></path>
<path fill-rule="evenodd" clip-rule="evenodd" d="M23.028 37.5485C23.0168 37.4365 22.916 37.4365 22.916 37.3786C22.923 37.351 22.939 37.3264 22.9615 37.309C22.9841 37.2915 23.0118 37.2821 23.0403 37.2823C23.0971 37.2823 23.1523 37.3503 23.2218 37.3943C23.2897 37.4339 23.3916 37.5063 23.4028 37.5926C23.414 37.6788 23.2908 37.9151 23.1538 37.9151C23.0168 37.9151 23.0575 37.6601 23.0291 37.547L23.028 37.5485ZM24.1211 37.3954C24.1211 37.3954 23.8945 37.4634 23.9113 37.3954C23.9281 37.3275 23.9796 37.3107 24.0532 37.3107C24.0906 37.2716 24.1408 37.2473 24.1947 37.2424C24.2255 37.2408 24.2557 37.251 24.2794 37.2707C24.2794 37.2707 24.4325 37.2028 24.4777 37.2424C24.5228 37.2819 24.4892 37.2819 24.5172 37.3275C24.5529 37.378 24.5763 37.4362 24.5856 37.4974C24.5856 37.5425 24.4157 37.6388 24.2794 37.622C24.1211 37.5881 24.1491 37.4238 24.1211 37.3954ZM25.4405 37.1404C25.4405 37.1404 25.5084 37.18 25.4521 37.2256C25.4125 37.2651 25.2143 37.3376 25.044 37.3503C24.8741 37.3503 24.7215 37.3783 24.7215 37.3219C24.7215 37.2655 24.8629 37.152 24.9477 37.1236C24.9647 37.1024 24.9863 37.0852 25.0108 37.0734C25.0354 37.0617 25.0623 37.0556 25.0896 37.0557C25.1575 37.0557 25.4233 37.0273 25.4972 37.0161C25.5652 37.0046 25.6219 37.0441 25.582 37.1009C25.5652 37.1404 25.4405 37.1404 25.4405 37.1404ZM25.8314 35.3918C25.8314 35.3918 25.7463 35.5728 25.6503 35.5728C25.554 35.5616 25.554 35.5332 25.554 35.5049C25.554 35.4653 25.6503 35.3634 25.6387 35.335C25.6107 35.335 25.5424 35.335 25.554 35.2671C25.554 35.2103 25.6503 35.1424 25.7351 35.1551C25.7991 35.1024 25.8788 35.0726 25.9617 35.0703C26.058 35.0703 26.1427 35.0983 26.1427 35.1551C26.1427 35.2118 26.0307 35.3361 25.9897 35.3649C25.9445 35.41 25.8878 35.4395 25.8314 35.3929V35.3918ZM24.54 38.7387C24.54 38.7387 24.428 38.7503 24.428 38.8066C24.428 38.835 24.456 38.835 24.496 38.8182C24.519 38.8169 24.5418 38.813 24.5639 38.8066C24.5751 38.8182 24.5751 38.8746 24.6602 38.8746C24.7301 38.8651 24.7975 38.8421 24.8585 38.8066C24.9264 38.7786 24.9832 38.7499 24.9832 38.6946C24.9548 38.5983 24.898 38.5528 24.8133 38.5528C24.7699 38.55 24.7266 38.5599 24.6886 38.5811C24.6886 38.5811 24.6602 38.5244 24.5639 38.5811C24.4676 38.6379 24.4788 38.6379 24.5072 38.6663C24.5579 38.7114 24.5411 38.7409 24.5411 38.7409L24.54 38.7387ZM23.9001 39.3278C23.9001 39.2994 24.0416 39.2427 24.0812 39.2599C24.1208 39.2711 24.2339 39.4861 24.2339 39.5089C24.2339 39.5372 24.0924 39.6052 24.0356 39.6052C23.9789 39.6052 23.8829 39.5089 23.8829 39.4932C23.8829 39.482 23.9509 39.4652 23.9509 39.4536C23.9677 39.4256 23.9001 39.3573 23.9001 39.3289V39.3278ZM23.4521 38.5009C23.4805 38.4897 23.4805 38.4613 23.5201 38.4329C23.5325 38.4247 23.5466 38.4194 23.5613 38.4174C23.5761 38.4155 23.5911 38.417 23.6052 38.4217C23.6152 38.4039 23.629 38.3885 23.6457 38.3767C23.6623 38.3649 23.6814 38.3569 23.7015 38.3534C23.7695 38.3422 23.8262 38.3534 23.8135 38.3818C23.8135 38.4669 23.8703 38.5233 23.8703 38.5912C23.8703 38.6592 23.8307 38.7443 23.6892 38.801C23.5477 38.8406 23.3551 38.8406 23.3267 38.8294C23.2983 38.8182 23.2699 38.7047 23.2983 38.648C23.3267 38.5912 23.4058 38.5292 23.4514 38.5009H23.4521Z" fill="#82764F"></path>
<path fill-rule="evenodd" clip-rule="evenodd" d="M23.6321 38.5396C23.6321 38.5396 23.5358 38.5963 23.5358 38.6247C23.5273 38.6521 23.5235 38.6807 23.5246 38.7094C23.5246 38.7262 23.6493 38.6982 23.6661 38.681C23.6717 38.6698 23.6321 38.569 23.6321 38.5396Z" fill="#6E6342"></path>
<path fill-rule="evenodd" clip-rule="evenodd" d="M22.79 38.2733C22.8464 38.2848 22.9427 38.2733 23.0163 38.3016C23.073 38.33 23.1126 38.3868 23.0558 38.4547C22.9991 38.5226 22.9438 38.6246 22.818 38.6074C22.6765 38.5962 22.5406 38.5226 22.5406 38.4659C22.5383 38.43 22.543 38.394 22.5547 38.36C22.5664 38.3259 22.5847 38.2946 22.6086 38.2677C22.6653 38.2225 22.6933 38.2509 22.7896 38.2733H22.79Z" fill="#585136"></path>
<path fill-rule="evenodd" clip-rule="evenodd" d="M22.722 38.3301C22.722 38.3301 22.5409 38.4716 22.4954 38.5399C22.4387 38.6078 22.1613 38.9588 22.0765 39.0323C22.1047 38.9827 22.1368 38.9353 22.1725 38.8908C22.0605 38.9624 21.9765 39.0704 21.9347 39.1966C21.8667 39.4064 22.3143 39.5195 22.6085 39.6046C22.9027 39.6898 23.0166 39.7166 23.0166 39.7166C22.9083 39.5539 22.8153 39.3814 22.7388 39.2014C22.6268 38.9353 22.5689 38.9069 22.6425 38.7822C22.6992 38.6575 22.7844 38.5727 22.7844 38.4764C22.7504 38.3868 22.722 38.3301 22.722 38.3301Z" fill="#574F35"></path>
<path fill-rule="evenodd" clip-rule="evenodd" d="M16.2654 38.7779C16.3066 38.7855 16.3489 38.7855 16.3901 38.7779C16.4748 38.7663 17.3585 38.4419 18.2818 38.5002C18.9729 38.5419 19.658 38.6545 20.3261 38.8362C21.4872 39.1419 22.9313 39.7478 23.8657 40.0935C24.1147 40.1895 24.3585 40.3597 24.5377 40.4273C25.2515 40.7051 25.2795 40.7051 25.6988 40.7786C26.1916 40.8466 26.6956 40.6823 27.2224 40.5692C27.8678 40.4273 28.9722 40.3594 29.9406 40.2179C30.2537 40.1745 30.5626 40.1044 30.8638 40.0084C30.8638 40.0084 30.0937 40.7786 28.2472 41.056C27.5008 41.1693 26.7423 41.1789 25.9933 41.0844C25.4042 41.0276 25.0137 40.9425 24.7192 40.8578C24.385 40.7614 23.6996 40.5064 22.8558 40.2978C22.2667 40.1447 21.6097 40.0316 20.8566 39.8901C18.9989 39.55 16.9829 39.1595 16.2646 38.7802L16.2654 38.7779Z" fill="#252211"></path>
<path fill-rule="evenodd" clip-rule="evenodd" d="M14.1807 35.2778C13.7327 35.6571 13.2574 36.0196 12.7934 36.3706L11.3945 37.4454C10.9189 37.7963 10.4545 38.1588 9.97846 38.5102C9.50246 38.8615 9.02721 39.1952 8.52246 39.5182C8.97046 39.1388 9.44571 38.7875 9.92134 38.4422C10.397 38.0969 10.8901 37.7583 11.349 37.4081L12.7478 36.3318C13.2291 35.9808 13.6935 35.6183 14.1807 35.2786V35.2778ZM11.7059 39.2423C11.7059 39.2423 12.2099 38.823 12.8386 38.2343C13.62 37.504 14.5772 36.5692 14.8829 36.3997L11.7055 39.2426L11.7059 39.2423Z" fill="#CFB66C"></path>
<path fill-rule="evenodd" clip-rule="evenodd" d="M11.7061 39.2417C11.9554 38.9927 12.2216 38.7493 12.4878 38.5111L12.8955 38.1602C13.0202 38.0482 13.1621 37.9224 13.2864 37.7977C13.5354 37.5486 13.7792 37.2821 14.0282 37.0275C14.1516 36.8994 14.2821 36.7784 14.4191 36.665C14.4875 36.6044 14.5636 36.5529 14.6453 36.5119C14.7136 36.4723 14.7872 36.3999 14.8831 36.3872C14.8267 36.4723 14.7588 36.5119 14.7021 36.5854C14.6341 36.6422 14.5774 36.7101 14.521 36.7665C14.3963 36.8912 14.2548 37.0043 14.1301 37.1178C13.8639 37.3444 13.5865 37.5658 13.3203 37.8029C13.0542 38.04 12.8051 38.2957 12.5386 38.5335C12.25 38.7773 11.9838 39.0151 11.7061 39.2428V39.2417ZM15.0929 36.9763C15.0929 36.9763 13.2468 38.7833 12.8671 39.0774L15.0929 36.9763Z" fill="#CFB66C"></path>
<path fill-rule="evenodd" clip-rule="evenodd" d="M15.093 36.9766C14.9269 37.1688 14.7489 37.3504 14.5599 37.5201L13.9999 38.0525C13.8188 38.2336 13.6486 38.415 13.4563 38.5961C13.2581 38.7659 13.077 38.9321 12.8672 39.0889L13.4108 38.5565C13.5922 38.3754 13.7904 38.2227 13.9831 38.0413L14.5267 37.5089C14.7133 37.3223 14.8948 37.1408 15.093 36.9766ZM15.1777 37.9562C15.0076 38.4311 14.8071 38.8946 14.5774 39.3439C14.1018 40.2955 13.3884 41.4846 13.0766 42.0909L15.1777 37.9562Z" fill="#CFB66C"></path>
<path fill-rule="evenodd" clip-rule="evenodd" d="M15.1776 37.9565C15.1776 38.166 15.1208 38.3474 15.0529 38.5285C14.9866 38.7097 14.9111 38.8874 14.8266 39.0609C14.7415 39.2307 14.6452 39.4122 14.5489 39.5764C14.4525 39.7407 14.3394 39.9102 14.2543 40.0804L13.6824 41.0884C13.4841 41.4244 13.2915 41.7623 13.082 42.0852C13.2235 41.7227 13.4162 41.383 13.5976 41.0489C13.7958 40.7129 13.9769 40.3769 14.1576 40.0293C14.2458 39.8561 14.3252 39.6785 14.3954 39.4973C14.4802 39.3158 14.5649 39.146 14.6332 38.9817C14.718 38.8007 14.7859 38.6304 14.871 38.4665C14.967 38.2907 15.0465 38.1208 15.1768 37.9565H15.1776Z" fill="#CFB66C"></path>
<path fill-rule="evenodd" clip-rule="evenodd" d="M17.1945 42.6001C17.1945 42.6001 16.6345 43.3419 16.6905 44.282C16.8432 43.7895 17.0358 43.0362 17.1945 42.6001ZM17.7268 43.3438C17.7268 43.3438 17.5286 45.3598 17.3643 46.351C17.5965 45.2052 17.6417 45.3015 17.7268 43.3438ZM21.4363 46.4701C21.4363 46.4701 20.5981 48.9341 20.581 49.6188C20.7624 48.9147 21.1133 47.4762 21.4363 46.4682V46.4701Z" fill="#DEC270"></path>
<path fill-rule="evenodd" clip-rule="evenodd" d="M23.3955 42.4482C23.3955 42.4482 24.7548 44.6909 25.7744 46.6049C25.4985 45.6417 24.8638 43.8751 23.3955 42.4482Z" fill="#CBAF59"></path>
<path fill-rule="evenodd" clip-rule="evenodd" d="M27.0488 45.7495C27.7952 47.0687 28.4682 48.4281 29.0648 49.8215C28.9517 48.8586 28.6456 47.2107 27.0488 45.7495Z" fill="#E3C677"></path>
<path fill-rule="evenodd" clip-rule="evenodd" d="M37.7865 49.0558C38.0127 48.9143 38.4604 48.1438 38.8512 47.9515C39.2417 47.7533 39.5363 47.7137 39.8876 47.3228C40.2385 46.9148 40.3356 46.6657 41.1051 46.3432C42.1814 45.8784 41.4411 45.2781 41.4411 45.2781C41.5596 45.1616 41.6864 45.0538 41.8204 44.9555C42.0981 44.7461 42.4207 44.4911 42.3927 44.0435C42.3531 43.2904 42.2116 42.1973 41.5941 41.563C42.1944 41.4383 43.3439 41.3536 44.0581 41.1725C44.8847 40.9627 45.2644 40.6681 45.2644 40.6681C45.2644 40.6681 44.7887 39.8584 45.5589 39.043C46.3291 38.2277 46.9578 37.7405 47.4222 36.8284C46.8899 36.7605 46.0782 36.4775 44.007 37.2645C44.1188 37.3171 44.2267 37.3776 44.3299 37.4455C44.3299 37.4455 43.0557 37.7968 42.5913 38.1877C41.7812 38.8728 41.6792 39.4335 40.8015 39.8528C39.9238 40.272 39.0401 40.1586 38.3099 40.4983C37.5797 40.838 37.4718 41.127 37.2052 41.2517C37.262 41.3196 37.194 41.4327 37.3015 41.5291C37.2336 41.6254 36.8371 42.2709 36.435 42.2709C36.4746 42.4239 36.8143 42.5371 36.8143 42.5371C36.8143 42.5371 36.5653 42.7185 35.931 42.7637C36.2536 43.0997 36.5597 43.4659 37.4035 43.9983C37.3355 44.1398 37.0521 44.3496 37.1656 44.6158C37.2903 44.882 37.6136 45.2445 38.9043 45.539C38.2472 45.567 37.4774 45.7201 36.4403 45.5786C35.4039 45.4539 35.234 45.3804 34.5941 45.539C34.6621 45.607 34.8431 45.607 35.0018 45.788C34.8319 45.7992 33.7672 45.6633 33.4047 46.1393C33.0254 46.6318 32.8611 47.4419 32.8895 47.9855C32.6912 48.0818 32.4986 48.2517 32.5949 48.603C32.6912 48.9543 33.1952 49.0674 33.5182 49.288C33.8407 49.5259 33.8691 49.6106 34.1752 49.5542C34.4978 49.4863 34.9734 49.1637 35.2512 49.1637C35.5289 49.1637 35.7268 49.3732 35.7268 49.3732C35.7268 49.3732 36.4802 49.0107 36.5537 49.0786C36.6217 49.1465 36.5649 49.5826 36.6385 49.6506C36.7132 49.7017 37.5617 49.1977 37.7884 49.0558H37.7865Z" fill="#ECD592"></path>
<path fill-rule="evenodd" clip-rule="evenodd" d="M54.2507 26.3918C50.7111 17.2511 41.9609 15.5576 41.9609 15.5576H16.9965L17.0928 24.8682H22.0645V45.6587H16.9961V54.9525H41.2699C47.12 54.9525 51.8094 49.0736 51.8094 49.0736C59.319 38.4153 54.2503 26.3918 54.2503 26.3918H54.2507ZM41.4001 42.8098C41.4001 42.8098 39.4961 45.5568 37.4245 45.5568H33.2805L33.1823 24.891H38.5005C38.5005 24.891 40.9645 25.4062 42.6859 30.2823C42.6859 30.2823 44.9681 37.2636 41.4001 42.8098Z" fill="white" fill-opacity="0.8"></path>
</svg>
