<svg width="31" height="24" viewBox="0 0 31 24" fill="none" xmlns="http://www.w3.org/2000/svg">
<g clip-path="url(#clip0_668_990)">
<path d="M24.6426 0.482422H6.35742C2.85185 0.482422 0 3.33427 0 6.83984V17.069C0 20.5745 2.85185 23.4264 6.35742 23.4264H7.30087L9.51201 26.2316C9.68443 26.4502 9.94719 26.5777 10.2253 26.5777C10.5035 26.5777 10.7665 26.4502 10.9386 26.2316L13.1498 23.4264H24.6426C28.1481 23.4264 31 20.5745 31 17.069V6.83984C31 3.33427 28.1481 0.482422 24.6426 0.482422V0.482422Z" fill="#6787F5"/>
<path d="M24.6426 0.482422H15.5V23.4264H24.6426C28.1481 23.4264 31 20.5745 31 17.069V6.83984C31 3.33427 28.1481 0.482422 24.6426 0.482422Z" fill="#38478A"/>
<path d="M12.0947 24.765L13.1498 23.4264L12.0947 24.765Z" fill="white"/>
<path d="M31 7.94506H23.3638L29.0481 2.26075C27.9045 1.16026 26.3514 0.482422 24.6426 0.482422H23.1202L19.5108 4.09182V0.482422H11.4895V4.09182L7.88008 0.482422H6.35742C4.64863 0.482422 3.09546 1.16026 1.95193 2.26075L7.63624 7.94506H0V15.9663H7.63624L2.16526 21.4371L1.95311 21.6492C3.09664 22.7492 4.64934 23.4264 6.35742 23.4264H7.30087L7.55724 23.7516L11.392 19.9165L11.3298 23.4264H19.5105V19.8295L23.0956 23.4264H24.6426C26.3433 23.4264 27.8901 22.7552 29.032 21.6637L28.8182 21.4489L23.3538 15.9663H31V7.94506Z" fill="white"/>
<path d="M31 7.94506H23.3638L29.0481 2.26075C27.9045 1.16026 26.3514 0.482422 24.6426 0.482422H23.1202L19.5108 4.09182V0.482422H15.5V23.4264H19.5105V19.8295L23.0956 23.4264H24.6426C26.3433 23.4264 27.8901 22.7552 29.032 21.6637L28.8182 21.4489L23.3538 15.9663H31V7.94506Z" fill="#C7D3ED"/>
<path d="M17.6941 9.76147V0.482422H13.3059V9.76147H0V14.1499H13.3059L13.1498 23.4264H17.6941V14.1499H31V9.76147H17.6941Z" fill="#FF337A"/>
<path d="M17.6941 9.76147V0.482422H15.5V23.4264H17.6941V14.1499H31V9.76147H17.6941Z" fill="#FF65A8"/>
<path d="M12.0949 8.55025V7.26599L5.38551 0.556641C4.69749 0.662598 4.04543 0.879478 3.44824 1.18813L10.8106 8.55025H12.0949Z" fill="#FF337A"/>
<path d="M27.5519 1.18813C26.9547 0.879478 26.3026 0.662598 25.6146 0.556641L18.9053 7.26599V8.55025H20.1895L27.5519 1.18813Z" fill="#FF65A8"/>
<path d="M3.44971 22.7215C4.04713 23.03 4.6992 23.2466 5.38744 23.3526L12.0947 16.6451V15.3608H10.8104L3.44971 22.7215Z" fill="#FF337A"/>
<path d="M18.9053 15.3608V16.6489L25.5896 23.3559C26.279 23.2523 26.9327 23.038 27.5315 22.7312L20.186 15.3608H18.9053Z" fill="#FF65A8"/>
</g>
<defs>
<clipPath id="clip0_668_990">
<rect width="31" height="24" fill="white"/>
</clipPath>
</defs>
</svg>
