<svg width="72" height="72" viewBox="0 0 72 72" fill="none" xmlns="http://www.w3.org/2000/svg">
<path d="M65.5139 37.4742C66.0645 36.9266 66.0671 36.0362 65.5195 35.4855C64.9719 34.9348 64.0814 34.9321 63.5308 35.4798C62.9801 36.0274 62.9775 36.9179 63.5251 37.4686C64.0727 38.0192 64.963 38.0218 65.5139 37.4742Z" fill="white"></path>
<path d="M8.63871 21.6208C8.64391 18.5455 9.71688 16.2941 10.356 15.2259C10.7555 14.5581 10.5381 13.6929 9.8703 13.2933C9.20247 12.8938 8.33735 13.1112 7.93783 13.779C7.14977 15.0959 5.82705 17.8653 5.82058 21.6159C5.81411 25.3929 7.14428 28.1815 7.93783 29.5076C8.20178 29.9488 8.66894 30.1933 9.14833 30.1933C9.39442 30.1933 9.64375 30.1288 9.87044 29.9932C10.5383 29.5937 10.7557 28.7284 10.356 28.0606C9.71238 26.9851 8.63336 24.7181 8.63871 21.6208Z" fill="white"></path>
<path d="M21.1255 11.4165C20.3474 11.4165 19.7164 12.0473 19.7164 12.8256V13.4504H17.0974C16.3193 13.4504 15.6884 14.0812 15.6884 14.8594V21.5148V28.17C15.6884 28.9482 16.3192 29.5791 17.0974 29.5791H19.7164V30.1509C19.7164 30.9291 20.3473 31.5599 21.1255 31.5599C21.9037 31.5599 22.5345 30.9291 22.5345 30.1509V29.5791H24.1474C25.4116 29.5791 26.601 29.0866 27.4969 28.1919C28.3914 27.2974 28.884 26.1079 28.884 24.8425C28.884 23.0801 27.9157 21.5404 26.4837 20.7248C26.9625 19.9731 27.2202 19.1003 27.2202 18.1872C27.2202 15.5925 25.1227 13.4795 22.5345 13.4518V12.8257C22.5345 12.0473 21.9036 11.4165 21.1255 11.4165ZM25.5048 26.1984C25.1416 26.5613 24.6595 26.7609 24.1472 26.7609H18.5063V22.9237H22.4834H24.1472C25.2052 22.9237 26.0659 23.7843 26.0659 24.8423C26.0659 25.355 25.8664 25.8368 25.5048 26.1984ZM24.402 18.187C24.402 18.6998 24.2025 19.1815 23.8409 19.5432C23.4777 19.9059 22.9955 20.1057 22.4834 20.1057H18.5063V16.2683H22.4834C23.5414 16.2683 24.402 17.1291 24.402 18.187Z" fill="white"></path>
<path d="M35.4358 29.5078C36.2238 28.1908 37.5466 25.4214 37.5529 21.6709C37.5594 17.8944 36.2293 15.1055 35.4359 13.7793C35.0364 13.1116 34.1717 12.8939 33.5033 13.2936C32.8355 13.6931 32.6179 14.5582 33.0174 15.226C33.6611 16.302 34.7401 18.5694 34.7348 21.6662C34.7296 24.7416 33.6567 26.9928 33.0176 28.0612C32.6181 28.729 32.8355 29.5941 33.5033 29.9938C33.73 30.1293 33.9792 30.1939 34.2253 30.1939C34.7047 30.1935 35.172 29.9489 35.4358 29.5078Z" fill="white"></path>
<path d="M28.1042 32.9742C27.0311 33.6163 24.7726 34.6915 21.6869 34.6915C21.6795 34.6915 21.6716 34.6915 21.6643 34.6915C18.5887 34.6863 16.3375 33.6133 15.2693 32.9742C14.6015 32.5745 13.7363 32.7919 13.3367 33.4599C12.9372 34.1277 13.1545 34.9929 13.8223 35.3924C15.1393 36.1803 17.9086 37.5032 21.6595 37.5095H21.6868C25.4496 37.5095 28.2284 36.1838 29.5512 35.3924C30.219 34.9929 30.4365 34.1276 30.0368 33.4599C29.6374 32.7922 28.7726 32.5745 28.1042 32.9742Z" fill="white"></path>
<path d="M29.5513 7.89439C28.2343 7.10647 25.465 5.78361 21.7141 5.77728C21.7048 5.77728 21.6961 5.77728 21.6868 5.77728C17.924 5.77728 15.1452 7.10295 13.8224 7.89439C13.1545 8.29391 12.9371 9.15917 13.3368 9.82686C13.7363 10.4947 14.6013 10.7124 15.2694 10.3126C16.3425 9.67049 18.601 8.59527 21.6867 8.59527H21.7093C24.7849 8.60047 27.0361 9.67344 28.1043 10.3126C28.3309 10.4481 28.5803 10.5127 28.8264 10.5127C29.3056 10.5127 29.7729 10.2681 30.0369 9.82686C30.4364 9.15917 30.219 8.29391 29.5513 7.89439Z" fill="white"></path>
<path d="M38.7555 42.3172C38.0876 41.9178 37.2226 42.1351 36.8231 42.8029C36.035 44.1198 34.7123 46.8893 34.706 50.6399C34.6995 54.4171 36.0297 57.2056 36.8231 58.5317C37.087 58.9728 37.5542 59.2173 38.0336 59.2173C38.2797 59.2173 38.529 59.1528 38.7557 59.0172C39.4235 58.6177 39.6409 57.7524 39.2413 57.0846C38.5978 56.009 37.5187 53.7421 37.5241 50.6446C37.5293 47.5692 38.6021 45.3178 39.2413 44.2496C39.6408 43.5819 39.4234 42.7168 38.7555 42.3172Z" fill="white"></path>
<path d="M69.5901 40.7502C69.2363 40.0572 68.3873 39.7824 67.6945 40.1363C67.0015 40.4903 66.7266 41.3391 67.0807 42.0321C68.429 44.6721 69.1127 47.5252 69.1127 50.5121C69.1127 60.8067 60.7373 69.1822 50.4428 69.1822C40.148 69.1822 31.7727 60.8068 31.7727 50.5121C31.7727 40.2173 40.148 31.842 50.4428 31.842C53.4466 31.842 56.314 32.533 58.9653 33.896C59.6572 34.2516 60.5069 33.9791 60.8626 33.2871C61.2184 32.595 60.9458 31.7455 60.2537 31.3898C57.243 29.842 53.8505 29.024 50.4428 29.024C46.9036 29.024 43.5618 29.8846 40.6149 31.4068C42.1664 28.4376 43.0455 25.0639 43.0455 21.4882C43.0455 9.63956 33.4059 0 21.5573 0C9.70862 0 0.0693359 9.63956 0.0693359 21.4881C0.0693359 33.3366 9.70876 42.9761 21.5573 42.9761C25.0964 42.9761 28.4382 42.1155 31.3851 40.5934C29.8336 43.5624 28.9546 46.9363 28.9546 50.5119C28.9546 62.3604 38.5941 72 50.4426 72C62.2911 72 71.9305 62.3606 71.9305 50.5119C71.9307 47.0752 71.1432 43.7909 69.5901 40.7502ZM2.88732 21.4881C2.88732 11.1933 11.2627 2.81798 21.5573 2.81798C31.852 2.81798 40.2273 11.1933 40.2273 21.4881C40.2273 31.7827 31.852 40.1581 21.5573 40.1581C11.2627 40.1581 2.88732 31.7828 2.88732 21.4881Z" fill="white"></path>
<path d="M62.3885 59.0172C62.6152 59.1528 62.8646 59.2173 63.1106 59.2173C63.5899 59.2173 64.0572 58.9728 64.3211 58.5315C65.1092 57.2147 66.4319 54.4454 66.4383 50.6946C66.4447 46.9173 65.1146 44.1288 64.3211 42.8029C63.9218 42.1353 63.0571 41.9175 62.3885 42.3173C61.7207 42.7168 61.5033 43.5821 61.903 44.2499C62.5465 45.3255 63.6255 47.5924 63.6201 50.69C63.6149 53.7654 62.5421 56.0167 61.903 57.0849C61.5033 57.7524 61.7207 58.6177 62.3885 59.0172Z" fill="white"></path>
<path d="M42.2222 62.4838C41.8227 63.1516 42.04 64.0167 42.7078 64.4162C44.0248 65.2042 46.794 66.527 50.5448 66.5334H50.5721C54.3354 66.5334 57.1139 65.2077 58.4366 64.4162C59.1044 64.0167 59.3218 63.1515 58.9222 62.4836C58.5225 61.8158 57.6574 61.5984 56.9895 61.9981C55.9166 62.6401 53.6584 63.7154 50.5723 63.7154C50.5648 63.7154 50.5569 63.7154 50.5496 63.7154C47.4742 63.7102 45.223 62.6372 44.1548 61.9981C43.4869 61.5985 42.6216 61.8159 42.2222 62.4838Z" fill="white"></path>
<path d="M58.4364 36.9183C57.1194 36.1304 54.3503 34.8075 50.5994 34.8012C50.5901 34.8012 50.5814 34.8012 50.5721 34.8012C46.8092 34.8012 44.0305 36.1268 42.7076 36.9183C42.0398 37.3178 41.8224 38.1831 42.2221 38.8508C42.486 39.2919 42.9532 39.5366 43.4326 39.5366C43.6786 39.5366 43.928 39.472 44.1547 39.3365C45.2278 38.6944 47.4861 37.6192 50.5719 37.6192H50.5946C53.6701 37.6244 55.9212 38.6973 56.9894 39.3365C57.6572 39.7361 58.5223 39.5187 58.922 38.8508C59.3215 38.1829 59.1041 37.3178 58.4364 36.9183Z" fill="white"></path>
<path d="M23.741 65.8268C16.5714 63.6834 11.5601 57.3843 10.8768 50.0228L13.1155 51.5116C13.7628 51.9425 14.6381 51.7669 15.0689 51.1187C15.4998 50.4707 15.3239 49.5962 14.6759 49.1653L10.1891 46.1812C9.63576 45.8138 8.87286 45.891 8.40585 46.365L4.58408 50.2395C4.03761 50.7935 4.0438 51.6856 4.59772 52.2321C4.87222 52.5029 5.22969 52.638 5.58716 52.638C5.95096 52.638 6.31461 52.498 6.59024 52.2186L8.11096 50.677C9.03782 59.002 14.7769 66.0884 22.9338 68.527C23.7016 68.7566 24.5234 68.2781 24.7085 67.5006C24.8791 66.7841 24.4457 66.0375 23.741 65.8268Z" fill="white"></path>
<path d="M48.3507 6.37496C55.5203 8.51837 60.5316 14.8175 61.2149 22.179L58.9762 20.6902C58.3288 20.2594 57.4536 20.4352 57.0228 21.0832C56.5919 21.7312 56.7678 22.6058 57.416 23.0366L61.9027 26.0204C62.4567 26.3901 63.2184 26.3101 63.686 25.8366L67.5078 21.9623C68.0544 21.4083 68.0481 20.5162 67.4941 19.9697C66.9402 19.4233 66.0479 19.4293 65.5016 19.9834L63.9809 21.5251C63.054 13.2002 57.315 6.11368 49.1579 3.6751C48.4224 3.45488 47.6241 3.88604 47.4043 4.62151C47.1845 5.35698 47.6151 6.15502 48.3507 6.37496Z" fill="white"></path>
<path d="M52.1989 49.2668C51.0491 48.8604 49.7789 48.3705 49.0743 47.8178C48.8848 47.6692 48.8057 47.3131 48.8776 46.9318C48.9143 46.7367 49.0855 46.0849 49.7446 45.8864C51.2266 45.4396 52.7046 46.3424 52.7465 46.3684C53.3983 46.7864 54.2657 46.5999 54.6882 45.9501C55.1124 45.2976 54.9272 44.4248 54.2747 44.0007C54.2091 43.9581 53.2014 43.3157 51.7729 43.055V42.6735C51.7729 41.8953 51.1421 41.2644 50.3639 41.2644C49.5857 41.2644 48.9548 41.8953 48.9548 42.6735V43.1816C48.9471 43.1838 48.9393 43.1857 48.9316 43.188C47.4823 43.6247 46.4004 44.8592 46.1081 46.4099C45.8384 47.841 46.3087 49.2301 47.3349 50.0351C48.3574 50.8371 49.8254 51.4167 51.2595 51.9237C52.4215 52.3344 52.4555 53.2253 52.3724 53.7197C52.2345 54.5404 51.5441 55.4271 50.3544 55.4351C49.1317 55.4442 48.7773 55.3878 47.8482 54.7802C47.1969 54.3541 46.3237 54.537 45.8978 55.188C45.4719 55.8392 45.6545 56.7125 46.3057 57.1385C47.312 57.7967 48.0635 58.0788 48.9549 58.1895V58.6609C48.9549 59.4391 49.5858 60.0699 50.364 60.0699C51.1422 60.0699 51.7731 59.4391 51.7731 58.6609V58.0463C53.666 57.4774 54.8768 55.8209 55.1516 54.1869C55.5195 51.9985 54.3329 50.0213 52.1989 49.2668Z" fill="white"></path>
</svg>
