<svg width="72" height="72" fill="none" xmlns="http://www.w3.org/2000/svg"><path d="M65.514 37.474a1.406 1.406 0 1 0-1.984-1.994 1.406 1.406 0 0 0 1.984 1.994ZM8.639 21.62c.005-3.075 1.078-5.326 1.717-6.394a1.41 1.41 0 0 0-2.418-1.447c-.788 1.317-2.111 4.086-2.117 7.837-.007 3.777 1.323 6.566 2.117 7.892a1.408 1.408 0 1 0 2.418-1.447c-.644-1.076-1.723-3.343-1.717-6.44ZM21.125 11.416c-.778 0-1.409.631-1.409 1.41v.624h-2.619c-.778 0-1.409.631-1.409 1.41v13.31c0 .778.631 1.41 1.41 1.41h2.618v.57a1.409 1.409 0 0 0 2.819 0v-.57h1.612a4.71 4.71 0 0 0 3.35-1.388 4.706 4.706 0 0 0 1.387-3.35 4.738 4.738 0 0 0-2.4-4.117 4.705 4.705 0 0 0 .736-2.538 4.742 4.742 0 0 0-4.685-4.735v-.626c0-.779-.631-1.41-1.41-1.41Zm4.38 14.782a1.908 1.908 0 0 1-1.358.563h-5.64v-3.837h5.64a1.92 1.92 0 0 1 1.358 3.274Zm-1.103-8.011c0 .513-.2.994-.561 1.356a1.91 1.91 0 0 1-1.358.563h-3.977v-3.838h3.977a1.92 1.92 0 0 1 1.919 1.919ZM35.436 29.508c.788-1.317 2.11-4.087 2.117-7.837.006-3.777-1.324-6.566-2.117-7.892a1.409 1.409 0 1 0-2.419 1.447c.644 1.076 1.723 3.343 1.718 6.44-.005 3.076-1.078 5.327-1.717 6.395a1.41 1.41 0 1 0 2.418 1.447ZM28.104 32.974c-1.073.642-3.331 1.718-6.417 1.718h-.023c-3.075-.006-5.327-1.079-6.395-1.718a1.409 1.409 0 1 0-1.447 2.418c1.317.788 4.087 2.111 7.838 2.117h.027c3.763 0 6.541-1.325 7.864-2.117a1.409 1.409 0 1 0-1.447-2.418ZM29.551 7.894c-1.317-.788-4.086-2.11-7.837-2.117h-.027c-3.763 0-6.542 1.326-7.865 2.117a1.409 1.409 0 1 0 1.447 2.419c1.074-.643 3.332-1.718 6.418-1.718h.022c3.076.005 5.327 1.078 6.395 1.718a1.408 1.408 0 1 0 1.447-2.418ZM38.755 42.317a1.409 1.409 0 0 0-1.932.486c-.788 1.317-2.11 4.086-2.117 7.837-.007 3.777 1.324 6.566 2.117 7.892a1.408 1.408 0 1 0 2.418-1.447c-.643-1.076-1.722-3.343-1.717-6.44.005-3.076 1.078-5.327 1.717-6.395.4-.668.182-1.533-.486-1.933Z" fill="#fff"/><path d="M69.59 40.75a1.409 1.409 0 1 0-2.51 1.282 18.47 18.47 0 0 1 2.033 8.48c0 10.295-8.376 18.67-18.67 18.67-10.295 0-18.67-8.375-18.67-18.67 0-10.295 8.375-18.67 18.67-18.67 3.004 0 5.871.691 8.522 2.054a1.41 1.41 0 0 0 1.289-2.506 21.548 21.548 0 0 0-9.811-2.366c-3.54 0-6.881.86-9.828 2.383a21.356 21.356 0 0 0 2.43-9.919C43.045 9.64 33.405 0 21.557 0 9.71 0 .07 9.64.07 21.488c0 11.849 9.64 21.488 21.488 21.488 3.54 0 6.881-.86 9.828-2.383a21.355 21.355 0 0 0-2.43 9.919C28.955 62.36 38.595 72 50.443 72 62.29 72 71.93 62.36 71.93 50.512c0-3.437-.787-6.721-2.34-9.762ZM2.887 21.488c0-10.295 8.376-18.67 18.67-18.67 10.295 0 18.67 8.375 18.67 18.67 0 10.295-8.375 18.67-18.67 18.67-10.294 0-18.67-8.375-18.67-18.67Z" fill="#fff"/><path d="M62.389 59.017a1.408 1.408 0 0 0 1.933-.486c.787-1.316 2.11-4.086 2.116-7.836.007-3.778-1.323-6.566-2.117-7.892a1.409 1.409 0 1 0-2.418 1.447c.644 1.075 1.723 3.342 1.717 6.44-.005 3.075-1.078 5.327-1.717 6.395-.4.667-.182 1.533.486 1.932ZM42.222 62.484c-.4.668-.182 1.533.486 1.932 1.317.788 4.086 2.111 7.837 2.117h.027c3.763 0 6.542-1.325 7.865-2.117a1.409 1.409 0 1 0-1.447-2.418c-1.073.642-3.332 1.717-6.418 1.717h-.022c-3.076-.005-5.327-1.078-6.395-1.717a1.409 1.409 0 0 0-1.933.486ZM58.436 36.918c-1.317-.788-4.086-2.11-7.837-2.117h-.027c-3.763 0-6.541 1.326-7.864 2.117a1.409 1.409 0 1 0 1.447 2.419c1.073-.643 3.331-1.718 6.417-1.718h.023c3.075.005 5.326 1.078 6.394 1.718a1.409 1.409 0 1 0 1.447-2.419ZM23.741 65.827c-7.17-2.144-12.18-8.443-12.864-15.804l2.239 1.489a1.409 1.409 0 1 0 1.56-2.347l-4.487-2.984a1.425 1.425 0 0 0-1.783.184l-3.822 3.874a1.41 1.41 0 0 0 2.006 1.98l1.521-1.542c.927 8.325 6.666 15.411 14.823 17.85.768.23 1.59-.249 1.774-1.026a1.422 1.422 0 0 0-.967-1.674ZM48.35 6.375c7.17 2.143 12.182 8.443 12.865 15.804l-2.239-1.489a1.409 1.409 0 0 0-1.56 2.347l4.487 2.983c.554.37 1.315.29 1.783-.183l3.822-3.875a1.409 1.409 0 1 0-2.006-1.979l-1.521 1.542c-.927-8.325-6.666-15.411-14.823-17.85a1.422 1.422 0 0 0-1.754.947c-.22.735.211 1.533.947 1.753ZM52.199 49.267c-1.15-.407-2.42-.897-3.125-1.45-.19-.148-.268-.504-.196-.885.036-.195.208-.847.867-1.046 1.482-.446 2.96.456 3.002.482a1.409 1.409 0 0 0 1.528-2.367 7.417 7.417 0 0 0-2.502-.946v-.382a1.409 1.409 0 1 0-2.818 0v.509l-.023.006c-1.45.437-2.532 1.671-2.824 3.222-.27 1.431.2 2.82 1.227 3.625 1.022.802 2.49 1.382 3.925 1.889 1.162.41 1.196 1.301 1.112 1.796-.138.82-.828 1.707-2.018 1.715-1.222.01-1.577-.047-2.506-.655a1.409 1.409 0 1 0-1.542 2.358c1.006.659 1.758.94 2.649 1.052v.47a1.409 1.409 0 0 0 2.818 0v-.614c1.893-.569 3.104-2.225 3.379-3.86.367-2.188-.82-4.165-2.953-4.92Z" fill="#fff"/></svg>