<svg width="60" height="66" viewBox="0 0 60 66" fill="none" xmlns="http://www.w3.org/2000/svg">
<path d="M53.9062 13.3912H53.5645V9.65625C53.5645 7.13625 51.5142 5.08594 48.9942 5.08594H48.893V2.625C48.893 1.65469 48.1055 0.867188 47.1352 0.867188C46.1648 0.867188 45.3773 1.65469 45.3773 2.625V5.08594H45.2761C42.7561 5.08594 40.7058 7.13625 40.7058 9.65625V13.3912H19.2942V13.3041C19.2942 10.7841 17.2439 8.73375 14.7239 8.73375H14.6227V6.27281C14.6227 5.3025 13.8352 4.515 12.8648 4.515C11.8945 4.515 11.107 5.3025 11.107 6.27281V8.73375H11.0058C8.48578 8.73375 6.43547 10.7841 6.43547 13.3041V13.3912H6.09375C2.79891 13.3912 0.117188 16.0716 0.117188 19.3678V48.3366C0.117188 51.6314 2.79891 54.3131 6.09375 54.3131H22.4836V61.6172H14.4047C13.4344 61.6172 12.6469 62.4047 12.6469 63.375C12.6469 64.3453 13.4344 65.1328 14.4047 65.1328H45.5953C46.5656 65.1328 47.3531 64.3453 47.3531 63.375C47.3531 62.4047 46.5656 61.6172 45.5953 61.6172H37.5164V54.3131H53.9062C57.2011 54.3131 59.8828 51.6314 59.8828 48.3366V19.3678C59.8828 16.0716 57.2011 13.3912 53.9062 13.3912ZM44.2214 9.65625C44.2214 9.07406 44.6939 8.60156 45.2761 8.60156H48.9942C49.5764 8.60156 50.0489 9.07406 50.0489 9.65625V30.3759C50.0489 30.9581 49.5764 31.4306 48.9942 31.4306H45.2761C44.6939 31.4306 44.2214 30.9581 44.2214 30.3759V9.65625ZM9.95109 13.3041C9.95109 12.7219 10.4236 12.2494 11.0058 12.2494H14.7239C15.3061 12.2494 15.7786 12.7219 15.7786 13.3041V29.497C15.7786 30.0792 15.3061 30.5517 14.7239 30.5517H11.0058C10.4236 30.5517 9.95109 30.0792 9.95109 29.497V13.3041ZM34.0022 61.6172H25.9992V54.3131H34.0022V61.6172ZM56.3686 48.3366C56.3686 49.6936 55.2647 50.7975 53.9077 50.7975H35.7642C35.7642 50.7975 35.7614 50.7975 35.76 50.7975H24.2414C24.2414 50.7975 24.2386 50.7975 24.2372 50.7975H6.09375C4.73672 50.7975 3.63281 49.6936 3.63281 48.3366V19.3678C3.63281 18.0108 4.73672 16.9069 6.09375 16.9069H6.43547V29.4984C6.43547 32.0184 8.48578 34.0688 11.0058 34.0688H11.107V36.5297C11.107 37.5 11.8945 38.2875 12.8648 38.2875C13.8352 38.2875 14.6227 37.5 14.6227 36.5297V34.0688H14.7239C17.2439 34.0688 19.2942 32.0184 19.2942 29.4984V16.9069H40.7058V30.3759C40.7058 32.8959 42.7561 34.9462 45.2761 34.9462H45.3773V37.4072C45.3773 38.3775 46.1648 39.165 47.1352 39.165C48.1055 39.165 48.893 38.3775 48.893 37.4072V34.9462H48.9942C51.5142 34.9462 53.5645 32.8959 53.5645 30.3759V16.9069H53.9062C55.2633 16.9069 56.3672 18.0108 56.3672 19.3678V48.3366H56.3686ZM17.8064 45.5241C17.8064 46.4944 17.0189 47.2819 16.0486 47.2819H8.90766C7.93734 47.2819 7.14984 46.4944 7.14984 45.5241C7.14984 44.5537 7.93734 43.7662 8.90766 43.7662H16.0486C17.0189 43.7662 17.8064 44.5537 17.8064 45.5241ZM52.853 45.5241C52.853 46.4944 52.0655 47.2819 51.0952 47.2819H43.9542C42.9839 47.2819 42.1964 46.4944 42.1964 45.5241C42.1964 44.5537 42.9839 43.7662 43.9542 43.7662H51.0952C52.0655 43.7662 52.853 44.5537 52.853 45.5241ZM31.8605 22.965H31.7592V20.5041C31.7592 19.5337 30.9717 18.7462 30.0014 18.7462C29.0311 18.7462 28.2436 19.5337 28.2436 20.5041V22.965H28.1423C25.6223 22.965 23.572 25.0153 23.572 27.5353V38.4928C23.572 41.0128 25.6223 43.0631 28.1423 43.0631H28.2436V45.5241C28.2436 46.4944 29.0311 47.2819 30.0014 47.2819C30.9717 47.2819 31.7592 46.4944 31.7592 45.5241V43.0631H31.8605C34.3805 43.0631 36.4308 41.0128 36.4308 38.4928V27.5353C36.4308 25.0153 34.3805 22.965 31.8605 22.965V22.965ZM32.9152 38.4928C32.9152 39.075 32.4427 39.5475 31.8605 39.5475H28.1423C27.5602 39.5475 27.0877 39.075 27.0877 38.4928V27.5353C27.0877 26.9531 27.5602 26.4806 28.1423 26.4806H31.8605C32.4427 26.4806 32.9152 26.9531 32.9152 27.5353V38.4928Z" fill="white"></path>
</svg>
