<svg width="60" height="66" fill="none" xmlns="http://www.w3.org/2000/svg"><path d="M53.906 13.391h-.341V9.656c0-2.52-2.05-4.57-4.57-4.57h-.102V2.625a1.758 1.758 0 0 0-3.516 0v2.46h-.1c-2.52 0-4.571 2.051-4.571 4.571v3.735H19.294v-.087c0-2.52-2.05-4.57-4.57-4.57h-.101V6.273a1.758 1.758 0 0 0-3.516 0v2.46h-.101c-2.52 0-4.57 2.051-4.57 4.571v.087h-.342a5.983 5.983 0 0 0-5.977 5.977v28.969a5.984 5.984 0 0 0 5.977 5.976h16.39v7.304h-8.08a1.758 1.758 0 0 0 0 3.516h31.191a1.758 1.758 0 0 0 0-3.516h-8.079v-7.304h16.39a5.984 5.984 0 0 0 5.977-5.976v-28.97a5.983 5.983 0 0 0-5.977-5.976Zm-9.685-3.735c0-.582.473-1.054 1.055-1.054h3.718c.582 0 1.055.472 1.055 1.054v20.72c0 .582-.473 1.055-1.055 1.055h-3.718a1.055 1.055 0 0 1-1.055-1.055V9.656Zm-34.27 3.648c0-.582.473-1.055 1.055-1.055h3.718c.582 0 1.055.473 1.055 1.055v16.193c0 .582-.473 1.055-1.055 1.055h-3.718a1.055 1.055 0 0 1-1.055-1.055V13.304Zm24.051 48.313H26v-7.304h8.003v7.304Zm22.367-13.28a2.464 2.464 0 0 1-2.461 2.46H6.094a2.464 2.464 0 0 1-2.461-2.46v-28.97a2.464 2.464 0 0 1 2.46-2.46h.342v12.591c0 2.52 2.05 4.57 4.57 4.57h.102v2.462a1.758 1.758 0 0 0 3.516 0v-2.461h.1c2.52 0 4.571-2.05 4.571-4.57V16.906h21.412v13.469c0 2.52 2.05 4.57 4.57 4.57h.101v2.461a1.758 1.758 0 0 0 3.516 0v-2.46h.101c2.52 0 4.57-2.051 4.57-4.571v-13.47h.342a2.464 2.464 0 0 1 2.461 2.462v28.969h.002Zm-38.563-2.813c0 .97-.787 1.758-1.757 1.758H8.908a1.758 1.758 0 0 1 0-3.516h7.14c.97 0 1.758.788 1.758 1.758Zm35.047 0c0 .97-.788 1.758-1.758 1.758h-7.14a1.758 1.758 0 0 1 0-3.516h7.14c.97 0 1.758.788 1.758 1.758ZM31.86 22.965h-.1v-2.46a1.758 1.758 0 0 0-3.516 0v2.46h-.102c-2.52 0-4.57 2.05-4.57 4.57v10.958c0 2.52 2.05 4.57 4.57 4.57h.102v2.461a1.758 1.758 0 0 0 3.515 0v-2.46h.101c2.52 0 4.57-2.051 4.57-4.571V27.535c0-2.52-2.05-4.57-4.57-4.57Zm1.055 15.528c0 .582-.472 1.054-1.055 1.054h-3.718a1.055 1.055 0 0 1-1.054-1.054V27.535c0-.582.472-1.054 1.054-1.054h3.718c.583 0 1.055.472 1.055 1.054v10.958Z" fill="#fff"/></svg>