<svg width="68" height="68" viewBox="0 0 68 68" fill="none" xmlns="http://www.w3.org/2000/svg">
<path d="M60.5197 16.7687C59.9166 16.6101 59.2753 16.6952 58.7345 17.0057C58.1937 17.3162 57.7968 17.8271 57.6297 18.4279C57.5365 18.7266 57.506 19.0413 57.5401 19.3523C57.5743 19.6633 57.6723 19.9639 57.8281 20.2353C57.9839 20.5066 58.1941 20.7428 58.4454 20.9291C58.6968 21.1154 58.984 21.2478 59.2889 21.3179C59.5881 21.4021 59.901 21.4259 60.2095 21.3878C60.5179 21.3497 60.8157 21.2505 61.0854 21.0961C61.3551 20.9416 61.5913 20.7349 61.7802 20.4881C61.9691 20.2413 62.107 19.9594 62.1857 19.6587C62.3248 19.0556 62.2302 18.4222 61.9211 17.886C61.612 17.3498 61.1113 16.9506 60.5197 16.7687ZM8.70368 46.6071C8.0997 46.4683 7.46555 46.5638 6.9292 46.8743C6.39284 47.1847 5.9942 47.687 5.81368 48.2799C5.65736 48.883 5.74444 49.5233 6.05613 50.0627C6.36783 50.6022 6.87913 50.9974 7.47968 51.1631C7.77883 51.2562 8.094 51.2865 8.40539 51.2519C8.71678 51.2173 9.01765 51.1187 9.28908 50.9622C9.56051 50.8058 9.79664 50.5948 9.9826 50.3427C10.1686 50.0905 10.3004 49.8026 10.3697 49.4971C10.4538 49.1984 10.4775 48.8859 10.4393 48.5779C10.4012 48.2699 10.3019 47.9726 10.1474 47.7034C9.99287 47.4343 9.78618 47.1987 9.53945 47.0104C9.29271 46.8222 9.01089 46.6851 8.71048 46.6071H8.70368ZM9.34968 44.3699C10.0366 44.529 10.664 44.8805 11.1585 45.3831C11.2662 45.4468 11.3867 45.4859 11.5113 45.4977C11.6359 45.5094 11.7615 45.4935 11.8793 45.4511L18.5297 41.5479C18.6636 41.4829 18.7681 41.3698 18.8223 41.2311C18.8765 41.0925 18.8764 40.9385 18.8221 40.7999C17.8572 38.6532 17.3583 36.3263 17.3583 33.9727C17.3583 31.6191 17.8572 29.2922 18.8221 27.1455C18.8687 27.0103 18.8648 26.8628 18.811 26.7303C18.7572 26.5978 18.6573 26.4892 18.5297 26.4247L12.8245 23.1199C12.6806 23.056 12.5176 23.0501 12.3695 23.1033C12.2213 23.1565 12.0993 23.2647 12.0289 23.4055C11.9541 23.5551 11.8793 23.7659 11.8113 23.9155C11.7196 24.123 11.5711 24.3004 11.383 24.4271C11.1949 24.5539 10.9748 24.625 10.7481 24.6321C10.5213 24.6392 10.2972 24.5821 10.1015 24.4673C9.90586 24.3526 9.74658 24.1849 9.64209 23.9835C9.59141 23.8782 9.50699 23.793 9.40225 23.7412C9.29752 23.6894 9.17848 23.6742 9.06409 23.6979C7.89157 23.8949 6.68742 23.6586 5.67639 23.0329C4.66536 22.4073 3.91654 21.4351 3.56968 20.2979C3.39242 19.6549 3.35228 18.9818 3.45185 18.3223C3.55142 17.6628 3.78849 17.0315 4.14768 16.4695C4.76461 15.5881 5.66192 14.9417 6.69332 14.6357C7.72471 14.3297 8.82936 14.3821 9.82716 14.7844C10.825 15.1866 11.6571 15.9151 12.1878 16.8509C12.7185 17.7867 12.9166 18.8747 12.7497 19.9375C12.7277 20.0526 12.7445 20.1718 12.7974 20.2763C12.8503 20.3809 12.9363 20.465 13.0421 20.5155L19.7605 24.4187C19.8213 24.455 19.8891 24.4781 19.9594 24.4867C20.0297 24.4954 20.101 24.4892 20.1688 24.4688C20.2367 24.4483 20.2995 24.4139 20.3533 24.3678C20.407 24.3218 20.4506 24.265 20.4813 24.2011C21.8688 22.3146 23.6324 20.7363 25.6607 19.5659C27.6891 18.3955 29.9381 17.6584 32.2657 17.4011C32.3418 17.402 32.4174 17.3877 32.488 17.359C32.5585 17.3302 32.6226 17.2877 32.6764 17.2338C32.7303 17.18 32.7728 17.1159 32.8015 17.0454C32.8303 16.9748 32.8446 16.8993 32.8437 16.8231V13.0831C32.8397 12.9613 32.7945 12.8446 32.7154 12.7519C32.6363 12.6592 32.5281 12.5962 32.4085 12.5731C31.4949 12.2349 30.707 11.6246 30.1513 10.8244C29.5956 10.0243 29.2988 9.0729 29.3009 8.09871C29.2768 7.46707 29.3805 6.83707 29.6056 6.24642C29.8308 5.65577 30.1728 5.11662 30.6111 4.66124C31.0495 4.20585 31.5753 3.8436 32.1569 3.59616C32.7386 3.34873 33.3642 3.22119 33.9963 3.22119C34.6284 3.22119 35.254 3.34873 35.8356 3.59616C36.4173 3.8436 36.9431 4.20585 37.3814 4.66124C37.8198 5.11662 38.1618 5.65577 38.3869 6.24642C38.6121 6.83707 38.7157 7.46707 38.6917 8.09871C38.6938 9.0729 38.397 10.0243 37.8413 10.8244C37.2855 11.6246 36.4977 12.2349 35.5841 12.5731C35.4652 12.5964 35.3578 12.6597 35.2798 12.7525C35.2019 12.8453 35.1581 12.962 35.1557 13.0831V16.8367C35.1548 16.9129 35.1691 16.9884 35.1978 17.059C35.2265 17.1295 35.2691 17.1936 35.3229 17.2474C35.3768 17.3013 35.4409 17.3438 35.5114 17.3726C35.582 17.4013 35.6575 17.4156 35.7337 17.4147C38.0601 17.6729 40.3078 18.4104 42.3349 19.5808C44.362 20.7512 46.1245 22.329 47.5113 24.2147C47.5419 24.2786 47.5855 24.3354 47.6393 24.3814C47.6931 24.4275 47.7559 24.4619 47.8237 24.4824C47.8915 24.5028 47.9629 24.509 48.0332 24.5003C48.1035 24.4917 48.1712 24.4686 48.2321 24.4323L54.9573 20.5291C55.0625 20.4784 55.1478 20.394 55.1996 20.2893C55.2513 20.1845 55.2666 20.0655 55.2429 19.9511C55.1237 19.2552 55.1492 18.5423 55.3177 17.8567C55.548 16.9748 56.029 16.1786 56.7026 15.5646C57.3762 14.9506 58.2134 14.5451 59.1128 14.3973C60.0122 14.2494 60.9352 14.3656 61.7699 14.7316C62.6046 15.0977 63.3152 15.698 63.8157 16.4598C64.3162 17.2215 64.585 18.1121 64.5896 19.0235C64.5941 19.935 64.3343 20.8282 63.8415 21.595C63.3488 22.3617 62.6442 22.9691 61.8132 23.3436C60.9823 23.7181 60.0605 23.8435 59.1597 23.7047C59.0243 23.6975 58.8895 23.7273 58.7698 23.7907C58.65 23.8542 58.5497 23.9491 58.4797 24.0651C58.4077 24.288 58.2704 24.4841 58.0857 24.6281C57.901 24.7721 57.6773 24.8573 57.4435 24.8726C57.2098 24.888 56.9769 24.8329 56.7749 24.7144C56.5729 24.5959 56.4111 24.4194 56.3105 24.2079C56.2357 23.9223 56.0181 23.7047 55.9501 23.4123C55.8678 23.2636 55.7328 23.1511 55.5717 23.097C55.4106 23.0429 55.2351 23.0511 55.0797 23.1199L49.4629 26.4519C49.3291 26.5169 49.2251 26.6304 49.172 26.7694C49.1189 26.9083 49.1208 27.0623 49.1773 27.1999C50.1388 29.3475 50.6358 31.6741 50.6358 34.0271C50.6358 36.3802 50.1388 38.7067 49.1773 40.8543C49.1287 40.9886 49.1309 41.1361 49.1835 41.2688C49.2361 41.4016 49.3355 41.5106 49.4629 41.5751L56.1133 45.4783C56.231 45.5207 56.3567 45.5366 56.4813 45.5249C56.6059 45.5131 56.7264 45.474 56.8341 45.4103C57.3286 44.9077 57.956 44.5562 58.6429 44.3971C59.2408 44.2346 59.8648 44.1918 60.4793 44.2711C61.0938 44.3504 61.6865 44.5502 62.2235 44.8592C62.7606 45.1681 63.2313 45.5801 63.6087 46.0714C63.9861 46.5628 64.2628 47.1238 64.4229 47.7223C64.587 48.3113 64.6331 48.9269 64.5584 49.5338C64.4837 50.1406 64.2897 50.7267 63.9877 51.2583C63.3489 52.3503 62.3138 53.154 61.0977 53.5023C60.0476 53.7074 58.9597 53.5805 57.9849 53.1395C57.0102 52.6984 56.1968 51.9649 55.6577 51.0407C55.3721 50.6123 54.9369 50.6803 54.5765 51.0407C53.7061 52.2715 51.7545 50.7551 52.7677 49.5243C53.2827 48.9728 53.7386 48.3688 54.1277 47.7223C54.1739 47.6593 54.206 47.5872 54.2218 47.5107C54.2377 47.4342 54.2368 47.3552 54.2194 47.2791C54.202 47.203 54.1684 47.1315 54.1209 47.0695C54.0734 47.0075 54.0131 46.9565 53.9441 46.9199L48.2321 43.5947C48.115 43.5271 47.9774 43.5043 47.8448 43.5306C47.7122 43.5569 47.5937 43.6304 47.5113 43.7375C46.1389 45.6435 44.3812 47.2399 42.3523 48.423C40.3234 49.6062 38.0684 50.3498 35.7337 50.6055C35.6575 50.6046 35.582 50.6189 35.5114 50.6476C35.4409 50.6764 35.3768 50.7189 35.3229 50.7728C35.2691 50.8266 35.2265 50.8907 35.1978 50.9612C35.1691 51.0318 35.1548 51.1073 35.1557 51.1835V54.9371C35.1581 55.0583 35.2019 55.1749 35.2798 55.2677C35.3578 55.3605 35.4652 55.4238 35.5841 55.4471C36.6521 55.8534 37.5462 56.6177 38.1137 57.6095C38.1384 57.6739 38.1758 57.7327 38.2236 57.7825C38.2714 57.8322 38.3286 57.8719 38.392 57.8991C38.4554 57.9264 38.5236 57.9406 38.5926 57.9411C38.6616 57.9416 38.7299 57.9283 38.7937 57.9019C39.1107 57.8882 39.4253 57.8403 39.7321 57.7591C40.0247 57.694 40.3312 57.7452 40.5868 57.9018C40.8424 58.0584 41.0272 58.3081 41.1022 58.5984C41.1772 58.8886 41.1365 59.1967 40.9887 59.4575C40.8409 59.7183 40.5976 59.9115 40.3101 59.9963C39.9343 60.1266 39.5473 60.2222 39.1541 60.2819C39.0335 60.2874 38.9183 60.3333 38.827 60.4122C38.7357 60.4912 38.6737 60.5986 38.6509 60.7171C38.4648 61.8121 37.8941 62.8047 37.0415 63.5164C36.1889 64.2282 35.1103 64.6124 33.9997 64.5999C32.8947 64.5879 31.8284 64.1919 30.9835 63.4798C30.1385 62.7676 29.5677 61.7837 29.3689 60.6967C29.3009 60.4791 29.1581 60.2615 28.9405 60.2615C28.4243 60.1802 27.9151 60.0597 27.4173 59.9011C27.1206 59.8236 26.8669 59.6313 26.712 59.3667C26.557 59.1021 26.5135 58.7868 26.5911 58.4901C26.6686 58.1934 26.8609 57.9397 27.1255 57.7848C27.3901 57.6298 27.7054 57.5864 28.0021 57.6639C28.4184 57.7191 28.8283 57.8147 29.2261 57.9495C29.3634 57.9738 29.5049 57.9515 29.6281 57.8862C29.7513 57.8209 29.8491 57.7164 29.9061 57.5891C30.4736 56.5973 31.3676 55.833 32.4357 55.4267C32.5553 55.4036 32.6635 55.3406 32.7426 55.2479C32.8217 55.1553 32.8669 55.0385 32.8709 54.9167V51.1631C32.8718 51.0869 32.8575 51.0114 32.8287 50.9408C32.8 50.8703 32.7575 50.8062 32.7036 50.7524C32.6498 50.6985 32.5857 50.656 32.5151 50.6273C32.4446 50.5985 32.369 50.5842 32.2929 50.5851C29.9569 50.3303 27.7007 49.5872 25.6705 48.404C23.6403 47.2208 21.8816 45.6239 20.5085 43.7171C20.4261 43.61 20.3075 43.5364 20.1749 43.5102C20.0423 43.4839 19.9047 43.5067 19.7877 43.5743L14.0485 46.9199C13.9769 46.9526 13.9134 47.0006 13.8625 47.0606C13.8115 47.1205 13.7743 47.1909 13.7536 47.2668C13.7328 47.3427 13.729 47.4222 13.7423 47.4998C13.7557 47.5773 13.7859 47.6509 13.8309 47.7155C14.1981 48.2935 14.6265 48.7967 14.9869 49.2999C15.0914 49.4138 15.1724 49.5471 15.2254 49.6922C15.2783 49.8374 15.3022 49.9916 15.2955 50.146C15.2889 50.3004 15.2519 50.4519 15.1867 50.592C15.1215 50.7321 15.0293 50.858 14.9155 50.9625C14.8016 51.067 14.6683 51.148 14.5231 51.201C14.378 51.2539 14.2238 51.2778 14.0694 51.2711C13.915 51.2645 13.7634 51.2275 13.6233 51.1623C13.4832 51.0971 13.3574 51.005 13.2529 50.8911C13.188 50.8249 13.1083 50.775 13.0204 50.7456C12.9324 50.7163 12.8388 50.7082 12.7471 50.7221C12.6554 50.7361 12.5684 50.7716 12.4932 50.8258C12.418 50.8801 12.3567 50.9514 12.3145 51.0339C11.8106 51.9908 11.0021 52.7523 10.0169 53.1982C9.03163 53.644 7.92587 53.7486 6.87448 53.4955C5.66706 53.17 4.6384 52.3781 4.01481 51.2942C3.39121 50.2102 3.22376 48.9229 3.54928 47.7155C3.87481 46.5081 4.66665 45.4794 5.75061 44.8558C6.83457 44.2322 8.12186 44.0648 9.32929 44.3903L9.34968 44.3699ZM44.0297 24.4255C43.1173 24.9097 42.1458 25.2732 41.1397 25.5067C40.9863 25.5468 40.8548 25.6455 40.7734 25.7816C40.692 25.9176 40.6673 26.0802 40.7045 26.2343C41.1703 28.2017 41.4369 30.2111 41.5001 32.2319C41.4992 32.3081 41.5135 32.3836 41.5422 32.4542C41.5709 32.5247 41.6135 32.5888 41.6673 32.6426C41.7212 32.6965 41.7853 32.739 41.8558 32.7678C41.9264 32.7965 42.0019 32.8108 42.0781 32.8099H47.5997C47.6861 32.8152 47.7726 32.8003 47.8523 32.7664C47.932 32.7325 48.0027 32.6805 48.0588 32.6145C48.1149 32.5485 48.1548 32.4704 48.1755 32.3862C48.1961 32.3021 48.1969 32.2144 48.1777 32.1299C47.8223 29.319 46.6388 26.6774 44.7777 24.5411C44.6838 24.4508 44.566 24.3893 44.4382 24.364C44.3105 24.3386 44.1781 24.3506 44.0569 24.3983L44.0297 24.4255ZM37.7397 26.0847C35.244 26.3645 32.7264 26.3896 30.2257 26.1595C30.0794 26.1414 29.9314 26.175 29.8072 26.2545C29.683 26.3339 29.5905 26.4543 29.5457 26.5947C29.1468 28.4501 28.9056 30.3359 28.8249 32.2319C28.7501 32.5175 29.0425 32.8099 29.4029 32.8099H38.5489C38.7129 32.8118 38.872 32.7543 38.997 32.6481C39.1219 32.5419 39.2043 32.3941 39.2289 32.2319C39.0866 30.3112 38.8117 28.4027 38.4061 26.5199C38.3601 26.3802 38.2674 26.2606 38.1435 26.1814C38.0196 26.1021 37.8722 26.0679 37.7261 26.0847H37.7397ZM26.7577 25.6563C25.7119 25.4611 24.6919 25.1462 23.7181 24.7179C23.6023 24.6457 23.4633 24.6203 23.3295 24.6468C23.1956 24.6733 23.0768 24.7498 22.9973 24.8607C21.2506 26.9316 20.1469 29.4676 19.8217 32.1571C19.801 32.2417 19.8007 32.33 19.8207 32.4148C19.8408 32.4995 19.8806 32.5783 19.937 32.6447C19.9934 32.7111 20.0648 32.7631 20.1452 32.7966C20.2256 32.83 20.3128 32.8439 20.3997 32.8371H25.8873C25.9634 32.838 26.039 32.8237 26.1096 32.795C26.1801 32.7662 26.2442 32.7237 26.298 32.6698C26.3519 32.616 26.3944 32.5519 26.4231 32.4814C26.4519 32.4108 26.4662 32.3353 26.4653 32.2591C26.5465 30.2815 26.7922 28.314 27.1997 26.3771C27.2254 26.3012 27.2343 26.2205 27.2256 26.1408C27.217 26.0611 27.191 25.9842 27.1496 25.9156C27.1081 25.8469 27.0522 25.7882 26.9857 25.7434C26.9192 25.6986 26.8437 25.6689 26.7645 25.6563H26.7577ZM26.2613 23.1199C26.6965 23.1879 27.1317 23.3375 27.5669 23.4055C27.635 23.4317 27.7079 23.443 27.7807 23.4387C27.8535 23.4343 27.9245 23.4144 27.989 23.3802C28.0534 23.346 28.1098 23.2984 28.1543 23.2406C28.1988 23.1828 28.2304 23.1162 28.2469 23.0451C28.3965 22.6099 28.6141 22.1815 28.7569 21.8211C28.8215 21.7181 28.8507 21.5969 28.8401 21.4758C28.8294 21.3547 28.7795 21.2404 28.6978 21.1503C28.6162 21.0602 28.5074 20.9992 28.3879 20.9767C28.2685 20.9542 28.1449 20.9713 28.0361 21.0255C27.3852 21.3159 26.7557 21.6522 26.1525 22.0319C26.0526 22.0919 25.9724 22.1798 25.9218 22.2848C25.8711 22.3897 25.8522 22.5072 25.8674 22.6227C25.8826 22.7382 25.9311 22.8468 26.0071 22.9352C26.0831 23.0235 26.1833 23.0877 26.2953 23.1199H26.2613ZM31.2797 23.9223C33.093 24.001 34.9093 23.976 36.7197 23.8475C36.812 23.828 36.8992 23.7896 36.9758 23.7345C37.0524 23.6795 37.1168 23.6092 37.1647 23.528C37.2127 23.4467 37.2433 23.3564 37.2544 23.2628C37.2656 23.1691 37.2572 23.0741 37.2297 22.9839C35.1897 18.5707 32.6737 18.6455 30.7221 23.0519C30.6936 23.1459 30.6859 23.245 30.6994 23.3423C30.713 23.4396 30.7474 23.5328 30.8004 23.6155C30.8534 23.6983 30.9237 23.7685 31.0064 23.8215C31.0891 23.8744 31.1824 23.9088 31.2797 23.9223ZM40.4597 23.2423C40.8201 23.1675 41.1805 23.0247 41.5409 22.9567C41.6529 22.9245 41.753 22.8603 41.829 22.772C41.905 22.6836 41.9536 22.575 41.9688 22.4595C41.9839 22.344 41.965 22.2265 41.9144 22.1216C41.8638 22.0166 41.7836 21.9287 41.6837 21.8687C41.1805 21.5831 40.6025 21.2907 40.0245 21.0051C39.9156 20.9586 39.795 20.9471 39.6792 20.9721C39.5635 20.9971 39.4585 21.0575 39.3786 21.1449C39.2986 21.2323 39.2479 21.3423 39.2332 21.4598C39.2186 21.5773 39.2409 21.6964 39.2969 21.8007L39.7321 22.8819C39.7928 23.017 39.8986 23.1267 40.0313 23.1925C40.164 23.2582 40.3154 23.2758 40.4597 23.2423ZM41.5137 35.7679C41.4451 37.7659 41.1786 39.7521 40.7181 41.6975C40.681 41.8508 40.706 42.0124 40.7875 42.1474C40.869 42.2824 41.0004 42.3797 41.1533 42.4183C42.1797 42.632 43.1756 42.9723 44.1181 43.4315C44.2351 43.5014 44.3741 43.5249 44.5076 43.4971C44.6411 43.4694 44.7593 43.3926 44.8389 43.2819C46.6739 41.1954 47.8332 38.6016 48.1641 35.8427C48.1833 35.7582 48.1825 35.6705 48.1619 35.5864C48.1412 35.5023 48.1013 35.4241 48.0452 35.3581C47.9891 35.2921 47.9184 35.2401 47.8387 35.2062C47.759 35.1723 47.6725 35.1574 47.5861 35.1627H42.0917C42.0155 35.1618 41.94 35.1761 41.8694 35.2048C41.7989 35.2336 41.7348 35.2761 41.6809 35.33C41.6271 35.3838 41.5845 35.4479 41.5558 35.5184C41.5271 35.589 41.5128 35.6646 41.5137 35.7407V35.7679ZM39.7797 45.0159C39.6369 45.3831 39.4193 45.8115 39.2697 46.1719C39.2136 46.2762 39.1914 46.3953 39.206 46.5128C39.2207 46.6303 39.2715 46.7404 39.3514 46.8277C39.4313 46.9151 39.5363 46.9755 39.6521 47.0005C39.7678 47.0256 39.8884 47.014 39.9973 46.9675C40.6049 46.7129 41.1858 46.3986 41.7313 46.0291C41.8291 45.9684 41.9073 45.8807 41.9565 45.7767C42.0057 45.6726 42.0239 45.5565 42.0088 45.4424C41.9937 45.3283 41.9461 45.2209 41.8715 45.1332C41.797 45.0455 41.6987 44.9812 41.5885 44.9479C41.2961 44.8731 40.9085 44.7303 40.5753 44.6555C40.422 44.5981 40.2522 44.6038 40.103 44.6714C39.9539 44.7389 39.8377 44.8628 39.7797 45.0159ZM28.7229 46.1719C28.5801 45.8115 28.3625 45.3831 28.2129 44.9479C28.1648 44.8139 28.0685 44.7027 27.9427 44.636C27.8169 44.5693 27.6708 44.552 27.5329 44.5875C27.1108 44.6627 26.6981 44.7836 26.3021 44.9479C26.1926 44.9709 26.0929 45.027 26.0165 45.1087C25.9401 45.1904 25.8907 45.2936 25.8751 45.4044C25.8595 45.5151 25.8784 45.628 25.9293 45.7276C25.9801 45.8273 26.0604 45.9088 26.1593 45.9611C26.7367 46.3406 27.3412 46.677 27.9681 46.9675C28.0769 47.0217 28.2005 47.0388 28.3199 47.0163C28.4394 46.9938 28.5482 46.9328 28.6298 46.8427C28.7115 46.7526 28.7614 46.6383 28.7721 46.5172C28.7827 46.3961 28.7535 46.2749 28.6889 46.1719H28.7229ZM27.2745 41.6975C26.8139 39.7521 26.5474 37.7659 26.4789 35.7679C26.4798 35.6917 26.4655 35.6162 26.4367 35.5456C26.408 35.4751 26.3655 35.411 26.3116 35.3572C26.2578 35.3033 26.1937 35.2608 26.1231 35.232C26.0526 35.2033 25.977 35.189 25.9009 35.1899H20.3997C20.3128 35.1831 20.2256 35.197 20.1452 35.2304C20.0648 35.2639 19.9934 35.3159 19.937 35.3823C19.8806 35.4487 19.8408 35.5275 19.8207 35.6122C19.8007 35.697 19.801 35.7853 19.8217 35.8699C20.1799 38.5875 21.3265 41.1407 23.1197 43.2139C23.2002 43.3235 23.3189 43.399 23.4523 43.4254C23.5858 43.4518 23.7242 43.4273 23.8405 43.3567C24.7975 42.9335 25.7895 42.5945 26.8053 42.3435C26.8854 42.3377 26.9633 42.3146 27.0337 42.2759C27.1041 42.2371 27.1653 42.1836 27.213 42.1191C27.2608 42.0545 27.2941 41.9803 27.3106 41.9017C27.327 41.8231 27.3263 41.7418 27.3085 41.6635L27.2745 41.6975ZM28.8657 35.7679C28.9464 37.6639 29.1876 39.5497 29.5865 41.4051C29.6313 41.5455 29.7238 41.6659 29.848 41.7453C29.9722 41.8248 30.1202 41.8584 30.2665 41.8403C32.7647 41.5853 35.2823 41.5853 37.7805 41.8403C37.8538 41.8573 37.9297 41.8594 38.0038 41.8466C38.0779 41.8339 38.1487 41.8064 38.2121 41.7658C38.2754 41.7253 38.3301 41.6725 38.3727 41.6106C38.4154 41.5486 38.4452 41.4788 38.4605 41.4051C38.8577 39.547 39.1236 37.6633 39.2561 35.7679C39.2315 35.6058 39.1491 35.458 39.0242 35.3517C38.8992 35.2455 38.7401 35.1881 38.5761 35.1899H29.4437C29.0833 35.1899 28.7637 35.4823 28.8657 35.7679ZM30.7425 44.9479C32.7825 49.3543 35.2237 49.4291 37.2501 44.9479C37.2893 44.8607 37.3057 44.7651 37.2978 44.6698C37.2899 44.5746 37.2579 44.4829 37.2049 44.4034C37.1519 44.3239 37.0796 44.2592 36.9947 44.2152C36.9098 44.1713 36.8152 44.1497 36.7197 44.1523C34.911 43.9871 33.0922 43.9621 31.2797 44.0775C31.1866 44.0969 31.0986 44.1355 31.0214 44.191C30.9442 44.2464 30.8795 44.3175 30.8315 44.3995C30.7834 44.4815 30.7531 44.5727 30.7424 44.6671C30.7318 44.7616 30.7411 44.8573 30.7697 44.9479H30.7425ZM21.7597 55.1343C21.0797 54.6991 20.5289 54.3387 19.8761 53.9035C18.5773 52.9651 17.2785 54.9915 18.5161 55.8551C19.2437 56.2903 19.8761 56.7255 20.6105 57.1607C20.881 57.3149 21.2017 57.3553 21.502 57.2731C21.8023 57.1908 22.0577 56.9926 22.2119 56.7221C22.3661 56.4516 22.4065 56.1309 22.3242 55.8306C22.242 55.5302 22.0438 55.2749 21.7733 55.1207L21.7597 55.1343ZM8.53368 42.2143C8.63107 42.5146 8.84376 42.7639 9.12495 42.9073C9.40614 43.0508 9.73281 43.0767 10.0331 42.9793C10.3334 42.8819 10.5827 42.6692 10.7261 42.388C10.8696 42.1068 10.8955 41.7802 10.7981 41.4799C10.5805 40.7591 10.3629 40.0315 10.2201 39.3107C9.93448 37.8623 7.61568 38.2295 7.90808 39.7459C8.05483 40.5842 8.28256 41.4064 8.58808 42.2007L8.53368 42.2143ZM7.33008 32.4495C7.32071 32.6013 7.34132 32.7535 7.39076 32.8973C7.44019 33.0412 7.51747 33.1739 7.61818 33.2878C7.7189 33.4018 7.84107 33.4948 7.97774 33.5616C8.1144 33.6283 8.26288 33.6675 8.41468 33.6769C8.56649 33.6863 8.71866 33.6657 8.8625 33.6162C9.00634 33.5668 9.13904 33.4895 9.25301 33.3888C9.36699 33.2881 9.46001 33.1659 9.52677 33.0293C9.59352 32.8926 9.63271 32.7441 9.64209 32.5923C9.71689 31.8715 9.78488 31.1439 9.85968 30.3483C9.90748 30.0417 9.83152 29.7287 9.64852 29.4781C9.46552 29.2275 9.19047 29.0599 8.88388 29.0121C8.57729 28.9643 8.26428 29.0403 8.01369 29.2233C7.7631 29.4063 7.59548 29.6813 7.54768 29.9879C7.40767 30.8011 7.33489 31.6244 7.33008 32.4495ZM15.2793 14.9599C14.1233 16.0479 15.8573 17.6799 16.8705 16.6259C17.4485 16.0479 18.0265 15.6127 18.6045 15.1027C18.8434 14.9016 18.9927 14.6138 19.0195 14.3027C19.0463 13.9915 18.9484 13.6825 18.7473 13.4435C18.5462 13.2045 18.2584 13.0553 17.9473 13.0285C17.6361 13.0017 17.327 13.0996 17.0881 13.3007C16.4323 13.7932 15.8264 14.3489 15.2793 14.9599ZM23.3713 9.47231C23.0845 9.59675 22.859 9.83 22.7442 10.1208C22.6294 10.4115 22.6348 10.736 22.7593 11.0227C22.8837 11.3095 23.117 11.535 23.4077 11.6498C23.6985 11.7646 24.0229 11.7591 24.3097 11.6347C24.9935 11.3276 25.6952 11.0619 26.4109 10.8391C26.5599 10.7931 26.6982 10.7179 26.8179 10.6179C26.9376 10.5179 27.0362 10.3951 27.1079 10.2566C27.1797 10.1182 27.2233 9.96686 27.236 9.81144C27.2488 9.65602 27.2305 9.49961 27.1823 9.35131C27.1341 9.20301 27.0568 9.06578 26.9551 8.9476C26.8533 8.82942 26.7291 8.73265 26.5896 8.66291C26.4501 8.59318 26.2982 8.55188 26.1426 8.5414C25.987 8.53093 25.8309 8.5515 25.6833 8.60191C24.8971 8.84896 24.1252 9.13954 23.3713 9.47231ZM42.5949 8.67671C42.3045 8.59528 41.9941 8.62713 41.7263 8.76581C41.4585 8.90449 41.2534 9.13965 41.1524 9.42378C41.0513 9.7079 41.0619 10.0198 41.182 10.2964C41.3021 10.573 41.5227 10.7937 41.7993 10.9139H41.8741C42.5711 11.1331 43.2527 11.3989 43.9141 11.7095H43.9821C44.1227 11.7931 44.2796 11.8457 44.4422 11.8637C44.6049 11.8818 44.7695 11.8649 44.925 11.8142C45.0806 11.7636 45.2235 11.6803 45.3443 11.5699C45.4651 11.4595 45.5609 11.3246 45.6254 11.1742C45.6898 11.0238 45.7214 10.8614 45.7181 10.6979C45.7147 10.5343 45.6764 10.3733 45.6058 10.2257C45.5352 10.0781 45.4339 9.94727 45.3087 9.84197C45.1835 9.73667 45.0372 9.65933 44.8797 9.61511V9.51991C44.0909 9.23431 43.3633 8.94191 42.5677 8.65631L42.5949 8.67671ZM51.1221 13.5183C50.0409 12.5051 48.4497 14.2391 49.6057 15.2523V15.3203C50.1935 15.7644 50.7502 16.2483 51.2717 16.7687C51.3762 16.8777 51.5011 16.965 51.6393 17.0256C51.7775 17.0863 51.9263 17.1191 52.0772 17.1223C52.2282 17.1255 52.3782 17.0989 52.5188 17.044C52.6595 16.9892 52.7879 16.9072 52.8969 16.8027C53.0058 16.6982 53.0931 16.5733 53.1538 16.4351C53.2145 16.2969 53.2473 16.1481 53.2505 15.9972C53.2536 15.8462 53.227 15.6962 53.1722 15.5555C53.1174 15.4149 53.0354 15.2865 52.9309 15.1775C52.3838 14.5665 51.7779 14.0108 51.1221 13.5183ZM60.4449 30.2803C60.3971 29.9737 60.2295 29.6987 59.9789 29.5157C59.7283 29.3327 59.4153 29.2567 59.1087 29.3045C58.8021 29.3523 58.527 29.5199 58.344 29.7705C58.1611 30.0211 58.0851 30.3341 58.1329 30.6407C58.246 31.3819 58.3187 32.1288 58.3505 32.8779C58.3802 33.1794 58.5232 33.4584 58.7505 33.6586C58.9779 33.8588 59.2728 33.9654 59.5756 33.9568C59.8784 33.9481 60.1667 33.825 60.3823 33.6121C60.5979 33.3993 60.7248 33.1126 60.7373 32.8099V32.7351C60.6625 31.9395 60.5945 31.1439 60.5197 30.3483L60.4449 30.2803ZM60.0165 40.1199C60.0544 39.9726 60.063 39.8192 60.0417 39.6685C60.0204 39.5179 59.9696 39.3729 59.8922 39.2419C59.8149 39.1109 59.7125 38.9964 59.5909 38.9049C59.4693 38.8135 59.3308 38.7469 59.1835 38.7089C59.0361 38.671 58.8828 38.6624 58.7321 38.6837C58.5815 38.705 58.4365 38.7558 58.3055 38.8332C58.1744 38.9105 58.0599 39.0129 57.9685 39.1345C57.877 39.2561 57.8104 39.3946 57.7725 39.5419C57.5549 40.2627 57.4121 40.9835 57.1265 41.7111C56.6165 43.2275 58.9285 43.8735 59.3637 42.5067C59.6566 41.7315 59.884 40.9331 60.0437 40.1199H60.0165ZM49.1773 56.0047C49.3163 55.924 49.4373 55.8156 49.5329 55.6863C49.6284 55.5569 49.6964 55.4094 49.7327 55.2528C49.7689 55.0961 49.7727 54.9337 49.7438 54.7756C49.7148 54.6174 49.6538 54.4669 49.5644 54.3332C49.475 54.1996 49.3591 54.0857 49.224 53.9986C49.0889 53.9115 48.9373 53.853 48.7787 53.8267C48.62 53.8005 48.4577 53.807 48.3017 53.846C48.1457 53.8849 47.9994 53.9554 47.8717 54.0531C47.2937 54.4815 46.5729 54.9167 45.9949 55.2771C45.8609 55.3481 45.7423 55.4448 45.6457 55.5616C45.5491 55.6785 45.4765 55.8132 45.432 55.9581C45.3875 56.103 45.3719 56.2553 45.3862 56.4062C45.4006 56.5571 45.4445 56.7038 45.5155 56.8377C45.5865 56.9717 45.6832 57.0903 45.8 57.1869C45.9169 57.2835 46.0516 57.3561 46.1965 57.4006C46.3414 57.4451 46.4937 57.4607 46.6446 57.4463C46.7955 57.432 46.9421 57.3881 47.0761 57.3171C47.8148 56.9495 48.5182 56.5147 49.1773 56.0183V56.0047ZM33.9997 57.5211C33.3689 57.5247 32.7649 57.7763 32.3183 58.2217C31.8716 58.6671 31.6182 59.2704 31.6129 59.9011C31.6583 60.5012 31.9287 61.0621 32.3701 61.4713C32.8114 61.8805 33.391 62.1079 33.9929 62.1079C34.5947 62.1079 35.1744 61.8805 35.6157 61.4713C36.057 61.0621 36.3275 60.5012 36.3729 59.9011C36.3676 59.2715 36.1151 58.6693 35.6699 58.2241C35.2247 57.7789 34.6225 57.5264 33.9929 57.5211H33.9997ZM33.9997 5.78671C33.6908 5.7804 33.3837 5.83535 33.0962 5.94838C32.8086 6.06141 32.5463 6.23028 32.3244 6.44524C32.1025 6.6602 31.9254 6.917 31.8032 7.20079C31.6811 7.48459 31.6164 7.78977 31.6129 8.09871C31.6583 8.69885 31.9287 9.25968 32.3701 9.66889C32.8114 10.0781 33.391 10.3055 33.9929 10.3055C34.5947 10.3055 35.1744 10.0781 35.6157 9.66889C36.057 9.25968 36.3275 8.69885 36.3729 8.09871C36.3693 7.79094 36.3051 7.48689 36.1838 7.20399C36.0625 6.9211 35.8866 6.66492 35.6662 6.45013C35.4457 6.23535 35.185 6.06619 34.899 5.95235C34.6131 5.8385 34.3074 5.78222 33.9997 5.78671ZM59.2889 46.5867C58.9885 46.6647 58.7067 46.8018 58.4599 46.99C58.2132 47.1783 58.0065 47.4139 57.852 47.683C57.6975 47.9522 57.5982 48.2495 57.56 48.5575C57.5219 48.8655 57.5455 49.178 57.6297 49.4767C57.6966 49.7841 57.8267 50.0742 58.0117 50.3286C58.1967 50.5831 58.4325 50.7963 58.7042 50.9549C58.9759 51.1134 59.2775 51.2138 59.5901 51.2497C59.9026 51.2855 60.2191 51.256 60.5197 51.1631C61.1193 50.9958 61.6294 50.6003 61.9409 50.0614C62.2523 49.5224 62.3402 48.8829 62.1857 48.2799C62.001 47.6887 61.6002 47.1888 61.0633 46.8801C60.5264 46.5713 59.8928 46.4762 59.2889 46.6139V46.5867ZM7.47968 16.7687C6.88843 16.9506 6.38826 17.3501 6.08027 17.8866C5.77227 18.423 5.67942 19.0564 5.82048 19.6587C5.8976 19.9596 6.03422 20.242 6.22227 20.4892C6.41031 20.7365 6.64598 20.9435 6.91536 21.0982C7.18474 21.2528 7.48237 21.3519 7.79069 21.3897C8.099 21.4274 8.41176 21.403 8.71048 21.3179C9.01541 21.2478 9.30257 21.1154 9.55394 20.9291C9.80531 20.7428 10.0155 20.5066 10.1713 20.2353C10.327 19.9639 10.4251 19.6633 10.4592 19.3523C10.4934 19.0413 10.4629 18.7266 10.3697 18.4279C10.2026 17.8271 9.8057 17.3162 9.26489 17.0057C8.72408 16.6952 8.08278 16.6101 7.47968 16.7687Z" fill="url('#paint0_linear_422_15513')"></path>
<defs>
<linearGradient id="paint0_linear_422_15513" x1="33.9899" y1="3.22119" x2="33.9899" y2="64.6002" gradientUnits="userSpaceOnUse">
<stop stop-color="#7ECFC9"></stop>
<stop offset="1" stop-color="#169EE4"></stop>
</linearGradient>
</defs>
</svg>
