<svg width="68" height="68" fill="none" xmlns="http://www.w3.org/2000/svg"><path d="M60.52 16.769a2.373 2.373 0 0 0-2.89 1.659 2.272 2.272 0 0 0 1.659 2.89 2.34 2.34 0 0 0 2.897-1.66 2.448 2.448 0 0 0-1.666-2.89ZM8.704 46.607a2.448 2.448 0 0 0-2.89 1.673 2.373 2.373 0 0 0 1.666 2.883 2.271 2.271 0 0 0 2.89-1.666 2.332 2.332 0 0 0-1.66-2.89h-.006Zm.646-2.237c.687.159 1.314.51 1.809 1.013a.85.85 0 0 0 .72.068l6.65-3.903a.591.591 0 0 0 .293-.748 16.653 16.653 0 0 1 0-13.654.591.591 0 0 0-.292-.721l-5.706-3.305a.612.612 0 0 0-.795.285c-.075.15-.15.36-.218.51a1.203 1.203 0 0 1-2.169.069.524.524 0 0 0-.578-.286 4.896 4.896 0 0 1-5.494-3.4 4.76 4.76 0 0 1 .578-3.828 4.76 4.76 0 0 1 8.602 3.468.53.53 0 0 0 .292.578l6.719 3.903a.508.508 0 0 0 .72-.218 16.938 16.938 0 0 1 11.785-6.8.572.572 0 0 0 .578-.578v-3.74a.537.537 0 0 0-.436-.51A4.76 4.76 0 0 1 29.301 8.1a4.698 4.698 0 1 1 9.39 0 4.76 4.76 0 0 1-3.107 4.474.53.53 0 0 0-.428.51v3.754a.572.572 0 0 0 .578.578 16.939 16.939 0 0 1 11.777 6.8.508.508 0 0 0 .721.217l6.725-3.903a.524.524 0 0 0 .286-.578 5.14 5.14 0 0 1 .075-2.094 4.712 4.712 0 1 1 3.842 5.848.748.748 0 0 0-.68.36 1.17 1.17 0 0 1-2.17.143c-.074-.286-.292-.503-.36-.796a.68.68 0 0 0-.87-.292l-5.617 3.332a.585.585 0 0 0-.286.748 16.708 16.708 0 0 1 0 13.654.585.585 0 0 0 .286.721l6.65 3.903a.851.851 0 0 0 .721-.068 3.713 3.713 0 0 1 1.809-1.013 4.705 4.705 0 0 1 5.78 3.325 4.638 4.638 0 0 1-.435 3.536 4.917 4.917 0 0 1-2.89 2.244 5.155 5.155 0 0 1-5.44-2.461c-.286-.429-.721-.36-1.081 0-.87 1.23-2.822-.286-1.81-1.517.516-.551.972-1.155 1.36-1.802a.544.544 0 0 0-.183-.802l-5.712-3.325a.558.558 0 0 0-.72.142 16.762 16.762 0 0 1-11.778 6.868.572.572 0 0 0-.578.579v3.753a.53.53 0 0 0 .428.51 4.937 4.937 0 0 1 2.53 2.162.518.518 0 0 0 .68.293c.317-.014.631-.062.938-.143a1.156 1.156 0 0 1 .578 2.237c-.376.13-.763.226-1.156.286a.538.538 0 0 0-.503.435A4.664 4.664 0 0 1 34 64.6a4.76 4.76 0 0 1-4.631-3.903c-.068-.218-.21-.436-.428-.436a10.293 10.293 0 0 1-1.524-.36 1.156 1.156 0 1 1 .585-2.237c.416.055.826.15 1.224.285a.626.626 0 0 0 .68-.36 4.937 4.937 0 0 1 2.53-2.162.537.537 0 0 0 .435-.51v-3.754a.57.57 0 0 0-.578-.578 16.761 16.761 0 0 1-11.784-6.868.557.557 0 0 0-.721-.143l-5.74 3.346a.536.536 0 0 0-.217.795c.367.578.796 1.082 1.156 1.585a1.178 1.178 0 0 1-.918 1.971 1.176 1.176 0 0 1-.816-.38.586.586 0 0 0-.938.143 4.863 4.863 0 0 1-5.44 2.462 4.715 4.715 0 0 1 2.454-9.106l.02-.02Zm34.68-19.944c-.913.484-1.884.847-2.89 1.08a.605.605 0 0 0-.435.728 30.12 30.12 0 0 1 .795 5.998.572.572 0 0 0 .578.578H47.6a.558.558 0 0 0 .578-.68 14.28 14.28 0 0 0-3.4-7.589.68.68 0 0 0-.721-.143l-.027.027Zm-6.29 1.659c-2.496.28-5.014.305-7.514.075a.632.632 0 0 0-.68.435 33.622 33.622 0 0 0-.721 5.637c-.075.285.218.578.578.578h9.146a.68.68 0 0 0 .68-.578 41.782 41.782 0 0 0-.823-5.712.639.639 0 0 0-.68-.435h.014Zm-10.982-.429a13.872 13.872 0 0 1-3.04-.938.537.537 0 0 0-.72.143 13.906 13.906 0 0 0-3.176 7.296.552.552 0 0 0 .578.68h5.487a.572.572 0 0 0 .578-.578 35.68 35.68 0 0 1 .735-5.882.55.55 0 0 0-.435-.72h-.007Zm-.497-2.536c.436.068.87.217 1.306.285a.511.511 0 0 0 .68-.36c.15-.435.367-.864.51-1.224a.558.558 0 0 0-.72-.796c-.652.29-1.281.627-1.884 1.007a.598.598 0 0 0 .142 1.088h-.034Zm5.019.802c1.813.079 3.63.054 5.44-.075a.679.679 0 0 0 .51-.863c-2.04-4.413-4.556-4.339-6.508.068a.68.68 0 0 0 .558.87Zm9.18-.68c.36-.075.72-.217 1.08-.285a.598.598 0 0 0 .144-1.088 33.753 33.753 0 0 0-1.66-.864.572.572 0 0 0-.727.796l.435 1.08a.64.64 0 0 0 .728.361Zm1.054 12.526a30.248 30.248 0 0 1-.796 5.93.598.598 0 0 0 .435.72c1.027.214 2.023.554 2.965 1.014a.543.543 0 0 0 .72-.15 13.743 13.743 0 0 0 3.326-7.44.558.558 0 0 0-.578-.68h-5.494a.572.572 0 0 0-.578.579v.027Zm-1.734 9.248c-.143.367-.36.796-.51 1.156a.57.57 0 0 0 .727.796 9.946 9.946 0 0 0 1.734-.939.598.598 0 0 0-.142-1.081c-.293-.075-.68-.218-1.014-.292a.619.619 0 0 0-.795.36Zm-11.057 1.156c-.143-.36-.36-.789-.51-1.224a.571.571 0 0 0-.68-.36 5.922 5.922 0 0 0-1.23.36.544.544 0 0 0-.144 1.013c.578.38 1.182.716 1.81 1.007a.558.558 0 0 0 .72-.796h.034Zm-1.448-4.474a30.233 30.233 0 0 1-.796-5.93.57.57 0 0 0-.578-.578H20.4a.551.551 0 0 0-.578.68 14.029 14.029 0 0 0 3.298 7.344.544.544 0 0 0 .72.143 18.017 18.017 0 0 1 2.965-1.014.558.558 0 0 0 .503-.68l-.034.035Zm1.59-5.93c.081 1.896.323 3.782.722 5.637a.632.632 0 0 0 .68.435 36.998 36.998 0 0 1 7.514 0 .564.564 0 0 0 .68-.435c.397-1.858.663-3.742.795-5.637a.68.68 0 0 0-.68-.578h-9.132c-.36 0-.68.292-.578.578Zm1.878 9.18c2.04 4.406 4.48 4.481 6.507 0a.564.564 0 0 0-.53-.796 35.211 35.211 0 0 0-5.44-.075.68.68 0 0 0-.51.87h-.027ZM21.76 55.134c-.68-.435-1.231-.795-1.884-1.23-1.299-.939-2.598 1.087-1.36 1.951.728.435 1.36.87 2.095 1.306a1.174 1.174 0 0 0 1.162-2.04l-.013.013ZM8.534 42.214a1.19 1.19 0 1 0 2.264-.734c-.217-.72-.435-1.448-.578-2.17-.286-1.448-2.604-1.08-2.312.436.147.838.375 1.66.68 2.455l-.054.013ZM7.33 32.45a1.158 1.158 0 1 0 2.312.142c.075-.72.143-1.448.218-2.244a1.17 1.17 0 1 0-2.312-.36c-.14.813-.213 1.636-.218 2.462Zm7.95-17.49c-1.157 1.088.577 2.72 1.59 1.666.578-.578 1.156-1.013 1.735-1.523a1.178 1.178 0 0 0-1.517-1.802 12.519 12.519 0 0 0-1.809 1.659Zm8.091-5.488a1.178 1.178 0 1 0 .939 2.163 18.686 18.686 0 0 1 2.1-.796 1.176 1.176 0 1 0-.727-2.237c-.786.247-1.558.538-2.312.87Zm19.224-.795a1.19 1.19 0 0 0-.796 2.237h.075c.697.22 1.379.485 2.04.796h.068a1.147 1.147 0 0 0 1.643-.536 1.151 1.151 0 0 0-.745-1.559V9.52c-.79-.286-1.517-.578-2.312-.864l.027.02Zm8.527 4.841c-1.081-1.013-2.672.721-1.516 1.734v.068a16.09 16.09 0 0 1 1.666 1.449 1.148 1.148 0 0 0 1.882-.334 1.15 1.15 0 0 0-.223-1.257 12.519 12.519 0 0 0-1.809-1.66Zm9.323 16.762a1.17 1.17 0 1 0-2.312.36c.113.742.186 1.489.217 2.238a1.197 1.197 0 0 0 2.387-.068v-.075c-.075-.796-.143-1.591-.217-2.387l-.075-.068Zm-.428 9.84a1.16 1.16 0 0 0-1.712-1.287 1.156 1.156 0 0 0-.532.709c-.218.72-.36 1.441-.647 2.17-.51 1.515 1.803 2.161 2.238.795.293-.776.52-1.574.68-2.387h-.027Zm-10.84 15.885a1.178 1.178 0 0 0-.398-2.178 1.176 1.176 0 0 0-.907.226c-.578.428-1.3.864-1.877 1.224a1.155 1.155 0 0 0 1.081 2.04 13.462 13.462 0 0 0 2.101-1.299v-.013ZM34 57.52a2.4 2.4 0 0 0-2.387 2.38 2.387 2.387 0 0 0 4.76 0 2.4 2.4 0 0 0-2.38-2.38H34Zm0-51.734a2.339 2.339 0 0 0-2.387 2.312 2.387 2.387 0 0 0 4.76 0A2.34 2.34 0 0 0 34 5.787Zm25.289 40.8a2.335 2.335 0 0 0-1.66 2.89 2.269 2.269 0 0 0 2.89 1.686 2.38 2.38 0 0 0 1.667-2.883 2.461 2.461 0 0 0-2.897-1.666v-.027ZM7.479 16.769a2.441 2.441 0 0 0-1.659 2.89 2.325 2.325 0 0 0 2.89 1.659 2.271 2.271 0 0 0 1.66-2.89 2.373 2.373 0 0 0-2.89-1.66Z" fill="url('#paint0_linear_422_15513')"/><defs><linearGradient id="paint0_linear_422_15513" x1="33.99" y1="3.221" x2="33.99" y2="64.6" gradientUnits="userSpaceOnUse"><stop stop-color="#7ECFC9"/><stop offset="1" stop-color="#169EE4"/></linearGradient></defs></svg>