<svg width="158" height="51" viewBox="0 0 158 51" fill="none" xmlns="http://www.w3.org/2000/svg">
<g clip-path="url('#clip0_422_5758')">
<path d="M158 44.1079C158 45.013 157.82 45.9093 157.47 46.7457C157.119 47.582 156.605 48.342 155.957 48.9823C155.308 49.6225 154.538 50.1305 153.691 50.4773C152.844 50.824 151.936 51.0027 151.019 51.0031H6.9844C5.13174 51.0022 3.35524 50.2754 2.0455 48.9824C0.735756 47.6894 -1.81043e-07 45.9361 0 44.1079V6.89205C0.00081862 5.06441 0.736936 3.31187 2.04659 2.01953C3.35624 0.727193 5.13227 0.000807797 6.9844 0H151.019C152.871 0.000808208 154.646 0.727292 155.955 2.01972C157.265 3.31214 158 5.06469 158 6.89205V44.1079Z" fill="#1D1D1B"></path>
<path d="M11.8528 9.81836V27.0866V44.3548L29.5007 27.0866L11.8528 9.81836Z" fill="url('#paint0_linear_422_5758')"></path>
<path d="M34.2393 22.4502L27.1159 18.39L11.8528 9.69336V9.81834L29.5007 27.0866L34.2393 22.4502Z" fill="url('#paint1_linear_422_5758')"></path>
<path d="M11.8528 44.3549V44.4829L27.1159 35.7833L34.2393 31.7261L29.5007 27.0867L11.8528 44.3549Z" fill="url('#paint2_linear_422_5758')"></path>
<path d="M34.2393 22.4502L29.5007 27.0866L34.2393 31.726L42.3821 27.0866L34.2393 22.4502Z" fill="url('#paint3_linear_422_5758')"></path>
<path d="M122.964 33.8415C122.339 33.849 121.72 33.7253 121.147 33.4788C120.596 33.2346 120.121 32.8507 119.77 32.3662H119.658C119.73 32.9192 119.768 33.476 119.77 34.0336V38.167H118.225V23.6116H119.479L119.692 24.9864H119.766C120.115 24.4775 120.592 24.0668 121.15 23.7945C121.719 23.5419 122.337 23.4169 122.961 23.4287C124.312 23.4287 125.354 23.884 126.087 24.7944C126.82 25.7048 127.187 26.984 127.19 28.6321C127.19 30.2802 126.817 31.5614 126.071 32.4759C125.698 32.9278 125.222 33.2869 124.682 33.5241C124.143 33.7613 123.554 33.87 122.964 33.8415V33.8415ZM122.747 24.7212C121.706 24.7212 120.956 25.0047 120.489 25.5747C120.023 26.1447 119.788 27.047 119.776 28.2876V28.6321C119.776 30.0424 120.014 31.0524 120.489 31.662C120.968 32.2717 121.725 32.5765 122.785 32.5765C123.192 32.5892 123.595 32.4989 123.957 32.3143C124.319 32.1297 124.626 31.8569 124.851 31.5218C125.347 30.8207 125.597 29.8524 125.599 28.6168C125.601 27.3813 125.352 26.4201 124.851 25.7332C124.613 25.4061 124.295 25.1425 123.928 24.9659C123.561 24.7893 123.156 24.7052 122.747 24.7212Z" fill="#F9F9F9"></path>
<path d="M130.757 33.6556H129.213V19.396H130.757V33.6556Z" fill="#F9F9F9"></path>
<path d="M139.623 33.6556L139.314 32.226H139.24C138.844 32.7651 138.324 33.2039 137.723 33.5062C137.124 33.7466 136.48 33.8608 135.833 33.8415C134.971 33.891 134.123 33.6153 133.46 33.0703C132.886 32.5582 132.602 31.8266 132.602 30.8817C132.602 28.8495 134.249 27.7857 137.544 27.6902L139.274 27.6353V27.0257C139.274 26.2372 139.102 25.655 138.758 25.279C138.414 24.9031 137.864 24.7151 137.109 24.7151C136.102 24.7547 135.118 25.0183 134.23 25.4863L133.754 24.3219C134.276 24.0468 134.83 23.834 135.403 23.6878C135.99 23.5368 136.595 23.46 137.201 23.4592C138.414 23.4592 139.313 23.7254 139.898 24.2579C140.485 24.7883 140.775 25.6418 140.775 26.8153V33.6678L139.623 33.6556ZM136.139 32.5948C136.549 32.6183 136.96 32.5615 137.348 32.4275C137.736 32.2936 138.094 32.0852 138.4 31.8144C138.683 31.5273 138.903 31.1848 139.045 30.8089C139.186 30.4331 139.246 30.0321 139.222 29.6319V28.7174L137.677 28.7814C136.441 28.8241 135.558 29.0121 135.027 29.3454C134.761 29.5076 134.545 29.7379 134.402 30.0117C134.259 30.2855 134.194 30.5925 134.214 30.9C134.198 31.1329 134.235 31.3665 134.323 31.5834C134.41 31.8003 134.546 31.9949 134.721 32.1528C135.122 32.4671 135.627 32.6244 136.139 32.5948V32.5948Z" fill="#F9F9F9"></path>
<path d="M141.659 23.6116H143.311L145.542 29.3392C145.914 30.2628 146.224 31.2099 146.469 32.1741H146.533C146.614 31.8591 146.782 31.3256 147.037 30.5737C147.292 29.8218 148.134 27.5011 149.561 23.6116H151.213L146.842 35.0485C146.407 36.1794 145.916 36.9811 145.322 37.4567C144.721 37.9377 143.965 38.1897 143.191 38.1669C142.722 38.1671 142.255 38.1149 141.798 38.0114V36.7921C142.174 36.8687 142.557 36.9055 142.941 36.9019C143.999 36.9019 144.755 36.3156 145.208 35.143L145.773 33.7134L141.659 23.6116Z" fill="#F9F9F9"></path>
<path d="M94.4052 24.5444C94.8933 24.9468 95.9158 25.785 95.9158 27.3823C95.9158 28.9796 95.023 29.6716 94.1272 30.3665C93.8523 30.6378 93.531 30.9335 93.531 31.3969C93.5424 31.5821 93.5989 31.762 93.6957 31.9212C93.7925 32.0804 93.9267 32.2142 94.087 32.3113L94.8531 32.8996C95.7798 33.6769 96.6386 34.3933 96.6386 35.8442C96.6386 37.8195 94.7018 39.8069 91.0412 39.8069C87.9521 39.8069 86.4632 38.359 86.4632 36.8014C86.4632 36.0454 86.8462 34.9724 88.1035 34.2409C89.4225 33.4422 91.2111 33.3264 92.1687 33.2715C91.8598 32.8935 91.5293 32.4942 91.5293 31.8449C91.5372 31.5593 91.6101 31.2791 91.7424 31.025C91.5077 31.0463 91.276 31.0676 91.0628 31.0676C88.8047 31.0676 87.5289 29.4064 87.5289 27.7695C87.5397 27.2318 87.6669 26.7026 87.9018 26.2174C88.1368 25.7321 88.4741 25.302 88.8912 24.9559C90.1052 23.9683 91.5509 23.7976 92.7031 23.7976H97.0865L95.7242 24.5536L94.4052 24.5444ZM92.8946 33.8751C92.7319 33.8538 92.5676 33.8456 92.4035 33.8507C91.6462 33.8663 90.8943 33.9801 90.167 34.189C89.7005 34.3567 88.3383 34.8596 88.3383 36.3533C88.3383 37.8469 89.8056 38.9168 92.0853 38.9168C94.1272 38.9168 95.2145 37.9475 95.2145 36.6459C95.2145 35.5729 94.5102 35.009 92.8946 33.8751ZM93.5125 29.8819C93.8836 29.4615 94.0732 28.9144 94.0407 28.3578C94.0407 26.8336 93.114 24.4926 91.3594 24.4926C91.0755 24.496 90.7956 24.5596 90.5387 24.679C90.2819 24.7983 90.054 24.9708 89.8704 25.1846C89.5387 25.6347 89.373 26.1833 89.4009 26.7392C89.4009 28.1474 90.2319 30.4793 92.0637 30.4793C92.6048 30.4637 93.121 30.2509 93.5125 29.8819V29.8819Z" fill="#F9F9F9"></path>
<path d="M81.0017 33.5367C80.3288 33.5592 79.6581 33.4478 79.0297 33.2091C78.4013 32.9704 77.8281 32.6093 77.3441 32.1474C76.8601 31.6854 76.4753 31.1321 76.2126 30.5203C75.95 29.9085 75.8148 29.2508 75.8152 28.5863C75.8152 25.8429 78.0887 23.4897 81.323 23.4897C81.9887 23.4754 82.6505 23.5932 83.2691 23.8361C83.8878 24.079 84.4506 24.4422 84.9243 24.9039C85.398 25.3656 85.7728 25.9166 86.0266 26.524C86.2803 27.1315 86.4078 27.783 86.4014 28.44C86.4014 30.9152 84.4677 33.5367 81.0017 33.5367ZM83.6583 31.8388C84.1238 31.1524 84.3484 30.3343 84.2978 29.51C84.2978 27.6627 83.405 24.142 80.7701 24.142C80.0661 24.1482 79.3873 24.401 78.8548 24.8553C78.027 25.5869 77.8787 26.5105 77.8787 27.4158C77.8787 29.4886 78.9197 32.9026 81.4929 32.9026C81.9126 32.9025 82.3266 32.8064 82.7023 32.6218C83.078 32.4372 83.4053 32.1692 83.6583 31.8388V31.8388Z" fill="#F9F9F9"></path>
<path d="M69.4826 33.5367C66.1 33.5367 64.296 30.9365 64.296 28.5863C64.296 25.8429 66.5696 23.4897 69.8008 23.4897C70.4654 23.477 71.1259 23.596 71.7431 23.8397C72.3603 24.0834 72.9217 24.4468 73.394 24.9083C73.8664 25.3699 74.2401 25.9203 74.4931 26.5269C74.7461 27.1335 74.8732 27.7841 74.8668 28.44C74.8668 30.9152 72.9454 33.5367 69.4826 33.5367ZM72.1392 31.8388C72.6023 31.1515 72.8257 30.3339 72.7755 29.5099C72.7755 27.6627 71.8828 24.142 69.2478 24.142C68.5447 24.1476 67.8667 24.4005 67.3357 24.8553C66.5047 25.5869 66.3564 26.5105 66.3564 27.4158C66.3564 29.4886 67.3975 32.9026 69.9706 32.9026C70.3909 32.903 70.8055 32.8071 71.1818 32.6225C71.5581 32.4379 71.8858 32.1696 72.1392 31.8388V31.8388Z" fill="#F9F9F9"></path>
<path d="M62.6711 33.2045L59.616 33.8995C58.4513 34.1085 57.2718 34.2277 56.0883 34.2561C50.1913 34.2561 47.9486 29.9886 47.9486 26.6355C47.9486 22.5448 51.1304 18.7498 56.5826 18.7498C57.6867 18.7489 58.786 18.8945 59.8508 19.1826C60.8662 19.4387 61.8232 19.8824 62.6711 20.4903L60.898 22.1577L60.1504 22.3253L60.6849 21.481C59.9558 20.786 58.6306 19.4996 56.1099 19.4996C52.7336 19.4996 50.1913 22.0297 50.1913 25.7211C50.1913 29.6838 53.0981 33.4179 57.7533 33.4179C58.6867 33.4409 59.6137 33.2608 60.4686 32.8905V29.4978L57.2436 29.6655L58.9519 28.751H63.4836L62.9275 29.2784C62.8697 29.3166 62.8208 29.3666 62.7841 29.4249C62.7474 29.4833 62.7236 29.5486 62.7144 29.6167C62.6897 29.8057 62.6711 30.4184 62.6711 30.6287V33.2045Z" fill="#F9F9F9"></path>
<path d="M101.161 32.5948C100.454 32.5338 100.305 32.4058 100.305 31.5828V19.655C100.305 19.6093 100.305 19.5636 100.305 19.5179C100.392 18.7802 100.614 18.6552 101.269 18.2742H98.211L96.6077 19.0332H98.2419V32.0522C98.2419 32.4759 98.1553 32.5399 97.6642 33.1709H101.448L102.239 32.7076C101.887 32.6649 101.522 32.6435 101.161 32.5948Z" fill="#F9F9F9"></path>
<path d="M109.854 32.7961C109.622 32.921 109.39 33.0704 109.156 33.174C108.505 33.4502 107.803 33.5853 107.095 33.5703C106.088 33.615 105.095 33.3276 104.272 32.7534C102.767 31.7048 102.109 29.9063 102.109 28.3334C102.109 25.0901 104.785 23.499 106.968 23.499C107.739 23.488 108.496 23.6908 109.156 24.0842C109.898 24.5657 110.429 25.306 110.641 26.157L105.656 28.1475L104.018 28.2725C104.55 30.9305 106.375 32.479 108.393 32.479C109.304 32.4516 110.193 32.2001 110.981 31.7475L109.854 32.7961ZM107.861 26.5533C108.263 26.407 108.479 26.282 108.479 25.9894C108.479 25.1511 107.525 24.1879 106.378 24.1879C105.529 24.1879 103.938 24.8371 103.938 27.0989C103.938 27.4556 103.978 27.8335 104.003 28.2115L107.861 26.5533Z" fill="#F9F9F9"></path>
<path d="M111.905 23.642V25.0229H111.735V23.642H111.272V23.4988H112.368V23.642H111.905Z" fill="#F9F9F9"></path>
<path d="M113.814 25.0229V23.6268L113.381 25.0229H113.249L112.816 23.6268V25.0229H112.662V23.4988H112.927L113.32 24.7181L113.706 23.4988H113.974V25.0229H113.814Z" fill="#F9F9F9"></path>
<path d="M51.03 13.39C51.6167 13.39 52.1233 13.2433 52.55 12.95C52.9833 12.65 53.2867 12.2267 53.46 11.68L54.22 11.86C54.0133 12.56 53.6233 13.1133 53.05 13.52C52.4767 13.9267 51.8033 14.13 51.03 14.13C50.0567 14.13 49.2333 13.7933 48.56 13.12C47.8867 12.4467 47.55 11.6233 47.55 10.65C47.55 9.67667 47.8867 8.85333 48.56 8.18C49.2333 7.50667 50.0567 7.17 51.03 7.17C51.7967 7.17 52.4667 7.37333 53.04 7.78C53.62 8.18 54.0133 8.71667 54.22 9.39L53.46 9.61C53.2933 9.07667 52.9933 8.66 52.56 8.36C52.1267 8.06 51.6167 7.91 51.03 7.91C50.2767 7.91 49.64 8.17333 49.12 8.7C48.6067 9.22667 48.35 9.87667 48.35 10.65C48.35 11.4167 48.6067 12.0667 49.12 12.6C49.64 13.1267 50.2767 13.39 51.03 13.39ZM57.8234 8.96C58.5568 8.96 59.1734 9.20333 59.6734 9.69C60.1801 10.17 60.4334 10.7833 60.4334 11.53C60.4334 12.2767 60.1801 12.8967 59.6734 13.39C59.1734 13.8767 58.5568 14.12 57.8234 14.12C57.0834 14.12 56.4601 13.8767 55.9534 13.39C55.4534 12.8967 55.2034 12.2767 55.2034 11.53C55.2034 10.7833 55.4534 10.17 55.9534 9.69C56.4601 9.20333 57.0834 8.96 57.8234 8.96ZM57.8234 13.45C58.3368 13.45 58.7734 13.27 59.1334 12.91C59.5001 12.55 59.6834 12.09 59.6834 11.53C59.6834 10.9767 59.5001 10.5233 59.1334 10.17C58.7734 9.81 58.3368 9.63 57.8234 9.63C57.3034 9.63 56.8601 9.81 56.4934 10.17C56.1268 10.5233 55.9434 10.9767 55.9434 11.53C55.9434 12.09 56.1268 12.55 56.4934 12.91C56.8601 13.27 57.3034 13.45 57.8234 13.45ZM67.7174 8.95C68.2441 8.95 68.6808 9.12333 69.0274 9.47C69.3808 9.81 69.5574 10.2567 69.5574 10.81V14H68.7974V10.94C68.7974 10.5533 68.6774 10.2433 68.4374 10.01C68.2041 9.77 67.9008 9.65 67.5274 9.65C67.0674 9.65 66.7008 9.81333 66.4274 10.14C66.1541 10.46 66.0174 10.9067 66.0174 11.48V14H65.2574V10.94C65.2574 10.5533 65.1374 10.2433 64.8974 10.01C64.6641 9.77 64.3641 9.65 63.9974 9.65C63.5374 9.65 63.1708 9.81333 62.8974 10.14C62.6308 10.46 62.4974 10.9067 62.4974 11.48V14H61.7374V9.07H62.4974V9.82C62.8708 9.24 63.4308 8.95 64.1774 8.95C64.5574 8.95 64.8941 9.04 65.1874 9.22C65.4874 9.39333 65.7108 9.63667 65.8574 9.95C66.2708 9.28333 66.8908 8.95 67.7174 8.95ZM71.2903 7.22C71.3903 7.12 71.5136 7.07 71.6603 7.07C71.807 7.07 71.9303 7.12 72.0303 7.22C72.137 7.32 72.1903 7.44 72.1903 7.58C72.1903 7.72667 72.1403 7.85 72.0403 7.95C71.9403 8.04333 71.8136 8.09 71.6603 8.09C71.5136 8.09 71.3903 8.04333 71.2903 7.95C71.1903 7.85 71.1403 7.72667 71.1403 7.58C71.1403 7.44 71.1903 7.32 71.2903 7.22ZM72.0503 14H71.2803V9.07H72.0503V14ZM76.5059 8.95C77.0992 8.95 77.5759 9.14333 77.9359 9.53C78.3025 9.91667 78.4859 10.4233 78.4859 11.05V14H77.7259V11.19C77.7259 10.73 77.5992 10.36 77.3459 10.08C77.0925 9.79333 76.7625 9.65 76.3559 9.65C75.8292 9.65 75.4125 9.82333 75.1059 10.17C74.7992 10.5167 74.6459 11.0033 74.6459 11.63V14H73.8859V9.07H74.6459V9.89C75.0659 9.26333 75.6859 8.95 76.5059 8.95ZM84.8561 9.07V14.21C84.8561 14.89 84.6061 15.44 84.1061 15.86C83.6128 16.2867 82.9994 16.5 82.2661 16.5C81.0594 16.5 80.2528 16.0733 79.8461 15.22L80.4961 14.73C80.6761 15.0767 80.9028 15.3333 81.1761 15.5C81.4561 15.6733 81.8194 15.76 82.2661 15.76C82.7794 15.76 83.2094 15.6067 83.5561 15.3C83.9094 15 84.0894 14.6033 84.0961 14.11V13.18C83.6428 13.8133 82.9894 14.13 82.1361 14.13C81.4628 14.13 80.8828 13.89 80.3961 13.41C79.9161 12.9233 79.6761 12.3 79.6761 11.54C79.6761 10.78 79.9161 10.16 80.3961 9.68C80.8828 9.19333 81.4628 8.95 82.1361 8.95C82.9894 8.95 83.6428 9.26667 84.0961 9.9V9.07H84.8561ZM82.2561 13.45C82.7428 13.45 83.1694 13.2733 83.5361 12.92C83.9094 12.56 84.0961 12.1 84.0961 11.54C84.0961 10.9733 83.9094 10.5133 83.5361 10.16C83.1694 9.8 82.7428 9.62 82.2561 9.62C81.7294 9.62 81.2894 9.79667 80.9361 10.15C80.5894 10.5033 80.4161 10.9667 80.4161 11.54C80.4161 12.1133 80.5928 12.5767 80.9461 12.93C81.2994 13.2767 81.7361 13.45 82.2561 13.45ZM88.7198 12.67L89.4798 12.5C89.5131 12.82 89.6631 13.0667 89.9298 13.24C90.1964 13.4133 90.5298 13.5 90.9298 13.5C91.2831 13.5 91.5664 13.4233 91.7798 13.27C91.9998 13.1167 92.1098 12.9133 92.1098 12.66C92.1098 12.3067 91.8398 12.07 91.2998 11.95L90.1698 11.7C89.3164 11.52 88.8898 11.1 88.8898 10.44C88.8898 9.99333 89.0598 9.63333 89.3998 9.36C89.7398 9.08667 90.1931 8.95 90.7598 8.95C91.2998 8.95 91.7464 9.07667 92.0998 9.33C92.4531 9.57667 92.6764 9.90667 92.7698 10.32L92.0398 10.48C91.9864 10.2067 91.8464 9.98667 91.6198 9.82C91.3931 9.65333 91.0998 9.57 90.7398 9.57C90.3998 9.57 90.1331 9.64667 89.9398 9.8C89.7464 9.94667 89.6498 10.14 89.6498 10.38C89.6498 10.5667 89.7098 10.7133 89.8298 10.82C89.9564 10.92 90.1464 11 90.3998 11.06L91.5898 11.32C92.4364 11.5067 92.8598 11.9367 92.8598 12.61C92.8598 13.09 92.6764 13.4633 92.3098 13.73C91.9498 13.9967 91.4698 14.13 90.8698 14.13C90.2831 14.13 89.7931 14.0033 89.3998 13.75C89.0064 13.4967 88.7798 13.1367 88.7198 12.67ZM96.3684 8.96C97.1017 8.96 97.7184 9.20333 98.2184 9.69C98.725 10.17 98.9784 10.7833 98.9784 11.53C98.9784 12.2767 98.725 12.8967 98.2184 13.39C97.7184 13.8767 97.1017 14.12 96.3684 14.12C95.6284 14.12 95.005 13.8767 94.4984 13.39C93.9984 12.8967 93.7484 12.2767 93.7484 11.53C93.7484 10.7833 93.9984 10.17 94.4984 9.69C95.005 9.20333 95.6284 8.96 96.3684 8.96ZM96.3684 13.45C96.8817 13.45 97.3184 13.27 97.6784 12.91C98.045 12.55 98.2284 12.09 98.2284 11.53C98.2284 10.9767 98.045 10.5233 97.6784 10.17C97.3184 9.81 96.8817 9.63 96.3684 9.63C95.8484 9.63 95.405 9.81 95.0384 10.17C94.6717 10.5233 94.4884 10.9767 94.4884 11.53C94.4884 12.09 94.6717 12.55 95.0384 12.91C95.405 13.27 95.8484 13.45 96.3684 13.45ZM102.452 8.96C103.186 8.96 103.802 9.20333 104.302 9.69C104.809 10.17 105.062 10.7833 105.062 11.53C105.062 12.2767 104.809 12.8967 104.302 13.39C103.802 13.8767 103.186 14.12 102.452 14.12C101.712 14.12 101.089 13.8767 100.582 13.39C100.082 12.8967 99.8323 12.2767 99.8323 11.53C99.8323 10.7833 100.082 10.17 100.582 9.69C101.089 9.20333 101.712 8.96 102.452 8.96ZM102.452 13.45C102.966 13.45 103.402 13.27 103.762 12.91C104.129 12.55 104.312 12.09 104.312 11.53C104.312 10.9767 104.129 10.5233 103.762 10.17C103.402 9.81 102.966 9.63 102.452 9.63C101.932 9.63 101.489 9.81 101.122 10.17C100.756 10.5233 100.572 10.9767 100.572 11.53C100.572 12.09 100.756 12.55 101.122 12.91C101.489 13.27 101.932 13.45 102.452 13.45ZM108.986 8.95C109.58 8.95 110.056 9.14333 110.416 9.53C110.783 9.91667 110.966 10.4233 110.966 11.05V14H110.206V11.19C110.206 10.73 110.08 10.36 109.826 10.08C109.573 9.79333 109.243 9.65 108.836 9.65C108.31 9.65 107.893 9.82333 107.586 10.17C107.28 10.5167 107.126 11.0033 107.126 11.63V14H106.366V9.07H107.126V9.89C107.546 9.26333 108.166 8.95 108.986 8.95ZM117.296 8.96C118.029 8.96 118.646 9.20333 119.146 9.69C119.653 10.17 119.906 10.7833 119.906 11.53C119.906 12.2767 119.653 12.8967 119.146 13.39C118.646 13.8767 118.029 14.12 117.296 14.12C116.556 14.12 115.933 13.8767 115.426 13.39C114.926 12.8967 114.676 12.2767 114.676 11.53C114.676 10.7833 114.926 10.17 115.426 9.69C115.933 9.20333 116.556 8.96 117.296 8.96ZM117.296 13.45C117.809 13.45 118.246 13.27 118.606 12.91C118.973 12.55 119.156 12.09 119.156 11.53C119.156 10.9767 118.973 10.5233 118.606 10.17C118.246 9.81 117.809 9.63 117.296 9.63C116.776 9.63 116.333 9.81 115.966 10.17C115.599 10.5233 115.416 10.9767 115.416 11.53C115.416 12.09 115.599 12.55 115.966 12.91C116.333 13.27 116.776 13.45 117.296 13.45ZM123.83 8.95C124.423 8.95 124.9 9.14333 125.26 9.53C125.627 9.91667 125.81 10.4233 125.81 11.05V14H125.05V11.19C125.05 10.73 124.923 10.36 124.67 10.08C124.417 9.79333 124.087 9.65 123.68 9.65C123.153 9.65 122.737 9.82333 122.43 10.17C122.123 10.5167 121.97 11.0033 121.97 11.63V14H121.21V9.07H121.97V9.89C122.39 9.26333 123.01 8.95 123.83 8.95Z" fill="white"></path>
</g>
<defs>
<linearGradient id="paint0_linear_422_5758" x1="20.6752" y1="9.81836" x2="20.6752" y2="44.3548" gradientUnits="userSpaceOnUse">
<stop stop-color="#2079B0"></stop>
<stop offset="0.32" stop-color="#4A98B5"></stop>
<stop offset="0.78" stop-color="#81BFBC"></stop>
<stop offset="1" stop-color="#97CFBF"></stop>
</linearGradient>
<linearGradient id="paint1_linear_422_5758" x1="11.8497" y1="18.39" x2="34.2393" y2="18.39" gradientUnits="userSpaceOnUse">
<stop stop-color="#5ABCAB"></stop>
<stop offset="1" stop-color="#E6E99A"></stop>
</linearGradient>
<linearGradient id="paint2_linear_422_5758" x1="23.0445" y1="27.0867" x2="23.0445" y2="44.4829" gradientUnits="userSpaceOnUse">
<stop stop-color="#E53432"></stop>
<stop offset="0.18" stop-color="#D43745"></stop>
<stop offset="0.73" stop-color="#A33E7C"></stop>
<stop offset="1" stop-color="#904192"></stop>
</linearGradient>
<linearGradient id="paint3_linear_422_5758" x1="35.9414" y1="22.4502" x2="35.9414" y2="31.726" gradientUnits="userSpaceOnUse">
<stop stop-color="#F18779"></stop>
<stop offset="0.64" stop-color="#F9B574"></stop>
<stop offset="1" stop-color="#FDCB72"></stop>
</linearGradient>
<clipPath id="clip0_422_5758">
<rect width="158" height="51" fill="white"></rect>
</clipPath>
</defs>
</svg>
