<svg width="158" height="51" fill="none" xmlns="http://www.w3.org/2000/svg"><g clip-path="url('#clip0_422_5758')"><path d="M158 44.108a6.832 6.832 0 0 1-2.043 4.874 7.007 7.007 0 0 1-2.266 1.495 7.063 7.063 0 0 1-2.672.526H6.984a7.036 7.036 0 0 1-4.938-2.02A6.85 6.85 0 0 1 0 44.107V6.892A6.85 6.85 0 0 1 2.047 2.02 7.035 7.035 0 0 1 6.984 0H151.02a7.03 7.03 0 0 1 4.936 2.02A6.843 6.843 0 0 1 158 6.892v37.216Z" fill="#1D1D1B"/><path d="M11.853 9.818v34.537L29.5 27.087 11.853 9.818Z" fill="url('#paint0_linear_422_5758')"/><path d="m34.24 22.45-7.124-4.06-15.263-8.697v.125L29.5 27.087l4.738-4.637Z" fill="url('#paint1_linear_422_5758')"/><path d="M11.853 44.355v.128l15.263-8.7 7.123-4.057-4.738-4.64-17.648 17.269Z" fill="url('#paint2_linear_422_5758')"/><path d="m34.24 22.45-4.74 4.637 4.74 4.639 8.142-4.64-8.143-4.636Z" fill="url('#paint3_linear_422_5758')"/><path d="M122.964 33.842a4.462 4.462 0 0 1-1.817-.363 3.4 3.4 0 0 1-1.377-1.113h-.112c.072.553.11 1.11.112 1.668v4.133h-1.545V23.612h1.254l.213 1.374h.074c.349-.509.826-.92 1.384-1.192a4.264 4.264 0 0 1 1.811-.365c1.351 0 2.393.455 3.126 1.365.733.91 1.1 2.19 1.103 3.838 0 1.648-.373 2.93-1.119 3.844a3.762 3.762 0 0 1-1.389 1.048 3.811 3.811 0 0 1-1.718.318Zm-.217-9.12c-1.041 0-1.791.283-2.258.853-.466.57-.701 1.472-.713 2.713v.344c0 1.41.238 2.42.713 3.03.479.61 1.236.915 2.296.915.407.012.81-.078 1.172-.263.362-.184.669-.457.894-.792.496-.701.746-1.67.748-2.905.002-1.236-.247-2.197-.748-2.884a2.46 2.46 0 0 0-.923-.767 2.497 2.497 0 0 0-1.181-.245ZM130.757 33.656h-1.544v-14.26h1.544v14.26ZM139.623 33.656l-.309-1.43h-.074c-.396.54-.916.978-1.517 1.28a4.7 4.7 0 0 1-1.89.336 3.428 3.428 0 0 1-2.373-.772c-.574-.512-.858-1.243-.858-2.188 0-2.033 1.647-3.096 4.942-3.192l1.73-.055v-.61c0-.788-.172-1.37-.516-1.746-.344-.376-.894-.564-1.649-.564a6.744 6.744 0 0 0-2.879.771l-.476-1.164a7.532 7.532 0 0 1 1.649-.634 7.261 7.261 0 0 1 1.798-.229c1.213 0 2.112.266 2.697.799.587.53.877 1.384.877 2.557v6.853l-1.152-.012Zm-3.484-1.061a3.152 3.152 0 0 0 2.261-.78 2.862 2.862 0 0 0 .822-2.182v-.916l-1.545.064c-1.236.043-2.119.231-2.65.564a1.706 1.706 0 0 0-.625.667c-.143.273-.208.58-.188.888a1.537 1.537 0 0 0 .507 1.253c.401.314.906.471 1.418.442ZM141.659 23.612h1.652l2.231 5.727c.372.924.682 1.87.927 2.835h.064c.081-.315.249-.848.504-1.6.255-.752 1.097-3.073 2.524-6.962h1.652l-4.371 11.436c-.435 1.131-.926 1.933-1.52 2.409a3.257 3.257 0 0 1-2.131.71c-.469 0-.936-.052-1.393-.156v-1.219c.376.077.759.114 1.143.11 1.058 0 1.814-.586 2.267-1.759l.565-1.43-4.114-10.101ZM94.405 24.544c.488.403 1.51 1.241 1.51 2.838 0 1.598-.892 2.29-1.788 2.984-.275.272-.596.567-.596 1.03a1.145 1.145 0 0 0 .556.915l.766.589c.927.777 1.786 1.493 1.786 2.944 0 1.975-1.937 3.963-5.598 3.963-3.089 0-4.578-1.448-4.578-3.006 0-.756.383-1.829 1.64-2.56 1.32-.799 3.108-.915 4.066-.97-.31-.377-.64-.777-.64-1.426.008-.286.081-.566.213-.82-.234.021-.466.043-.68.043-2.257 0-3.533-1.662-3.533-3.299.01-.537.138-1.066.373-1.552.235-.485.572-.915.99-1.261 1.213-.988 2.659-1.158 3.811-1.158h4.383l-1.362.756-1.319-.01Zm-1.51 9.331a3.053 3.053 0 0 0-.492-.024c-.757.015-1.509.13-2.236.338-.466.168-1.829.67-1.829 2.164 0 1.494 1.468 2.564 3.747 2.564 2.042 0 3.13-.97 3.13-2.271 0-1.073-.705-1.637-2.32-2.77Zm.618-3.993c.37-.42.56-.968.528-1.524 0-1.524-.927-3.865-2.682-3.865a2.005 2.005 0 0 0-1.489.692c-.331.45-.497.998-.47 1.554 0 1.408.832 3.74 2.664 3.74a2.205 2.205 0 0 0 1.449-.597ZM81.002 33.537a5.077 5.077 0 0 1-1.972-.328 5.026 5.026 0 0 1-1.686-1.062 4.95 4.95 0 0 1-1.131-1.627 4.895 4.895 0 0 1-.398-1.934c0-2.743 2.274-5.096 5.508-5.096a5.03 5.03 0 0 1 1.946.346 4.977 4.977 0 0 1 1.655 1.068 4.902 4.902 0 0 1 1.103 1.62c.253.607.38 1.259.374 1.916 0 2.475-1.933 5.097-5.4 5.097Zm2.656-1.698a3.74 3.74 0 0 0 .64-2.329c0-1.847-.893-5.368-3.528-5.368a2.992 2.992 0 0 0-1.915.713c-.828.732-.976 1.655-.976 2.56 0 2.074 1.04 5.488 3.614 5.488.42 0 .834-.097 1.21-.281.375-.185.702-.453.955-.783ZM69.483 33.537c-3.383 0-5.187-2.6-5.187-4.95 0-2.744 2.274-5.097 5.505-5.097a5.028 5.028 0 0 1 1.942.35 4.977 4.977 0 0 1 1.651 1.068 4.902 4.902 0 0 1 1.1 1.619c.252.607.38 1.257.373 1.913 0 2.475-1.922 5.097-5.384 5.097Zm2.656-1.698a3.757 3.757 0 0 0 .636-2.33c0-1.846-.892-5.367-3.527-5.367a2.976 2.976 0 0 0-1.912.713c-.831.732-.98 1.655-.98 2.56 0 2.074 1.041 5.488 3.615 5.488.42 0 .834-.096 1.21-.28.377-.185.705-.453.958-.784ZM62.671 33.205l-3.055.695a23.113 23.113 0 0 1-3.528.356c-5.897 0-8.14-4.267-8.14-7.62 0-4.091 3.182-7.886 8.635-7.886 1.104-.001 2.203.145 3.268.433 1.015.256 1.972.7 2.82 1.307l-1.773 1.668-.748.167.535-.844c-.73-.695-2.054-1.981-4.575-1.981-3.376 0-5.919 2.53-5.919 6.221 0 3.963 2.907 7.697 7.562 7.697a6.434 6.434 0 0 0 2.716-.527v-3.393l-3.225.168 1.708-.915h4.532l-.556.527a.486.486 0 0 0-.214.339c-.024.189-.043.801-.043 1.012v2.576Z" fill="#F9F9F9"/><path d="M101.161 32.595c-.707-.061-.856-.19-.856-1.012V19.518c.087-.738.309-.863.964-1.244h-3.058l-1.603.76h1.634v13.018c0 .424-.087.488-.578 1.119h3.784l.791-.463c-.352-.043-.717-.064-1.078-.113ZM109.854 32.796c-.232.125-.464.274-.698.378a5.004 5.004 0 0 1-2.061.396 4.58 4.58 0 0 1-2.823-.817c-1.505-1.048-2.163-2.847-2.163-4.42 0-3.243 2.676-4.834 4.859-4.834a4.156 4.156 0 0 1 2.188.585 3.476 3.476 0 0 1 1.485 2.073l-4.985 1.99-1.638.126c.532 2.657 2.357 4.206 4.375 4.206a5.53 5.53 0 0 0 2.588-.732l-1.127 1.05Zm-1.993-6.243c.402-.146.618-.271.618-.564 0-.838-.954-1.801-2.101-1.801-.849 0-2.44.65-2.44 2.91 0 .358.04.736.065 1.114l3.858-1.659ZM111.905 23.642v1.38h-.17v-1.38h-.463v-.143h1.096v.143h-.463ZM113.814 25.023v-1.396l-.433 1.396h-.132l-.433-1.396v1.396h-.154v-1.524h.265l.393 1.22.386-1.22h.268v1.524h-.16Z" fill="#F9F9F9"/><path d="M51.03 13.39c.587 0 1.093-.147 1.52-.44.433-.3.737-.723.91-1.27l.76.18a3.021 3.021 0 0 1-1.17 1.66c-.573.407-1.247.61-2.02.61-.973 0-1.797-.337-2.47-1.01-.673-.673-1.01-1.497-1.01-2.47 0-.973.337-1.797 1.01-2.47.673-.673 1.497-1.01 2.47-1.01.767 0 1.437.203 2.01.61.58.4.973.937 1.18 1.61l-.76.22a2.308 2.308 0 0 0-.9-1.25c-.433-.3-.943-.45-1.53-.45-.753 0-1.39.263-1.91.79-.513.527-.77 1.177-.77 1.95 0 .767.257 1.417.77 1.95.52.527 1.157.79 1.91.79Zm6.793-4.43c.734 0 1.35.243 1.85.73.507.48.76 1.093.76 1.84 0 .747-.253 1.367-.76 1.86-.5.487-1.116.73-1.85.73-.74 0-1.363-.243-1.87-.73-.5-.493-.75-1.113-.75-1.86 0-.747.25-1.36.75-1.84.507-.487 1.13-.73 1.87-.73Zm0 4.49c.514 0 .95-.18 1.31-.54.367-.36.55-.82.55-1.38 0-.553-.183-1.007-.55-1.36-.36-.36-.796-.54-1.31-.54-.52 0-.963.18-1.33.54-.366.353-.55.807-.55 1.36 0 .56.184 1.02.55 1.38.367.36.81.54 1.33.54Zm9.894-4.5c.527 0 .964.173 1.31.52.354.34.53.787.53 1.34V14h-.76v-3.06c0-.387-.12-.697-.36-.93-.233-.24-.536-.36-.91-.36-.46 0-.826.163-1.1.49-.273.32-.41.767-.41 1.34V14h-.76v-3.06c0-.387-.12-.697-.36-.93-.233-.24-.533-.36-.9-.36-.46 0-.826.163-1.1.49-.266.32-.4.767-.4 1.34V14h-.76V9.07h.76v.75c.374-.58.934-.87 1.68-.87.38 0 .717.09 1.01.27.3.173.524.417.67.73.414-.667 1.034-1 1.86-1Zm3.573-1.73c.1-.1.224-.15.37-.15.147 0 .27.05.37.15.107.1.16.22.16.36 0 .147-.05.27-.15.37a.535.535 0 0 1-.38.14.522.522 0 0 1-.37-.14.503.503 0 0 1-.15-.37c0-.14.05-.26.15-.36Zm.76 6.78h-.77V9.07h.77V14Zm4.456-5.05c.593 0 1.07.193 1.43.58.366.387.55.893.55 1.52V14h-.76v-2.81c0-.46-.127-.83-.38-1.11-.254-.287-.584-.43-.99-.43-.527 0-.944.173-1.25.52-.307.347-.46.833-.46 1.46V14h-.76V9.07h.76v.82c.42-.627 1.04-.94 1.86-.94Zm8.35.12v5.14c0 .68-.25 1.23-.75 1.65-.493.427-1.107.64-1.84.64-1.207 0-2.013-.427-2.42-1.28l.65-.49c.18.347.407.603.68.77.28.173.643.26 1.09.26.513 0 .943-.153 1.29-.46.353-.3.533-.697.54-1.19v-.93c-.453.633-1.107.95-1.96.95-.673 0-1.253-.24-1.74-.72-.48-.487-.72-1.11-.72-1.87s.24-1.38.72-1.86a2.376 2.376 0 0 1 1.74-.73c.853 0 1.507.317 1.96.95v-.83h.76Zm-2.6 4.38c.487 0 .913-.177 1.28-.53.373-.36.56-.82.56-1.38 0-.567-.187-1.027-.56-1.38-.367-.36-.793-.54-1.28-.54-.527 0-.967.177-1.32.53-.347.353-.52.817-.52 1.39s.177 1.037.53 1.39c.353.347.79.52 1.31.52Zm6.464-.78.76-.17c.033.32.183.567.45.74.266.173.6.26 1 .26.353 0 .636-.077.85-.23a.71.71 0 0 0 .33-.61c0-.353-.27-.59-.81-.71l-1.13-.25c-.854-.18-1.28-.6-1.28-1.26 0-.447.17-.807.51-1.08.34-.273.793-.41 1.36-.41.54 0 .986.127 1.34.38.353.247.576.577.67.99l-.73.16a1.041 1.041 0 0 0-.42-.66c-.227-.167-.52-.25-.88-.25-.34 0-.607.077-.8.23a.693.693 0 0 0-.29.58c0 .187.06.333.18.44.126.1.316.18.57.24l1.19.26c.846.187 1.27.617 1.27 1.29 0 .48-.184.853-.55 1.12-.36.267-.84.4-1.44.4-.587 0-1.077-.127-1.47-.38a1.446 1.446 0 0 1-.68-1.08Zm7.648-3.71c.734 0 1.35.243 1.85.73.507.48.76 1.093.76 1.84 0 .747-.253 1.367-.76 1.86-.5.487-1.116.73-1.85.73-.74 0-1.363-.243-1.87-.73-.5-.493-.75-1.113-.75-1.86 0-.747.25-1.36.75-1.84.507-.487 1.13-.73 1.87-.73Zm0 4.49c.514 0 .95-.18 1.31-.54.367-.36.55-.82.55-1.38 0-.553-.183-1.007-.55-1.36-.36-.36-.796-.54-1.31-.54-.52 0-.963.18-1.33.54-.366.353-.55.807-.55 1.36 0 .56.184 1.02.55 1.38.367.36.81.54 1.33.54Zm6.084-4.49c.734 0 1.35.243 1.85.73.507.48.76 1.093.76 1.84 0 .747-.253 1.367-.76 1.86-.5.487-1.116.73-1.85.73-.74 0-1.363-.243-1.87-.73-.5-.493-.75-1.113-.75-1.86 0-.747.25-1.36.75-1.84.507-.487 1.13-.73 1.87-.73Zm0 4.49c.514 0 .95-.18 1.31-.54.367-.36.55-.82.55-1.38 0-.553-.183-1.007-.55-1.36-.36-.36-.796-.54-1.31-.54-.52 0-.963.18-1.33.54-.366.353-.55.807-.55 1.36 0 .56.184 1.02.55 1.38.367.36.81.54 1.33.54Zm6.534-4.5c.594 0 1.07.193 1.43.58.367.387.55.893.55 1.52V14h-.76v-2.81c0-.46-.126-.83-.38-1.11-.253-.287-.583-.43-.99-.43-.526 0-.943.173-1.25.52-.306.347-.46.833-.46 1.46V14h-.76V9.07h.76v.82c.42-.627 1.04-.94 1.86-.94Zm8.31.01c.733 0 1.35.243 1.85.73.507.48.76 1.093.76 1.84 0 .747-.253 1.367-.76 1.86-.5.487-1.117.73-1.85.73-.74 0-1.363-.243-1.87-.73-.5-.493-.75-1.113-.75-1.86 0-.747.25-1.36.75-1.84.507-.487 1.13-.73 1.87-.73Zm0 4.49c.513 0 .95-.18 1.31-.54.367-.36.55-.82.55-1.38 0-.553-.183-1.007-.55-1.36-.36-.36-.797-.54-1.31-.54-.52 0-.963.18-1.33.54-.367.353-.55.807-.55 1.36 0 .56.183 1.02.55 1.38.367.36.81.54 1.33.54Zm6.534-4.5c.593 0 1.07.193 1.43.58.367.387.55.893.55 1.52V14h-.76v-2.81c0-.46-.127-.83-.38-1.11-.253-.287-.583-.43-.99-.43-.527 0-.943.173-1.25.52-.307.347-.46.833-.46 1.46V14h-.76V9.07h.76v.82c.42-.627 1.04-.94 1.86-.94Z" fill="#fff"/></g><defs><linearGradient id="paint0_linear_422_5758" x1="20.675" y1="9.818" x2="20.675" y2="44.355" gradientUnits="userSpaceOnUse"><stop stop-color="#2079B0"/><stop offset=".32" stop-color="#4A98B5"/><stop offset=".78" stop-color="#81BFBC"/><stop offset="1" stop-color="#97CFBF"/></linearGradient><linearGradient id="paint1_linear_422_5758" x1="11.85" y1="18.39" x2="34.239" y2="18.39" gradientUnits="userSpaceOnUse"><stop stop-color="#5ABCAB"/><stop offset="1" stop-color="#E6E99A"/></linearGradient><linearGradient id="paint2_linear_422_5758" x1="23.044" y1="27.087" x2="23.044" y2="44.483" gradientUnits="userSpaceOnUse"><stop stop-color="#E53432"/><stop offset=".18" stop-color="#D43745"/><stop offset=".73" stop-color="#A33E7C"/><stop offset="1" stop-color="#904192"/></linearGradient><linearGradient id="paint3_linear_422_5758" x1="35.941" y1="22.45" x2="35.941" y2="31.726" gradientUnits="userSpaceOnUse"><stop stop-color="#F18779"/><stop offset=".64" stop-color="#F9B574"/><stop offset="1" stop-color="#FDCB72"/></linearGradient><clipPath id="clip0_422_5758"><path fill="#fff" d="M0 0h158v51H0z"/></clipPath></defs></svg>