<svg width="70" height="70" fill="none" xmlns="http://www.w3.org/2000/svg"><g clip-path="url('#clip0_422_13911')" stroke-width="2.745" stroke-miterlimit="10" stroke-linecap="round" stroke-linejoin="round"><path d="M23.493 44.26A3.214 3.214 0 0 0 24 39.748a3.227 3.227 0 0 0-4.52-.505l-5.096 4.073a3.219 3.219 0 0 0-.505 4.515 3.226 3.226 0 0 0 4.52.502" stroke="url('#paint0_linear_422_13911')"/><path d="M22.418 53.35a3.22 3.22 0 0 0-.505 4.515 3.227 3.227 0 0 0 4.52.505l5.096-4.073a3.219 3.219 0 0 0 .505-4.516 3.227 3.227 0 0 0-4.52-.5" stroke="url('#paint1_linear_422_13911')"/><path d="M26.434 58.37a3.219 3.219 0 0 0-.502 4.516 3.226 3.226 0 0 0 4.52.5l2.851-2.28a3.218 3.218 0 0 0 .506-4.513 3.227 3.227 0 0 0-4.52-.504" stroke="url('#paint2_linear_422_13911')"/><path d="m47.628 45.423 3.641 2.91a3.223 3.223 0 0 1 .506 4.515 3.227 3.227 0 0 1-4.52.501l-3.95-3.152" stroke="url('#paint3_linear_422_13911')"/><path d="m43.304 50.197 3.95 3.152a3.219 3.219 0 0 1 .501 4.516 3.227 3.227 0 0 1-4.52.505l-3.946-3.156" stroke="url('#paint4_linear_422_13911')"/><path d="m39.289 55.214 1.97 1.576a3.223 3.223 0 0 1 .506 4.516 3.227 3.227 0 0 1-4.52.505l-2.87-2.293" stroke="url('#paint5_linear_422_13911')"/><path d="m65.683 32.747 2.364 4.176c.548.971.204 2.224-.771 2.763l-3.645 2.02c-.976.539-2.218.2-2.766-.768L50.36 22.355a2.02 2.02 0 0 1 .767-2.759l3.65-2.019c.975-.54 2.213-.204 2.76.767l2.134 3.768" stroke="url('#paint6_linear_422_13911')"/><path d="M55.03 43.108c.86-1.857 2.734-3.233 4.886-3.85" stroke="url('#paint7_linear_422_13911')"/><path d="M51.269 48.333a3.226 3.226 0 0 0 4.52-.502 3.218 3.218 0 0 0-.501-4.515l-4.416-3.53c-2.145-1.71-4.567-3.606-6.866-5.255-4.158-2.979-6.206-4.96-11.417-3.911-3.938.794-7.124-.409-7.953-3.819-.532-2.192 1.335-3.213 5.034-3.54l5.9-.528c1.166-.104 1.86-.212 3.746.447l3.56 1.244c2.407.84 2.083 1.064 4.586.34l3.657-1.06" stroke="url('#paint8_linear_422_13911')"/><path d="m18.541 19.596-3.645-2.019c-.975-.54-2.217-.204-2.765.767L1.625 36.924c-.552.97-.209 2.223.767 2.762l3.645 2.02c.976.539 2.218.2 2.765-.768L19.31 22.355a2.02 2.02 0 0 0-.768-2.759Z" stroke="url('#paint9_linear_422_13911')"/><path d="m24.647 25.45-6.09-1.766" stroke="url('#paint10_linear_422_13911')"/><path d="M14.643 43.108c-.864-1.857-2.739-3.233-4.891-3.85" stroke="url('#paint11_linear_422_13911')"/><path d="M34.834 12.51V5.58" stroke="url('#paint12_linear_422_13911')"/><path d="m25.755 15.381-3.626-5.753" stroke="url('#paint13_linear_422_13911')"/><path d="m43.916 15.381 3.622-5.753" stroke="url('#paint14_linear_422_13911')"/><path d="m18.399 48.333 7.34-5.865a3.23 3.23 0 0 1 4.52.505 3.22 3.22 0 0 1-.505 4.516l-7.336 5.86a3.226 3.226 0 0 1-4.52-.5 3.219 3.219 0 0 1 .5-4.516Z" stroke="url('#paint15_linear_422_13911')"/><path d="M62.67 27.433v-.003" stroke="url('#paint16_linear_422_13911')"/></g><defs><linearGradient id="paint0_linear_422_13911" x1="18.938" y1="49.034" x2="18.938" y2="38.544" gradientUnits="userSpaceOnUse"><stop stop-color="#139DE5"/><stop offset="1" stop-color="#7ECFC9"/></linearGradient><linearGradient id="paint1_linear_422_13911" x1="26.974" y1="59.069" x2="26.974" y2="48.579" gradientUnits="userSpaceOnUse"><stop stop-color="#139DE5"/><stop offset="1" stop-color="#7ECFC9"/></linearGradient><linearGradient id="paint2_linear_422_13911" x1="29.869" y1="64.088" x2="29.869" y2="55.389" gradientUnits="userSpaceOnUse"><stop stop-color="#139DE5"/><stop offset="1" stop-color="#7ECFC9"/></linearGradient><linearGradient id="paint3_linear_422_13911" x1="47.889" y1="54.051" x2="47.889" y2="45.423" gradientUnits="userSpaceOnUse"><stop stop-color="#139DE5"/><stop offset="1" stop-color="#7ECFC9"/></linearGradient><linearGradient id="paint4_linear_422_13911" x1="43.873" y1="59.069" x2="43.873" y2="50.197" gradientUnits="userSpaceOnUse"><stop stop-color="#139DE5"/><stop offset="1" stop-color="#7ECFC9"/></linearGradient><linearGradient id="paint5_linear_422_13911" x1="38.419" y1="62.51" x2="38.419" y2="55.214" gradientUnits="userSpaceOnUse"><stop stop-color="#139DE5"/><stop offset="1" stop-color="#7ECFC9"/></linearGradient><linearGradient id="paint6_linear_422_13911" x1="59.202" y1="41.961" x2="59.202" y2="17.32" gradientUnits="userSpaceOnUse"><stop stop-color="#139DE5"/><stop offset="1" stop-color="#7ECFC9"/></linearGradient><linearGradient id="paint7_linear_422_13911" x1="57.473" y1="43.108" x2="57.473" y2="39.258" gradientUnits="userSpaceOnUse"><stop stop-color="#139DE5"/><stop offset="1" stop-color="#7ECFC9"/></linearGradient><linearGradient id="paint8_linear_422_13911" x1="40.519" y1="49.034" x2="40.519" y2="22.655" gradientUnits="userSpaceOnUse"><stop stop-color="#139DE5"/><stop offset="1" stop-color="#7ECFC9"/></linearGradient><linearGradient id="paint9_linear_422_13911" x1="10.467" y1="41.961" x2="10.467" y2="17.32" gradientUnits="userSpaceOnUse"><stop stop-color="#139DE5"/><stop offset="1" stop-color="#7ECFC9"/></linearGradient><linearGradient id="paint10_linear_422_13911" x1="21.602" y1="25.449" x2="21.602" y2="23.684" gradientUnits="userSpaceOnUse"><stop stop-color="#139DE5"/><stop offset="1" stop-color="#7ECFC9"/></linearGradient><linearGradient id="paint11_linear_422_13911" x1="12.197" y1="43.108" x2="12.197" y2="39.258" gradientUnits="userSpaceOnUse"><stop stop-color="#139DE5"/><stop offset="1" stop-color="#7ECFC9"/></linearGradient><linearGradient id="paint12_linear_422_13911" x1="35.334" y1="12.51" x2="35.334" y2="5.579" gradientUnits="userSpaceOnUse"><stop stop-color="#139DE5"/><stop offset="1" stop-color="#7ECFC9"/></linearGradient><linearGradient id="paint13_linear_422_13911" x1="23.942" y1="15.381" x2="23.942" y2="9.628" gradientUnits="userSpaceOnUse"><stop stop-color="#139DE5"/><stop offset="1" stop-color="#7ECFC9"/></linearGradient><linearGradient id="paint14_linear_422_13911" x1="45.727" y1="15.381" x2="45.727" y2="9.628" gradientUnits="userSpaceOnUse"><stop stop-color="#139DE5"/><stop offset="1" stop-color="#7ECFC9"/></linearGradient><linearGradient id="paint15_linear_422_13911" x1="24.077" y1="54.051" x2="24.077" y2="41.77" gradientUnits="userSpaceOnUse"><stop stop-color="#139DE5"/><stop offset="1" stop-color="#7ECFC9"/></linearGradient><linearGradient id="paint16_linear_422_13911" x1="63.17" y1="27.433" x2="63.17" y2="27.43" gradientUnits="userSpaceOnUse"><stop stop-color="#139DE5"/><stop offset="1" stop-color="#7ECFC9"/></linearGradient><clipPath id="clip0_422_13911"><path fill="#fff" d="M0 0h69.667v69.667H0z"/></clipPath></defs></svg>