<svg width="68" height="68" viewBox="0 0 68 68" fill="none" xmlns="http://www.w3.org/2000/svg">
<g clip-path="url('#clip0_422_23388')">
<path d="M63.4667 30.9967V23.8C63.431 13.3135 56.228 4.21148 46.0304 1.7668C45.4385 0.681594 44.3028 0.00451563 43.0667 0H24.9333C23.6972 0.00451563 22.5614 0.681594 21.9696 1.7668C11.772 4.21148 4.56902 13.3135 4.53329 23.8V30.9967C1.81913 31.9563 0.00332031 34.5212 0 37.4V44.2C0.0031875 47.0927 1.836 49.6666 4.56848 50.6158C4.83716 57.7171 10.2943 63.5363 17.3638 64.26C19.9398 64.4663 22.9285 64.5762 26.2253 64.6C26.7407 66.5963 28.5382 67.9934 30.6 68H38.5333C41.0369 68 43.0666 65.9704 43.0666 63.4667C43.0666 60.9631 41.0369 58.9334 38.5333 58.9334H30.6C28.5422 58.9413 26.7479 60.3341 26.2298 62.3255C22.993 62.3073 20.0633 62.1997 17.5451 61.9979C11.7903 61.4003 7.28822 56.7694 6.85326 51.0001H9.27523C9.82467 52.5603 11.4194 53.4965 13.0495 53.2162C14.6796 52.936 15.8699 51.5209 15.8667 49.8668V31.7333C15.8667 29.8555 14.3444 28.3333 12.4667 28.3333C12.0797 28.337 11.6964 28.4075 11.3334 28.5418V23.8C11.3859 16.6561 16.1677 10.4125 23.0509 8.5C23.6084 8.87134 24.2636 9.06857 24.9334 9.06671H43.0667C43.7365 9.06857 44.3918 8.87134 44.9492 8.5C51.8326 10.4125 56.6143 16.6561 56.6667 23.8V28.5418C56.3037 28.4075 55.9203 28.337 55.5334 28.3333C53.6557 28.3333 52.1334 29.8556 52.1334 31.7333V49.8666C52.1302 51.5206 53.3206 52.9357 54.9506 53.216C56.5808 53.4962 58.1753 52.56 58.7249 50.9999H61.2C64.9539 50.9961 67.9963 47.9538 68 44.1999V37.3999C67.9967 34.5212 66.1809 31.9563 63.4667 30.9967ZM30.6 61.2V62.3333C30.6 62.9592 31.1075 63.4666 31.7333 63.4666C32.3592 63.4666 32.8666 62.9591 32.8666 62.3333V61.2H36.2666V62.3333C36.2666 62.9592 36.7739 63.4666 37.3999 63.4666C38.0258 63.4666 38.5332 62.9591 38.5332 62.3333V61.2C39.785 61.2 40.7999 62.2148 40.7999 63.4667C40.7999 64.7186 39.785 65.7334 38.5332 65.7334H30.6C29.3481 65.7334 28.3333 64.7186 28.3333 63.4667C28.3333 62.2148 29.3481 61.2 30.6 61.2ZM2.26671 44.2V37.4C2.26671 34.8964 4.29635 32.8667 6.8 32.8667H9.06671V48.7334H6.8C4.29635 48.7333 2.26671 46.7036 2.26671 44.2ZM12.4667 30.6C13.0927 30.6 13.6 31.1075 13.6 31.7333V49.8666C13.6 50.4925 13.0925 50.9999 12.4667 50.9999C11.8408 50.9999 11.3334 50.4924 11.3334 49.8666V31.7333C11.3333 31.1075 11.8408 30.6 12.4667 30.6ZM9.06671 23.8V30.6H6.8V23.8C6.83068 14.729 12.8262 6.75962 21.5333 4.216V5.66671C21.5375 5.95916 21.5794 6.24976 21.658 6.53145C14.1379 8.91716 9.03869 15.9105 9.06671 23.8ZM44.2 5.66671C44.2 6.29266 43.6927 6.8 43.0667 6.8H24.9333C24.3073 6.8 23.8 6.29252 23.8 5.66671V3.4C23.8 2.77405 24.3075 2.26671 24.9333 2.26671H43.0666C43.6925 2.26671 44.1999 2.77419 44.1999 3.4V5.66671H44.2ZM46.342 6.53145C46.4206 6.24976 46.4625 5.95916 46.4667 5.66671V4.216C55.1738 6.75962 61.1693 14.729 61.2 23.8V30.6H58.9333V23.8C58.9613 15.9105 53.8621 8.91716 46.342 6.53145ZM55.5333 51C54.9073 51 54.4 50.4925 54.4 49.8667V31.7333C54.4 31.1073 54.9073 30.6 55.5333 30.6C56.1592 30.6 56.6666 31.1075 56.6666 31.7333V49.8666C56.6667 50.4927 56.1592 51 55.5333 51ZM65.7333 44.2C65.7333 46.7036 63.7036 48.7333 61.2 48.7333H58.9333V32.8667H61.2C63.7036 32.8667 65.7333 34.8964 65.7333 37.4V44.2Z" fill="url('#paint0_linear_422_23388')"></path>
<path d="M34 24.9336C25.237 24.9336 18.1333 32.0373 18.1333 40.8003C18.1333 49.5633 25.237 56.667 34 56.667C42.763 56.667 49.8667 49.5633 49.8667 40.8003C49.8573 32.0413 42.759 24.943 34 24.9336ZM34 54.4003C26.4889 54.4003 20.4 48.3114 20.4 40.8003C20.4 33.2892 26.4889 27.2003 34 27.2003C41.5111 27.2003 47.6 33.2892 47.6 40.8003C47.5919 48.3081 41.5078 54.3922 34 54.4003Z" fill="url('#paint1_linear_422_23388')"></path>
<path d="M35.1333 40.3309V30.6001C35.1333 29.9741 34.6258 29.4668 34 29.4668C33.374 29.4668 32.8667 29.9741 32.8667 30.6001V40.8001C32.8667 41.1006 32.9862 41.3888 33.1987 41.6013L38.8654 47.2681C39.3101 47.6976 40.0171 47.6915 40.4541 47.2542C40.8914 46.817 40.8975 46.1102 40.468 45.6655L35.1333 40.3309Z" fill="url('#paint2_linear_422_23388')"></path>
</g>
<defs>
<linearGradient id="paint0_linear_422_23388" x1="34" y1="0" x2="34" y2="68" gradientUnits="userSpaceOnUse">
<stop stop-color="#78CCCB"></stop>
<stop offset="1" stop-color="#199FE4"></stop>
</linearGradient>
<linearGradient id="paint1_linear_422_23388" x1="34" y1="24.9336" x2="34" y2="56.667" gradientUnits="userSpaceOnUse">
<stop stop-color="#78CCCB"></stop>
<stop offset="1" stop-color="#199FE4"></stop>
</linearGradient>
<linearGradient id="paint2_linear_422_23388" x1="36.8264" y1="29.4668" x2="36.8264" y2="47.5862" gradientUnits="userSpaceOnUse">
<stop stop-color="#78CCCB"></stop>
<stop offset="1" stop-color="#199FE4"></stop>
</linearGradient>
<clipPath id="clip0_422_23388">
<rect width="68" height="68" fill="white"></rect>
</clipPath>
</defs>
</svg>
