<svg width="68" height="68" fill="none" xmlns="http://www.w3.org/2000/svg"><g clip-path="url('#a')"><path fill="url('#b')" d="M63.467 30.997V23.8A22.737 22.737 0 0 0 46.03 1.767 3.39 3.39 0 0 0 43.067 0H24.933a3.39 3.39 0 0 0-2.963 1.767A22.737 22.737 0 0 0 4.533 23.8v7.197A6.8 6.8 0 0 0 0 37.4v6.8a6.8 6.8 0 0 0 4.568 6.416A14.257 14.257 0 0 0 17.364 64.26c2.576.206 5.564.316 8.861.34A4.533 4.533 0 0 0 30.6 68h7.933a4.533 4.533 0 0 0 0-9.067H30.6a4.534 4.534 0 0 0-4.37 3.392c-3.237-.018-6.167-.125-8.685-.327A11.961 11.961 0 0 1 6.853 51h2.422a3.392 3.392 0 0 0 6.592-1.133V31.733a3.4 3.4 0 0 0-3.4-3.4c-.387.004-.77.075-1.134.209V23.8A16.002 16.002 0 0 1 23.051 8.5a3.379 3.379 0 0 0 1.882.567h18.134a3.379 3.379 0 0 0 1.882-.567 16.001 16.001 0 0 1 11.718 15.3v4.742a3.359 3.359 0 0 0-1.134-.209 3.4 3.4 0 0 0-3.4 3.4v18.134A3.392 3.392 0 0 0 58.725 51H61.2a6.807 6.807 0 0 0 6.8-6.8v-6.8a6.8 6.8 0 0 0-4.533-6.403ZM30.6 61.2v1.133a1.133 1.133 0 0 0 2.267 0V61.2h3.4v1.133a1.133 1.133 0 1 0 2.266 0V61.2a2.267 2.267 0 0 1 0 4.533H30.6a2.267 2.267 0 1 1 0-4.533Zm-28.333-17v-6.8A4.533 4.533 0 0 1 6.8 32.867h2.267v15.866H6.8A4.534 4.534 0 0 1 2.267 44.2Zm10.2-13.6c.626 0 1.133.508 1.133 1.133v18.134a1.133 1.133 0 0 1-2.267 0V31.733c0-.625.508-1.133 1.134-1.133Zm-3.4-6.8v6.8H6.8v-6.8A20.475 20.475 0 0 1 21.533 4.216v1.45c.005.293.046.584.125.865A18.05 18.05 0 0 0 9.067 23.8ZM44.2 5.667c0 .626-.507 1.133-1.133 1.133H24.933A1.133 1.133 0 0 1 23.8 5.667V3.4c0-.626.508-1.133 1.133-1.133h18.134c.626 0 1.133.507 1.133 1.133v2.267Zm2.142.864c.079-.281.12-.572.125-.864V4.216A20.475 20.475 0 0 1 61.2 23.8v6.8h-2.267v-6.8A18.05 18.05 0 0 0 46.342 6.531ZM55.533 51a1.133 1.133 0 0 1-1.133-1.133V31.733a1.133 1.133 0 1 1 2.267 0v18.134c0 .626-.508 1.133-1.134 1.133Zm10.2-6.8a4.533 4.533 0 0 1-4.533 4.533h-2.267V32.867H61.2a4.533 4.533 0 0 1 4.533 4.533v6.8Z"/><path fill="url('#c')" d="M34 24.934c-8.763 0-15.867 7.103-15.867 15.866S25.237 56.667 34 56.667c8.763 0 15.867-7.104 15.867-15.867-.01-8.759-7.108-15.857-15.867-15.866ZM34 54.4c-7.511 0-13.6-6.089-13.6-13.6 0-7.51 6.089-13.6 13.6-13.6 7.511 0 13.6 6.09 13.6 13.6-.008 7.508-6.092 13.592-13.6 13.6Z"/><path fill="url('#d')" d="M35.133 40.33V30.6a1.133 1.133 0 0 0-2.266 0v10.2c0 .3.12.589.332.801l5.666 5.667a1.133 1.133 0 0 0 1.603-1.602l-5.335-5.335Z"/></g><defs><linearGradient id="prefix__b" x1="34" x2="34" y1="0" y2="68" gradientUnits="userSpaceOnUse"><stop stop-color="#78CCCB"/><stop offset="1" stop-color="#199FE4"/></linearGradient><linearGradient id="prefix__c" x1="34" x2="34" y1="24.934" y2="56.667" gradientUnits="userSpaceOnUse"><stop stop-color="#78CCCB"/><stop offset="1" stop-color="#199FE4"/></linearGradient><linearGradient id="prefix__d" x1="36.826" x2="36.826" y1="29.467" y2="47.586" gradientUnits="userSpaceOnUse"><stop stop-color="#78CCCB"/><stop offset="1" stop-color="#199FE4"/></linearGradient><clipPath id="prefix__a"><path fill="#fff" d="M0 0h68v68H0z"/></clipPath></defs></svg>