<svg width="68" height="68" viewBox="0 0 68 68" fill="none" xmlns="http://www.w3.org/2000/svg">
<g clip-path="url('#clip0_422_23339')">
<path d="M54.4 49.8663C54.4 51.118 53.3851 52.1329 52.1334 52.1329C50.8816 52.1329 49.8667 51.118 49.8667 49.8663C49.8667 48.6145 50.8816 47.5996 52.1334 47.5996C53.3851 47.5996 54.4 48.6145 54.4 49.8663Z" fill="url('#paint0_linear_422_23339')"></path>
<path d="M61.1999 38.5335H60.0666V32.8668C60.0644 30.9897 58.5437 29.469 56.6666 29.4668H6.7999C4.92282 29.469 3.40212 30.9897 3.3999 32.8668V64.6001C3.40212 66.4772 4.92282 67.9979 6.7999 68.0001H56.6666C58.5437 67.9979 60.0644 66.4772 60.0666 64.6001V56.6668H61.1999C63.077 56.6646 64.5977 55.1439 64.5999 53.2668V41.9335C64.5977 40.0564 63.077 38.5357 61.1999 38.5335ZM57.7999 64.6001C57.7993 65.2255 57.2919 65.7329 56.6666 65.7335H6.7999C6.17458 65.7329 5.66712 65.2255 5.66657 64.6001V32.8668C5.66712 32.2415 6.17458 31.734 6.7999 31.7335H56.6666C57.2919 31.734 57.7993 32.2415 57.7999 32.8668V43.0668H48.7332C46.8562 43.069 45.3354 44.5897 45.3332 46.4668V53.2668C45.3354 55.1439 46.8562 56.6646 48.7332 56.6668H57.7999V64.6001ZM62.3332 53.2668C62.3327 53.8921 61.8252 54.3996 61.1999 54.4001H48.7332C48.1079 54.3996 47.6005 53.8921 47.5999 53.2668V46.4668C47.6005 45.8415 48.1079 45.334 48.7332 45.3335H62.3332V53.2668ZM60.0666 43.0668V40.8001H61.1999C61.8252 40.8007 62.3327 41.3081 62.3332 41.9335V43.0668H60.0666Z" fill="url('#paint1_linear_422_23339')"></path>
<path d="M36.2667 8.97647C39.7408 8.46956 42.4696 5.74082 42.9765 2.26667H47.6902C48.1971 5.74082 50.9258 8.46956 54.4 8.97647V27.2H56.6667V3.4C56.6645 1.52292 55.1438 0.00221354 53.2667 0H37.4C35.5229 0.00221354 34.0022 1.52292 34 3.4V27.2H36.2667V8.97647ZM53.2667 2.26667C53.892 2.26722 54.3994 2.77467 54.4 3.4V6.686C52.1765 6.2278 50.4389 4.49017 49.9807 2.26667H53.2667ZM36.2667 3.4C36.2672 2.77467 36.7747 2.26722 37.4 2.26667H40.686C40.2278 4.49017 38.4902 6.2278 36.2667 6.686V3.4Z" fill="url('#paint2_linear_422_23339')"></path>
<path d="M38.5332 18.133C38.5332 21.8883 41.5779 24.933 45.3332 24.933C49.0885 24.933 52.1332 21.8883 52.1332 18.133C52.1332 14.3777 49.0885 11.333 45.3332 11.333C41.5796 11.3369 38.5371 14.3794 38.5332 18.133ZM49.8665 18.133C49.8665 20.6365 47.8367 22.6663 45.3332 22.6663C42.8297 22.6663 40.7999 20.6365 40.7999 18.133C40.7999 15.6295 42.8297 13.5997 45.3332 13.5997C47.8356 13.6024 49.8638 15.6306 49.8665 18.133Z" fill="url('#paint3_linear_422_23339')"></path>
<path d="M22.6666 15.7763C26.1407 15.2694 28.8695 12.5406 29.3764 9.06647H31.7332V6.7998H23.7999C21.9228 6.80202 20.4021 8.32272 20.3999 10.1998V27.1998H22.6666V15.7763ZM22.6666 10.1998C22.6671 9.57448 23.1746 9.06702 23.7999 9.06647H27.0859C26.6277 11.29 24.8901 13.0276 22.6666 13.4858V10.1998Z" fill="url('#paint4_linear_422_23339')"></path>
<path d="M9.06647 22.5761C12.5406 22.0692 15.2694 19.3404 15.7763 15.8663H18.1331V13.5996H10.1998C8.32272 13.6018 6.80202 15.1225 6.7998 16.9996V27.1996H9.06647V22.5761ZM9.06647 16.9996C9.06702 16.3743 9.57448 15.8668 10.1998 15.8663H13.4858C13.0276 18.0898 11.29 19.8274 9.06647 20.2856V16.9996Z" fill="url('#paint5_linear_422_23339')"></path>
<path d="M24.9331 27.2004H27.1998C27.2025 24.698 29.2307 22.6698 31.7331 22.6671V20.4004C27.9795 20.4043 24.937 23.4468 24.9331 27.2004Z" fill="url('#paint6_linear_422_23339')"></path>
</g>
<defs>
<linearGradient id="paint0_linear_422_23339" x1="52.1334" y1="47.5996" x2="52.1334" y2="52.1329" gradientUnits="userSpaceOnUse">
<stop stop-color="#75CACB"></stop>
<stop offset="1" stop-color="#0E9BE6"></stop>
</linearGradient>
<linearGradient id="paint1_linear_422_23339" x1="33.9999" y1="29.4668" x2="33.9999" y2="68.0001" gradientUnits="userSpaceOnUse">
<stop stop-color="#75CACB"></stop>
<stop offset="1" stop-color="#0E9BE6"></stop>
</linearGradient>
<linearGradient id="paint2_linear_422_23339" x1="45.3333" y1="0" x2="45.3333" y2="27.2" gradientUnits="userSpaceOnUse">
<stop stop-color="#75CACB"></stop>
<stop offset="1" stop-color="#0E9BE6"></stop>
</linearGradient>
<linearGradient id="paint3_linear_422_23339" x1="45.3332" y1="11.333" x2="45.3332" y2="24.933" gradientUnits="userSpaceOnUse">
<stop stop-color="#75CACB"></stop>
<stop offset="1" stop-color="#0E9BE6"></stop>
</linearGradient>
<linearGradient id="paint4_linear_422_23339" x1="26.0666" y1="6.7998" x2="26.0666" y2="27.1998" gradientUnits="userSpaceOnUse">
<stop stop-color="#75CACB"></stop>
<stop offset="1" stop-color="#0E9BE6"></stop>
</linearGradient>
<linearGradient id="paint5_linear_422_23339" x1="12.4665" y1="13.5996" x2="12.4665" y2="27.1996" gradientUnits="userSpaceOnUse">
<stop stop-color="#75CACB"></stop>
<stop offset="1" stop-color="#0E9BE6"></stop>
</linearGradient>
<linearGradient id="paint6_linear_422_23339" x1="28.3331" y1="20.4004" x2="28.3331" y2="27.2004" gradientUnits="userSpaceOnUse">
<stop stop-color="#75CACB"></stop>
<stop offset="1" stop-color="#0E9BE6"></stop>
</linearGradient>
<clipPath id="clip0_422_23339">
<rect width="68" height="68" fill="white"></rect>
</clipPath>
</defs>
</svg>
