<svg width="68" height="68" fill="none" xmlns="http://www.w3.org/2000/svg"><g clip-path="url('#a')"><path fill="url('#b')" d="M54.4 49.866a2.267 2.267 0 1 1-4.533 0 2.267 2.267 0 0 1 4.533 0Z"/><path fill="url('#c')" d="M61.2 38.533h-1.133v-5.666a3.404 3.404 0 0 0-3.4-3.4H6.8a3.404 3.404 0 0 0-3.4 3.4V64.6A3.404 3.404 0 0 0 6.8 68h49.867a3.404 3.404 0 0 0 3.4-3.4v-7.933H61.2a3.404 3.404 0 0 0 3.4-3.4V41.933a3.404 3.404 0 0 0-3.4-3.4ZM57.8 64.6c0 .626-.508 1.133-1.133 1.134H6.8A1.135 1.135 0 0 1 5.667 64.6V32.867c0-.625.508-1.133 1.133-1.133h49.867c.625 0 1.132.508 1.133 1.133v10.2h-9.067a3.404 3.404 0 0 0-3.4 3.4v6.8a3.404 3.404 0 0 0 3.4 3.4H57.8V64.6Zm4.533-11.333c0 .625-.508 1.133-1.133 1.133H48.733a1.135 1.135 0 0 1-1.133-1.133v-6.8c0-.625.508-1.133 1.133-1.133h13.6v7.933Zm-2.266-10.2V40.8H61.2c.625 0 1.133.508 1.133 1.134v1.133h-2.266Z"/><path fill="url('#d')" d="M36.267 8.976a7.94 7.94 0 0 0 6.71-6.71h4.713a7.94 7.94 0 0 0 6.71 6.71V27.2h2.267V3.4a3.404 3.404 0 0 0-3.4-3.4H37.4A3.404 3.404 0 0 0 34 3.4v23.8h2.267V8.976Zm17-6.71c.625.001 1.132.509 1.133 1.134v3.286a5.683 5.683 0 0 1-4.42-4.42h3.287Zm-17 1.134c0-.625.508-1.133 1.133-1.133h3.286a5.683 5.683 0 0 1-4.42 4.419V3.4Z"/><path fill="url('#e')" d="M38.533 18.133a6.8 6.8 0 1 0 6.8-6.8 6.807 6.807 0 0 0-6.8 6.8Zm11.334 0a4.534 4.534 0 1 1-9.068 0 4.534 4.534 0 0 1 9.068 0Z"/><path fill="url('#f')" d="M22.667 15.776a7.94 7.94 0 0 0 6.71-6.71h2.356V6.8H23.8a3.404 3.404 0 0 0-3.4 3.4v17h2.267V15.776Zm0-5.576c0-.626.508-1.133 1.133-1.134h3.286a5.683 5.683 0 0 1-4.42 4.42V10.2Z"/><path fill="url('#g')" d="M9.066 22.576a7.94 7.94 0 0 0 6.71-6.71h2.357V13.6H10.2A3.404 3.404 0 0 0 6.8 17v10.2h2.266v-4.624Zm0-5.576c.001-.626.508-1.133 1.134-1.134h3.286a5.683 5.683 0 0 1-4.42 4.42V17Z"/><path fill="url('#h')" d="M24.933 27.2H27.2a4.538 4.538 0 0 1 4.533-4.533V20.4a6.807 6.807 0 0 0-6.8 6.8Z"/></g><defs><linearGradient id="prefix__b" x1="52.133" x2="52.133" y1="47.6" y2="52.133" gradientUnits="userSpaceOnUse"><stop stop-color="#75CACB"/><stop offset="1" stop-color="#0E9BE6"/></linearGradient><linearGradient id="prefix__c" x1="34" x2="34" y1="29.467" y2="68" gradientUnits="userSpaceOnUse"><stop stop-color="#75CACB"/><stop offset="1" stop-color="#0E9BE6"/></linearGradient><linearGradient id="prefix__d" x1="45.333" x2="45.333" y1="0" y2="27.2" gradientUnits="userSpaceOnUse"><stop stop-color="#75CACB"/><stop offset="1" stop-color="#0E9BE6"/></linearGradient><linearGradient id="prefix__e" x1="45.333" x2="45.333" y1="11.333" y2="24.933" gradientUnits="userSpaceOnUse"><stop stop-color="#75CACB"/><stop offset="1" stop-color="#0E9BE6"/></linearGradient><linearGradient id="prefix__f" x1="26.067" x2="26.067" y1="6.8" y2="27.2" gradientUnits="userSpaceOnUse"><stop stop-color="#75CACB"/><stop offset="1" stop-color="#0E9BE6"/></linearGradient><linearGradient id="prefix__g" x1="12.466" x2="12.466" y1="13.6" y2="27.2" gradientUnits="userSpaceOnUse"><stop stop-color="#75CACB"/><stop offset="1" stop-color="#0E9BE6"/></linearGradient><linearGradient id="prefix__h" x1="28.333" x2="28.333" y1="20.4" y2="27.2" gradientUnits="userSpaceOnUse"><stop stop-color="#75CACB"/><stop offset="1" stop-color="#0E9BE6"/></linearGradient><clipPath id="prefix__a"><path fill="#fff" d="M0 0h68v68H0z"/></clipPath></defs></svg>