<svg width="68" height="68" fill="none" xmlns="http://www.w3.org/2000/svg"><g stroke-linecap="round" stroke-linejoin="round" stroke-miterlimit="22.926" stroke-width="3" clip-path="url('#a')"><path stroke="url('#b')" d="M18.328 43.96v2.06c0 4.492-3.675 8.167-8.168 8.167-4.492 0-8.168-3.675-8.168-8.167v-2.06h16.336Z" clip-rule="evenodd"/><path stroke="url('#c')" d="m10.16 25.766 7.592 18.195H2.569l7.592-18.195Z" clip-rule="evenodd"/><path stroke="url('#d')" d="M37.984 22.844v34.133h-7.968v-34"/><path stroke="url('#e')" d="M30.016 13.68V5.977L34 1.992l3.984 3.985v6.64"/><path stroke="url('#f')" d="m20.188 60.96 8.234-3.983h11.156l8.234 3.984v5.047H20.189V60.96Z" clip-rule="evenodd"/><path stroke="url('#g')" d="M28.023 18.195H13.945v2.657a3.86 3.86 0 0 1-3.851 3.851h-.266a3.859 3.859 0 0 1-3.851-3.851"/><path stroke="url('#h')" d="M49.672 43.96v2.06c0 4.492 3.675 8.167 8.168 8.167 4.492 0 8.168-3.675 8.168-8.167v-2.06H49.672Z" clip-rule="evenodd"/><path stroke="url('#i')" d="M57.84 25.766 50.248 43.96h15.183L57.84 25.766Z" clip-rule="evenodd"/><path stroke="url('#j')" d="M40.11 18.195h13.945v2.657a3.86 3.86 0 0 0 3.851 3.851h.266a3.859 3.859 0 0 0 3.851-3.851"/><path stroke="url('#k')" d="M35.893 23.678a5.777 5.777 0 1 0-3.653-10.962 5.777 5.777 0 0 0 3.653 10.962Z"/></g><defs><linearGradient id="prefix__b" x1="10.16" x2="10.16" y1="43.961" y2="54.188" gradientUnits="userSpaceOnUse"><stop stop-color="#76CAC9"/><stop offset="1" stop-color="#0E9BE6"/></linearGradient><linearGradient id="prefix__c" x1="10.161" x2="10.161" y1="25.766" y2="43.961" gradientUnits="userSpaceOnUse"><stop stop-color="#76CAC9"/><stop offset="1" stop-color="#0E9BE6"/></linearGradient><linearGradient id="prefix__d" x1="34" x2="34" y1="22.844" y2="56.977" gradientUnits="userSpaceOnUse"><stop stop-color="#76CAC9"/><stop offset="1" stop-color="#0E9BE6"/></linearGradient><linearGradient id="prefix__e" x1="34" x2="34" y1="1.992" y2="13.68" gradientUnits="userSpaceOnUse"><stop stop-color="#76CAC9"/><stop offset="1" stop-color="#0E9BE6"/></linearGradient><linearGradient id="prefix__f" x1="34" x2="34" y1="56.977" y2="66.008" gradientUnits="userSpaceOnUse"><stop stop-color="#76CAC9"/><stop offset="1" stop-color="#0E9BE6"/></linearGradient><linearGradient id="prefix__g" x1="17" x2="17" y1="18.195" y2="24.703" gradientUnits="userSpaceOnUse"><stop stop-color="#76CAC9"/><stop offset="1" stop-color="#0E9BE6"/></linearGradient><linearGradient id="prefix__h" x1="57.84" x2="57.84" y1="43.961" y2="54.188" gradientUnits="userSpaceOnUse"><stop stop-color="#76CAC9"/><stop offset="1" stop-color="#0E9BE6"/></linearGradient><linearGradient id="prefix__i" x1="57.84" x2="57.84" y1="25.766" y2="43.961" gradientUnits="userSpaceOnUse"><stop stop-color="#76CAC9"/><stop offset="1" stop-color="#0E9BE6"/></linearGradient><linearGradient id="prefix__j" x1="51.066" x2="51.066" y1="18.195" y2="24.703" gradientUnits="userSpaceOnUse"><stop stop-color="#76CAC9"/><stop offset="1" stop-color="#0E9BE6"/></linearGradient><linearGradient id="prefix__k" x1="32.24" x2="35.893" y1="12.716" y2="23.678" gradientUnits="userSpaceOnUse"><stop stop-color="#76CAC9"/><stop offset="1" stop-color="#0E9BE6"/></linearGradient><clipPath id="prefix__a"><path fill="#fff" d="M0 0h68v68H0z"/></clipPath></defs></svg>