<svg width="68" height="68" fill="none" xmlns="http://www.w3.org/2000/svg"><g clip-path="url('#clip0_422_23465')" stroke-width="3" stroke-miterlimit="22.926" stroke-linecap="round" stroke-linejoin="round"><path clip-rule="evenodd" d="M18.328 43.96v2.06c0 4.492-3.675 8.167-8.168 8.167-4.492 0-8.168-3.675-8.168-8.167v-2.06h16.336Z" stroke="url('#paint0_linear_422_23465')"/><path clip-rule="evenodd" d="m10.16 25.766 7.592 18.195H2.569l7.592-18.195Z" stroke="url('#paint1_linear_422_23465')"/><path d="M37.984 22.844v34.133h-7.968v-34" stroke="url('#paint2_linear_422_23465')"/><path d="M30.016 13.68V5.977L34 1.992l3.984 3.985v6.64" stroke="url('#paint3_linear_422_23465')"/><path clip-rule="evenodd" d="m20.188 60.96 8.234-3.983h11.156l8.234 3.984v5.047H20.189V60.96Z" stroke="url('#paint4_linear_422_23465')"/><path d="M28.023 18.195H13.945v2.657a3.86 3.86 0 0 1-3.851 3.851h-.266a3.859 3.859 0 0 1-3.851-3.851" stroke="url('#paint5_linear_422_23465')"/><path clip-rule="evenodd" d="M49.672 43.96v2.06c0 4.492 3.675 8.167 8.168 8.167 4.492 0 8.168-3.675 8.168-8.167v-2.06H49.672Z" stroke="url('#paint6_linear_422_23465')"/><path clip-rule="evenodd" d="M57.84 25.766 50.248 43.96h15.183L57.84 25.766Z" stroke="url('#paint7_linear_422_23465')"/><path d="M40.11 18.195h13.945v2.657a3.86 3.86 0 0 0 3.851 3.851h.266a3.859 3.859 0 0 0 3.851-3.851" stroke="url('#paint8_linear_422_23465')"/><path d="M35.893 23.678a5.777 5.777 0 1 0-3.653-10.962 5.777 5.777 0 0 0 3.653 10.962Z" stroke="url('#paint9_linear_422_23465')"/></g><defs><linearGradient id="paint0_linear_422_23465" x1="10.16" y1="43.961" x2="10.16" y2="54.188" gradientUnits="userSpaceOnUse"><stop stop-color="#76CAC9"/><stop offset="1" stop-color="#0E9BE6"/></linearGradient><linearGradient id="paint1_linear_422_23465" x1="10.161" y1="25.766" x2="10.161" y2="43.961" gradientUnits="userSpaceOnUse"><stop stop-color="#76CAC9"/><stop offset="1" stop-color="#0E9BE6"/></linearGradient><linearGradient id="paint2_linear_422_23465" x1="34" y1="22.844" x2="34" y2="56.977" gradientUnits="userSpaceOnUse"><stop stop-color="#76CAC9"/><stop offset="1" stop-color="#0E9BE6"/></linearGradient><linearGradient id="paint3_linear_422_23465" x1="34" y1="1.992" x2="34" y2="13.68" gradientUnits="userSpaceOnUse"><stop stop-color="#76CAC9"/><stop offset="1" stop-color="#0E9BE6"/></linearGradient><linearGradient id="paint4_linear_422_23465" x1="34" y1="56.977" x2="34" y2="66.008" gradientUnits="userSpaceOnUse"><stop stop-color="#76CAC9"/><stop offset="1" stop-color="#0E9BE6"/></linearGradient><linearGradient id="paint5_linear_422_23465" x1="17" y1="18.195" x2="17" y2="24.703" gradientUnits="userSpaceOnUse"><stop stop-color="#76CAC9"/><stop offset="1" stop-color="#0E9BE6"/></linearGradient><linearGradient id="paint6_linear_422_23465" x1="57.84" y1="43.961" x2="57.84" y2="54.188" gradientUnits="userSpaceOnUse"><stop stop-color="#76CAC9"/><stop offset="1" stop-color="#0E9BE6"/></linearGradient><linearGradient id="paint7_linear_422_23465" x1="57.84" y1="25.766" x2="57.84" y2="43.961" gradientUnits="userSpaceOnUse"><stop stop-color="#76CAC9"/><stop offset="1" stop-color="#0E9BE6"/></linearGradient><linearGradient id="paint8_linear_422_23465" x1="51.066" y1="18.195" x2="51.066" y2="24.703" gradientUnits="userSpaceOnUse"><stop stop-color="#76CAC9"/><stop offset="1" stop-color="#0E9BE6"/></linearGradient><linearGradient id="paint9_linear_422_23465" x1="32.24" y1="12.716" x2="35.893" y2="23.678" gradientUnits="userSpaceOnUse"><stop stop-color="#76CAC9"/><stop offset="1" stop-color="#0E9BE6"/></linearGradient><clipPath id="clip0_422_23465"><path fill="#fff" d="M0 0h68v68H0z"/></clipPath></defs></svg>