<svg width="88" height="88" fill="none" xmlns="http://www.w3.org/2000/svg"><path stroke="url('#a')" d="M87.5 44c0 24.024-19.476 43.5-43.5 43.5S.5 68.024.5 44 19.976.5 44 .5 87.5 19.976 87.5 44Z"/><g clip-path="url('#b')"><path fill="url('#c')" d="M61.594 32.505c-8.433 0-15.293 6.86-15.293 15.292 0 8.433 6.86 15.293 15.292 15.293C70.026 63.09 77 56.23 77 47.797s-6.972-15.292-15.405-15.292Zm1.743 23.481c-.014.006-.03.003-.044.008v1.998a1.698 1.698 0 1 1-3.399 0v-2.01c-1.119-.377-2.191-1.095-3.108-2.188a1.696 1.696 0 0 1 .21-2.393 1.695 1.695 0 0 1 2.392.21c.9 1.07 1.917 1.495 2.786 1.183a1.7 1.7 0 0 0-.58-3.297 5.103 5.103 0 0 1-5.098-5.098 5.09 5.09 0 0 1 3.111-4.696c.094-.04.193-.038.287-.071v-2.03a1.698 1.698 0 1 1 3.399 0v2.033c.88.297 1.738.77 2.504 1.512a1.699 1.699 0 1 1-2.367 2.439c-.826-.802-1.74-1.077-2.497-.753a1.698 1.698 0 0 0 .66 3.265 5.103 5.103 0 0 1 5.098 5.098 5.112 5.112 0 0 1-3.354 4.79Z"/><path fill="url('#d')" d="M20.7 49.496c-.94 0-1.7.76-1.7 1.7V68.3c0 .94.76 1.7 1.7 1.7h5.097V49.495H20.7Z"/><path fill="url('#e')" d="M59.3 22.606 47.406 12.41a1.692 1.692 0 0 0-2.21 0L33.3 22.606a1.694 1.694 0 0 0-.488 1.878c.246.667.881 1.11 1.593 1.11h5.098V70h11.894c.94 0 1.7-.76 1.7-1.7v-3.875c-6.043-3.1-10.195-9.382-10.195-16.628 0-7.245 4.152-13.527 10.195-16.627v-5.576h5.097c.712 0 1.348-.443 1.593-1.11a1.694 1.694 0 0 0-.488-1.878Z"/><path fill="url('#f')" d="M31.008 35.903c-.94 0-1.7.76-1.7 1.7V70h6.798V35.903h-5.098Z"/></g><defs><linearGradient id="prefix__a" x1="44" x2="44" y1="0" y2="88" gradientUnits="userSpaceOnUse"><stop stop-color="#25A6E0"/><stop offset="1" stop-color="#43B2E3" stop-opacity="0"/></linearGradient><linearGradient id="prefix__c" x1="61.65" x2="61.65" y1="32.505" y2="63.09" gradientUnits="userSpaceOnUse"><stop stop-color="#80D0C8"/><stop offset="1" stop-color="#0596E8"/></linearGradient><linearGradient id="prefix__d" x1="22.399" x2="22.399" y1="49.496" y2="70" gradientUnits="userSpaceOnUse"><stop stop-color="#80D0C8"/><stop offset="1" stop-color="#0596E8"/></linearGradient><linearGradient id="prefix__e" x1="46.301" x2="46.301" y1="12" y2="70" gradientUnits="userSpaceOnUse"><stop stop-color="#80D0C8"/><stop offset="1" stop-color="#0596E8"/></linearGradient><linearGradient id="prefix__f" x1="32.707" x2="32.707" y1="35.903" y2="70" gradientUnits="userSpaceOnUse"><stop stop-color="#80D0C8"/><stop offset="1" stop-color="#0596E8"/></linearGradient><clipPath id="prefix__b"><path fill="#fff" d="M0 0h58v58H0z" transform="translate(19 12)"/></clipPath></defs></svg>