<svg width="88" height="88" viewBox="0 0 88 88" fill="none" xmlns="http://www.w3.org/2000/svg">
<path d="M87.5 44C87.5 68.0244 68.0244 87.5 44 87.5C19.9756 87.5 0.5 68.0244 0.5 44C0.5 19.9756 19.9756 0.5 44 0.5C68.0244 0.5 87.5 19.9756 87.5 44Z" stroke="url('#paint0_linear_422_1918')"></path>
<g clip-path="url('#clip0_422_1918')">
<path d="M61.5936 32.5045C53.1608 32.5045 46.3008 39.3643 46.3008 47.7972C46.3008 56.2301 53.1606 63.0899 61.5935 63.0899C70.0264 63.0899 76.9995 56.2301 76.9995 47.7972C76.9995 39.3643 70.0265 32.5045 61.5936 32.5045ZM63.3375 55.9862C63.3228 55.9916 63.3074 55.9891 63.2926 55.9942V57.9924C63.2926 58.9316 62.5326 59.6916 61.5934 59.6916C60.6542 59.6916 59.8942 58.9316 59.8942 57.9924V55.9827C58.7751 55.6045 57.7028 54.887 56.7861 53.7942C56.1821 53.0756 56.275 52.0037 56.9952 51.4014C57.7138 50.7973 58.789 50.8902 59.388 51.6105C60.2874 52.6808 61.3047 53.1056 62.1742 52.7936C62.8429 52.5497 63.2926 51.9075 63.2926 51.1956C63.2926 50.2581 62.5309 49.4964 61.5934 49.4964C58.7824 49.4964 56.4959 47.2097 56.4959 44.3989C56.4959 42.3462 57.7172 40.5026 59.6072 39.7029C59.7008 39.6633 59.7999 39.6655 59.8943 39.6318V37.6021C59.8943 36.6629 60.6543 35.9029 61.5935 35.9029C62.5327 35.9029 63.2927 36.6629 63.2927 37.6021V39.6348C64.1726 39.9321 65.0306 40.4046 65.7967 41.1466C66.4704 41.7987 66.487 42.874 65.8332 43.5494C65.181 44.2231 64.1041 44.238 63.4304 43.5859C62.604 42.7844 61.6897 42.5089 60.933 42.8325C60.3025 43.0996 59.8942 43.7136 59.8942 44.399C59.8942 45.3365 60.6559 46.0982 61.5934 46.0982C64.4044 46.0982 66.691 48.3849 66.691 51.1957C66.6912 53.3312 65.3437 55.2561 63.3375 55.9862Z" fill="url('#paint1_linear_422_1918')"></path>
<path d="M20.6996 49.4965C19.7604 49.4965 19.0004 50.2565 19.0004 51.1957V68.3009C19.0004 69.2401 19.7604 70.0001 20.6996 70.0001H25.7972V49.4965H20.6996Z" fill="url('#paint2_linear_422_1918')"></path>
<path d="M59.3004 22.6058L47.406 12.4106C46.772 11.863 45.8295 11.863 45.1956 12.4106L33.3013 22.6058C32.7604 23.0671 32.5662 23.8172 32.8134 24.4843C33.059 25.1514 33.6945 25.5944 34.4065 25.5944H39.504C39.504 40.2846 39.504 55.309 39.504 70.0001C43.8814 70.0001 46.9077 70.0001 51.3984 70.0001C52.3377 70.0001 53.0977 69.2401 53.0977 68.3009V64.4251C47.055 61.3247 42.9025 55.0432 42.9025 47.7973C42.9025 40.5515 47.0551 34.27 53.0977 31.1696V25.5945H58.1952C58.9071 25.5945 59.5427 25.1515 59.7883 24.4844C60.0356 23.8172 59.8414 23.0671 59.3004 22.6058Z" fill="url('#paint3_linear_422_1918')"></path>
<path d="M31.0081 35.9029C30.0688 35.9029 29.3088 36.6629 29.3088 37.6021V49.4965V70C31.7908 70 33.6958 70 36.1056 70V35.9029H31.0081Z" fill="url('#paint4_linear_422_1918')"></path>
</g>
<defs>
<linearGradient id="paint0_linear_422_1918" x1="44" y1="0" x2="44" y2="88" gradientUnits="userSpaceOnUse">
<stop stop-color="#25A6E0"></stop>
<stop offset="1" stop-color="#43B2E3" stop-opacity="0"></stop>
</linearGradient>
<linearGradient id="paint1_linear_422_1918" x1="61.6502" y1="32.5045" x2="61.6502" y2="63.0899" gradientUnits="userSpaceOnUse">
<stop stop-color="#80D0C8"></stop>
<stop offset="1" stop-color="#0596E8"></stop>
</linearGradient>
<linearGradient id="paint2_linear_422_1918" x1="22.3988" y1="49.4965" x2="22.3988" y2="70.0001" gradientUnits="userSpaceOnUse">
<stop stop-color="#80D0C8"></stop>
<stop offset="1" stop-color="#0596E8"></stop>
</linearGradient>
<linearGradient id="paint3_linear_422_1918" x1="46.3009" y1="11.9999" x2="46.3009" y2="70.0001" gradientUnits="userSpaceOnUse">
<stop stop-color="#80D0C8"></stop>
<stop offset="1" stop-color="#0596E8"></stop>
</linearGradient>
<linearGradient id="paint4_linear_422_1918" x1="32.7072" y1="35.9029" x2="32.7072" y2="70" gradientUnits="userSpaceOnUse">
<stop stop-color="#80D0C8"></stop>
<stop offset="1" stop-color="#0596E8"></stop>
</linearGradient>
<clipPath id="clip0_422_1918">
<rect width="58" height="58" fill="white" transform="translate(19 12)"></rect>
</clipPath>
</defs>
</svg>
