<svg width="72" height="72" fill="none" xmlns="http://www.w3.org/2000/svg"><path d="M55.274 21.765h1.681V28.4a1.043 1.043 0 1 0 2.088 0v-6.635h1.68a1.044 1.044 0 1 0 0-2.087h-1.68v-3.032c0-.583.474-1.057 1.056-1.057h2.474a1.044 1.044 0 1 0 0-2.087h-2.474a3.148 3.148 0 0 0-3.144 3.144v3.032h-1.68a1.044 1.044 0 1 0 0 2.087ZM36.375 6.047a1.044 1.044 0 1 0 0-2.087 1.044 1.044 0 0 0 0 2.087ZM13.827 24.182a3.135 3.135 0 0 0 3.131-3.131 3.135 3.135 0 0 0-3.13-3.131 3.135 3.135 0 0 0-3.132 3.13 3.135 3.135 0 0 0 3.131 3.132Zm0-4.175a1.045 1.045 0 0 1 0 2.087 1.045 1.045 0 0 1 0-2.087Zm4.175 8.35a3.135 3.135 0 0 0 3.13-3.132v-8.35a3.135 3.135 0 0 0-3.13-3.13h-8.35a3.135 3.135 0 0 0-3.13 3.13v8.35a3.135 3.135 0 0 0 3.13 3.131h8.35Zm-9.393-3.132v-8.35c0-.575.468-1.043 1.043-1.043h8.35c.575 0 1.044.468 1.044 1.044v8.35c0 .575-.469 1.043-1.044 1.043h-8.35a1.045 1.045 0 0 1-1.043-1.044Zm11.543 18.592a1.68 1.68 0 0 0-1.75-.168 2.028 2.028 0 0 1-.999.198 3.674 3.674 0 0 0-2.243-.962c-.986-.07-1.941.25-2.688.9a3.694 3.694 0 0 0-1.241 2.313 5.259 5.259 0 0 1-3.148-1.76 1.404 1.404 0 0 0-1.36-.455c-.499.108-.898.48-1.042.97-.351 1.193-1.093 4.847 1.992 7.283-.589.18-1.26.166-1.603.762-.31.537-.144 1.17-.018 1.5.246.644.89 1.107 1.912 1.377.558.148 1.287.243 2.109.243 1.906 0 4.307-.513 6.21-2.078 1.897-1.56 2.673-3.687 2.986-5.301a6.505 6.505 0 0 0 1.527-3.2 1.668 1.668 0 0 0-.644-1.622Zm-2.606 3.612a1.043 1.043 0 0 0-.28.556c-.213 1.29-.787 3.091-2.308 4.343-1.84 1.513-4.43 1.725-5.919 1.533a7.957 7.957 0 0 0 1.417-.763 1.044 1.044 0 0 0-.163-1.817c-2.598-1.155-3.008-3.122-2.846-4.664a7.322 7.322 0 0 0 4.824 1.634 1.044 1.044 0 0 0 1.016-1.044V46.6a1.612 1.612 0 0 1 1.727-1.633c.43.03.824.226 1.107.551.152.175.357.294.584.339a4.12 4.12 0 0 0 1.846-.05 4.441 4.441 0 0 1-1.005 1.622Zm41.377-11.058-.074.002v-2.247l.075.001c7.21 0 13.076-5.866 13.076-13.076 0-7.24-5.913-13.117-13.15-13.076v-.99a6.618 6.618 0 0 0-6.61-6.61H20.51a6.618 6.618 0 0 0-6.61 6.61v.99a13.02 13.02 0 0 0-7.174 2.093A1.044 1.044 0 1 0 7.86 11.82a10.946 10.946 0 0 1 5.966-1.758c6.06 0 10.99 4.93 10.99 10.989 0 6.06-4.93 10.989-10.99 10.989-6.06 0-10.989-4.93-10.989-10.99 0-2.196.646-4.316 1.867-6.13a1.044 1.044 0 0 0-1.73-1.166A13.014 13.014 0 0 0 .75 21.051c0 7.21 5.866 13.076 13.076 13.076h.074v2.271a13.18 13.18 0 0 0-.825-.027C5.866 36.371 0 42.237 0 49.448c0 7.21 5.866 13.076 13.076 13.076.277 0 .552-.01.825-.026v2.517a6.618 6.618 0 0 0 6.61 6.61H52.24a6.618 6.618 0 0 0 6.61-6.61v-2.491h.073c7.21 0 13.077-5.866 13.077-13.076 0-7.21-5.866-13.077-13.077-13.077Zm0-26.31c6.06 0 10.99 4.93 10.99 10.99 0 6.06-4.93 10.989-10.99 10.989-6.059 0-10.989-4.93-10.989-10.99 0-6.059 4.93-10.988 10.99-10.988Zm-2.16 23.886v2.602a13.02 13.02 0 0 0-2.088.524v-3.655c.672.232 1.37.41 2.087.53ZM18.075 7.681v1.002c-.673-.232-1.37-.41-2.087-.53V6.986a4.528 4.528 0 0 1 4.522-4.522H52.24a4.528 4.528 0 0 1 4.522 4.522v1.169c-.717.12-1.414.297-2.087.53V7.68a3.135 3.135 0 0 0-3.131-3.13H47.71a2.16 2.16 0 0 0-2.157 2.156.839.839 0 0 1-.838.838h-16.68a.839.839 0 0 1-.837-.838c0-.577-.224-1.119-.634-1.528a2.15 2.15 0 0 0-1.523-.629h-3.834a3.135 3.135 0 0 0-3.131 3.131Zm-2.087 26.266c.717-.12 1.414-.297 2.087-.53v3.948a12.948 12.948 0 0 0-2.087-.666v-2.752Zm-2.913 26.49c-6.059 0-10.989-4.93-10.989-10.99 0-6.059 4.93-10.988 10.99-10.988 6.059 0 10.989 4.93 10.989 10.989 0 6.405-5.056 10.989-10.99 10.989Zm43.686 4.578a4.528 4.528 0 0 1-4.523 4.522H20.511a4.528 4.528 0 0 1-4.522-4.523v-2.817c.72-.164 1.417-.389 2.087-.667v2.789a3.135 3.135 0 0 0 3.131 3.13h30.337a3.135 3.135 0 0 0 3.13-3.13v-2.504c.674.232 1.371.41 2.088.53v2.67Zm2.161-4.578c-6.059 0-10.989-4.93-10.989-10.99 0-.94.12-1.876.355-2.778a1.044 1.044 0 1 0-2.02-.526 13.114 13.114 0 0 0-.422 3.305c0 4.913 2.724 9.2 6.74 11.435v3.436c0 .575-.468 1.043-1.043 1.043H21.207a1.045 1.045 0 0 1-1.044-1.043v-3.887c3.602-2.331 5.99-6.384 5.99-10.984s-2.388-8.653-5.99-10.985v-5.977c4.017-2.235 6.74-6.523 6.74-11.435 0-4.913-2.723-9.201-6.74-11.436V7.681c0-.575.469-1.044 1.044-1.044h3.834a.07.07 0 0 1 .05.02c.017.018.02.037.02.05a2.929 2.929 0 0 0 2.925 2.925h16.68a2.928 2.928 0 0 0 2.925-2.925.07.07 0 0 1 .07-.07h3.833c.576 0 1.044.469 1.044 1.044v1.934c-4.017 2.235-6.74 6.523-6.74 11.435 0 4.916 2.727 9.207 6.747 11.44a1.08 1.08 0 0 0-.007.12V38a13.103 13.103 0 0 0-4.026 3.47 1.044 1.044 0 0 0 1.653 1.274c2.1-2.724 5.23-4.285 8.709-4.285 6.06 0 10.989 4.93 10.989 10.989 0 6.06-4.93 10.989-10.99 10.989ZM40.2 35.655a1.044 1.044 0 0 0-1.434.35 2.506 2.506 0 0 1-.779.794.948.948 0 0 1-1 .015l-1.563-.949a.967.967 0 0 1-.447-.92 2.45 2.45 0 0 1 .343-1.032 1.044 1.044 0 0 0-1.784-1.083 4.555 4.555 0 0 0-.637 1.92l-.002.021a3.047 3.047 0 0 0 1.444 2.879l1.562.948c.48.292 1.026.437 1.572.437a3.03 3.03 0 0 0 1.647-.484 4.603 4.603 0 0 0 1.428-1.462c.3-.493.143-1.135-.35-1.434Zm24.215 12.674-7.318-4.227c-.946-.558-2.18.167-2.172 1.253v8.455c-.01 1.084 1.233 1.808 2.172 1.254l7.318-4.227c.947-.537.943-1.975 0-2.508Zm-7.402 4.373v-6.239l5.4 3.12-5.4 3.119ZM36.122 26.549c-4.85.127-8.884 4.018-9.183 8.858a9.428 9.428 0 0 0 .476 3.61l-1.111 3.161a1.588 1.588 0 0 0 .378 1.663c.439.439 1.076.584 1.662.378l2.204-.775a9.471 9.471 0 0 0 6.09 2.007c5.051-.137 9.175-4.362 9.192-9.419a9.38 9.38 0 0 0-2.847-6.793 9.38 9.38 0 0 0-6.861-2.69Zm.459 16.815a7.393 7.393 0 0 1-4.76-1.575 2.033 2.033 0 0 0-1.261-.441c-.224 0-.45.037-.667.114l-1.284.45.783-2.227c.15-.424.153-.89.01-1.31a7.352 7.352 0 0 1-.38-2.839c.233-3.77 3.376-6.801 7.154-6.9a7.307 7.307 0 0 1 5.348 2.095 7.31 7.31 0 0 1 2.218 5.294c-.013 3.94-3.226 7.232-7.161 7.34Z" fill="#fff"/></svg>