<svg width="68" height="68" fill="none" xmlns="http://www.w3.org/2000/svg"><g clip-path="url('#a')"><path fill="url('#b')" d="M41.968 34.531a1.329 1.329 0 1 0 .001 2.658 1.329 1.329 0 0 0 0-2.658Z"/><path fill="url('#c')" d="m.331 31.423.01.013.002.002 32.672 36.125c.243.269.612.437.985.437.371 0 .74-.166.985-.437l32.672-36.125.001-.002.01-.013a1.327 1.327 0 0 0 .051-1.69l-.01-.016-10.625-13.281a1.328 1.328 0 0 0-1.037-.498H11.953c-.403 0-.785.183-1.037.498L.29 29.717l-.01.015c-.39.5-.37 1.212.05 1.691Zm26.452-12.83h14.434l6.375 10.626H20.408l6.375-10.625ZM20.1 31.876h27.8L34 63.382 20.1 31.875Zm30.703 0H63.68L38.54 59.672l12.263-27.797Zm-33.606 0L29.46 59.672 4.32 31.875h12.877Zm46.711-2.656H50.69l-6.375-10.625h11.094l8.5 10.625ZM12.591 18.594h11.094L17.31 29.219H4.091l8.5-10.625Z"/><path fill="url('#d')" d="M36.656 34.531H26.8a1.328 1.328 0 0 0 0 2.657h9.857a1.328 1.328 0 1 0 0-2.657Z"/><path fill="url('#e')" d="M34 10.625c.733 0 1.328-.595 1.328-1.328V1.328a1.328 1.328 0 1 0-2.657 0v7.969c0 .733.595 1.328 1.328 1.328Z"/><path fill="url('#f')" d="m42.908 10.236 5.313-5.312a1.328 1.328 0 0 0-1.879-1.879L41.03 8.358a1.328 1.328 0 0 0 1.878 1.878Z"/><path fill="url('#g')" d="M25.092 10.236a1.328 1.328 0 0 0 1.878-1.878l-5.313-5.313a1.328 1.328 0 0 0-1.878 1.879l5.313 5.312Z"/></g><defs><linearGradient id="prefix__b" x1="41.968" x2="41.968" y1="34.531" y2="37.188" gradientUnits="userSpaceOnUse"><stop stop-color="#7ACCC8"/><stop offset="1" stop-color="#0E9BE6"/></linearGradient><linearGradient id="prefix__c" x1="34" x2="34" y1="15.938" y2="68" gradientUnits="userSpaceOnUse"><stop stop-color="#7ACCC8"/><stop offset="1" stop-color="#0E9BE6"/></linearGradient><linearGradient id="prefix__d" x1="31.727" x2="31.727" y1="34.531" y2="37.188" gradientUnits="userSpaceOnUse"><stop stop-color="#7ACCC8"/><stop offset="1" stop-color="#0E9BE6"/></linearGradient><linearGradient id="prefix__e" x1="33.999" x2="33.999" y1="0" y2="10.625" gradientUnits="userSpaceOnUse"><stop stop-color="#7ACCC8"/><stop offset="1" stop-color="#0E9BE6"/></linearGradient><linearGradient id="prefix__f" x1="44.625" x2="44.625" y1="2.656" y2="10.625" gradientUnits="userSpaceOnUse"><stop stop-color="#7ACCC8"/><stop offset="1" stop-color="#0E9BE6"/></linearGradient><linearGradient id="prefix__g" x1="23.375" x2="23.375" y1="2.656" y2="10.625" gradientUnits="userSpaceOnUse"><stop stop-color="#7ACCC8"/><stop offset="1" stop-color="#0E9BE6"/></linearGradient><clipPath id="prefix__a"><path fill="#fff" d="M0 0h68v68H0z"/></clipPath></defs></svg>