<svg width="70" height="70" fill="none" xmlns="http://www.w3.org/2000/svg"><circle cx="35" cy="35" r="35" fill="#F1FAFA"/><path fill="url('#a')" d="M35.763 19.557a7.284 7.284 0 0 0-3.608 6.27c0 1.332.535 2.674 1.204 3.87.535 1.07.797 2.936-1.07 3.87-1.331.797-3.074.266-3.87-1.07-.797-1.069-1.732-2.138-2.936-2.934-2.267-1.332-4.94-1.332-7.207 0a7.292 7.292 0 0 0-3.605 6.277 7.275 7.275 0 0 0 3.604 6.275c2.266 1.331 4.94 1.331 7.207 0 1.204-.67 2.138-1.731 2.8-2.935.535-.935 2.005-2.139 3.871-1.07 1.332.797 1.732 2.54 1.07 3.87-.669 1.204-1.07 2.54-1.07 3.87 0 2.539 1.332 4.94 3.608 6.27 2.267 1.332 4.94 1.332 7.207 0a7.285 7.285 0 0 0 3.609-6.27 7.28 7.28 0 0 0-3.608-6.275c-1.204-.67-2.54-.935-4.005-.935-1.204 0-2.801-.796-2.801-2.8 0-1.604 1.204-2.802 2.801-2.802 1.331 0 2.801-.265 4.005-.934a7.284 7.284 0 0 0 3.608-6.271 7.27 7.27 0 0 0-3.608-6.271c-1.07-.67-2.401-.935-3.604-.935-1.197-.005-2.539.267-3.602.93Z"/><defs><linearGradient id="prefix__a" x1="14.671" x2="46.577" y1="35.875" y2="35.875" gradientUnits="userSpaceOnUse"><stop stop-color="#11AAE2"/><stop offset=".59" stop-color="#0880B7"/><stop offset="1" stop-color="#016197"/></linearGradient></defs></svg>