<svg width="68" height="68" fill="none" xmlns="http://www.w3.org/2000/svg"><g clip-path="url('#clip0_422_23369')"><path d="M51.553 33.46a5.942 5.942 0 0 0-3.953-2.74V11.333a5.674 5.674 0 0 0-5.667-5.666h-9.381A2.26 2.26 0 0 0 30.6 4.533h-1.52a6.8 6.8 0 0 0-12.827 0h-1.52a2.259 2.259 0 0 0-1.951 1.134H5.667A5.673 5.673 0 0 0 0 11.333v47.6A5.673 5.673 0 0 0 5.667 64.6h19.9c.052.107.094.217.153.32A5.913 5.913 0 0 0 30.94 68h31.065a5.914 5.914 0 0 0 5.213-3.08 6.058 6.058 0 0 0-.13-6.203L51.553 33.459Zm-6.22-22.127V30.72a5.873 5.873 0 0 0-2.266.956v-19.21A2.267 2.267 0 0 0 40.8 10.2h-7.933V7.933h9.066a3.4 3.4 0 0 1 3.4 3.4ZM14.733 6.8h2.38a1.134 1.134 0 0 0 1.112-.907 4.534 4.534 0 0 1 8.883 0 1.134 1.134 0 0 0 1.112.907h2.38v4.533H14.733V6.8ZM30.6 13.6a2.26 2.26 0 0 0 1.952-1.133H40.8v21.938L26.407 57.8H6.8V12.467h5.982a2.259 2.259 0 0 0 1.951 1.133H30.6ZM5.667 62.333a3.4 3.4 0 0 1-3.4-3.4v-47.6a3.4 3.4 0 0 1 3.4-3.4h6.8V10.2H6.8a2.267 2.267 0 0 0-2.267 2.267V57.8A2.266 2.266 0 0 0 6.8 60.067h18.431c-.236.73-.33 1.5-.277 2.266H5.667Zm59.569 1.482a3.676 3.676 0 0 1-3.237 1.918H30.94a3.673 3.673 0 0 1-3.236-1.917 3.822 3.822 0 0 1 .08-3.914l15.528-25.254a3.689 3.689 0 0 1 6.312 0l15.527 25.257a3.817 3.817 0 0 1 .085 3.91Z" fill="url('#paint0_linear_422_23369')"/><path d="M46.467 37.4a3.4 3.4 0 0 0-3.4 3.4V51a3.4 3.4 0 0 0 6.8 0V40.8a3.4 3.4 0 0 0-3.4-3.4ZM47.6 51a1.134 1.134 0 0 1-2.266 0V40.8a1.133 1.133 0 1 1 2.266 0V51Z" fill="url('#paint1_linear_422_23369')"/><path d="M46.467 56.667a3.4 3.4 0 1 0 0 6.8 3.4 3.4 0 0 0 0-6.8Zm0 4.533a1.132 1.132 0 1 1 0-2.264 1.132 1.132 0 0 1 0 2.264Z" fill="url('#paint2_linear_422_23369')"/><path d="M22.666 21.533H37.4a1.133 1.133 0 0 0 0-2.266H22.667a1.134 1.134 0 0 0 0 2.266Z" fill="url('#paint3_linear_422_23369')"/><path d="M22.666 26.067h6.8a1.133 1.133 0 1 0 0-2.267h-6.8a1.134 1.134 0 0 0 0 2.267Z" fill="url('#paint4_linear_422_23369')"/><path d="M22.666 34H37.4a1.133 1.133 0 0 0 0-2.267H22.667a1.134 1.134 0 0 0 0 2.267Z" fill="url('#paint5_linear_422_23369')"/><path d="M22.666 38.533h6.8a1.133 1.133 0 1 0 0-2.266h-6.8a1.134 1.134 0 0 0 0 2.266Z" fill="url('#paint6_linear_422_23369')"/><path d="M22.666 46.467H30.6a1.133 1.133 0 0 0 0-2.267h-7.934a1.134 1.134 0 0 0 0 2.267Z" fill="url('#paint7_linear_422_23369')"/><path d="M22.666 51H27.2a1.133 1.133 0 0 0 0-2.267h-4.534a1.134 1.134 0 0 0 0 2.267Z" fill="url('#paint8_linear_422_23369')"/><path d="M10.532 24.133a1.134 1.134 0 0 0 0 1.602l2.267 2.267a1.133 1.133 0 0 0 1.815-.295l4.534-9.067a1.135 1.135 0 0 0-2.029-1.013l-3.83 7.66-1.154-1.154a1.134 1.134 0 0 0-1.603 0Z" fill="url('#paint9_linear_422_23369')"/><path d="M18.64 29.585a1.133 1.133 0 0 0-1.521.508l-3.83 7.66-1.155-1.154a1.133 1.133 0 0 0-1.602 1.602l2.267 2.267a1.133 1.133 0 0 0 1.815-.295l4.534-9.067a1.133 1.133 0 0 0-.508-1.52Z" fill="url('#paint10_linear_422_23369')"/><path d="M18.64 42.046a1.133 1.133 0 0 0-1.521.508l-3.83 7.66-1.155-1.154a1.133 1.133 0 0 0-1.602 1.602l2.267 2.267a1.133 1.133 0 0 0 .982.323 1.134 1.134 0 0 0 .833-.612l4.534-9.067a1.134 1.134 0 0 0-.508-1.527Z" fill="url('#paint11_linear_422_23369')"/></g><defs><linearGradient id="paint0_linear_422_23369" x1="34.004" y1="-.007" x2="34.004" y2="68" gradientUnits="userSpaceOnUse"><stop stop-color="#79CCC8"/><stop offset="1" stop-color="#0F9BE6"/></linearGradient><linearGradient id="paint1_linear_422_23369" x1="46.467" y1="37.4" x2="46.467" y2="54.4" gradientUnits="userSpaceOnUse"><stop stop-color="#79CCC8"/><stop offset="1" stop-color="#0F9BE6"/></linearGradient><linearGradient id="paint2_linear_422_23369" x1="46.467" y1="56.667" x2="46.467" y2="63.467" gradientUnits="userSpaceOnUse"><stop stop-color="#79CCC8"/><stop offset="1" stop-color="#0F9BE6"/></linearGradient><linearGradient id="paint3_linear_422_23369" x1="30.033" y1="19.267" x2="30.033" y2="21.533" gradientUnits="userSpaceOnUse"><stop stop-color="#79CCC8"/><stop offset="1" stop-color="#0F9BE6"/></linearGradient><linearGradient id="paint4_linear_422_23369" x1="26.067" y1="23.8" x2="26.067" y2="26.067" gradientUnits="userSpaceOnUse"><stop stop-color="#79CCC8"/><stop offset="1" stop-color="#0F9BE6"/></linearGradient><linearGradient id="paint5_linear_422_23369" x1="30.033" y1="31.733" x2="30.033" y2="34" gradientUnits="userSpaceOnUse"><stop stop-color="#79CCC8"/><stop offset="1" stop-color="#0F9BE6"/></linearGradient><linearGradient id="paint6_linear_422_23369" x1="26.067" y1="36.267" x2="26.067" y2="38.533" gradientUnits="userSpaceOnUse"><stop stop-color="#79CCC8"/><stop offset="1" stop-color="#0F9BE6"/></linearGradient><linearGradient id="paint7_linear_422_23369" x1="26.633" y1="44.2" x2="26.633" y2="46.467" gradientUnits="userSpaceOnUse"><stop stop-color="#79CCC8"/><stop offset="1" stop-color="#0F9BE6"/></linearGradient><linearGradient id="paint8_linear_422_23369" x1="24.933" y1="48.733" x2="24.933" y2="51" gradientUnits="userSpaceOnUse"><stop stop-color="#79CCC8"/><stop offset="1" stop-color="#0F9BE6"/></linearGradient><linearGradient id="paint9_linear_422_23369" x1="14.734" y1="17" x2="14.734" y2="28.334" gradientUnits="userSpaceOnUse"><stop stop-color="#79CCC8"/><stop offset="1" stop-color="#0F9BE6"/></linearGradient><linearGradient id="paint10_linear_422_23369" x1="14.741" y1="29.466" x2="14.741" y2="40.8" gradientUnits="userSpaceOnUse"><stop stop-color="#79CCC8"/><stop offset="1" stop-color="#0F9BE6"/></linearGradient><linearGradient id="paint11_linear_422_23369" x1="14.742" y1="41.927" x2="14.742" y2="53.266" gradientUnits="userSpaceOnUse"><stop stop-color="#79CCC8"/><stop offset="1" stop-color="#0F9BE6"/></linearGradient><clipPath id="clip0_422_23369"><path fill="#fff" d="M0 0h68v68H0z"/></clipPath></defs></svg>