<svg width="58" height="68" viewBox="0 0 58 68" fill="none" xmlns="http://www.w3.org/2000/svg">
<path d="M28.9989 1.32812L56.625 9.98325V33.2282C56.625 49.5571 45.0351 63.5882 29 66.6719C12.9649 63.5882 1.375 49.5571 1.375 33.2282V9.98325L29.0011 1.32812" stroke="url('#paint0_linear_422_23354')" stroke-width="2.65625" stroke-miterlimit="10" stroke-linecap="round" stroke-linejoin="round"></path>
<path d="M46.09 45.6747C48.0741 41.9357 49.1875 37.6889 49.1875 33.228V15.447L29 9.12229L8.8125 15.447V33.228C8.8125 45.4865 17.2198 56.1277 29 59.0586C32.4371 58.2034 35.587 56.692 38.3248 54.6754" stroke="url('#paint1_linear_422_23354')" stroke-width="2.65625" stroke-miterlimit="10" stroke-linecap="round" stroke-linejoin="round"></path>
<path d="M26.5875 42.667L17.6938 33.7733L22.2016 29.2654L26.5875 33.6514L35.7982 24.4407L40.306 28.9485L26.5875 42.667Z" stroke="url('#paint2_linear_422_23354')" stroke-width="2.65625" stroke-miterlimit="10" stroke-linecap="round" stroke-linejoin="round"></path>
<defs>
<linearGradient id="paint0_linear_422_23354" x1="29" y1="66.6719" x2="29" y2="1.32812" gradientUnits="userSpaceOnUse">
<stop stop-color="#0F9BE6"></stop>
<stop offset="1" stop-color="#7CCCC6"></stop>
</linearGradient>
<linearGradient id="paint1_linear_422_23354" x1="29" y1="59.0586" x2="29" y2="9.12229" gradientUnits="userSpaceOnUse">
<stop stop-color="#0F9BE6"></stop>
<stop offset="1" stop-color="#7CCCC6"></stop>
</linearGradient>
<linearGradient id="paint2_linear_422_23354" x1="28.9999" y1="42.667" x2="28.9999" y2="24.4407" gradientUnits="userSpaceOnUse">
<stop stop-color="#0F9BE6"></stop>
<stop offset="1" stop-color="#7CCCC6"></stop>
</linearGradient>
</defs>
</svg>
