<svg width="68" height="68" viewBox="0 0 68 68" fill="none" xmlns="http://www.w3.org/2000/svg">
<g clip-path="url('#clip0_422_15501')">
<path d="M67.8938 30.3376L58.4375 11.4368C57.9991 10.5522 57.3215 9.80812 56.4816 9.28904C55.6418 8.76996 54.6733 8.49663 53.686 8.50003H52.0625C51.8394 8.49998 51.622 8.57015 51.441 8.70059C51.26 8.83103 51.1247 9.01513 51.0542 9.22678L47.6892 19.3205C47.5472 19.7077 47.4843 20.1194 47.5044 20.5313C47.5244 20.9432 47.6269 21.3469 47.8058 21.7185C47.9847 22.0901 48.2364 22.4219 48.5459 22.6945C48.8554 22.967 49.2165 23.1746 49.6078 23.305C49.999 23.4353 50.4124 23.4859 50.8236 23.4535C51.2347 23.4212 51.6351 23.3067 52.0012 23.1167C52.3672 22.9268 52.6914 22.6653 52.9545 22.3477C53.2177 22.0302 53.4144 21.6631 53.533 21.2681L54.808 17.4303L60.5997 29.0116C42.913 27.182 25.0848 27.182 7.39819 29.0116L13.1899 17.4303L14.4649 21.2681C14.5835 21.6631 14.7802 22.0302 15.0433 22.3477C15.3065 22.6653 15.6306 22.9268 15.9967 23.1167C16.3627 23.3067 16.7632 23.4212 17.1743 23.4535C17.5854 23.4859 17.9989 23.4353 18.3901 23.305C18.7814 23.1746 19.1424 22.967 19.452 22.6945C19.7615 22.4219 20.0132 22.0901 20.1921 21.7185C20.371 21.3469 20.4735 20.9432 20.4935 20.5313C20.5135 20.1194 20.4507 19.7077 20.3086 19.3205L16.9437 9.22678C16.8733 9.01547 16.7383 8.83162 16.5577 8.70121C16.3772 8.5708 16.1602 8.50042 15.9375 8.50003H14.314C13.3267 8.49663 12.3582 8.76996 11.5184 9.28904C10.6785 9.80812 10.0009 10.5522 9.5625 11.4368L0.111563 30.3376C0.0380409 30.4851 -0.000153315 30.6477 4.62517e-07 30.8125V48.4915C0.0128555 50.8862 0.918638 53.19 2.54018 54.9522C4.16172 56.7145 6.38236 57.8084 8.76775 58.02L22.9946 59.2068C23.1423 59.2185 23.2879 59.2248 23.4345 59.2248C24.5886 59.223 25.7109 58.8461 26.6323 58.1511C27.5537 57.456 28.2242 56.4804 28.543 55.3712L30.9581 46.919C31.1472 46.2582 31.5464 45.677 32.0952 45.2632C32.6441 44.8495 33.3127 44.6257 34 44.6257C34.6873 44.6257 35.3559 44.8495 35.9048 45.2632C36.4536 45.677 36.8528 46.2582 37.0419 46.919L39.457 55.3712C39.7965 56.5529 40.5347 57.5807 41.5461 58.2799C42.5576 58.9791 43.7799 59.3066 45.0054 59.2068L59.2323 58.02C61.6176 57.8084 63.8383 56.7145 65.4598 54.9522C67.0814 53.19 67.9871 50.8862 68 48.4915V30.8125C68.0018 30.6481 67.9654 30.4856 67.8938 30.3376ZM51.5143 20.5977C51.4496 20.7561 51.345 20.895 51.2106 21.0009C51.0762 21.1068 50.9167 21.1761 50.7475 21.2019C50.5784 21.2277 50.4054 21.2092 50.2456 21.1481C50.0857 21.0871 49.9444 20.9857 49.8355 20.8537C49.7466 20.7315 49.6884 20.5898 49.6656 20.4404C49.6429 20.291 49.6563 20.1383 49.7048 19.9952L52.2548 12.3325L53.4608 14.7443L51.5143 20.5977ZM53.7848 10.6314C54.3597 10.6465 54.9195 10.8179 55.4044 11.1271C55.8892 11.4363 56.2806 11.8718 56.5367 12.3867L65.1036 29.5195C64.4385 29.4398 63.7744 29.3569 63.1104 29.2815L53.7848 10.6314ZM18.2973 19.9952C18.3458 20.1383 18.3592 20.291 18.3365 20.4404C18.3137 20.5898 18.2555 20.7315 18.1666 20.8537C18.0577 20.9857 17.9164 21.0871 17.7566 21.1481C17.5967 21.2092 17.4238 21.2277 17.2546 21.2019C17.0855 21.1761 16.9259 21.1068 16.7915 21.0009C16.6571 20.895 16.5525 20.7561 16.4879 20.5977L14.535 14.7443L15.7409 12.3325L18.2973 19.9952ZM11.4654 12.3867C11.7215 11.8718 12.1129 11.4363 12.5978 11.1271C13.0826 10.8179 13.6425 10.6465 14.2173 10.6314L4.8875 29.2825C4.22238 29.358 3.55831 29.4387 2.89425 29.5195L11.4654 12.3867ZM59.0559 55.9035L44.829 57.0892C44.0938 57.1485 43.3608 56.9517 42.7541 56.5323C42.1474 56.1128 41.7044 55.4965 41.5002 54.7878L39.0851 46.3357C38.7691 45.2309 38.1018 44.2591 37.1844 43.5673C36.2669 42.8755 35.1491 42.5013 34 42.5013C32.8509 42.5013 31.7331 42.8755 30.8156 43.5673C29.8982 44.2591 29.2309 45.2309 28.9149 46.3357L26.4998 54.7878C26.2949 55.4961 25.8517 56.1119 25.2452 56.5312C24.6387 56.9506 23.906 57.1476 23.171 57.0892L8.94413 55.9035C7.37978 55.763 5.89923 55.1341 4.71205 54.1058C3.52487 53.0774 2.69118 51.7017 2.329 50.1734L8.18869 44.3137C8.38223 44.1133 8.48933 43.8449 8.4869 43.5664C8.48448 43.2878 8.37274 43.0213 8.17575 42.8243C7.97875 42.6273 7.71226 42.5155 7.43368 42.5131C7.15509 42.5107 6.8867 42.6178 6.68631 42.8113L2.125 47.3727V36.0039C16.2031 34.236 30.4036 33.6397 44.5804 34.221C44.8613 34.2298 45.1346 34.1281 45.3415 33.9379C45.5484 33.7476 45.6726 33.4839 45.6875 33.2032C45.6993 32.9217 45.5988 32.647 45.4081 32.4396C45.2174 32.2322 44.9522 32.109 44.6707 32.0971C30.4643 31.5142 16.2341 32.1052 2.125 33.864V31.7518C23.2922 29.0993 44.7078 29.0993 65.875 31.7518V33.8619C60.2438 33.1628 54.5562 32.6368 48.9366 32.3085C48.6548 32.2922 48.3781 32.3885 48.1673 32.5762C47.9565 32.7639 47.8288 33.0276 47.8125 33.3094C47.7962 33.5912 47.8924 33.8679 48.0801 34.0788C48.2678 34.2896 48.5316 34.4172 48.8134 34.4335C52.7967 34.6662 56.8172 35.003 60.8196 35.4259L54.4946 41.751C54.3931 41.849 54.3121 41.9662 54.2565 42.0959C54.2008 42.2255 54.1715 42.3649 54.1702 42.506C54.169 42.6471 54.1959 42.787 54.2493 42.9175C54.3027 43.0481 54.3816 43.1668 54.4814 43.2665C54.5812 43.3663 54.6998 43.4452 54.8304 43.4986C54.9609 43.552 55.1008 43.5789 55.2419 43.5777C55.383 43.5765 55.5224 43.5471 55.6521 43.4915C55.7817 43.4358 55.8989 43.3548 55.9969 43.2533L63.4344 35.8158C63.4569 35.7858 63.4778 35.7546 63.4971 35.7223C64.2887 35.8137 65.0813 35.9062 65.8708 36.005V48.4915C65.8607 50.3534 65.1568 52.1446 63.8966 53.5153C62.6364 54.8859 60.9104 55.7375 59.0559 55.9035Z" fill="url('#paint0_linear_422_15501')"></path>
<path d="M14.564 36.4363C14.3648 36.2371 14.0946 36.1252 13.8129 36.1252C13.5311 36.1252 13.2609 36.2371 13.0617 36.4363L9.87417 39.6238C9.77269 39.7218 9.69175 39.8391 9.63607 39.9687C9.58038 40.0983 9.55107 40.2378 9.54984 40.3788C9.54862 40.5199 9.5755 40.6598 9.62893 40.7904C9.68235 40.921 9.76124 41.0396 9.861 41.1394C9.96077 41.2391 10.0794 41.318 10.21 41.3715C10.3406 41.4249 10.4805 41.4518 10.6215 41.4505C10.7626 41.4493 10.902 41.42 11.0317 41.3643C11.1613 41.3086 11.2785 41.2277 11.3765 41.1262L14.564 37.9387C14.7632 37.7395 14.8751 37.4693 14.8751 37.1875C14.8751 36.9058 14.7632 36.6356 14.564 36.4363Z" fill="url('#paint1_linear_422_15501')"></path>
<path d="M27.9367 38.5614L15.1867 51.3114C15.0852 51.4095 15.0043 51.5267 14.9486 51.6563C14.8929 51.786 14.8636 51.9254 14.8623 52.0665C14.8611 52.2075 14.888 52.3474 14.9414 52.478C14.9948 52.6086 15.0737 52.7272 15.1735 52.827C15.2733 52.9267 15.3919 53.0056 15.5225 53.0591C15.6531 53.1125 15.793 53.1394 15.934 53.1381C16.0751 53.1369 16.2145 53.1076 16.3442 53.0519C16.4738 52.9962 16.591 52.9153 16.689 52.8138L29.439 40.0638C29.6326 39.8634 29.7397 39.595 29.7373 39.3165C29.7348 39.0379 29.6231 38.7714 29.4261 38.5744C29.2291 38.3774 28.9626 38.2656 28.684 38.2632C28.4055 38.2608 28.1371 38.3679 27.9367 38.5614Z" fill="url('#paint2_linear_422_15501')"></path>
<path d="M51.3117 44.9364L47.0617 49.1864C46.9602 49.2845 46.8792 49.4017 46.8236 49.5313C46.7679 49.661 46.7386 49.8004 46.7373 49.9414C46.7361 50.0825 46.763 50.2224 46.8164 50.353C46.8698 50.4836 46.9487 50.6022 47.0485 50.702C47.1483 50.8017 47.2669 50.8806 47.3975 50.9341C47.528 50.9875 47.668 51.0144 47.809 51.0131C47.9501 51.0119 48.0895 50.9826 48.2192 50.9269C48.3488 50.8712 48.466 50.7903 48.564 50.6888L52.814 46.4388C53.0076 46.2384 53.1147 45.97 53.1123 45.6915C53.1098 45.4129 52.9981 45.1464 52.8011 44.9494C52.6041 44.7524 52.3376 44.6406 52.059 44.6382C51.7805 44.6358 51.5121 44.7429 51.3117 44.9364Z" fill="url('#paint3_linear_422_15501')"></path>
</g>
<defs>
<linearGradient id="paint0_linear_422_15501" x1="34" y1="8.5" x2="34" y2="59.2248" gradientUnits="userSpaceOnUse">
<stop stop-color="#78CCCB"></stop>
<stop offset="1" stop-color="#0D9AE7"></stop>
</linearGradient>
<linearGradient id="paint1_linear_422_15501" x1="12.2125" y1="36.1252" x2="12.2125" y2="41.4506" gradientUnits="userSpaceOnUse">
<stop stop-color="#78CCCB"></stop>
<stop offset="1" stop-color="#0D9AE7"></stop>
</linearGradient>
<linearGradient id="paint2_linear_422_15501" x1="22.2998" y1="38.2632" x2="22.2998" y2="53.1382" gradientUnits="userSpaceOnUse">
<stop stop-color="#78CCCB"></stop>
<stop offset="1" stop-color="#0D9AE7"></stop>
</linearGradient>
<linearGradient id="paint3_linear_422_15501" x1="49.9248" y1="44.6382" x2="49.9248" y2="51.0132" gradientUnits="userSpaceOnUse">
<stop stop-color="#78CCCB"></stop>
<stop offset="1" stop-color="#0D9AE7"></stop>
</linearGradient>
<clipPath id="clip0_422_15501">
<rect width="68" height="68" fill="white"></rect>
</clipPath>
</defs>
</svg>
