<svg width="68" height="68" fill="none" xmlns="http://www.w3.org/2000/svg"><g clip-path="url('#clip0_422_15501')"><path d="m67.894 30.338-9.457-18.901A5.282 5.282 0 0 0 53.687 8.5h-1.623a1.063 1.063 0 0 0-1.009.727L47.69 19.32a3.08 3.08 0 1 0 5.844 1.948l1.275-3.838L60.6 29.012a258.52 258.52 0 0 0-53.202 0L13.19 17.43l1.275 3.838a3.08 3.08 0 1 0 5.844-1.948L16.944 9.227a1.062 1.062 0 0 0-1.006-.727h-1.624a5.283 5.283 0 0 0-4.752 2.937l-9.45 18.9c-.074.148-.112.31-.112.476v17.679a9.618 9.618 0 0 0 8.768 9.528l14.227 1.187a5.324 5.324 0 0 0 5.548-3.836l2.415-8.452a3.164 3.164 0 0 1 6.084 0l2.415 8.452a5.323 5.323 0 0 0 5.548 3.836l14.227-1.187A9.617 9.617 0 0 0 68 48.491V30.814a1.064 1.064 0 0 0-.106-.475Zm-16.38-9.74a.99.99 0 0 1-1.678.256.945.945 0 0 1-.131-.859l2.55-7.663 1.206 2.412-1.947 5.854Zm2.27-9.967a3.167 3.167 0 0 1 2.753 1.756l8.567 17.133c-.665-.08-1.33-.163-1.994-.238l-9.325-18.65Zm-35.487 9.364a.945.945 0 0 1-.13.859.988.988 0 0 1-1.68-.256l-1.952-5.854 1.206-2.412 2.556 7.663Zm-6.832-7.608a3.166 3.166 0 0 1 2.752-1.756l-9.33 18.651c-.665.076-1.329.157-1.993.238l8.571-17.133Zm47.59 43.517L44.83 57.089a3.197 3.197 0 0 1-3.329-2.301l-2.415-8.452a5.29 5.29 0 0 0-10.17 0L26.5 54.788a3.2 3.2 0 0 1-3.329 2.301L8.944 55.904a7.487 7.487 0 0 1-6.615-5.73l5.86-5.86a1.062 1.062 0 0 0-1.503-1.503l-4.561 4.562v-11.37a256.421 256.421 0 0 1 42.455-1.782 1.075 1.075 0 0 0 1.108-1.018 1.062 1.062 0 0 0-1.017-1.106 258.328 258.328 0 0 0-42.546 1.767v-2.112a256.355 256.355 0 0 1 63.75 0v2.11a262 262 0 0 0-16.938-1.553 1.064 1.064 0 0 0-.124 2.125c3.984.232 8.004.569 12.007.992l-6.325 6.325a1.06 1.06 0 0 0-.014 1.516 1.062 1.062 0 0 0 1.516-.014l7.437-7.437c.023-.03.044-.061.063-.094.792.092 1.584.184 2.374.283v12.486a7.483 7.483 0 0 1-6.815 7.413Z" fill="url('#paint0_linear_422_15501')"/><path d="M14.564 36.436a1.062 1.062 0 0 0-1.502 0l-3.188 3.188a1.063 1.063 0 1 0 1.502 1.502l3.188-3.187a1.062 1.062 0 0 0 0-1.503Z" fill="url('#paint1_linear_422_15501')"/><path d="m27.937 38.561-12.75 12.75a1.064 1.064 0 1 0 1.502 1.503l12.75-12.75a1.062 1.062 0 0 0-1.502-1.503Z" fill="url('#paint2_linear_422_15501')"/><path d="m51.312 44.936-4.25 4.25a1.062 1.062 0 1 0 1.502 1.503l4.25-4.25a1.062 1.062 0 0 0-1.502-1.503Z" fill="url('#paint3_linear_422_15501')"/></g><defs><linearGradient id="paint0_linear_422_15501" x1="34" y1="8.5" x2="34" y2="59.225" gradientUnits="userSpaceOnUse"><stop stop-color="#78CCCB"/><stop offset="1" stop-color="#0D9AE7"/></linearGradient><linearGradient id="paint1_linear_422_15501" x1="12.213" y1="36.125" x2="12.213" y2="41.451" gradientUnits="userSpaceOnUse"><stop stop-color="#78CCCB"/><stop offset="1" stop-color="#0D9AE7"/></linearGradient><linearGradient id="paint2_linear_422_15501" x1="22.3" y1="38.263" x2="22.3" y2="53.138" gradientUnits="userSpaceOnUse"><stop stop-color="#78CCCB"/><stop offset="1" stop-color="#0D9AE7"/></linearGradient><linearGradient id="paint3_linear_422_15501" x1="49.925" y1="44.638" x2="49.925" y2="51.013" gradientUnits="userSpaceOnUse"><stop stop-color="#78CCCB"/><stop offset="1" stop-color="#0D9AE7"/></linearGradient><clipPath id="clip0_422_15501"><path fill="#fff" d="M0 0h68v68H0z"/></clipPath></defs></svg>