<svg width="58" height="68" fill="none" xmlns="http://www.w3.org/2000/svg"><path stroke="url('#a')" stroke-linecap="round" stroke-linejoin="round" stroke-miterlimit="10" stroke-width="2.656" d="m28.999 1.328 27.626 8.655v23.245c0 16.33-11.59 30.36-27.625 33.444C12.965 63.588 1.375 49.557 1.375 33.228V9.983l27.626-8.655"/><path stroke="url('#b')" stroke-linecap="round" stroke-linejoin="round" stroke-miterlimit="10" stroke-width="2.656" d="M46.09 45.675a26.507 26.507 0 0 0 3.097-12.447V15.447L29 9.122 8.812 15.447v17.781c0 12.258 8.408 22.9 20.188 25.83a26.492 26.492 0 0 0 9.325-4.383"/><path stroke="url('#c')" stroke-linecap="round" stroke-linejoin="round" stroke-miterlimit="10" stroke-width="2.656" d="m26.587 42.667-8.893-8.894 4.508-4.508 4.385 4.386 9.211-9.21 4.508 4.508-13.718 13.718Z"/><defs><linearGradient id="prefix__a" x1="29" x2="29" y1="66.672" y2="1.328" gradientUnits="userSpaceOnUse"><stop stop-color="#0F9BE6"/><stop offset="1" stop-color="#7CCCC6"/></linearGradient><linearGradient id="prefix__b" x1="29" x2="29" y1="59.059" y2="9.122" gradientUnits="userSpaceOnUse"><stop stop-color="#0F9BE6"/><stop offset="1" stop-color="#7CCCC6"/></linearGradient><linearGradient id="prefix__c" x1="29" x2="29" y1="42.667" y2="24.441" gradientUnits="userSpaceOnUse"><stop stop-color="#0F9BE6"/><stop offset="1" stop-color="#7CCCC6"/></linearGradient></defs></svg>