<svg width="88" height="88" fill="none" xmlns="http://www.w3.org/2000/svg"><path stroke="url('#a')" d="M87.5 44c0 24.024-19.476 43.5-43.5 43.5S.5 68.024.5 44 19.976.5 44 .5 87.5 19.976 87.5 44Z"/><path fill="url('#b')" d="M68.345 29.93c-.069-1.527-.069-2.983-.069-4.44 0-1.179-.902-2.08-2.08-2.08-8.67 0-15.26-2.497-20.738-7.838a2.14 2.14 0 0 0-2.913 0c-5.48 5.34-12.069 7.838-20.738 7.838-1.18 0-2.081.901-2.081 2.08 0 1.457 0 2.913-.07 4.44-.277 14.564-.693 34.54 23.651 42.931l.694.139.694-.139C68.97 64.47 68.623 44.563 68.345 29.93ZM42.337 50.111c-.417.347-.902.555-1.457.555h-.07c-.554 0-1.11-.278-1.456-.694l-6.45-7.143 3.121-2.775 5.063 5.618 11.236-10.68 2.844 3.05-12.831 12.07Z"/><defs><linearGradient id="prefix__a" x1="44" x2="44" y1="0" y2="88" gradientUnits="userSpaceOnUse"><stop stop-color="#25A6E0"/><stop offset="1" stop-color="#43B2E3" stop-opacity="0"/></linearGradient><linearGradient id="prefix__b" x1="44" x2="44" y1="15" y2="73" gradientUnits="userSpaceOnUse"><stop stop-color="#80D0C8"/><stop offset="1" stop-color="#0596E8"/></linearGradient></defs></svg>