<svg width="68" height="68" fill="none" xmlns="http://www.w3.org/2000/svg"><g clip-path="url('#clip0_422_13899')"><path d="M63.31 68H4.69A4.695 4.695 0 0 1 0 63.31v-8.57c0-.962.78-1.743 1.744-1.743h21.92c.712 0 1.352.432 1.618 1.092l1.326 3.29H41.36l1.326-3.29a1.743 1.743 0 0 1 1.617-1.092h21.952c.963 0 1.744.78 1.744 1.744v8.57A4.695 4.695 0 0 1 63.31 68ZM3.488 56.484v6.827c0 .663.54 1.202 1.202 1.202h58.622c.663 0 1.202-.54 1.202-1.202v-6.827H45.48l-1.326 3.29a1.743 1.743 0 0 1-1.617 1.093H25.43a1.744 1.744 0 0 1-1.617-1.092l-1.327-3.29h-19Z" fill="url('#paint0_linear_422_13899')"/><path d="M58.693 20.444h-4.974v-3.86c0-.806-.553-1.508-1.336-1.696l-3.204-.771a15.676 15.676 0 0 0-.61-1.457l1.706-2.768a1.743 1.743 0 0 0-.26-2.158L45.88 3.663a1.744 1.744 0 0 0-2.118-.254L40.933 5.1c-.494-.233-1-.44-1.515-.622l-.783-3.154A1.743 1.743 0 0 0 36.943 0h-5.847c-.801 0-1.5.546-1.692 1.323l-.78 3.14c-.515.18-1.021.386-1.516.618l-2.842-1.699a1.743 1.743 0 0 0-2.118.254l-4.135 4.072a1.744 1.744 0 0 0-.26 2.157l1.698 2.755c-.23.475-.434.961-.614 1.455l-3.22.775a1.743 1.743 0 0 0-1.335 1.696v3.898H9.308a4.655 4.655 0 0 0-4.65 4.65v17.87a1.744 1.744 0 0 0 3.487 0v-17.87c0-.642.522-1.163 1.163-1.163h49.385c.641 0 1.163.521 1.163 1.162v17.87a1.744 1.744 0 0 0 3.487 0v-17.87a4.655 4.655 0 0 0-4.65-4.65Zm-29.117-1.001A4.434 4.434 0 0 1 34 15.009a4.434 4.434 0 0 1 4.312 5.435h-8.623a4.443 4.443 0 0 1-.113-1.001Zm20.655 1h-8.383a8 8 0 0 0 .064-1c0-4.368-3.549-7.92-7.912-7.92-4.362 0-7.912 3.553-7.912 7.92 0 .338.023.671.064 1H17.77V17.92l2.83-.68a1.743 1.743 0 0 0 1.265-1.21c.264-.907.637-1.788 1.108-2.618a1.744 1.744 0 0 0-.032-1.776l-1.49-2.418 2.184-2.15 2.509 1.5c.53.317 1.189.33 1.731.033.848-.463 1.748-.83 2.675-1.088a1.744 1.744 0 0 0 1.224-1.26l.687-2.765h3.12l.689 2.777a1.744 1.744 0 0 0 1.219 1.258c.926.262 1.825.63 2.672 1.096a1.744 1.744 0 0 0 1.735-.03l2.499-1.494 2.184 2.15-1.497 2.427a1.744 1.744 0 0 0-.034 1.772c.469.832.839 1.714 1.1 2.622a1.744 1.744 0 0 0 1.268 1.214l2.816.678v2.487Z" fill="url('#paint1_linear_422_13899')"/><path d="m17.264 40.674 10.598 5.459v-3.344l-6.338-3.177 6.338-3.177V33.09L17.264 38.55v2.124Z" fill="url('#paint2_linear_422_13899')"/><path d="M29.713 46.314h3.202l6.004-15.546h-3.223l-5.983 15.546Z" fill="url('#paint3_linear_422_13899')"/><path d="M40.139 33.094v3.343l6.382 3.175-6.382 3.175v3.343l10.598-5.436V38.53L40.14 33.094Z" fill="url('#paint4_linear_422_13899')"/><path d="M61.621 50.523a1.889 1.889 0 1 0 0-3.777 1.889 1.889 0 0 0 0 3.777Z" fill="url('#paint5_linear_422_13899')"/><path d="M6.406 50.523a1.889 1.889 0 1 0 0-3.777 1.889 1.889 0 0 0 0 3.777Z" fill="url('#paint6_linear_422_13899')"/></g><defs><linearGradient id="paint0_linear_422_13899" x1="34" y1="52.997" x2="34" y2="68" gradientUnits="userSpaceOnUse"><stop stop-color="#72CACC"/><stop offset="1" stop-color="#109BE6"/></linearGradient><linearGradient id="paint1_linear_422_13899" x1="34" y1="0" x2="34" y2="44.708" gradientUnits="userSpaceOnUse"><stop stop-color="#72CACC"/><stop offset="1" stop-color="#109BE6"/></linearGradient><linearGradient id="paint2_linear_422_13899" x1="22.563" y1="33.091" x2="22.563" y2="46.133" gradientUnits="userSpaceOnUse"><stop stop-color="#72CACC"/><stop offset="1" stop-color="#109BE6"/></linearGradient><linearGradient id="paint3_linear_422_13899" x1="34.316" y1="30.768" x2="34.316" y2="46.314" gradientUnits="userSpaceOnUse"><stop stop-color="#72CACC"/><stop offset="1" stop-color="#109BE6"/></linearGradient><linearGradient id="paint4_linear_422_13899" x1="45.438" y1="33.094" x2="45.438" y2="46.13" gradientUnits="userSpaceOnUse"><stop stop-color="#72CACC"/><stop offset="1" stop-color="#109BE6"/></linearGradient><linearGradient id="paint5_linear_422_13899" x1="61.621" y1="46.746" x2="61.621" y2="50.523" gradientUnits="userSpaceOnUse"><stop stop-color="#72CACC"/><stop offset="1" stop-color="#109BE6"/></linearGradient><linearGradient id="paint6_linear_422_13899" x1="6.406" y1="46.746" x2="6.406" y2="50.523" gradientUnits="userSpaceOnUse"><stop stop-color="#72CACC"/><stop offset="1" stop-color="#109BE6"/></linearGradient><clipPath id="clip0_422_13899"><path fill="#fff" d="M0 0h68v68H0z"/></clipPath></defs></svg>