<svg width="88" height="88" viewBox="0 0 88 88" fill="none" xmlns="http://www.w3.org/2000/svg">
<path d="M87.5 44C87.5 68.0244 68.0244 87.5 44 87.5C19.9756 87.5 0.5 68.0244 0.5 44C0.5 19.9756 19.9756 0.5 44 0.5C68.0244 0.5 87.5 19.9756 87.5 44Z" stroke="url('#paint0_linear_504_11029')"></path>
<g clip-path="url('#clip0_504_11029')">
<path d="M72.3889 54.7382L66.8935 49.2423L55.5251 60.6107C53.4957 62.64 50.9487 63.9631 48.1821 64.4583L55.4255 71.7017C56.0888 72.3654 57.165 72.3654 57.8283 71.7017L72.3889 57.1415C73.0527 56.4777 73.0527 55.4015 72.3889 54.7382Z" fill="url('#paint1_linear_504_11029')"></path>
<path d="M64.6548 46.675C66.5704 44.7598 66.5709 41.6433 64.6575 39.7268C64.6553 39.7246 64.6531 39.7224 64.6509 39.7201C64.1774 39.2471 63.6242 38.8825 63.022 38.6387C63.5442 37.3178 63.6543 35.084 61.9246 33.3538C61.9202 33.3494 61.9157 33.3445 61.9109 33.3401C61.4396 32.8719 60.89 32.5108 60.2917 32.2684C60.8139 30.9484 60.9245 28.7142 59.1957 26.9848C59.1943 26.9835 59.1934 26.9826 59.1926 26.9817C58.7186 26.5078 58.1651 26.1423 57.5619 25.8985C58.0841 24.5776 58.1943 22.3434 56.4645 20.6132C56.4641 20.6132 56.4641 20.6128 56.4636 20.6128C56.4632 20.6123 56.4627 20.6119 56.4623 20.6114C54.5458 18.6949 51.4279 18.6949 49.5114 20.6114L46.2895 23.8329L47.937 25.4803C50.6823 28.2256 50.6823 32.6923 47.9374 35.4376C47.0135 36.3611 45.8785 36.9956 44.6412 37.2979C44.3452 38.5041 43.7274 39.6476 42.7862 40.5883C41.8636 41.511 40.7304 42.1451 39.4944 42.4477C39.1922 43.6832 38.5577 44.8169 37.6355 45.7391C36.7128 46.6617 35.5796 47.2958 34.3437 47.5985C34.0414 48.834 33.4069 49.9677 32.4847 50.8903C31.155 52.2196 29.3867 52.9524 27.5061 52.9524C25.6254 52.9524 23.8572 52.22 22.5275 50.8899L20.88 49.2424L15.3845 54.7383C14.7208 55.4021 14.7208 56.4778 15.3845 57.1416L29.9447 71.7018C30.6085 72.3655 31.6842 72.3651 32.348 71.7018L42.7707 61.2794H45.7072C48.5083 61.2794 51.1416 60.1882 53.1223 58.208L64.6548 46.675Z" fill="url('#paint2_linear_504_11029')"></path>
<path d="M24.9307 48.487C26.3529 49.9096 28.6593 49.9096 30.0815 48.487C31.5041 47.0648 31.5041 44.7589 30.0815 43.3362C31.5041 44.7589 33.81 44.7589 35.2327 43.3362C36.6549 41.914 36.6549 39.6077 35.2327 38.1855C36.6549 39.6077 38.9612 39.6077 40.3834 38.1855C41.8056 36.7633 41.8056 34.4569 40.3834 33.0347C41.8056 34.4569 44.112 34.4569 45.5342 33.0347C46.9568 31.612 46.9568 29.3062 45.5342 27.8835L38.2718 20.6211C36.8496 19.1989 34.5432 19.1989 33.121 20.6211C31.6988 22.0433 31.6988 24.3497 33.121 25.7719L34.0308 26.6821C32.6086 25.2594 30.3023 25.2594 28.8801 26.6821C27.4579 28.1043 27.4579 30.4106 28.8801 31.8329L30.7001 33.6529C29.2779 32.2307 26.9715 32.2307 25.5493 33.6529C24.1267 35.0751 24.1267 37.3814 25.5493 38.8036L27.3694 40.6241C25.9467 39.2015 23.6408 39.2015 22.2181 40.6241C20.7959 42.0463 20.7959 44.3522 22.2181 45.7749L24.9307 48.487Z" fill="url('#paint3_linear_504_11029')"></path>
<path d="M47.1082 18.2081C47.3595 17.9567 47.6255 17.7258 47.902 17.5111L46.9082 16.5173C46.3913 16 45.6006 15.8721 44.947 16.1987L40.7529 18.2957L43.8868 21.43L47.1082 18.2081Z" fill="url('#paint4_linear_504_11029')"></path>
</g>
<defs>
<linearGradient id="paint0_linear_504_11029" x1="44" y1="0" x2="44" y2="88" gradientUnits="userSpaceOnUse">
<stop stop-color="#25A6E0"></stop>
<stop offset="1" stop-color="#43B2E3" stop-opacity="0"></stop>
</linearGradient>
<linearGradient id="paint1_linear_504_11029" x1="60.5344" y1="49.2423" x2="60.5344" y2="72.1995" gradientUnits="userSpaceOnUse">
<stop stop-color="#80D0C8"></stop>
<stop offset="1" stop-color="#0596E8"></stop>
</linearGradient>
<linearGradient id="paint2_linear_504_11029" x1="40.4894" y1="19.1741" x2="40.4894" y2="72.1994" gradientUnits="userSpaceOnUse">
<stop stop-color="#80D0C8"></stop>
<stop offset="1" stop-color="#0596E8"></stop>
</linearGradient>
<linearGradient id="paint3_linear_504_11029" x1="33.8763" y1="19.5544" x2="33.8763" y2="49.554" gradientUnits="userSpaceOnUse">
<stop stop-color="#80D0C8"></stop>
<stop offset="1" stop-color="#0596E8"></stop>
</linearGradient>
<linearGradient id="paint4_linear_504_11029" x1="44.3275" y1="16.0195" x2="44.3275" y2="21.43" gradientUnits="userSpaceOnUse">
<stop stop-color="#80D0C8"></stop>
<stop offset="1" stop-color="#0596E8"></stop>
</linearGradient>
<clipPath id="clip0_504_11029">
<rect width="58" height="58" fill="white" transform="translate(15 15)"></rect>
</clipPath>
</defs>
</svg>
