<svg width="88" height="88" fill="none" xmlns="http://www.w3.org/2000/svg"><path d="M87.5 44c0 24.024-19.476 43.5-43.5 43.5S.5 68.024.5 44 19.976.5 44 .5 87.5 19.976 87.5 44Z" stroke="url('#paint0_linear_504_11029')"/><g clip-path="url('#clip0_504_11029')"><path d="m72.389 54.738-5.495-5.496-11.369 11.369a13.786 13.786 0 0 1-7.343 3.847l7.243 7.244c.664.663 1.74.663 2.403 0l14.56-14.56a1.7 1.7 0 0 0 0-2.404Z" fill="url('#paint1_linear_504_11029')"/><path d="M64.655 46.675a4.92 4.92 0 0 0-1.633-8.036c.522-1.321.632-3.555-1.097-5.285l-.014-.014a4.912 4.912 0 0 0-1.62-1.072c.523-1.32.634-3.554-1.095-5.283a4.904 4.904 0 0 0-1.634-1.086c.522-1.321.632-3.556-1.097-5.286h-.001l-.002-.002a4.92 4.92 0 0 0-6.95 0l-3.223 3.222 1.648 1.647a7.05 7.05 0 0 1 0 9.958 7 7 0 0 1-3.296 1.86 6.996 6.996 0 0 1-1.855 3.29 6.995 6.995 0 0 1-3.292 1.86 6.994 6.994 0 0 1-1.858 3.291 6.997 6.997 0 0 1-3.292 1.86 6.998 6.998 0 0 1-1.86 3.291 6.997 6.997 0 0 1-4.978 2.062 6.994 6.994 0 0 1-4.979-2.062l-1.647-1.648-5.495 5.496a1.7 1.7 0 0 0 0 2.404l14.56 14.56a1.7 1.7 0 0 0 2.403 0l10.423-10.423h2.936a10.42 10.42 0 0 0 7.415-3.071l11.533-11.533Z" fill="url('#paint2_linear_504_11029')"/><path d="M24.93 48.487a3.642 3.642 0 1 0 5.151-5.15 3.642 3.642 0 1 0 5.152-5.152 3.642 3.642 0 0 0 5.15-5.15 3.642 3.642 0 0 0 5.151-5.151l-7.262-7.263a3.642 3.642 0 0 0-5.151 5.15l.91.911a3.641 3.641 0 1 0-5.15 5.15l1.82 1.82a3.642 3.642 0 0 0-5.152 5.152l1.82 1.82a3.642 3.642 0 1 0-5.15 5.15l2.712 2.713Z" fill="url('#paint3_linear_504_11029')"/><path d="M47.108 18.208c.252-.251.518-.482.794-.697l-.994-.994a1.7 1.7 0 0 0-1.961-.318l-4.194 2.097 3.134 3.134 3.221-3.222Z" fill="url('#paint4_linear_504_11029')"/></g><defs><linearGradient id="paint0_linear_504_11029" x1="44" y1="0" x2="44" y2="88" gradientUnits="userSpaceOnUse"><stop stop-color="#25A6E0"/><stop offset="1" stop-color="#43B2E3" stop-opacity="0"/></linearGradient><linearGradient id="paint1_linear_504_11029" x1="60.534" y1="49.242" x2="60.534" y2="72.2" gradientUnits="userSpaceOnUse"><stop stop-color="#80D0C8"/><stop offset="1" stop-color="#0596E8"/></linearGradient><linearGradient id="paint2_linear_504_11029" x1="40.489" y1="19.174" x2="40.489" y2="72.199" gradientUnits="userSpaceOnUse"><stop stop-color="#80D0C8"/><stop offset="1" stop-color="#0596E8"/></linearGradient><linearGradient id="paint3_linear_504_11029" x1="33.876" y1="19.554" x2="33.876" y2="49.554" gradientUnits="userSpaceOnUse"><stop stop-color="#80D0C8"/><stop offset="1" stop-color="#0596E8"/></linearGradient><linearGradient id="paint4_linear_504_11029" x1="44.328" y1="16.02" x2="44.328" y2="21.43" gradientUnits="userSpaceOnUse"><stop stop-color="#80D0C8"/><stop offset="1" stop-color="#0596E8"/></linearGradient><clipPath id="clip0_504_11029"><path fill="#fff" transform="translate(15 15)" d="M0 0h58v58H0z"/></clipPath></defs></svg>