<svg width="64" height="64" fill="none" xmlns="http://www.w3.org/2000/svg"><path d="M49 34.125h-2.125v2.125H49A12.75 12.75 0 1 1 36.25 49v-7.438h-2.125V49A14.875 14.875 0 1 0 49 34.125Z" fill="url('#paint0_linear_422_23483')"/><path d="M27.75 49A12.75 12.75 0 1 1 15 36.25h2.125v-2.125H15A14.875 14.875 0 1 0 29.875 49v-7.438H27.75V49Z" fill="url('#paint1_linear_422_23483')"/><path d="M15 29.875h2.125V27.75H15A12.75 12.75 0 1 1 27.75 15v7.438h2.125V15A14.875 14.875 0 1 0 15 29.875Z" fill="url('#paint2_linear_422_23483')"/><path d="M36.25 15A12.75 12.75 0 1 1 49 27.75h-2.125v2.125H49A14.875 14.875 0 1 0 34.125 15v7.438h2.125V15Z" fill="url('#paint3_linear_422_23483')"/><path d="M44.75 36.25v-8.5a3.19 3.19 0 0 0-3.188-3.188H22.439a3.19 3.19 0 0 0-3.188 3.188v8.5a3.19 3.19 0 0 0 3.188 3.188h19.125a3.19 3.19 0 0 0 3.187-3.188Zm-23.375 0v-8.5a1.063 1.063 0 0 1 1.063-1.063h19.125a1.063 1.063 0 0 1 1.062 1.063v8.5a1.063 1.063 0 0 1-1.063 1.063H22.439a1.063 1.063 0 0 1-1.063-1.063Z" fill="url('#paint4_linear_422_23483')"/><path d="M32 28.813a3.187 3.187 0 1 0 0 6.374 3.187 3.187 0 0 0 0-6.374Zm0 4.25a1.062 1.062 0 1 1 0-2.125 1.062 1.062 0 0 1 0 2.125Z" fill="url('#paint5_linear_422_23483')"/><path d="M23.5 35.188h3.188v-2.126h-1.063v-2.124h1.063v-2.125H23.5v6.375Z" fill="url('#paint6_linear_422_23483')"/><path d="M37.313 30.938h1.062v2.125h-1.063v2.125H40.5v-6.376h-3.188v2.126Z" fill="url('#paint7_linear_422_23483')"/><path d="M11.813 10.75h6.374v2.125h-6.375V10.75Z" fill="url('#paint8_linear_422_23483')"/><path d="M11.813 15h6.374v2.125h-6.375V15Z" fill="url('#paint9_linear_422_23483')"/><path d="M22.438 6.5H7.563v14.875h14.875V6.5Zm-2.125 12.75H9.688V8.625h10.624V19.25Z" fill="url('#paint10_linear_422_23483')"/><path d="M7.563 53.25H5.438v2.125h19.125V53.25h-2.125v-9.563h-2.125v9.563h-2.125v-6.375h-2.125v6.375h-2.125V49h-2.126v4.25H9.688v-3.188H7.562v3.188Z" fill="url('#paint11_linear_422_23483')"/><path d="M7.563 45.812v2.125h.634a15.142 15.142 0 0 0 11.883-5.711l-1.66-1.328a13.027 13.027 0 0 1-10.223 4.914h-.634Z" fill="url('#paint12_linear_422_23483')"/><path d="M49 59.625h1.063v-1.123a9.562 9.562 0 1 0-10.565-10.565h-1.123V49A10.637 10.637 0 0 0 49 59.625Zm1.063-3.265v-5.53l4.797 2.742a7.438 7.438 0 0 1-4.797 2.788ZM56.437 49c0 .934-.176 1.86-.52 2.729l-5.182-2.961 4.22-4.22A7.399 7.399 0 0 1 56.437 49ZM49 41.562a7.399 7.399 0 0 1 4.452 1.484l-4.892 4.892h-6.92A7.448 7.448 0 0 1 49 41.562Zm-1.063 8.5v7.372a8.519 8.519 0 0 1-7.371-7.371h7.371Z" fill="url('#paint13_linear_422_23483')"/><path d="M53.25 21.01v1.428h2.125v-2.691a6.358 6.358 0 0 0 2.01-5.953 3.193 3.193 0 0 0 2.24-3.044V9.688H57.5v1.062a1.064 1.064 0 0 1-.868 1.044 6.407 6.407 0 0 0-3.397-2.809 4.25 4.25 0 1 0-8.482-.22 5.291 5.291 0 0 0-1.14.409l-1.3-1.3-1.502 1.502 1.112 1.112c-.137.16-.264.328-.381.503l-.55.825a1.065 1.065 0 0 1-.41.361l-2.207 1.104v3.222l3.005 3.005c.06.06.121.117.182.174v2.756h2.126v-1.452c.704.258 1.45.39 2.2.39h5.237c.724 0 1.443-.124 2.125-.367ZM46.875 8.624a2.125 2.125 0 0 1 4.25 0h-4.25Zm-3.992 9.38L40.5 15.623v-1.029l1.033-.516c.397-.2.749-.48 1.031-.823L44 14.689l1.502-1.503-1.642-1.643a3.18 3.18 0 0 1 2.103-.793h5.163a4.25 4.25 0 1 1 0 8.5h-5.237a4.224 4.224 0 0 1-3.005-1.245Z" fill="url('#paint14_linear_422_23483')"/><defs><linearGradient id="paint0_linear_422_23483" x1="49" y1="34.125" x2="49" y2="63.875" gradientUnits="userSpaceOnUse"><stop stop-color="#79CBC8"/><stop offset="1" stop-color="#139DE5"/></linearGradient><linearGradient id="paint1_linear_422_23483" x1="15" y1="34.125" x2="15" y2="63.875" gradientUnits="userSpaceOnUse"><stop stop-color="#79CBC8"/><stop offset="1" stop-color="#139DE5"/></linearGradient><linearGradient id="paint2_linear_422_23483" x1="15" y1=".125" x2="15" y2="29.875" gradientUnits="userSpaceOnUse"><stop stop-color="#79CBC8"/><stop offset="1" stop-color="#139DE5"/></linearGradient><linearGradient id="paint3_linear_422_23483" x1="49" y1=".125" x2="49" y2="29.875" gradientUnits="userSpaceOnUse"><stop stop-color="#79CBC8"/><stop offset="1" stop-color="#139DE5"/></linearGradient><linearGradient id="paint4_linear_422_23483" x1="32" y1="24.563" x2="32" y2="39.438" gradientUnits="userSpaceOnUse"><stop stop-color="#79CBC8"/><stop offset="1" stop-color="#139DE5"/></linearGradient><linearGradient id="paint5_linear_422_23483" x1="32" y1="28.813" x2="32" y2="35.188" gradientUnits="userSpaceOnUse"><stop stop-color="#79CBC8"/><stop offset="1" stop-color="#139DE5"/></linearGradient><linearGradient id="paint6_linear_422_23483" x1="25.094" y1="28.813" x2="25.094" y2="35.188" gradientUnits="userSpaceOnUse"><stop stop-color="#79CBC8"/><stop offset="1" stop-color="#139DE5"/></linearGradient><linearGradient id="paint7_linear_422_23483" x1="38.906" y1="28.813" x2="38.906" y2="35.188" gradientUnits="userSpaceOnUse"><stop stop-color="#79CBC8"/><stop offset="1" stop-color="#139DE5"/></linearGradient><linearGradient id="paint8_linear_422_23483" x1="15" y1="10.75" x2="15" y2="12.875" gradientUnits="userSpaceOnUse"><stop stop-color="#79CBC8"/><stop offset="1" stop-color="#139DE5"/></linearGradient><linearGradient id="paint9_linear_422_23483" x1="15" y1="15" x2="15" y2="17.125" gradientUnits="userSpaceOnUse"><stop stop-color="#79CBC8"/><stop offset="1" stop-color="#139DE5"/></linearGradient><linearGradient id="paint10_linear_422_23483" x1="15" y1="6.5" x2="15" y2="21.375" gradientUnits="userSpaceOnUse"><stop stop-color="#79CBC8"/><stop offset="1" stop-color="#139DE5"/></linearGradient><linearGradient id="paint11_linear_422_23483" x1="15" y1="43.688" x2="15" y2="55.375" gradientUnits="userSpaceOnUse"><stop stop-color="#79CBC8"/><stop offset="1" stop-color="#139DE5"/></linearGradient><linearGradient id="paint12_linear_422_23483" x1="13.821" y1="40.898" x2="13.821" y2="47.937" gradientUnits="userSpaceOnUse"><stop stop-color="#79CBC8"/><stop offset="1" stop-color="#139DE5"/></linearGradient><linearGradient id="paint13_linear_422_23483" x1="48.469" y1="39.438" x2="48.469" y2="59.625" gradientUnits="userSpaceOnUse"><stop stop-color="#79CBC8"/><stop offset="1" stop-color="#139DE5"/></linearGradient><linearGradient id="paint14_linear_422_23483" x1="49" y1="4.375" x2="49" y2="22.438" gradientUnits="userSpaceOnUse"><stop stop-color="#79CBC8"/><stop offset="1" stop-color="#139DE5"/></linearGradient></defs></svg>