<svg width="70" height="70" viewBox="0 0 70 70" fill="none" xmlns="http://www.w3.org/2000/svg">
<circle cx="35" cy="35" r="35" fill="#FFEEEE"></circle>
<g clip-path="url('#clip0_422_20142')">
<path d="M52.7764 27.3481C50.9717 25.6818 48.4752 23.1372 46.4419 21.3325L46.3216 21.2483C46.1214 21.0876 45.8957 20.9615 45.6539 20.8753V20.8753C40.7511 19.961 17.9339 15.6959 17.4887 15.75C17.364 15.7675 17.2447 15.8127 17.1398 15.8824L17.0255 15.9726C16.8848 16.1155 16.7779 16.2882 16.7127 16.4779L16.6826 16.5561V16.9832V17.0494C19.2513 24.202 29.3936 47.6328 31.3908 53.1311C31.5111 53.5041 31.7397 54.2139 32.1668 54.25H32.2631C32.4917 54.25 33.4662 52.9627 33.4662 52.9627C33.4662 52.9627 50.8875 31.8358 52.65 29.586C52.8782 29.3088 53.0796 29.0107 53.2516 28.6956C53.2955 28.4491 53.2748 28.1954 53.1915 27.9593C53.1082 27.7231 52.9652 27.5126 52.7764 27.3481V27.3481ZM37.9358 29.8085L45.3711 23.6425L49.7325 27.661L37.9358 29.8085ZM35.0483 29.4055L22.2471 18.9142L42.9589 22.7342L35.0483 29.4055ZM36.2033 32.1546L49.3054 30.0431L34.3264 48.09L36.2033 32.1546ZM20.5086 19.961L33.9775 31.3906L32.0285 48.1021L20.5086 19.961Z" fill="#FF060A"></path>
</g>
<defs>
<clipPath id="clip0_422_20142">
<rect width="38.5" height="38.5" fill="white" transform="translate(15.75 15.75)"></rect>
</clipPath>
</defs>
</svg>
