<svg width="16" height="16" fill="none" xmlns="http://www.w3.org/2000/svg"><g clip-path="url('#clip0_422_5819')"><path d="M15.387 4.82c-.75-.693-1.787-1.75-2.632-2.5l-.05-.035a.955.955 0 0 0-.277-.155C10.39 1.75.908-.023.723 0a.35.35 0 0 0-.145.055L.53.092a.557.557 0 0 0-.13.21L.388.335V.54C1.455 3.512 5.67 13.25 6.5 15.535c.05.155.145.45.323.465h.04c.095 0 .5-.535.5-.535s7.24-8.78 7.972-9.715c.095-.115.178-.24.25-.37a.6.6 0 0 0-.198-.56ZM9.22 5.842l3.09-2.562 1.813 1.67-4.903.892Zm-1.2-.167L2.7 1.315l8.607 1.587L8.02 5.675Zm.48 1.142 5.445-.877-6.225 7.5.78-6.623ZM1.978 1.75 7.575 6.5l-.81 6.945L1.978 1.75Z" fill="#FF060A"/></g><defs><clipPath id="clip0_422_5819"><path fill="#fff" d="M0 0h16v16H0z"/></clipPath></defs></svg>