<svg width="70" height="70" fill="none" xmlns="http://www.w3.org/2000/svg"><circle cx="35" cy="35" r="35" fill="#FEE"/><g clip-path="url('#a')"><path fill="#FF060A" d="M52.776 27.348c-1.804-1.666-4.3-4.21-6.334-6.015l-.12-.085c-.2-.16-.426-.287-.668-.373-4.903-.914-27.72-5.18-28.165-5.125a.842.842 0 0 0-.35.132l-.113.09c-.141.144-.248.316-.313.506l-.03.078v.493c2.568 7.153 12.71 30.584 14.708 36.082.12.373.349 1.083.776 1.119h.096c.229 0 1.203-1.287 1.203-1.287S50.888 31.836 52.65 29.586c.228-.277.43-.575.602-.89a1.45 1.45 0 0 0-.476-1.348Zm-14.84 2.46 7.435-6.166 4.361 4.019-11.796 2.147Zm-2.888-.402-12.8-10.492 20.71 3.82-7.91 6.671Zm1.155 2.749 13.102-2.112L34.326 48.09l1.877-15.935ZM20.51 19.96l13.468 11.43-1.948 16.711-11.52-28.141Z"/></g><defs><clipPath id="prefix__a"><path fill="#fff" d="M0 0h38.5v38.5H0z" transform="translate(15.75 15.75)"/></clipPath></defs></svg>