<svg width="70" height="70" fill="none" xmlns="http://www.w3.org/2000/svg"><g clip-path="url('#a')"><path fill="#2775CA" d="M35 70c19.396 0 35-15.604 35-35S54.396 0 35 0 0 15.604 0 35s15.604 35 35 35Z"/><path fill="#fff" d="M44.625 40.541c0-5.103-3.063-6.853-9.188-7.583-4.375-.583-5.25-1.75-5.25-3.791 0-2.042 1.458-3.355 4.375-3.355 2.625 0 4.084.875 4.813 3.063.145.438.583.729 1.02.729h2.334a.997.997 0 0 0 1.02-1.02v-.146a7.286 7.286 0 0 0-6.562-5.98v-3.5c0-.583-.437-1.02-1.166-1.166h-2.188c-.583 0-1.02.437-1.167 1.166v3.355c-4.375.583-7.145 3.5-7.145 7.145 0 4.813 2.916 6.709 9.041 7.438 4.084.729 5.396 1.604 5.396 3.937 0 2.334-2.042 3.938-4.813 3.938-3.791 0-5.104-1.605-5.541-3.792-.146-.583-.584-.875-1.021-.875h-2.48a.997.997 0 0 0-1.02 1.021v.146c.583 3.645 2.917 6.27 7.73 7v3.5c0 .583.437 1.02 1.166 1.166h2.187c.584 0 1.021-.437 1.167-1.166v-3.5c4.375-.73 7.292-3.792 7.292-7.73Z"/><path fill="#fff" d="M27.562 55.854c-11.375-4.083-17.208-16.77-12.979-28 2.188-6.125 7-10.791 12.98-12.979.583-.291.874-.729.874-1.458v-2.042c0-.583-.291-1.02-.875-1.166-.146 0-.437 0-.583.145C13.125 14.73 5.541 29.46 9.916 43.313c2.625 8.166 8.896 14.437 17.063 17.062.583.292 1.167 0 1.313-.583.145-.146.145-.292.145-.584v-2.041c0-.438-.437-1.021-.875-1.313Zm15.459-45.5c-.584-.291-1.167 0-1.313.584-.146.146-.146.291-.146.583v2.041c0 .584.438 1.167.875 1.459 11.375 4.083 17.209 16.77 12.98 28-2.188 6.125-7 10.791-12.98 12.979-.583.292-.875.73-.875 1.459V59.5c0 .584.292 1.021.875 1.167.146 0 .438 0 .584-.146 13.854-4.375 21.437-19.104 17.062-32.959-2.625-8.312-9.041-14.583-17.062-17.208Z"/></g><defs><clipPath id="prefix__a"><path fill="#fff" d="M0 0h70v70H0z"/></clipPath></defs></svg>