<svg width="83" height="70" fill="none" xmlns="http://www.w3.org/2000/svg"><path fill="#1BA27A" d="M68.086 34.452c0 18.86-15.049 34.146-33.613 34.146S.859 53.311.859 34.452 15.91.306 34.473.306c18.564 0 33.613 15.287 33.613 34.146Z"/><path fill="#fff" d="M50.42 18.78H20.168v7.604h11.474v11.177h7.304V26.384H50.42V18.78Z"/><path fill="#fff" d="M35.294 37.83c-9.92 0-17.961-1.496-17.961-3.344 0-1.846 8.041-3.344 17.961-3.344 9.92 0 17.962 1.498 17.962 3.344 0 1.848-8.042 3.345-17.962 3.345Zm20.168-2.786c0-2.382-9.03-4.312-20.168-4.312s-20.168 1.93-20.168 4.312c0 2.097 7.002 3.845 16.28 4.232v15.358h7.632V39.282c9.35-.375 16.424-2.13 16.424-4.238Z"/><path fill="#5364F6" d="M62.805 51.663c8.82 0 15.97-7.261 15.97-16.22 0-8.957-7.15-16.219-15.97-16.219s-15.97 7.262-15.97 16.22c0 8.958 7.15 16.22 15.97 16.22Z"/><g clip-path="url('#a')"><path fill="#010101" d="M62.916 32.583 56.519 35.5l6.397 3.789 6.394-3.79-6.394-2.916Z" opacity=".6"/><path fill="#010101" d="m56.519 35.5 6.397 3.789v-14.43l-6.397 10.64Z" opacity=".45"/><path fill="#010101" d="M62.915 24.859v14.43l6.395-3.79-6.395-10.64Z" opacity=".8"/><path fill="#010101" d="m56.519 36.715 6.397 9.035v-5.246l-6.397-3.79Z" opacity=".45"/><path fill="#010101" d="M62.915 40.504v5.246l6.4-9.035-6.4 3.789Z" opacity=".8"/></g><defs><clipPath id="prefix__a"><path fill="#fff" d="M0 0h13.781v21.41H0z" transform="translate(56.023 24.859)"/></clipPath></defs></svg>