<svg width="80" height="70" viewBox="0 0 80 70" fill="none" xmlns="http://www.w3.org/2000/svg">
<path d="M68.0851 34.1464C68.0851 53.0058 52.8441 68.2927 34.0424 68.2927C15.2415 68.2927 0 53.0058 0 34.1464C0 15.2877 15.2415 0 34.0424 0C52.8441 0 68.0851 15.2877 68.0851 34.1464Z" fill="#1BA27A"></path>
<path d="M49.3619 17.0732H18.7236V24.6772H30.3445V35.8537H37.7411V24.6772H49.3619V17.0732Z" fill="white"></path>
<path d="M34.0429 36.1234C23.9968 36.1234 15.8519 34.6263 15.8519 32.7792C15.8519 30.9323 23.9964 29.4349 34.0429 29.4349C44.089 29.4349 52.2335 30.9323 52.2335 32.7792C52.2335 34.6263 44.089 36.1234 34.0429 36.1234ZM54.4682 33.3367C54.4682 30.955 45.3236 29.0244 34.0429 29.0244C22.7625 29.0244 13.6172 30.955 13.6172 33.3367C13.6172 35.4341 20.7083 37.1815 30.1049 37.5687V52.9269H37.8341V37.5748C47.3031 37.1997 54.4682 35.4449 54.4682 33.3367Z" fill="white"></path>
<path d="M62.8128 50.431C71.7434 50.431 78.983 43.1692 78.983 34.2115C78.983 25.2537 71.7434 17.9919 62.8128 17.9919C53.8822 17.9919 46.6426 25.2537 46.6426 34.2115C46.6426 43.1692 53.8822 50.431 62.8128 50.431Z" fill="#FF060A"></path>
<path d="M71.7443 32.3705C70.9307 31.5974 69.8052 30.4167 68.8884 29.5794L68.8342 29.5403C68.7441 29.4658 68.6421 29.4073 68.5333 29.3673C66.3227 28.943 56.0358 26.9641 55.8351 26.9893C55.7789 26.9974 55.7251 27.0183 55.6778 27.0506L55.6263 27.0925C55.5628 27.1588 55.5147 27.239 55.4853 27.327L55.4717 27.3633V27.5614V27.5922C56.6298 30.9108 61.2024 41.7822 62.1028 44.3332C62.1571 44.5064 62.2601 44.8358 62.4527 44.8524H62.4961C62.5992 44.8524 63.0385 44.2552 63.0385 44.2552C63.0385 44.2552 70.8927 34.4527 71.6875 33.4088C71.7904 33.2802 71.8813 33.1419 71.9585 32.9958C71.9786 32.8814 71.9692 32.7637 71.9316 32.6541C71.8941 32.5445 71.8296 32.4468 71.7443 32.3705ZM65.0538 33.5121L68.4056 30.6512L70.372 32.5157L65.0538 33.5121ZM63.752 33.3251L57.9804 28.4574L67.3181 30.2298L63.752 33.3251ZM64.2727 34.6006L70.1795 33.621L63.4263 41.9945L64.2727 34.6006ZM57.1966 28.943L63.2692 34.2462L62.3903 41.9997L57.1966 28.943Z" fill="white"></path>
</svg>
