<svg width="80" height="70" fill="none" xmlns="http://www.w3.org/2000/svg"><path fill="#1BA27A" d="M68.085 34.146c0 18.86-15.24 34.147-34.043 34.147C15.242 68.293 0 53.006 0 34.146 0 15.288 15.242 0 34.042 0c18.802 0 34.043 15.288 34.043 34.146Z"/><path fill="#fff" d="M49.362 17.073H18.724v7.604h11.62v11.177h7.397V24.677h11.62v-7.604Z"/><path fill="#fff" d="M34.043 36.123c-10.046 0-18.191-1.497-18.191-3.344 0-1.847 8.144-3.344 18.19-3.344 10.047 0 18.191 1.497 18.191 3.344 0 1.847-8.144 3.344-18.19 3.344Zm20.425-2.786c0-2.382-9.144-4.313-20.425-4.313-11.28 0-20.426 1.931-20.426 4.313 0 2.097 7.091 3.844 16.488 4.232v15.358h7.73V37.575c9.468-.375 16.633-2.13 16.633-4.238Z"/><path fill="#FF060A" d="M62.813 50.431c8.93 0 16.17-7.262 16.17-16.22 0-8.957-7.24-16.22-16.17-16.22-8.93 0-16.17 7.263-16.17 16.22 0 8.958 7.24 16.22 16.17 16.22Z"/><path fill="#fff" d="M71.744 32.37c-.813-.773-1.939-1.953-2.856-2.79l-.054-.04a1.031 1.031 0 0 0-.3-.173c-2.211-.424-12.498-2.403-12.699-2.378a.373.373 0 0 0-.157.062l-.052.042a.625.625 0 0 0-.14.234l-.014.036v.229c1.158 3.319 5.73 14.19 6.63 16.741.055.173.158.503.35.52h.044c.103 0 .542-.598.542-.598s7.855-9.802 8.65-10.846c.102-.129.193-.267.27-.413a.687.687 0 0 0-.214-.626Zm-6.69 1.142 3.352-2.86 1.966 1.864-5.318.996Zm-1.302-.187-5.772-4.868 9.338 1.773-3.566 3.095Zm.52 1.276 5.907-.98-6.753 8.373.847-7.393Zm-7.075-5.658 6.072 5.303L62.39 42l-5.193-13.057Z"/></svg>