<svg width="67" height="67" fill="none" xmlns="http://www.w3.org/2000/svg"><g clip-path="url('#clip0_422_25047')"><path d="M61.111.13H5.89A5.895 5.895 0 0 0 0 6.02v54.96a5.895 5.895 0 0 0 5.889 5.89H61.11A5.895 5.895 0 0 0 67 60.98V6.02A5.895 5.895 0 0 0 61.111.13ZM5.89 4.058H61.11c1.083 0 1.963.88 1.963 1.963v9.814H3.926V6.02c0-1.083.88-1.963 1.963-1.963ZM61.11 62.943H5.89a1.965 1.965 0 0 1-1.963-1.962V19.76h59.148v41.22c0 1.083-.88 1.963-1.963 1.963Z" fill="url('#paint0_linear_422_25047')"/><path d="M40.162 25.808a1.963 1.963 0 0 0-2.578 1.03L25.807 54.32a1.963 1.963 0 1 0 3.609 1.546l11.777-27.48a1.963 1.963 0 0 0-1.031-2.577Z" fill="url('#paint1_linear_422_25047')"/><path d="M23.255 32.274a1.963 1.963 0 0 0-2.758-.307l-9.815 7.852a1.964 1.964 0 0 0 0 3.065l9.815 7.852a1.963 1.963 0 1 0 2.452-3.065l-7.899-6.32 7.899-6.318a1.963 1.963 0 0 0 .306-2.76Z" fill="url('#paint2_linear_422_25047')"/><path d="m56.318 39.819-9.814-7.852a1.963 1.963 0 1 0-2.453 3.066l7.899 6.319-7.899 6.319a1.963 1.963 0 1 0 2.453 3.065l9.814-7.852a1.963 1.963 0 0 0 0-3.065Z" fill="url('#paint3_linear_422_25047')"/><path d="M9.945 11.908a1.963 1.963 0 1 0 0-3.926 1.963 1.963 0 0 0 0 3.926Z" fill="url('#paint4_linear_422_25047')"/><path d="M17.797 11.908a1.963 1.963 0 1 0 0-3.926 1.963 1.963 0 0 0 0 3.926Z" fill="url('#paint5_linear_422_25047')"/><path d="M25.648 11.908a1.963 1.963 0 1 0 0-3.926 1.963 1.963 0 0 0 0 3.926Z" fill="url('#paint6_linear_422_25047')"/><path d="M45.277 11.908h11.778a1.963 1.963 0 0 0 0-3.926H45.277a1.963 1.963 0 0 0 0 3.926Z" fill="url('#paint7_linear_422_25047')"/></g><defs><linearGradient id="paint0_linear_422_25047" x1="33.5" y1=".131" x2="33.5" y2="66.869" gradientUnits="userSpaceOnUse"><stop stop-color="#78CBC9"/><stop offset="1" stop-color="#0B99E7"/></linearGradient><linearGradient id="paint1_linear_422_25047" x1="33.5" y1="25.648" x2="33.5" y2="57.056" gradientUnits="userSpaceOnUse"><stop stop-color="#78CBC9"/><stop offset="1" stop-color="#0B99E7"/></linearGradient><linearGradient id="paint2_linear_422_25047" x1="16.816" y1="31.537" x2="16.816" y2="51.166" gradientUnits="userSpaceOnUse"><stop stop-color="#78CBC9"/><stop offset="1" stop-color="#0B99E7"/></linearGradient><linearGradient id="paint3_linear_422_25047" x1="50.184" y1="31.537" x2="50.184" y2="51.166" gradientUnits="userSpaceOnUse"><stop stop-color="#78CBC9"/><stop offset="1" stop-color="#0B99E7"/></linearGradient><linearGradient id="paint4_linear_422_25047" x1="9.945" y1="7.982" x2="9.945" y2="11.908" gradientUnits="userSpaceOnUse"><stop stop-color="#78CBC9"/><stop offset="1" stop-color="#0B99E7"/></linearGradient><linearGradient id="paint5_linear_422_25047" x1="17.797" y1="7.982" x2="17.797" y2="11.908" gradientUnits="userSpaceOnUse"><stop stop-color="#78CBC9"/><stop offset="1" stop-color="#0B99E7"/></linearGradient><linearGradient id="paint6_linear_422_25047" x1="25.648" y1="7.982" x2="25.648" y2="11.908" gradientUnits="userSpaceOnUse"><stop stop-color="#78CBC9"/><stop offset="1" stop-color="#0B99E7"/></linearGradient><linearGradient id="paint7_linear_422_25047" x1="51.166" y1="7.982" x2="51.166" y2="11.908" gradientUnits="userSpaceOnUse"><stop stop-color="#78CBC9"/><stop offset="1" stop-color="#0B99E7"/></linearGradient><clipPath id="clip0_422_25047"><path fill="#fff" d="M0 0h67v67H0z"/></clipPath></defs></svg>