<svg width="68" height="68" fill="none" xmlns="http://www.w3.org/2000/svg"><path d="M63.444 17.01c-4.54-7.862-11.87-13.487-20.64-15.837C34.034-1.177 24.874.03 17.01 4.57c-7.863 4.54-13.487 11.87-15.837 20.64-2.35 8.77-1.144 17.93 3.396 25.793a33.984 33.984 0 0 0 18.224 15.094A34.105 34.105 0 0 0 34.029 68c4.125 0 8.244-.75 12.137-2.246a1.328 1.328 0 1 0-.953-2.48c-10.363 3.984-21.58 2.174-29.961-4.117l1.19-6.21.573-.187a4.137 4.137 0 0 0 2.653-5.206l-.42-1.295c-.098-.3-.097-.616 0-.916a4.133 4.133 0 0 0-3.133-5.342l-2.997-.586-5.784-4.397c-.346-.264-.8-.34-1.214-.206l-3.386 1.1a31.312 31.312 0 0 1-.005-3.627c.134.125.22.21.274.265.067.11.149.212.245.3.276.251.527.365 1.053.365.483 0 1.198-.096 2.38-.27 1.12-.166 2.235-.353 2.246-.355a1.328 1.328 0 0 0 .877-2.058l-1.628-2.388 2.332-1.668c.156-.111.286-.254.38-.42l3.616-6.312 1.457-1.562a5.61 5.61 0 0 0 1.083-5.95 6.108 6.108 0 0 0-2.42-2.849 31.438 31.438 0 0 1 3.714-2.514 31.14 31.14 0 0 1 15.305-4.188L31.27 5.656l-8.794 3.083a1.327 1.327 0 0 0-.788.746l-2.456 5.954c-.175.423-.12.906.147 1.278l3.587 5.024c-.514.47-1.014 1.152-1.611 2-.262.371-.51.722-.68.92l-.445.503c-.772.868-1.57 1.766-2.136 2.965-1.246 2.638-.994 5.703.657 8 1.596 2.222 4.228 3.351 7.038 3.02.457-.053.884-.159 1.297-.26 1.138-.283 1.5-.31 1.864.031.178.167.194.198.19.762-.002.36-.004.806.12 1.316.198.817.71 1.38 1.122 1.834.204.225.416.458.481.614.415.993.234 1.543-.161 2.747l-.103.316c-.6 1.859.236 3.703.975 5.329.24.528.466 1.027.615 1.468 1.194 3.543 2.089 4.354 2.807 4.681a2.77 2.77 0 0 0 1.16.246c1.914 0 3.912-1.778 4.83-2.905.576-.707.718-1.416.821-1.933.052-.258.093-.461.17-.594.119-.203.259-.36.436-.56.356-.401.799-.9 1.086-1.804.218-.687.377-.855.901-1.414.092-.097.189-.201.293-.315 1.77-1.925 1.314-3.395.831-4.952-.406-1.31.305-2.148 2.022-3.747.744-.693 1.513-1.41 2.108-2.27.26-.377 1.053-1.524.562-2.66-.48-1.115-1.7-1.302-2.682-1.453-.387-.059-.973-.149-1.16-.27-.82-.538-1.324-1.659-1.81-2.743-.096-.216-.192-.43-.289-.636-.173-.369-.345-.815-.528-1.288-.483-1.25-1.03-2.668-1.963-3.656-.837-.888-2.417-1.316-3.81-1.693a16.381 16.381 0 0 1-1.203-.354 1.326 1.326 0 0 0-.764-.048c-.678.16-1.1.335-1.415.586a1.65 1.65 0 0 0-.473.637c-.486-.234-1.155-.68-1.566-.954l-.026-.017c.139-.555.013-1-.118-1.278-.742-1.57-3.205-1.447-3.69-1.405-.277.023-.626.035-.995.048-.58.02-1.222.044-1.856.115l.033-.091a3.396 3.396 0 0 1 3.188-2.243h.755a1.328 1.328 0 0 0 0-2.656h-.755a6.062 6.062 0 0 0-5.14 2.867l-1.982-2.775 1.95-4.724 8.593-3.013c.235-.082.443-.23.599-.425l3.82-4.792c9.76.929 18.949 6.401 24.214 15.52a30.996 30.996 0 0 1 3.13 7.602l-.564.502a3.547 3.547 0 0 0-1.182 2.613l-.918-2.523a3.314 3.314 0 0 0-.598-1.026l-1.636-1.915a3.328 3.328 0 0 0-2.534-1.168h-2.003c-.71 0-1.36.389-1.696 1.016a1.92 1.92 0 0 0 .096 1.974l.203.304a14.719 14.719 0 0 1-4.385 2.604l-2.745-5.258V21.89c0-.363-.149-.71-.411-.96l-2.472-2.36a1.329 1.329 0 0 0-.477-.293l-2.225-.782a1.328 1.328 0 1 0-.881 2.506l1.955.687 1.855 1.77v.93c0 .215.052.426.15.615l3.437 6.584c.31.592 1.01.863 1.637.631l1-.369a17.38 17.38 0 0 0 6.233-3.989 1.328 1.328 0 0 0 .166-1.675l-.071-.106h.634c.198 0 .386.086.515.237l1.636 1.916a.676.676 0 0 1 .121.208l1.806 4.965a1.328 1.328 0 0 0 2.187.485l.86-.86a4.146 4.146 0 0 0 1.097-1.996c1.33 10.652-2.847 21.671-11.676 28.6a1.328 1.328 0 1 0 1.64 2.09 33.973 33.973 0 0 0 12.33-20.148 33.968 33.968 0 0 0-3.914-23.565ZM6.28 37.554l5.476 4.163c.162.123.35.208.549.246l3.3.645c.422.083.773.332.99.702.218.37.263.799.13 1.207a4.105 4.105 0 0 0-.004 2.564l.42 1.294a1.477 1.477 0 0 1-.947 1.86l-1.32.429c-.46.15-.802.538-.893 1.013l-1.062 5.544a31.686 31.686 0 0 1-6.05-7.546 31.171 31.171 0 0 1-3.858-11.06l3.269-1.061Zm7.74-21.183-1.563 1.674c-.07.075-.13.157-.181.246l-3.548 6.194-3.153 2.255a1.328 1.328 0 0 0-.325 1.828l1.18 1.73c-.68.101-1.29.184-1.696.229-.078-.075-.16-.15-.244-.23a67.212 67.212 0 0 0-1.408-1.256c1.078-6.676 4.295-12.965 9.354-17.765a3.453 3.453 0 0 1 2.152 1.97 2.947 2.947 0 0 1-.568 3.125Zm10.828 7.258c.592-.334 1.967-.383 2.97-.418a24.24 24.24 0 0 0 1.123-.056c.179-.015.378-.012.565.002a1.327 1.327 0 0 0 .611 1.652c.25.134.596.365.963.61 1.038.692 2.215 1.476 3.32 1.546 1.005.066 1.565-.507 1.804-.751l.056-.057a1.42 1.42 0 0 0 .356-.435c.212.06.435.121.664.183.786.213 2.25.61 2.573.952.575.61 1.023 1.768 1.418 2.79.2.517.388 1.005.6 1.457.09.194.18.394.27.597.613 1.367 1.308 2.916 2.782 3.88.668.436 1.487.562 2.21.672l.289.046c-.43.598-1.04 1.167-1.685 1.768-1.644 1.531-3.69 3.437-2.748 6.477.445 1.435.465 1.59-.25 2.368-.097.106-.188.203-.273.294-.613.652-1.097 1.167-1.497 2.428-.117.367-.267.537-.541.845-.219.246-.492.553-.743.984-.301.515-.4 1.012-.48 1.41-.08.393-.124.59-.278.78a7.745 7.745 0 0 1-1.677 1.482c-.624.396-.988.45-1.113.443-.141-.152-.655-.817-1.43-3.12-.191-.567-.457-1.152-.713-1.717-.566-1.246-1.15-2.534-.866-3.414.033-.104.066-.206.1-.305.454-1.385.883-2.693.088-4.598-.242-.58-.627-1.004-.967-1.378-.22-.241-.469-.516-.507-.673-.047-.193-.045-.415-.044-.672.005-.694.012-1.743-1.03-2.719-1.47-1.376-3.184-.952-4.319-.671-.348.086-.677.167-.969.202-1.866.218-3.531-.486-4.571-1.933-1.088-1.514-1.246-3.55-.412-5.316.404-.854 1.013-1.54 1.72-2.334.154-.174.31-.349.465-.528.259-.299.544-.703.845-1.13.36-.512 1.03-1.463 1.32-1.643Z" fill="url('#paint0_linear_422_15480')"/><defs><linearGradient id="paint0_linear_422_15480" x1="34" y1="0" x2="34" y2="68" gradientUnits="userSpaceOnUse"><stop stop-color="#73CACC"/><stop offset="1" stop-color="#119CE6"/></linearGradient></defs></svg>