<svg width="68" height="68" viewBox="0 0 68 68" fill="none" xmlns="http://www.w3.org/2000/svg">
<path d="M63.4437 17.0107C58.9039 9.14758 51.5738 3.5231 42.8037 1.17312C34.0338 -1.17686 24.8735 0.0292057 17.0103 4.56887C9.14728 9.10853 3.52267 16.4387 1.17282 25.2087C-1.17703 33.9787 0.0289023 43.1392 4.56857 51.0022C8.64073 58.0555 15.1129 63.416 22.793 66.0958C26.4335 67.3661 30.2339 68 34.0285 68C38.1543 68 42.2727 67.2501 46.1656 65.754C46.8502 65.4909 47.1918 64.7226 46.9286 64.0379C46.6654 63.3533 45.8969 63.0113 45.2125 63.2749C34.8505 67.2576 23.6329 65.448 15.252 59.1572L16.4419 52.9462L17.0152 52.76C19.1818 52.0561 20.3718 49.7207 19.6682 47.554L19.2474 46.2592C19.1501 45.9596 19.1506 45.6429 19.2487 45.3435C19.6178 44.2183 19.4859 42.9873 18.8868 41.9657C18.2877 40.9442 17.2777 40.228 16.1154 40.0007L13.1178 39.415L7.33412 35.0176C6.98761 34.7541 6.53406 34.6772 6.11995 34.8116L2.73376 35.9116C2.66191 34.7004 2.66085 33.4897 2.72911 32.2854C2.86272 32.4098 2.94972 32.4944 3.00324 32.5499C3.06951 32.6603 3.15159 32.7615 3.24775 32.8492C3.52426 33.101 3.77475 33.2152 4.30068 33.2152C4.78399 33.2151 5.49945 33.1188 6.68082 32.9443C7.80122 32.7786 8.91578 32.592 8.92681 32.5902C9.37346 32.5154 9.75104 32.2179 9.92875 31.8015C10.1065 31.385 10.0596 30.9068 9.80443 30.5325L8.17602 28.144L10.5085 26.4762C10.6639 26.365 10.7935 26.2217 10.8884 26.0559L14.504 19.744L15.9614 18.1824C17.4506 16.5863 17.8756 14.251 17.0439 12.2328C16.5533 11.0424 15.6964 10.0514 14.6246 9.38346C15.7854 8.4709 17.0231 7.62834 18.3384 6.86905C23.1646 4.08264 28.4314 2.73234 33.6428 2.68067L31.2713 5.65554L22.4771 8.73852C22.12 8.86363 21.8331 9.13536 21.6889 9.48519L19.2329 15.4389C19.0585 15.8619 19.1139 16.3446 19.3797 16.717L22.9667 21.7415C22.453 22.2102 21.9529 22.8929 21.3557 23.7405C21.0938 24.1122 20.8465 24.4633 20.6755 24.6601C20.5269 24.8314 20.3782 24.9988 20.2307 25.1645C19.4592 26.0324 18.6616 26.9301 18.0949 28.1291C16.8488 30.7667 17.1005 33.8322 18.7516 36.1296C20.3482 38.3509 22.9802 39.4801 25.7895 39.1497C26.2472 39.096 26.6739 38.9904 27.0868 38.8881C28.2254 38.6065 28.5861 38.5783 28.9513 38.9202C29.1291 39.0866 29.1454 39.118 29.1418 39.6824C29.1393 40.0415 29.1365 40.4883 29.2603 40.9984C29.4586 41.8145 29.9711 42.3786 30.3828 42.8318C30.5875 43.0569 30.7992 43.2898 30.8644 43.4461C31.2786 44.4388 31.0983 44.9885 30.703 46.1931C30.6691 46.2962 30.6346 46.4014 30.5999 46.5092C29.9995 48.3679 30.8365 50.2116 31.5749 51.838C31.8148 52.3662 32.0412 52.8648 32.1896 53.3055C33.3837 56.8488 34.2789 57.6603 34.9972 57.987C35.3735 58.158 35.7629 58.2331 36.1563 58.233C38.0708 58.2328 40.0686 56.4553 40.9863 55.3283C41.5627 54.6207 41.7047 53.9122 41.8083 53.3946C41.8599 53.1372 41.9006 52.934 41.9781 52.8012C42.0969 52.598 42.2367 52.4405 42.4138 52.241C42.7698 51.84 43.213 51.3412 43.5 50.4369C43.7181 49.75 43.8766 49.5815 44.4013 49.0227C44.4927 48.9256 44.59 48.8217 44.6945 48.708C46.4635 46.7832 46.0079 45.3128 45.5254 43.756C45.1194 42.4461 45.8296 41.6083 47.5466 40.0094C48.2908 39.3162 49.0604 38.5995 49.6552 37.7384C49.9155 37.3615 50.7075 36.2149 50.2174 35.0784C49.737 33.9641 48.5161 33.7769 47.5351 33.6265C47.1477 33.567 46.5623 33.4772 46.3759 33.3554C45.5542 32.8182 45.0515 31.697 44.5653 30.6126C44.4685 30.3968 44.373 30.1838 44.2762 29.977C44.1035 29.608 43.931 29.1616 43.7484 28.6891C43.2652 27.4385 42.7176 26.021 41.7854 25.0329C40.9475 24.145 39.368 23.7174 37.9744 23.3399C37.5057 23.2131 37.0633 23.0933 36.7715 22.9856C36.527 22.8953 36.2616 22.8789 36.0085 22.9384C35.3302 23.0974 34.9071 23.2726 34.5928 23.5244C34.5098 23.5909 34.264 23.8094 34.12 24.1606C33.6338 23.9272 32.9652 23.4816 32.5538 23.2074C32.5453 23.2017 32.5366 23.196 32.5281 23.1902C32.6668 22.6354 32.5413 22.19 32.4098 21.9119C31.6679 20.3426 29.2052 20.4655 28.7193 20.5068C28.4433 20.5299 28.0942 20.5422 27.7248 20.5552C27.1447 20.5758 26.5035 20.5989 25.869 20.6701L25.9017 20.579C26.3833 19.2372 27.6647 18.3357 29.0903 18.3357H29.8453C30.5786 18.3357 31.1733 17.7409 31.1733 17.0077C31.1733 16.2744 30.5786 15.6797 29.8453 15.6797H29.0903C26.9738 15.6797 25.0356 16.7936 23.9494 18.5469L21.9685 15.772L23.9174 11.048L32.5107 8.03528C32.7463 7.95267 32.9541 7.80524 33.1098 7.60988L36.9299 2.81814C46.6908 3.74663 55.8788 9.2193 61.1438 18.3385C62.5461 20.7675 63.5835 23.3247 64.2732 25.9401L63.7102 26.4422C62.9754 27.0979 62.5448 28.0383 62.5283 29.0226C62.5282 29.0333 62.5279 29.044 62.5275 29.0546L61.6103 26.5322C61.4737 26.1558 61.2723 25.8106 61.0123 25.5064L59.3762 23.5908C58.7419 22.8483 57.8183 22.4226 56.842 22.4226H54.8393C54.1283 22.4226 53.4786 22.812 53.1433 23.4385C52.8079 24.0651 52.8446 24.8218 53.2389 25.4131L53.4416 25.7174C52.1475 26.8302 50.6507 27.7207 49.0569 28.3213L46.3117 23.0629V21.8897C46.3117 21.5269 46.1632 21.1796 45.9006 20.9292L43.4286 18.5693C43.2922 18.4391 43.1296 18.3395 42.9518 18.277L40.7265 17.495C40.0342 17.2514 39.2763 17.6157 39.0333 18.3075C38.7901 18.9996 39.1539 19.7576 39.8458 20.0008L41.8014 20.6881L43.6557 22.458V23.3888C43.6557 23.6028 43.7075 23.8137 43.8066 24.0035L47.2434 30.5866C47.5524 31.1789 48.2539 31.4496 48.88 31.218L49.8807 30.849C52.2056 29.9916 54.3605 28.6123 56.1126 26.8605C56.5601 26.4128 56.6297 25.7117 56.2785 25.1848L56.2078 25.0787H56.842C57.0403 25.0787 57.2279 25.1652 57.3568 25.316L58.9929 27.2316C59.0456 27.2934 59.0864 27.3632 59.1143 27.4398L60.9198 32.4048C61.075 32.8314 61.4373 33.1491 61.8801 33.2473C61.9757 33.2685 62.072 33.2788 62.1678 33.2788C62.5161 33.2788 62.8552 33.1416 63.1067 32.8898L63.9662 32.0304C64.5104 31.486 64.8851 30.7972 65.0641 30.0337C66.3933 40.6859 62.2165 51.7051 53.3879 58.6344C52.8109 59.0872 52.7102 59.9219 53.1632 60.499C53.616 61.0761 54.4506 61.1767 55.0278 60.7237C61.4017 55.7211 65.7805 48.5658 67.3577 40.5759C68.9496 32.509 67.5597 24.1399 63.4437 17.0107ZM6.27959 37.5525L11.7558 41.7163C11.9177 41.8394 12.1055 41.9236 12.305 41.9625L15.6057 42.6074C16.027 42.6898 16.3784 42.9389 16.5955 43.3092C16.8127 43.6794 16.8584 44.1077 16.7248 44.5155C16.4498 45.354 16.4485 46.2408 16.7212 47.0798L17.1419 48.3744C17.3933 49.1482 16.9681 49.9824 16.1944 50.2338L14.8747 50.6626C14.4142 50.8122 14.0718 51.2005 13.9809 51.6757L12.9186 57.2205C10.5834 55.0832 8.53302 52.5571 6.86875 49.6744C4.83831 46.1579 3.56968 42.4071 3.01054 38.6146L6.27959 37.5525ZM14.0195 16.3703L12.4572 18.0442C12.3875 18.1189 12.3265 18.2015 12.2757 18.2903L8.72799 24.4841L5.57489 26.7387C4.98759 27.1587 4.84336 27.9706 5.25003 28.5672L6.42927 30.2969C5.74954 30.3981 5.13953 30.4815 4.73392 30.5257C4.65596 30.451 4.57441 30.3751 4.49007 30.2968C4.17438 30.0035 3.7357 29.6119 3.08173 29.0396C4.1603 22.364 7.37702 16.0751 12.4361 11.2746C13.4048 11.5796 14.1999 12.3023 14.5882 13.2448C15.0252 14.305 14.8018 15.5319 14.0195 16.3703ZM24.8477 23.6276C25.4401 23.2942 26.8149 23.2455 27.8187 23.2099C28.221 23.1957 28.6011 23.1821 28.9406 23.1537C29.1198 23.1387 29.3187 23.1415 29.5064 23.1561C29.4226 23.3713 29.3953 23.6074 29.4317 23.8417C29.4956 24.2538 29.7497 24.6117 30.1173 24.8084C30.3665 24.9418 30.7132 25.173 31.0803 25.4178C32.1183 26.1097 33.2948 26.894 34.4001 26.9644C35.4052 27.0296 35.9645 26.4568 36.2041 26.2128C36.2232 26.1934 36.2413 26.174 36.2604 26.1563C36.3954 26.0464 36.5218 25.899 36.6158 25.7211C36.8282 25.7818 37.0513 25.8422 37.28 25.9043C38.0664 26.1172 39.5301 26.5135 39.8535 26.8561C40.4279 27.4651 40.8757 28.6241 41.2708 29.6467C41.4704 30.1634 41.659 30.6511 41.8706 31.1033C41.9614 31.2974 42.0508 31.4973 42.1416 31.6997C42.7544 33.0666 43.449 34.616 44.9226 35.5791C45.5908 36.0159 46.4098 36.1415 47.1326 36.2524C47.22 36.2658 47.3201 36.2812 47.4218 36.2979C46.9929 36.8964 46.3821 37.4651 45.7367 38.066C44.0926 39.5971 42.0465 41.5027 42.9888 44.5426C43.4336 45.9781 43.4543 46.1332 42.7391 46.9112C42.6417 47.0173 42.5508 47.114 42.4657 47.2046C41.8532 47.8567 41.3693 48.3718 40.9688 49.6335C40.8524 49.9999 40.7017 50.1696 40.4279 50.4778C40.2091 50.7243 39.9364 51.0313 39.685 51.4616C39.3838 51.9772 39.2842 52.4737 39.2043 52.8725C39.1256 53.265 39.081 53.4619 38.9269 53.6511C38.5761 54.0816 37.9219 54.7069 37.2503 55.1336C36.6261 55.53 36.2616 55.5841 36.1374 55.5767C35.9957 55.4248 35.4824 54.7595 34.7068 52.4575C34.5155 51.8896 34.2502 51.3052 33.9936 50.7401C33.4279 49.4943 32.8432 48.206 33.1276 47.3256C33.1612 47.2217 33.1944 47.1203 33.2271 47.0211C33.6816 45.6358 34.1106 44.3278 33.3158 42.4232C33.0738 41.8432 32.6886 41.4194 32.349 41.0454C32.1292 40.8036 31.8801 40.5294 31.8417 40.3717C31.795 40.1792 31.7965 39.957 31.7982 39.6998C31.8027 39.0058 31.8096 37.9573 30.7672 36.9811C29.2975 35.6054 27.5836 36.0292 26.4494 36.3097C26.1011 36.3958 25.7719 36.4773 25.4803 36.5116C23.6145 36.7302 21.9488 36.0263 20.9089 34.5792C19.821 33.0655 19.6631 31.0286 20.4969 29.2635C20.9005 28.4094 21.5103 27.7231 22.2163 26.9289C22.3705 26.7553 22.5261 26.5803 22.6818 26.401C22.9408 26.1024 23.2258 25.6981 23.5272 25.2701C23.8869 24.7594 24.5568 23.8085 24.8477 23.6276Z" fill="url('#paint0_linear_422_15480')"></path>
<defs>
<linearGradient id="paint0_linear_422_15480" x1="34" y1="0.000244141" x2="34" y2="68" gradientUnits="userSpaceOnUse">
<stop stop-color="#73CACC"></stop>
<stop offset="1" stop-color="#119CE6"></stop>
</linearGradient>
</defs>
</svg>
